<?xml version="1.0" encoding="utf-8"?>
<!-- Generator: Adobe Illustrator 22.1.0, SVG Export Plug-In . SVG Version: 6.00 Build 0)  -->
<svg version="1.1" id="Слой_1" xmlns="http://www.w3.org/2000/svg" xmlns:xlink="http://www.w3.org/1999/xlink" x="0px" y="0px"
	 viewBox="0 0 207 207" style="enable-background:new 0 0 207 207;" xml:space="preserve">
<style type="text/css">
	.st0{opacity:0.5;fill:none;stroke:#FFFFFF;stroke-miterlimit:10;}
	.st1{opacity:0.25;fill:none;stroke:#FFFFFF;stroke-miterlimit:10;}
	.st2{fill:none;stroke:#FFFFFF;stroke-miterlimit:10;}
	.st3{display:none;fill:#FFFFFF;stroke:#00FFC1;stroke-miterlimit:10;}
	.st4{fill:#FFFFFF;}
</style>
<circle class="st0" cx="103.1" cy="104" r="88.5"/>
<circle class="st1" cx="103.5" cy="103.5" r="103"/>
<circle class="st2" cx="103.1" cy="103.5" r="73"/>
<path class="st3" d="M124.9,107.9c-0.1,0-0.2,0-0.3-0.1H98.2c-0.6,0-1.1,0.5-1.1,1.1c0,0.1,0,0.2,0,0.3l4.6,15.4
	c0.1,0.5,0.6,0.8,1.1,0.8h17c0.5,0,0.9-0.3,1.1-0.8l4.8-15.4C125.8,108.7,125.5,108.1,124.9,107.9L124.9,107.9z M119,123.3h-15.4
	l-3.9-13.2h23.4L119,123.3z M131.2,106.8c-0.5,0-0.9,0.3-1,0.7l-7.4,20.2h-22.3v2.2h5.5v2.4c-1.7,0.6-2.6,2.5-2,4.2s2.5,2.6,4.2,2
	s2.6-2.5,2-4.2c-0.3-0.9-1.1-1.7-2-2v-2.4h9.9v2.4c-1.7,0.6-2.6,2.5-2,4.2s2.5,2.6,4.2,2s2.6-2.5,2-4.2c-0.3-0.9-1.1-1.7-2-2v-2.4
	h3.3c0.5,0,0.9-0.3,1-0.7L132,109h4.7v-2.2H131.2z M107,136.5c-0.6,0-1.1-0.5-1.1-1.1s0.5-1.1,1.1-1.1s1.1,0.5,1.1,1.1
	S107.6,136.5,107,136.5L107,136.5z M119.1,136.5c-0.6,0-1.1-0.5-1.1-1.1s0.5-1.1,1.1-1.1s1.1,0.5,1.1,1.1S119.7,136.5,119.1,136.5
	L119.1,136.5z M104.8,113.4H118v2.2h-13.2V113.4z M105.9,117.8h11v2.2h-11V117.8z M103.4,92.8L83.6,73c-0.4-0.4-1.1-0.4-1.5,0l0,0
	L71,84c-0.4,0.4-0.4,1.1,0,1.5l0,0l19.8,19.8c0.2,0.2,0.5,0.3,0.8,0.3h11c0.6,0,1.1-0.5,1.1-1.1v-11C103.7,93.3,103.6,93,103.4,92.8
	z M101.5,103.5h-9.4L73.4,84.8l9.4-9.4L101.5,94V103.5z M127,82.4c-1.2-1.2-3.1-1.2-4.3,0l0,0l0,0c-1.5,1.5-0.7,3.1-0.2,4
	c0.5,1,0.5,1.1,0.2,1.4s-0.8,0.3-1.2,0l0,0c-0.3-0.3-0.3-0.9,0-1.2l-1.6-1.6c-1.2,1.2-1.1,3.1,0.1,4.3c1.2,1.1,3,1.1,4.2,0
	c1.5-1.5,0.7-3.1,0.2-4c-0.5-1-0.5-1.2-0.2-1.4c0.3-0.3,0.8-0.3,1.2,0l0,0c0.3,0.3,0.3,0.9,0,1.2l1.6,1.6
	C128.2,85.5,128.2,83.6,127,82.4L127,82.4z M84.3,125.8l1.6,1.6c1-1.1,1-2.8,0-3.8s-2.7-1-3.8,0l0,0c-0.9,1-1,2.5-0.2,3.6
	c0.4,0.8,0.4,0.8,0.2,1c-0.2,0.2-0.5,0.2-0.7,0s-0.2-0.5,0-0.7l0,0l-1.6-1.6c-1.1,1.1-1.1,2.8,0,3.8c0.5,0.5,1.2,0.8,1.9,0.8
	c1.5,0,2.7-1.2,2.7-2.7c0-0.6-0.2-1.2-0.6-1.7c-0.4-0.8-0.4-0.8-0.2-1c0.2-0.2,0.5-0.2,0.7,0S84.5,125.6,84.3,125.8L84.3,125.8z
	 M136.4,80.7l-7.7-7.7c-0.4-0.4-1.1-0.4-1.6,0l0,0l-14.3,14.3c-0.2,0.2-0.3,0.5-0.3,0.8v7.7c0,0.6,0.5,1.1,1.1,1.1h7.7
	c0.3,0,0.6-0.1,0.8-0.3l14.3-14.3C136.8,81.8,136.8,81.1,136.4,80.7L136.4,80.7L136.4,80.7z M120.8,94.7h-6.2v-6.1l13.2-13.2
	l6.1,6.2L120.8,94.7z M91.6,116.7h-7.7c-0.3,0-0.6,0.1-0.8,0.3L71,129.1c-0.4,0.4-0.4,1.1,0,1.6l0,0l7.7,7.7c0.4,0.4,1.1,0.4,1.5,0
	l0,0l12.1-12.1c0.2-0.2,0.3-0.5,0.3-0.8v-7.7C92.7,117.2,92.2,116.7,91.6,116.7z M90.5,125l-11,11l-6.1-6.1l11-11h6.1V125z
	 M96.5,96.9c-0.9,0-1.7,0.7-1.7,1.6s0.7,1.7,1.6,1.7s1.7-0.7,1.7-1.6l0,0C98.2,97.6,97.5,96.9,96.5,96.9z M92.9,93.3
	c0.7-1.4,0.5-3.2-0.6-4.3c-1.8-1.8-3.7-0.8-4.9-0.2c-1.3,0.7-1.7,0.8-2.4,0.2c-0.6-0.6-0.6-1.5,0-2.1s1.5-0.6,2.1,0l0,0l1.6-1.6
	c-1.1-1.1-2.9-1.4-4.3-0.7l-1.8-1.8L81,84.4l1.8,1.9c-0.7,1.4-0.5,3.1,0.6,4.3c1.8,1.8,3.7,0.8,4.9,0.2c1.3-0.7,1.7-0.8,2.3-0.2
	c0.6,0.6,0.6,1.5,0,2.1l0,0c-0.6,0.6-1.5,0.6-2.1,0l-1.6,1.6c1.1,1.1,2.9,1.4,4.3,0.7l1.7,1.7l1.6-1.6L92.9,93.3z M111.4,99.1h2.2
	v2.2h-2.2V99.1z M111.4,103.5h2.2v2.2h-2.2V103.5z M92.7,107.9h2.2v2.2h-2.2V107.9z M92.7,112.3h2.2v2.2h-2.2V112.3z"/>
<g>
	<g>
		<path class="st4" d="M132.9,83.7c-2.1,0-3.8,1.7-3.8,3.8c0,2.1,1.7,3.8,3.8,3.8s3.8-1.7,3.8-3.8C136.7,85.5,135,83.7,132.9,83.7z
			 M132.9,89.5c-1.1,0-1.9-0.9-1.9-1.9c0-1.1,0.9-1.9,1.9-1.9s1.9,0.9,1.9,1.9C134.8,88.6,133.9,89.5,132.9,89.5z"/>
	</g>
</g>
<g>
	<g>
		<path class="st4" d="M82.8,115.5c-2.1,0-3.8,1.7-3.8,3.8s1.7,3.8,3.8,3.8c2.1,0,3.8-1.7,3.8-3.8S85,115.5,82.8,115.5z M82.8,121.3
			c-1.1,0-1.9-0.9-1.9-1.9c0-1.1,0.9-1.9,1.9-1.9c1.1,0,1.9,0.9,1.9,1.9C84.8,120.4,83.9,121.3,82.8,121.3z"/>
	</g>
</g>
<g>
	<g>
		<path class="st4" d="M131,85l-8.3-4c-0.5-0.2-1.1,0-1.3,0.4c-0.2,0.5,0,1.1,0.4,1.3l8.3,4c0.1,0.1,0.3,0.1,0.4,0.1
			c0.4,0,0.7-0.2,0.9-0.5C131.7,85.8,131.5,85.2,131,85z"/>
	</g>
</g>
<g>
	<g>
		<path class="st4" d="M122.3,122.2c-2.1,0-3.8,1.7-3.8,3.8s1.7,3.8,3.8,3.8s3.8-1.7,3.8-3.8C126.1,124,124.4,122.2,122.3,122.2z
			 M122.3,128c-1.1,0-1.9-0.9-1.9-1.9c0-1.1,0.9-1.9,1.9-1.9s1.9,0.9,1.9,1.9C124.2,127.1,123.4,128,122.3,128z"/>
	</g>
</g>
<g>
	<g>
		<path class="st4" d="M120.4,123.5l-8.3-4c-0.5-0.2-1.1,0-1.3,0.4c-0.2,0.5,0,1.1,0.4,1.3l8.3,4c0.1,0.1,0.3,0.1,0.4,0.1
			c0.4,0,0.7-0.2,0.9-0.5C121.1,124.3,120.9,123.7,120.4,123.5z"/>
	</g>
</g>
<g>
	<g>
		<path class="st4" d="M107.9,98.2c-2.1,0-3.8,1.7-3.8,3.8c0,2.1,1.7,3.8,3.8,3.8c2.1,0,3.8-1.7,3.8-3.8
			C111.7,99.9,110,98.2,107.9,98.2z M107.9,103.9c-1.1,0-1.9-0.9-1.9-1.9c0-1.1,0.9-1.9,1.9-1.9c1.1,0,1.9,0.9,1.9,1.9
			C109.8,103.1,108.9,103.9,107.9,103.9z"/>
	</g>
</g>
<g>
	<g>
		<path class="st4" d="M106.2,99.5l-6.4-5c-0.4-0.3-1-0.3-1.4,0.2c-0.3,0.4-0.3,1,0.2,1.4l6.4,5c0.2,0.1,0.4,0.2,0.6,0.2
			c0.3,0,0.6-0.1,0.8-0.4C106.7,100.4,106.6,99.8,106.2,99.5z"/>
	</g>
</g>
<g>
	<g>
		<path class="st4" d="M125.2,97.2c-5.8,0-10.6,4.7-10.6,10.6s4.7,10.6,10.6,10.6c5.8,0,10.6-4.7,10.6-10.6S131,97.2,125.2,97.2z
			 M125.2,116.5c-4.8,0-8.7-3.9-8.7-8.7s3.9-8.7,8.7-8.7c4.8,0,8.7,3.9,8.7,8.7S130,116.5,125.2,116.5z"/>
	</g>
</g>
<g>
	<g>
		<path class="st4" d="M125.2,101.1c-2.1,0-3.8,1.7-3.8,3.8c0,2.1,1.7,3.8,3.8,3.8c2.1,0,3.8-1.7,3.8-3.8
			C129,102.8,127.3,101.1,125.2,101.1z M125.2,106.8c-1.1,0-1.9-0.9-1.9-1.9c0-1.1,0.9-1.9,1.9-1.9c1.1,0,1.9,0.9,1.9,1.9
			C127.1,106,126.2,106.8,125.2,106.8z"/>
	</g>
</g>
<g>
	<g>
		<path class="st4" d="M128,110.7h-5.6c-1.6,0-3,1.3-3,2.9v2.5c0,0.3,0.2,0.7,0.5,0.8c1.6,0.9,3.4,1.4,5.3,1.4s3.7-0.5,5.3-1.4
			c0.3-0.2,0.5-0.5,0.5-0.8v-2.5C131,112,129.6,110.7,128,110.7z M129,115.6c-2.4,1.2-5.3,1.2-7.7,0v-2c0-0.5,0.5-1,1.1-1h5.6
			c0.6,0,1.1,0.4,1.1,1L129,115.6L129,115.6z"/>
	</g>
</g>
<g>
	<g>
		<path class="st4" d="M102.1,108.8c-5.8,0-10.6,4.7-10.6,10.6s4.7,10.6,10.6,10.6c5.8,0,10.6-4.7,10.6-10.6
			S107.9,108.8,102.1,108.8z M102.1,128c-4.8,0-8.7-3.9-8.7-8.7c0-4.8,3.9-8.7,8.7-8.7c4.8,0,8.7,3.9,8.7,8.7S106.9,128,102.1,128z"
			/>
	</g>
</g>
<g>
	<g>
		<path class="st4" d="M102.1,112.6c-2.1,0-3.8,1.7-3.8,3.8c0,2.1,1.7,3.8,3.8,3.8c2.1,0,3.8-1.7,3.8-3.8
			C105.9,114.3,104.2,112.6,102.1,112.6z M102.1,118.4c-1.1,0-1.9-0.9-1.9-1.9c0-1.1,0.9-1.9,1.9-1.9c1.1,0,1.9,0.9,1.9,1.9
			S103.1,118.4,102.1,118.4z"/>
	</g>
</g>
<g>
	<g>
		<path class="st4" d="M104.9,122.2h-5.6c-1.6,0-3,1.3-3,2.9v2.5c0,0.3,0.2,0.7,0.5,0.8c1.6,0.9,3.4,1.4,5.3,1.4s3.7-0.5,5.3-1.4
			c0.3-0.2,0.5-0.5,0.5-0.8v-2.5C107.9,123.5,106.5,122.2,104.9,122.2z M105.9,127.1c-2.4,1.2-5.3,1.2-7.7,0v-2c0-0.5,0.5-1,1.1-1
			h5.6c0.6,0,1.1,0.4,1.1,1L105.9,127.1L105.9,127.1z"/>
	</g>
</g>
<g>
	<g>
		<path class="st4" d="M89.6,84.7c-5.8,0-10.6,4.7-10.6,10.6c0,5.8,4.7,10.6,10.6,10.6c5.8,0,10.6-4.7,10.6-10.6
			C100.2,89.5,95.4,84.7,89.6,84.7z M89.6,103.9c-4.8,0-8.7-3.9-8.7-8.7c0-4.8,3.9-8.7,8.7-8.7c4.8,0,8.7,3.9,8.7,8.7
			C98.2,100.1,94.3,103.9,89.6,103.9z"/>
	</g>
</g>
<g>
	<g>
		<path class="st4" d="M89.6,88.6c-2.1,0-3.8,1.7-3.8,3.8c0,2.1,1.7,3.8,3.8,3.8c2.1,0,3.8-1.7,3.8-3.8
			C93.4,90.3,91.7,88.6,89.6,88.6z M89.6,94.3c-1.1,0-1.9-0.9-1.9-1.9c0-1.1,0.9-1.9,1.9-1.9c1.1,0,1.9,0.9,1.9,1.9
			C91.5,93.5,90.6,94.3,89.6,94.3z"/>
	</g>
</g>
<g>
	<g>
		<path class="st4" d="M92.4,98.2h-5.6c-1.6,0-3,1.3-3,2.9v2.5c0,0.3,0.2,0.7,0.5,0.8c1.6,0.9,3.4,1.4,5.3,1.4s3.7-0.5,5.3-1.4
			c0.3-0.2,0.5-0.5,0.5-0.8v-2.5C95.3,99.5,94,98.2,92.4,98.2z M93.4,103c-2.4,1.2-5.3,1.2-7.7,0v-2c0-0.5,0.5-1,1.1-1h5.6
			c0.6,0,1.1,0.4,1.1,1L93.4,103L93.4,103z"/>
	</g>
</g>
<g>
	<g>
		<path class="st4" d="M112.7,72.2c-5.8,0-10.6,4.7-10.6,10.6c0,5.8,4.7,10.6,10.6,10.6s10.6-4.7,10.6-10.6
			C123.3,76.9,118.5,72.2,112.7,72.2z M112.7,91.4c-4.8,0-8.7-3.9-8.7-8.7c0-4.8,3.9-8.7,8.7-8.7c4.8,0,8.7,3.9,8.7,8.7
			C121.3,87.6,117.4,91.4,112.7,91.4z"/>
	</g>
</g>
<g>
	<g>
		<path class="st4" d="M112.7,76c-2.1,0-3.8,1.7-3.8,3.8c0,2.1,1.7,3.8,3.8,3.8c2.1,0,3.8-1.7,3.8-3.8C116.5,77.8,114.8,76,112.7,76
			z M112.7,81.8c-1.1,0-1.9-0.9-1.9-1.9c0-1.1,0.9-1.9,1.9-1.9c1.1,0,1.9,0.9,1.9,1.9C114.6,81,113.7,81.8,112.7,81.8z"/>
	</g>
</g>
<g>
	<g>
		<path class="st4" d="M115.5,85.7h-5.6c-1.6,0-3,1.3-3,2.9v2.5c0,0.3,0.2,0.7,0.5,0.8c1.6,0.9,3.4,1.4,5.3,1.4s3.7-0.5,5.3-1.4
			c0.3-0.2,0.5-0.5,0.5-0.8v-2.5C118.4,87,117.1,85.7,115.5,85.7z M116.5,90.5c-2.4,1.2-5.3,1.2-7.7,0v-2c0-0.5,0.5-1,1.1-1h5.6
			c0.6,0,1.1,0.4,1.1,1L116.5,90.5L116.5,90.5z"/>
	</g>
</g>
<g>
	<g>
		<path class="st4" d="M103.8,82.1c-0.3-0.4-1-0.5-1.4-0.1l-6.7,5.7c-0.4,0.3-0.5,1-0.1,1.4c0.2,0.2,0.5,0.3,0.7,0.3
			s0.4-0.1,0.6-0.2l6.7-5.7C104.1,83.2,104.1,82.6,103.8,82.1z"/>
	</g>
</g>
<g>
	<g>
		<path class="st4" d="M125,97.6l-5.8-7.7c-0.3-0.4-0.9-0.5-1.3-0.2s-0.5,0.9-0.2,1.3l5.8,7.7c0.2,0.3,0.5,0.4,0.8,0.4
			c0.2,0,0.4-0.1,0.6-0.2C125.2,98.6,125.3,98,125,97.6z"/>
	</g>
</g>
<g>
	<g>
		<path class="st4" d="M117.1,111c-0.3-0.4-0.9-0.5-1.3-0.2l-5.4,4c-0.4,0.3-0.5,0.9-0.2,1.3c0.2,0.3,0.5,0.4,0.8,0.4
			c0.2,0,0.4-0.1,0.6-0.2l5.4-4C117.3,112,117.4,111.4,117.1,111z"/>
	</g>
</g>
<g>
	<g>
		<path class="st4" d="M92.5,118.4h-6.7c-0.5,0-1,0.4-1,1c0,0.5,0.4,1,1,1h6.7c0.5,0,1-0.4,1-1C93.4,118.8,93,118.4,92.5,118.4z"/>
	</g>
</g>
<g>
	<g>
		<path class="st4" d="M89.6,72.2c-2.1,0-3.8,1.7-3.8,3.8c0,2.1,1.7,3.8,3.8,3.8c2.1,0,3.8-1.7,3.8-3.8
			C93.4,73.9,91.7,72.2,89.6,72.2z M89.6,78c-1.1,0-1.9-0.9-1.9-1.9c0-1.1,0.9-1.9,1.9-1.9c1.1,0,1.9,0.9,1.9,1.9S90.6,78,89.6,78z"
			/>
	</g>
</g>
<g>
	<g>
		<path class="st4" d="M89.6,78c-0.5,0-1,0.4-1,1v6.7c0,0.5,0.4,1,1,1c0.5,0,1-0.4,1-1V79C90.5,78.4,90.1,78,89.6,78z"/>
	</g>
</g>
</svg>
