<?xml version="1.0" encoding="utf-8"?>
<!-- Generator: Adobe Illustrator 22.1.0, SVG Export Plug-In . SVG Version: 6.00 Build 0)  -->
<svg version="1.1" id="Слой_1" xmlns="http://www.w3.org/2000/svg" xmlns:xlink="http://www.w3.org/1999/xlink" x="0px" y="0px"
	 viewBox="0 0 207 207" style="enable-background:new 0 0 207 207;" xml:space="preserve">
<style type="text/css">
	.st0{opacity:0.5;fill:none;stroke:#FFFFFF;stroke-miterlimit:10;}
	.st1{opacity:0.25;fill:none;stroke:#FFFFFF;stroke-miterlimit:10;}
	.st2{fill:none;stroke:#FFFFFF;stroke-miterlimit:10;}
	.st3{display:none;fill:#FFFFFF;stroke:#00FFC1;stroke-miterlimit:10;}
	.st4{fill:#FFFFFF;}
</style>
<circle class="st0" cx="103.1" cy="104" r="88.5"/>
<circle class="st1" cx="103.5" cy="103.5" r="103"/>
<circle class="st2" cx="103.1" cy="103.5" r="73"/>
<path class="st3" d="M124.9,107.9c-0.1,0-0.2,0-0.3-0.1H98.2c-0.6,0-1.1,0.5-1.1,1.1c0,0.1,0,0.2,0,0.3l4.6,15.4
	c0.1,0.5,0.6,0.8,1.1,0.8h17c0.5,0,0.9-0.3,1.1-0.8l4.8-15.4C125.8,108.7,125.5,108.1,124.9,107.9L124.9,107.9z M119,123.3h-15.4
	l-3.9-13.2h23.4L119,123.3z M131.2,106.8c-0.5,0-0.9,0.3-1,0.7l-7.4,20.2h-22.3v2.2h5.5v2.4c-1.7,0.6-2.6,2.5-2,4.2s2.5,2.6,4.2,2
	s2.6-2.5,2-4.2c-0.3-0.9-1.1-1.7-2-2v-2.4h9.9v2.4c-1.7,0.6-2.6,2.5-2,4.2s2.5,2.6,4.2,2s2.6-2.5,2-4.2c-0.3-0.9-1.1-1.7-2-2v-2.4
	h3.3c0.5,0,0.9-0.3,1-0.7L132,109h4.7v-2.2H131.2z M107,136.5c-0.6,0-1.1-0.5-1.1-1.1s0.5-1.1,1.1-1.1s1.1,0.5,1.1,1.1
	S107.6,136.5,107,136.5L107,136.5z M119.1,136.5c-0.6,0-1.1-0.5-1.1-1.1s0.5-1.1,1.1-1.1s1.1,0.5,1.1,1.1S119.7,136.5,119.1,136.5
	L119.1,136.5z M104.8,113.4H118v2.2h-13.2V113.4z M105.9,117.8h11v2.2h-11V117.8z M103.4,92.8L83.6,73c-0.4-0.4-1.1-0.4-1.5,0l0,0
	L71,84c-0.4,0.4-0.4,1.1,0,1.5l0,0l19.8,19.8c0.2,0.2,0.5,0.3,0.8,0.3h11c0.6,0,1.1-0.5,1.1-1.1v-11C103.7,93.3,103.6,93,103.4,92.8
	z M101.5,103.5h-9.4L73.4,84.8l9.4-9.4L101.5,94V103.5z M127,82.4c-1.2-1.2-3.1-1.2-4.3,0l0,0l0,0c-1.5,1.5-0.7,3.1-0.2,4
	c0.5,1,0.5,1.1,0.2,1.4s-0.8,0.3-1.2,0l0,0c-0.3-0.3-0.3-0.9,0-1.2l-1.6-1.6c-1.2,1.2-1.1,3.1,0.1,4.3c1.2,1.1,3,1.1,4.2,0
	c1.5-1.5,0.7-3.1,0.2-4c-0.5-1-0.5-1.2-0.2-1.4c0.3-0.3,0.8-0.3,1.2,0l0,0c0.3,0.3,0.3,0.9,0,1.2l1.6,1.6
	C128.2,85.5,128.2,83.6,127,82.4L127,82.4z M84.3,125.8l1.6,1.6c1-1.1,1-2.8,0-3.8s-2.7-1-3.8,0l0,0c-0.9,1-1,2.5-0.2,3.6
	c0.4,0.8,0.4,0.8,0.2,1c-0.2,0.2-0.5,0.2-0.7,0s-0.2-0.5,0-0.7l0,0l-1.6-1.6c-1.1,1.1-1.1,2.8,0,3.8c0.5,0.5,1.2,0.8,1.9,0.8
	c1.5,0,2.7-1.2,2.7-2.7c0-0.6-0.2-1.2-0.6-1.7c-0.4-0.8-0.4-0.8-0.2-1c0.2-0.2,0.5-0.2,0.7,0S84.5,125.6,84.3,125.8L84.3,125.8z
	 M136.4,80.7l-7.7-7.7c-0.4-0.4-1.1-0.4-1.6,0l0,0l-14.3,14.3c-0.2,0.2-0.3,0.5-0.3,0.8v7.7c0,0.6,0.5,1.1,1.1,1.1h7.7
	c0.3,0,0.6-0.1,0.8-0.3l14.3-14.3C136.8,81.8,136.8,81.1,136.4,80.7L136.4,80.7L136.4,80.7z M120.8,94.7h-6.2v-6.1l13.2-13.2
	l6.1,6.2L120.8,94.7z M91.6,116.7h-7.7c-0.3,0-0.6,0.1-0.8,0.3L71,129.1c-0.4,0.4-0.4,1.1,0,1.6l0,0l7.7,7.7c0.4,0.4,1.1,0.4,1.5,0
	l0,0l12.1-12.1c0.2-0.2,0.3-0.5,0.3-0.8v-7.7C92.7,117.2,92.2,116.7,91.6,116.7z M90.5,125l-11,11l-6.1-6.1l11-11h6.1V125z
	 M96.5,96.9c-0.9,0-1.7,0.7-1.7,1.6s0.7,1.7,1.6,1.7s1.7-0.7,1.7-1.6l0,0C98.2,97.6,97.5,96.9,96.5,96.9z M92.9,93.3
	c0.7-1.4,0.5-3.2-0.6-4.3c-1.8-1.8-3.7-0.8-4.9-0.2c-1.3,0.7-1.7,0.8-2.4,0.2c-0.6-0.6-0.6-1.5,0-2.1s1.5-0.6,2.1,0l0,0l1.6-1.6
	c-1.1-1.1-2.9-1.4-4.3-0.7l-1.8-1.8L81,84.4l1.8,1.9c-0.7,1.4-0.5,3.1,0.6,4.3c1.8,1.8,3.7,0.8,4.9,0.2c1.3-0.7,1.7-0.8,2.3-0.2
	c0.6,0.6,0.6,1.5,0,2.1l0,0c-0.6,0.6-1.5,0.6-2.1,0l-1.6,1.6c1.1,1.1,2.9,1.4,4.3,0.7l1.7,1.7l1.6-1.6L92.9,93.3z M111.4,99.1h2.2
	v2.2h-2.2V99.1z M111.4,103.5h2.2v2.2h-2.2V103.5z M92.7,107.9h2.2v2.2h-2.2V107.9z M92.7,112.3h2.2v2.2h-2.2V112.3z"/>
<g>
	<g>
		<path class="st4" d="M122.7,84.7h-18.9c-0.5,0-0.9,0.4-0.9,0.9s0.4,0.9,0.9,0.9h18.9c0.5,0,0.9-0.4,0.9-0.9S123.2,84.7,122.7,84.7
			z"/>
	</g>
</g>
<g>
	<g>
		<path class="st4" d="M94.6,85c-0.2-0.2-0.4-0.3-0.6-0.3s-0.5,0.1-0.6,0.3c-0.2,0.2-0.3,0.4-0.3,0.6s0.1,0.5,0.3,0.6
			c0.2,0.2,0.4,0.3,0.6,0.3s0.5-0.1,0.6-0.3c0.2-0.2,0.3-0.4,0.3-0.6S94.8,85.2,94.6,85z"/>
	</g>
</g>
<g>
	<g>
		<path class="st4" d="M91.3,85c-0.2-0.2-0.4-0.3-0.6-0.3s-0.5,0.1-0.6,0.3c-0.2,0.2-0.3,0.4-0.3,0.6s0.1,0.5,0.3,0.6
			c0.2,0.2,0.4,0.3,0.6,0.3s0.5-0.1,0.6-0.3c0.2-0.2,0.3-0.4,0.3-0.6C91.5,85.4,91.4,85.2,91.3,85z"/>
	</g>
</g>
<g>
	<g>
		<path class="st4" d="M98,85c-0.2-0.2-0.4-0.3-0.6-0.3s-0.5,0.1-0.6,0.3c-0.2,0.2-0.3,0.4-0.3,0.6s0.1,0.5,0.3,0.6
			c0.2,0.2,0.4,0.3,0.6,0.3s0.5-0.1,0.6-0.3c0.2-0.2,0.3-0.4,0.3-0.6C98.2,85.4,98.1,85.2,98,85z"/>
	</g>
</g>
<g>
	<g>
		<path class="st4" d="M131.6,119.3l-7.2-7.2l1.1-1.1l0,0l0,0l1.1-1.1l3.5,3.5c0.4,0.4,0.9,0.4,1.3,0c0.4-0.4,0.4-0.9,0-1.3
			l-4.2-4.2c-0.4-0.4-0.9-0.4-1.3,0l-1.1,1.1l-0.5-0.5c1.6-1.9,2.5-4.2,2.5-6.9c0-5.9-4.8-10.6-10.6-10.6c-3,0-5.8,1.3-7.7,3.3l0,0
			H91c-0.5,0-0.9,0.4-0.9,0.9V108c0,0.5,0.4,0.9,0.9,0.9h17.4c1.9,2.1,4.7,3.4,7.8,3.4c2.6,0,5-0.9,6.9-2.5l0.5,0.5l-1.1,1.1
			c-0.2,0.2-0.3,0.4-0.3,0.6s0.1,0.5,0.3,0.6l3.8,3.8v3.9c0,1.1-0.9,2-2,2H89c-1.1,0-2-0.9-2-2V89.8l0,0h39.3v4.1
			c0,0.5,0.4,0.9,0.9,0.9s0.9-0.4,0.9-0.9v-8.6c0-2.1-1.7-3.8-3.8-3.8H89c-2.1,0-3.8,1.7-3.8,3.8v35.3c0,2.1,1.7,3.8,3.8,3.8h35.3
			c2.1,0,3.8-1.7,3.8-3.8v-2.1l2.2,2.2c0.2,0.2,0.4,0.3,0.6,0.3s0.5-0.1,0.6-0.3C131.9,120.3,131.9,119.7,131.6,119.3z M105.6,102
			l-1.1-2.2c-0.2-0.4-0.8-0.6-1.2-0.4c-0.4,0.2-0.6,0.8-0.4,1.2l2.1,4.1c0.2,0.3,0.5,0.5,0.8,0.5c0.1,0,0.3,0,0.4-0.1
			c0.2,0.7,0.5,1.3,0.9,2H91.9V96.2h15.2c-1,1.6-1.6,3.5-1.6,5.5C105.6,101.8,105.6,101.9,105.6,102z M116.2,110.5
			c-4.9,0-8.8-4-8.8-8.8c0-0.1,0-0.1,0-0.2l1.7,3.2c0.2,0.3,0.5,0.5,0.8,0.5l0,0c0.3,0,0.7-0.2,0.8-0.5l2-4.1c0.2-0.5,0-1-0.4-1.2
			c-0.5-0.2-1,0-1.2,0.4l-1.2,2.5l-1.3-2.5c-0.2-0.3-0.5-0.5-0.8-0.5c1.1-3.7,4.5-6.4,8.5-6.4c4.9,0,8.8,4,8.8,8.8
			S121.1,110.5,116.2,110.5z M87,85.3c0-1.1,0.9-2,2-2h35.3c1.1,0,2,0.9,2,2V88H87l0,0V85.3z"/>
	</g>
</g>
<g>
	<g>
		<path class="st4" d="M101.8,99.4c-0.5-0.2-1,0-1.2,0.4l-1.2,2.5l-1.3-2.5c-0.2-0.3-0.5-0.5-0.8-0.5s-0.7,0.2-0.8,0.5l-1.2,2.5
			L94,99.8c-0.2-0.4-0.8-0.6-1.2-0.4c-0.4,0.2-0.6,0.8-0.4,1.2l2.1,4.1c0.2,0.3,0.5,0.5,0.8,0.5s0.7-0.2,0.8-0.5l1.2-2.5l1.3,2.5
			c0.2,0.3,0.5,0.5,0.8,0.5l0,0c0.3,0,0.7-0.2,0.8-0.5l2-4.1C102.5,100.1,102.3,99.6,101.8,99.4z"/>
	</g>
</g>
<g>
	<g>
		<path class="st4" d="M122.7,99.4c-0.5-0.2-1,0-1.2,0.4l-1.2,2.5l-1.3-2.5c-0.2-0.3-0.5-0.5-0.8-0.5s-0.7,0.2-0.8,0.5l-1.2,2.5
			l-1.3-2.5c-0.2-0.4-0.8-0.6-1.2-0.4c-0.4,0.2-0.6,0.8-0.4,1.2l2.1,4.1c0.2,0.3,0.5,0.5,0.8,0.5l0,0c0.3,0,0.7-0.2,0.8-0.5l1.2-2.5
			l1.3,2.5c0.2,0.3,0.5,0.5,0.8,0.5l0,0c0.3,0,0.7-0.2,0.8-0.5l2-4.1C123.3,100.1,123.1,99.6,122.7,99.4z"/>
	</g>
</g>
<g>
	<g>
		<path class="st4" d="M91.7,116.1c-0.2-0.2-0.4-0.3-0.6-0.3s-0.5,0.1-0.6,0.3c-0.2,0.2-0.3,0.4-0.3,0.6s0.1,0.5,0.3,0.6
			c0.2,0.2,0.4,0.3,0.6,0.3s0.5-0.1,0.6-0.3c0.2-0.2,0.3-0.4,0.3-0.6C91.9,116.5,91.8,116.3,91.7,116.1z"/>
	</g>
</g>
<g>
	<g>
		<path class="st4" d="M111.9,115.8H94.2c-0.5,0-0.9,0.4-0.9,0.9s0.4,0.9,0.9,0.9h17.7c0.5,0,0.9-0.4,0.9-0.9
			C112.8,116.2,112.4,115.8,111.9,115.8z"/>
	</g>
</g>
<g>
	<g>
		<path class="st4" d="M108.5,111.5h-5.4c-0.5,0-0.9,0.4-0.9,0.9s0.4,0.9,0.9,0.9h5.4c0.5,0,0.9-0.4,0.9-0.9S109,111.5,108.5,111.5z
			"/>
	</g>
</g>
<g>
	<g>
		<path class="st4" d="M99,111.5h-8c-0.5,0-0.9,0.4-0.9,0.9s0.4,0.9,0.9,0.9h8c0.5,0,0.9-0.4,0.9-0.9S99.5,111.5,99,111.5z"/>
	</g>
</g>
</svg>
