<svg xmlns="http://www.w3.org/2000/svg" width="207" height="207"><circle data-name="Ellipse 11 copy" cx="104" cy="104" r="88.5" opacity=".46" fill="none" stroke="#fff"/><circle cx="103.5" cy="103.5" r="103" opacity=".25" fill="none" stroke="#fff"/><circle data-name="Ellipse 11 copy 2" cx="103.5" cy="103.5" r="73" fill="none" stroke="#fff"/><path data-name="Forma 1" d="M126.63 73.5H76.37a3.867 3.867 0 0 0-3.87 3.87v42.53a3.861 3.861 0 0 0 3.29 3.81l-1.76 1.76a1.937 1.937 0 0 0 0 2.73l2.74 2.73a1.919 1.919 0 0 0 2.73 0l7.17-7.16h9.03v1.93h-.97a4.833 4.833 0 0 0-4.83 4.83.965.965 0 0 0 .97.97h21.26a.965.965 0 0 0 .97-.97 4.833 4.833 0 0 0-4.83-4.83h-.97v-1.93h19.33a3.879 3.879 0 0 0 3.87-3.87V77.37a3.867 3.867 0 0 0-3.87-3.87zm-52.2 46.4v-1.93h7.1l-3.86 3.86h-1.3a1.933 1.933 0 0 1-1.94-1.93zm11.16 2.21l-.01.01-7.45 7.45-2.73-2.74 9.15-9.14.01-.01 3.17-3.18 2.74 2.73zm12.39-26.15a.977.977 0 0 1 1.22-.02l7.34 5.72a.975.975 0 0 0 1.28-.08l7.09-7.09.12.27c.08.19.15.38.22.57.05.13.09.27.14.41.06.19.11.38.17.57a1.6 1.6 0 0 0 .05.21l-7.63 7.63a.964.964 0 0 1-1.28.08l-7.46-5.8a.965.965 0 0 0-1.22.03l-6.4 5.42c-.03-.1-.06-.19-.1-.29-.06-.2-.13-.4-.19-.6-.03-.13-.07-.27-.1-.41a9.86 9.86 0 0 1-.13-.58l-.03-.19zm-7.1 3.47a12.508 12.508 0 0 1 23.05-6.69l-6.87 6.87-6.68-5.2a2.9 2.9 0 0 0-3.65.07zm25.09-.54a12.556 12.556 0 0 1-23.52 6.81l6.22-5.26 6.85 5.32a2.891 2.891 0 0 0 3.83-.25zm-22.49 11.24a15.947 15.947 0 0 0 1.49 1.23l-1.29 1.29-1.36-1.36zM93 114.7l-1.17 1.17-2.73-2.74 1.17-1.16zm15.27 12.93a2.9 2.9 0 0 1 2.73 1.94H92a2.9 2.9 0 0 1 2.73-1.94h13.54zm-10.64-1.93v-1.93h7.74v1.93h-7.74zm30.94-5.8a1.933 1.933 0 0 1-1.94 1.93H88.6l3.87-3.86h36.1v1.93zm0-3.87H94.4a1.941 1.941 0 0 0 .46-1.83l1.78-1.78a14.5 14.5 0 0 0 20.98-15.8 15.452 15.452 0 0 0-.45-1.65l4.63-4.64v2.5a.965.965 0 1 0 1.93 0V88a.974.974 0 0 0-.06-.34c-.02-.03-.03-.06-.05-.09a.858.858 0 0 0-.13-.2l-.07-.07a.931.931 0 0 0-.26-.18c-.01 0-.01-.01-.02-.01a.983.983 0 0 0-.34-.07c-.01 0-.02-.01-.03-.01h-4.84a.97.97 0 0 0 0 1.94h2.5l-4.07 4.07c-.09-.18-.18-.37-.28-.54v-.01a14.5 14.5 0 0 0-27.01 9.06 9.555 9.555 0 0 0 .18 1.07c.04.2.1.4.15.6l-3.39 2.87-8.08-6.29a.978.978 0 0 0-.96-.13.947.947 0 0 0-.59.76.963.963 0 0 0 .36.9l8.7 6.77a.965.965 0 0 0 1.22-.03l3.4-2.88c.08.19.16.39.25.58a14.7 14.7 0 0 0 1.85 2.94l-1.39 1.4a1.9 1.9 0 0 0-1.87.49l-5.43 5.43h-9.04V77.37a1.942 1.942 0 0 1 1.94-1.94h50.26a1.942 1.942 0 0 1 1.94 1.94v38.66zM84.1 77.37a7.733 7.733 0 1 0 5.45 13.21.035.035 0 0 0 .03-.03 7.727 7.727 0 0 0-5.48-13.18zm0 13.53a5.8 5.8 0 0 1-.97-11.51v5.71a.962.962 0 0 0 .29.68l4.04 4.04a5.8 5.8 0 0 1-3.36 1.08zm4.72-2.44l-2.39-2.39h3.38a5.716 5.716 0 0 1-.99 2.39zm-3.75-4.33v-4.74a5.779 5.779 0 0 1 4.74 4.74h-4.74zm32.86 25.14a.96.96 0 0 0-.96.96v2.9a.965.965 0 1 0 1.93 0v-2.9a.962.962 0 0 0-.97-.96zm3.87-3.87a.971.971 0 0 0-.97.97v6.76a.97.97 0 0 0 1.94 0v-6.76a.971.971 0 0 0-.97-.97zm3.87 1.93a.971.971 0 0 0-.97.97v4.83a.965.965 0 1 0 1.93 0v-4.83a.969.969 0 0 0-.96-.97z" fill="#fff" fill-rule="evenodd"/></svg>