<svg xmlns="http://www.w3.org/2000/svg" width="207" height="207"><circle data-name="Ellipse 11 copy" cx="104" cy="104" r="88.5" opacity=".46" fill="none" stroke="#fff"/><circle cx="103.5" cy="103.5" r="103" opacity=".25" fill="none" stroke="#fff"/><circle data-name="Ellipse 11 copy 2" cx="103.5" cy="103.5" r="73" fill="none" stroke="#fff"/><path data-name="Forma 1" d="M122.72 108.75a1.257 1.257 0 0 0-.33-.05H96a1.109 1.109 0 0 0-1.06 1.42l4.59 15.39a1.1 1.1 0 0 0 1.06.79h17a1.1 1.1 0 0 0 1.05-.77l4.8-15.4a1.1 1.1 0 0 0-.72-1.38zm-5.94 15.35h-15.37l-3.94-13.2h23.42zm12.21-16.5a1.093 1.093 0 0 0-1.03.72l-7.44 20.18H98.2v2.2h5.5v2.4a3.307 3.307 0 1 0 2.19 0v-2.4h9.9v2.4a3.3 3.3 0 1 0 2.2 0v-2.4h3.3a1.1 1.1 0 0 0 1.03-.72l7.43-20.18h4.74v-2.2h-5.5zm-24.2 29.7a1.1 1.1 0 1 1 1.1-1.1 1.095 1.095 0 0 1-1.1 1.1zm12.1 0a1.1 1.1 0 1 1 1.1-1.1 1.1 1.1 0 0 1-1.1 1.1zm-14.29-23.1h13.19v2.2H102.6v-2.2zm1.1 4.4h10.99v2.2H103.7v-2.2zm-2.53-24.97l-19.79-19.8a1.092 1.092 0 0 0-1.55 0l-11 11a1.092 1.092 0 0 0 0 1.55l19.79 19.8a1.1 1.1 0 0 0 .78.32h11a1.1 1.1 0 0 0 1.1-1.1v-11a1.067 1.067 0 0 0-.33-.77zM99.3 104.3h-9.44l-18.7-18.7 9.44-9.44 18.7 18.7v9.44zm25.52-21.11a3.033 3.033 0 0 0-4.29-.01c-.01 0-.01.01-.02.01-1.51 1.52-.69 3.09-.19 4.03.54 1.03.49 1.14.19 1.44a.827.827 0 0 1-1.18 0 .845.845 0 0 1 0-1.18l-1.55-1.55a3.034 3.034 0 0 0 4.29 4.29c1.51-1.52.68-3.09.19-4.02-.54-1.04-.49-1.15-.19-1.45a.827.827 0 0 1 1.18 0 .845.845 0 0 1 0 1.18l1.55 1.55a3.033 3.033 0 0 0 .02-4.29zM82.1 126.62l1.56 1.56a2.712 2.712 0 0 0-3.82-3.85l-.01.01a2.749 2.749 0 0 0-.2 3.57c.41.78.37.81.2.99a.519.519 0 0 1-.73 0 .507.507 0 0 1 0-.72l-1.55-1.56a2.71 2.71 0 0 0 1.91 4.63 2.687 2.687 0 0 0 2.12-4.36c-.41-.78-.38-.81-.2-.99a.51.51 0 0 1 .72.72zm52.06-45.09l-7.69-7.7a1.1 1.1 0 0 0-1.56 0l-14.29 14.3a1.067 1.067 0 0 0-.33.77v7.7a1.1 1.1 0 0 0 1.1 1.1h7.7a1.1 1.1 0 0 0 .78-.32l14.29-14.3a1.092 1.092 0 0 0 0-1.55zM118.64 95.5h-6.15v-6.14l13.2-13.2 6.14 6.15zm-29.24 22h-7.7a1.14 1.14 0 0 0-.78.32l-12.09 12.1a1.1 1.1 0 0 0 0 1.56l7.7 7.7a1.092 1.092 0 0 0 1.55 0l12.1-12.1a1.14 1.14 0 0 0 .32-.78v-7.7a1.1 1.1 0 0 0-1.1-1.1zm-1.1 8.34l-11 11-6.14-6.14 11-11h6.14v6.14zm6.05-28.14A1.65 1.65 0 1 0 96 99.35a1.652 1.652 0 0 0-1.65-1.65zm-3.64-3.54a3.671 3.671 0 0 0-.64-4.29c-1.83-1.82-3.7-.84-4.93-.19-1.34.7-1.74.81-2.36.19a1.478 1.478 0 1 1 2.09-2.09l1.55-1.55a3.671 3.671 0 0 0-4.29-.65l-1.85-1.85-1.55 1.55 1.85 1.86a3.689 3.689 0 0 0 .64 4.29c1.83 1.82 3.7.84 4.94.19 1.33-.7 1.74-.81 2.35-.19a1.473 1.473 0 0 1 0 2.09 1.491 1.491 0 0 1-2.09 0l-1.55 1.55a3.641 3.641 0 0 0 4.29.65l1.66 1.66 1.56-1.55zm18.48 5.74h2.2v2.2h-2.2v-2.2zm0 4.4h2.2v2.2h-2.2v-2.2zm-18.69 4.4h2.2v2.2h-2.2v-2.2zm0 4.4h2.2v2.2h-2.2v-2.2z" fill="#fff" fill-rule="evenodd"/></svg>