<svg xmlns="http://www.w3.org/2000/svg" width="207" height="207"><circle data-name="Ellipse 11 copy" cx="104" cy="104" r="88.5" opacity=".46" fill="none" stroke="#fff"/><circle cx="103.5" cy="103.5" r="103" opacity=".25" fill="none" stroke="#fff"/><circle data-name="Ellipse 11 copy 2" cx="103.5" cy="103.5" r="73" fill="none" stroke="#fff"/><path data-name="Forma 1" d="M118.75 79.9h-7.65v-2.55a.85.85 0 0 0-.85-.85h-20.4a.85.85 0 0 0-.85.85v2.55h-7.65a.85.85 0 0 0-.85.85v45.9a.85.85 0 0 0 .85.85h37.4a.85.85 0 0 0 .85-.85v-45.9a.85.85 0 0 0-.85-.85zM90.7 78.2h18.7v1.7H90.7v-1.7zm0 3.4h18.7V85h-6.945a2.548 2.548 0 0 0-4.81 0H90.7v-3.4zm27.2 44.2H82.2V81.6H89v4.25a.85.85 0 0 0 .85.85h8.5a.85.85 0 0 0 .85-.85.85.85 0 1 1 1.7 0 .85.85 0 0 0 .85.85h8.5a.85.85 0 0 0 .85-.85V81.6h6.8v44.2zM89 88.4a3.4 3.4 0 1 0 3.4 3.4 3.4 3.4 0 0 0-3.4-3.4zm0 5.1a1.7 1.7 0 1 1 1.7-1.7 1.7 1.7 0 0 1-1.7 1.7zm0 3.4a3.4 3.4 0 1 0 3.4 3.4 3.4 3.4 0 0 0-3.4-3.4zm0 5.1a1.7 1.7 0 1 1 1.7-1.7A1.7 1.7 0 0 1 89 102zm24.65-12.75h-11.9a.85.85 0 1 0 0 1.7h11.9a.85.85 0 0 0 0-1.7zm-15.3 0h-3.4a.85.85 0 1 0 0 1.7h3.4a.85.85 0 0 0 0-1.7zm15.3 3.4h-6.8a.85.85 0 1 0 0 1.7h6.8a.85.85 0 0 0 0-1.7zm-10.2 0h-8.5a.85.85 0 1 0 0 1.7h8.5a.85.85 0 1 0 0-1.7zm10.2 5.1h-3.4a.85.85 0 1 0 0 1.7h3.4a.85.85 0 0 0 0-1.7zm-6.8 0h-11.9a.85.85 0 1 0 0 1.7h11.9a.85.85 0 0 0 0-1.7zm6.8 3.4h-9.35a.85.85 0 0 0 0 1.7h9.35a.85.85 0 0 0 0-1.7zm-12.75 0h-5.95a.85.85 0 1 0 0 1.7h5.95a.85.85 0 0 0 0-1.7zm27.2-21.16v-.09a3.4 3.4 0 1 0-6.8 0v40.8c0 .01.006.02.006.03a.8.8 0 0 0 .053.26c.007.02.011.04.019.06s.006.02.011.03l2.461 4.92v.65a.85.85 0 0 0 1.7 0V126l2.465-4.92c0-.01.006-.02.011-.03s.012-.04.02-.06a.8.8 0 0 0 .052-.26c0-.01.006-.02.006-.03V81.76a2.541 2.541 0 0 1 1.7 2.39v7.65a.85.85 0 0 0 1.7 0v-7.65a4.247 4.247 0 0 0-3.404-4.16zm-3.4 43.91l-1.175-2.35h2.35zm1.7-4.05H123v-23.8h3.4v23.8zm0-25.5H123V81.6h3.4v12.75zM123 79.9a1.7 1.7 0 1 1 3.4 0H123zm-17 29.75v-1.7h-2.55a.848.848 0 0 0-.6.25l-.653.65a9.35 9.35 0 1 0-1.363 13.15c.08-.06.159-.13.237-.19a9.756 9.756 0 0 0 1.112-1.17l.662.66a.86.86 0 0 0 .606.25h2.55v-1.7h-2.2l-.649-.65a9.267 9.267 0 0 0 .011-8.91l.638-.64h2.2zm-4.1 8.29l-1.246-1.24-1.2 1.2 1.536 1.54c-.145.18-.295.36-.456.54l-4.377-4.38h6.4a7.574 7.574 0 0 1-.657 2.34zm-7.8-4.04a.849.849 0 0 0-.6 1.45l5.731 5.73a7.651 7.651 0 1 1 1.755-11.02l-1.539 1.54 1.2 1.2 1.242-1.24a7.559 7.559 0 0 1 .662 2.34H94.1zm17-8.5a3.4 3.4 0 1 0 3.4 3.4 3.4 3.4 0 0 0-3.4-3.4zm0 5.1a1.7 1.7 0 1 1 1.7-1.7 1.7 1.7 0 0 1-1.7 1.7zm0 6.8a3.4 3.4 0 1 0 3.4 3.4 3.4 3.4 0 0 0-3.4-3.4zm0 5.1a1.7 1.7 0 1 1 1.7-1.7 1.7 1.7 0 0 1-1.7 1.7z" fill="#fff" fill-rule="evenodd"/></svg>