<?xml version="1.0" encoding="utf-8"?>
<!-- Generator: Adobe Illustrator 22.1.0, SVG Export Plug-In . SVG Version: 6.00 Build 0)  -->
<svg version="1.1" id="Слой_1" xmlns="http://www.w3.org/2000/svg" xmlns:xlink="http://www.w3.org/1999/xlink" x="0px" y="0px"
	 viewBox="0 0 207 207" style="enable-background:new 0 0 207 207;" xml:space="preserve">
<style type="text/css">
	.st0{opacity:0.5;fill:none;stroke:#FFFFFF;stroke-miterlimit:10;}
	.st1{opacity:0.25;fill:none;stroke:#FFFFFF;stroke-miterlimit:10;}
	.st2{fill:none;stroke:#FFFFFF;stroke-miterlimit:10;}
	.st3{display:none;fill:#FFFFFF;stroke:#00FFC1;stroke-miterlimit:10;}
	.st4{fill:#FFFFFF;}
</style>
<circle class="st0" cx="103.1" cy="104" r="88.5"/>
<circle class="st1" cx="103.5" cy="103.5" r="103"/>
<circle class="st2" cx="103.1" cy="103.5" r="73"/>
<path class="st3" d="M124.9,107.9c-0.1,0-0.2,0-0.3-0.1H98.2c-0.6,0-1.1,0.5-1.1,1.1c0,0.1,0,0.2,0,0.3l4.6,15.4
	c0.1,0.5,0.6,0.8,1.1,0.8h17c0.5,0,0.9-0.3,1.1-0.8l4.8-15.4C125.8,108.7,125.5,108.1,124.9,107.9L124.9,107.9z M119,123.3h-15.4
	l-3.9-13.2h23.4L119,123.3z M131.2,106.8c-0.5,0-0.9,0.3-1,0.7l-7.4,20.2h-22.3v2.2h5.5v2.4c-1.7,0.6-2.6,2.5-2,4.2s2.5,2.6,4.2,2
	s2.6-2.5,2-4.2c-0.3-0.9-1.1-1.7-2-2v-2.4h9.9v2.4c-1.7,0.6-2.6,2.5-2,4.2s2.5,2.6,4.2,2s2.6-2.5,2-4.2c-0.3-0.9-1.1-1.7-2-2v-2.4
	h3.3c0.5,0,0.9-0.3,1-0.7L132,109h4.7v-2.2H131.2z M107,136.5c-0.6,0-1.1-0.5-1.1-1.1s0.5-1.1,1.1-1.1s1.1,0.5,1.1,1.1
	S107.6,136.5,107,136.5L107,136.5z M119.1,136.5c-0.6,0-1.1-0.5-1.1-1.1s0.5-1.1,1.1-1.1s1.1,0.5,1.1,1.1S119.7,136.5,119.1,136.5
	L119.1,136.5z M104.8,113.4H118v2.2h-13.2V113.4z M105.9,117.8h11v2.2h-11V117.8z M103.4,92.8L83.6,73c-0.4-0.4-1.1-0.4-1.5,0l0,0
	L71,84c-0.4,0.4-0.4,1.1,0,1.5l0,0l19.8,19.8c0.2,0.2,0.5,0.3,0.8,0.3h11c0.6,0,1.1-0.5,1.1-1.1v-11C103.7,93.3,103.6,93,103.4,92.8
	z M101.5,103.5h-9.4L73.4,84.8l9.4-9.4L101.5,94V103.5z M127,82.4c-1.2-1.2-3.1-1.2-4.3,0l0,0l0,0c-1.5,1.5-0.7,3.1-0.2,4
	c0.5,1,0.5,1.1,0.2,1.4s-0.8,0.3-1.2,0l0,0c-0.3-0.3-0.3-0.9,0-1.2l-1.6-1.6c-1.2,1.2-1.1,3.1,0.1,4.3c1.2,1.1,3,1.1,4.2,0
	c1.5-1.5,0.7-3.1,0.2-4c-0.5-1-0.5-1.2-0.2-1.4c0.3-0.3,0.8-0.3,1.2,0l0,0c0.3,0.3,0.3,0.9,0,1.2l1.6,1.6
	C128.2,85.5,128.2,83.6,127,82.4L127,82.4z M84.3,125.8l1.6,1.6c1-1.1,1-2.8,0-3.8s-2.7-1-3.8,0l0,0c-0.9,1-1,2.5-0.2,3.6
	c0.4,0.8,0.4,0.8,0.2,1c-0.2,0.2-0.5,0.2-0.7,0s-0.2-0.5,0-0.7l0,0l-1.6-1.6c-1.1,1.1-1.1,2.8,0,3.8c0.5,0.5,1.2,0.8,1.9,0.8
	c1.5,0,2.7-1.2,2.7-2.7c0-0.6-0.2-1.2-0.6-1.7c-0.4-0.8-0.4-0.8-0.2-1c0.2-0.2,0.5-0.2,0.7,0S84.5,125.6,84.3,125.8L84.3,125.8z
	 M136.4,80.7l-7.7-7.7c-0.4-0.4-1.1-0.4-1.6,0l0,0l-14.3,14.3c-0.2,0.2-0.3,0.5-0.3,0.8v7.7c0,0.6,0.5,1.1,1.1,1.1h7.7
	c0.3,0,0.6-0.1,0.8-0.3l14.3-14.3C136.8,81.8,136.8,81.1,136.4,80.7L136.4,80.7L136.4,80.7z M120.8,94.7h-6.2v-6.1l13.2-13.2
	l6.1,6.2L120.8,94.7z M91.6,116.7h-7.7c-0.3,0-0.6,0.1-0.8,0.3L71,129.1c-0.4,0.4-0.4,1.1,0,1.6l0,0l7.7,7.7c0.4,0.4,1.1,0.4,1.5,0
	l0,0l12.1-12.1c0.2-0.2,0.3-0.5,0.3-0.8v-7.7C92.7,117.2,92.2,116.7,91.6,116.7z M90.5,125l-11,11l-6.1-6.1l11-11h6.1V125z
	 M96.5,96.9c-0.9,0-1.7,0.7-1.7,1.6s0.7,1.7,1.6,1.7s1.7-0.7,1.7-1.6l0,0C98.2,97.6,97.5,96.9,96.5,96.9z M92.9,93.3
	c0.7-1.4,0.5-3.2-0.6-4.3c-1.8-1.8-3.7-0.8-4.9-0.2c-1.3,0.7-1.7,0.8-2.4,0.2c-0.6-0.6-0.6-1.5,0-2.1s1.5-0.6,2.1,0l0,0l1.6-1.6
	c-1.1-1.1-2.9-1.4-4.3-0.7l-1.8-1.8L81,84.4l1.8,1.9c-0.7,1.4-0.5,3.1,0.6,4.3c1.8,1.8,3.7,0.8,4.9,0.2c1.3-0.7,1.7-0.8,2.3-0.2
	c0.6,0.6,0.6,1.5,0,2.1l0,0c-0.6,0.6-1.5,0.6-2.1,0l-1.6,1.6c1.1,1.1,2.9,1.4,4.3,0.7l1.7,1.7l1.6-1.6L92.9,93.3z M111.4,99.1h2.2
	v2.2h-2.2V99.1z M111.4,103.5h2.2v2.2h-2.2V103.5z M92.7,107.9h2.2v2.2h-2.2V107.9z M92.7,112.3h2.2v2.2h-2.2V112.3z"/>
<g>
	<g>
		<circle class="st4" cx="82.1" cy="130.5" r="1"/>
	</g>
</g>
<g>
	<g>
		<circle class="st4" cx="106.9" cy="105.9" r="1"/>
	</g>
</g>
<g>
	<g>
		<path class="st4" d="M119.5,93.6c-0.8-0.8-1.8-1.2-2.9-1.2s-2.1,0.4-2.9,1.2c-1.6,1.6-1.6,4.2,0,5.8c0.8,0.8,1.9,1.2,2.9,1.2
			c1.1,0,2.1-0.4,2.9-1.2C121.1,97.9,121.1,95.2,119.5,93.6z M118.2,98.1c-0.9,0.9-2.2,0.9-3.1,0s-0.9-2.2,0-3.1
			c0.4-0.4,1-0.6,1.5-0.6c0.6,0,1.1,0.2,1.5,0.6C119,95.9,119,97.2,118.2,98.1z"/>
	</g>
</g>
<g>
	<g>
		<path class="st4" d="M93.2,121.9c-0.5-0.2-1.1,0-1.3,0.4l-1.2,2.3c-0.5,1-1.5,1.7-2.6,1.8l-1.3,0.1c-0.2,0-0.4-0.1-0.4-0.2
			c-0.1-0.1-0.2-0.2-0.2-0.4l0.1-1.3c0.1-1.1,0.8-2.1,1.8-2.6l2.3-1.2c0.5-0.2,0.7-0.8,0.4-1.3c-0.2-0.5-0.8-0.7-1.3-0.4l-2.3,1.2
			c-1.6,0.8-2.7,2.4-2.8,4.2l-0.1,1.3c0,0.7,0.2,1.4,0.7,1.9c0.5,0.5,1.1,0.7,1.8,0.7c0.1,0,0.1,0,0.2,0l1.3-0.1
			c1.8-0.1,3.4-1.2,4.2-2.8l1.2-2.3C93.9,122.8,93.7,122.2,93.2,121.9z"/>
	</g>
</g>
<g>
	<g>
		<path class="st4" d="M129.8,83c-0.5-0.4-1.1-0.7-1.7-0.6l-0.9,0.1c-8.1,0.5-15.6,4.4-20.8,10.7l-2.1,2.6l-5.6-0.2l0,0
			c-4.4,0-8.5,1.7-11.7,4.8l-5.7,5.7c-0.3,0.3-0.4,0.7-0.2,1c0.1,0.4,0.5,0.6,0.9,0.6l12,0.6l-0.5,0.6c-0.2,0.3-0.3,0.7-0.1,1.1
			c0.2,0.3,0.4,0.7,0.6,1l-2.9,3.4c-0.2,0.3-0.3,0.7-0.1,1c0.6,1.3,1.5,2.5,2.5,3.5s2.2,1.9,3.6,2.5c0.1,0.1,0.3,0.1,0.4,0.1
			c0.2,0,0.4-0.1,0.6-0.2c0.6-0.5,1.3-1.1,2-1.7c0.5-0.4,1-0.8,1.5-1.2c0.3,0.2,0.6,0.3,0.8,0.5c0.1,0.1,0.3,0.1,0.5,0.1
			s0.4-0.1,0.6-0.2l0.7-0.5l0.6,12.1c0,0.4,0.3,0.7,0.6,0.9c0.1,0,0.2,0.1,0.3,0.1c0.3,0,0.5-0.1,0.7-0.3l5.7-5.7
			c3.1-3.1,4.8-7.3,4.8-11.7v-5.3l2.2-1.7c6.7-5.2,10.8-13.1,11.2-21.6v-0.5C130.5,84.1,130.3,83.5,129.8,83z M84.3,106l4.1-4.1
			c2.7-2.7,6.4-4.3,10.3-4.3l4.1,0.1l-7.2,8.9L84.3,106z M98.9,118.3c-0.5,0.4-1,0.9-1.5,1.2c-0.9-0.5-1.8-1.1-2.5-1.9
			c-0.7-0.7-1.3-1.5-1.8-2.4l2.1-2.5c0.6,0.8,1.3,1.7,2.1,2.4l0,0l0,0l0,0c0.8,0.8,1.7,1.6,2.7,2.3C99.6,117.7,99.3,118,98.9,118.3z
			 M115,113.9c0,3.9-1.5,7.5-4.3,10.3l-4.1,4.1L106,117l9-7V113.9L115,113.9z M128.5,85.1c-0.4,7.9-4.2,15.3-10.5,20.2l-15.2,11.8
			c-1.3-0.7-2.4-1.6-3.5-2.6l5.1-5.1c0.4-0.4,0.4-1,0-1.4s-1-0.4-1.4,0l-5.1,5.1c-0.9-1-1.8-2.2-2.5-3.4l12.5-15.3
			c4.8-5.9,11.8-9.5,19.4-10l0.9-0.1c0.1,0,0.2,0.1,0.2,0.1s0.1,0.1,0.1,0.2V85.1z"/>
	</g>
</g>
</svg>
