<?xml version="1.0" encoding="utf-8"?>
<!-- Generator: Adobe Illustrator 22.1.0, SVG Export Plug-In . SVG Version: 6.00 Build 0)  -->
<svg version="1.1" id="Слой_1" xmlns="http://www.w3.org/2000/svg" xmlns:xlink="http://www.w3.org/1999/xlink" x="0px" y="0px"
	 viewBox="0 0 207 207" style="enable-background:new 0 0 207 207;" xml:space="preserve">
<style type="text/css">
	.st0{opacity:0.5;fill:none;stroke:#FFFFFF;stroke-miterlimit:10;}
	.st1{opacity:0.25;fill:none;stroke:#FFFFFF;stroke-miterlimit:10;}
	.st2{fill:none;stroke:#FFFFFF;stroke-miterlimit:10;}
	.st3{display:none;fill:#FFFFFF;stroke:#00FFC1;stroke-miterlimit:10;}
	.st4{fill:#FFFFFF;}
</style>
<circle class="st0" cx="103.1" cy="104" r="88.5"/>
<circle class="st1" cx="103.5" cy="103.5" r="103"/>
<circle class="st2" cx="103.1" cy="103.5" r="73"/>
<path class="st3" d="M124.9,107.9c-0.1,0-0.2,0-0.3-0.1H98.2c-0.6,0-1.1,0.5-1.1,1.1c0,0.1,0,0.2,0,0.3l4.6,15.4
	c0.1,0.5,0.6,0.8,1.1,0.8h17c0.5,0,0.9-0.3,1.1-0.8l4.8-15.4C125.8,108.7,125.5,108.1,124.9,107.9L124.9,107.9z M119,123.3h-15.4
	l-3.9-13.2h23.4L119,123.3z M131.2,106.8c-0.5,0-0.9,0.3-1,0.7l-7.4,20.2h-22.3v2.2h5.5v2.4c-1.7,0.6-2.6,2.5-2,4.2s2.5,2.6,4.2,2
	s2.6-2.5,2-4.2c-0.3-0.9-1.1-1.7-2-2v-2.4h9.9v2.4c-1.7,0.6-2.6,2.5-2,4.2s2.5,2.6,4.2,2s2.6-2.5,2-4.2c-0.3-0.9-1.1-1.7-2-2v-2.4
	h3.3c0.5,0,0.9-0.3,1-0.7L132,109h4.7v-2.2H131.2z M107,136.5c-0.6,0-1.1-0.5-1.1-1.1s0.5-1.1,1.1-1.1s1.1,0.5,1.1,1.1
	S107.6,136.5,107,136.5L107,136.5z M119.1,136.5c-0.6,0-1.1-0.5-1.1-1.1s0.5-1.1,1.1-1.1s1.1,0.5,1.1,1.1S119.7,136.5,119.1,136.5
	L119.1,136.5z M104.8,113.4H118v2.2h-13.2V113.4z M105.9,117.8h11v2.2h-11V117.8z M103.4,92.8L83.6,73c-0.4-0.4-1.1-0.4-1.5,0l0,0
	L71,84c-0.4,0.4-0.4,1.1,0,1.5l0,0l19.8,19.8c0.2,0.2,0.5,0.3,0.8,0.3h11c0.6,0,1.1-0.5,1.1-1.1v-11C103.7,93.3,103.6,93,103.4,92.8
	z M101.5,103.5h-9.4L73.4,84.8l9.4-9.4L101.5,94V103.5z M127,82.4c-1.2-1.2-3.1-1.2-4.3,0l0,0l0,0c-1.5,1.5-0.7,3.1-0.2,4
	c0.5,1,0.5,1.1,0.2,1.4s-0.8,0.3-1.2,0l0,0c-0.3-0.3-0.3-0.9,0-1.2l-1.6-1.6c-1.2,1.2-1.1,3.1,0.1,4.3c1.2,1.1,3,1.1,4.2,0
	c1.5-1.5,0.7-3.1,0.2-4c-0.5-1-0.5-1.2-0.2-1.4c0.3-0.3,0.8-0.3,1.2,0l0,0c0.3,0.3,0.3,0.9,0,1.2l1.6,1.6
	C128.2,85.5,128.2,83.6,127,82.4L127,82.4z M84.3,125.8l1.6,1.6c1-1.1,1-2.8,0-3.8s-2.7-1-3.8,0l0,0c-0.9,1-1,2.5-0.2,3.6
	c0.4,0.8,0.4,0.8,0.2,1c-0.2,0.2-0.5,0.2-0.7,0s-0.2-0.5,0-0.7l0,0l-1.6-1.6c-1.1,1.1-1.1,2.8,0,3.8c0.5,0.5,1.2,0.8,1.9,0.8
	c1.5,0,2.7-1.2,2.7-2.7c0-0.6-0.2-1.2-0.6-1.7c-0.4-0.8-0.4-0.8-0.2-1c0.2-0.2,0.5-0.2,0.7,0S84.5,125.6,84.3,125.8L84.3,125.8z
	 M136.4,80.7l-7.7-7.7c-0.4-0.4-1.1-0.4-1.6,0l0,0l-14.3,14.3c-0.2,0.2-0.3,0.5-0.3,0.8v7.7c0,0.6,0.5,1.1,1.1,1.1h7.7
	c0.3,0,0.6-0.1,0.8-0.3l14.3-14.3C136.8,81.8,136.8,81.1,136.4,80.7L136.4,80.7L136.4,80.7z M120.8,94.7h-6.2v-6.1l13.2-13.2
	l6.1,6.2L120.8,94.7z M91.6,116.7h-7.7c-0.3,0-0.6,0.1-0.8,0.3L71,129.1c-0.4,0.4-0.4,1.1,0,1.6l0,0l7.7,7.7c0.4,0.4,1.1,0.4,1.5,0
	l0,0l12.1-12.1c0.2-0.2,0.3-0.5,0.3-0.8v-7.7C92.7,117.2,92.2,116.7,91.6,116.7z M90.5,125l-11,11l-6.1-6.1l11-11h6.1V125z
	 M96.5,96.9c-0.9,0-1.7,0.7-1.7,1.6s0.7,1.7,1.6,1.7s1.7-0.7,1.7-1.6l0,0C98.2,97.6,97.5,96.9,96.5,96.9z M92.9,93.3
	c0.7-1.4,0.5-3.2-0.6-4.3c-1.8-1.8-3.7-0.8-4.9-0.2c-1.3,0.7-1.7,0.8-2.4,0.2c-0.6-0.6-0.6-1.5,0-2.1s1.5-0.6,2.1,0l0,0l1.6-1.6
	c-1.1-1.1-2.9-1.4-4.3-0.7l-1.8-1.8L81,84.4l1.8,1.9c-0.7,1.4-0.5,3.1,0.6,4.3c1.8,1.8,3.7,0.8,4.9,0.2c1.3-0.7,1.7-0.8,2.3-0.2
	c0.6,0.6,0.6,1.5,0,2.1l0,0c-0.6,0.6-1.5,0.6-2.1,0l-1.6,1.6c1.1,1.1,2.9,1.4,4.3,0.7l1.7,1.7l1.6-1.6L92.9,93.3z M111.4,99.1h2.2
	v2.2h-2.2V99.1z M111.4,103.5h2.2v2.2h-2.2V103.5z M92.7,107.9h2.2v2.2h-2.2V107.9z M92.7,112.3h2.2v2.2h-2.2V112.3z"/>
<g>
	<g>
		<path class="st4" d="M126.9,62.5H80.1c-3.4,0-6.1,2.8-6.1,6.1v33.2c0,3.4,2.8,6.1,6.1,6.1H97l-1.8,6.1h-4v2.5h24.6V114h-4l-1.8-6
			h16.8c3.4,0,6.1-2.8,6.1-6.1V68.6C133,65.2,130.3,62.5,126.9,62.5z M97.8,114.1l1.8-6.1h8l1.8,6.1H97.8z M130.6,101.8
			c0,2-1.7,3.7-3.7,3.7H80.1c-2,0-3.7-1.7-3.7-3.7v-2.5h54.1v2.5H130.6z M130.6,96.9H76.4V68.6c0-2,1.7-3.7,3.7-3.7h46.7
			c2,0,3.7,1.7,3.7,3.7v28.3H130.6z"/>
	</g>
</g>
<g>
	<g>
		<path class="st4" d="M113.3,119.1H78.9c-0.7,0-1.2,0.6-1.2,1.2V135c0,0.7,0.6,1.2,1.2,1.2h34.4c0.7,0,1.2-0.6,1.2-1.2v-14.8
			C114.6,119.6,114,119.1,113.3,119.1z M112.1,133.8h-32v-12.3h32V133.8z"/>
	</g>
</g>
<g>
	<g>
		<rect x="82.6" y="128.9" class="st4" width="2.5" height="2.5"/>
	</g>
</g>
<g>
	<g>
		<rect x="82.6" y="124" class="st4" width="2.5" height="2.5"/>
	</g>
</g>
<g>
	<g>
		<rect x="87.5" y="124" class="st4" width="2.5" height="2.5"/>
	</g>
</g>
<g>
	<g>
		<rect x="92.4" y="124" class="st4" width="2.5" height="2.5"/>
	</g>
</g>
<g>
	<g>
		<rect x="102.3" y="124" class="st4" width="2.5" height="2.5"/>
	</g>
</g>
<g>
	<g>
		<rect x="97.4" y="124" class="st4" width="2.5" height="2.5"/>
	</g>
</g>
<g>
	<g>
		<rect x="107.2" y="128.9" class="st4" width="2.5" height="2.5"/>
	</g>
</g>
<g>
	<g>
		<rect x="107.2" y="124" class="st4" width="2.5" height="2.5"/>
	</g>
</g>
<g>
	<g>
		<rect x="87.5" y="128.9" class="st4" width="17.2" height="2.5"/>
	</g>
</g>
<g>
	<g>
		<path class="st4" d="M123.2,119.1c-3.4,0-6.1,2.8-6.1,6.1v4.9c0,3.4,2.8,6.1,6.1,6.1c3.4,0,6.1-2.8,6.1-6.1v-4.9
			C129.3,121.8,126.6,119.1,123.2,119.1z M126.9,130.1c0,2-1.7,3.7-3.7,3.7s-3.7-1.7-3.7-3.7v-4.9c0-2,1.7-3.7,3.7-3.7
			s3.7,1.7,3.7,3.7V130.1z"/>
	</g>
</g>
<g>
	<g>
		<rect x="121.9" y="124" class="st4" width="2.5" height="2.5"/>
	</g>
</g>
<g>
	<g>
		
			<rect x="94.6" y="81" transform="matrix(0.2751 -0.9614 0.9614 0.2751 -4.0182 159.1632)" class="st4" width="17.9" height="2.5"/>
	</g>
</g>
<g>
	<g>
		<path class="st4" d="M96.9,77l-1.6-1.9L88,81.2c-0.5,0.4-0.6,1.2-0.2,1.7c0,0.1,0.1,0.1,0.2,0.2l7.4,6.1l1.6-1.9l-6.2-5.2L96.9,77
			z"/>
	</g>
</g>
<g>
	<g>
		<path class="st4" d="M119.2,81.4c0-0.1-0.1-0.1-0.2-0.2l-7.4-6.1L110,77l6.2,5.2l-6.2,5.2l1.6,1.9l7.4-6.1
			C119.6,82.7,119.6,81.9,119.2,81.4z"/>
	</g>
</g>
</svg>
