<?xml version="1.0" encoding="utf-8"?>
<!-- Generator: Adobe Illustrator 22.1.0, SVG Export Plug-In . SVG Version: 6.00 Build 0)  -->
<svg version="1.1" id="Слой_1" xmlns="http://www.w3.org/2000/svg" xmlns:xlink="http://www.w3.org/1999/xlink" x="0px" y="0px"
	 viewBox="0 0 207 207" style="enable-background:new 0 0 207 207;" xml:space="preserve">
<style type="text/css">
	.st0{opacity:0.46;fill:none;stroke:#FFFFFF;enable-background:new    ;}
	.st1{opacity:0.25;fill:none;stroke:#FFFFFF;enable-background:new    ;}
	.st2{fill:none;stroke:#FFFFFF;}
	.st3{display:none;fill:#FFFFFF;stroke:#00FFC1;stroke-miterlimit:10;}
	.st4{fill:#FFFFFF;stroke:#FFFFFF;stroke-miterlimit:10;}
</style>
<circle class="st0" cx="104" cy="104" r="88.5"/>
<circle class="st1" cx="103.5" cy="103.5" r="103"/>
<circle class="st2" cx="103.5" cy="103.5" r="73"/>
<path class="st3" d="M124.9,107.9c-0.1,0-0.2,0-0.3-0.1H98.2c-0.6,0-1.1,0.5-1.1,1.1c0,0.1,0,0.2,0,0.3l4.6,15.4
	c0.1,0.5,0.6,0.8,1.1,0.8h17c0.5,0,0.9-0.3,1.1-0.8l4.8-15.4C125.8,108.7,125.5,108.1,124.9,107.9
	C124.9,107.9,124.9,107.9,124.9,107.9z M119,123.3h-15.4l-3.9-13.2h23.4L119,123.3z M131.2,106.8c-0.5,0-0.9,0.3-1,0.7l-7.4,20.2
	h-22.3v2.2h5.5v2.4c-1.7,0.6-2.6,2.5-2,4.2s2.5,2.6,4.2,2s2.6-2.5,2-4.2c-0.3-0.9-1.1-1.7-2-2v-2.4h9.9v2.4c-1.7,0.6-2.6,2.5-2,4.2
	c0.6,1.7,2.5,2.6,4.2,2s2.6-2.5,2-4.2c-0.3-0.9-1.1-1.7-2-2v-2.4h3.3c0.5,0,0.9-0.3,1-0.7l7.4-20.2h4.7v-2.2H131.2z M107,136.5
	c-0.6,0-1.1-0.5-1.1-1.1c0-0.6,0.5-1.1,1.1-1.1c0.6,0,1.1,0.5,1.1,1.1C108.1,136,107.6,136.5,107,136.5
	C107,136.5,107,136.5,107,136.5z M119.1,136.5c-0.6,0-1.1-0.5-1.1-1.1c0-0.6,0.5-1.1,1.1-1.1c0.6,0,1.1,0.5,1.1,1.1
	S119.7,136.5,119.1,136.5C119.1,136.5,119.1,136.5,119.1,136.5z M104.8,113.4H118v2.2h-13.2C104.8,115.6,104.8,113.4,104.8,113.4z
	 M105.9,117.8h11v2.2h-11C105.9,120,105.9,117.8,105.9,117.8z M103.4,92.8L83.6,73c-0.4-0.4-1.1-0.4-1.5,0c0,0,0,0,0,0L71,84
	c-0.4,0.4-0.4,1.1,0,1.5c0,0,0,0,0,0l19.8,19.8c0.2,0.2,0.5,0.3,0.8,0.3h11c0.6,0,1.1-0.5,1.1-1.1v-11
	C103.7,93.3,103.6,93,103.4,92.8z M101.5,103.5h-9.4L73.4,84.8l9.4-9.4L101.5,94V103.5z M127,82.4c-1.2-1.2-3.1-1.2-4.3,0
	c0,0,0,0,0,0c0,0,0,0,0,0c-1.5,1.5-0.7,3.1-0.2,4c0.5,1,0.5,1.1,0.2,1.4c-0.3,0.3-0.8,0.3-1.2,0c0,0,0,0,0,0c-0.3-0.3-0.3-0.9,0-1.2
	l-1.6-1.6c-1.2,1.2-1.1,3.1,0.1,4.3c1.2,1.1,3,1.1,4.2,0c1.5-1.5,0.7-3.1,0.2-4c-0.5-1-0.5-1.2-0.2-1.4c0.3-0.3,0.8-0.3,1.2,0
	c0,0,0,0,0,0c0.3,0.3,0.3,0.9,0,1.2l1.6,1.6C128.2,85.5,128.2,83.6,127,82.4C127,82.4,127,82.4,127,82.4z M84.3,125.8l1.6,1.6
	c1-1.1,1-2.8,0-3.8c-1-1-2.7-1-3.8,0l0,0c-0.9,1-1,2.5-0.2,3.6c0.4,0.8,0.4,0.8,0.2,1c-0.2,0.2-0.5,0.2-0.7,0
	c-0.2-0.2-0.2-0.5,0-0.7c0,0,0,0,0,0l-1.6-1.6c-1.1,1.1-1.1,2.8,0,3.8c0.5,0.5,1.2,0.8,1.9,0.8c1.5,0,2.7-1.2,2.7-2.7
	c0-0.6-0.2-1.2-0.6-1.7c-0.4-0.8-0.4-0.8-0.2-1c0.2-0.2,0.5-0.2,0.7,0C84.5,125.3,84.5,125.6,84.3,125.8L84.3,125.8z M136.4,80.7
	l-7.7-7.7c-0.4-0.4-1.1-0.4-1.6,0c0,0,0,0,0,0l-14.3,14.3c-0.2,0.2-0.3,0.5-0.3,0.8v7.7c0,0.6,0.5,1.1,1.1,1.1h7.7
	c0.3,0,0.6-0.1,0.8-0.3l14.3-14.3C136.8,81.8,136.8,81.1,136.4,80.7C136.4,80.7,136.4,80.7,136.4,80.7L136.4,80.7z M120.8,94.7h-6.2
	v-6.1l13.2-13.2l6.1,6.2L120.8,94.7z M91.6,116.7h-7.7c-0.3,0-0.6,0.1-0.8,0.3L71,129.1c-0.4,0.4-0.4,1.1,0,1.6c0,0,0,0,0,0l7.7,7.7
	c0.4,0.4,1.1,0.4,1.5,0c0,0,0,0,0,0l12.1-12.1c0.2-0.2,0.3-0.5,0.3-0.8v-7.7C92.7,117.2,92.2,116.7,91.6,116.7z M90.5,125l-11,11
	l-6.1-6.1l11-11h6.1V125z M96.5,96.9c-0.9,0-1.7,0.7-1.7,1.6c0,0.9,0.7,1.7,1.6,1.7c0.9,0,1.7-0.7,1.7-1.6c0,0,0,0,0,0
	C98.2,97.6,97.5,96.9,96.5,96.9z M92.9,93.3c0.7-1.4,0.5-3.2-0.6-4.3c-1.8-1.8-3.7-0.8-4.9-0.2c-1.3,0.7-1.7,0.8-2.4,0.2
	c-0.6-0.6-0.6-1.5,0-2.1c0.6-0.6,1.5-0.6,2.1,0c0,0,0,0,0,0l1.6-1.6c-1.1-1.1-2.9-1.4-4.3-0.7l-1.8-1.8l-1.6,1.6l1.8,1.9
	c-0.7,1.4-0.5,3.1,0.6,4.3c1.8,1.8,3.7,0.8,4.9,0.2c1.3-0.7,1.7-0.8,2.3-0.2c0.6,0.6,0.6,1.5,0,2.1c0,0,0,0,0,0
	c-0.6,0.6-1.5,0.6-2.1,0l-1.6,1.6c1.1,1.1,2.9,1.4,4.3,0.7l1.7,1.7l1.6-1.6L92.9,93.3z M111.4,99.1h2.2v2.2h-2.2V99.1z M111.4,103.5
	h2.2v2.2h-2.2V103.5z M92.7,107.9h2.2v2.2h-2.2V107.9z M92.7,112.3h2.2v2.2h-2.2V112.3z"/>
<g>
	<g>
		<path class="st4" d="M126.7,73.3c-6.2,0-11.3,5.1-11.3,11.3c0,3.2,1.3,6.1,3.5,8.2c0.1,0.1,0.1,0.1,0.2,0.2c2,1.8,4.7,2.9,7.6,2.9
			c2.9,0,5.6-1.1,7.6-2.9c0.1-0.1,0.1-0.1,0.2-0.2c2.2-2.1,3.5-5,3.5-8.2C138,78.3,132.9,73.3,126.7,73.3z M126.7,92.8
			c-1.8,0-3.4-0.6-4.7-1.5c1-1.6,2.8-2.6,4.7-2.6s3.7,1,4.7,2.6C130.1,92.2,128.4,92.8,126.7,92.8z M125.1,84.1v-0.8
			c0-0.9,0.7-1.6,1.6-1.6s1.6,0.7,1.6,1.6v0.8c0,0.9-0.7,1.6-1.6,1.6S125.1,84.9,125.1,84.1z M133.6,89c-0.8-1.1-1.8-1.9-3-2.5
			c0.5-0.7,0.7-1.6,0.7-2.5v-0.8c0-2.5-2.1-4.6-4.6-4.6c-2.5,0-4.6,2.1-4.6,4.6v0.8c0,0.9,0.3,1.8,0.7,2.5c-1.2,0.6-2.2,1.4-3,2.5
			c-0.8-1.3-1.3-2.8-1.3-4.5c0-4.5,3.7-8.2,8.2-8.2c4.5,0,8.2,3.7,8.2,8.2C134.9,86.2,134.4,87.7,133.6,89z"/>
	</g>
</g>
<g>
	<g>
		<path class="st4" d="M142.2,126.2c-2-2-5.2-2.3-7.5-0.7c0,0,0,0-0.1,0l-8.5,6.4c-0.7,0.5-0.8,1.5-0.3,2.1c0.5,0.7,1.5,0.8,2.1,0.3
			l8.5-6.4c1.1-0.8,2.6-0.6,3.6,0.3c0.5,0.5,0.8,1.2,0.7,1.9s-0.4,1.4-0.9,1.8l-7.8,6.3c-3,2.4-6.7,3.7-10.5,3.7H98.9
			c-3.1,0-6.1-0.8-8.7-2.4l-6.1-3.7v-19.3h11.7c1.6,0,3.2,0.6,4.3,1.8l8.1,8.1c1.2,1.2,2.7,1.8,4.3,1.8h6c1.3,0,2.3,1,2.3,2.3
			s-1,2.3-2.3,2.3h-11.5c-1.1,0-2.1-0.3-3-0.9l-4.9-3.2l0,0c-0.7-0.5-1.6-0.3-2.1,0.4c-0.5,0.7-0.3,1.6,0.4,2.1l4.9,3.2
			c1.4,0.9,3,1.4,4.6,1.4h11.5c2.9,0,5.3-2.4,5.3-5.3s-2.4-5.3-5.3-5.3h-5.9l12.7-7.3h15.4c1.7,0,3-1.4,3-3V70.2c0-1.7-1.4-3-3-3
			h-32.3c-1.7,0-3,1.4-3,3V115c0,1.7,1.4,3,3,3h10.8l-9.7,5.6c0,0,0,0,0,0l-7.3-7.3c-1.7-1.7-4-2.7-6.5-2.7H84.1V111
			c0-1.7-1.4-3-3-3H67.3c-0.8,0-1.5,0.7-1.5,1.5v34.2c0,0.8,0.7,1.5,1.5,1.5h13.7c1.7,0,3-1.4,3-3v-2.6l4.6,2.8
			c3.1,1.9,6.6,2.9,10.3,2.9h22.5c4.5,0,8.9-1.6,12.5-4.4l7.8-6.3c1.2-1,2-2.5,2-4C143.9,128.8,143.3,127.3,142.2,126.2z M108.4,115
			V70.2h32.3l0,44.8c0,0,0,0,0,0H108.4z M81.1,142.1H68.8V111h12.2l0,4.2c0,0,0,0,0,0c0,0,0,0,0,0l0,21.6c0,0,0,0.1,0,0.1
			L81.1,142.1C81.1,142.1,81.1,142.1,81.1,142.1z"/>
	</g>
</g>
<g>
	<g>
		<path class="st4" d="M103.6,74.8c-0.4-0.7-1.4-1-2.1-0.6l-13.7,7.9c-1.5,0.8-2,2.7-1.1,4.2l13.3,23.1c0.3,0.5,0.8,0.8,1.3,0.8
			c0.3,0,0.5-0.1,0.8-0.2c0.7-0.4,1-1.4,0.6-2.1L89.3,84.8l13.7-7.9C103.7,76.5,104,75.6,103.6,74.8z"/>
	</g>
</g>
<g>
	<g>
		<path class="st4" d="M136.1,99.5h-17.7c-0.8,0-1.5,0.7-1.5,1.5c0,0.8,0.7,1.5,1.5,1.5h17.7c0.8,0,1.5-0.7,1.5-1.5
			C137.7,100.1,137,99.5,136.1,99.5z"/>
	</g>
</g>
<g>
	<g>
		<path class="st4" d="M137.2,106.6c-0.3-0.3-0.7-0.4-1.1-0.4c-0.4,0-0.8,0.2-1.1,0.4c-0.3,0.3-0.4,0.7-0.4,1.1s0.2,0.8,0.4,1.1
			c0.3,0.3,0.7,0.4,1.1,0.4c0.4,0,0.8-0.2,1.1-0.4c0.3-0.3,0.4-0.7,0.4-1.1S137.5,106.9,137.2,106.6z"/>
	</g>
</g>
<g>
	<g>
		<path class="st4" d="M129.8,106.2h-11.3c-0.8,0-1.5,0.7-1.5,1.5s0.7,1.5,1.5,1.5h11.3c0.8,0,1.5-0.7,1.5-1.5
			S130.6,106.2,129.8,106.2z"/>
	</g>
</g>
<g>
	<g>
		<path class="st4" d="M77,123.3c-0.8,0-1.5,0.7-1.5,1.5v6c0,0.8,0.7,1.5,1.5,1.5s1.5-0.7,1.5-1.5v-6C78.6,124,77.9,123.3,77,123.3z
			"/>
	</g>
</g>
<g>
	<g>
		<path class="st4" d="M78.1,135c-0.3-0.3-0.7-0.4-1.1-0.4c-0.4,0-0.8,0.2-1.1,0.4c-0.3,0.3-0.4,0.7-0.4,1.1c0,0.4,0.2,0.8,0.4,1.1
			c0.3,0.3,0.7,0.4,1.1,0.4c0.4,0,0.8-0.2,1.1-0.4c0.3-0.3,0.4-0.7,0.4-1.1C78.6,135.6,78.4,135.2,78.1,135z"/>
	</g>
</g>
</svg>
