<?xml version="1.0" encoding="UTF-8"?> <svg xmlns="http://www.w3.org/2000/svg" xmlns:xlink="http://www.w3.org/1999/xlink" width="500px" height="300px" viewBox="0 0 500 300"><!-- Generator: Sketch 52.2 (67145) - http://www.bohemiancoding.com/sketch --><title>babel-seeklogo.com</title><desc>Created with Sketch.</desc><g id="Page-1" stroke="none" stroke-width="1" fill="none" fill-rule="evenodd"><g id="babel-seeklogo.com" transform="translate(85.000000, 86.000000)" fill-rule="nonzero"><path d="M226.290129,11.489041 L226.21663,10.7795618 L225.07096,10.8778671 L225.143814,11.5866995 L226.290129,11.489041 Z M233.993904,30.0751956 L234.018403,30.4664762 L234.823015,30.393394 C234.798516,30.1489245 234.895869,29.7576438 235.06672,29.2687047 L234.993222,28.5592255 C234.652164,28.5838018 234.310462,29.0973173 233.993904,30.0751956 Z M203.933772,53.4795995 C203.885418,52.819273 201.837138,50.2516958 197.790223,45.7270686 C197.717369,44.8960014 199.106744,43.6484305 201.958991,42.0102257 L210.101821,34.893445 C211.930251,32.5696906 213.003067,28.8036951 213.32027,23.5702355 L213.222272,22.3718172 C212.905714,18.7526328 210.297171,15.8422808 205.348291,13.6168317 C202.422545,11.6358521 197.156462,10.5350923 189.550039,10.3397753 C183.260138,10.8778671 175.044454,13.1272458 164.926843,17.1137813 C162.147449,19.1193372 158.978644,21.1248931 155.419137,23.1298022 L155.467492,23.7416229 C155.687342,23.7170466 156.028399,23.5948118 156.418455,23.3257659 C156.833011,23.2766133 157.076716,23.472577 157.101215,23.8638577 L157.710477,23.5456592 L158.00318,23.5210829 L158.02768,23.7901287 C158.052179,24.1083272 155.857548,25.8448372 151.420576,28.9505062 L151.762278,29.5862564 L151.469575,29.6108327 L150.737816,29.3417868 C150.762315,29.5616801 150.445757,29.7084912 149.835851,29.7576438 L149.86035,30.0266897 L150.56761,30.9069095 C150.348404,30.9314858 150.006702,30.8338273 149.543792,30.6624399 C148.51933,30.7600984 147.520012,31.2981901 146.520694,32.325221 L146.93525,30.5156288 C148.421977,24.0837509 149.445794,18.3852817 149.982203,13.4454443 L149.909349,13.1272458 C148.885532,12.4669193 147.885569,11.5375469 146.959104,10.3637049 C146.983604,9.60571987 146.983604,9.16593335 146.959104,9.06762813 L146.886251,8.79858225 L146.593547,8.87231117 C143.375743,13.7144901 137.183195,21.9805365 127.992048,33.6704504 C120.995532,41.9856494 117.387027,46.6079351 117.167822,47.5373075 C114.315574,50.4961654 112.950055,52.281828 113.096406,52.8930019 C112.340793,53.381941 112.02359,53.8708802 112.145442,54.4089719 C111.926237,54.4581245 111.779885,54.3850424 111.730887,54.1645024 C110.512363,56.145482 108.707788,57.4169824 106.294596,57.9796505 L103.758908,58.5668948 C103.41785,58.639977 103.246999,58.8844465 103.271498,59.3003035 L103.344352,59.618502 L104.295316,59.397962 L104.368814,59.6670079 L102.223181,60.4987218 L98.4199703,61.3789416 L96.4206895,61.5011764 C96.127986,61.7947985 98.0054145,61.4772468 97.2743005,61.6479875 L94.7876104,62.2352318 C93.2757389,62.5773599 92.447272,62.4551251 92.3009202,61.8439512 L92.0082168,61.9170333 C92.0572156,62.1860792 92.0810703,62.3820429 92.0327162,62.5527835 L91.8863644,61.9416096 L89.8870836,62.4059725 C89.7407319,61.4772468 87.0348365,58.1018852 81.7932522,52.281828 C81.6958993,51.1564919 83.5481836,49.5176403 87.32754,47.3904964 L98.0054145,37.9745376 C100.394752,34.893445 101.808626,29.9529608 102.27218,23.1543785 L102.125828,21.5646796 C101.711273,16.7716532 98.2491191,12.9073525 91.7400127,9.92391836 C87.8878028,7.30718854 80.9641406,5.91280657 70.9690259,5.69291331 C62.6798439,6.40239245 51.854973,9.36125031 38.5440566,14.5216278 C34.8871973,17.1868634 30.7184292,19.8281696 26.0377525,22.4448994 L26.110606,23.2766133 C26.4278088,23.252037 26.8417199,23.0812963 27.3536287,22.7876742 C27.8900368,22.7385216 28.1827403,22.9829911 28.2317391,23.472577 L29.060206,23.0075674 L29.4747618,22.9829911 L29.4992612,23.3742718 C29.5237606,23.7655524 26.6225147,26.0401542 20.7471693,30.1974303 L21.2100792,30.9314858 L20.7961681,30.9560621 L19.8935583,30.6378636 C19.9180577,30.8823332 19.5035019,31.0537206 18.6505356,31.1268027 L18.6988897,31.567236 L19.674353,32.6434195 C19.3577949,32.6679958 18.9187396,32.5696906 18.3578321,32.3743736 C16.4565489,32.545761 14.6036198,33.9149199 12.7751902,36.5077202 L13.2381001,37.2411289 C14.8228251,35.7736648 15.7492896,35.040256 16.0174937,35.0156797 L16.1148466,36.214098 C15.8466426,36.2386743 15.4320867,36.409415 14.8718239,36.7030372 L15.871142,38.2196539 C17.7969245,36.1403691 19.9180577,34.3553532 22.2345414,32.8633128 C23.3802112,33.1569349 23.9894728,33.5236393 24.0139722,33.9149199 L24.8914379,33.8418378 C31.1813391,29.1703995 37.3983868,25.7956846 43.5664357,23.7170466 L43.6392892,24.5481137 C42.4936194,26.2600475 41.7135066,27.140914 41.2989508,27.1894199 C41.3479496,27.7766642 41.5426555,28.2901797 41.9082125,28.7306129 C42.0062101,29.7822201 39.2023171,36.8744245 33.5216775,49.9826499 C20.625317,80.454682 9.80044601,103.002796 1,117.579132 C1.02385469,117.872107 1.19470584,118.263388 1.51190873,118.752974 C3.68139597,118.239459 5.04691572,117.701367 5.63167796,117.187205 L6.09523259,117.138699 L6.1680861,117.970413 L6.97269831,117.896684 L7.80180992,117.432321 C7.82630933,117.676791 8.0945134,117.799025 8.65477623,117.749873 L8.72827446,118.581587 C8.80112797,119.388724 8.33821806,120.611072 7.3627547,122.299076 C6.48528899,123.301531 5.53432504,125.404745 4.535007,128.608719 L4.55886168,129 L5.36347389,128.926271 C8.8746262,124.988888 11.5315228,121.124588 13.3599524,117.358592 C23.5994164,114.350582 31.4011891,111.391724 36.8129799,108.481372 C42.2499148,108.016362 46.3941834,106.573474 49.2225758,104.201214 L49.173577,103.761428 L47.1259421,104.372601 L46.6623875,104.421754 L46.6133886,103.981321 C50.6119503,103.370147 53.3668445,102.48928 54.9025707,101.266932 C62.6798439,95.2502648 68.5551893,90.9953302 72.5292515,88.4762589 C80.6959365,82.4602379 86.0110191,76.5903813 88.424211,70.8925589 C88.8632662,70.7949004 89.3016767,70.6965952 89.7897307,70.5743604 C90.9354005,70.5258545 91.5691615,70.5012782 91.7400127,70.4521256 C91.6910139,70.2322323 91.7890115,70.1099976 92.0082168,70.0608449 C93.8366464,69.865528 92.9591807,70.1830797 94.1293499,69.9140339 L97.2008023,69.2052015 C97.0060964,69.2537073 96.9325982,69.3520125 96.981597,69.5473295 L97.4445069,69.2537073 C97.347154,69.2537073 97.2743005,69.2297778 97.2008023,69.2052015 L97.712711,69.0829667 L97.4690063,69.2297778 C97.8107086,69.2782836 98.1762656,69.2537073 98.5908214,69.1560488 L98.8100267,70.0608449 L84.8408499,92.3405596 L81.7442534,96.2287898 L80.2330266,101.315438 L80.5257301,101.242356 L82.0369568,100.606606 L81.5495475,102.587586 L81.6958993,103.174183 L82.1098103,103.687699 C81.9151045,103.736851 81.842251,103.859086 81.8906051,104.078979 L81.9641033,104.397178 L82.5978644,104.250367 C83.5243289,103.443229 83.9143853,102.70982 83.7680336,102.049494 C84.7673516,102.220234 85.4256121,102.293963 85.7673144,102.196305 L85.8401679,102.513857 C85.2309063,102.660668 84.9137034,103.149607 84.8647045,103.981321 L84.9382028,104.299519 L85.2792604,104.22579 C90.3506383,98.6741322 102.784089,79.6721207 112.755349,66.7837886 C112.438146,65.3900534 117.630731,63.4575796 128.357605,60.9630846 L128.699307,60.8900024 C129.089363,62.5773599 128.260252,66.6615538 126.212617,73.1425843 C124.896096,77.0553909 124.262335,79.2077579 124.359688,79.5498859 C122.653111,84.7587692 121.848498,87.5714628 121.945851,88.011896 L118.14264,100.508301 C115.680449,106.916249 113.803666,113.641749 112.487145,120.733954 C112.70635,120.684801 113.047408,120.709377 113.535462,120.831612 L114.071225,120.366603 C114.120224,120.587143 114.266576,120.660225 114.485781,120.611072 L114.266576,119.706276 L115.924154,119.65777 C116.411563,119.535535 116.826119,118.923715 117.167822,117.799025 C117.094323,116.111668 117.436026,115.206872 118.191639,115.010908 C119.215456,111.000443 119.849218,108.994887 120.069067,108.921158 C121.019387,104.935269 121.726646,102.660668 122.189556,102.098 C123.628574,96.9136927 124.676246,94.2478102 125.359006,94.0764228 L125.505358,94.7128198 L124.457041,97.4272081 C122.628611,105.57102 120.775682,112.002898 118.898898,116.722842 L119.435306,119.070526 L119.776364,118.997444 C124.310689,109.21478 130.844295,89.8460645 139.352682,60.8900024 C139.597032,58.3463548 140.815555,56.3653752 142.985687,54.97164 L142.497633,54.4581245 L142.424779,54.1890787 C143.400243,53.9691854 144.082358,53.5779048 144.472414,53.039813 C144.42406,52.819273 143.570449,52.5017213 141.912871,52.061288 L146.155137,33.8172615 C147.080957,32.9855475 147.617365,32.545761 147.788216,32.545761 L147.861714,33.4751334 C147.641864,33.499063 147.300807,33.6212978 146.91075,33.8903436 L147.715362,35.040256 C149.17759,33.4505571 150.762315,32.0807514 152.493392,30.9314858 C153.370858,31.1759553 153.809913,31.4695775 153.858912,31.7631997 L154.492673,31.7140471 C159.319701,28.1679449 164.049377,25.6242972 168.705554,24.0837509 L168.754553,24.6949248 C167.901587,25.9910016 167.31618,26.6513281 166.998977,26.6759044 C167.047976,27.1163377 167.169828,27.5076183 167.389033,27.8497464 C167.462532,28.656884 165.365898,34.0371547 161.075278,44.0151348 C151.274224,67.1259166 143.05854,84.2206775 136.378583,95.3239937 C136.403082,95.543887 136.549434,95.8375092 136.817638,96.2287898 C138.450717,95.8375092 139.499034,95.4216522 139.91359,95.0303715 L140.206293,95.0057952 L140.255292,95.6176159 L140.937407,95.5684633 L141.547314,95.2502648 C141.571168,95.4216522 141.791018,95.4953811 142.205574,95.4708048 L142.253928,96.1311313 C142.302927,96.717729 141.961869,97.6471014 141.205611,98.9186018 C140.498997,99.6772336 139.767238,101.266932 138.987125,103.687699 L139.011625,104.005897 L139.645386,103.956744 C142.302927,100.97331 144.326062,98.038382 145.716082,95.1526063 C153.49271,92.854075 159.417054,90.6286258 163.512969,88.4271062 C167.681737,88.0604019 170.826688,86.9842184 172.97232,85.1746262 L172.947821,84.8570745 L171.363096,85.3214373 L171.022038,85.3460136 L170.997539,85.0278151 C174.020637,84.5880286 176.14177,83.9031258 177.28744,82.9983297 C183.187285,78.4491261 187.648756,75.1966461 190.671854,73.2893954 C200.082207,66.4170842 204.47018,59.813819 203.933772,53.4795995 Z M202.325192,53.8954565 L202.544398,56.3653752 C202.251694,56.9771959 201.935136,57.2947476 201.642432,57.3193239 L201.276875,53.1128952 C201.958991,53.3573647 202.300693,53.6018343 202.325192,53.8954565 Z M17.724071,33.9886489 L17.3095152,34.0125784 L17.2366617,33.2545934 L18.9187396,33.1077823 L18.943239,33.499063 C18.675035,33.5236393 18.2604792,33.6704504 17.724071,33.9886489 Z M9.50838726,116.42922 C8.5329239,115.989433 7.65545818,115.818046 6.8998448,115.891128 L6.80184716,114.69271 C6.75349306,114.228347 7.02169713,113.910148 7.60645936,113.787914 C8.1428675,113.739408 8.46007039,114.130688 8.50842449,114.91325 C9.92294306,113.17674 10.7030559,112.29652 10.8494076,112.271943 L11.7513727,112.638648 C11.4586692,115.084637 10.7030559,116.331561 9.50838726,116.42922 Z M97.2987999,24.3036442 C96.8842441,24.3527968 96.0551325,23.05672 94.8604639,20.4884961 L94.7876104,19.7305111 C95.5677232,19.6574289 96.3723354,20.9289294 97.2253017,23.5456592 L97.2987999,24.3036442 Z M96.127986,15.1819543 L95.7869284,15.9890919 L83.8653865,11.0001018 C91.8128662,11.2691477 95.9087808,12.662883 96.127986,15.1819543 Z M45.7849218,58.5423185 L44.1028438,58.6891296 L44.0293456,57.9304978 L45.7114235,57.7843335 L45.7849218,58.5423185 Z M44.419402,32.4966084 L44.8339578,32.4720321 L44.9313107,33.6704504 C44.5412543,33.6950267 44.0293456,34.2816243 43.3955845,35.4069604 L43.3220863,34.5752465 C44.0783444,33.6704504 44.4684008,32.9855475 44.419402,32.4966084 Z M40.884395,40.8603133 L41.0307467,42.4500122 L40.6161909,42.4745885 L40.4698392,40.8848896 L40.884395,40.8603133 Z M39.0314659,43.8443942 L39.8360781,43.7706653 C39.7632246,45.0913183 39.3976676,45.8007975 38.7394072,45.8493033 L38.3248514,45.8738797 C38.8367601,44.9936599 39.0804647,44.308757 39.0314659,43.8443942 Z M37.6420915,48.0016703 L38.1050014,47.9525177 L38.1295008,48.3437984 L37.3738874,49.6159456 L36.5692752,49.6890277 L36.5447758,49.2977471 C37.349388,49.2246649 37.714945,48.808808 37.6420915,48.0016703 Z M36.2765717,51.7437363 L36.0328671,53.7486454 L35.6183113,53.7732217 L35.4481048,51.7922421 L36.2765717,51.7437363 Z M22.6000984,90.7508606 C22.0636902,93.4898252 21.4782833,94.8835605 20.8690216,94.9327131 L20.8445222,94.5414324 C20.6981705,93.196203 21.2835774,91.9247026 22.6000984,90.7508606 Z M20.0889088,96.2042135 L20.1134082,96.5954942 C20.1617623,97.1335859 19.9180577,97.4517844 19.3816495,97.475714 L19.3577949,97.0844333 C19.308796,96.6200705 19.5525007,96.3264483 20.0889088,96.2042135 Z M19.3577949,107.527423 L20.625317,107.405188 L20.6736711,107.845621 C20.3571129,107.869551 19.9425571,108.040938 19.4306484,108.334561 L18.6260362,108.407643 C18.5770373,107.992433 18.8452414,107.674234 19.3571501,107.527423 L19.3577949,107.527423 Z M55.4389788,96.3510246 C48.319966,99.8725505 44.1266985,102.269387 42.8836758,103.516311 C35.1799008,106.20677 31.3521903,107.869551 31.4250438,108.529878 C24.5748798,111.244913 20.0644094,113.250469 17.8949222,114.497393 C17.3830135,114.546545 16.6512548,114.350582 15.6764361,113.910148 C15.5545838,112.516413 16.1883448,111.391724 17.5287205,110.486928 C18.7233891,110.388622 19.8690589,110.56001 20.9663745,111.024373 C22.2345414,110.364046 24.4530274,109.630637 27.597978,108.848076 L27.5244798,108.016362 L24.9894356,108.236902 C25.3059938,107.796469 27.7436851,106.647203 32.3270089,104.788458 L33.5951758,104.666224 L33.6196752,105.057504 C31.4495432,105.252821 30.2548746,105.889218 29.9866705,107.038484 C30.0356694,107.551999 30.3283728,107.771893 30.864781,107.723387 C32.4978601,106.695709 33.3024723,106.084535 33.2779729,105.913148 C36.3745694,105.32655 44.9313107,100.826499 58.9494864,92.438218 L59.0229846,93.196203 C59.047484,93.5629074 57.8528154,94.5899383 55.4389788,96.3510246 Z M33.9362333,103.443229 C35.984513,103.271842 37.7394444,102.440774 39.2023171,100.997887 C39.7870793,100.948734 40.1042822,101.168627 40.1287816,101.682143 C39.1288188,101.780448 37.2030363,102.611515 34.399788,104.22579 L33.9852322,104.250367 L33.9362333,103.443229 Z M68.6280428,76.7126161 L57.8766701,85.2483551 C49.8801916,90.5063911 45.5895712,93.1470504 44.9803095,93.196203 C32.2541554,100.215325 24.3311751,103.859086 21.259078,104.128132 L20.7961681,104.176638 C21.1862245,102.734397 26.8417199,91.117565 37.8129426,69.2537073 C42.6399712,68.8378504 50.2463933,66.5884716 60.6077096,62.4797014 L63.1427538,62.2591614 C68.3843382,61.7947985 72.3094016,62.8218294 74.8940893,65.2678186 L75.0397964,66.8568708 C73.0895144,72.4822578 70.9445265,75.7593141 68.6280428,76.7126161 Z M47.6133514,64.8519616 L49.3444282,64.7051505 L49.3682828,65.0964312 L47.6378508,65.2432423 L47.6133514,64.8519616 Z M71.9193452,60.718615 L73.187512,60.5963803 C74.3576812,61.1590483 74.9669428,61.6479875 75.0159417,62.0884207 L75.0397964,62.4797014 C73.918626,62.5773599 72.8703091,61.9907622 71.9193452,60.718615 Z M75.3569992,41.0808533 C74.2358289,42.4254359 71.1637318,44.724614 66.1413527,47.9525177 C64.4837742,48.0993288 58.3157253,50.4961654 47.6378508,55.1915332 C47.1014427,54.9470637 46.5405351,54.8494052 45.9312735,54.8985578 L45.8577753,54.1399261 C45.7359229,52.5993797 46.4186828,50.6675528 47.9299096,48.3198688 C48.7590212,43.9174764 49.6609863,41.398405 50.6609491,40.7872311 L59.5593927,20.7090361 C59.4613951,19.4614652 61.363323,18.5075165 65.263887,17.84719 L66.5314091,17.7249552 L66.6294067,18.8748676 C70.4564725,18.2876232 72.8458097,17.9454952 73.7722742,17.8717663 C80.8422882,17.2605924 84.523647,18.7034802 84.8163504,22.1519239 L85.6209627,22.078195 L85.4501115,20.0487096 L86.3275772,19.9749806 C88.3997115,21.1248931 89.5215266,22.5186283 89.6678784,24.1568331 C89.7652313,25.2821692 89.1559696,26.6759044 87.8633034,28.3393323 C87.32754,28.3878381 87.0103371,27.9965575 86.9613383,27.2139962 L86.0838726,27.2877251 L85.8891667,29.7330675 C82.3051609,35.1133382 79.6966184,37.8768791 78.087394,38.0236902 C76.6245214,40.0538224 75.7225562,41.056277 75.3569992,41.0808533 Z M80.8177888,55.1430274 C80.0866748,54.6534415 79.5012679,54.4335482 79.0628574,54.4581245 L78.9648597,53.2597063 L79.769472,53.1866241 L81.5495475,54.2382313 C81.622401,54.8002526 81.3786964,55.0938748 80.8177888,55.1430274 Z M86.473929,61.8678807 C87.2540418,62.1860792 87.7175964,62.5282072 87.8149493,62.8464057 L87.4248929,62.9440642 L87.4493923,62.9686405 C87.3758941,62.9686405 87.2785412,62.9932168 87.2050429,63.0177931 L86.6202807,63.482156 L86.473929,61.8678807 Z M87.0103371,65.2432423 L86.9374836,64.9250438 L87.961301,64.6805742 L88.0341546,64.9987727 L87.0103371,65.2432423 Z M89.4725278,68.0067832 C90.5208447,67.8353958 91.0327534,67.7623136 92.9830354,67.3218803 L93.0565336,67.6400788 L89.3506755,68.4957223 C89.3996743,68.3243349 89.4480284,68.1535943 89.4725278,68.0067832 Z M93.081033,69.5473295 C91.5208074,69.6941406 91.861865,69.4981769 89.3751749,70.0608449 L89.3016767,69.7432932 L92.3982732,68.7401919 L93.8856453,68.3980638 L94.0313523,68.9846615 C93.3730918,69.1314725 93.8611458,69.1314725 93.081033,69.5473295 Z M96.3723354,68.7647682 C96.0061337,68.8624267 95.7140749,68.691686 95.5432238,68.2758291 L96.4941877,68.055289 C96.9080988,67.9576306 97.1763029,68.129018 97.2743005,68.5448749 L96.3723354,68.7647682 Z M105.294634,59.1289161 L105.22178,58.8113644 L106.757506,58.44466 L106.903858,59.0312576 L105.294634,59.1289161 Z M114.827483,117.774449 C114.924836,117.334016 114.949335,117.016464 114.900337,116.795924 L115.242039,116.722842 C115.65595,116.625183 115.899655,116.771994 115.997652,117.163275 L116.070506,117.480827 L114.827483,117.774449 Z M121.507441,61.6479875 L120.824681,61.5257527 C119.727365,61.9661859 118.800901,62.2837377 118.045287,62.4551251 L117.411526,62.6019362 C117.045969,62.6995946 116.753266,62.5527835 116.606914,62.1615029 L121.068386,61.134472 L122.531258,60.4495692 L123.018668,61.0122372 C122.311408,61.1590483 121.7995,61.3789416 121.507441,61.6479875 Z M124.94445,60.5472277 L124.871597,60.2296759 C125.090802,60.1805233 125.383505,60.0097827 125.700708,59.6915842 L128.869513,58.9581755 L128.943012,59.2757272 C127.260934,59.6915842 125.919913,60.1074411 124.94445,60.5472277 Z M125.432504,54.1153498 C125.212654,54.1645024 124.920595,54.3604661 124.554394,54.6534415 C124.50604,54.4335482 124.066984,54.4335482 123.237873,54.6295119 C123.092166,54.0176913 125.432504,53.1620478 130.284032,52.0367117 L130.966147,51.8899006 L131.112499,52.477145 C127.699344,53.4795995 125.798061,54.0422676 125.432504,54.1153498 Z M133.965391,44.8714251 C133.623689,48.7596553 132.258813,50.9611749 129.844977,51.5231962 L129.772123,51.2056445 L127.626491,52.0367117 L126.675527,52.2572517 C126.188118,52.3794865 125.749062,52.3549102 125.359006,52.2326754 L125.1643,51.3763852 C125.090802,51.0588334 128.187398,46.7540994 134.4773,38.488053 L135.208414,38.6109346 C135.476618,39.7356239 135.062062,41.814262 133.965391,44.8714251 Z M149.055738,31.9093641 L148.763679,31.9339404 L148.71468,31.3227664 L149.982203,31.2005317 L150.006702,31.5180834 C149.787497,31.567236 149.470294,31.6894708 149.055738,31.9093641 Z M142.839335,94.5414324 C142.107576,94.1986576 141.449316,94.0524933 140.889053,94.1009991 L140.815555,93.1716267 C140.791055,92.854075 140.986406,92.633535 141.400962,92.5113002 C141.815518,92.4627943 142.059222,92.7557698 142.107576,93.3921667 C143.155893,92.0469374 143.7413,91.3620345 143.863153,91.3620345 L144.521413,91.6310804 C144.277708,93.4898252 143.716801,94.4677035 142.839335,94.5414324 Z M209.492559,24.5972664 C209.175356,24.6218427 208.566095,23.6433176 207.615131,21.6623381 L207.566777,21.0511641 C208.176038,21.0020115 208.809799,21.9559602 209.44356,23.9123635 L209.492559,24.5972664 Z M208.615094,17.6027204 L208.32239,18.2384706 L199.302094,14.4478988 C205.323791,14.6438625 208.444242,15.6954697 208.615094,17.6027204 Z M170.363778,50.545318 L169.095611,50.6675528 L169.047257,50.0557321 L170.314779,49.9580736 L170.363778,50.545318 Z M169.315461,30.7600984 L169.656518,30.7355221 L169.729372,31.6648945 C169.412814,31.6894708 169.022757,32.1299041 168.559203,32.9855475 L168.510849,32.3743736 C169.071756,31.6648945 169.339315,31.1268027 169.315461,30.7600984 Z M166.657919,37.1188941 L166.755272,38.3173124 L166.414215,38.3418887 L166.316217,37.1434704 L166.657919,37.1188941 Z M165.219546,39.3934959 L165.853307,39.3443433 C165.780454,40.3713742 165.51225,40.9094659 165.048695,40.9586185 L164.707637,40.9825481 C165.073194,40.298292 165.244046,39.7602002 165.219546,39.3934959 Z M164.195729,42.5237411 L164.488432,42.4991648 L164.512287,42.8167166 L163.952024,43.7952416 L163.317618,43.8443942 L163.293764,43.5261957 C163.952024,43.4770431 164.244083,43.1349151 164.195729,42.5237411 Z M163.171911,45.3603642 L162.952061,46.9254868 L162.659358,46.9500631 L162.537506,45.4095168 L163.171911,45.3603642 Z M152.761596,75.0252587 C152.34704,77.0799672 151.90863,78.1315744 151.445075,78.1800803 L151.420576,77.9110344 C151.347722,76.8840035 151.786133,75.9061252 152.761596,75.0252587 Z M150.835814,79.1586053 L150.859668,79.4276511 C150.908667,79.8674377 150.713961,80.112554 150.274906,80.1364835 L150.250407,79.8189318 C150.225907,79.5007333 150.421258,79.2808401 150.835814,79.1586053 Z M150.299405,87.7667797 L151.274224,87.6936975 L151.298723,88.0112493 C151.079518,88.0358256 150.737816,88.1580604 150.34776,88.3786004 L149.713998,88.4271062 C149.689499,88.0849782 149.88485,87.8650849 150.299405,87.7667797 Z M177.677496,79.2808401 C172.31406,81.9467225 169.12011,83.7563147 168.120792,84.6856871 C162.269301,86.7397488 159.3687,88.011896 159.417054,88.5254115 C154.224469,90.6040495 150.811314,92.0954432 149.20209,93.049392 C148.812033,93.0739683 148.251126,92.9271572 147.520012,92.5850291 C147.422659,91.5334219 147.910068,90.6771317 148.933886,90.0413815 C149.86035,89.9682993 150.737816,90.0905341 151.542428,90.4326621 C152.517892,89.943723 154.199969,89.4056313 156.589307,88.7944573 L156.540308,88.1826367 L154.541027,88.3294478 C154.785376,87.9873197 156.66216,87.1064532 160.148813,85.6881417 L161.123632,85.6150595 L161.148131,85.8841054 C159.490553,86.0309164 158.564088,86.5198556 158.368737,87.4000754 C158.393237,87.791356 158.636942,87.9873197 159.051497,87.9381671 C160.270665,87.1310295 160.855428,86.6666667 160.855428,86.5198556 C163.195766,86.1039986 169.681018,82.6801312 180.335038,76.2728296 L180.383392,76.8840035 C180.407891,77.1530494 179.505926,77.9356107 177.677496,79.2808401 Z M161.343482,84.6611108 C162.927562,84.5142997 164.268582,83.9031258 165.390397,82.8269423 C165.804308,82.7777897 166.048658,82.9737534 166.072513,83.365034 C165.341399,83.4381162 163.903025,84.0499369 161.732893,85.2237788 L161.391836,85.2483551 L161.343482,84.6611108 Z M187.72161,64.3384462 L179.603279,70.8925589 C173.532583,74.8784476 170.241925,76.8840035 169.729372,76.9331561 C160.075315,82.2642742 154.078117,85.0278151 151.713279,85.2237788 L151.372222,85.2483551 C151.66428,84.1475953 155.980045,75.3188809 164.317581,58.7376355 C167.949941,58.4200837 173.703434,56.6835737 181.60256,53.5533284 L183.577341,53.381941 C187.550759,53.039813 190.525503,53.8223743 192.475785,55.7050487 L192.573138,56.903467 C191.085766,61.1098957 189.477186,63.5798144 187.72161,64.3384462 Z M171.777651,55.3383443 L173.045174,55.2161095 L173.069673,55.534308 L171.802151,55.6565428 L171.777651,55.3383443 Z M190.232799,52.1835228 L191.208263,52.1104406 C192.110228,52.5502271 192.573138,52.9421545 192.597637,53.2597063 L192.622136,53.5287521 C191.768525,53.6018343 190.963913,53.1620478 190.232799,52.1835228 Z M192.792343,37.2902815 C191.939377,38.3173124 189.623538,40.077752 185.844826,42.5237411 C184.576659,42.6459759 179.895982,44.4555681 171.802151,47.977094 C171.412095,47.8302829 170.973039,47.7817771 170.509485,47.8063534 L170.461131,47.1945327 C170.363778,46.0206907 170.875686,44.5532266 171.996857,42.7682107 C172.630618,39.3934959 173.337877,37.5101748 174.068991,37.0697415 L180.870801,21.8091491 C180.797947,20.9043531 182.236321,20.1709443 185.162066,19.6082763 L186.136885,19.5351941 L186.210383,20.4645665 C189.087129,19.999557 190.89106,19.7305111 191.622174,19.6574289 C196.98561,19.1924193 199.789503,20.2686028 200.008709,22.9099089 L200.64247,22.8607563 L200.520617,21.3932922 L201.155023,21.3447863 C202.715249,22.2004298 203.543716,23.2281074 203.641713,24.4504553 C203.714567,25.3313218 203.275512,26.4068586 202.349047,27.6544294 C201.935136,27.7029353 201.691431,27.4099599 201.642432,26.7742096 L201.008671,26.8227155 L200.813321,28.656884 C198.107425,32.7902306 196.132644,34.9180213 194.888977,35.0156797 C193.792306,36.5077202 193.109546,37.2657052 192.792343,37.2902815 Z M195.645235,47.4635786 L195.571737,46.5342062 L196.205498,46.4857003 L197.571017,47.3167675 C197.595517,47.7080482 197.400166,47.9285882 196.98561,47.977094 C196.400848,47.6103897 195.961793,47.4390023 195.645235,47.4635786 Z M82.1588092,106.867096 L81.5250481,107.013908 L80.98864,107.47827 C81.0859929,107.869551 81.3296975,108.016362 81.7442534,107.918704 C82.1588092,107.821045 82.3296603,107.576576 82.2323074,107.185295 L82.1588092,106.867096 Z M79.7456173,102.049494 L79.8184708,102.367046 C80.2330266,102.269387 80.403233,102.024918 80.3058801,101.633637 L80.2330266,101.315438 C79.8429702,101.413744 79.672119,101.658213 79.7456173,102.049494 Z M96.9080988,61.0853194 L97.6398575,60.9145788 L97.4935058,60.2788285 L96.7623918,60.4495692 L96.9080988,61.0853194 Z M318.127457,79.7212733 C310.715741,81.3840544 309.789276,81.0904322 308.22905,81.212667 L308.278049,81.8244877 L308.960809,81.7753351 L309.326366,81.7507588 L309.229013,81.6776766 L310.032981,81.3594781 C317.371199,80.5523405 318.22481,80.8459627 318.151312,80.0142488 L318.127457,79.7212733 Z M278.217918,85.0278151 L278.266917,85.6396358 L278.36427,85.6396358 L278.315915,85.0278151 L278.217918,85.0278151 Z M273.634594,68.9115793 L272.976333,68.691686 C272.439925,70.1345739 272.171721,70.9902173 272.196221,71.2346869 L272.22072,71.5037328 C272.732629,71.4791565 273.196183,70.5989367 273.634594,68.9115793 Z M319.638684,79.5990385 L319.687682,80.2102125 L320.759854,80.4055294 L320.7115,79.7943555 L319.638684,79.5990385 Z M269.197622,85.7858001 L267.540043,85.5904832 L267.24734,86.2262334 L267.271839,86.5444319 L277.145101,85.712718 L277.096747,85.101544 L269.197622,85.7858001 Z M264.711651,64.0939766 L264.687796,63.7757781 L264.346094,63.8003544 L263.736832,64.1916351 L264.07789,64.7782327 C264.541444,64.7297268 264.76065,64.5091868 264.711651,64.0939766 Z M324.31936,75.0989876 L324.782915,75.049835 C325.051119,75.0252587 325.172971,74.8053654 325.148472,74.4140848 L324.880268,73.8268404 C323.19819,73.9736515 322.418077,74.0473804 321.052558,74.8053654 L321.028058,74.4878137 L319.004923,74.6831307 C318.955924,74.0719567 318.785717,73.7537582 318.517513,73.7783346 L317.469196,73.875993 C316.250028,73.9736515 315.664621,73.9251456 315.05536,74.3895085 C315.03086,74.1696152 314.958007,74.0719567 314.836155,74.0719567 L313.665985,74.1696152 L312.983225,74.5608959 C312.958726,74.3410026 312.885873,74.2426974 312.763376,74.2426974 L312.349464,74.6100485 L312.324965,74.29185 L310.691241,74.1696152 L310.301185,74.1941915 L310.350184,74.8053654 L311.179295,75.0252587 L311.959408,74.9767528 C312.227612,75.1481402 312.519671,75.1966461 312.861373,75.1720698 L313.544133,74.8299417 L313.567988,75.0989876 C309.740922,76.0529363 309.764777,75.8815489 307.131735,76.3219822 C306.839676,76.1260185 306.619826,76.02836 306.473474,76.0529363 L306.42512,76.1014422 C306.132417,76.0768659 305.961566,75.8815489 305.937711,75.5633504 L307.302586,75.3926098 C307.399939,75.3926098 307.473437,75.4902683 308.22905,75.6370794 C309.326366,75.0989876 309.37472,74.8784476 309.960127,74.8299417 L309.911128,74.2181211 C306.156916,74.9521765 307.668143,74.4632374 302.962967,74.8784476 L302.743761,74.9030239 L302.694763,74.29185 C308.740959,73.5584413 306.717824,73.9736515 308.789958,73.3870539 C308.814457,73.6069472 308.887311,73.7046056 309.009163,73.7046056 C309.252868,73.4601361 309.521072,73.3379013 309.838275,73.2893954 L310.252831,73.2648191 C312.373319,73.0934317 313.080578,73.5092887 317.273846,72.3354467 L317.298345,72.6044926 L317.981105,72.2617178 L318.614866,72.2132119 C318.565867,71.6013913 319.492332,71.5037328 319.809535,71.4791565 L319.760536,70.81883 C312.397819,72.3108704 310.472036,71.8950134 308.424401,72.4822578 L308.399902,72.2132119 C306.474119,72.55534 306.400621,72.4085289 305.913211,72.4331052 C305.76686,72.4576815 305.547655,72.5799163 305.303305,72.8243858 C305.27945,72.6044926 305.205952,72.5061874 305.0596,72.5061874 C304.986747,72.5061874 304.962248,72.5307637 304.937748,72.5307637 L298.696846,73.5577945 C298.672346,73.3870539 298.599493,73.2893954 298.453141,73.313325 C295.210838,73.9982278 296.088303,74.1204626 291.748684,74.5117433 C291.553334,74.5363196 291.285774,74.633978 290.944072,74.854518 C290.919572,74.6831307 290.82222,74.5854722 290.603014,74.6094017 L287.945473,74.8299417 L286.166042,75.2697283 C286.141543,75.0989876 286.04419,75.0013291 285.82434,75.0252587 C284.825022,75.2943046 283.947556,75.465692 283.240297,75.5148446 L283.191298,75.5148446 C282.752888,75.5633504 283.411148,75.3926098 283.069446,75.2457987 L282.533038,75.5633504 C281.752925,75.6370794 282.167481,75.5148446 279.486085,75.5387741 C274.780908,76.1260185 275.292817,76.1991007 274.780908,76.223677 L273.025332,76.1014422 C273.049832,76.2728296 272.952479,76.3950644 272.757128,76.3950644 C270.757847,76.1260185 269.73403,75.80782 269.709531,75.4411157 C269.977735,73.533865 270.441289,72.55534 271.09955,72.5061874 L271.440607,72.4822578 L271.147904,73.118008 L271.489606,73.0934317 C272.123367,72.7513037 272.416071,72.4331052 272.391571,72.139483 L272.342572,71.4791565 L271.708811,71.5283091 L271.659813,70.9171352 C271.611458,70.4521256 271.684312,70.0362686 271.855163,69.6941406 L273.293536,67.371033 L273.342535,67.9822069 L274.02465,67.9330543 L273.976296,67.3218803 L273.58624,66.7592123 C274.098149,66.3194258 274.488205,66.0743095 274.804763,66.0503799 L274.780908,65.7321814 L273.854444,65.8059103 L273.780946,64.8765379 C275.633875,61.0122372 276.51134,58.7622118 276.462986,58.1264615 L277.121247,58.3955074 C277.535803,58.3709311 277.730508,58.1264615 277.706009,57.6860283 L277.072248,57.7351809 L277.047749,57.466135 C276.999394,57.0011254 277.096747,56.5613389 277.291453,56.1700583 C278.291416,55.1184511 278.754326,54.0668439 278.656973,52.9660841 C278.852324,52.9415078 278.949676,53.039813 278.974176,53.2597063 C279.827142,52.7707671 280.485403,51.4746904 280.972812,49.3223234 C282.484683,46.5833588 284.629671,41.1054296 287.433564,32.9124654 C292.797001,18.4344343 292.577796,16.893888 293.333409,13.4700206 L292.699648,13.5185264 C292.748002,13.9589597 292.650649,14.3748167 292.455943,14.7660973 C292.016888,14.5947099 291.675831,14.4970515 291.432126,14.5216278 L291.407627,14.2525819 C291.309629,13.005011 291.822182,11.5136173 292.992352,9.75253096 L293.28441,9.72795466 L293.820818,11.831169 L294.454579,11.7826632 C294.430725,11.6358521 294.600931,10.8041381 294.942634,9.26359183 C294.918134,8.94539334 294.674429,8.75007639 294.186375,8.72550008 L293.577114,9.11678074 C293.52876,8.67634747 293.552614,7.52708181 293.626113,5.69291331 L293.30891,5.71748961 C292.772502,5.17939787 292.504297,4.7389646 292.479798,4.37226025 L288.99379,4.71438829 C288.96929,4.46991872 288.847438,4.10321437 288.603734,3.63885154 C288.579234,3.32065306 289.359347,3.00245458 290.968571,2.68490284 L291.675831,2.95394871 L292.334091,2.56266805 C292.357946,2.78256131 292.479798,2.88021979 292.723503,2.85629023 L293.381763,2.46500957 C293.406263,2.68490284 293.528115,2.78256131 293.772464,2.75798501 L294.089022,2.73405545 L294.040024,2.02457631 C293.552614,2.07372892 292.260593,2.07372892 290.212958,2 L289.554697,2.44043327 L289.530198,2.04915261 C273.171684,3.39373523 263.883184,4.15236698 261.664698,4.37226025 C261.371994,4.39683655 260.226325,4.37226025 258.202544,4.32310763 C258.227044,4.59215351 257.983339,4.7389646 257.49593,4.78811721 L256.788671,4.46991872 L254.399333,5.08173939 C253.838426,5.13024525 252.888107,5.10566895 251.571586,4.9595046 C251.206029,5.25248004 250.766973,5.42386743 250.230565,5.47302004 C249.937862,5.4969496 253.716573,5.27705634 257.227081,5.03258678 C256.861524,5.32620895 256.301261,5.4969496 255.521148,5.57067852 C254.98474,5.61983113 254.521186,5.54610222 254.131129,5.32620895 C253.594721,5.57067852 251.864289,5.96195918 248.963043,6.54855679 L248.255784,6.28015766 L236.846151,8.04059725 C236.407095,7.82070398 235.895187,7.74697507 235.310424,7.79612768 C234.700518,7.84528029 233.676701,8.06517355 232.262827,8.45645421 L226.753038,10.7549855 L227.167594,11.4398884 C227.435798,11.4153121 227.825855,11.2691477 228.288765,11.0001018 L230.239691,11.1708425 L229.995342,13.005011 C228.191412,13.8121486 227.143095,15.0105669 226.850391,16.5271837 C224.144496,17.7249552 222.803476,18.5812454 222.803476,19.0947609 L222.827975,19.4129593 L223.242531,19.388383 L223.973645,18.9971024 L224.827256,20.0241333 L224.949108,21.4424448 C224.997462,21.8828781 220.438638,31.4941538 211.320989,50.2762721 C203.421863,68.3734875 199.277595,78.2783855 198.887538,80.0634014 C196.181643,80.8213864 194.620773,81.9221462 194.157863,83.3896103 C194.206861,83.8539732 195.010829,84.1721716 196.571055,84.2944064 L196.644553,85.0032388 L195.937294,86.1770808 L196.059146,87.5960391 C196.132644,88.3294478 198.107425,88.8921158 201.98349,89.2833965 C201.958991,89.0389269 202.081488,88.8921158 202.349047,88.8675395 C202.422545,89.7477593 202.178841,91.459693 201.617933,94.0033407 L202.032489,93.9787644 C203.641069,91.7778915 204.397327,90.2612747 204.323828,89.4302076 L204.665531,89.4056313 C205.055587,89.381055 205.470143,89.8214882 205.957552,90.7747902 C205.470143,90.9707539 203.763566,94.8589842 200.83782,102.465351 L201.252376,103.149607 L201.666932,103.125677 C205.250293,94.027917 207.493278,88.9897743 208.419743,88.0358256 C213.124919,87.6199686 221.267749,86.7889015 232.823734,85.5413306 L233.554848,85.101544 C233.579348,85.3460136 233.725699,85.4682484 233.993904,85.4436721 L234.749517,85.3705899 L235.481276,84.9301566 C235.50513,85.1746262 235.651482,85.296861 235.919686,85.2722847 L244.671778,84.5142997 C246.988262,84.3189827 248.084933,83.6095036 247.98758,82.4110853 C247.96308,82.0935336 249.3286,81.7261825 252.083494,81.3349018 C252.351698,81.3103255 252.741755,81.3840544 253.278163,81.5554418 C253.253664,81.3349018 254.643038,81.1150086 257.422432,80.870539 C257.49593,79.4030748 257.95884,78.6205135 258.787951,78.5474314 L258.714453,77.8379522 C257.93434,77.9110344 257.056875,78.1069981 256.033057,78.4491261 C254.204627,78.3514677 253.034458,78.2046566 252.546404,78.0332692 C252.058995,78.302315 251.693438,78.4491261 251.425234,78.4737024 L245.330039,78.6696661 L244.598925,79.0609468 C244.574425,78.8404068 244.428073,78.7427483 244.159869,78.7673246 L243.818812,78.7919009 L243.038699,79.1831816 C243.0142,78.9626416 242.380438,78.7919009 241.112272,78.6205135 L240.332804,79.0848764 L238.820932,79.2071111 L238.796433,78.8158305 C246.646559,77.960187 250.523269,76.8840035 250.425271,75.6125031 C250.937825,75.5633504 251.206029,75.80782 251.254383,76.3219822 L253.546367,75.7347378 L253.472869,75.0252587 L234.676663,75.5387741 C234.700518,75.7838905 234.578666,75.9300548 234.311106,75.9546311 L232.019122,75.7593141 C231.433715,75.80782 230.946306,75.9792074 230.556249,76.2728296 L229.703283,75.9546311 C227.338445,76.1505948 225.582869,76.444217 224.4127,76.8109213 C222.803476,76.6886865 221.024045,76.7126161 219.049263,76.8840035 L214.831496,77.2507079 L212.881215,77.0308146 C212.783862,75.7838905 215.197053,69.644988 220.170434,58.639977 C221.609452,54.9224874 222.925328,52.5993797 224.193495,51.7191599 C224.461699,51.6945836 224.851755,51.7922421 225.388163,52.0121354 L228.386762,50.9851045 L229.922488,51.2295741 C232.506531,51.0096808 235.50513,50.2762721 238.942784,49.0041249 C239.796395,48.9310427 240.430156,48.9801953 240.893066,49.1755123 L243.185051,48.6374206 L250.01136,48.0508229 C252.911961,47.8063534 256.056912,47.1699564 259.470067,46.1183492 L259.397213,45.4095168 C258.129691,45.5317516 257.47143,45.3118583 257.422432,44.7976962 C257.349578,43.8443942 256.423114,43.4531135 254.643038,43.5992779 L254.570184,42.8904455 L256.447613,42.3523537 L261.371994,41.9364968 L261.298496,41.2276644 C261.10379,41.2515939 260.104472,41.2276644 258.251543,41.1539355 L258.178045,40.3959505 L260.079973,40.2245631 C260.591882,40.1760572 260.811087,39.9309409 260.762733,39.4420018 C258.202544,39.5157307 256.910523,39.3934959 256.886023,39.0507211 C239.040137,39.9309409 230.09334,40.1023283 230.044341,39.5396602 C229.776137,39.5642365 229.41058,39.7356239 228.92317,40.0292461 L228.459616,39.2951907 C233.189291,29.2195521 235.968685,24.1329035 236.773297,24.0591746 C236.797152,24.4504553 236.602446,25.0862055 236.163391,25.9424957 L236.18789,26.2600475 L236.943504,26.1869653 C238.820932,21.6869144 240.405657,19.3638067 241.722178,19.2661483 C247.329319,18.7765624 240.942065,18.409858 252.936461,16.5271837 C253.424515,16.7470769 253.765572,16.8447354 254.009277,16.8201591 C258.714453,15.8668571 265.272558,14.8637558 273.683593,13.8367249 L273.634594,13.1272458 L269.148623,13.5431027 L269.100269,12.8342703 C269.636677,12.7851177 270.075087,12.6137303 270.441289,12.3207549 L270.465144,12.7120356 C270.709493,12.6874593 271.050551,12.5160719 271.489606,12.2224497 C272.269719,12.1493675 272.854481,12.2224497 273.269037,12.4429897 C274.829263,12.0271327 276.096785,11.7826632 277.023249,11.6843579 L279.827142,11.4153121 C280.509902,10.9755255 280.82646,10.5842449 280.802606,10.2175405 L280.778106,9.89934205 C280.070847,9.97242422 279.266235,9.92391836 278.315915,9.75253096 C278.291416,9.36125031 278.486122,9.09220443 278.949676,8.96996965 L284.166761,8.48103051 L286.556099,7.86920985 C286.579953,8.13825572 286.70245,8.23656095 286.897156,8.23656095 C287.140861,8.21198464 287.482563,8.04059725 287.920974,7.74697507 C288.042826,7.77155137 288.189178,7.77155137 288.31103,7.79612768 C287.994472,8.45645421 287.62827,9.41040292 287.262713,10.6573271 L286.579953,10.7064797 C286.531599,10.2414701 286.409747,9.82625988 286.189897,9.45890878 L285.848839,9.48348509 C279.509939,27.1894199 276.682192,35.4315367 270.831346,49.0287012 C269.758529,52.5017213 268.856564,54.4335482 268.076451,54.8494052 C268.100951,55.2406859 268.344655,55.4360028 268.759211,55.3874969 C268.904918,57.0994307 268.514862,58.7867881 267.564543,60.4495692 C264.858003,68.2758291 263.054072,72.55534 262.127608,73.3379013 L262.736869,77.0308146 C262.761369,77.4220952 262.566663,77.6419885 262.152107,77.6911411 L261.518346,77.7402937 C261.420349,76.7126161 261.054792,76.223677 260.396531,76.2974059 L260.055473,76.3219822 C259.226362,77.618059 258.592601,79.1094527 258.178045,80.8459627 L258.811806,80.7968101 C259.665417,80.2347888 260.055473,79.5744622 259.981975,78.8158305 L261.250142,78.6935957 L261.981256,78.9626416 C261.396494,79.892014 261.12829,80.6260694 261.176644,81.1880907 L261.518346,81.7753351 L260.689235,83.7317384 L260.713734,84.0499369 C261.444848,83.9762079 262.24946,84.2206775 263.103071,84.7341929 C263.687833,84.6856871 264.321594,84.4166412 265.028854,83.9516316 C265.759968,83.8785495 268.490362,83.8539732 273.196183,83.8539732 L275.560376,83.0468355 C278.437768,83.0222592 278.900678,83.0959881 281.387368,82.8760949 L282.411185,82.7777897 L282.947593,82.4110853 L282.972093,82.7292838 C285.580635,82.5087438 285.751486,82.6801312 287.799121,82.9246007 L287.823621,83.2427992 L286.385247,83.365034 L286.433602,83.9762079 C286.872657,83.9277021 287.262713,83.8048205 287.579916,83.5364214 C287.945473,83.5118451 288.164678,83.7071621 288.189178,84.1475953 C287.604415,84.1967479 286.946155,84.3429123 286.214396,84.5880286 L285.580635,84.3674886 C284.581317,84.6365345 284.800522,84.7102634 284.117763,84.7587692 L283.118445,84.5634523 C283.142944,84.7341929 283.044946,84.8564277 282.87474,84.8564277 C282.898595,85.2483551 283.118445,85.4436721 283.484002,85.4190958 L284.507819,85.3214373 L289.846756,84.8564277 L291.870536,84.4166412 C291.895036,84.5880286 291.967889,84.6856871 292.138741,84.6611108 L293.113559,84.2944064 L294.942634,84.1475953 C296.356507,84.0253605 296.332008,83.9277021 299.40346,83.4381162 C299.379606,83.2427992 299.452459,83.1690703 299.598811,83.1451408 L299.62331,83.4135399 C304.62119,82.5578964 304.937748,82.5087438 305.74236,82.2396979 L305.815214,82.386509 C307.058881,82.0935336 306.351622,82.1666157 306.693324,81.9221462 C306.717824,82.1420394 306.790677,82.2396979 306.91253,82.2396979 L307.789995,82.1666157 L307.741641,81.5062892 L305.961566,81.4817129 L305.937711,81.433207 C305.864213,81.4571366 305.815214,81.4571366 305.74236,81.4817129 L305.498656,81.4817129 L305.498656,81.5308655 C304.303987,81.7753351 304.279488,81.6039477 303.499375,81.6776766 L299.037903,81.9221462 L299.013404,81.6039477 L301.500094,81.2618196 L302.402059,81.1880907 L302.914613,80.8213864 L302.938467,81.1395849 C306.44962,80.8459627 307.692642,81.7261825 323.929304,78.2538092 C324.80677,78.1800803 324.733916,77.4466716 325.294824,75.9300548 C325.00212,75.9546311 324.709417,75.8815489 324.441213,75.7347378 C323.100837,76.2482533 322.393578,76.0037837 319.809535,76.4196407 C319.589685,76.444217 319.419478,76.2482533 319.34598,75.8569726 L319.321481,75.5879267 L321.808171,75.6610089 C322.271726,75.6125031 323.173691,75.5387741 324.514711,74.7807891 C324.514711,75.0013291 324.026657,75.1235639 324.31936,75.0989876 Z M204.275474,77.0308146 L203.12916,77.1284731 C203.080806,76.6641102 203.690067,74.9030239 204.957589,71.8950134 L205.713848,71.8219313 C205.738347,72.5307637 205.274792,74.2672737 204.275474,77.0308146 Z M205.664849,71.4552269 L205.640349,71.1370284 C205.61585,70.7457478 205.860199,70.4767019 206.396607,70.3544671 L206.420462,70.6720189 C206.444962,71.1370284 206.201257,71.4060743 205.664849,71.4552269 Z M220.902192,83.2673755 L220.926692,83.5849273 L219.024764,83.7563147 L219.000265,83.4381162 L220.902192,83.2673755 Z M218.610208,83.0714118 C218.634708,83.4626925 218.049945,83.9031258 216.781778,84.3429123 L214.44144,84.1721716 L213.685827,84.2452538 L213.612973,83.5364214 L218.610208,83.0714118 Z M234.018403,11.9294743 L232.872088,12.0271327 L232.848234,11.6358521 C232.823734,11.2445714 233.04294,10.9755255 233.530349,10.8532908 L233.944905,10.8287145 L234.725018,11.1462662 C234.749517,11.6112758 234.530312,11.8803216 234.018403,11.9294743 Z M251.449733,8.50560682 L251.81529,8.48103051 L251.863644,9.18986291 L250.815328,9.28816813 C250.791473,8.89688748 250.986179,8.6278416 251.449733,8.50560682 Z M247.061115,10.0461531 L245.330039,9.85018944 L245.305539,9.5326377 C247.573024,9.336674 248.328637,9.09220443 249.718657,8.70092378 C249.743156,8.96996965 249.986861,9.06762813 250.425271,9.01912226 L250.47427,9.72795466 L249.79151,9.80168357 C249.255102,9.85018944 248.792192,9.77710727 248.402136,9.55721401 C247.98758,9.82625988 247.548525,9.99700053 247.061115,10.0461531 Z M249.231247,16.3803726 L249.206748,16.0621741 L252.009996,15.7931282 L252.034496,16.1113267 L249.231247,16.3803726 Z M252.229846,13.9343834 L252.205347,13.5431027 L253.570222,13.420868 L253.594721,13.8121486 L252.229846,13.9343834 Z M252.546404,9.14135704 L252.180847,9.16593335 L252.49805,8.4073016 L255.618501,8.11432616 L255.643001,8.50560682 C254.838389,8.57868899 253.790072,8.79858225 252.546404,9.14135704 Z M254.131129,15.8907867 L254.08213,15.1819543 L255.44765,15.0597195 C255.911205,15.0105669 256.154909,15.2304602 256.179409,15.720046 L254.131129,15.8907867 Z M262.395812,4.59215351 L260.640236,5.08173939 L260.323678,5.10566895 C259.494566,5.17939787 258.42175,5.15482156 257.154228,5.03258678 C259.421712,4.88577569 261.5912,4.71438829 262.395812,4.59215351 Z M260.518383,12.4184134 L260.542883,12.7359651 L258.129691,12.9565051 L258.105191,12.6383066 L260.518383,12.4184134 Z M264.467946,14.3010878 C264.443447,14.0081123 263.980537,13.8121486 263.029573,13.7144901 L260.616381,14.399393 L258.763452,14.4724751 C258.348896,14.178853 258.129691,13.983536 258.105191,13.8367249 L260.250824,13.9589597 L265.077853,13.1763984 L267.540043,13.2740569 L267.564543,13.6653375 C266.345375,13.7875723 265.321557,14.0081123 264.467946,14.3010878 Z M289.310993,7.86920985 C289.603052,7.89378616 289.798402,7.89378616 289.871256,7.89378616 C290.724867,7.06271898 291.675831,6.40239245 292.772502,5.93738287 C291.895036,9.80168357 290.529516,12.662883 288.652732,14.5216278 L287.287213,13.6899138 C288.432882,10.7795618 289.115642,8.84773487 289.310993,7.86920985 Z M285.117725,15.0842958 L285.458783,15.0597195 C284.995228,15.9399393 284.581317,16.4043021 284.239615,16.4288784 L284.166761,15.499506 C284.385967,15.499506 284.70317,15.3526949 285.117725,15.0842958 Z M282.411185,21.5646796 C283.069446,18.9233735 283.703207,17.4319798 284.288614,17.0406991 L284.313113,17.3582508 C283.971411,19.80424 283.435003,21.1003168 282.728388,21.1979752 L282.85024,22.7385216 C282.264833,23.5702355 281.996629,24.2059857 282.021129,24.6949248 L281.680071,24.7195011 L281.484721,22.5917105 C281.874777,22.5432046 282.19198,22.2004298 282.411185,21.5646796 Z M281.362868,25.0862055 C281.387368,25.4535566 281.143663,26.3092001 280.656254,27.6298531 L280.314551,27.6544294 L280.241698,26.725057 C280.704608,25.6488735 281.094664,25.1107818 281.362868,25.0862055 Z M261.689197,82.3619327 L261.664698,82.0935336 L262.298459,82.044381 L262.371312,82.9737534 C262.030255,82.9983297 261.78655,82.802366 261.689197,82.3619327 Z M289.798402,83.0959881 C289.773903,82.8760949 289.67655,82.7777897 289.457345,82.802366 L287.87262,82.9491771 L287.84812,82.6309786 L287.994472,82.6309786 L291.748684,82.3134268 L291.773184,82.6309786 C290.675868,82.6801312 290.017607,82.8515186 289.798402,83.0959881 Z M287.920974,82.3134268 C288.067325,82.386509 287.994472,82.4602379 287.920974,82.5087438 C287.84812,82.4848142 287.750767,82.4110853 287.920974,82.3134268 Z M288.116324,77.9110344 L286.01969,78.0824218 L285.995191,77.7642233 L287.896474,77.5934826 L289.554697,77.1776257 C289.579197,77.3729426 289.67655,77.4466716 289.895755,77.4220952 C291.870536,77.0799672 291.675831,76.9823087 292.62615,76.9085798 C292.943353,76.8840035 293.138703,77.0799672 293.162558,77.4712479 L288.116324,77.9110344 Z M295.454542,77.2752842 C294.284373,77.1530494 294.210875,77.0553909 293.382408,77.1284731 L293.357909,76.8594272 L295.234692,76.6886865 L295.259192,76.9577324 C295.064486,76.9823087 295.7711,77.0308146 295.454542,77.2752842 Z M295.600894,76.9331561 L295.576395,76.6641102 L296.600212,76.5664518 L296.624711,76.8354976 L295.600894,76.9331561 Z M297.867734,76.7371924 L297.843879,76.4681465 C298.014086,76.444217 298.257791,76.3219822 298.574993,76.0768659 C299.086902,76.02836 299.355106,76.3704881 299.404105,76.7617687 L297.867734,76.7371924 Z M300.76898,76.3704881 L300.744481,76.0529363 L301.988148,75.9546311 L302.012648,76.2728296 L300.76898,76.3704881 Z M302.500057,76.223677 C302.475557,75.8569726 302.621909,75.6370794 302.939112,75.5879267 L303.353023,76.1260185 C303.329168,75.9546311 303.402022,75.8569726 303.548374,75.8323963 L303.865577,76.4196407 L302.500057,76.223677 Z M284.093908,84.1967479 L284.044909,83.5849273 L283.849558,83.6095036 L283.898557,84.2206775 L284.093908,84.1967479 Z M326.928548,73.0688554 C327.123253,72.9466206 327.220606,72.8243858 326.757696,72.7513037 C326.537847,72.9957732 327.001401,73.0688554 326.513992,73.0934317 L326.537847,73.313325 C326.586845,73.2648191 326.708698,73.1910902 326.806051,73.118008 L326.537847,73.3379013 L326.537847,73.3624776 L326.025938,74.0228041 L327.049755,73.6560998 L327.172252,73.6560998 L327.123253,73.0442791 L326.928548,73.0688554 Z M328.707978,74.4632374 L328.512628,74.4878137 L328.561627,75.0989876 L330,74.9767528 C329.975501,74.5854722 329.024537,74.4632374 328.707978,74.4632374 Z" id="Shape" fill="#000000"></path><path d="M232.993904,28.0753385 L233.018403,28.4666212 L233.823015,28.3935386 C233.798516,28.1490678 233.895869,27.7577852 234.06672,27.2681968 L233.993866,26.5593608 C233.652164,26.5839372 233.311106,27.0974553 232.993904,28.0753385 Z M225.290129,9.48908931 L225.217275,8.77960655 L224.07096,8.87726553 L224.144459,9.58674828 L225.290129,9.48908931 Z M202.934417,51.4798617 C202.885418,50.8195318 200.837783,48.2519415 196.790867,43.7272912 C196.717369,42.8962198 198.107388,41.6486426 200.959635,40.0104295 L209.102466,32.8936125 C210.930895,30.5698463 212.003067,26.8038316 212.32027,21.5703453 L212.222917,20.3719209 C211.905714,16.7520714 209.297171,13.8423513 204.348291,11.6168908 C201.422545,9.63590114 196.156462,8.53513574 188.550684,8.33917104 C182.260783,8.87726553 174.044454,11.1273024 163.927487,15.1138582 C161.148094,17.1194243 157.978644,19.1243437 154.419137,21.1299098 L154.468136,21.7417336 C154.687342,21.7171572 155.028399,21.5949218 155.4191,21.3258745 C155.833011,21.2767216 156.077361,21.4726863 156.101215,21.863969 L156.711122,21.5457689 L157.00318,21.5211925 L157.02768,21.7902397 C157.052179,22.1084398 154.858193,23.8443119 150.421221,26.9506434 L150.762278,27.5863969 L150.469575,27.6109733 L149.738461,27.3419261 C149.76296,27.5618205 149.445757,27.7086323 148.836496,27.7577852 L148.860995,28.0268324 L149.56761,28.9070567 C149.348404,28.9316331 149.007347,28.8339741 148.543792,28.6625859 C147.519975,28.7602448 146.520012,29.2983393 145.520694,30.3253754 L145.93525,28.515774 C147.422622,22.0838634 148.446439,16.3853652 148.982847,11.4455026 L148.909349,11.1273024 C147.885532,10.4669726 146.886214,9.53759542 145.959749,8.36374747 C145.984248,7.60575861 145.984248,7.16532309 145.959749,7.06766412 L145.886251,6.79861688 L145.594192,6.87234617 C142.375743,11.7145498 136.183195,19.9806383 126.992693,31.6706117 C119.995532,39.985853 116.387027,44.6075155 116.167822,45.5368927 C113.315574,48.4964123 111.950055,50.2814373 112.096406,50.8932611 C111.340793,51.3822027 111.02359,51.8711443 111.146087,52.4092388 C110.926237,52.4583917 110.779885,52.3846624 110.731531,52.164768 C109.512363,54.1457577 107.708433,55.4172646 105.294596,55.9799355 L102.758908,56.5665361 C102.41785,56.6402654 102.246999,56.8847362 102.271498,57.3005953 L102.344996,57.6181487 L103.295316,57.3982543 L103.368814,57.6673015 L101.223181,58.4990197 L97.4199703,59.379244 L95.4213342,59.5014794 C95.1286307,59.795103 97.0054145,59.4769029 96.2743005,59.6482912 L93.7876104,60.2355386 C92.2763836,60.5776683 91.447272,60.4554329 91.3009202,59.8442559 L91.0082168,59.9173385 C91.0572156,60.1863857 91.081715,60.3817036 91.0327162,60.5530919 L90.8863644,59.9419149 L88.8870836,60.4062801 C88.7413766,59.4769029 86.0348365,56.1021709 80.7932522,50.2814373 C80.6958993,49.1567422 82.5488283,47.5178823 86.32754,45.3907276 L97.0054145,35.9747208 C99.3947517,32.8936125 100.808626,27.9531031 101.27218,21.1544862 L101.125828,19.5647792 C100.711273,14.7717284 97.2497639,10.9074081 90.7400127,7.92395871 C86.8884475,5.30721557 79.9647853,3.91282649 69.9690259,3.69293211 C61.6798439,4.40176812 50.8556177,7.36128779 37.5440566,12.5216915 C33.8871973,15.1869408 29.7184292,17.8282603 25.0377525,20.4450035 L25.110606,21.2767216 C25.4278088,21.2521452 25.8423647,21.0814037 26.3542734,20.78778 C26.8906815,20.7386272 27.183385,20.983098 27.2317391,21.4726863 L28.0608507,21.0076744 L28.4754065,20.983098 L28.4992612,21.3743806 C28.5237606,21.7656633 25.6225147,24.0402766 19.7471693,28.1975739 L20.2107239,28.9316331 L19.7961681,28.9562095 L18.894203,28.6380094 C18.9187024,28.8824803 18.5041466,29.0538685 17.6505356,29.1269511 L17.6995344,29.5673866 L18.674353,30.6435755 C18.3577949,30.668152 17.9187396,30.5698463 17.3584768,30.3745283 C15.4565489,30.5452698 13.6036198,31.9150825 11.7751902,34.5072492 L12.2387448,35.2413084 C13.8234698,33.7738367 14.7492896,33.0404243 15.0174937,33.0158479 L15.1154913,34.2142723 C14.8472873,34.2382019 14.4327315,34.4095902 13.8718239,34.7032139 L14.8717867,36.2191916 C16.7975693,34.140543 18.9187024,32.355518 21.2345414,30.8634699 C22.3802112,31.1570936 22.9901175,31.5237998 23.0139722,31.9150825 L23.8920827,31.8419999 C30.1819839,27.1705378 36.3983868,23.7958058 42.5664357,21.7171572 L42.6399339,22.5482286 C41.4936194,24.260171 40.7135066,25.141042 40.2989508,25.1895481 C40.3479496,25.7767955 40.5433002,26.2903135 40.9088572,26.7307491 C41.0062101,27.7823616 38.2023171,34.8746021 32.5223223,47.9828943 C19.625317,78.4550816 8.80109074,101.00331 0,115.579074 C0.0244994101,115.872698 0.19535056,116.26398 0.511908728,116.752922 C2.68204069,116.239404 4.04691572,115.701956 4.63232268,115.187791 L5.09523259,115.139285 L5.16873082,115.970357 L5.97269831,115.897274 L6.80180992,115.432909 C6.82630933,115.67738 7.0945134,115.799615 7.65542095,115.750462 L7.72827446,116.58218 C7.80112797,117.389322 7.33821806,118.611676 6.3627547,120.299042 C5.48528899,121.302149 4.53432504,123.405374 3.535007,126.609364 L3.55950641,127 L4.36411861,126.926917 C7.8746262,122.989515 10.5321675,119.125194 12.3605971,115.359179 C22.6000611,112.351154 30.4011891,109.391634 35.8136246,106.481914 C41.2499148,106.016902 45.3941834,104.574007 48.2225758,102.201735 L48.173577,101.761946 L46.1259421,102.373123 L45.6623875,102.422276 L45.6140334,101.98184 C49.6119503,101.370663 52.3668445,100.489792 53.9032154,99.267438 C61.6798439,93.2507397 67.5551893,88.9957834 71.5292515,86.4766992 C79.6965812,80.4606477 85.0110191,74.5907612 87.4248557,68.8929097 C87.8632662,68.794604 88.3023214,68.696945 88.7897307,68.5747096 C89.9354005,68.5262035 90.5698063,68.5016271 90.7400127,68.4524742 C90.6916586,68.2325798 90.7890115,68.1103444 91.0082168,68.0611915 C92.8366464,67.8658736 91.9591807,68.183427 93.1293499,67.9143797 L96.201447,67.2055437 L96.7133557,67.0826615 L96.4696511,67.2294734 C96.8107086,67.2786262 97.1762656,67.2540498 97.5908214,67.1563908 L97.8100267,68.0611915 L83.8408499,90.3403729 L80.7448981,94.2292697 L79.2330266,99.3159441 L79.5257301,99.2428616 L81.0369568,98.6071081 L80.5495475,100.588098 L80.6958993,101.174698 L81.1104551,101.688216 C80.9151045,101.737369 80.842251,101.859605 80.8906051,102.079499 L80.9641033,102.397699 L81.5978644,102.250887 C82.5243289,101.443746 82.9143853,100.710333 82.7680336,100.050003 C83.7673516,100.220745 84.4256121,100.294474 84.7673144,100.196815 L84.8401679,100.514369 C84.2309063,100.66118 83.9137034,101.150122 83.8653493,101.98184 L83.9382028,102.299393 L84.2799051,102.226311 C89.3506383,96.6746246 101.784089,77.6725163 111.755349,64.7841185 C111.438146,63.3903762 116.631376,61.4578926 127.358249,58.9633849 L127.699307,58.8903023 C128.089363,60.5776683 127.260897,64.6618831 125.212617,71.1429466 C123.896096,75.0557731 123.262335,77.2075043 123.359688,77.5502809 C121.653111,82.7591907 120.848498,85.5718985 120.946496,86.0116873 L117.143285,98.5088024 C114.680449,104.916783 112.803666,111.641671 111.487145,118.733912 C111.70635,118.685405 112.048052,118.709982 112.535462,118.832217 L113.07187,118.367205 C113.120224,118.587746 113.266576,118.660829 113.486426,118.611676 L113.266576,117.706875 L114.924799,117.658369 C115.412208,117.536134 115.826764,116.92431 116.167822,115.799615 C116.094968,114.112249 116.436026,113.207448 117.191639,113.011484 C118.215456,109.000998 118.849862,106.995432 119.069067,106.921703 C120.020031,102.935794 120.726646,100.66118 121.190201,100.098509 C122.628574,94.914176 123.676891,92.24828 124.359651,92.0768917 L124.506002,92.7126452 L123.457686,95.4276941 C121.628611,103.571547 119.776327,110.003458 117.898898,114.723426 L118.435306,117.071122 L118.776364,116.998039 C123.311334,107.215326 129.84494,87.8458651 138.353327,58.8903023 C138.597032,56.3466417 139.8162,54.3656521 141.985687,52.9719097 L141.498277,52.4583917 L141.424779,52.1893444 C142.400243,51.9688033 143.083002,51.5781674 143.473059,51.0400729 C143.42406,50.8195318 142.571094,50.5019784 140.912871,50.0615429 L145.155137,31.8174235 C146.081601,30.9857053 146.618009,30.5459166 146.788216,30.5459166 L146.861714,31.474647 C146.642509,31.4992234 146.300807,31.6214588 145.91075,31.890506 L146.715362,33.0404243 C148.178235,31.4507173 149.76296,30.0809046 151.493392,28.9316331 C152.371503,29.1761039 152.809913,29.4697276 152.858912,29.7627045 L153.492673,29.7141984 C158.319701,26.1680781 163.049377,23.6244175 167.706199,22.0838634 L167.754553,22.6950404 C166.901587,23.9911238 166.31618,24.6514537 165.999622,24.6760301 C166.047976,25.1164656 166.169828,25.5077482 166.389678,25.849878 C166.462532,26.6570198 164.365898,32.0373179 160.075278,42.0153488 C150.274869,65.1262483 142.05854,82.2210962 135.378583,93.324469 C135.403082,93.5443634 135.549434,93.837987 135.817638,94.2292697 C137.451362,93.837987 138.499679,93.422128 138.914234,93.0308453 L139.206293,93.0062689 L139.255292,93.6174459 L139.938052,93.5689398 L140.547314,93.2507397 C140.571813,93.422128 140.791018,93.4952105 141.205574,93.4712808 L141.254573,94.1316107 C141.302927,94.7182113 140.961869,95.6475884 140.206256,96.9190954 C139.498997,97.677731 138.767883,99.267438 137.98777,101.688216 L138.011625,102.006417 L138.64603,101.957264 C141.302927,98.9738143 143.326707,96.0388711 144.716082,93.1530807 C152.493355,90.8545377 158.417699,88.6284304 162.512969,86.4275464 C166.682382,86.0608402 169.826688,84.9846512 171.97232,83.1750498 L171.947821,82.8568497 L170.363096,83.3218616 L170.022038,83.346438 L169.997539,83.0282379 C173.020637,82.5878024 175.14177,81.9035429 176.28744,80.9987422 C182.187285,76.4495154 186.648756,73.1970188 189.671854,71.2891117 C199.082207,64.4174123 203.470825,57.8141134 202.934417,51.4798617 Z M201.325192,51.8957208 L201.544398,54.3656521 C201.252339,54.9774758 200.935136,55.2950292 200.642432,55.3196056 L200.276875,51.1131555 C200.959635,51.3576263 201.300693,51.6020971 201.325192,51.8957208 Z M16.724071,31.9888118 L16.3101599,32.0127414 L16.2366617,31.2547526 L17.9187396,31.1079407 L17.943239,31.4992234 C17.675035,31.5237998 17.2604792,31.6706117 16.724071,31.9888118 Z M8.50838726,114.429802 C7.53356862,113.989367 6.65545818,113.818625 5.8998448,113.891708 L5.80249188,112.693283 C5.75349306,112.228918 6.02169713,111.910718 6.60710408,111.788483 C7.1428675,111.739977 7.46007039,112.131259 7.50906921,112.913825 C8.92294306,111.177306 9.70305586,110.297081 9.8494076,110.272505 L10.7513727,110.639211 C10.4586692,113.084566 9.70305586,114.332143 8.50838726,114.429802 Z M96.2987999,22.3037578 C95.8842441,22.3529106 95.0551325,21.0568273 93.8611086,18.4885902 L93.7876104,17.7306014 C94.5677232,17.6575188 95.3723354,18.9290258 96.2253017,21.5457689 L96.2987999,22.3037578 Z M95.1286307,13.1820214 L94.7869284,13.9891631 L82.8653865,8.99950093 C90.8135109,9.26854818 94.9094255,10.6629373 95.1286307,13.1820214 Z M44.7849218,56.5426064 L43.1028438,56.6894183 L43.0299903,55.9307827 L44.7120682,55.7839708 L44.7849218,56.5426064 Z M43.419402,30.4967637 L43.8339578,30.4721873 L43.9319554,31.6706117 C43.541899,31.6951881 43.0299903,32.2817887 42.3955845,33.4071305 L42.322731,32.5754124 C43.0783444,31.6706117 43.4684008,30.9857053 43.419402,30.4967637 Z M39.884395,38.8605112 L40.0307467,40.4502182 L39.6168357,40.4747946 L39.4704839,38.8850876 L39.884395,38.8605112 Z M38.0321106,41.8446073 L38.8367229,41.770878 C38.7632246,43.0915378 38.3976676,43.8010205 37.7394072,43.8495267 L37.3248514,43.8741031 C37.8367601,42.9938788 38.0804647,42.3089725 38.0321106,41.8446073 Z M36.6420915,46.0019046 L37.1056461,45.9527517 L37.1295008,46.3440344 L36.3738874,47.6161881 L35.5692752,47.6892706 L35.5454205,47.297988 C36.3500327,47.2249054 36.7155897,46.8090463 36.6420915,46.0019046 Z M35.2772164,49.7439896 L35.0335118,51.7489089 L34.618956,51.7734854 L34.4481048,49.7924957 L35.2772164,49.7439896 Z M21.6000984,88.7513126 C21.0636902,91.4902911 20.478928,92.8840335 19.8690216,92.9331863 L19.8451669,92.5419037 C19.6988152,91.1966675 20.2835774,89.9251605 21.6000984,88.7513126 Z M19.0889088,94.2046933 L19.1134082,94.5959759 C19.1624071,95.1340704 18.9187024,95.4522705 18.3822943,95.4762002 L18.3577949,95.0849175 C18.308796,94.6205523 18.5525007,94.3269287 19.0889088,94.2046933 Z M18.3577949,105.52796 L19.625317,105.405725 L19.6743158,105.846161 C19.3571129,105.87009 18.9425571,106.041478 18.4306484,106.335102 L17.6260362,106.408185 C17.5776821,105.992326 17.8458861,105.674772 18.3577949,105.52796 Z M54.4389788,94.3515051 C47.3206107,97.8730489 43.1273432,100.269898 41.8836758,101.516828 C34.1799008,104.207301 30.3521903,105.87009 30.4256885,106.53042 C23.5748798,109.245469 19.0644094,111.250388 16.8949222,112.497966 C16.3830135,112.546472 15.6518995,112.351154 14.6764361,111.910718 C14.5545838,110.516976 15.1883448,109.391634 16.5293652,108.486833 C17.7240338,108.389174 18.8697036,108.560563 19.9670193,109.024928 C21.2345414,108.364598 23.4530274,107.631185 26.597978,106.84862 L26.5251245,106.016902 L23.9894356,106.236796 C24.3059938,105.797008 26.7443298,104.647736 31.3276536,102.788982 L32.5951758,102.666746 L32.6196752,103.058029 C30.4501879,103.253347 29.2555193,103.889101 28.9873153,105.039019 C29.0356694,105.552537 29.3283728,105.772431 29.864781,105.723278 C31.4985048,104.696242 32.3024723,104.085065 32.2786176,103.913677 C35.3745694,103.327076 43.9319554,98.8270025 57.9501311,90.4386786 L58.0229846,91.1966675 C58.047484,91.5633737 56.8528154,92.5904098 54.4389788,94.3515051 Z M32.9368781,101.443746 C34.984513,101.272357 36.7400891,100.441286 38.2023171,98.9983908 C38.787724,98.9492379 39.1049269,99.1691323 39.1287816,99.6826503 C38.1294636,99.7809561 36.203681,100.612027 33.399788,102.226311 L32.9852322,102.250887 L32.9368781,101.443746 Z M67.6286876,74.7129966 L56.8773148,83.2727088 C48.8808363,88.5307715 44.5902159,91.172091 43.9558101,91.2212439 C31.2303007,98.2397552 23.3066757,101.884181 20.2352233,102.153228 L19.7716687,102.201735 C20.1617251,100.758839 25.8178652,89.1425952 36.7884432,67.2786262 C41.6154717,66.8627672 49.2218939,64.6127302 59.5832102,60.5045858 L62.1188992,60.2840447 C67.3604835,59.8196795 71.2855469,60.8467156 73.8695899,63.2920705 L74.0159417,64.8817775 C72.0901591,70.4826167 69.9445265,73.7596898 67.6286876,74.7129966 Z M46.6133514,62.8522817 L48.3444282,62.7054699 L48.3689276,63.0967525 L46.6378508,63.2435643 L46.6133514,62.8522817 Z M70.9199899,58.7189141 L72.187512,58.5966787 C73.3576812,59.1593496 73.9669428,59.6482912 74.0159417,60.0887267 L74.0404411,60.4800094 C72.918626,60.5776683 71.8703091,59.990421 70.9199899,58.7189141 Z M74.3569992,39.0810523 C73.2358289,40.4256418 70.1637318,42.7248316 65.1419974,45.9527517 C63.4837742,46.0995636 57.3157253,48.4964123 46.6378508,53.1918041 C46.1014427,52.9473333 45.5405351,52.8496743 44.9312735,52.8981804 L44.85842,52.1401916 C44.7365677,50.5996374 45.4186828,48.6678006 46.9305543,46.3201047 C47.7590212,41.9176898 48.661631,39.3986057 49.6609491,38.7874286 L58.5593927,18.7091314 C58.4620398,17.4615541 60.363323,16.5076006 64.263887,15.8472707 L65.5320538,15.7250353 L65.6294067,16.8749535 C69.4571172,16.2877062 71.8458097,15.9455764 72.7722742,15.8718471 C79.842933,15.2606701 83.523647,16.7035653 83.8163504,20.1520266 L84.6209627,20.0782973 L84.4501115,18.0488015 L85.3282219,17.9750722 C87.4003563,19.1243437 88.5215266,20.5187328 88.6678784,22.1569459 C88.7652313,23.2822878 88.1559696,24.6760301 86.8639481,26.3394664 C86.32754,26.3879725 86.0103371,25.9966899 85.961983,25.2141246 L85.0838726,25.2878539 L84.8891667,27.7332087 C81.3051609,33.1135069 78.6966184,35.8770618 77.0880388,36.0238737 C75.6251661,38.0533695 74.723201,39.0564759 74.3569992,39.0810523 Z M79.8184335,53.143298 C79.0866748,52.6537096 78.5019126,52.4338153 78.0628574,52.4583917 L77.9655045,51.2599673 L78.7701167,51.186238 L80.5495475,52.2384973 C80.6230457,52.8005215 80.3786964,53.0941451 79.8184335,53.143298 Z M85.4745737,59.8681856 C86.2546865,60.1863857 86.7175964,60.5285155 86.8149493,60.8467156 L86.4248929,60.9443746 L86.4493923,60.968951 C86.3765388,60.968951 86.2785412,60.9935274 86.2056877,61.0181039 L85.6202807,61.4824691 L85.4745737,59.8681856 Z M86.0103371,63.2435643 L85.9374836,62.9253642 L86.961301,62.6808934 L87.0347993,62.9990935 L86.0103371,63.2435643 Z M88.4731725,66.0071193 C89.5214894,65.8357311 90.0333981,65.7626485 91.9836801,65.322213 L92.0565336,65.6397664 L88.3513202,66.4960609 C88.3996743,66.3246727 88.4486731,66.1539312 88.4731725,66.0071193 Z M92.081033,67.5476735 C90.5208074,67.6944853 90.861865,67.4985206 88.3751749,68.0611915 L88.3023214,67.7429914 L91.4227726,66.7405318 L92.9101447,66.398402 L93.0564964,66.9850026 C92.3737365,67.1318144 92.8611458,67.1318144 92.081033,67.5476735 Z M95.3723354,66.7651082 C95.0067784,66.8627672 94.7140749,66.6920256 94.5432238,66.2761666 L95.4941877,66.0556254 C95.9087435,65.9579665 96.1769476,66.1293547 96.2743005,66.5452138 L95.3723354,66.7651082 Z M104.295278,57.129207 L104.22178,56.8116537 L105.758151,56.4443007 L105.904503,57.0315481 L104.295278,57.129207 Z M113.827483,115.775039 C113.924836,115.334603 113.949335,115.01705 113.900337,114.796509 L114.242039,114.723426 C114.656595,114.625767 114.900299,114.772579 114.997652,115.163862 L115.071151,115.481415 L113.827483,115.775039 Z M120.507441,59.6482912 L119.824681,59.5260558 C118.72801,59.9664913 117.801545,60.2840447 117.045287,60.4554329 L116.411526,60.6022448 C116.045969,60.6999038 115.753266,60.5530919 115.606914,60.1618093 L120.068386,59.1347732 L121.531258,58.4498668 L122.019312,59.0125377 C121.312053,59.1593496 120.800144,59.379244 120.507441,59.6482912 Z M123.945095,58.5475258 L123.871597,58.2299724 C124.091447,58.1808196 124.383505,58.0100781 124.700708,57.691878 L127.870158,56.9578188 L127.943012,57.2760189 C126.260934,57.691878 124.919913,58.107737 123.945095,58.5475258 Z M124.432504,52.1156151 C124.213299,52.164768 123.920595,52.360086 123.555038,52.6537096 C123.50604,52.4338153 123.067629,52.4338153 122.238517,52.6291332 C122.092166,52.0179562 124.432504,51.1623083 129.284032,50.0369665 L129.966792,49.8901547 L130.113144,50.477402 C126.699989,51.4798617 124.798061,52.0425326 124.432504,52.1156151 Z M132.965391,42.8716434 C132.624333,46.7598935 131.258813,48.9607775 128.844977,49.5234484 L128.772123,49.2058951 L126.626491,50.0369665 L125.676172,50.2575076 C125.188118,50.379743 124.749707,50.3551666 124.359651,50.2329312 L124.1643,49.3766366 C124.091447,49.0590832 127.187398,44.7543274 133.4773,36.4882389 L134.208414,36.6104743 C134.476618,37.7358161 134.062706,39.8144648 132.965391,42.8716434 Z M148.056383,29.9095164 L147.763679,29.9340928 L147.71468,29.3229158 L148.982847,29.2006804 L149.006702,29.5182337 C148.787497,29.5673866 148.470939,29.689622 148.056383,29.9095164 Z M141.839335,92.5419037 C141.108221,92.1991271 140.449961,92.0523153 139.889053,92.1014682 L139.8162,91.172091 C139.7917,90.8545377 139.986406,90.6339965 140.400962,90.5117611 C140.815518,90.463255 141.059222,90.756232 141.108221,91.3919854 C142.156538,90.0473959 142.7413,89.3624896 142.863153,89.3624896 L143.521413,89.6315369 C143.277708,91.4902911 142.717445,92.4681744 141.839335,92.5419037 Z M208.492559,22.5973814 C208.176001,22.6219579 207.566095,21.6434279 206.615775,19.6624382 L206.566777,19.0512612 C207.176038,19.0021083 207.810444,19.9560619 208.444205,21.9124751 L208.492559,22.5973814 Z M207.615094,15.6027999 L207.32239,16.2385533 L198.302094,12.4479622 C204.323791,12.6439269 207.444242,13.6955395 207.615094,15.6027999 Z M169.363778,48.5455652 L168.096256,48.6678006 L168.047257,48.0559768 L169.314779,47.9337414 L169.363778,48.5455652 Z M168.315461,28.7602448 L168.656518,28.7356684 L168.730017,29.6650456 C168.412814,29.689622 168.022757,30.1300575 167.559847,30.9857053 L167.510849,30.3745283 C168.071756,29.6650456 168.33996,29.1269511 168.315461,28.7602448 Z M165.657919,35.119073 L165.755917,36.3174973 L165.414215,36.3420738 L165.316862,35.1436494 L165.657919,35.119073 Z M164.219546,37.3930396 L164.853307,37.3445335 C164.780454,38.3715696 164.51225,38.909664 164.04934,38.9581702 L163.707637,38.9827466 C164.073194,38.298487 164.244046,37.7603925 164.219546,37.3930396 Z M163.195729,40.5239475 L163.488432,40.4993711 L163.512932,40.8169244 L162.952024,41.7954544 L162.318263,41.8446073 L162.293764,41.5264072 C162.952024,41.4772543 163.244728,41.1351245 163.195729,40.5239475 Z M162.171911,43.360585 L161.952706,44.9257156 L161.660003,44.9502921 L161.53815,43.4097379 L162.171911,43.360585 Z M151.761596,73.0256306 C151.347685,75.0803495 150.90863,76.1319621 150.445075,76.1804682 L150.421221,75.911421 C150.347722,74.8843849 150.786778,73.9058549 151.761596,73.0256306 Z M149.835814,77.1589982 L149.860313,77.4280454 C149.909312,77.8678342 149.713961,78.112305 149.274906,78.1368815 L149.251051,77.8193281 C149.226552,77.501128 149.421258,77.2812336 149.835814,77.1589982 Z M149.299405,85.7672165 L150.274869,85.6941339 L150.298723,86.0116873 C150.079518,86.0362637 149.738461,86.1584991 149.348404,86.3790403 L148.714643,86.4275464 C148.690144,86.0854166 148.88485,85.8655222 149.299405,85.7672165 Z M176.677496,77.2812336 C171.31406,79.9471296 168.12011,81.756731 167.120792,82.6861082 C161.269946,84.7401804 158.3687,86.0116873 158.417699,86.5252054 C153.224469,88.6045008 149.811314,90.0959021 148.202734,91.0498556 C147.812678,91.0744321 147.251771,90.9276202 146.520012,90.5854904 C146.422659,89.5338779 146.910068,88.6775833 147.93453,88.0418298 C148.860995,87.9687473 149.738461,88.0909827 150.543073,88.4331125 C151.517892,87.9441709 153.199969,87.4060764 155.589307,86.7942526 L155.540953,86.1830756 L153.566171,86.3544638 C153.809876,86.0116873 155.68666,85.131463 159.173312,83.7131443 L160.148131,83.639415 L160.172631,83.9084622 C158.515052,84.0552741 157.588587,84.5448624 157.393237,85.4250867 C157.417736,85.8163693 157.661441,86.0116873 158.075997,85.9631812 C159.295165,85.1560395 159.879927,84.6910275 159.879927,84.5448624 C162.22091,84.1290033 168.705517,80.7051185 179.359537,74.2977843 L179.407891,74.9089613 C179.407891,75.1534321 178.505926,75.9359974 176.677496,77.2812336 Z M160.343482,82.6615317 C161.928207,82.5147199 163.269227,81.9035429 164.390397,80.8273539 C164.804953,80.8027775 165.048658,80.9741657 165.073157,81.3654484 C164.341399,81.4385309 162.903025,82.0503547 160.733538,83.2242026 L160.39248,83.2481323 L160.343482,82.6615317 Z M186.722254,62.3387636 L178.603924,68.8929097 C172.533228,72.8788187 169.241925,74.8843849 168.730017,74.9335377 C159.07596,80.264683 153.078117,83.0282379 150.713279,83.2242026 L150.372222,83.2481323 C150.664925,82.1480137 154.980045,73.3192543 163.317581,56.7379244 C166.949941,56.420371 172.704079,54.6838522 180.60256,51.553591 L182.577341,51.3822027 C186.551403,51.0400729 189.525503,51.8226382 191.475785,53.7053222 L191.573782,54.9037466 C190.08641,59.1101967 188.477186,61.580128 186.722254,62.3387636 Z M170.777651,53.338616 L172.045818,53.2163806 L172.069673,53.5345807 L170.802151,53.6568161 L170.777651,53.338616 Z M189.232799,50.1837783 L190.208263,50.1106958 C191.110228,50.5504846 191.573782,50.9417672 191.597637,51.2599673 L191.622136,51.5290145 C190.76917,51.6020971 189.964558,51.1623083 189.232799,50.1837783 Z M191.792988,35.2898145 C190.939377,36.3174973 188.623538,38.0779459 184.844826,40.5239475 C183.577304,40.6461829 178.895982,42.4557843 170.802151,45.9773282 C170.412095,45.8305163 169.973039,45.7820102 169.510129,45.8059399 L169.461131,45.1947629 C169.363778,44.0209149 169.875686,42.5534433 170.997501,40.7684183 C171.631263,37.3930396 172.337877,35.5103556 173.069636,35.0699201 L179.871446,19.80925 C179.797947,18.9044493 181.236321,18.1710369 184.162066,17.608366 L185.137529,17.5352834 L185.210383,18.4640138 C188.087129,17.9996486 189.89106,17.7306014 190.622818,17.6575188 C195.986255,17.1925069 198.789503,18.2686959 199.009353,20.9100154 L199.643114,20.8608626 L199.521262,19.3933909 L200.155023,19.3448848 C201.715249,20.2005327 202.54436,21.2275688 202.641713,22.4505696 C202.714567,23.3307939 202.276156,24.4069828 201.349692,25.6545601 C200.935136,25.7030662 200.691431,25.4100893 200.642432,24.7736891 L200.008671,24.8228419 L199.813966,26.6570198 C197.107425,30.7903874 195.132644,32.9175422 193.889621,33.0158479 C192.792306,34.5072492 192.109546,35.2658848 191.792988,35.2898145 Z M194.645235,45.4638101 L194.572381,44.534433 L195.206142,44.4859269 L196.571017,45.3169983 C196.595517,45.7082809 196.400811,45.9288221 195.986255,45.9773282 C195.400848,45.6106219 194.962438,45.4392337 194.645235,45.4638101 Z M81.1588092,104.867631 L80.5250481,105.014442 L79.98864,105.478808 C80.0866376,105.87009 80.3303423,106.016902 80.7448981,105.919243 C81.1588092,105.821584 81.3296603,105.577113 81.2323074,105.185831 L81.1588092,104.867631 Z M78.7456173,100.050003 L78.8184708,100.367557 C79.2330266,100.269898 79.4038777,100.025427 79.3065248,99.6341442 L79.2330266,99.3159441 C78.8429702,99.4136031 78.672119,99.6587207 78.7456173,100.050003 Z M96.0060964,67.5230971 L96.4696511,67.2294734 C96.3716534,67.2294734 96.2987999,67.204897 96.2253017,67.1809673 C96.0550953,67.2294734 95.981597,67.3517088 96.0060964,67.5230971 Z M95.9087435,59.0856203 L96.6398575,58.9148788 L96.4935058,58.2784786 L95.7623918,58.4498668 L95.9087435,59.0856203 Z M268.198267,83.7862268 L266.540043,83.5909089 L266.24734,84.2266623 L266.271839,84.5448624 L276.145746,83.7131443 L276.096747,83.1019672 L268.198267,83.7862268 Z M277.218562,83.0282379 L277.266917,83.639415 L277.36427,83.639415 L277.315915,83.0282379 L277.218562,83.0282379 Z M318.638684,77.598787 L318.687682,78.2106107 L319.760499,78.4059287 L319.7115,77.7947517 L318.638684,77.598787 Z M317.127457,77.7210224 C309.716385,79.3844587 308.789921,79.090835 307.229695,79.2130704 L307.278049,79.8242475 L307.960809,79.7757413 L308.326366,79.7511649 L308.229013,79.6780824 L309.033625,79.3598823 C316.371844,78.5527405 317.22481,78.8463642 317.151956,78.014646 L317.127457,77.7210224 Z M272.635239,66.91192 L271.976978,66.6920256 C271.44057,68.1342741 271.172366,68.9905687 271.196865,69.2350395 L271.22072,69.5040867 C271.733273,69.4795103 272.196183,68.599286 272.635239,66.91192 Z M263.712296,62.0942928 L263.687796,61.7760927 L263.346739,61.8006692 L262.736832,62.1919518 L263.078535,62.7785524 C263.541444,62.7300463 263.76065,62.5095052 263.712296,62.0942928 Z M283.093908,82.1965198 L283.044909,81.5853428 L282.850203,81.6099192 L282.898557,82.2210962 L283.093908,82.1965198 Z M323.320005,73.0993599 L323.782915,73.050207 C324.051119,73.0256306 324.172971,72.8057362 324.148472,72.4144535 L323.880268,71.8272062 C322.19819,71.974018 321.418077,72.0477473 320.053202,72.8057362 L320.028703,72.4875361 L318.004923,72.6835008 C317.956569,72.071677 317.785717,71.7541237 317.517513,71.7787001 L316.469196,71.8763591 C315.250028,71.974018 314.665266,71.9255119 314.05536,72.3898771 C314.031505,72.1699827 313.958007,72.071677 313.836155,72.071677 L312.665985,72.1699827 L311.983225,72.5612654 C311.958726,72.3407243 311.885873,72.2430653 311.76402,72.2430653 L311.349464,72.6097715 L311.324965,72.2922181 L309.691886,72.1699827 L309.30183,72.1945592 L309.350184,72.8057362 L310.179295,73.0256306 L310.959408,72.9771245 C311.227612,73.147866 311.520316,73.1970188 311.861373,73.1724424 L312.544133,72.8303126 L312.568632,73.0993599 C308.740922,74.0526667 308.765421,73.8819252 306.13238,74.3217139 C305.839676,74.126396 305.620471,74.028737 305.474119,74.0526667 L305.42512,74.1018196 C305.133061,74.0772431 304.96221,73.8819252 304.937711,73.5637251 L306.303231,73.3923368 C306.400584,73.3923368 306.473437,73.4906425 307.22905,73.6374544 C308.326366,73.0993599 308.375365,72.8788187 308.960127,72.8303126 L308.911773,72.2184888 C305.156916,72.952548 306.668788,72.4629597 301.963611,72.8788187 L301.743761,72.9033952 L301.695407,72.2922181 C307.741604,71.558159 305.717824,71.974018 307.789958,71.3874174 C307.814457,71.6073118 307.887956,71.7049708 308.009808,71.7049708 C308.253513,71.4605 308.521717,71.3382646 308.838275,71.2891117 L309.252831,71.265182 C311.373964,71.0937938 312.081223,71.5096528 316.274491,70.3358049 L316.298345,70.6048521 L316.981105,70.2620756 L317.614866,70.2135695 C317.566512,69.6017457 318.492977,69.5040867 318.809535,69.4795103 L318.761181,68.8191804 C311.398463,70.3112285 309.472036,69.8953694 307.424401,70.4826167 L307.399902,70.2135695 C305.474119,70.5556993 305.401266,70.4088874 304.913211,70.4334639 C304.76686,70.4580403 304.547655,70.5802757 304.30395,70.8247465 C304.27945,70.6048521 304.206597,70.5065464 304.060245,70.5065464 C303.986747,70.5065464 303.962892,70.5311228 303.938393,70.5311228 L297.696846,71.558159 C297.672991,71.3874174 297.599493,71.2891117 297.453141,71.3136881 C294.210838,71.9985945 295.088303,72.1208299 290.748684,72.5121125 C290.553978,72.536689 290.285774,72.6343479 289.944717,72.8542423 C289.920217,72.6835008 289.82222,72.5858418 289.603014,72.6097715 L286.945473,72.8303126 L285.166042,73.2701014 C285.141543,73.0993599 285.04419,73.0010541 284.824985,73.0256306 C283.825022,73.2946778 282.947556,73.4660661 282.240297,73.5145722 L282.191943,73.5145722 C281.752888,73.5637251 282.411148,73.3923368 282.07009,73.2461717 L281.533682,73.5637251 C280.753569,73.6374544 281.168125,73.5145722 278.486085,73.5391486 C273.780908,74.126396 274.292817,74.1994785 273.780908,74.224055 L272.025332,74.1018196 C272.049832,74.2732078 271.952479,74.3954432 271.757128,74.3954432 C269.758492,74.126396 268.734675,73.8081959 268.710175,73.4414897 C268.978379,71.5342293 269.441289,70.5556993 270.09955,70.5065464 L270.441252,70.4826167 L270.148548,71.1183702 L270.489606,71.0937938 C271.123367,70.7510172 271.416071,70.4334639 271.391571,70.1398402 L271.343217,69.4795103 L270.708811,69.5286632 L270.660457,68.9168394 C270.611458,68.4524742 270.684957,68.0366151 270.855163,67.6944853 L272.293536,65.3707191 L272.342535,65.9825429 L273.025295,65.93339 L272.976296,65.322213 L272.58624,64.7595421 C273.098149,64.3191066 273.488205,64.0746358 273.805408,64.0500593 L273.780908,63.732506 L272.854444,63.8055885 L272.78159,62.8762114 C274.634519,59.0125377 275.511985,56.7625008 275.462986,56.1267474 L276.121247,56.3957946 C276.535803,56.3712182 276.730508,56.1267474 276.706654,55.6863119 L276.072248,55.7354647 L276.048393,55.4664175 C275.999394,55.0014055 276.096747,54.5616168 276.292098,54.1703341 C277.291416,53.1187216 277.754971,52.067109 277.656973,50.9663436 C277.852324,50.9417672 277.949676,51.0400729 277.974176,51.2599673 C278.827787,50.7710257 279.486047,49.4742956 279.973457,47.3225644 C281.484683,44.5835858 283.630316,39.104982 286.433564,30.9126228 C291.797646,16.434518 291.577796,14.8939639 292.333409,11.470079 L291.699648,11.5185851 C291.748647,11.9590206 291.651294,12.3748797 291.455943,12.7661623 C291.016888,12.5947741 290.675831,12.4971151 290.432126,12.5216915 L290.407627,12.2526443 C290.310274,11.005067 290.822182,9.51366574 291.992352,7.75257044 L292.285055,7.72799401 L292.821463,9.83121909 L293.455224,9.78271298 C293.430725,9.63590114 293.601576,8.80418298 293.942634,7.26362882 C293.918134,6.94542871 293.674429,6.75011076 293.18702,6.72553433 L292.577758,7.11681698 C292.52876,6.67638147 292.553259,5.52710995 292.626113,3.69293211 L292.30891,3.71750854 C291.773146,3.17941406 291.504942,2.73897855 291.480443,2.37227233 L287.99379,2.71440211 C287.969935,2.4699313 287.848083,2.10322508 287.603734,1.63821314 C287.579879,1.32065978 288.359992,1.00245968 289.968571,0.684906323 L290.675831,0.953953567 L291.334091,0.562670917 C291.35859,0.782565299 291.480443,0.880224274 291.724147,0.855647843 L292.382408,0.464365194 C292.406907,0.684906323 292.52876,0.782565299 292.772464,0.757988868 L293.089667,0.733412437 L293.040668,0.0245764309 C292.553259,0.0730825444 291.261238,0.0730825444 289.212958,0 L288.554697,0.440435511 L288.530198,0.0491528617 C272.171684,1.39374233 262.883184,2.15237795 260.664698,2.37227233 C260.371994,2.39684876 259.226325,2.37227233 257.203189,2.32311947 C257.227044,2.59216671 256.983339,2.73897855 256.49593,2.78813141 L255.788671,2.4699313 L253.399978,3.08175508 C252.839071,3.13026119 251.888107,3.10568476 250.571586,2.95887293 C250.206029,3.2524966 249.766973,3.42388487 249.230565,3.47303773 C248.938507,3.49696741 252.717218,3.27707303 256.227726,3.03260222 C255.862169,3.32622589 255.301261,3.49696741 254.521148,3.57069671 C253.98474,3.61920282 253.52183,3.54612027 253.131774,3.32622589 C252.595366,3.57069671 250.864289,3.96197935 247.963043,4.54857995 L247.256429,4.27953271 L235.846795,6.04062801 C235.40774,5.82073363 234.895831,5.74700433 234.310424,5.7961572 C233.701163,5.84466331 232.677345,6.06520444 231.263472,6.45648709 L225.753683,8.75503012 L226.167594,9.43993645 C226.435798,9.41536001 226.825855,9.26854818 227.289409,8.99950093 L229.239691,9.1708892 L228.995987,11.005067 C227.192056,11.8122088 226.14374,13.0106332 225.851036,14.5266109 C223.145141,15.7250353 221.80412,16.5813299 221.80412,17.0948479 L221.82862,17.4124013 L222.242531,17.3884716 L222.97429,16.9971889 L223.827256,18.024225 L223.949108,19.4425438 C223.998107,19.8829793 219.439283,29.4936573 210.320989,48.2765179 C202.422508,66.3738255 198.277595,76.2787739 197.887538,78.0637989 C195.181643,78.8217878 193.621417,79.9225532 193.157863,81.3900248 C193.206861,81.85439 194.011474,82.1725901 195.571699,82.2948255 L195.644553,83.0036615 L194.937938,84.1775095 L195.059791,85.596475 C195.132644,86.3298874 197.107425,86.8925583 200.984135,87.283841 C200.959635,87.0393702 201.081488,86.8925583 201.349692,86.8679819 C201.422545,87.7482062 201.178841,89.4601486 200.617933,92.0038092 L201.032489,91.9792328 C202.641713,89.7783487 203.397327,88.2617242 203.324473,87.4306528 L203.665531,87.4060764 C204.055587,87.3814999 204.470143,87.8219355 204.957552,88.7752423 C204.470143,88.971207 202.763566,92.859457 199.83782,100.465216 L200.252376,101.150122 L200.666932,101.125546 C204.250938,92.0283856 206.493923,86.9902173 207.419743,86.0362637 C212.125564,85.6204047 220.267749,84.7893332 231.823734,83.541756 L232.555493,83.1013205 C232.579348,83.346438 232.725699,83.4686735 232.993904,83.444097 L233.750162,83.3703677 L234.481276,82.930579 C234.505775,83.1750498 234.652127,83.2972852 234.920331,83.2727088 L243.672423,82.5147199 C245.988262,82.3187552 247.085577,81.6099192 246.98758,80.4114948 C246.963725,80.0932947 248.3286,79.7265885 251.083494,79.3353058 C251.351698,79.3107294 251.741755,79.3844587 252.278163,79.5552002 C252.253664,79.3353058 253.643683,79.1154114 256.423076,78.8709406 C256.49593,77.403469 256.95884,76.6209037 257.787951,76.5471744 L257.715098,75.8383384 C256.934985,75.911421 256.056875,76.1073857 255.033057,76.4495154 C253.204627,76.3518565 252.034458,76.2050446 251.547049,76.0336564 C251.058995,76.3027036 250.693438,76.4495154 250.425234,76.4740919 L244.330683,76.6694098 L243.598925,77.0606925 C243.574425,76.8407981 243.428718,76.7431391 243.160514,76.7677156 L242.818812,76.7916452 L242.038699,77.1835746 C242.0142,76.9630335 241.380438,76.7916452 240.112916,76.6209037 L239.332804,77.0852689 L237.821577,77.2075043 L237.797077,76.8162217 C245.647204,75.9605738 249.523269,74.8843849 249.425916,73.6128779 C249.937825,73.5637251 250.206029,73.8081959 250.254383,74.3217139 L252.546367,73.7351133 L252.473514,73.0256306 L233.676663,73.5391486 C233.701163,73.7836194 233.579311,73.9304313 233.311106,73.9550077 L231.019122,73.7596898 C230.43436,73.8081959 229.946951,73.9795841 229.556894,74.2732078 L228.703283,73.9550077 C226.338445,74.1509724 224.582869,74.4439493 223.4127,74.8113023 C221.80412,74.6890669 220.024045,74.7129966 218.049263,74.8843849 L213.832141,75.2510911 L211.881859,75.0311967 C211.783862,73.7836194 214.197698,67.6453325 219.171078,56.6402654 C220.609452,52.9227569 221.925973,50.5996374 223.193495,49.7194131 C223.461699,49.6948367 223.851755,49.7924957 224.388163,50.0123901 L227.386762,48.985354 L228.922488,49.2298248 C231.507176,49.0099304 234.505775,48.2765179 237.943429,47.0043643 C238.796395,46.9312817 239.430156,46.9804346 239.893711,47.1757525 L242.185051,46.6376581 L249.01136,46.0504107 C251.912606,45.8059399 255.057557,45.1701864 258.470711,44.1185739 L258.397213,43.4097379 C257.129691,43.5319733 256.47143,43.3114322 256.423076,42.7979141 C256.349578,41.8446073 255.423114,41.4526779 253.643683,41.5994897 L253.570184,40.8906537 L255.447613,40.3525592 L260.371994,39.9367002 L260.299141,39.2278642 C260.10379,39.2517938 259.104472,39.2278642 257.251543,39.1541349 L257.17869,38.396146 L259.079973,38.2247577 C259.591882,38.1762516 259.811732,37.9311341 259.762733,37.4421924 C257.203189,37.515275 255.910523,37.3930396 255.886668,37.0509098 C238.040782,37.9311341 229.09334,38.1025223 229.044985,37.5398514 C228.776781,37.5644278 228.41058,37.7358161 227.92317,38.0294398 L227.46026,37.2953806 C232.189291,27.2196907 234.968685,22.1323695 235.773297,22.0592869 C235.797797,22.4505696 235.602446,23.0863231 235.18789,23.9426176 L235.21239,24.260171 L235.968648,24.1870885 C237.845431,19.6870146 239.430156,17.3638952 240.746677,17.2662362 C246.353819,16.7766478 239.966565,16.4099416 251.961605,14.5266109 C252.449014,14.747152 252.790072,14.844811 253.033776,14.8202346 C257.738953,13.866281 264.297058,12.8638213 272.708092,11.8367852 L272.659093,11.1273024 L268.173767,11.5431615 L268.124768,10.8336788 C268.661176,10.7851727 269.100232,10.6137844 269.465789,10.3201607 L269.490288,10.7114434 C269.733993,10.6875137 270.07505,10.5161254 270.514105,10.2225017 C271.294218,10.1494192 271.878981,10.2225017 272.293536,10.4423961 C273.853762,10.0271838 275.121929,9.78206623 276.048393,9.68440726 L278.851642,9.41536001 C279.534401,8.97557125 279.851604,8.5842886 279.827105,8.21693564 L279.802606,7.89938228 C279.095346,7.97246482 278.291379,7.92395871 277.340415,7.75257044 C277.315915,7.36128779 277.510621,7.09224055 277.974176,6.97000514 L283.191261,6.48106352 L285.580598,5.86923974 C285.605097,6.13828698 285.72695,6.23594596 285.921656,6.23594596 C286.16536,6.21201628 286.507063,6.04062801 286.945473,5.74700433 C287.06797,5.77158076 287.213677,5.77158076 287.335529,5.7961572 C287.018971,6.45648709 286.653414,7.41044065 286.287213,8.65737115 L285.605097,8.70652401 C285.556099,8.24151207 285.434246,7.82565299 285.215041,7.45894677 L284.873339,7.4835232 C278.535083,25.1895481 275.706691,33.431707 269.855845,47.0289407 C268.783029,50.5019784 267.881064,52.4338153 267.100951,52.8496743 C267.12545,53.240957 267.369155,53.4362749 267.783711,53.3877688 C267.930062,55.0997113 267.540006,56.7870773 266.589042,58.4498668 C263.882502,66.2761666 262.078572,70.5556993 261.152107,71.3382646 L261.762014,75.0311967 C261.785868,75.4224793 261.591162,75.6423737 261.176607,75.6915266 L260.542846,75.7406794 C260.445493,74.7129966 260.079291,74.224055 259.421675,74.2977843 L259.079973,74.3217139 C258.250861,75.6177973 257.6171,77.1098453 257.203189,78.8463642 L257.83695,78.7972113 C258.689916,78.2351872 259.079973,77.5748573 259.007119,76.8162217 L260.274641,76.6939863 L261.005755,76.9630335 C260.420993,77.8924106 260.152789,78.6264698 260.201788,79.188494 L260.542846,79.7757413 L259.713734,81.7321546 L259.738233,82.0503547 C260.469992,81.9766254 261.27396,82.2210962 262.127571,82.7346143 C262.712333,82.6861082 263.346739,82.4170609 264.053353,81.952049 C264.785112,81.8789664 267.515507,81.85439 272.220683,81.85439 L274.585521,81.0472483 C277.462267,81.0226718 277.925177,81.0964011 280.411867,80.87586 L281.435685,80.778201 L281.972093,80.4114948 L281.996592,80.7296949 C284.605135,80.5091538 284.775986,80.680542 286.823621,80.9250129 L286.84812,81.243213 L285.409747,81.3654484 L285.458746,81.9766254 C285.897156,81.9274725 286.287213,81.8052371 286.604415,81.5361899 C286.969972,81.5122602 287.189178,81.7075782 287.213677,82.1480137 C286.628915,82.1965198 285.970654,82.3433316 285.238896,82.5878024 L284.605135,82.367908 C283.605817,82.6369553 283.825022,82.7100378 283.142262,82.7591907 L282.142944,82.5638727 C282.167443,82.7346143 282.07009,82.8568497 281.899239,82.8568497 C281.923739,83.2481323 282.142944,83.444097 282.508501,83.4195206 L283.532318,83.3218616 L288.8719,82.8568497 L290.895036,82.4170609 C290.919535,82.5878024 290.992389,82.6861082 291.16324,82.6615317 L292.138703,82.2948255 L293.967133,82.1480137 C295.381007,82.0257783 295.356507,81.9274725 298.428604,81.4385309 C298.404105,81.243213 298.476959,81.1694837 298.62331,81.1449072 L298.64781,81.4139545 C303.645689,80.5583066 303.962248,80.5091538 304.76686,80.2401065 L304.840358,80.3869184 C306.083381,80.0932947 305.376766,80.167024 305.717824,79.9225532 C305.742323,80.1424476 305.815177,80.2401065 305.937029,80.2401065 L306.815139,80.167024 L306.766141,79.5066941 L304.98671,79.4821177 L304.96221,79.4329648 C304.888712,79.4575412 304.840358,79.4575412 304.76686,79.4821177 L304.523155,79.4821177 L304.523155,79.5312705 C303.328486,79.7757413 303.303987,79.6043531 302.523874,79.6780824 L298.062403,79.9225532 L298.038548,79.6043531 L300.525238,79.2622233 L301.427203,79.188494 L301.939112,78.8217878 L301.963611,79.1399879 C305.474119,78.8463642 306.717142,79.7265885 322.953803,76.2541975 C323.831914,76.1804682 323.758416,75.4470558 324.319323,73.9304313 C324.02662,73.9550077 323.733916,73.8819252 323.466357,73.7351133 C322.125337,74.2486314 321.418077,74.0041606 318.834034,74.4200197 C318.614829,74.4445961 318.443978,74.2486314 318.37048,73.8573487 L318.34598,73.5883015 L320.83267,73.661384 C321.296225,73.6128779 322.19819,73.5391486 323.53921,72.7811598 C323.53921,73.0010541 323.027302,73.1232896 323.31936,73.0993599 L323.320005,73.0993599 Z M203.275474,75.0311967 L202.129805,75.1288557 C202.080806,74.6644905 202.690712,72.9033952 203.958234,69.8953694 L204.713848,69.8222868 C204.738347,70.5311228 204.274792,72.2676417 203.275474,75.0311967 Z M204.665493,69.4549339 L204.640994,69.1373805 C204.616495,68.7460979 204.860199,68.4770506 205.396607,68.3548152 L205.421107,68.6723686 C205.445606,69.1373805 205.201257,69.4064278 204.665493,69.4549339 Z M219.902192,81.2671426 L219.926692,81.5853428 L218.025409,81.756731 L218.000909,81.4385309 L219.902192,81.2671426 Z M217.610853,81.0718247 C217.635352,81.4631073 217.049945,81.9035429 215.782423,82.3433316 L213.44144,82.1725901 L212.685827,82.2456726 L212.612973,81.5361899 L217.610853,81.0718247 Z M233.018403,9.92887807 L231.872733,10.0271838 L231.848234,9.63590114 C231.823734,9.24461849 232.043584,8.97557125 232.530994,8.85333585 L232.945549,8.82875941 L233.725662,9.14631277 C233.749517,9.61132471 233.530312,9.88037196 233.018403,9.92887807 Z M250.449733,6.5049932 L250.81529,6.48106352 L250.864289,7.18989952 L249.815972,7.2875585 C249.791473,6.89627585 249.986179,6.62787536 250.449733,6.5049932 Z M246.061115,8.04619412 L244.330683,7.85022942 L244.306184,7.53267606 C246.573669,7.33671136 247.329282,7.09224055 248.718657,6.7009579 C248.743156,6.97000514 248.986861,7.06766412 249.425916,7.01915801 L249.47427,7.72799401 L248.792155,7.8017233 C248.255747,7.85022942 247.792192,7.77714687 247.402136,7.55660574 C246.98758,7.82565299 246.549169,7.99704125 246.061115,8.04619412 Z M248.231247,14.3804458 L248.206748,14.0622457 L251.010641,13.7931984 L251.03514,14.1113986 L248.231247,14.3804458 Z M251.229846,11.9344442 L251.205347,11.5431615 L252.570866,11.4209261 L252.595366,11.8122088 L251.229846,11.9344442 Z M251.547049,7.14139341 L251.180847,7.16532309 L251.49805,6.40733423 L254.618501,6.11371055 L254.643001,6.5049932 C253.838389,6.57872249 252.790072,6.79861688 251.547049,7.14139341 Z M253.131774,13.8908574 L253.082775,13.1820214 L254.448295,13.059786 C254.911205,13.0106332 255.154909,13.2305275 255.179409,13.7201159 L253.131774,13.8908574 Z M261.395812,2.59216671 L259.64088,3.08175508 L259.323678,3.10568476 C258.495211,3.17941406 257.422394,3.15483763 256.154228,3.03260222 C258.421712,2.88579038 260.591844,2.71440211 261.395812,2.59216671 Z M259.519028,10.4184664 L259.543528,10.7360198 L257.129691,10.9565609 L257.105191,10.6383608 L259.519028,10.4184664 Z M263.468591,12.3011504 C263.444091,12.0081735 262.980537,11.8122088 262.030218,11.7145498 L259.616381,12.3994561 L257.763452,12.4725387 C257.348896,12.178915 257.129691,11.983597 257.105191,11.8367852 L259.250824,11.9590206 L264.077853,11.1764553 L266.540043,11.2741143 L266.564543,11.6653969 C265.345375,11.7876323 264.321557,12.0081735 263.468591,12.3011504 Z M288.310993,5.86923974 C288.603696,5.89381617 288.798402,5.89381617 288.8719,5.89381617 C289.724867,5.06209801 290.675831,4.40176812 291.773146,3.93740292 C290.895036,7.8017233 289.530161,10.6629373 287.652732,12.5216915 L286.287213,11.6899734 C287.433527,8.77960655 288.116287,6.84776974 288.310993,5.86923974 Z M284.117725,13.0837157 L284.458783,13.059786 C283.995873,13.9400103 283.581317,14.4043755 283.24026,14.4289519 L283.166761,13.4995748 C283.386611,13.4995748 283.70317,13.3527629 284.117725,13.0837157 Z M281.41183,19.5647792 C282.07009,16.9234596 282.703851,15.4320583 283.288614,15.0407757 L283.313113,15.358329 C282.972056,17.8036839 282.435647,19.100414 281.728388,19.198073 L281.85024,20.7386272 C281.265478,21.5703453 280.997274,22.2060988 281.021129,22.6950404 L280.680071,22.7196168 L280.485365,20.5918153 C280.875422,20.5433092 281.19198,20.2005327 281.41183,19.5647792 Z M280.363513,23.0863231 C280.387368,23.4530293 280.143663,24.3093239 279.656254,25.6299837 L279.315196,25.6545601 L279.241698,24.7251829 C279.705253,23.648994 280.095309,23.1108995 280.362868,23.0863231 L280.363513,23.0863231 Z M260.689197,80.3623419 L260.664698,80.0932947 L261.298459,80.0447886 L261.371957,80.9741657 C261.030255,80.9987422 260.78655,80.8027775 260.689197,80.3623419 Z M288.798402,81.0964011 C288.773903,80.87586 288.67655,80.778201 288.457345,80.8027775 L286.87262,80.9495893 L286.84812,80.6313892 L286.994472,80.6313892 L290.748684,80.3138358 L290.773184,80.6313892 C289.676513,80.680542 289.018252,80.8519303 288.798402,81.0964011 Z M286.921618,80.3138358 C287.06797,80.3869184 286.994472,80.4606477 286.921618,80.5091538 C286.84812,80.4845773 286.750767,80.4114948 286.921618,80.3138358 Z M287.116324,75.911421 L285.01969,76.0828092 L284.995191,75.7646091 L286.897119,75.5938676 L288.554697,75.1780085 C288.579197,75.3733265 288.67655,75.4470558 288.8964,75.4224793 C290.871181,75.0803495 290.675831,74.9820438 291.626795,74.9089613 C291.943353,74.8843849 292.138703,75.0803495 292.163203,75.4716322 L287.116324,75.911421 Z M294.454542,75.2756675 C293.284373,75.1534321 293.21152,75.0557731 292.382408,75.1288557 L292.357909,74.8598084 L294.235337,74.6890669 L294.259836,74.9581141 C294.064486,74.9820438 294.771745,75.0311967 294.454542,75.2756675 Z M294.600894,74.9335377 L294.576395,74.6644905 L295.600212,74.5661847 L295.624711,74.835232 L294.600894,74.9335377 Z M296.868379,74.737573 L296.843879,74.4685258 C297.014731,74.4445961 297.258435,74.3217139 297.574993,74.0772431 C298.086902,74.028737 298.355106,74.3708668 298.404105,74.7621494 L296.868379,74.737573 Z M299.769625,74.3708668 L299.745125,74.0526667 L300.988148,73.9550077 L301.012648,74.2732078 L299.769625,74.3708668 Z M301.500057,74.224055 C301.476202,73.8573487 301.621909,73.6374544 301.939112,73.5883015 L302.353668,74.126396 C302.329168,73.9550077 302.402022,73.8573487 302.548374,73.8327723 L302.865577,74.4200197 L301.500057,74.224055 Z M325.928548,71.0692173 C326.123253,70.9469819 326.221251,70.8247465 325.757696,70.751664 C325.538491,70.9961348 326.001401,71.0692173 325.513992,71.0937938 L325.538491,71.3136881 C325.586845,71.265182 325.709342,71.1914527 325.806695,71.1183702 L325.538491,71.3382646 L325.538491,71.362841 L325.026583,72.0231709 L326.0504,71.6564647 L326.172252,71.6564647 L326.123253,71.0446409 L325.928548,71.0692173 Z M327.707978,72.4636064 L327.513273,72.4875361 L327.561627,73.0993599 L329,72.9771245 C328.976145,72.5858418 328.025181,72.4636064 327.707978,72.4636064 Z" id="Shape" fill="#F9DC3E"></path></g></g></svg> 