<svg xmlns="http://www.w3.org/2000/svg" width="26.094" height="33"><path d="M19.072 32.03H.957V8.14a.479.479 0 1 0-.957 0v24.05a.8.8 0 0 0 .8.81h18.275a.485.485 0 0 0-.003-.97zm6.881-27.65L21.886.15a.454.454 0 0 0-.343-.15H.8a.8.8 0 0 0-.8.81v3.78a.479.479 0 1 0 .957 0V.97h20.384l3.79 3.94v27.12H22.42a.485.485 0 0 0 0 .97h2.871a.8.8 0 0 0 .8-.81V4.72a.489.489 0 0 0-.138-.34zm0 0L21.886.15a.466.466 0 0 0-.523-.11.476.476 0 0 0-.3.44v4.24a.476.476 0 0 0 .478.48h4.067a.47.47 0 0 0 .44-.29.5.5 0 0 0-.095-.53zm-3.931-.15V1.68l2.455 2.55h-2.455zm-6.764-1.66H3.732a.8.8 0 0 0-.8.81v2.68a.8.8 0 0 0 .8.8h11.526a.8.8 0 0 0 .8-.8V3.38a.8.8 0 0 0-.8-.81zm-.16 3.32H3.891V3.54H15.1v2.35zM7.712 9.4a.478.478 0 0 0-.67.09l-2.114 2.82-.634-.57a.482.482 0 0 0-.63.73l1.02.91a.519.519 0 0 0 .315.12.084.084 0 0 0 .048-.01.479.479 0 0 0 .333-.18l2.424-3.23a.488.488 0 0 0-.092-.68zm14.4-.1H10.061a.485.485 0 0 0 0 .97h12.048a.485.485 0 0 0 0-.97zm-4.226 1.61h-7.822a.485.485 0 0 0-.479.49.477.477 0 0 0 .479.48h7.822a.477.477 0 0 0 .479-.48.485.485 0 0 0-.482-.49zm1.786 1.62h-9.608a.485.485 0 0 0 0 .97h9.608a.485.485 0 0 0-.003-.97zM7.715 15.99a.461.461 0 0 0-.67.09l-2.114 2.81-.634-.56a.482.482 0 0 0-.63.73l1.02.9a.465.465 0 0 0 .315.12h.048a.456.456 0 0 0 .333-.19l2.424-3.23a.477.477 0 0 0-.095-.67zm14.4-.1H10.061a.477.477 0 0 0-.479.48.485.485 0 0 0 .479.49h12.048a.485.485 0 0 0 .479-.49.477.477 0 0 0-.479-.48zm-4.226 1.61h-7.822a.485.485 0 0 0 0 .97h7.822a.485.485 0 0 0-.006-.97zm1.786 1.62h-9.608a.48.48 0 0 0 0 .96h9.608a.48.48 0 0 0-.006-.96zm2.44 3.35H10.061a.485.485 0 0 0-.479.49.477.477 0 0 0 .479.48h12.048a.477.477 0 0 0 .479-.48.485.485 0 0 0-.479-.49zm-4.226 1.62h-7.822a.485.485 0 0 0 0 .97h7.822a.485.485 0 0 0-.006-.97zm1.786 1.61h-9.608a.485.485 0 0 0-.479.49.477.477 0 0 0 .479.48h9.608a.476.476 0 0 0 .478-.48.485.485 0 0 0-.484-.49zm-12.82-3.23H4.3a.809.809 0 0 0-.8.81v2.58a.8.8 0 0 0 .8.81h2.551a.8.8 0 0 0 .8-.81v-2.58a.809.809 0 0 0-.802-.81zm-.16 3.23H4.463v-2.26h2.232v2.26z" fill="#b7af20" fill-rule="evenodd"/></svg>