<?xml version="1.0" encoding="UTF-8"?> <svg xmlns="http://www.w3.org/2000/svg" xmlns:xlink="http://www.w3.org/1999/xlink" width="500px" height="300px" viewBox="0 0 500 300"><!-- Generator: Sketch 52.2 (67145) - http://www.bohemiancoding.com/sketch --><title>browserslist-seeklogo.com</title><desc>Created with Sketch.</desc><g id="Page-1" stroke="none" stroke-width="1" fill="none" fill-rule="evenodd"><g id="browserslist-seeklogo.com" transform="translate(168.000000, 68.000000)"><path d="M82,0 C127.287063,0 164,36.7129375 164,82 C164,127.287063 127.287063,164 82,164 C36.7129375,164 0,127.287063 0,82 C0,36.7129375 36.7129375,0 82,0" id="Path" fill="#FFD539"></path><path d="M112.670719,37 C113.337158,39.3380601 111.57804,60.4565201 145,73.1768793 C142.620954,78.0434413 132.002536,82.6532928 112.961888,87 C110.705809,58.8287567 105.462224,44.7939625 112.670719,37" id="Path" fill="#FFFFFF"></path><path d="M118.198397,85.1109472 C116.726523,85.441824 115.237975,85.737433 113.731469,85.9984152 C113.366547,79.2180059 112.570645,73.2878729 111.786287,67.9823019 C114.275325,68.4459142 116.69638,66.8562949 117.230616,64.3657416 C117.773831,61.8335081 116.160862,59.34039 113.628213,58.7966234 C112.979178,58.6574756 112.308337,58.6574756 111.660584,58.7966234 C113.222245,59.2236854 114.143209,60.8370304 113.715435,62.3984354 C113.394766,63.5712526 112.406462,64.3817725 111.272574,64.5324625 C109.73336,54.2393727 108.707858,46.3060244 112.040898,38.7375383 C111.992798,47.1665606 115.648432,54.7581311 122.209974,61.164701 C128.21291,67.0287868 136.570203,71.5770603 143.205499,73.2763307 C143.573628,73.715576 143.591586,74.2510065 143.112505,74.9832959 C142.571215,75.4039454 141.970921,75.8181827 141.348181,76.1843273 C135.018803,79.8938666 127.274631,83.0705403 118.198397,85.1109472 M149,69.2461744 C149,65.3602957 145.849741,62.2105538 141.963866,62.2105538 C138.66161,62.2105538 135.898721,64.4882173 135.140016,67.5558813 C124.266108,61.8969903 111.830539,50.4188999 114.870487,33.8417159 C117.13185,30.7047987 120.282109,27.5550568 124.648347,24.2450064 C116.482173,23.2876439 107.801646,24.7682534 99.5334993,27.9430034 C99.4039487,23.6460937 99.9195856,19.0452391 101.265115,13.6498953 C93.3381616,15.6717065 85.7998594,20.1289247 79.2428063,26.0116063 C77.5721174,22.0365961 76.4061626,17.5376977 75.7263429,12 C69.0153684,16.7528272 63.5530815,23.6640483 59.5331667,31.5582813 C56.52272,28.4322651 53.8002347,24.6303881 51.1611234,19.6672361 C46.6082557,26.4950968 43.9877433,34.8837214 43.059084,43.6743996 C39.2136135,41.8430351 35.3861005,39.3024655 31.2340698,35.6942413 C29.4325477,43.6923542 29.9892303,52.4535357 32.2685501,60.9851554 C27.9330964,60.6780043 23.3629125,59.680244 18.0725046,57.7552593 C19.258341,65.8745654 22.9242364,73.8611362 28.1171608,81.0141026 C24.0343948,82.226035 19.4988432,82.9070256 14,83.003852 C18.0314589,90.183109 24.3454444,96.343445 31.790111,101.16809 C28.3570217,103.850373 24.2761797,106.170999 19.0396443,108.28643 L19.0409269,108.28643 C25.350423,113.522107 33.4107755,117.003366 42.0476919,118.846273 C39.8260925,122.473093 36.900944,126.006934 32.8848772,129.751742 C40.6367454,132.373748 49.3897443,132.739893 58.0965667,131.375346 C57.3320902,135.619675 55.8685539,140.025594 53.4218445,145.040686 L53.4231272,145.040686 C61.6226502,144.70981 69.9504411,141.900563 77.6073911,137.485025 C78.4276641,141.742178 78.6457194,146.405232 78.1557362,152 C94.6875395,144.878454 107.529718,126.426943 112.058215,108.161389 C113.287021,104.859034 113.940545,100.08184 113.940545,93.4873883 C113.940545,91.7188646 113.898217,90.0183118 113.836649,88.3543093 C127.209214,86.0843406 136.940897,81.4860509 142.533376,78.2067797 C144.584379,77.0044657 146.663601,75.238507 147.330594,73.7906004 C148.370205,72.5645608 149,70.9794301 149,69.2461744" id="Shape" fill="#000000" fill-rule="nonzero"></path></g></g></svg> 