<?xml version="1.0" encoding="utf-8"?>
<!-- Generator: Adobe Illustrator 22.1.0, SVG Export Plug-In . SVG Version: 6.00 Build 0)  -->
<svg version="1.1" id="Layer_1" xmlns="http://www.w3.org/2000/svg" xmlns:xlink="http://www.w3.org/1999/xlink" x="0px" y="0px"
	 viewBox="0 0 500 300" style="enable-background:new 0 0 500 300;" xml:space="preserve">
<g>
	<g>
		<path style="fill:#353535;" d="M91.5,164.9c-0.1,1.3,0,2.6-0.2,3.9c-0.2,1.4-0.6,2.7-0.9,4c-0.2,0.9-0.4,1.8-0.8,2.6
			c-0.5,1.2-1,2.3-1.5,3.5c-0.6,1.1-1.2,2.3-1.9,3.3c-1.2,1.6-2.4,3.2-3.8,4.6c-1.2,1.2-2.5,2.1-3.8,3.2c-0.2,0.1-0.4,0.1-0.6,0.2
			c-0.1-0.2-0.2-0.4-0.2-0.6c-0.1-1.6-0.1-3.1-0.3-4.6c-0.2-1.6-0.6-3.1-1.1-4.6c-0.4-1.2-0.9-2.3-1.5-3.4c-0.6-1.1-1.1-2.3-1.8-3.3
			c-1-1.5-2.1-2.9-3.3-4.2c-1.5-1.8-3.3-3.2-5.2-4.5c-1.2-0.8-2.4-1.4-3.7-2c-1.5-0.8-3.1-1.3-4.7-1.8c-1.3-0.4-2.5-1-3.8-1.5
			c-1.4-0.5-2.8-0.9-4.1-1.4c-1.4-0.5-2.8-1-4.1-1.5c-0.8-0.3-1.5-0.5-2.3-0.8c-1.2-0.5-2.5-1-3.7-1.6c-1.2-0.6-2.3-1.2-3.4-2
			c-2.1-1.4-3.9-2.9-5.5-4.8c-0.9-1.1-1.8-2.2-2.6-3.4c-0.7-1-1.3-2.2-1.8-3.3c-0.4-0.8-0.8-1.6-1.1-2.4c-0.3-0.8-0.5-1.6-0.7-2.4
			c-0.3-1.3-0.5-2.5-0.8-3.8c-0.5-2.3-0.5-4.6-0.2-6.9c0.1-1.4,0.6-2.8,1.1-4c1-2.5,2.4-4.8,4.4-6.7c1.2-1.2,2.4-2.3,3.8-3.3
			c1-0.8,2.3-1.4,3.5-2c1-0.5,2-1,2.9-1.5c0.4-0.2,0.8-0.3,1.3-0.3c0.4-0.1,0.5,0.2,0.5,0.6c0.1,1.2,0.1,2.4,0.2,3.5
			c0.2,1,0.6,2.1,0.9,3.1c0.2,0.6,0.5,1.2,0.7,1.7c0.9,1.8,1.9,3.5,3.3,4.8c1.3,1.2,2.5,2.4,3.8,3.6c1,0.8,2.1,1.5,3.2,2.1
			c1.5,0.8,3.1,1.6,4.7,2.3c1.5,0.7,3.1,1.3,4.6,1.9c1.1,0.5,2.2,1,3.3,1.6c1,0.5,2.2,0.9,3.2,1.4c1.1,0.5,2.2,1,3.3,1.5
			c0.6,0.3,1.3,0.5,1.9,0.8c1,0.5,2.1,0.9,3.1,1.5c1,0.6,2.1,1.3,3.1,2c1.6,1.1,3.2,2.3,4.4,3.8c1.4,1.7,2.8,3.4,4,5.3
			c0.8,1.3,1.4,2.8,2,4.2c0.4,0.8,0.8,1.7,1,2.5c0.3,1.1,0.5,2.2,0.8,3.3C91.5,160.9,91.5,162.9,91.5,164.9z"/>
		<path style="fill:#353535;" d="M94,155.1c-0.2-0.6-0.5-1.2-0.7-1.8c-0.3-0.7-0.6-1.5-0.9-2.2c-0.4-0.9-0.8-1.8-1.3-2.8
			c-0.6-1.1-1.3-2.3-2-3.3c-1.4-2.1-3.2-3.9-5-5.6c-0.3-0.3-0.6-0.5-0.9-0.8c-0.3-0.2-0.3-0.5-0.1-0.8c0.6-0.9,1.2-1.7,1.7-2.7
			c0.6-1,1.1-2.1,1.6-3.1c0.6-1.3,1.1-2.6,1.5-4c0.3-1.2,0.6-2.4,0.8-3.6c0.4-2.3,0.5-4.6,0.4-6.9c0-0.7,0.1-0.8,0.8-0.5
			c2.1,0.9,3.9,2.2,5.4,3.9c1.3,1.4,2.4,2.8,3.2,4.5c0.5,1.1,1.1,2.1,1.5,3.3c0.3,0.9,0.5,2,0.8,2.9c0.5,1.7,0.6,3.4,0.6,5.1
			c0,2,0.2,4-0.5,6c-0.3,1-0.5,2.1-0.8,3.1c-0.3,1.1-0.8,2.1-1.3,3.2c-0.9,1.8-2,3.4-3.3,4.8c-0.4,0.5-0.8,0.9-1.2,1.3
			C94.2,155.2,94.1,155.2,94,155.1z"/>
		<path style="fill:#353535;" d="M59.9,190.9c-0.4,0-0.7,0-1.1,0c-1.8-0.2-3.6-0.3-5.4-0.7c-1.6-0.3-3.2-0.9-4.8-1.6
			c-1.8-0.7-3.6-1.5-5.2-2.5c-1.8-1.1-3.5-2.3-5-3.7c-1.5-1.3-2.8-2.9-4.1-4.4c-0.7-0.8-1.3-1.8-1.8-2.8c-0.1-0.2,0-0.7,0.2-0.8
			c1.1-0.7,2.3-1.4,3.5-2c1.1-0.6,2.2-1.1,3.3-1.5c0.8-0.3,1.7-0.5,2.6-0.7c0.7-0.1,0.9,0.1,1,0.8c0.2,1.9,0.9,3.7,1.7,5.5
			c1.1,2.4,2.5,4.6,4.2,6.6c1.3,1.5,2.7,2.9,4.4,4c1.4,0.9,2.8,1.8,4.3,2.6c0.7,0.4,1.5,0.6,2.2,0.9
			C59.9,190.8,59.9,190.9,59.9,190.9z"/>
		<path style="fill:#353535;" d="M52,181.4c2.9,0.8,5.7,0.7,8.5,0.6c1.4,0,2.8-0.3,4.2-0.6c1.4-0.3,2.8-0.8,4.2-1.3
			c0.6-0.2,1.2-0.6,1.7-0.9c0.7-0.5,1.2-0.3,1.5,0.5c0.5,1.2,1,2.3,1.2,3.6c0.3,1.9,0.5,3.8,0.7,5.7c0.1,0.7,0,1.4,0,2.1
			c0,0.5-0.2,0.7-0.7,0.6c-2-0.2-4-0.2-6-0.6c-1.6-0.3-3.1-0.9-4.6-1.5c-1.4-0.6-2.8-1.2-4-2c-1.3-0.8-2.4-1.6-3.6-2.6
			c-1-0.8-2-1.8-2.9-2.7C52.2,182,52.2,181.7,52,181.4z"/>
	</g>
	<g>
		<path style="fill:#353535;" d="M127.2,158.2c10.5,0,14.2,2.8,14.2,11.6c0,10-4.7,11.6-14.2,11.6c-5,0-9.3-0.1-14-0.5h-0.2v-38.3
			c4.4-0.3,8.8-0.4,13-0.4c4.5,0,8.8,0.2,13,0.4l-0.7,6.5h-16.9v9L127.2,158.2L127.2,158.2z M127.2,175c4.7,0,5.6-1,5.6-5.4
			c0-4.3-0.9-5.5-5.6-5.5h-5.8v11H127.2z"/>
		<path style="fill:#353535;" d="M164,181.4c-1.4,4.5-3.9,7.7-7.5,9.5c-3.1,1.8-7,1.8-11.2,1.1l0.7-5.4c3,0.1,5.4-0.1,7.1-1.1
			c1.4-0.8,2.6-2.5,3.5-4.4H155c-1.3,0-2.3-0.8-2.7-2l-8.9-25.3h8.7l5.1,17.7c0.3,1.3,0.7,2.7,0.9,4.1h0.7c0.4-1.4,0.8-2.9,1.1-4.1
			l5.1-17.7h8.8L164,181.4z"/>
		<path style="fill:#353535;" d="M205.4,167.5c0,10.9-3.6,14.2-10.5,14.2c-3.3,0-6.6-0.8-9.1-2.6c0.1,1.9,0.2,3.9,0.1,5.9v6.6h-8.2
			v-37.9h6.7l0.6,4c2.3-2.7,6.7-4.7,10.9-4.7C202.7,152.9,205.4,158.3,205.4,167.5z M196.9,167.5c0-6.6-1.2-8.2-4.3-8.2
			c-2.4,0-4.3,0.9-6.8,2.6v12.6c2.2,0.6,3.8,1.1,6.2,1.1C195.6,175.6,196.9,174.3,196.9,167.5z"/>
		<path style="fill:#353535;" d="M233.9,154.5l-0.9,5.1c-3-0.1-5.8-0.1-7.8-0.1c-5,0-6.6,1.7-6.6,7.7s1.7,7.7,6.6,7.7
			c1.7,0,5.3-0.1,8.4-0.5l0.8,5.3c-3,1.3-6.9,1.8-10.7,1.8c-10,0-13.7-3.8-13.7-14.4c0-10.6,3.7-14.4,13.8-14.4
			C226.7,152.8,230.9,153.2,233.9,154.5z"/>
		<path style="fill:#353535;" d="M263.3,174.5l0.8,5.1c-3.2,1.6-8.1,2.1-11.9,2.1c-10.4,0-14.3-4.2-14.3-14.3
			c0-10.8,4-14.5,13.9-14.5c9.3,0,12.9,3.3,13,9.6c0,5-2.3,7.7-8.3,7.7h-9.9c0.6,4.1,2.3,5.1,6.5,5.1
			C255.5,175.1,259.5,174.9,263.3,174.5z M246.4,165.1h7.8c2.3,0,2.5-1.3,2.5-2.8c0-2.5-1.1-3.5-4.7-3.5
			C247.9,158.8,246.6,159.9,246.4,165.1z"/>
		<path style="fill:#353535;" d="M285.1,159.9v21H277v-21h-9.1v-6.3h26.3v6.3H285.1z"/>
		<path style="fill:#353535;" d="M310.9,163.1c9.6,0,12.5,2.1,12.5,9.1c0,7.1-3.4,9.1-11.2,9.1c-6.1,0-9.3-0.1-13.2-0.3h-0.2v-27.4
			h7.9v9.5L310.9,163.1L310.9,163.1z M310.9,175.5c3.3,0,4.3-0.6,4.3-3.7c0-2.8-0.8-3.6-4.3-3.6h-4.2v7.3L310.9,175.5L310.9,175.5z"
			/>
		<path style="fill:#353535;" d="M351.2,154.5l-0.9,5.1c-3-0.1-5.8-0.1-7.8-0.1c-5,0-6.6,1.7-6.6,7.7s1.7,7.7,6.6,7.7
			c1.7,0,5.3-0.1,8.4-0.5l0.8,5.3c-3,1.3-6.9,1.8-10.7,1.8c-10,0-13.7-3.8-13.7-14.4c0-10.6,3.7-14.4,13.8-14.4
			C344.1,152.8,348.2,153.2,351.2,154.5z"/>
		<path style="fill:#353535;" d="M371.6,159.9v21h-8.1v-21h-9.1v-6.3h26.3v6.3H371.6z"/>
		<path style="fill:#353535;" d="M412.9,167.5c0,10.9-3.6,14.2-10.5,14.2c-3.3,0-6.6-0.8-9.1-2.6c0.1,1.9,0.2,3.9,0.1,5.9v6.6h-8.2
			v-37.9h6.7l0.6,4c2.3-2.7,6.7-4.7,10.9-4.7C410.2,152.9,412.9,158.3,412.9,167.5z M404.5,167.5c0-6.6-1.2-8.2-4.3-8.2
			c-2.4,0-4.3,0.9-6.8,2.6v12.6c2.2,0.6,3.8,1.1,6.2,1.1C403.1,175.6,404.5,174.3,404.5,167.5z"/>
		<path style="fill:#353535;" d="M445.6,167.3c0,10.5-3.8,14.4-14,14.4c-10.2,0-14.1-3.9-14.1-14.4c0-10.5,3.8-14.5,14.1-14.5
			C441.9,152.8,445.6,156.8,445.6,167.3z M426.1,167.3c0,6.6,1.2,8.2,5.5,8.2c4.3,0,5.5-1.7,5.5-8.2c0-6.7-1.2-8.3-5.5-8.3
			C427.3,159,426.1,160.6,426.1,167.3z"/>
		<path style="fill:#353535;" d="M470.7,181v-14.3c0-1.4,0.1-2.7,0.3-4.4h-0.2c-0.5,1.4-1.3,3-2.1,4l-10.3,14.6h-7v-27.4h7.3v14.6
			c0,1.4-0.1,2.5-0.3,4h0.2c0.6-1.4,1.3-2.6,2.1-3.7l10.4-14.9h7v27.4L470.7,181z M473.8,141.4c0.6,4.6-3,8.6-9.1,8.6
			c-6.1,0-9.7-4-9.2-8.6h5.5c-0.2,3.2,1.2,4.6,3.7,4.6c2.5,0,3.8-1.3,3.6-4.6H473.8z"/>
	</g>
</g>
</svg>
