<?xml version="1.0" encoding="UTF-8"?> <svg xmlns="http://www.w3.org/2000/svg" xmlns:xlink="http://www.w3.org/1999/xlink" width="500px" height="300px" viewBox="0 0 500 300"><!-- Generator: Sketch 52.2 (67145) - http://www.bohemiancoding.com/sketch --><title>css</title><desc>Created with Sketch.</desc><g id="Page-1" stroke="none" stroke-width="1" fill="none" fill-rule="evenodd"><g id="css" transform="translate(181.000000, 53.000000)"><polygon id="Path" fill="#264DE4" points="69.4149294 195 12.6498454 179.305725 0 38 139 38 126.336743 179.28359"></polygon><polygon id="Path" fill="#2965F1" points="115.143589 171.246143 126 50 69 50 69 184"></polygon><polygon id="Path" fill="#EBEBEB" points="29 103 30.5403539 120 69 120 69 103"></polygon><polygon id="Path" fill="#EBEBEB" points="26 67 27.5588576 84 69 84 69 67"></polygon><polygon id="Path" fill="#EBEBEB" points="69 146.979243 68.9240695 146.999434 49.6270245 141.797095 48.3934392 128 31 128 33.4274884 155.162565 68.9202538 165 69 164.977905"></polygon><polygon id="Path" fill="#000000" points="33 0 54 0 54 8.66666668 41.7818182 8.66666668 41.7818182 17.3333334 54 17.3333334 54 26 33 26"></polygon><polygon id="Path" fill="#000000" points="58 0 79 0 79 7.71428574 66.781818 7.71428574 66.781818 9.25714287 79 9.25714287 79 27 58 27 58 18.9 70.2181814 18.9 70.2181814 17.3571428 58 17.3571428"></polygon><polygon id="Path" fill="#000000" points="83 0 104 0 104 7.71428574 91.781818 7.71428574 91.781818 9.25714287 104 9.25714287 104 27 83 27 83 18.9 95.218182 18.9 95.218182 17.3571428 83 17.3571428"></polygon><polygon id="Path" fill="#FFFFFF" points="109.901084 102.030436 113 67 70 67 70 84.3075022 94.1880198 84.3075022 92.6260879 102.030436 70 102.030436 70 119.337557 91.1374894 119.337557 89.1450062 141.783837 70 146.993886 70 165 105.190341 155.16646 105.44852 152.24243 109.482251 106.677937"></polygon></g></g></svg> 