<?xml version="1.0" encoding="UTF-8"?> <svg xmlns="http://www.w3.org/2000/svg" xmlns:xlink="http://www.w3.org/1999/xlink" width="500px" height="300px" viewBox="0 0 500 300"><!-- Generator: Sketch 52.2 (67145) - http://www.bohemiancoding.com/sketch --><title>eslint-seeklogo.com</title><desc>Created with Sketch.</desc><g id="Page-1" stroke="none" stroke-width="1" fill="none" fill-rule="evenodd"><g id="eslint-seeklogo.com" transform="translate(170.000000, 80.000000)"><path d="M48.2348879,50.8512346 L78.7647968,33.3289886 C79.5288009,32.8903371 80.4705687,32.8903371 81.2345727,33.3289886 L111.765112,50.8512346 C112.528486,51.289886 113,52.1001379 113,52.9774408 L113,88.0219325 C113,88.8986093 112.528486,89.7094876 111.765112,90.1487658 L81.2345727,107.671011 C80.4705687,108.109663 79.5288009,108.109663 78.7647968,107.671011 L48.2348879,90.1487658 C47.4708837,89.7101144 47,88.8992354 47,88.0219325 L47,52.9774408 C47.0006304,52.1001379 47.4715141,51.289886 48.2348879,50.8512346" id="Path" fill="#8080F2"></path><path d="M159.010437,67.3507902 L122.701963,3.98136161 C121.383069,1.69011161 118.946693,0 116.309533,0 L43.6913294,0 C41.0535423,0 38.6165382,1.69011161 37.2976447,3.98136161 L0.989170168,67.2110489 C-0.329723389,69.5029287 -0.329723389,72.3953174 0.989170168,74.6871966 L37.2976447,137.537317 C38.6165382,139.828567 41.0535423,141 43.6913294,141 L116.308906,141 C118.946066,141 121.383069,139.863817 122.701336,137.571938 L159.00981,74.6192141 C160.329959,72.328594 160.329959,69.6420406 159.010437,67.3507902 Z M128.945061,97.8231563 C128.945061,98.7547635 128.386006,99.6165003 127.580991,100.082933 L81.3318737,126.852161 C80.5274869,127.317964 79.5198069,127.317964 78.71542,126.852161 L32.4305384,100.082933 C31.6261514,99.6165003 31.0633314,98.755393 31.0633314,97.8231563 L31.0633314,44.2840715 C31.0633314,43.3518349 31.6179946,42.4907277 32.4230091,42.0242947 L78.6702437,15.255067 C79.4746306,14.7886339 80.4810556,14.7886339 81.2854425,15.255067 L127.573461,42.0242947 C128.378476,42.4907277 128.945061,43.3518349 128.945061,44.2840715 L128.945061,97.8231563 Z" id="Shape" fill="#4B32C3" fill-rule="nonzero"></path></g></g></svg> 