<svg xmlns="http://www.w3.org/2000/svg" width="51" height="28"><path d="M50.12 12.88a37.512 37.512 0 0 0-6.81-6.43C37.65 2.23 31.49 0 25.5 0S13.35 2.23 7.69 6.45a37.512 37.512 0 0 0-6.81 6.43L0 14l.88 1.12a37.512 37.512 0 0 0 6.81 6.43C13.35 25.77 19.51 28 25.5 28s12.15-2.23 17.81-6.45a37.512 37.512 0 0 0 6.81-6.43L51 14zM25.5 23.81a9.849 9.849 0 0 1-9.37-12.26l-2.21-.38a12.526 12.526 0 0 0-.33 2.83 12.156 12.156 0 0 0 3.82 8.85 31.424 31.424 0 0 1-7.53-4.15A37.937 37.937 0 0 1 4.65 14a37.937 37.937 0 0 1 5.23-4.7 31.424 31.424 0 0 1 7.53-4.15l1.48 1.69a9.591 9.591 0 0 1 6.61-2.65 9.811 9.811 0 0 1 0 19.62zm15.62-5.11a31.424 31.424 0 0 1-7.53 4.15 12.162 12.162 0 0 0 0-17.7 31.424 31.424 0 0 1 7.53 4.15 37.937 37.937 0 0 1 5.23 4.7 37.937 37.937 0 0 1-5.23 4.7zm-21.78-6.61a6.736 6.736 0 0 0-.28 1.91 6.44 6.44 0 1 0 6.44-6.52 6.366 6.366 0 0 0-4.46 1.82l3.18 3.62z" fill="#fff" fill-rule="evenodd"/></svg>