<?xml version="1.0" encoding="UTF-8"?> <svg xmlns="http://www.w3.org/2000/svg" xmlns:xlink="http://www.w3.org/1999/xlink" width="500px" height="300px" viewBox="0 0 500 300"><!-- Generator: Sketch 52.2 (67145) - http://www.bohemiancoding.com/sketch --><title>fandp</title><desc>Created with Sketch.</desc><defs><linearGradient x1="19.8469388%" y1="62.1252688%" x2="66.8870748%" y2="37.0489247%" id="linearGradient-1"><stop stop-color="#B12328" offset="0%"></stop><stop stop-color="#DD1D24" stop-opacity="0" offset="100%"></stop></linearGradient><linearGradient x1="23.862069%" y1="76.8970085%" x2="78.4689655%" y2="22.7568376%" id="linearGradient-2"><stop stop-color="#B12328" offset="0%"></stop><stop stop-color="#EC1C24" stop-opacity="0" offset="75%"></stop></linearGradient><linearGradient x1="82.0136126%" y1="34.3868687%" x2="28.5125654%" y2="71.8838384%" id="linearGradient-3"><stop stop-color="#B42429" offset="0%"></stop><stop stop-color="#EC1C24" stop-opacity="0" offset="75%"></stop></linearGradient><linearGradient x1="75.8677419%" y1="29.5492462%" x2="0.959139785%" y2="69.9728643%" id="linearGradient-4"><stop stop-color="#A92125" offset="0%"></stop><stop stop-color="#EC1C24" stop-opacity="0" offset="75%"></stop></linearGradient></defs><g id="Page-1" stroke="none" stroke-width="1" fill="none" fill-rule="evenodd"><g id="fandp" transform="translate(97.000000, 84.000000)"><g id="Слой_1_1_"><path d="M59.846683,2.55 L57.5159705,17.55 L41.6520885,17.55 L40.7498771,22.725 L55.0348894,22.725 L52.8545455,36.225 L38.5695332,36.225 L35.4117936,56.4 C30.9007371,56.4 27.4422604,56.4 22.8560197,56.4 C17.8186732,56.4 16.390172,53.7 17.0668305,49.5 C19.397543,34.5 21.2771499,24.15 23.6830467,9.225 C24.3597052,5.85 27.8181818,2.25 31.6525799,2.25 L59.7714988,2.25 L59.7714988,2.55 L59.846683,2.55 Z M106.761671,56.55 L86.3867322,56.55 L85.4845209,46.65 L71.5002457,46.65 L67.5906634,56.55 L47.0653563,56.55 L71.57543,2.55 L99.3936118,2.55 L106.761671,56.55 Z M84.5071253,33.75 L83.2289926,17.925 L83.0786241,17.925 L76.6879607,33.75 L84.5071253,33.75 Z M155.932187,4.125 L153.375921,20.7 C150.218182,18.075 146.3086,16.8 141.947912,16.8 C137.887961,16.8 134.579853,18.375 131.873219,21.675 C129.241769,24.675 127.813268,28.275 127.813268,32.325 C127.813268,35.175 128.715479,37.65 130.519902,39.525 C132.399509,41.4 134.88059,42.375 137.887961,42.375 C142.774939,42.375 146.985258,41.1 150.594103,38.475 L147.962654,55.05 C143.075676,57.225 138.038329,58.2 132.925799,58.2 C125.106634,58.2 118.941523,56.025 114.430467,51.9 C109.91941,47.7 107.663882,42.075 107.663882,34.875 C107.663882,33.15 107.814251,31.275 108.114988,29.4 C109.543489,20.325 113.904177,12.975 120.971499,7.65 C127.211794,3.075 134.128747,0.6 141.722359,0.6 C146.834889,0.825 151.646683,1.8 155.932187,4.125 Z M198.486486,2.55 L196.005405,17.55 L177.961179,17.55 L177.209337,22.575 L193.674693,22.575 L191.494349,36.075 L175.028993,36.075 L174.126781,41.4 L192.171007,41.4 L189.689926,56.55 L152.172973,56.55 L160.668796,2.55 L198.486486,2.55 Z M243.371499,5.85 L236.304177,20.55 C232.695332,17.55 228.936118,15.975 225.176904,15.975 C222.846192,15.975 221.568059,16.575 221.267322,17.85 C221.116953,18.6 221.568059,19.125 222.395086,19.875 C223.372482,20.625 225.703194,22.05 229.462408,23.925 C233.37199,25.95 236.078624,27.975 237.657494,29.85 C239.386732,31.875 240.138575,34.35 240.138575,36.9 C240.138575,37.8 239.988206,38.775 239.837838,39.75 C238.935627,45.675 236.078624,50.1 231.342015,53.55 C226.755774,56.7 221.267322,58.275 214.72629,58.275 C206.907125,58.275 199.990172,56.4 193.825061,52.5 L201.644226,37.95 C206.230467,41.4 210.440786,43.275 214.049631,43.275 C217.658477,43.275 219.538084,42.525 219.688452,41.25 C219.688452,40.95 219.688452,40.8 219.688452,40.5 C219.688452,39.6 219.086978,38.775 217.808845,37.875 C216.380344,36.9 213.448157,35.4 209.162654,33.375 C203.82457,30.9 201.19312,27.075 201.19312,21.75 C201.19312,20.775 201.343489,19.575 201.493857,18.45 C202.396069,12.825 205.102703,8.55 209.839312,5.175 C214.2,2.175 219.688452,0.675 226.003931,0.675 C232.544963,0.825 238.334152,2.4 243.371499,5.85 Z" id="Shape" fill="#000000" fill-rule="nonzero"></path><path d="M17.1420147,63.6 L299.458968,63.45 C303.218182,63.45 305.774447,66.45 305.248157,70.35 L296.451597,124.35 C295.850123,128.1 292.241278,131.25 288.482064,131.25 L6.31547912,131.25 C2.55626536,131.25 -1.6153745e-14,128.25 0.526289926,124.35 L9.02211302,70.35 C9.77395577,66.75 13.382801,63.6 17.1420147,63.6 Z" id="Path" fill="#000000"></path><path d="M60.372973,89.325 C59.4707617,94.5 57.0648649,98.55 53.004914,101.4 C48.7945946,104.4 43.3061425,105.9 36.6899263,105.9 L30.6,105.9 L27.8181818,124.35 L8.34545455,124.35 L16.8412776,70.35 L40.2235872,70.35 C47.2909091,70.35 52.6289926,71.925 56.0874693,74.925 C59.0948403,77.55 60.5985258,81.15 60.5985258,85.725 C60.6737101,86.925 60.5233415,88.2 60.372973,89.325 Z M41.2009828,88.2 C41.2009828,87.9 41.2009828,87.45 41.2009828,87.225 C41.2009828,84.6 39.4717445,83.325 36.1636364,83.325 L34.1336609,83.325 L32.7051597,93.15 L34.1336609,93.15 C38.3439803,93.075 40.5995086,91.5 41.2009828,88.2 Z M97.2132678,109.35 L94.8825553,124.35 L58.3429975,124.35 L66.8388206,70.35 L86.1611794,70.35 L79.9208845,109.35 L97.2132678,109.35 Z M157.210319,124.5 L136.835381,124.5 L135.93317,114.6 L121.948894,114.6 L118.039312,124.5 L97.5140049,124.5 L122.024079,70.5 L149.84226,70.5 L157.210319,124.5 Z M135.030958,101.7 L133.752826,85.875 L133.602457,85.875 L127.286978,101.7 L135.030958,101.7 Z M207.358231,72.075 L204.726781,88.65 C201.569042,86.025 197.659459,84.75 193.298771,84.75 C189.238821,84.75 185.930713,86.325 183.224079,89.625 C180.592629,92.625 179.164128,96.225 179.164128,100.275 C179.164128,103.125 180.066339,105.6 181.870762,107.475 C183.750369,109.35 186.23145,110.325 189.238821,110.325 C194.125799,110.325 198.336118,109.05 201.944963,106.425 L199.313514,123 C194.426536,125.175 189.389189,126.15 184.276658,126.15 C176.457494,126.15 170.292383,123.975 165.781327,119.85 C161.27027,115.65 159.014742,110.025 159.014742,102.825 C159.014742,101.1 159.165111,99.225 159.465848,97.35 C160.894349,88.125 165.255037,80.925 172.322359,75.6 C178.562654,71.025 185.479607,68.55 193.073219,68.55 C198.260934,68.775 202.997543,69.75 207.358231,72.075 Z M250.062899,70.5 L247.732187,85.5 L229.687961,85.5 L228.936118,90.525 L245.401474,90.525 L243.22113,104.025 L226.755774,104.025 L225.853563,109.35 L243.897789,109.35 L241.567076,124.35 L204.050123,124.35 L212.545946,70.35 L249.912531,70.35 L249.912531,70.5 L250.062899,70.5 Z M295.774939,73.8 L288.707617,88.5 C285.098771,85.5 281.339558,83.925 277.580344,83.925 C275.249631,83.925 273.971499,84.525 273.670762,85.8 C273.520393,86.55 273.971499,87.075 274.798526,87.825 C275.775921,88.575 278.106634,90 281.865848,91.875 C285.77543,93.9 288.482064,95.925 290.060934,97.8 C291.790172,99.825 292.542015,102.3 292.542015,104.85 C292.542015,105.75 292.391646,106.725 292.241278,107.7 C291.339066,113.625 288.482064,118.05 283.745455,121.5 C279.159214,124.65 273.670762,126.225 267.12973,126.225 C259.310565,126.225 252.393612,124.35 246.228501,120.45 L254.047666,105.9 C258.633907,109.35 262.844226,111.225 266.453071,111.225 C270.061916,111.225 271.941523,110.475 272.091892,109.2 C272.091892,108.9 272.24226,108.75 272.24226,108.45 C272.24226,107.55 271.640786,106.725 270.362654,105.825 C268.934152,104.85 266.001966,103.35 261.716462,101.325 C256.378378,98.85 253.746929,95.025 253.746929,89.7 C253.746929,88.725 253.897297,87.525 254.047666,86.4 C254.949877,80.775 257.656511,76.35 262.39312,73.125 C266.753808,70.125 272.24226,68.625 278.55774,68.625 C284.948403,68.775 290.587224,70.35 295.774939,73.8 Z" id="Shape" fill="#FFFFFF" fill-rule="nonzero"></path></g><g id="Layer_2" transform="translate(250.000000, 2.000000)"><path d="M54.4797297,35.625 L45.3378378,42.975 L47.3445946,45.675 C50.7635135,50.175 49.6486486,55.05 42.8851351,55.05 L34.7837838,55.05 L32.1081081,51.6 C29.5067568,53.325 27.1283784,54.6 24.972973,55.35 C22.6689189,56.1 19.8445946,56.475 16.5743243,56.475 C10.7027027,56.475 6.31756757,55.05 3.56756757,52.275 C1.26351351,50.1 0.148648649,47.25 0.148648649,43.65 C0.148648649,39.6 1.70945946,35.85 4.68243243,32.55 C7.35810811,29.7 10.7027027,27.525 14.9391892,25.95 C13.0810811,22.95 12.2635135,20.175 12.2635135,17.475 C12.2635135,16.725 12.2635135,15.9 12.4121622,15.15 C13.0067568,11.25 15.0135135,7.8 18.4324324,5.1 C22.1486486,1.95 26.8310811,0.525 32.4054054,0.525 C37.6824324,0.525 41.5472973,1.8 44.0743243,4.575 C46.2297297,6.75 47.1959459,9.45 47.1959459,12.9 C47.1959459,13.65 47.1959459,14.475 47.0472973,15.225 C46.1554054,20.7 42.2162162,25.575 35.0810811,29.775 L37.3851351,33.075 L46.8243243,25.35 L54.4797297,35.625 Z M32.9256757,15.75 C32.9256757,15.45 32.9256757,15.15 32.9256757,14.775 C32.9256757,13.2 32.1824324,12.3 30.9189189,12.3 C29.5067568,12.3 28.6148649,13.425 28.2432432,15.9 C28.2432432,16.35 28.0945946,16.65 28.0945946,16.875 C28.0945946,17.85 28.5405405,19.2 29.3581081,20.325 C31.5135135,19.2 32.7027027,17.475 32.9256757,15.75 Z M24.6756757,41.325 L21.2567568,36 C19.25,37.275 17.9864865,39 17.6891892,41.025 C17.6891892,41.325 17.6891892,41.625 17.6891892,41.925 C17.6891892,43.35 18.5810811,44.1 20.1418919,44.1 C20.9594595,44.1 22.5202703,43.05 24.6756757,41.325 Z" id="Shape" fill="#EC2024" fill-rule="nonzero"></path><path d="M35.0810811,29.85 C35.0810811,29.85 32.6283784,26.55 30.5472973,22.65 C29.9527027,21.75 29.6554054,21.075 29.4324324,20.625 C30.1756757,20.175 30.9932432,19.5 31.7364865,18.45 C32.1824324,17.85 32.4797297,17.325 32.6283784,17.175 C32.9256757,16.575 32.9256757,16.2 33.0743243,15.9 C35.527027,19.35 37.9054054,22.8 40.3581081,26.25 C39.6148649,26.85 38.7972973,27.525 37.9054054,28.125 C36.7905405,28.8 35.972973,29.25 35.0810811,29.85 Z" id="Path" fill="url(#linearGradient-1)"></path><path d="M45.3378378,43.05 C44.5945946,42.075 44.0743243,41.325 43.777027,40.875 C43.6283784,40.575 43.0337838,39.975 41.6216216,38.25 C40.2094595,36.525 39.9121622,36.225 39.1689189,35.4 C38.277027,34.425 37.7567568,33.525 37.3108108,33.075 L46.8243243,25.5 L54.5540541,35.7 L45.3378378,43.05 Z" id="Path" fill="url(#linearGradient-2)"></path><path d="M21.2567568,35.85 C21.2567568,35.85 18.6554054,32.1 16.277027,27.9 C15.8310811,27 15.3851351,26.325 15.3108108,26.025 C13.8986486,26.475 12.3378378,27.15 10.4797297,28.2 C9.06756757,29.1 7.87837838,29.775 7.06081081,30.675 C10.6283784,34.125 14.1959459,37.425 17.9121622,40.875 C18.0608108,40.275 18.3581081,39.15 19.1756757,38.025 C19.6959459,36.9 20.6621622,36.3 21.2567568,35.85 Z" id="Path" fill="url(#linearGradient-3)"></path><path d="M32.2567568,51.6 C32.2567568,51.6 29.4324324,48 26.6824324,44.1 C25.7905405,42.975 25.1216216,41.925 24.6756757,41.4 C23.9324324,42.15 23.2635135,42.525 22.6689189,42.975 C22.3716216,43.275 21.7027027,43.725 20.8108108,43.95 C20.3648649,44.1 20.0675676,44.1 19.9189189,44.1 C19.6216216,44.1 19.1756757,44.1 19.1756757,44.1 C19.1756757,44.1 19.1756757,44.1 19.027027,44.1 C18.7297297,44.1 18.5810811,43.95 18.4324324,43.8 C19.3243243,48 20.1418919,52.125 21.0337838,56.325 C21.1824324,56.325 21.4797297,56.175 21.9256757,56.175 C22.8175676,56.025 24.2297297,55.725 25.9391892,55.2 C27.3513514,54.6 28.5405405,54.075 29.3581081,53.625 C30.5472973,52.875 31.5135135,52.125 32.2567568,51.6 Z" id="Path" fill="url(#linearGradient-4)"></path></g></g></g></svg> 