<?xml version="1.0" encoding="UTF-8"?> <svg xmlns="http://www.w3.org/2000/svg" xmlns:xlink="http://www.w3.org/1999/xlink" width="500px" height="300px" viewBox="0 0 500 300"><!-- Generator: Sketch 52.2 (67145) - http://www.bohemiancoding.com/sketch --><title>fitness</title><desc>Created with Sketch.</desc><g id="Page-1" stroke="none" stroke-width="1" fill="none" fill-rule="evenodd"><g id="fitness" transform="translate(100.000000, 121.000000)"><path d="M162.250316,14.3883871 L168.091024,21.9632258 L169.721871,20.9354839 L168.546144,22.8006452 L174.424779,30.8703226 L156.864728,13.2464516 C156.675095,13.2464516 156.485461,13.2083871 156.257901,13.2083871 L164.298357,24.3612903 L165.208597,23.7522581 L166.87737,25.4270968 L166.156764,26.6070968 L174.614412,37.6458065 L150.644753,13.5890323 C150.530973,13.6270968 150.379267,13.6270968 150.265487,13.6651613 L160.429836,26.8354839 L161.415929,26.1883871 L164.48799,29.2716129 L163.69153,30.5277419 L173.135272,42.5941935 L145.828066,15.0354839 C145.714286,15.0735484 145.638432,15.1116129 145.524652,15.1877419 L156.713021,29.1954839 L157.585335,28.6245161 L162.060683,33.116129 L161.112516,34.6767742 L170.707965,46.0580645 L141.997472,17.2051613 C141.883692,17.2812903 141.807838,17.3574194 141.694058,17.4335484 L152.844501,31.6696774 L153.868521,31.0225806 L159.747155,36.9225806 L158.723135,38.4832258 L167.901391,49.7503226 L138.280657,20.4406452 C138.166877,20.5548387 138.053097,20.6690323 137.977244,20.7832258 L149.013906,34.0677419 L149.810367,33.5729032 L157.168142,40.9574194 L156.106195,42.7083871 L164.184576,52.7193548 L135.62579,23.9806452 C135.549937,24.1329032 135.474083,24.2470968 135.39823,24.3993548 L144.993679,36.6941935 L145.828066,36.1612903 L154.664981,45.0683871 L153.640961,46.7432258 L160.278129,55.1174194 L133.615676,28.2058065 C133.539823,28.396129 133.501896,28.5864516 133.426043,28.7767742 L141.238938,39.0922581 L142.073325,38.5593548 L152.275601,48.8748387 L150.986094,50.9683871 L154.399494,55.7264516 L132.364096,33.6109677 C132.364096,33.8012903 132.326169,33.9916129 132.326169,34.1819355 L137.256637,41.6425806 L138.015171,41.1477419 L149.77244,52.9477419 L148.103666,55.6122581 L132.743363,40.196129 C134.71555,50.7019355 143.931732,58.6954839 155.006321,58.6954839 C167.522124,58.6954839 177.686473,48.4941935 177.686473,35.9329032 C177.648546,25.9219355 171.201011,17.4335484 162.250316,14.3883871 Z" id="Path" fill="#F3C644"></path><g id="Group"><g transform="translate(0.000000, 23.600000)"><path d="M87.4589128,7.80322581 L87.4589128,16.7483871 C87.4589128,19.0703226 87.9140329,20.8593548 88.8621997,22.1154839 C89.8103666,23.4096774 91.3274336,24.0187097 93.2996207,24.0187097 C94.9304678,24.0187097 96.182048,23.5619355 97.0164349,22.6483871 L97.0164349,23.7141935 L101.188369,23.7141935 L101.188369,7.72709677 L97.0164349,7.72709677 L97.0164349,16.4819355 C97.0164349,17.776129 96.7888748,18.7277419 96.2958281,19.2987097 C95.9165613,19.7935484 95.2338812,20.0980645 94.323641,20.0980645 C93.4134008,20.0980645 92.7686473,19.8316129 92.3514539,19.2987097 C91.8584071,18.6896774 91.630847,17.7380645 91.630847,16.3677419 L91.630847,7.80322581 L87.4589128,7.80322581 Z M57.3830594,19.8696774 C57.0417193,19.4890323 56.8900126,19.0322581 56.8900126,18.4232258 C56.8900126,17.1290323 57.6864728,16.443871 59.3173198,16.443871 C60.5689001,16.443871 61.517067,16.6722581 62.1997472,17.0529032 L62.1997472,19.0703226 C61.9721871,19.4509677 61.630847,19.7935484 61.1378003,20.0980645 C60.5689001,20.3645161 59.9620733,20.5548387 59.3552465,20.5548387 C58.4450063,20.5548387 57.8381795,20.3264516 57.3830594,19.8696774 Z M25.676359,9.82064516 C24.3109987,11.3812903 23.6662453,13.3606452 23.6662453,15.7967742 C23.6662453,18.3470968 24.3489254,20.3264516 25.676359,21.7729032 C27.0417193,23.2954839 28.8242731,24.0187097 31.1378003,24.0187097 C32.1997472,24.0187097 33.2616941,23.7903226 34.2857143,23.4096774 C35.3476612,22.9148387 36.182048,22.2677419 36.8268015,21.5064516 L33.8685209,19.0322581 C33.2616941,19.7554839 32.3514539,20.1741935 31.1757269,20.1741935 C30.3413401,20.1741935 29.6207332,19.9458065 29.0518331,19.4890323 C28.369153,18.9180645 27.9898862,18.1187097 27.9140329,17.1290323 L37.357775,17.1290323 L37.471555,15.8348387 C37.471555,13.4748387 36.8647282,11.4954839 35.6890013,9.97290323 C34.437421,8.33612903 32.806574,7.49870968 30.7964602,7.49870968 C28.710493,7.46064516 27.0417193,8.22193548 25.676359,9.82064516 Z M10.1264223,7.95548387 C9.4437421,7.61290323 8.60935525,7.46064516 7.66118837,7.46064516 C6.21997472,7.46064516 5.00632111,7.91741935 4.17193426,8.86903226 L4.17193426,7.80322581 L0,7.80322581 L0,23.7522581 L4.17193426,23.7522581 L4.17193426,14.9974194 C4.17193426,13.7032258 4.39949431,12.7516129 4.77876106,12.1806452 C5.15802781,11.6858065 5.84070796,11.3812903 6.75094817,11.3812903 C7.58533502,11.3812903 8.26801517,11.6477419 8.64728192,12.1806452 C9.02654867,12.7516129 9.25410872,13.7032258 9.25410872,15.1116129 L9.25410872,23.7522581 L13.426043,23.7522581 L13.426043,14.9974194 C13.426043,13.7032258 13.653603,12.7516129 14.0328698,12.1806452 C14.4121365,11.6858065 15.0948167,11.3812903 16.0050569,11.3812903 C16.8394437,11.3812903 17.5221239,11.6477419 17.9013906,12.1806452 C18.2806574,12.7516129 18.5082174,13.7032258 18.5082174,15.1116129 L18.5082174,23.7522581 L22.6801517,23.7522581 L22.6801517,14.7309677 C22.6801517,9.89677419 20.783818,7.46064516 16.9911504,7.46064516 C15.8154235,7.46064516 14.7534766,7.68903226 13.9190898,8.06967742 C13.2364096,8.33612903 12.5537295,8.86903226 11.9469027,9.51612903 C11.3400759,8.79290323 10.7332491,8.22193548 10.1264223,7.95548387 Z M54.5764855,14.4264516 C53.3249052,15.3780645 52.7180784,16.6722581 52.7180784,18.3851613 C52.7180784,20.1741935 53.3249052,21.5825806 54.5764855,22.6864516 C55.6384324,23.6 57.0037927,24.0567742 58.6346397,24.0567742 C60.1517067,24.0567742 61.3274336,23.6 62.1618205,22.6864516 L62.1618205,23.7522581 L66.3716814,23.7522581 L66.3716814,13.0941935 C66.3716814,11.3432258 65.7648546,9.93483871 64.5891277,8.90709677 C63.4134008,7.95548387 61.8963338,7.46064516 59.9241466,7.46064516 C58.6725664,7.46064516 57.6106195,7.61290323 56.6624526,7.91741935 C55.8659924,8.14580645 54.9936789,8.52645161 53.9696587,9.09741935 L55.6005057,12.0283871 C56.3211125,11.6477419 56.965866,11.3432258 57.5726928,11.1909677 L59.9241466,10.9625806 C60.6447535,10.9625806 61.289507,11.1148387 61.6687737,11.5335484 C62.0101138,11.9141935 62.1618205,12.3709677 62.1618205,12.98 L62.1618205,13.7793548 C61.3274336,13.3225806 60.3034134,13.0941935 59.1276865,13.0941935 C57.2692794,13.0941935 55.7522124,13.5509677 54.5764855,14.4264516 Z M33.3375474,14.0077419 L27.9519595,14.0077419 C27.9898862,13.1703226 28.2932996,12.4851613 28.7484197,11.9903226 C29.2035398,11.4193548 29.8103666,11.1529032 30.5309735,11.1529032 C31.3653603,11.1529032 32.0859671,11.4193548 32.6169406,12.0664516 C33.0720607,12.5232258 33.2616941,13.1322581 33.3375474,14.0077419 Z M42.3261694,15.5303226 C42.3261694,18.6135484 43.2364096,20.1741935 45.0189633,20.1741935 C46.0809102,20.1741935 46.9152971,19.7174194 47.5979772,18.803871 L47.5979772,12.7516129 C46.9911504,11.8380645 46.0429836,11.3812903 44.7914033,11.3812903 C43.1605563,11.3812903 42.3261694,12.7516129 42.3261694,15.5303226 Z M44.2983565,7.46064516 C45.5878635,7.46064516 46.7256637,7.91741935 47.5979772,8.75483871 L47.5979772,7.80322581 L51.7699115,7.80322581 L51.7699115,21.0496774 C51.7699115,23.4858065 51.4285714,25.3509677 50.8217446,26.5309677 C50.1011378,27.9012903 48.7357775,28.7767742 46.8773704,29.2335484 C45.7016435,29.6141935 44.1087231,29.7283871 42.0986094,29.6903226 L40.8470291,26.5309677 L41.6814159,26.5309677 L44.2604298,26.3025806 C45.5499368,26.0741935 46.3843236,25.6935484 46.9152971,25.1606452 C47.3704172,24.6658065 47.5979772,23.8664516 47.5979772,22.7245161 C46.6498104,23.5619355 45.5120101,24.0187097 44.2983565,24.0187097 C42.4399494,24.0187097 40.9987358,23.3335484 39.8988622,22.0393548 C38.7231353,20.5167742 38.1163085,18.3851613 38.1163085,15.5683871 C38.1163085,13.1322581 38.6852086,11.1529032 39.7471555,9.74451613 C40.8091024,8.22193548 42.3261694,7.46064516 44.2983565,7.46064516 Z M115.183312,9.44 C114.159292,8.14580645 112.718078,7.46064516 110.745891,7.46064516 C109.115044,7.46064516 107.863464,7.91741935 107.029077,8.86903226 L107.029077,7.80322581 L102.819216,7.80322581 L102.819216,23.7522581 L107.029077,23.7522581 L107.029077,14.9974194 C107.029077,13.7032258 107.256637,12.7516129 107.711757,12.1806452 C108.166877,11.6858065 108.849558,11.3812903 109.721871,11.3812903 C110.594185,11.3812903 111.276865,11.6477419 111.694058,12.1806452 C112.187105,12.7896774 112.414665,13.7412903 112.414665,15.1116129 L112.414665,23.7522581 L116.586599,23.7522581 L116.586599,14.7309677 C116.586599,12.4090323 116.131479,10.6580645 115.183312,9.44 Z" id="Shape" fill="#3D3C3C" fill-rule="nonzero"></path><path d="M67.7370417,7.68903226 C67.7370417,9.89677419 68.4197219,11.5716129 69.7471555,12.7135484 C70.9228824,13.6651613 73.0467762,14.5025806 76.0429836,15.263871 C77.5600506,15.6064516 78.6219975,15.9490323 79.2288243,16.2916129 C79.721871,16.5580645 80.0252845,16.9767742 80.0252845,17.4335484 C80.0252845,18.0045161 79.7977244,18.3851613 79.3426043,18.6135484 C78.9633375,18.8419355 78.1668774,18.956129 76.9911504,18.956129 C75.9292035,18.956129 74.7534766,18.7277419 73.3881163,18.2329032 C72.0986094,17.7380645 71.0366625,17.2051613 70.1264223,16.596129 L66.9785082,21.6587097 C68.2680152,22.496129 69.7471555,23.2193548 71.4159292,23.7522581 C73.1984829,24.2470968 75.0189633,24.5516129 76.8773704,24.5516129 C79.8356511,24.5516129 82.1491783,23.9806452 83.7800253,22.8006452 C85.6384324,21.5064516 86.5486726,19.5270968 86.5486726,16.9387097 C86.5486726,14.8451613 85.8659924,13.2083871 84.5385588,12.0283871 C83.2490518,10.9625806 81.125158,10.0490323 78.0151707,9.32580645 C76.4981037,8.98322581 75.4740834,8.71677419 74.9810367,8.41225806 C74.4879899,8.14580645 74.1845765,7.80322581 74.1845765,7.34645161 C74.1845765,6.39483871 74.9810367,5.93806452 76.6118837,5.93806452 C78.8116308,5.93806452 80.9355247,6.66129032 83.1352718,8.14580645 L86.2831858,3.00709677 C83.7420986,1.21806452 80.5941846,0.304516129 76.9532238,0.304516129 C74.1466498,0.304516129 71.908976,0.989677419 70.2022756,2.32193548 C68.5714286,3.61612903 67.7370417,5.40516129 67.7370417,7.68903226 Z" id="Path" fill="#E5AF4D"></path></g><path d="M90,24.3232258 C87.9898862,25.1987097 87.2692794,23.2574194 86.7762326,22.5341935 C77.5600506,8.4883871 62.806574,16.5580645 61.0998736,28.5483871 C60.9481669,29.576129 60.7585335,29.7664516 60.3413401,29.7664516 C59.9620733,29.7664516 59.6207332,29.3858065 59.6207332,28.5864516 C60.3413401,13.1703226 79.9115044,5.59548387 89.7345133,20.8212903 C90.2654867,21.6206452 91.289507,23.4477419 90,24.3232258 Z" id="Path" fill="#DFAD53"></path><path d="M57.4968394,23.9806452 C56.7762326,25.3890323 56.8900126,25.3129032 56.965866,26.9496774 L47.1049305,23.8283871 L57.4968394,23.9806452 Z" id="Path" fill="#DFAD53"></path><path d="M63.4513274,14.3503226 C62.0480405,15.0735484 62.1997472,15.0735484 61.2515803,16.443871 L55.1074589,8.10774194 L63.4513274,14.3503226 Z" id="Path" fill="#DFAD53"></path><path d="M73.9949431,9.82064516 C72.4399494,9.63032258 72.5537295,9.70645161 71.0366625,10.3535484 L70.505689,0 L73.9949431,9.82064516 Z" id="Path" fill="#DFAD53"></path><path d="M85.1074589,12.2567742 C83.931732,11.1909677 83.9696587,11.3432258 82.3767383,10.9625806 L87.8761062,2.16967742 L85.1074589,12.2567742 Z" id="Path" fill="#DFAD53"></path></g><g id="Group" transform="translate(193.426043, 23.980645)" fill="#3D3C3C"><path d="M8.15423515,6.39483871 L10.8849558,6.39483871 L10.8849558,10.62 L8.15423515,10.62 L8.15423515,21.4303226 L2.38938053,21.4303226 L2.38938053,10.62 L0.227560051,10.62 L0.227560051,6.39483871 L2.38938053,6.39483871 L2.38938053,5.70967742 C2.38938053,5.10064516 2.46523388,4.41548387 2.57901391,3.69225806 C2.69279393,2.96903226 2.95828066,2.36 3.33754741,1.90322581 C3.71681416,1.44645161 4.20986094,1.06580645 4.85461441,0.761290323 C5.49936789,0.456774194 6.44753477,0.342580645 7.73704172,0.342580645 C8.76106195,0.342580645 10.2022756,0.456774194 12.136536,0.68516129 L11.4917826,4.18709677 C10.8091024,4.07290323 10.2402023,4.03483871 9.82300885,4.03483871 C9.2920354,4.03483871 8.95069532,4.11096774 8.72313527,4.30129032 C8.49557522,4.4916129 8.34386852,4.75806452 8.2300885,5.13870968 C8.19216182,5.29096774 8.15423515,5.74774194 8.15423515,6.39483871 Z" id="Path"></path><path d="M13.2364096,0.68516129 L18.9633375,0.68516129 L18.9633375,4.60580645 L13.2364096,4.60580645 L13.2364096,0.68516129 Z M13.2364096,6.39483871 L18.9633375,6.39483871 L18.9633375,21.4303226 L13.2364096,21.4303226 L13.2364096,6.39483871 Z" id="Shape" fill-rule="nonzero"></path><path d="M29.5828066,0.68516129 L29.5828066,6.39483871 L32.7307206,6.39483871 L32.7307206,10.62 L29.5828066,10.62 L29.5828066,15.9490323 C29.5828066,16.596129 29.6586599,17.0148387 29.7724399,17.2051613 C29.9620733,17.5096774 30.3034134,17.7 30.7585335,17.7 C31.1757269,17.7 31.7825537,17.5858065 32.5410872,17.3193548 L32.9582807,21.316129 C31.5549937,21.6206452 30.2275601,21.7729032 28.9759798,21.7729032 C27.5347661,21.7729032 26.5107459,21.5825806 25.8280657,21.24 C25.1453856,20.8593548 24.6523388,20.3264516 24.3109987,19.5651613 C23.9696587,18.803871 23.817952,17.5858065 23.817952,15.9109677 L23.817952,10.62 L21.6940582,10.62 L21.6940582,6.39483871 L23.817952,6.39483871 L23.817952,3.61612903 L29.5828066,0.68516129 Z" id="Path"></path><path d="M35.4614412,6.39483871 L40.8091024,6.39483871 L40.8091024,8.83096774 C41.6055626,7.84129032 42.4020228,7.11806452 43.2364096,6.69935484 C44.0707965,6.28064516 45.05689,6.05225806 46.2326169,6.05225806 C47.8255373,6.05225806 49.0771176,6.50903226 49.9494311,7.46064516 C50.8596713,8.41225806 51.3147914,9.85870968 51.3147914,11.876129 L51.3147914,21.4303226 L45.5499368,21.4303226 L45.5499368,13.1703226 C45.5499368,12.2187097 45.3603034,11.5716129 45.0189633,11.1529032 C44.6776233,10.7722581 44.1845765,10.5819355 43.539823,10.5819355 C42.8571429,10.5819355 42.2882427,10.8483871 41.8331226,11.3812903 C41.4159292,11.9141935 41.1883692,12.8658065 41.1883692,14.236129 L41.1883692,21.4683871 L35.4614412,21.4683871 L35.4614412,6.39483871 Z" id="Path"></path><path d="M71.3780025,15.34 L59.8482933,15.34 C59.9620733,16.2535484 60.1896334,16.9387097 60.6068268,17.3954839 C61.1757269,18.0425806 61.8963338,18.3851613 62.7686473,18.3851613 C63.3375474,18.3851613 63.8685209,18.2329032 64.3615676,17.9664516 C64.664981,17.776129 65.0063211,17.4716129 65.3476612,17.0148387 L70.9987358,17.5477419 C70.1264223,19.0703226 69.102402,20.136129 67.8508217,20.7832258 C66.6371681,21.4303226 64.8546144,21.7729032 62.5790139,21.7729032 C60.6068268,21.7729032 59.0139064,21.5064516 57.8761062,20.9354839 C56.7383059,20.3645161 55.7901391,19.4890323 55.0316056,18.2709677 C54.2730721,17.0529032 53.8938053,15.6064516 53.8938053,13.9696774 C53.8938053,11.6096774 54.6523388,9.70645161 56.1314791,8.26 C57.6485461,6.81354839 59.6965866,6.09032258 62.3514539,6.09032258 C64.5132743,6.09032258 66.182048,6.43290323 67.4336283,7.08 C68.6852086,7.72709677 69.6333755,8.67870968 70.278129,9.89677419 C70.9228824,11.1529032 71.2642225,12.7516129 71.2642225,14.7309677 L71.2642225,15.34 L71.3780025,15.34 Z M65.5372946,12.5993548 C65.4235145,11.4954839 65.1201011,10.696129 64.6270544,10.2012903 C64.1340076,9.70645161 63.4892541,9.47806452 62.7307206,9.47806452 C61.8204804,9.47806452 61.0998736,9.85870968 60.5309735,10.5819355 C60.1896334,11.0387097 59.9620733,11.723871 59.88622,12.5993548 L65.5372946,12.5993548 Z" id="Shape" fill-rule="nonzero"></path><path d="M73.0088496,17.2812903 L78.6978508,16.7483871 C78.9254109,17.4335484 79.2667509,17.9283871 79.6839444,18.1948387 C80.1011378,18.4993548 80.6700379,18.6516129 81.3906448,18.6516129 C82.1491783,18.6516129 82.7560051,18.4993548 83.1731985,18.1567742 C83.5145386,17.9283871 83.6662453,17.623871 83.6662453,17.2432258 C83.6662453,16.8245161 83.4386852,16.52 83.0214918,16.2916129 C82.7180784,16.1393548 81.8836915,15.9490323 80.5562579,15.6825806 C78.5461441,15.34 77.1807838,14.9974194 76.3843236,14.7309677 C75.6257901,14.4264516 74.94311,13.9316129 74.4121365,13.2083871 C73.8811631,12.4851613 73.6156764,11.6858065 73.6156764,10.7722581 C73.6156764,9.78258065 73.9190898,8.94516129 74.4879899,8.22193548 C75.05689,7.49870968 75.8533502,6.96580645 76.8773704,6.62322581 C77.9013906,6.28064516 79.2288243,6.09032258 80.9355247,6.09032258 C82.7180784,6.09032258 84.045512,6.24258065 84.8798989,6.50903226 C85.7142857,6.77548387 86.4348925,7.19419355 87.0037927,7.76516129 C87.5726928,8.33612903 88.0278129,9.13548387 88.4070796,10.0870968 L82.9456384,10.62 C82.7939317,10.1251613 82.5663717,9.78258065 82.2250316,9.55419355 C81.7699115,9.24967742 81.2389381,9.09741935 80.5941846,9.09741935 C79.9494311,9.09741935 79.4563843,9.2116129 79.1908976,9.44 C78.8874842,9.6683871 78.7357775,9.93483871 78.7357775,10.2774194 C78.7357775,10.6580645 78.9254109,10.9245161 79.3046776,11.1148387 C79.6839444,11.3051613 80.4804046,11.4574194 81.7699115,11.6096774 C83.6662453,11.8380645 85.1074589,12.1425806 86.0176991,12.5232258 C86.9279393,12.903871 87.6485461,13.4748387 88.1415929,14.16 C88.6346397,14.8832258 88.9001264,15.6825806 88.9001264,16.52 C88.9001264,17.3954839 88.6346397,18.2329032 88.1036662,19.0703226 C87.5726928,19.9077419 86.7762326,20.5548387 85.6384324,21.0116129 C84.5006321,21.5064516 82.9835651,21.7348387 81.0493047,21.7348387 C78.3185841,21.7348387 76.346397,21.3541935 75.2085967,20.5548387 C74.0707965,19.8316129 73.312263,18.7277419 73.0088496,17.2812903 Z" id="Path"></path><path d="M90.6447535,17.2812903 L96.3337547,16.7483871 C96.5613148,17.4335484 96.9026549,17.9283871 97.3198483,18.1948387 C97.7370417,18.4993548 98.3059418,18.6516129 99.0265487,18.6516129 C99.7850822,18.6516129 100.391909,18.4993548 100.809102,18.1567742 C101.150442,17.9283871 101.302149,17.623871 101.302149,17.2432258 C101.302149,16.8245161 101.074589,16.52 100.657396,16.2916129 C100.353982,16.1393548 99.5195954,15.9490323 98.1921618,15.6825806 C96.182048,15.34 94.8166877,14.9974194 94.0202276,14.7309677 C93.2616941,14.4264516 92.5790139,13.9316129 92.0480405,13.2083871 C91.517067,12.4851613 91.2515803,11.6858065 91.2515803,10.7722581 C91.2515803,9.78258065 91.5549937,8.94516129 92.1238938,8.22193548 C92.6927939,7.49870968 93.4892541,6.96580645 94.5132743,6.62322581 C95.5372946,6.28064516 96.8647282,6.09032258 98.5714286,6.09032258 C100.353982,6.09032258 101.681416,6.24258065 102.515803,6.50903226 C103.35019,6.77548387 104.070796,7.19419355 104.639697,7.76516129 C105.208597,8.33612903 105.663717,9.13548387 106.042984,10.0870968 L100.581542,10.62 C100.429836,10.1251613 100.202276,9.78258065 99.8609355,9.55419355 C99.4058154,9.24967742 98.874842,9.09741935 98.2300885,9.09741935 C97.585335,9.09741935 97.0922882,9.2116129 96.8268015,9.44 C96.5233881,9.6683871 96.3716814,9.93483871 96.3716814,10.2774194 C96.3716814,10.6580645 96.5613148,10.9245161 96.9405815,11.1148387 C97.3198483,11.3051613 98.1163085,11.4574194 99.4058154,11.6096774 C101.302149,11.8380645 102.743363,12.1425806 103.653603,12.5232258 C104.60177,12.903871 105.28445,13.4748387 105.777497,14.16 C106.270544,14.8832258 106.53603,15.6825806 106.53603,16.52 C106.53603,17.3954839 106.270544,18.2329032 105.73957,19.0703226 C105.208597,19.9077419 104.412137,20.5548387 103.274336,21.0116129 C102.136536,21.5064516 100.619469,21.7348387 98.6852086,21.7348387 C95.954488,21.7348387 93.9823009,21.3541935 92.8445006,20.5548387 C91.7446271,19.8316129 90.9860936,18.7277419 90.6447535,17.2812903 Z" id="Path"></path></g></g></g></svg> 