<?xml version="1.0" encoding="utf-8"?>
<!-- Generator: Adobe Illustrator 22.1.0, SVG Export Plug-In . SVG Version: 6.00 Build 0)  -->
<svg version="1.1" id="Слой_1" xmlns="http://www.w3.org/2000/svg" xmlns:xlink="http://www.w3.org/1999/xlink" x="0px" y="0px"
	 viewBox="0 0 512 512" style="enable-background:new 0 0 512 512;" xml:space="preserve">
<style type="text/css">
	.st0{fill:#341BB5;}
	.st1{fill:#4A3AED;}
	.st2{fill:#E4E4E4;}
	.st3{fill:#D9D9D9;}
	.st4{fill:#C0C0C0;}
	.st5{fill:#E6E6E6;}
	.st6{fill:#FFFFFF;}
</style>
<path class="st0" d="M386.7,54.2C314.5-18,197.4-18,125.2,54.2c-62.9,62.9-72,161.8-21.7,235.2L256,512l152.5-222.6
	C458.8,216,449.7,117.1,386.7,54.2z"/>
<path class="st1" d="M386.7,54.2C350.6,18.1,303.3,0,256,0v512l152.5-222.6C458.8,216,449.7,117.1,386.7,54.2z"/>
<path class="st2" d="M185.5,157.7v88.7h141v-88.7L256,98.4L185.5,157.7z"/>
<path class="st3" d="M256,246.4h70.5v-88.7L256,98.4V246.4z"/>
<path class="st4" d="M345.5,191L256,117.8l-89.1,72.8l-19-23.2L256,79.1l108.5,88.7L345.5,191z"/>
<path class="st5" d="M345.5,191L256,117.8V79.1l108.5,88.7L345.5,191z"/>
<path class="st6" d="M241,199.9h30v46.6h-30V199.9z"/>
<path class="st6" d="M255.8,199.9H271v46.6h-15.2V199.9z"/>
</svg>
