<?xml version="1.0" encoding="UTF-8"?> <svg xmlns="http://www.w3.org/2000/svg" xmlns:xlink="http://www.w3.org/1999/xlink" width="500px" height="300px" viewBox="0 0 500 300"><!-- Generator: Sketch 52.2 (67145) - http://www.bohemiancoding.com/sketch --><title>git-seeklogo.com</title><desc>Created with Sketch.</desc><g id="Page-1" stroke="none" stroke-width="1" fill="none" fill-rule="evenodd"><g id="git-seeklogo.com" transform="translate(164.000000, 64.000000)" fill="#DE4C36"><path d="M168.755884,78.3377734 L93.6580693,3.24417916 C89.3363543,-1.08139305 82.3215889,-1.08139305 77.9942127,3.24417916 L62.4001823,18.8385086 L82.181935,38.6206412 C86.7791826,37.0674363 92.0501649,38.1091971 95.7151302,41.7742326 C99.3970798,45.461915 100.431272,50.7782924 98.8403527,55.3907263 L117.904965,74.4557046 C122.51731,72.866642 127.839247,73.8951922 131.523085,77.5847618 C136.671398,82.7312867 136.671398,91.0729228 131.523085,96.2232224 C126.372884,101.373522 118.031408,101.373522 112.87932,96.2232224 C109.006762,92.3468149 108.049946,86.6586495 110.010758,81.8876871 L92.2313374,64.1079244 L92.2294501,110.896575 C93.4844461,111.519367 94.6696148,112.347868 95.7151302,113.389629 C100.863444,118.536154 100.863444,126.87779 95.7151302,132.031864 C90.5649295,137.180277 82.2196796,137.180277 77.0770274,132.031864 C71.928714,126.87779 71.928714,118.536154 77.0770274,113.389629 C78.3490084,112.119511 79.8210335,111.158902 81.3911932,110.513463 L81.3911932,63.2888588 C79.8210335,62.6471945 78.3508957,61.6922471 77.0770274,60.4126929 C73.1761608,56.5174132 72.2382166,50.7933904 74.236774,46.003555 L54.7381028,26.5007352 L3.24553228,77.9905202 C-1.08184409,82.3198669 -1.08184409,89.3347669 3.24553228,93.6603396 L78.3433465,168.755821 C82.6669488,173.081393 89.6798269,173.081393 94.0090904,168.755821 L168.755884,94.0094801 C173.081372,89.6820208 173.081372,82.6633461 168.755884,78.3377734" id="Path"></path></g></g></svg> 