<?xml version="1.0" encoding="UTF-8"?> <svg xmlns="http://www.w3.org/2000/svg" xmlns:xlink="http://www.w3.org/1999/xlink" width="500px" height="300px" viewBox="0 0 500 300"><!-- Generator: Sketch 52.2 (67145) - http://www.bohemiancoding.com/sketch --><title>github-seeklogo.com</title><desc>Created with Sketch.</desc><g id="Page-1" stroke="none" stroke-width="1" fill="none" fill-rule="evenodd"><g id="github-seeklogo.com" transform="translate(173.000000, 74.000000)" fill="#000000"><g id="github_black"><path d="M154.749563,77.9187444 C154.749563,34.8850224 120.108079,0 77.3747817,0 C34.6414847,0 0,34.8850224 0,77.9187444 C0,112.077848 21.8252183,141.097578 52.1957424,151.618296 C54.0469432,150.272108 56.1824236,148.612377 56.1824236,145.824574 C56.1824236,141.53722 56.0876638,130.512108 56.0876638,130.512108 C53.3873,130.910533 50.6606749,131.100802 47.9315502,131.081256 C35.8530568,131.081256 32.0254367,123.365381 30.2148472,119.043946 C27.8458515,113.41722 24.8,110.775964 21.5240175,108.66296 C19.5239083,107.367892 19.0636463,105.837668 21.3784934,105.401435 C32.0694323,103.383857 34.8005459,117.540987 41.9413755,119.800538 C47.0381004,121.409148 53.5900655,120.713901 56.8491266,118.600897 C57.2789301,114.279462 60.3924672,110.537399 62.9848253,108.567534 C44.8247817,106.822601 34.0593886,100.504036 28.4651747,90.3513901 L27.8661572,89.2130942 L26.4650655,85.9890583 L26.0487991,84.833722 C24.3025109,79.6807175 23.5275109,73.7779372 23.5275109,67.1833184 C23.5275109,55.48 27.1689956,51.063139 32.0592795,44.8229596 C28.3196507,31.4803587 33.4129913,22.3603587 33.4129913,22.3603587 C33.4129913,22.3603587 41.2746725,20.7278924 56.1316594,31.3849327 C64.1828603,27.929148 85.6561135,27.6360538 95.8157205,30.6147085 C102.046179,26.4875336 113.451201,20.6324664 118.053821,22.2717489 C119.299236,24.2791031 121.982969,30.1375785 119.685044,42.9996413 C121.245197,45.8215247 129.364083,51.8333632 129.394541,68.8226009 C129.265939,75.0900448 128.612773,80.3827803 127.404585,84.8575785 L126.727729,87.1443946 C126.727729,87.1443946 126.345306,88.2247534 125.925655,89.253991 L125.43155,90.3888789 C120.043777,102.238744 108.994105,106.662422 91.1386463,108.50278 C96.9257642,112.149417 98.5840611,116.726457 98.5840611,129.11139 C98.5840611,141.496323 98.4216157,143.159462 98.4588428,146.00861 C98.4926856,148.527175 100.48941,150.336861 102.289847,151.706906 C132.805895,141.257758 154.749563,112.169865 154.749563,77.9187444 Z" id="Path"></path></g></g></g></svg> 