<?xml version="1.0" encoding="utf-8"?>
<!-- Generator: Adobe Illustrator 22.1.0, SVG Export Plug-In . SVG Version: 6.00 Build 0)  -->
<svg version="1.1" id="Layer_1" xmlns="http://www.w3.org/2000/svg" xmlns:xlink="http://www.w3.org/1999/xlink" x="0px" y="0px"
	 viewBox="0 0 500 300" style="enable-background:new 0 0 500 300;" xml:space="preserve">
<path style="fill-rule:evenodd;clip-rule:evenodd;fill:#A61511;" d="M61.6,192.2c-0.8,0-1.5-0.2-2.2-0.6c0.2-0.4,0.5-0.8,0.7-1.2
	c0.5,0.3,1,0.4,1.6,0.4c0.3,0,0.6,0,0.8,0c0,0.5,0,0.9,0,1.4C62.2,192.2,61.9,192.2,61.6,192.2 M57.2,187.4c0,1.2,0.3,2.2,1,3.1
	c0.4-0.3,0.7-0.6,1.1-0.9c-0.5-0.6-0.7-1.3-0.7-2.2C58.1,187.4,57.7,187.4,57.2,187.4z M61.9,153.9c0.9,0,1.7,0,2.6,0
	c0-0.5,0-0.9,0-1.4c-1,0-1.9,0-2.9,0c-0.4,0-0.7,0.1-1,0.1c0.1,0.5,0.2,0.9,0.4,1.4C61.2,154,61.5,153.9,61.9,153.9z M59.9,154.5
	c-0.6,0.5-1.1,1.1-1.2,1.9c-0.5-0.1-0.9-0.2-1.4-0.3c0.2-1.2,0.8-2.1,1.8-2.8C59.3,153.7,59.6,154.1,59.9,154.5z M441.2,155.9
	c-0.3-0.8-0.8-1.3-1.5-1.7c0.2-0.4,0.4-0.9,0.6-1.3c1,0.5,1.8,1.3,2.2,2.4C442.1,155.6,441.6,155.7,441.2,155.9z M442.3,189.9
	c-0.4-0.2-0.8-0.4-1.2-0.7c0.2-0.4,0.4-1,0.4-1.6c0-0.3,0-0.6,0-0.8c0.5,0,1,0,1.4,0c0,0.3,0,0.6,0,0.8
	C442.8,188.5,442.7,189.2,442.3,189.9z M440.3,190.1c-0.6,0.5-1.4,0.7-2.2,0.7c0,0.5,0,1,0,1.4c1.2,0,2.2-0.3,3.1-1
	C440.9,190.8,440.6,190.5,440.3,190.1z M423.3,171.5c-1.4,0.6-3.1,1.4-4.8,1.1c0.9,1.3,2.8,2.1,4.9,2.1c2.8,0,5.1-1.5,5.5-3.5
	C427.1,169.9,425.6,170.5,423.3,171.5z M417.8,171c1.2,0.9,2.4,0.4,4.5-0.5c1.7-0.7,3.8-1.6,6-1c-0.9-1.4-2.8-2.3-5-2.3
	C420.4,167.3,418,168.9,417.8,171z M423.2,177c-2.9,0-5.5-2.1-5.4-5.1c0,1.2,2.1,3.5,5.2,3.5c2.8,0,5.7-1.4,6.1-2.9
	C428,175.4,426.1,177,423.2,177z M77.4,171.5c-1.4,0.6-3.1,1.4-4.8,1.1c0.9,1.3,2.8,2.1,4.9,2.1c2.8,0,5.1-1.5,5.5-3.5
	C81.2,169.9,79.8,170.5,77.4,171.5z M71.9,171c1.2,0.9,2.4,0.4,4.5-0.5c1.7-0.7,3.8-1.6,6-1c-0.9-1.4-2.8-2.3-5-2.3
	C74.5,167.3,72.1,168.9,71.9,171z M77.3,177c-2.9,0-5.5-2.1-5.4-5.1c0,1.2,2.1,3.5,5.2,3.5c2.8,0,5.7-1.4,6.1-2.9
	C82.1,175.4,80.2,177,77.3,177z M57.2,157.7h1.4v2.8h-1.4V157.7z M57.2,161.9h1.4v2.8h-1.4V161.9z M57.2,166.2h1.4v2.8h-1.4V166.2z
	 M57.2,170.4h1.4v2.8h-1.4V170.4z M57.2,174.7h1.4v2.8h-1.4V174.7z M57.2,178.9h1.4v2.8h-1.4V178.9z M57.2,183.2h1.4v2.8h-1.4V183.2
	z M63.9,192.2v-1.4h2.8v1.4H63.9z M68.2,192.2v-1.4H71v1.4H68.2z M72.4,192.2v-1.4h2.8v1.4H72.4z M76.7,192.2v-1.4h2.8v1.4H76.7z
	 M80.9,192.2v-1.4h2.8v1.4H80.9z M85.2,192.2v-1.4H88v1.4H85.2z M89.4,192.2v-1.4h2.8v1.4H89.4z M93.7,192.2v-1.4h2.8v1.4H93.7z
	 M98,192.2v-1.4h2.8v1.4H98z M102.2,192.2v-1.4h2.8v1.4H102.2z M106.5,192.2v-1.4h2.8v1.4H106.5z M110.7,192.2v-1.4h2.8v1.4H110.7z
	 M115,192.2v-1.4h2.8v1.4H115z M119.2,192.2v-1.4h2.8v1.4H119.2z M123.5,192.2v-1.4h2.8v1.4H123.5z M127.7,192.2v-1.4h2.8v1.4H127.7
	z M132,192.2v-1.4h2.8v1.4H132z M136.2,192.2v-1.4h2.8v1.4H136.2z M140.5,192.2v-1.4h2.8v1.4H140.5z M144.7,192.2v-1.4h2.8v1.4
	H144.7z M149,192.2v-1.4h2.8v1.4H149z M153.2,192.2v-1.4h2.8v1.4H153.2z M157.5,192.2v-1.4h2.8v1.4H157.5z M161.7,192.2v-1.4h2.8
	v1.4H161.7z M166,192.2v-1.4h2.8v1.4H166z M170.2,192.2v-1.4h2.8v1.4H170.2z M174.5,192.2v-1.4h2.8v1.4H174.5z M178.7,192.2v-1.4
	h2.8v1.4H178.7z M183,192.2v-1.4h2.8v1.4H183z M187.2,192.2v-1.4h2.8v1.4H187.2z M191.5,192.2v-1.4h2.8v1.4H191.5z M195.8,192.2
	v-1.4h2.8v1.4H195.8z M200,192.2v-1.4h2.8v1.4H200z M204.3,192.2v-1.4h2.8v1.4H204.3z M208.5,192.2v-1.4h2.8v1.4H208.5z
	 M212.8,192.2v-1.4h2.8v1.4H212.8z M217,192.2v-1.4h2.8v1.4H217z M221.3,192.2v-1.4h2.8v1.4H221.3z M225.5,192.2v-1.4h2.8v1.4H225.5
	z M229.8,192.2v-1.4h2.8v1.4H229.8z M234,192.2v-1.4h2.8v1.4H234z M238.3,192.2v-1.4h2.8v1.4H238.3z M242.5,192.2v-1.4h2.8v1.4
	H242.5z M246.8,192.2v-1.4h2.8v1.4H246.8z M251,192.2v-1.4h2.8v1.4H251z M255.3,192.2v-1.4h2.8v1.4H255.3z M259.5,192.2v-1.4h2.8
	v1.4H259.5z M263.8,192.2v-1.4h2.8v1.4H263.8z M268,192.2v-1.4h2.8v1.4H268z M272.3,192.2v-1.4h2.8v1.4H272.3z M276.5,192.2v-1.4
	h2.8v1.4H276.5z M280.8,192.2v-1.4h2.8v1.4H280.8z M285,192.2v-1.4h2.8v1.4H285z M289.3,192.2v-1.4h2.8v1.4H289.3z M293.6,192.2
	v-1.4h2.8v1.4H293.6z M297.8,192.2v-1.4h2.8v1.4H297.8z M302.1,192.2v-1.4h2.8v1.4H302.1z M306.3,192.2v-1.4h2.8v1.4H306.3z
	 M310.6,192.2v-1.4h2.8v1.4H310.6z M314.8,192.2v-1.4h2.8v1.4H314.8z M319.1,192.2v-1.4h2.8v1.4H319.1z M323.3,192.2v-1.4h2.8v1.4
	H323.3z M327.6,192.2v-1.4h2.8v1.4H327.6z M331.8,192.2v-1.4h2.8v1.4H331.8z M336.1,192.2v-1.4h2.8v1.4H336.1z M340.3,192.2v-1.4
	h2.8v1.4H340.3z M344.6,192.2v-1.4h2.8v1.4H344.6z M348.8,192.2v-1.4h2.8v1.4H348.8z M353.1,192.2v-1.4h2.8v1.4H353.1z M357.3,192.2
	v-1.4h2.8v1.4H357.3z M361.6,192.2v-1.4h2.8v1.4H361.6z M365.8,192.2v-1.4h2.8v1.4H365.8z M370.1,192.2v-1.4h2.8v1.4H370.1z
	 M374.3,192.2v-1.4h2.8v1.4H374.3z M378.6,192.2v-1.4h2.8v1.4H378.6z M382.8,192.2v-1.4h2.8v1.4H382.8z M387.1,192.2v-1.4h2.8v1.4
	H387.1z M391.4,192.2v-1.4h2.8v1.4H391.4z M395.6,192.2v-1.4h2.8v1.4H395.6z M399.9,192.2v-1.4h2.8v1.4H399.9z M404.1,192.2v-1.4
	h2.8v1.4H404.1z M408.4,192.2v-1.4h2.8v1.4H408.4z M412.6,192.2v-1.4h2.8v1.4H412.6z M416.9,192.2v-1.4h2.8v1.4H416.9z M421.1,192.2
	v-1.4h2.8v1.4H421.1z M425.4,192.2v-1.4h2.8v1.4H425.4z M429.6,192.2v-1.4h2.8v1.4H429.6z M433.9,192.2v-1.4h2.8v1.4H433.9z
	 M442.8,185.4h-1.4v-2.8h1.4V185.4z M442.8,181.1h-1.4v-2.8h1.4V181.1z M442.8,176.9h-1.4V174h1.4V176.9z M442.8,172.6h-1.4v-2.8
	h1.4V172.6z M442.8,168.4h-1.4v-2.8h1.4V168.4z M442.8,164.1h-1.4v-2.8h1.4V164.1z M442.8,159.9h-1.4V157h1.4V159.9z M438.7,152.5
	l-0.1,1.4l0,0l0,0l0,0l0,0l0,0l0,0l0,0l0,0h0l0,0h0h0h-2.6v-1.4h2.6h0h0l0,0l0,0l0,0l0,0l0,0L438.7,152.5L438.7,152.5L438.7,152.5
	L438.7,152.5L438.7,152.5z M434.4,152.5v1.4h-2.8v-1.4H434.4z M430.1,152.5v1.4h-2.8v-1.4H430.1z M425.9,152.5v1.4h-2.8v-1.4H425.9z
	 M421.6,152.5v1.4h-2.8v-1.4H421.6z M417.4,152.5v1.4h-2.8v-1.4H417.4z M413.1,152.5v1.4h-2.8v-1.4H413.1z M408.9,152.5v1.4h-2.8
	v-1.4H408.9z M404.6,152.5v1.4h-2.8v-1.4H404.6z M400.4,152.5v1.4h-2.8v-1.4H400.4z M396.1,152.5v1.4h-2.8v-1.4H396.1z M391.9,152.5
	v1.4H389v-1.4H391.9z M387.6,152.5v1.4h-2.8v-1.4H387.6z M383.4,152.5v1.4h-2.8v-1.4H383.4z M379.1,152.5v1.4h-2.8v-1.4H379.1z
	 M374.9,152.5v1.4H372v-1.4H374.9z M370.6,152.5v1.4h-2.8v-1.4H370.6z M366.4,152.5v1.4h-2.8v-1.4H366.4z M362.1,152.5v1.4h-2.8
	v-1.4H362.1z M357.9,152.5v1.4H355v-1.4H357.9z M353.6,152.5v1.4h-2.8v-1.4H353.6z M349.4,152.5v1.4h-2.8v-1.4H349.4z M345.1,152.5
	v1.4h-2.8v-1.4H345.1z M340.9,152.5v1.4H338v-1.4H340.9z M336.6,152.5v1.4h-2.8v-1.4H336.6z M332.3,152.5v1.4h-2.8v-1.4H332.3z
	 M328.1,152.5v1.4h-2.8v-1.4H328.1z M323.8,152.5v1.4H321v-1.4H323.8z M319.6,152.5v1.4h-2.8v-1.4H319.6z M315.3,152.5v1.4h-2.8
	v-1.4H315.3z M311.1,152.5v1.4h-2.8v-1.4H311.1z M306.8,152.5v1.4H304v-1.4H306.8z M302.6,152.5v1.4h-2.8v-1.4H302.6z M298.3,152.5
	v1.4h-2.8v-1.4H298.3z M294.1,152.5v1.4h-2.8v-1.4H294.1z M289.8,152.5v1.4H287v-1.4H289.8z M285.6,152.5v1.4h-2.8v-1.4H285.6z
	 M281.3,152.5v1.4h-2.8v-1.4H281.3z M277.1,152.5v1.4h-2.8v-1.4H277.1z M272.8,152.5v1.4H270v-1.4H272.8z M268.6,152.5v1.4h-2.8
	v-1.4H268.6z M264.3,152.5v1.4h-2.8v-1.4H264.3z M260.1,152.5v1.4h-2.8v-1.4H260.1z M255.8,152.5v1.4H253v-1.4H255.8z M251.6,152.5
	v1.4h-2.8v-1.4H251.6z M247.3,152.5v1.4h-2.8v-1.4H247.3z M243.1,152.5v1.4h-2.8v-1.4H243.1z M238.8,152.5v1.4H236v-1.4H238.8z
	 M234.5,152.5v1.4h-2.8v-1.4H234.5z M230.3,152.5v1.4h-2.8v-1.4H230.3z M226,152.5v1.4h-2.8v-1.4H226z M221.8,152.5v1.4H219v-1.4
	H221.8z M217.5,152.5v1.4h-2.8v-1.4H217.5z M213.3,152.5v1.4h-2.8v-1.4H213.3z M209,152.5v1.4h-2.8v-1.4H209z M204.8,152.5v1.4h-2.8
	v-1.4H204.8z M200.5,152.5v1.4h-2.8v-1.4H200.5z M196.3,152.5v1.4h-2.8v-1.4H196.3z M192,152.5v1.4h-2.8v-1.4H192z M187.8,152.5v1.4
	h-2.8v-1.4H187.8z M183.5,152.5v1.4h-2.8v-1.4H183.5z M179.3,152.5v1.4h-2.8v-1.4H179.3z M175,152.5v1.4h-2.8v-1.4H175z
	 M170.8,152.5v1.4h-2.8v-1.4H170.8z M166.5,152.5v1.4h-2.8v-1.4H166.5z M162.3,152.5v1.4h-2.8v-1.4H162.3z M158,152.5v1.4h-2.8v-1.4
	H158z M153.8,152.5v1.4h-2.8v-1.4H153.8z M149.5,152.5v1.4h-2.8v-1.4H149.5z M145.2,152.5v1.4h-2.8v-1.4H145.2z M141,152.5v1.4h-2.8
	v-1.4H141z M136.7,152.5v1.4h-2.8v-1.4H136.7z M132.5,152.5v1.4h-2.8v-1.4H132.5z M128.2,152.5v1.4h-2.8v-1.4H128.2z M124,152.5v1.4
	h-2.8v-1.4H124z M119.7,152.5v1.4h-2.8v-1.4H119.7z M115.5,152.5v1.4h-2.8v-1.4H115.5z M111.2,152.5v1.4h-2.8v-1.4H111.2z
	 M107,152.5v1.4h-2.8v-1.4H107z M102.7,152.5v1.4h-2.8v-1.4H102.7z M98.5,152.5v1.4h-2.8v-1.4H98.5z M94.2,152.5v1.4h-2.8v-1.4H94.2
	z M90,152.5v1.4h-2.8v-1.4H90z M85.7,152.5v1.4h-2.8v-1.4H85.7z M81.5,152.5v1.4h-2.8v-1.4H81.5z M77.2,152.5v1.4h-2.8v-1.4H77.2z
	 M73,152.5v1.4h-2.8v-1.4H73z M68.7,152.5v1.4h-2.8v-1.4H68.7z M388.6,164h0.2l2,0.3h11.3l2.5-0.3h0.2l-2.2,4.1h-0.2
	c-0.1-0.4-0.3-0.6-0.7-0.8c-0.4-0.2-0.9-0.2-1.5-0.2h-3v9.2c0,0.2,0,0.6,0,1.1c0,0.5,0,1,0.1,1.5c0.1,0.5,0.1,1,0.3,1.4
	c0.1,0.5,0.3,0.8,0.5,1v0.2h-5.1v-0.2c0.2-0.2,0.4-0.5,0.5-1c0.1-0.5,0.2-0.9,0.3-1.4c0.1-0.5,0.1-1,0.1-1.5c0-0.5,0-0.8,0-1.1v-9.2
	h-3c-0.7,0-1.4,0.1-2.1,0.2c-0.7,0.2-1.2,0.4-1.7,0.8h-0.2L388.6,164z M367.8,176.2c0,0.2,0,0.6,0,1.1c0,0.5,0,1,0.1,1.5
	c0,0.5,0.1,1,0.2,1.5c0.1,0.4,0.2,0.8,0.4,1v0.2h-4.4v-0.2c0.2-0.2,0.3-0.5,0.4-1c0.1-0.4,0.2-0.9,0.2-1.5c0-0.5,0.1-1,0.1-1.5
	c0-0.5,0-0.8,0-1.1v-8.4c0-0.2,0-0.5,0-0.8c0-0.3,0-0.6-0.1-0.9c0-0.3-0.1-0.6-0.2-0.9c-0.1-0.3-0.2-0.5-0.4-0.7v-0.2h5v0.2
	c0,0.2,0.1,0.5,0.2,0.7c0.1,0.3,0.3,0.6,0.6,0.8c0.2,0.3,0.5,0.6,0.7,0.9c0.3,0.3,0.5,0.6,0.7,0.8l8,8.5v-8.5c0-0.2,0-0.5,0-0.8
	c0-0.3,0-0.6-0.1-0.9c0-0.3-0.1-0.6-0.2-0.9c-0.1-0.3-0.2-0.5-0.4-0.7v-0.2h4.5v0.2c-0.2,0.2-0.3,0.4-0.4,0.7
	c-0.1,0.3-0.2,0.6-0.2,0.9c0,0.3-0.1,0.6-0.1,0.9c0,0.3,0,0.6,0,0.8v8.5c0,0.2,0,0.6,0,1.1c0,0.5,0,1,0.1,1.5c0,0.5,0.1,1,0.2,1.5
	c0.1,0.4,0.2,0.8,0.4,1v0.2h-4.5v-0.2c0-0.2-0.1-0.5-0.2-0.8c-0.1-0.3-0.3-0.6-0.5-0.8c-0.2-0.3-0.4-0.5-0.6-0.8
	c-0.2-0.3-0.5-0.5-0.7-0.7l-8.8-9.4V176.2z M350.8,167.9l-2.8,6.2h5.6L350.8,167.9z M341.1,181.4v-0.2c0.2-0.2,0.5-0.5,0.8-1
	c0.3-0.4,0.6-0.9,0.8-1.5c0.3-0.5,0.5-1,0.7-1.5c0.2-0.5,0.4-0.8,0.5-1.1l3.8-8.5c0.1-0.2,0.2-0.5,0.4-0.8c0.1-0.3,0.2-0.6,0.3-0.9
	c0.1-0.3,0.1-0.6,0-0.9c0-0.3-0.1-0.5-0.3-0.7v-0.2h5.5v0.2c-0.1,0.2-0.2,0.4-0.2,0.6c0,0.2,0.1,0.3,0.1,0.5l4.9,10.6
	c0.1,0.2,0.3,0.6,0.5,1.1c0.2,0.5,0.5,1,0.7,1.5c0.3,0.5,0.5,1,0.8,1.5c0.3,0.4,0.5,0.8,0.7,1v0.2h-5.1v-0.2
	c0.1-0.2,0.2-0.4,0.3-0.7c0-0.3,0-0.5-0.1-0.8c-0.1-0.3-0.2-0.6-0.3-0.9c-0.1-0.3-0.2-0.5-0.4-0.8l-0.6-1.3h-8.1l-0.5,1.3
	c-0.1,0.2-0.2,0.5-0.3,0.8c-0.1,0.3-0.2,0.6-0.3,0.9c-0.1,0.3-0.1,0.6-0.1,0.8c0,0.3,0.1,0.5,0.3,0.7v0.2H341.1z M327.6,171.3h0.2
	c0.2,0.1,0.4,0.2,0.7,0.2c0.3,0,0.6,0,0.9,0h2.5c0.9,0,1.6-0.2,2.2-0.6c0.6-0.4,0.9-1,0.9-1.7c0-0.7-0.3-1.3-0.9-1.7
	c-0.6-0.4-1.3-0.6-2.2-0.6h-7.1v9.2c0,0.2,0,0.6,0,1.1c0,0.5,0,1,0.1,1.5c0.1,0.5,0.2,1,0.3,1.5c0.1,0.4,0.4,0.8,0.6,1v0.2h-5.3
	v-0.2c0.2-0.2,0.4-0.5,0.5-1c0.1-0.4,0.2-0.9,0.3-1.5c0.1-0.5,0.1-1,0.1-1.5c0-0.5,0-0.8,0-1.1v-8.5c0-0.2,0-0.5,0-0.8
	c0-0.3,0-0.6-0.1-0.9c-0.1-0.3-0.1-0.6-0.3-0.9c-0.1-0.3-0.3-0.5-0.5-0.7v-0.2h11.5c0.9,0,1.8,0.1,2.5,0.3c0.8,0.2,1.5,0.6,2,1
	c0.6,0.4,1,1,1.3,1.6c0.3,0.6,0.5,1.4,0.5,2.2c0,1.3-0.4,2.4-1.2,3.2c-0.8,0.9-1.9,1.4-3.3,1.7l1.3,1.9c0.2,0.2,0.4,0.6,0.7,1
	c0.3,0.5,0.7,0.9,1.1,1.4c0.4,0.5,0.8,1,1.2,1.4c0.4,0.5,0.8,0.8,1.2,1v0.2c-0.4,0.1-0.7,0.2-1,0.2c-0.3,0-0.7,0.1-1,0.1
	c-0.7,0-1.3-0.1-1.8-0.3c-0.5-0.2-0.9-0.4-1.3-0.7c-0.4-0.3-0.7-0.5-1-0.9c-0.3-0.3-0.5-0.6-0.6-0.8l-3.2-4.6h-3.6L327.6,171.3z
	 M301.4,164.3v0.2c-0.2,0.2-0.4,0.4-0.5,0.7c-0.1,0.3-0.2,0.6-0.2,0.9c0,0.3-0.1,0.6-0.1,0.9c0,0.3,0,0.6,0,0.8v6.9
	c0,1.3,0.4,2.3,1.3,3.1c0.9,0.8,2.2,1.2,4,1.2c1.8,0,3.1-0.4,4-1.2c0.9-0.8,1.3-1.8,1.3-3.1v-6.9c0-0.2,0-0.5,0-0.8
	c0-0.3,0-0.6-0.1-0.9c-0.1-0.3-0.1-0.6-0.3-0.9c-0.1-0.3-0.3-0.5-0.5-0.7v-0.2h5.1v0.2c-0.2,0.2-0.4,0.4-0.5,0.7
	c-0.1,0.3-0.2,0.6-0.3,0.9c-0.1,0.3-0.1,0.6-0.1,0.9c0,0.3,0,0.6,0,0.8v6.8c0,1.2-0.2,2.2-0.6,3.1c-0.4,0.9-1,1.6-1.7,2.2
	c-0.8,0.6-1.7,1-2.7,1.3c-1.1,0.3-2.3,0.4-3.6,0.4c-1.3,0-2.5-0.1-3.6-0.4c-1.1-0.3-2-0.7-2.7-1.3c-0.8-0.6-1.3-1.3-1.7-2.2
	c-0.4-0.9-0.6-1.9-0.6-3.1v-6.8c0-0.2,0-0.5,0-0.8c0-0.3,0-0.6-0.1-0.9c-0.1-0.3-0.1-0.6-0.3-0.9c-0.1-0.3-0.3-0.5-0.5-0.7v-0.2
	H301.4z M283.1,167.9l-2.8,6.2h5.6L283.1,167.9z M273.3,181.4v-0.2c0.2-0.2,0.5-0.5,0.8-1c0.3-0.4,0.6-0.9,0.8-1.5
	c0.3-0.5,0.5-1,0.7-1.5c0.2-0.5,0.4-0.8,0.5-1.1l3.8-8.5c0.1-0.2,0.2-0.5,0.4-0.8c0.1-0.3,0.2-0.6,0.3-0.9c0.1-0.3,0.1-0.6,0-0.9
	c0-0.3-0.1-0.5-0.4-0.7v-0.2h5.5v0.2c-0.1,0.2-0.2,0.4-0.2,0.6c0,0.2,0.1,0.3,0.1,0.5l4.9,10.6c0.1,0.2,0.3,0.6,0.5,1.1
	c0.2,0.5,0.5,1,0.7,1.5c0.3,0.5,0.5,1,0.8,1.5c0.3,0.4,0.5,0.8,0.7,1v0.2h-5.1v-0.2c0.1-0.2,0.2-0.4,0.3-0.7c0-0.3,0-0.5-0.1-0.8
	c-0.1-0.3-0.2-0.6-0.3-0.9c-0.1-0.3-0.2-0.5-0.4-0.8l-0.6-1.3h-8.1l-0.5,1.3c-0.1,0.2-0.2,0.5-0.3,0.8c-0.1,0.3-0.2,0.6-0.3,0.9
	c-0.1,0.3-0.1,0.6-0.1,0.8c0,0.3,0.1,0.5,0.3,0.7v0.2H273.3z M256.2,164h0.2l2,0.3h11.3l2.5-0.3h0.2l-2.2,4.1h-0.2
	c-0.1-0.4-0.3-0.6-0.7-0.8c-0.4-0.2-0.9-0.2-1.5-0.2h-3v9.2c0,0.2,0,0.6,0,1.1c0,0.5,0,1,0.1,1.5c0.1,0.5,0.1,1,0.3,1.4
	c0.1,0.5,0.3,0.8,0.5,1v0.2h-5.1v-0.2c0.2-0.2,0.4-0.5,0.5-1c0.1-0.5,0.2-0.9,0.3-1.4c0.1-0.5,0.1-1,0.1-1.5c0-0.5,0-0.8,0-1.1v-9.2
	h-3c-0.7,0-1.4,0.1-2.1,0.2c-0.7,0.2-1.2,0.4-1.7,0.8h-0.2L256.2,164z M249.6,169.1h-0.2c-0.5-0.7-1.3-1.3-2.4-1.7
	c-1.1-0.4-2.4-0.7-3.8-0.7c-1.8,0-3.2,0.2-4.1,0.6c-0.9,0.4-1.3,1-1.3,1.8c0,0.5,0.2,0.9,0.6,1.1c0.4,0.2,0.9,0.4,1.6,0.5
	c0.6,0.1,1.4,0.1,2.2,0.2c0.8,0,1.7,0,2.5,0.1c0.9,0,1.7,0.1,2.5,0.3c0.8,0.1,1.6,0.4,2.2,0.8c0.6,0.4,1.2,0.9,1.6,1.5
	c0.4,0.7,0.6,1.5,0.6,2.6c0,0.8-0.2,1.5-0.5,2.2c-0.4,0.7-0.9,1.3-1.6,1.7c-0.7,0.5-1.6,0.9-2.7,1.2c-1.1,0.3-2.4,0.4-3.9,0.4
	c-1.4,0-2.6-0.1-3.6-0.3c-1-0.2-1.8-0.4-2.5-0.7c-0.7-0.3-1.2-0.5-1.6-0.7c-0.4-0.2-0.7-0.4-0.8-0.5l1.8-3.2h0.2
	c0.2,0.5,0.6,0.9,1.1,1.2c0.5,0.3,1.1,0.6,1.7,0.8c0.6,0.2,1.3,0.4,2,0.5c0.7,0.1,1.4,0.2,2.1,0.2c1,0,1.8-0.1,2.4-0.2
	c0.7-0.2,1.2-0.4,1.6-0.6c0.4-0.3,0.7-0.5,0.9-0.9c0.2-0.3,0.3-0.6,0.3-1c0-0.5-0.2-1-0.6-1.2c-0.4-0.3-0.9-0.5-1.5-0.6
	c-0.6-0.1-1.4-0.2-2.2-0.2c-0.8,0-1.7,0-2.5-0.1c-0.9,0-1.7-0.1-2.5-0.2c-0.8-0.1-1.6-0.3-2.2-0.6c-0.6-0.3-1.2-0.7-1.6-1.3
	c-0.4-0.6-0.6-1.3-0.6-2.3c0-0.8,0.2-1.5,0.5-2.2c0.4-0.7,0.9-1.3,1.6-1.8c0.7-0.5,1.6-0.9,2.6-1.2c1-0.3,2.2-0.4,3.5-0.4
	c1.2,0,2.2,0.1,3.1,0.2c0.9,0.2,1.7,0.4,2.4,0.6c0.7,0.2,1.3,0.5,1.7,0.7c0.5,0.2,0.9,0.4,1.2,0.6L249.6,169.1z M228.8,168.2h-0.2
	c-0.3-0.2-0.6-0.4-1.1-0.5c-0.4-0.1-0.9-0.3-1.4-0.3c-0.5-0.1-1.1-0.2-1.7-0.2c-0.6,0-1.2-0.1-1.8-0.1h-4.8v4.3h9.5l-2,3.4h-0.2
	c-0.1-0.1-0.4-0.2-0.6-0.3c-0.3-0.1-0.6-0.2-0.9-0.2c-0.3-0.1-0.7-0.1-1-0.1c-0.4,0-0.7,0-1,0h-3.8v4.5h3.8c0.5,0,1.1,0,1.8,0
	c0.7,0,1.5-0.1,2.3-0.2c0.8-0.1,1.6-0.2,2.3-0.3c0.7-0.1,1.4-0.3,1.9-0.5h0.2l-2.2,3.8h-14.4v-0.2c0.2-0.2,0.3-0.5,0.4-1
	c0.1-0.4,0.2-0.9,0.2-1.5c0-0.5,0.1-1,0.1-1.5c0-0.5,0-0.8,0-1.1v-8.5c0-0.2,0-0.5,0-0.8c0-0.3,0-0.6-0.1-0.9c0-0.3-0.1-0.6-0.2-0.9
	c-0.1-0.3-0.3-0.5-0.4-0.7v-0.2h14.1L228.8,168.2z M198.4,171.3h0.2c0.2,0.1,0.4,0.2,0.7,0.2c0.3,0,0.6,0,0.9,0h2.5
	c0.9,0,1.6-0.2,2.2-0.6c0.6-0.4,0.9-1,0.9-1.7c0-0.7-0.3-1.3-0.9-1.7c-0.6-0.4-1.3-0.6-2.2-0.6h-7.1v9.2c0,0.2,0,0.6,0,1.1
	c0,0.5,0,1,0.1,1.5c0.1,0.5,0.2,1,0.3,1.5c0.1,0.4,0.4,0.8,0.6,1v0.2h-5.3v-0.2c0.2-0.2,0.4-0.5,0.5-1c0.1-0.4,0.2-0.9,0.3-1.5
	c0.1-0.5,0.1-1,0.1-1.5c0-0.5,0-0.8,0-1.1v-8.5c0-0.2,0-0.5,0-0.8c0-0.3,0-0.6-0.1-0.9c-0.1-0.3-0.1-0.6-0.3-0.9
	c-0.1-0.3-0.3-0.5-0.5-0.7v-0.2h11.5c0.9,0,1.8,0.1,2.5,0.3c0.8,0.2,1.5,0.6,2,1c0.6,0.4,1,1,1.3,1.6c0.3,0.6,0.5,1.4,0.5,2.2
	c0,1.3-0.4,2.4-1.2,3.2c-0.8,0.9-1.9,1.4-3.3,1.7l1.3,1.9c0.2,0.2,0.4,0.6,0.7,1c0.3,0.5,0.7,0.9,1.1,1.4c0.4,0.5,0.8,1,1.2,1.4
	c0.4,0.5,0.8,0.8,1.2,1v0.2c-0.4,0.1-0.7,0.2-1,0.2c-0.3,0-0.7,0.1-1,0.1c-0.7,0-1.3-0.1-1.8-0.3c-0.5-0.2-0.9-0.4-1.3-0.7
	c-0.4-0.3-0.7-0.5-1-0.9c-0.3-0.3-0.5-0.6-0.6-0.8l-3.2-4.6h-3.6L198.4,171.3z M169.3,160.7l-3.9,2.7l-0.3-0.2l0.5-1.6l-1.4-1v-0.2
	c0.4-0.3,0.8-0.7,1.2-1c0.4-0.3,0.8-0.7,1.2-1.1h0.2c0.4,0.4,0.8,0.8,1.2,1.1c0.4,0.3,0.8,0.7,1.2,1V160.7z M174.3,168.2h-0.2
	c-0.3-0.2-0.6-0.4-1.1-0.5c-0.4-0.1-0.9-0.3-1.4-0.3c-0.5-0.1-1.1-0.2-1.7-0.2c-0.6,0-1.2-0.1-1.8-0.1h-4.8v4.3h9.5l-2,3.4h-0.2
	c-0.1-0.1-0.4-0.2-0.6-0.3c-0.3-0.1-0.6-0.2-0.9-0.2c-0.3-0.1-0.7-0.1-1-0.1c-0.4,0-0.7,0-1,0h-3.8v4.5h3.8c0.5,0,1.1,0,1.8,0
	c0.7,0,1.5-0.1,2.3-0.2c0.8-0.1,1.6-0.2,2.3-0.3c0.7-0.1,1.4-0.3,1.9-0.5h0.2l-2.2,3.8h-14.4v-0.2c0.2-0.2,0.3-0.5,0.4-1
	c0.1-0.4,0.2-0.9,0.2-1.5c0-0.5,0.1-1,0.1-1.5c0-0.5,0-0.8,0-1.1v-8.5c0-0.2,0-0.5,0-0.8c0-0.3,0-0.6-0.1-0.9c0-0.3-0.1-0.6-0.2-0.9
	c-0.1-0.3-0.3-0.5-0.4-0.7v-0.2h14.1L174.3,168.2z M144.1,176.2c0,0.2,0,0.6,0,1.1c0,0.5,0,1,0.1,1.5c0.1,0.5,0.1,1,0.3,1.5
	c0.1,0.4,0.3,0.8,0.5,1v0.2h-5.2v-0.2c0.2-0.2,0.4-0.5,0.5-1c0.1-0.4,0.2-0.9,0.3-1.5c0.1-0.5,0.1-1,0.1-1.5c0-0.5,0-0.8,0-1.1v-8.5
	c0-0.2,0-0.5,0-0.8c0-0.3,0-0.6-0.1-0.9c0-0.3-0.1-0.6-0.2-0.9c-0.1-0.3-0.3-0.5-0.4-0.7v-0.2h14.4l1.1,3.9h-0.2
	c-0.3-0.2-0.6-0.4-1.1-0.5c-0.4-0.1-0.9-0.3-1.4-0.4c-0.5-0.1-1.1-0.1-1.7-0.2c-0.6,0-1.2-0.1-1.8-0.1h-5.1v4.3h9l-2,3.4h-0.2
	c-0.2-0.1-0.4-0.2-0.7-0.3c-0.3-0.1-0.6-0.2-0.9-0.2c-0.3-0.1-0.7-0.1-1-0.1c-0.4,0-0.7,0-1,0h-3.2V176.2z M126.5,167.9l-2.8,6.2
	h5.6L126.5,167.9z M116.8,181.4v-0.2c0.2-0.2,0.5-0.5,0.8-1c0.3-0.4,0.6-0.9,0.8-1.5c0.3-0.5,0.5-1,0.7-1.5c0.2-0.5,0.4-0.8,0.5-1.1
	l3.8-8.5c0.1-0.2,0.2-0.5,0.4-0.8c0.1-0.3,0.2-0.6,0.3-0.9c0.1-0.3,0.1-0.6,0-0.9c0-0.3-0.1-0.5-0.3-0.7v-0.2h5.5v0.2
	c-0.1,0.2-0.2,0.4-0.2,0.6c0,0.2,0.1,0.3,0.1,0.5l4.9,10.6c0.1,0.2,0.3,0.6,0.5,1.1c0.2,0.5,0.5,1,0.7,1.5c0.3,0.5,0.5,1,0.8,1.5
	c0.3,0.4,0.5,0.8,0.7,1v0.2h-5.1v-0.2c0.1-0.2,0.2-0.4,0.3-0.7c0-0.3,0-0.5-0.1-0.8c-0.1-0.3-0.2-0.6-0.3-0.9
	c-0.1-0.3-0.2-0.5-0.4-0.8l-0.6-1.3h-8.1l-0.5,1.3c-0.1,0.2-0.2,0.5-0.3,0.8c-0.1,0.3-0.2,0.6-0.3,0.9c-0.1,0.3-0.1,0.6-0.1,0.8
	c0,0.3,0.1,0.5,0.3,0.7v0.2H116.8z M95.2,173c0-1.4,0.3-2.6,0.9-3.8c0.6-1.1,1.4-2,2.4-2.8c1-0.8,2.1-1.4,3.4-1.8
	c1.3-0.4,2.7-0.6,4.2-0.6c0.9,0,1.8,0.1,2.5,0.2c0.8,0.1,1.4,0.3,2,0.5c0.6,0.2,1.1,0.4,1.5,0.6c0.4,0.2,0.8,0.4,1.1,0.5l-1.1,3.9
	H112c-0.7-0.9-1.7-1.6-2.8-2.1c-1.1-0.5-2.3-0.7-3.6-0.7c-0.9,0-1.8,0.1-2.6,0.4c-0.8,0.3-1.6,0.6-2.2,1.1c-0.7,0.5-1.2,1.1-1.6,1.9
	c-0.4,0.8-0.6,1.6-0.6,2.6c0,1,0.2,1.9,0.6,2.6c0.4,0.7,0.9,1.4,1.6,1.8c0.7,0.5,1.4,0.8,2.3,1.1c0.9,0.2,1.8,0.4,2.7,0.4
	c1.4,0,2.7-0.3,4-0.8c1.3-0.5,2.3-1.3,3.2-2.4h0.2l-1.3,4.6c-0.8,0.5-1.8,0.9-2.8,1.1c-1,0.3-2.1,0.4-3.2,0.4c-1.4,0-2.8-0.2-4-0.5
	c-1.3-0.3-2.4-0.9-3.4-1.6c-1-0.7-1.8-1.6-2.3-2.7C95.5,175.8,95.2,174.5,95.2,173z M59.8,148.7h380.5c3.6,0,6.5,2.9,6.5,6.5v34.4
	c0,3.6-2.9,6.5-6.5,6.5H59.8c-3.6,0-6.5-2.9-6.5-6.5v-34.4C53.3,151.6,56.2,148.7,59.8,148.7z M309.3,213.8c0-0.5-0.2-0.9-0.6-1.2
	c-0.4-0.2-0.9-0.4-1.7-0.4c-0.4,0-0.7,0-1,0.1c-0.3,0.1-0.5,0.2-0.7,0.4c-0.2,0.1-0.3,0.3-0.4,0.5c-0.1,0.2-0.2,0.4-0.2,0.5
	c0,0.5,0.2,0.9,0.6,1.2c0.4,0.2,0.9,0.4,1.7,0.4c0.7,0,1.3-0.1,1.7-0.4C309.1,214.7,309.3,214.3,309.3,213.8z M309.6,210.5
	L309.6,210.5c-0.1-0.1-0.2-0.2-0.3-0.4c-0.1-0.1-0.2-0.3-0.4-0.4c-0.2-0.1-0.4-0.2-0.6-0.3c-0.3-0.1-0.6-0.1-1-0.1
	c-0.8,0-1.5,0.2-2,0.7c-0.5,0.4-0.8,1.1-0.9,1.9c0.4-0.4,0.9-0.7,1.4-0.8c0.5-0.1,1-0.2,1.5-0.2c0.4,0,0.9,0.1,1.3,0.2
	c0.4,0.1,0.8,0.3,1.1,0.5c0.3,0.2,0.6,0.5,0.8,0.9c0.2,0.4,0.3,0.8,0.3,1.2c0,0.5-0.1,1-0.3,1.4c-0.2,0.4-0.5,0.7-0.9,0.9
	c-0.4,0.2-0.8,0.4-1.3,0.5c-0.5,0.1-0.9,0.2-1.4,0.2c-0.7,0-1.3-0.1-1.8-0.3c-0.5-0.2-1-0.5-1.3-0.9c-0.4-0.4-0.6-0.8-0.8-1.4
	c-0.2-0.5-0.3-1.1-0.3-1.8c0-0.7,0.1-1.3,0.3-1.8c0.2-0.6,0.5-1,0.9-1.4c0.4-0.4,0.9-0.7,1.4-0.9c0.6-0.2,1.2-0.3,1.8-0.3
	c0.6,0,1.1,0.1,1.6,0.2c0.5,0.2,1,0.4,1.5,0.7L309.6,210.5z M293.8,209.3c-0.4,0-0.8,0.1-1.1,0.2c-0.3,0.1-0.6,0.4-0.8,0.6
	c-0.2,0.3-0.4,0.6-0.5,1c-0.1,0.4-0.2,0.8-0.2,1.2c0,0.4,0.1,0.9,0.2,1.2c0.1,0.4,0.3,0.7,0.5,1c0.2,0.3,0.5,0.5,0.8,0.6
	c0.3,0.1,0.7,0.2,1.1,0.2c0.4,0,0.8-0.1,1.1-0.2c0.3-0.1,0.6-0.4,0.8-0.6c0.2-0.3,0.4-0.6,0.5-1c0.1-0.4,0.2-0.8,0.2-1.2
	c0-0.4-0.1-0.9-0.2-1.2c-0.1-0.4-0.3-0.7-0.5-1c-0.2-0.3-0.5-0.5-0.8-0.6C294.5,209.4,294.2,209.3,293.8,209.3z M293.8,207.9
	c0.7,0,1.2,0.1,1.8,0.3c0.5,0.2,1,0.5,1.4,0.9c0.4,0.4,0.7,0.9,0.9,1.4c0.2,0.5,0.3,1.1,0.3,1.8c0,0.6-0.1,1.2-0.3,1.8
	c-0.2,0.5-0.5,1-0.9,1.4c-0.4,0.4-0.8,0.7-1.4,0.9c-0.5,0.2-1.1,0.3-1.8,0.3c-0.7,0-1.2-0.1-1.8-0.3c-0.5-0.2-1-0.5-1.4-0.9
	c-0.4-0.4-0.7-0.9-0.9-1.4c-0.2-0.5-0.3-1.1-0.3-1.8c0-0.6,0.1-1.2,0.3-1.8c0.2-0.5,0.5-1,0.9-1.4c0.4-0.4,0.8-0.7,1.4-0.9
	C292.5,208,293.1,207.9,293.8,207.9z M280.7,209.3c-0.4,0-0.8,0.1-1.1,0.2c-0.3,0.1-0.6,0.4-0.8,0.6c-0.2,0.3-0.4,0.6-0.5,1
	c-0.1,0.4-0.2,0.8-0.2,1.2c0,0.4,0.1,0.9,0.2,1.2c0.1,0.4,0.3,0.7,0.5,1c0.2,0.3,0.5,0.5,0.8,0.6c0.3,0.1,0.7,0.2,1.1,0.2
	c0.4,0,0.8-0.1,1.1-0.2c0.3-0.1,0.6-0.4,0.8-0.6c0.2-0.3,0.4-0.6,0.5-1c0.1-0.4,0.2-0.8,0.2-1.2c0-0.4-0.1-0.9-0.2-1.2
	c-0.1-0.4-0.3-0.7-0.5-1c-0.2-0.3-0.5-0.5-0.8-0.6C281.4,209.4,281.1,209.3,280.7,209.3z M280.7,207.9c0.7,0,1.2,0.1,1.8,0.3
	c0.5,0.2,1,0.5,1.4,0.9c0.4,0.4,0.7,0.9,0.9,1.4c0.2,0.5,0.3,1.1,0.3,1.8c0,0.6-0.1,1.2-0.3,1.8c-0.2,0.5-0.5,1-0.9,1.4
	c-0.4,0.4-0.8,0.7-1.4,0.9c-0.5,0.2-1.1,0.3-1.8,0.3c-0.7,0-1.2-0.1-1.8-0.3c-0.5-0.2-1-0.5-1.4-0.9c-0.4-0.4-0.7-0.9-0.9-1.4
	c-0.2-0.5-0.3-1.1-0.3-1.8c0-0.6,0.1-1.2,0.3-1.8c0.2-0.5,0.5-1,0.9-1.4c0.4-0.4,0.8-0.7,1.4-0.9C279.4,208,280,207.9,280.7,207.9z
	 M270.6,216.6h-7c0-0.5,0.1-1,0.3-1.4c0.2-0.4,0.4-0.8,0.7-1.1c0.3-0.3,0.6-0.6,1-0.8c0.4-0.2,0.7-0.4,1.1-0.6
	c0.4-0.2,0.7-0.4,1.1-0.5c0.4-0.2,0.7-0.3,1-0.5c0.3-0.2,0.5-0.3,0.7-0.5c0.2-0.2,0.3-0.4,0.3-0.7c0-0.2,0-0.4-0.1-0.5
	c-0.1-0.1-0.2-0.3-0.4-0.4c-0.2-0.1-0.3-0.2-0.5-0.2c-0.2-0.1-0.4-0.1-0.6-0.1c-0.3,0-0.5,0-0.8,0.1c-0.3,0.1-0.5,0.2-0.8,0.4
	c-0.2,0.2-0.4,0.4-0.6,0.6c-0.2,0.2-0.3,0.5-0.4,0.7h-0.1l-0.8-1.6l0.4-0.4c0.1-0.1,0.3-0.3,0.5-0.4c0.2-0.1,0.4-0.3,0.7-0.4
	c0.3-0.1,0.6-0.2,0.9-0.3c0.3-0.1,0.7-0.1,1.1-0.1c0.4,0,0.8,0,1.2,0.1c0.4,0.1,0.8,0.3,1.1,0.5c0.3,0.2,0.6,0.5,0.8,0.8
	c0.2,0.3,0.3,0.7,0.3,1.2c0,0.5-0.1,0.9-0.3,1.2c-0.2,0.3-0.5,0.6-0.9,0.9c-0.4,0.2-0.8,0.5-1.2,0.6c-0.4,0.2-0.9,0.4-1.3,0.5
	c-0.4,0.2-0.8,0.4-1.2,0.6c-0.4,0.2-0.6,0.5-0.8,0.8h1.5c0.1,0,0.2,0,0.4,0c0.2,0,0.4,0,0.7,0c0.3,0,0.6,0,0.9,0c0.3,0,0.6,0,1-0.1
	c0.3,0,0.6-0.1,0.9-0.1c0.3-0.1,0.5-0.1,0.8-0.2h0.1L270.6,216.6z M248.4,216.6h-7.1v-0.1c0.1-0.1,0.2-0.3,0.2-0.5
	c0.1-0.2,0.1-0.5,0.1-0.7c0-0.3,0-0.5,0-0.7c0-0.2,0-0.4,0-0.5v-4.3c0-0.1,0-0.3,0-0.4c0-0.2,0-0.3,0-0.4c0-0.1-0.1-0.3-0.1-0.4
	c-0.1-0.1-0.1-0.3-0.2-0.4V208h7.1l0.6,1.9h-0.1c-0.1-0.1-0.3-0.2-0.5-0.3c-0.2-0.1-0.5-0.1-0.7-0.2c-0.3,0-0.5-0.1-0.8-0.1
	c-0.3,0-0.6,0-0.9,0h-2.4v2.1h4.8l-1,1.7h-0.1c-0.1-0.1-0.2-0.1-0.3-0.2c-0.1,0-0.3-0.1-0.4-0.1c-0.2,0-0.3,0-0.5-0.1
	c-0.2,0-0.3,0-0.5,0h-1.9v2.3h1.8c0.2,0,0.6,0,0.9,0c0.4,0,0.8,0,1.2-0.1c0.4,0,0.8-0.1,1.2-0.2c0.4-0.1,0.7-0.2,1-0.3h0.1
	L248.4,216.6z M226.2,212.3c0-0.7,0.1-1.3,0.4-1.9c0.3-0.6,0.7-1,1.2-1.4c0.5-0.4,1.1-0.7,1.7-0.9c0.6-0.2,1.3-0.3,2.1-0.3
	c0.5,0,0.9,0,1.3,0.1c0.4,0.1,0.7,0.2,1,0.3c0.3,0.1,0.6,0.2,0.8,0.3c0.2,0.1,0.4,0.2,0.5,0.3l-0.5,1.8h-0.1
	c-0.2-0.2-0.4-0.4-0.6-0.6c-0.2-0.2-0.5-0.3-0.8-0.4c-0.3-0.1-0.6-0.2-0.9-0.3c-0.3-0.1-0.6-0.1-0.9-0.1c-0.4,0-0.9,0.1-1.3,0.2
	c-0.4,0.1-0.8,0.3-1.1,0.6c-0.3,0.2-0.6,0.6-0.8,0.9c-0.2,0.4-0.3,0.8-0.3,1.3c0,0.5,0.1,0.9,0.3,1.3c0.2,0.4,0.5,0.7,0.8,0.9
	c0.3,0.2,0.7,0.4,1.1,0.5c0.4,0.1,0.9,0.2,1.3,0.2c0.3,0,0.7,0,1-0.1c0.4-0.1,0.7-0.2,1-0.3c0.3-0.1,0.6-0.3,0.9-0.5
	c0.3-0.2,0.5-0.4,0.7-0.7h0.1l-0.6,2.3c-0.4,0.3-0.9,0.4-1.4,0.6c-0.5,0.1-1.1,0.2-1.6,0.2c-0.7,0-1.4-0.1-2-0.3
	c-0.6-0.2-1.2-0.5-1.7-0.8c-0.5-0.4-0.9-0.8-1.2-1.4C226.4,213.7,226.2,213.1,226.2,212.3z M220.3,214c0,0.1,0,0.3,0,0.5
	c0,0.2,0,0.5,0,0.7c0,0.3,0.1,0.5,0.1,0.7c0.1,0.2,0.1,0.4,0.3,0.5v0.1h-2.4v-0.1c0-0.2,0-0.3-0.1-0.4c-0.1-0.1-0.1-0.3-0.2-0.4
	c-0.1-0.1-0.2-0.3-0.3-0.4c-0.1-0.1-0.2-0.2-0.3-0.4l-4.3-4.6v3.7c0,0.1,0,0.3,0,0.5c0,0.2,0,0.5,0,0.7c0,0.3,0.1,0.5,0.1,0.7
	c0.1,0.2,0.1,0.4,0.3,0.5v0.1h-2.3v-0.1c0.1-0.1,0.2-0.3,0.2-0.5c0.1-0.2,0.1-0.5,0.1-0.7c0-0.3,0-0.5,0-0.7c0-0.2,0-0.4,0-0.5v-4.3
	c0-0.1,0-0.3,0-0.4c0-0.2,0-0.3,0-0.4c0-0.1-0.1-0.3-0.1-0.4c-0.1-0.1-0.1-0.3-0.2-0.4V208h2.6v0.1c0,0.2,0,0.3,0.1,0.5
	c0.1,0.1,0.1,0.3,0.2,0.4c0.1,0.1,0.2,0.3,0.3,0.4c0.1,0.1,0.2,0.3,0.3,0.4l4,4.2v-4.2c0-0.1,0-0.3,0-0.4c0-0.2,0-0.3,0-0.4
	c0-0.1-0.1-0.3-0.1-0.4c-0.1-0.1-0.1-0.3-0.2-0.4V208h2.4v0.1c-0.1,0.1-0.2,0.2-0.3,0.4c-0.1,0.1-0.1,0.3-0.1,0.4c0,0.1,0,0.3,0,0.4
	c0,0.1,0,0.3,0,0.4V214z M205.1,214c0,0.1,0,0.3,0,0.5c0,0.2,0,0.5,0.1,0.7c0,0.3,0.1,0.5,0.2,0.7c0.1,0.2,0.2,0.4,0.3,0.5v0.1h-2.8
	v-0.1c0.1-0.1,0.2-0.3,0.3-0.5c0.1-0.2,0.1-0.5,0.2-0.7c0-0.3,0.1-0.5,0.1-0.7c0-0.2,0-0.4,0-0.5v-4.3c0-0.1,0-0.3,0-0.4
	c0-0.2,0-0.3-0.1-0.4c0-0.1-0.1-0.3-0.2-0.4c-0.1-0.1-0.2-0.3-0.3-0.4V208h2.8v0.1c-0.1,0.1-0.2,0.2-0.3,0.4
	c-0.1,0.1-0.1,0.3-0.2,0.4c0,0.1-0.1,0.3-0.1,0.4c0,0.1,0,0.3,0,0.4V214z M196.4,210.4L196.4,210.4c-0.2-0.2-0.4-0.3-0.6-0.5
	c-0.2-0.1-0.5-0.3-0.7-0.4c-0.3-0.1-0.6-0.2-0.9-0.2c-0.3-0.1-0.7-0.1-1-0.1c-0.5,0-0.9,0-1.2,0.1c-0.3,0.1-0.6,0.2-0.8,0.3
	c-0.2,0.1-0.4,0.3-0.5,0.4c-0.1,0.2-0.2,0.3-0.2,0.5c0,0.2,0.1,0.4,0.3,0.5c0.2,0.1,0.5,0.2,0.8,0.2c0.3,0,0.7,0.1,1.1,0.1
	c0.4,0,0.8,0,1.3,0c0.4,0,0.9,0.1,1.3,0.1c0.4,0.1,0.8,0.2,1.1,0.4c0.3,0.2,0.6,0.4,0.8,0.8c0.2,0.3,0.3,0.8,0.3,1.3
	c0,0.4-0.1,0.8-0.3,1.1c-0.2,0.3-0.5,0.6-0.9,0.9c-0.4,0.2-0.9,0.4-1.4,0.6c-0.6,0.1-1.2,0.2-2,0.2c-0.7,0-1.3,0-1.8-0.1
	c-0.5-0.1-0.9-0.2-1.2-0.3c-0.3-0.1-0.6-0.2-0.8-0.4c-0.2-0.1-0.3-0.2-0.4-0.2l0.8-1.6h0.1c0.2,0.4,0.6,0.8,1.2,1
	c0.6,0.2,1.2,0.3,2,0.3c0.5,0,1,0,1.4-0.1c0.4-0.1,0.7-0.2,0.9-0.3c0.2-0.1,0.4-0.3,0.5-0.4c0.1-0.1,0.1-0.3,0.1-0.5
	c0-0.3-0.1-0.5-0.3-0.6c-0.2-0.1-0.5-0.2-0.8-0.3c-0.3-0.1-0.7-0.1-1.1-0.1c-0.4,0-0.8,0-1.3,0c-0.4,0-0.8,0-1.3-0.1
	c-0.4-0.1-0.8-0.2-1.1-0.3c-0.3-0.2-0.6-0.4-0.8-0.7c-0.2-0.3-0.3-0.7-0.3-1.2c0-0.5,0.1-0.9,0.4-1.3c0.2-0.4,0.6-0.6,1-0.9
	c0.4-0.2,0.9-0.4,1.4-0.5c0.5-0.1,1.1-0.2,1.7-0.2c0.5,0,1,0,1.4,0.1c0.4,0.1,0.8,0.2,1.2,0.3c0.3,0.1,0.6,0.2,0.9,0.4
	c0.2,0.1,0.4,0.2,0.5,0.2L196.4,210.4z M175.4,211.1l-66.2,0.8l-2.4-1.8c0,0,1.2,1.2,1.2,2.2c0,1-1.2,2.2-1.2,2.2l2.4-1.8l66.2,0.8
	l2.4-1.2L175.4,211.1z M96.5,212.3c0,0.4-0.3,0.7-0.7,0.7c-0.4,0-0.7-0.3-0.7-0.7c0-0.4,0.3-0.7,0.7-0.7
	C96.2,211.6,96.5,211.9,96.5,212.3z M100.5,212.3c0,0.6-0.5,1.1-1.1,1.1c-0.6,0-1.1-0.5-1.1-1.1c0-0.6,0.5-1.1,1.1-1.1
	C100,211.2,100.5,211.7,100.5,212.3z M105.5,212.3c0,0.8-0.7,1.5-1.5,1.5c-0.8,0-1.5-0.7-1.5-1.5c0-0.8,0.7-1.5,1.5-1.5
	C104.8,210.8,105.5,211.5,105.5,212.3z M324.3,211.1l66.2,0.8l2.4-1.8c0,0-1.2,1.2-1.2,2.2c0,1,1.2,2.2,1.2,2.2l-2.4-1.8l-66.2,0.8
	l-2.4-1.2L324.3,211.1z M403.2,212.3c0,0.4,0.3,0.7,0.7,0.7c0.4,0,0.7-0.3,0.7-0.7c0-0.4-0.3-0.7-0.7-0.7
	C403.6,211.6,403.2,211.9,403.2,212.3z M399.2,212.3c0,0.6,0.5,1.1,1.1,1.1c0.6,0,1.1-0.5,1.1-1.1c0-0.6-0.5-1.1-1.1-1.1
	C399.7,211.2,399.2,211.7,399.2,212.3z M394.3,212.3c0,0.8,0.7,1.5,1.5,1.5c0.8,0,1.5-0.7,1.5-1.5c0-0.8-0.7-1.5-1.5-1.5
	C394.9,210.8,394.3,211.5,394.3,212.3z M198.7,97.6c0.1-0.1,0.3-0.1,0.4,0 M367.8,102.9c1.5-2,3-5.2,1.1-7.4c-1.7-2-2.7-3.2-2.9-3.5
	c-0.3-0.3-0.4-0.7-0.4-1c0-0.8,0.3-1.8,1.1-2.3c-2.1-0.1-4.1,1.8-3.1,3.9c0.3,0.8,1.5,1.9,2.2,2.6
	C368.2,97.7,369.2,99.6,367.8,102.9z M332,135.1c-5.1-2.5-8.8-7.9-8.9-15.4c-0.2-7.6,3.2-13.2,8.5-16.1c-2,0.8-3.8,1.8-5.2,3.2
	c-3.2,2.9-4.9,7.1-4.9,12.3c0,0.2,0,0.4,0,0.6v0v0c0.1,5.1,1.6,9.3,4.7,12.1C327.7,133.2,329.7,134.4,332,135.1z M341.7,134.7
	c3.3,0,5.9-1.4,8.1-3.5v2.1c-0.1,0.1-0.3,0.2-0.4,0.3c-4.2,2.8-7,3.2-10.5,3.2c-5-0.1-9.3-0.9-13.1-4.4c-3.2-3-4.9-7.3-4.9-12.6v0v0
	c0-0.2,0-0.4,0-0.6c0-5.4,1.8-9.8,5.1-12.8c4-3.7,9.7-4.9,15-4.9c3,0,5.9,0.5,8.5,1.7c0.1,0.1,0.3,0.1,0.4,0.1v2.5
	c-1.8-1.8-4.4-2.7-8.1-2.6C322.9,103,322.2,134.6,341.7,134.7z M348.6,86.7h-0.9c1.3,0.6,2.1,1.2,2.4,1.8c0.3,0.7,0.4,1.5,0.4,2.6
	v44.2c1.2-0.5,1.6-0.6,1.6-2.1V91.1c0-1.5-0.2-2.7-0.7-3.4C351,87,350.1,86.7,348.6,86.7z M346.6,86l8.3-2.7h1V133
	c0,0.9,0.2,1.5,0.7,1.8c0.5,0.3,1.3,0.5,2.5,0.5v1.5l-9.5,0v-3v-31.1V91.9c0-1.4-0.2-2.4-0.5-3.1c-0.3-0.6-1.2-1.2-2.6-1.8V86z
	 M429.7,119c2.2-0.3,4-1.1,5.2-2.5c1.2-1.4,1.8-3.3,1.8-5.6c0-2.3-0.5-4.1-1.6-5.5c-1.1-1.4-2.6-2.2-4.6-2.5
	c1.5,0.8,2.6,1.8,3.4,3.1c0.7,1.3,1.1,3,1.1,5.2c0,2.3-0.4,4-1.3,5.1C432.8,117.4,431.5,118.3,429.7,119z M427.5,120.5h-2.1
	c0.6,0.5,1.3,1.1,2.1,2c0.8,0.9,1.8,2.1,3,3.7c1.2,1.5,2.4,3.1,3.6,4.7c1.1,1.4,2.2,2.5,3.1,3.3c1,0.8,1.8,1.3,2.5,1.5
	c0.7,0.2,1.5,0.3,2.4,0.4c-1-0.5-2-1.2-3-2.1c-1-0.9-2-2-3.1-3.3c-1.1-1.3-2.2-2.8-3.4-4.2c-1.2-1.5-2.4-2.9-3.6-4.2
	c-0.2-0.2-0.4-0.5-0.6-0.8C428.3,121.1,427.9,120.8,427.5,120.5z M420.9,107.8v11.3h4.1c1.4,0,2.7-0.2,4.1-0.7c1.3-0.4,2.3-1,3-1.7
	c1.4-1.3,2.1-3.3,2.1-5.9c0-3.1-1.1-5.4-3.2-6.9c-0.7-0.5-1.5-0.9-2.4-1c-0.8-0.2-1.9-0.2-3.1-0.2c-1.3,0-2.3,0.2-2.9,0.5
	c-0.7,0.3-1.1,0.9-1.3,1.6C421.1,105.5,420.9,106.5,420.9,107.8z M415.6,107.4v24.8c0,1.6-0.6,2.7-1.7,3.2c2.2-0.1,3.3-0.9,3.3-2.5
	v-25.3c0-1.3-0.1-2.3-0.2-2.9c-0.1-0.7-0.5-1.1-1-1.5c-0.5-0.3-1.3-0.5-2.4-0.4c0.9,0.4,1.4,0.9,1.7,1.5
	C415.4,104.9,415.6,105.9,415.6,107.4z M426.5,136.8h-17.4v-1.4c1.6,0,2.8-0.2,3.6-0.4c0.8-0.2,1.3-0.6,1.6-1.2
	c0.3-0.6,0.4-1.5,0.4-2.8v-23.4c0-1.3-0.1-2.3-0.4-3c-0.2-0.7-0.8-1.1-1.5-1.4c-0.8-0.3-2-0.4-3.8-0.5v-1.4h19.8
	c2.5,0,4.7,0.4,6.5,1.3c1.9,0.9,3.3,2,4.2,3.4c1,1.4,1.4,3,1.4,4.6c0,1.1-0.2,2.1-0.7,3.2c-0.4,1-1.1,2-1.9,2.8
	c-0.8,0.8-1.8,1.6-3,2.1c-1.2,0.6-2.5,1-4.1,1.3c1.1,1.2,2.6,2.8,4.3,4.9l2.5,2.9c0.1,0.2,0.3,0.3,0.5,0.6c0.2,0.2,0.5,0.5,0.8,0.9
	c0.8,1,1.5,1.8,2,2.4c0.5,0.6,1.1,1.2,1.6,1.7c0.5,0.5,1.1,0.9,1.6,1.2c0.5,0.3,1.1,0.5,1.7,0.7v1.4h-4.7c-1.1,0-2.1-0.2-3-0.7
	c-1-0.5-1.9-1.1-2.7-2c-0.9-0.9-1.9-2-3-3.4l-3.5-4.5c-1.6-2.1-2.8-3.6-3.6-4.4c-0.8-0.8-1.5-1.2-2.1-1.2h-2.8v10.6
	c0,1.1,0.1,1.9,0.4,2.5c0.3,0.6,0.8,1,1.8,1.3c0.5,0.1,1.1,0.2,1.8,0.3c0.7,0.1,1.2,0.1,1.6,0.1V136.8z M393.8,103.1
	c1.8,1,3.4,2.3,4.7,4c1.3,1.7,2.2,3.7,2.9,6.1c0.6,2.4,1,5,1,7.8c0,2.7-0.4,5-1.1,7c-0.7,2-1.8,3.7-3.1,5.2c1.3-1,2.4-2.1,3.3-3.4
	c0.8-1.3,1.5-2.7,1.9-4.3c0.4-1.6,0.6-3.4,0.6-5.4c0-2.9-0.4-5.5-1.2-8c-0.8-2.4-2-4.4-3.5-6C397.7,104.5,395.9,103.5,393.8,103.1z
	 M381.2,104c-2.7,1.6-4.7,3.7-6.1,6.3c-1.4,2.5-2.1,5.4-2.1,8.6c0,2.7,0.5,5.1,1.4,7.3c0.9,2.2,2.2,4.1,4,5.7
	c1.8,1.6,3.9,2.8,6.5,3.6c-3.2-1.6-5.7-3.8-7.5-6.7c-1.9-2.8-2.8-6.3-2.8-10.4c0-2,0.2-3.9,0.7-5.5c0.5-1.7,1.2-3.2,2.2-4.7
	C378.5,106.9,379.7,105.5,381.2,104z M378.9,116.4c0,2.8,0.3,5.4,0.9,7.7c0.6,2.4,1.4,4.4,2.5,6.1c1.1,1.7,2.4,3,3.8,3.9
	c1.5,0.9,3.1,1.3,4.8,1.3c1.5,0,2.8-0.3,4.1-0.9c1.3-0.6,2.4-1.6,3.4-2.8c1-1.2,1.7-2.8,2.3-4.6c0.5-1.8,0.8-4,0.8-6.4
	c0-2.6-0.3-5.1-0.9-7.3c-0.6-2.2-1.5-4.2-2.6-5.7c-1.1-1.6-2.4-2.8-3.9-3.6c-1.5-0.9-3.1-1.3-4.8-1.3c-1.5,0-2.9,0.3-4.2,1
	c-1.3,0.6-2.4,1.6-3.3,2.8c-0.9,1.2-1.6,2.6-2.1,4.3C379.2,112.4,378.9,114.3,378.9,116.4z M372.2,119c0-1.5,0.1-2.8,0.4-4.1
	c0.3-1.3,0.7-2.5,1.2-3.7c0.5-1.2,1.2-2.3,2-3.3c0.8-1,1.7-1.9,2.7-2.7c1-0.9,2.2-1.6,3.4-2.1c1.2-0.5,2.5-0.9,3.9-1.2
	c1.4-0.2,2.9-0.4,4.5-0.4c2.7,0,5.2,0.5,7.4,1.4c2.2,0.9,4.1,2.2,5.7,3.8c1.6,1.6,2.8,3.5,3.6,5.6c0.8,2.1,1.3,4.4,1.3,6.7
	c0,2.5-0.5,4.9-1.4,7.1c-0.9,2.2-2.2,4.1-3.9,5.7c-1.7,1.6-3.7,2.9-6,3.8c-2.3,0.9-4.8,1.3-7.4,1.3c-2.5,0-4.8-0.4-7-1.3
	c-2.2-0.9-4-2.1-5.6-3.7c-1.6-1.6-2.8-3.5-3.6-5.7C372.6,123.9,372.2,121.5,372.2,119z M363.4,107.8v-2c2.1-1,4.2-3,4.2-5.5
	c0-0.9-0.2-1.7-0.7-2.4c-1-1.7-2.7-2.9-3.8-4.5c-1-1.4-0.6-3.2,0.6-4.4c1.6-1.5,3.7-1.3,5.4-0.1c0.9,0.7,1.6,1.6,2.1,2.8
	c0.6,1.2,0.8,2.6,0.8,4c0,2.7-0.7,5-2.2,7.1C368.4,104.9,366.3,106.6,363.4,107.8z M271,107v24.3c0,1.2-0.1,2.1-0.4,2.7
	c-0.3,0.6-0.7,1-1.3,1.4c1.4,0,2.3-0.4,2.7-1.1c0.4-0.7,0.6-1.9,0.6-3.5v-24.3c0-1.4-0.2-2.4-0.7-2.8c-0.5-0.5-1.3-0.7-2.6-0.7
	c0.6,0.3,1.1,0.8,1.3,1.3C270.9,104.9,271,105.8,271,107z M292,102.8h-4.5c1.3,0.4,2.4,0.9,3.3,1.5c1,0.6,2,1.3,3.1,2.1L292,102.8z
	 M287.9,120.9V116c-0.7,1.1-1.8,1.9-3.6,2.5c0.9,0.2,1.6,0.5,2.2,0.9C287.1,119.7,287.5,120.2,287.9,120.9z M293.1,135.4l1.7-4.4
	c-1,1.1-1.9,1.9-2.7,2.4c-0.8,0.5-1.9,1.2-3.4,2H293.1z M276.5,119.3v11.1c0,1.2,0.1,2.2,0.3,2.9c0.2,0.7,0.5,1.2,1,1.5
	c0.5,0.3,1.1,0.5,2,0.6c0.9,0.1,2.1,0.1,3.6,0.1c1.8,0,3.5-0.3,5-0.8c1.5-0.6,2.8-1.4,4.2-2.5c1.3-1.1,2.7-2.6,4.3-4.4h2l-3.1,9.1
	h-30.9v-1.4c1.5,0,2.6-0.2,3.4-0.4c0.8-0.2,1.3-0.6,1.7-1.1c0.3-0.5,0.5-1.3,0.5-2.2v-24.9c0-1.2-0.2-2-0.5-2.6
	c-0.3-0.5-0.8-0.9-1.5-1.1c-0.7-0.2-1.9-0.3-3.6-0.4v-1.4h29.7l3,8h-1.8c-1-1.2-2.2-2.3-3.6-3.3c-1.4-1-3-1.8-4.7-2.4
	c-1.7-0.6-3.6-0.9-5.5-0.9c-1.5,0-2.7,0.2-3.4,0.5c-0.8,0.3-1.3,0.8-1.5,1.4c-0.2,0.6-0.4,1.4-0.4,2.3v11h5c4.4,0,6.6-2,6.7-6.1h1.8
	v13.3h-1.6c-0.2-2-0.8-3.5-1.7-4.5c-0.9-0.9-2.4-1.4-4.3-1.4H276.5z M233.4,102.8h-4.1l-1,4.3c0.9-1.1,1.6-2,2.2-2.5
	C231.2,104,232.2,103.4,233.4,102.8z M243.9,130.4v-24.7c0-1-0.1-1.7-0.3-2.2c-0.2-0.5-0.6-0.8-1.3-0.8v28.6c0,1-0.1,1.9-0.4,2.5
	c-0.2,0.6-0.7,1.2-1.4,1.6h0.5c1.2,0,2-0.4,2.3-1.2C243.8,133.5,243.9,132.2,243.9,130.4z M259.7,106.8l-1.1-4h-4.7
	c1.3,0.4,2.3,0.9,3.2,1.6C257.9,105,258.7,105.8,259.7,106.8z M228.8,101.4h31.9l1.8,8.3h-1.8c-1.3-2.2-2.6-3.7-4-4.7
	c-1.4-1-2.7-1.6-4-1.8c-1.3-0.2-2.9-0.3-4.9-0.4v28.6c0,1.1,0.2,1.9,0.5,2.5c0.4,0.6,0.9,1,1.7,1.2c0.8,0.2,1.9,0.4,3.4,0.4v1.4
	h-17.6v-1.4c1.5,0,2.6-0.1,3.4-0.3c0.8-0.2,1.4-0.6,1.8-1.2c0.4-0.6,0.6-1.6,0.6-2.9v-28.3c-1.8,0-3.4,0.2-4.7,0.5
	c-1.3,0.3-2.5,0.8-3.4,1.4c-0.9,0.6-1.7,1.2-2.3,1.9c-0.6,0.7-1.5,1.7-2.6,3.1H227L228.8,101.4z M197.6,107v24.3
	c0,1.2-0.1,2.1-0.4,2.7c-0.3,0.6-0.7,1-1.3,1.4c1.4,0,2.3-0.4,2.7-1.1c0.4-0.7,0.6-1.9,0.6-3.5v-24.3c0-1.4-0.2-2.4-0.7-2.8
	c-0.5-0.5-1.3-0.7-2.6-0.7c0.6,0.3,1.1,0.8,1.3,1.3C197.5,104.9,197.6,105.8,197.6,107z M218.5,102.8H214c1.3,0.4,2.4,0.9,3.3,1.5
	c1,0.6,2,1.3,3.1,2.1L218.5,102.8z M214.5,120.9V116c-0.7,1.1-1.8,1.9-3.6,2.5c0.9,0.2,1.6,0.5,2.2,0.9
	C213.6,119.7,214.1,120.2,214.5,120.9z M219.6,135.4l1.7-4.4c-1,1.1-1.9,1.9-2.7,2.4c-0.8,0.5-1.9,1.2-3.4,2H219.6z M203,119.3v11.1
	c0,1.2,0.1,2.2,0.3,2.9c0.2,0.7,0.5,1.2,1,1.5c0.5,0.3,1.1,0.5,2,0.6c0.9,0.1,2.1,0.1,3.6,0.1c1.8,0,3.5-0.3,5-0.8
	c1.5-0.6,2.8-1.4,4.2-2.5c1.3-1.1,2.7-2.6,4.3-4.4h2l-3.1,9.1h-30.9v-1.4c1.5,0,2.6-0.2,3.4-0.4c0.8-0.2,1.3-0.6,1.7-1.1
	c0.3-0.5,0.5-1.3,0.5-2.2v-24.9c0-1.2-0.2-2-0.5-2.6c-0.3-0.5-0.8-0.9-1.5-1.1c-0.7-0.2-1.9-0.3-3.6-0.4v-1.4h29.7l3,8h-1.8
	c-1-1.2-2.2-2.3-3.6-3.3c-1.4-1-3-1.8-4.7-2.4c-1.7-0.6-3.6-0.9-5.5-0.9c-1.5,0-2.7,0.2-3.4,0.5c-0.8,0.3-1.3,0.8-1.5,1.4
	c-0.2,0.6-0.4,1.4-0.4,2.3v11h5c4.4,0,6.6-2,6.7-6.1h1.8v13.3H215c-0.2-2-0.8-3.5-1.7-4.5c-0.9-0.9-2.4-1.4-4.3-1.4H203z M172.4,119
	c2.2-0.3,4-1.1,5.2-2.5c1.2-1.4,1.8-3.3,1.8-5.7c0-2.3-0.5-4.1-1.6-5.5c-1.1-1.4-2.6-2.2-4.6-2.5c1.5,0.8,2.6,1.8,3.4,3.1
	c0.7,1.3,1.1,3,1.1,5.2c0,2.3-0.4,4-1.3,5.1C175.5,117.5,174.2,118.4,172.4,119z M170.2,120.6h-2.1c0.6,0.5,1.3,1.1,2.1,2
	c0.8,0.9,1.8,2.1,3,3.7c1.2,1.5,2.4,3.1,3.6,4.7c1.1,1.4,2.2,2.5,3.1,3.3c1,0.8,1.8,1.3,2.5,1.5c0.7,0.2,1.5,0.3,2.4,0.4
	c-1-0.5-2-1.2-3-2.1c-1-0.9-2-2-3.1-3.3c-1.1-1.3-2.2-2.8-3.4-4.3c-1.2-1.5-2.4-2.9-3.6-4.2c-0.2-0.2-0.4-0.5-0.6-0.8
	C171,121.1,170.6,120.8,170.2,120.6z M163.7,107.9v11.3h4.1c1.4,0,2.7-0.2,4.1-0.7c1.3-0.4,2.4-1,3-1.7c1.4-1.3,2.1-3.3,2.1-5.9
	c0-3.1-1.1-5.4-3.2-6.9c-0.7-0.5-1.5-0.9-2.4-1c-0.8-0.2-1.9-0.2-3.1-0.2c-1.3,0-2.3,0.2-2.9,0.5c-0.7,0.3-1.1,0.9-1.3,1.6
	C163.8,105.5,163.7,106.5,163.7,107.9z M158.3,107.4v24.8c0,1.6-0.6,2.7-1.7,3.2c2.2-0.1,3.3-0.9,3.3-2.5v-25.4
	c0-1.3-0.1-2.3-0.2-2.9c-0.1-0.7-0.5-1.1-1-1.5c-0.5-0.3-1.3-0.5-2.4-0.4c0.9,0.4,1.4,0.9,1.7,1.5
	C158.1,104.9,158.3,105.9,158.3,107.4z M169.2,136.8h-17.4v-1.4c1.6,0,2.8-0.2,3.6-0.4c0.8-0.2,1.3-0.6,1.6-1.2
	c0.3-0.6,0.4-1.5,0.4-2.8v-23.5c0-1.3-0.1-2.3-0.4-3c-0.2-0.7-0.8-1.1-1.5-1.4c-0.8-0.3-2-0.4-3.8-0.5v-1.4h19.8
	c2.5,0,4.7,0.4,6.6,1.3c1.9,0.9,3.3,2,4.2,3.4c1,1.4,1.4,3,1.4,4.6c0,1.1-0.2,2.2-0.7,3.2c-0.4,1-1.1,2-1.9,2.8
	c-0.8,0.8-1.8,1.6-3,2.1c-1.2,0.6-2.5,1-4.1,1.3c1.1,1.2,2.6,2.8,4.3,4.9l2.5,2.9c0.1,0.2,0.3,0.3,0.5,0.6c0.2,0.2,0.5,0.5,0.8,0.9
	c0.8,1,1.5,1.8,2,2.4c0.5,0.6,1.1,1.2,1.6,1.7c0.5,0.5,1.1,0.9,1.6,1.2c0.5,0.3,1.1,0.5,1.7,0.7v1.4h-4.7c-1.1,0-2.1-0.2-3-0.7
	c-1-0.5-1.9-1.1-2.7-2c-0.9-0.9-1.9-2-3-3.4l-3.5-4.5c-1.6-2.1-2.8-3.6-3.6-4.4c-0.8-0.8-1.5-1.2-2.1-1.2h-2.8v10.7
	c0,1.1,0.1,1.9,0.4,2.5c0.3,0.6,0.8,1,1.8,1.3c0.5,0.1,1.1,0.2,1.8,0.3c0.7,0.1,1.2,0.1,1.6,0.1V136.8z M121.4,89.7
	c-3.4,1.3-6.3,2.9-8.5,4.7c-1.3,1.1-2.4,2.3-3.4,3.6c-1,1.3-1.8,2.8-2.5,4.3c-0.7,1.5-1.2,3.1-1.6,4.9c-0.4,1.8-0.5,3.5-0.5,5.1
	c0,4,0.8,7.7,2.5,11.1c1.6,3.4,4.1,6.2,7.4,8.4c3.3,2.2,7.2,3.6,11.7,4.1c-3-0.8-5.7-1.9-8.1-3.4c-2.4-1.5-4.5-3.3-6.2-5.4
	c-1.7-2.1-3-4.4-3.8-6.9c-0.9-2.5-1.3-5.1-1.3-7.7c0-2.2,0.4-4.6,1.1-7c0.7-2.4,1.8-4.6,3.1-6.5c1.5-2.1,3-3.9,4.6-5.2
	C117.4,92.3,119.3,91,121.4,89.7z M143.4,96.6l-0.2-5.7c-1,0.5-2.1,0.7-3.3,0.7c-0.6,0-1.1,0-1.6-0.1c1.1,0.9,2.1,1.7,2.8,2.5
	C141.9,94.8,142.6,95.7,143.4,96.6z M144.7,88.2h2.7v14.6h-2.1c-1-2.2-2.2-4-3.4-5.6c-1.2-1.7-2.5-3-3.9-4.1
	c-1.4-1.1-2.8-1.9-4.3-2.5c-1.5-0.5-3.1-0.8-4.8-0.8c-2.3,0-4.4,0.5-6.3,1.5c-1.9,1-3.5,2.5-4.8,4.4c-1.3,1.9-2.4,4.3-3.1,7
	c-0.7,2.8-1.1,5.7-1.1,8.8c0,4.4,0.7,8.3,2.2,11.7c1.5,3.4,3.5,6,6.2,7.9c2.6,1.9,5.6,2.9,9,2.9c2.1,0,4.1-0.3,6-1
	c1.9-0.7,3.8-1.7,5.5-3.1c1.8-1.4,3.4-3.1,4.9-5.2l2,1.1c-2.5,3.6-5.5,6.3-9,8.2c-3.5,1.8-7.5,2.8-12.1,2.8c-3.5,0-6.8-0.6-9.8-1.9
	c-3-1.2-5.6-3-7.8-5.2c-2.2-2.2-3.9-4.8-5-7.8c-1.2-3-1.8-6.1-1.8-9.4c0-3.5,0.6-6.9,1.9-9.9c1.3-3.1,3-5.7,5.2-7.9
	c2.2-2.2,4.8-3.9,7.8-5.1c2.9-1.2,6.1-1.8,9.4-1.8c1.2,0,2.4,0.1,3.5,0.3c1.1,0.2,2.4,0.5,3.8,0.9c1.5,0.4,2.5,0.7,3,0.8
	c0.5,0.1,1.1,0.2,1.8,0.2C142.1,90.1,143.5,89.4,144.7,88.2z M77.2,135.9h3c-0.7-0.5-1-1.2-1-1.9c0-0.2,0-0.4,0-0.5
	c-0.3,0.5-0.6,1-0.9,1.3C78.1,135.2,77.8,135.5,77.2,135.9z M92.3,132.3l-5.6-14.2c-0.3-0.7-0.6-1.2-0.8-1.5
	c-0.3-0.3-0.7-0.4-1.2-0.4c-0.3,0-0.6,0-0.7,0.1c0.5,0.2,0.9,0.5,1.1,0.8c0.3,0.4,0.5,0.8,0.7,1.4l5.6,14.2c0.3,0.8,0.5,1.5,0.5,2
	c0,0.3-0.1,0.5-0.2,0.7c-0.1,0.1-0.3,0.3-0.7,0.6h0.3c0.5,0,0.9-0.1,1.1-0.4c0.3-0.3,0.4-0.6,0.4-0.9
	C92.9,134.1,92.7,133.3,92.3,132.3z M82.1,127.5h6.7l-3.3-8.5L82.1,127.5z M90.9,132.9l-1.8-4.5h-7.4l-1,2.7
	c-0.3,0.7-0.4,1.4-0.4,2.1c0,0.7,0.2,1.3,0.7,1.8c0.4,0.5,1.1,0.8,1.9,0.8v0.9h-7.3v-0.9c1.6-0.2,2.9-1.6,3.9-4.2l5.4-13.9
	c-0.3-0.5-0.6-0.8-0.9-1c-0.3-0.2-0.8-0.3-1.4-0.4v-0.8l3.8-1.3h1.4l7.3,18.5c0.4,1,0.8,1.8,1.3,2.1c0.4,0.4,1.1,0.7,1.9,0.8v0.9
	h-9.3v-0.9c0.8-0.1,1.4-0.2,1.8-0.4c0.4-0.2,0.6-0.5,0.6-1C91.4,134.2,91.2,133.6,90.9,132.9z M68.3,135.9h2.9l1.4-3.1
	c-0.6,0.7-1.2,1.3-1.9,1.8C69.9,135.1,69.2,135.6,68.3,135.9z M57.6,117.8V134c0,0.5-0.1,0.9-0.3,1.2c-0.2,0.3-0.5,0.5-0.9,0.7
	c0,0,0.1,0,0.3,0c0.1,0,0.2,0,0.3,0c1.1,0,1.6-0.8,1.6-2.3v-15.2c0-1.1-0.1-1.9-0.2-2.4c-0.2-0.5-0.6-0.8-1.4-0.8h-0.5
	c0.4,0.3,0.7,0.5,0.9,0.8C57.5,116.5,57.6,117,57.6,117.8z M53.6,115.3v-0.9h11v0.9h-0.5c-0.8,0-1.5,0.1-1.9,0.2
	c-0.4,0.1-0.7,0.4-0.9,0.8c-0.2,0.4-0.3,1-0.3,1.7v15.5c0,0.6,0.1,1.1,0.3,1.4c0.2,0.3,0.6,0.6,1.1,0.7c0.5,0.2,1.3,0.2,2.3,0.2
	c0.8,0,1.6-0.1,2.3-0.2c0.7-0.1,1.4-0.4,2.1-0.7c0.7-0.3,1.4-0.8,2.1-1.5c0.7-0.6,1.5-1.4,2.2-2.4h1.5l-2.1,5.7H53.6v-0.9h0.2
	c0.9,0,1.6-0.1,2.1-0.3c0.5-0.2,0.8-0.4,0.9-0.8c0.2-0.4,0.2-0.9,0.2-1.6v-15c0-0.8-0.1-1.4-0.2-1.8c-0.1-0.4-0.5-0.7-1-0.9
	C55.4,115.4,54.6,115.3,53.6,115.3z M205.6,96.3c-2.4,0.8-4.7,1.5-7.1,2.2c-0.1,0-0.3,0-0.3-0.2c0-0.1,0-0.2,0.1-0.3l0.4-0.4l0,0
	c2.6-2.1,5-4.1,7.4-6.3c0.1-0.1,0.3-0.1,0.4,0c0,0,0,0,0,0h0c0.9,1.4,2.2,2.7,3.6,3.8c1.4,1.1,3,2,4.6,2.9c0.1,0.1,0.2,0.2,0.1,0.4
	c-0.1,0.1-0.2,0.2-0.3,0.1l0,0c-2.7-0.8-5.3-1.5-8-2.2C206.3,96.2,206,96.2,205.6,96.3z"/>
</svg>
