<svg xmlns="http://www.w3.org/2000/svg" width="34" height="33"><path d="M32.61 33H16.08c-.2 0-.38-.12-.45-.3a.494.494 0 0 1 .1-.53l2.8-2.8H3.69a3.665 3.665 0 0 1-3.67-3.4c-.01-.03-.01-.07-.01-.1V5.23a3.82 3.82 0 0 1 3.82-3.82c.27 0 .49.22.49.48V6.7h15.07l3.38-3.38 1.58-1.58 1.3-1.31c.28-.28.66-.43 1.05-.43.4 0 .77.15 1.05.43l1.51 1.51c.28.28.43.66.43 1.05 0 .4-.15.77-.43 1.05l-1.31 1.31L26.6 6.7h3.73c.27 0 .48.22.48.49v9.89l1.46-1.45c.14-.14.35-.18.53-.11.18.08.3.25.3.45v16.54c0 .27-.22.49-.49.49zM28.57 3.35c.2-.2.2-.52 0-.72l-1.51-1.51c-.2-.2-.52-.2-.72 0l-.96.96 2.23 2.24.96-.97zM26.92 5l-2.23-2.23-.89.89 2.23 2.23.89-.89zm5.21 24.71h-.9c-.27 0-.48-.22-.48-.49 0-.26.21-.48.48-.48h.9v-1.47h-.9c-.27 0-.48-.21-.48-.48s.21-.49.48-.49h.9v-1.46h-.9c-.27 0-.48-.22-.48-.49s.21-.48.48-.48h.9V22.4h-.9a.48.48 0 0 1-.48-.48c0-.27.21-.49.48-.49h.9v-4.29l-8.55 8.55c-.01.01-.02.03-.03.04a.5.5 0 0 1-.31.1.5.5 0 0 1-.31-.1c-.01-.01-.02-.03-.03-.04a.489.489 0 0 1 0-.69l6.94-6.95V7.67h-4.21l-10 10c-.01.02-.02.03-.04.04h-.01l-.03.03h-.01c-.01.01-.02.02-.03.02-.01.01-.01.01-.02.01s-.02.01-.03.01l-.01.01-2.96 1.04h9.65c.27 0 .48.22.48.49s-.21.49-.48.49H8.69a.49.49 0 0 1 0-.98h1.61c.01-.02.02-.05.02-.07l.65-1.83.94-2.68c.01 0 .01-.01.01-.01 0-.01.01-.02.01-.03 0-.01.01-.01.01-.02s.01-.02.02-.03c0 0 0-.01.01-.01 0-.01.01-.02.02-.03 0-.01 0-.01.01-.02l.03-.03 2.27-2.28a.489.489 0 0 1 .69.69l-1.93 1.93 2.23 2.23 9.79-9.8.26-.26-2.23-2.23-3.17 3.18-3.52 3.52c-.19.19-.5.19-.69 0a.508.508 0 0 1 0-.69l2.69-2.69H4.32v9.4c0 .26-.22.48-.49.48s-.49-.22-.49-.48V2.42A2.85 2.85 0 0 0 .98 5.23v18.09c.06-.06.12-.12.18-.19.6-.58 1.36-.95 2.18-1.05v-3.07a.49.49 0 0 1 .98 0v3.52c0 .27-.22.49-.49.49h-.18c-.03.01-.07.01-.11.01-.01 0-.02.01-.03.01-.04 0-.07.01-.11.01h-.02l-.12.03h-.01c-.88.18-1.61.77-1.99 1.55v.01c-.02.04-.03.07-.05.11 0 .01-.01.02-.01.03-.01.03-.03.06-.04.09-.01.02-.01.04-.02.05-.01.03-.01.05-.02.08-.01.02-.02.05-.02.07-.01.02-.01.03-.02.05-.01.03-.01.07-.02.1 0 .01-.01.02-.01.03-.01.04-.02.07-.02.11v.02c-.01.04-.02.08-.02.12v.01c-.02.09-.02.18-.03.27a2.7 2.7 0 0 0 2.71 2.62H19.5l1.97-1.97c.17-.16.43-.18.62-.05.02.01.04.03.07.05.19.19.19.5 0 .69l-4.91 4.91h14.88v-2.32zM14.4 17.13l-1.83-1.83-.49 1.39.93.93 1.39-.49zm14.36 6.29c.14-.14.35-.18.53-.11.18.08.3.25.3.45v5.31c0 .27-.22.49-.49.49h-5.31c-.19 0-.37-.12-.44-.3-.08-.19-.04-.4.1-.53l5.31-5.31zm-.14 5.16v-3.65l-3.65 3.65h3.65z" fill="#3B1949" opacity=".5"/></svg>