<svg xmlns="http://www.w3.org/2000/svg" width="35" height="35"><path d="M34.44 35h-6.42v-1.17h5.84V28h1.16v6.42c0 .32-.26.58-.58.58zM18.1 33.82V35h-1.16v-1.18C8.38 33.5 1.51 26.64 1.2 18.08H.01v-1.16H1.2C1.51 8.36 8.38 1.5 16.94 1.18V0h1.16v1.18c8.56.32 15.43 7.18 15.74 15.74h1.18v1.16h-1.18c-.31 8.56-7.18 15.42-15.74 15.74zm11.8-7.57c.38-.54.73-1.11 1.04-1.69v-2.22c0-1.06-.86-1.92-1.93-1.92h-1.29l.84 2.11c.09.22.04.47-.12.63l-1.17 1.17c-.23.23-.6.23-.83 0l-1.16-1.17a.567.567 0 0 1-.13-.63l.84-2.11H24.7c-1.07 0-1.93.86-1.93 1.92v3.91h7.13zM27.66 15.4c-.84 1.1-2.64 1.4-3.64 1.49a3.658 3.658 0 0 0 2.83 2.36c.9 0 2.66-1.17 2.9-2.6l-2.09-1.25zm2.02-.15c-.26-1.63-1.17-2.42-2.83-2.42-1.8 0-2.72.93-2.88 2.89 1.03-.1 2.62-.44 2.92-1.32.01-.04.03-.08.05-.12.16-.27.52-.36.8-.2l1.94 1.17zm-3.31 7.36l.48.48.49-.48-.49-1.21-.48 1.21zm-9.43 10.04V31.5h1.16v1.15c4.2-.16 8.14-2.06 10.88-5.23h-6.79c-.33 0-.59-.26-.59-.59v-2.91h-8.17v2.91c0 .33-.26.59-.58.59h-6.8c2.75 3.17 6.69 5.07 10.89 5.23zm1.38-20.75c-.84 1.1-2.64 1.4-3.64 1.49a3.672 3.672 0 0 0 2.84 2.36c.89 0 2.66-1.17 2.89-2.6l-2.09-1.25zm2.03-.15c-.26-1.63-1.18-2.42-2.83-2.42-1.81 0-2.73.93-2.89 2.89 1.03-.1 2.62-.44 2.92-1.32.01-.04.03-.08.05-.12.17-.27.53-.36.8-.2l1.95 1.17zm-3.31 7.36l.48.48.48-.48-.48-1.21-.48 1.21zm1.34-2.19l.85 2.11c.09.22.03.47-.13.63l-1.17 1.17c-.23.23-.6.23-.82 0l-1.17-1.17a.567.567 0 0 1-.13-.63l.85-2.11h-1.3c-1.06 0-1.93.86-1.93 1.92v3.91h8.17v-3.91c0-1.06-.86-1.92-1.92-1.92h-1.3zM4.1 24.56c.31.58.66 1.15 1.04 1.69h7.13v-3.91c0-1.06-.86-1.92-1.93-1.92h-1.3l.85 2.11c.09.22.04.47-.13.63L8.6 24.33c-.23.23-.6.23-.83 0L6.6 23.16a.604.604 0 0 1-.13-.63l.85-2.11h-1.3c-1.06 0-1.92.86-1.92 1.92v2.22zm4.89-9.16c-.84 1.1-2.64 1.4-3.64 1.49a3.658 3.658 0 0 0 2.83 2.36c.9 0 2.66-1.17 2.89-2.6L8.99 15.4zm2.02-.15c-.26-1.63-1.17-2.42-2.83-2.42-1.81 0-2.73.93-2.88 2.89 1.02-.1 2.62-.44 2.91-1.32.02-.04.03-.08.06-.12.16-.27.52-.36.8-.2l1.94 1.17zM7.7 22.61l.48.48.48-.48-.48-1.21-.48 1.21zm24.98-5.69C32.36 9 26.02 2.66 18.1 2.35V3.5h-1.16V2.35C9.02 2.66 2.68 9 2.36 16.92h1.15v1.16H2.36c.05 1.27.26 2.53.62 3.75.22-1.35 1.3-2.39 2.66-2.55a4.07 4.07 0 0 1-1.54-2.95c0-3.85 2.22-4.66 4.08-4.66 1.87 0 4.09.81 4.09 4.66a4.07 4.07 0 0 1-1.54 2.95c.47.05.93.22 1.33.49.07.05.14.1.21.16v-1.09a3.08 3.08 0 0 1 2.7-3.06 4.07 4.07 0 0 1-1.54-2.95c0-3.85 2.23-4.66 4.09-4.66 1.86 0 4.08.81 4.08 4.66a4.036 4.036 0 0 1-1.54 2.95 3.08 3.08 0 0 1 2.71 3.06v1.09c.07-.06.14-.11.21-.16.4-.27.85-.43 1.33-.49a4.07 4.07 0 0 1-1.54-2.95c0-3.85 2.22-4.66 4.08-4.66 1.87 0 4.09.81 4.09 4.66a4.07 4.07 0 0 1-1.54 2.95c1.35.16 2.44 1.2 2.66 2.55.36-1.22.57-2.48.62-3.75h-1.16v-1.16h1.16zm1.18-15.75h-5.84V0h6.42c.32 0 .58.26.58.58V7h-1.16V1.17zM1.18 7H.01V.58C.01.26.28 0 .6 0h6.42v1.17H1.18V7zm0 26.83h5.84V35H.6c-.32 0-.59-.26-.59-.58V28h1.17v5.83z" fill="#3B1949" opacity=".5"/></svg>