<svg xmlns="http://www.w3.org/2000/svg" width="31" height="38"><path d="M30.37 15.76h-1.88c-.31 0-.57-.25-.57-.56 0-.31.26-.56.57-.56h1.88c.31 0 .57.25.57.56 0 .31-.26.56-.57.56zm-4.1-1.31c-.02.01-.04.01-.07.01a.57.57 0 0 1-.56-.49c-.55-4.63-4.22-8.25-8.92-8.81a.56.56 0 0 1-.49-.62.57.57 0 0 1 .63-.49c5.18.62 9.3 4.68 9.91 9.79.03.3-.19.58-.5.61zm-1.19-7.9c-.22.21-.58.21-.8 0a.538.538 0 0 1 0-.79l1.32-1.31a.58.58 0 0 1 .81 0c.22.22.22.57 0 .79l-1.33 1.31zm-9.61-3.59c-.31 0-.57-.25-.57-.56V.56c0-.31.26-.56.57-.56.31 0 .56.25.56.56V2.4c0 .31-.25.56-.56.56zm7.45 10.46c.44 0 .8.35.8.79v1.98c0 .44-.36.79-.8.79H21.2c-.1.33-.23.64-.39.95l1.21 1.19c.15.15.23.35.23.56 0 .21-.08.41-.23.56l-1.43 1.4c-.31.31-.82.31-1.13 0l-1.22-1.19c-.31.15-.63.29-.96.39v1.68c0 .44-.36.79-.8.79h-2.02c-.44 0-.8-.35-.8-.79v-1.68c-.34-.1-.66-.24-.97-.39l-1.21 1.19c-.31.31-.82.31-1.14 0l-1.42-1.4a.773.773 0 0 1 0-1.12l1.21-1.19c-.16-.31-.29-.62-.4-.95H8.02c-.45 0-.81-.35-.81-.79v-1.98c0-.44.36-.79.81-.79h1.71c.11-.33.24-.64.4-.95l-1.21-1.19a.796.796 0 0 1-.24-.56c0-.21.09-.41.24-.55l1.42-1.41c.32-.3.83-.3 1.14 0l1.21 1.2c.31-.16.63-.29.97-.4V7.88c0-.44.36-.79.8-.79h2.02c.44 0 .8.35.8.79v1.68c.33.11.65.24.96.4l1.22-1.2c.31-.3.82-.3 1.13 0l1.43 1.41c.15.14.23.34.23.55 0 .21-.08.41-.23.56l-1.21 1.19c.16.31.29.62.39.95h1.72zm-3.22-1.43l1.28-1.27-.96-.94-1.28 1.26c-.19.18-.48.22-.7.08-.45-.27-.94-.47-1.46-.59a.556.556 0 0 1-.43-.54V8.2h-1.36v1.79c0 .26-.18.48-.44.54-.51.12-1 .32-1.45.59-.23.14-.52.1-.7-.08l-1.29-1.26-.96.94 1.29 1.27c.18.18.22.46.08.68-.28.45-.48.93-.61 1.43-.06.25-.28.43-.55.43H8.35v1.34h1.81c.27 0 .49.18.55.43.13.51.33.99.61 1.43.14.22.1.5-.08.69l-1.29 1.26.96.94 1.29-1.26c.18-.18.47-.22.7-.08.45.27.94.47 1.45.59.26.06.44.29.44.54v1.79h1.36v-1.79c0-.25.18-.48.43-.54.52-.12 1.01-.32 1.46-.59.22-.14.51-.1.7.08l1.28 1.26.96-.94-1.28-1.26a.548.548 0 0 1-.08-.69c.28-.44.48-.92.6-1.43.06-.25.29-.43.55-.43h1.82v-1.34h-1.82c-.26 0-.49-.18-.55-.43-.12-.5-.32-.99-.6-1.43-.14-.22-.11-.5.08-.68zm-4.23 6.19c-1.68 0-3.04-1.34-3.04-2.98s1.36-2.98 3.04-2.98c1.67 0 3.03 1.34 3.03 2.98s-1.36 2.98-3.03 2.98zm0-4.85c-1.05 0-1.9.84-1.9 1.87 0 1.03.85 1.87 1.9 1.87 1.05 0 1.9-.84 1.9-1.87 0-1.03-.85-1.87-1.9-1.87zm-1.25-8.17c-5.13.62-9 4.92-9 9.99 0 3.52 1.82 6.72 4.86 8.57 1.08.65 1.75 1.84 1.75 3.1v2.34h7.28v-2.29c0-1.3.67-2.49 1.8-3.18 2.61-1.62 4.34-4.26 4.72-7.26.04-.31.32-.52.63-.48.32.04.53.31.5.62-.43 3.33-2.35 6.27-5.25 8.06-.8.49-1.27 1.33-1.27 2.24v2.37c.58.2.99.74.99 1.37v.79c0 .34-.12.65-.31.89.19.25.31.56.31.89v.8c0 .8-.66 1.44-1.47 1.44h-1.78v1.26c0 .73-.6 1.32-1.34 1.32H14.3c-.74 0-1.34-.59-1.34-1.32v-1.26h-1.78c-.82 0-1.48-.64-1.48-1.44v-.8c0-.33.12-.64.32-.89-.2-.24-.32-.55-.32-.89v-.79c0-.63.42-1.17 1-1.37v-2.42c0-.87-.47-1.7-1.21-2.15-1.62-.99-2.98-2.37-3.92-3.99-.97-1.68-1.48-3.59-1.48-5.53 0-5.62 4.32-10.41 9.99-11.1.31-.03.59.18.63.49.04.3-.18.58-.49.62zm-.13 31.52c0 .11.1.21.21.21h2.34c.11 0 .21-.1.21-.21v-1.26h-2.76v1.26zm-3.25-2.7c0 .18.15.33.34.33h8.58c.18 0 .34-.15.34-.33v-.8c0-.18-.16-.33-.34-.33h-8.58c-.19 0-.34.15-.34.33v.8zm0-2.58c0 .18.15.34.34.34h8.58c.18 0 .34-.16.34-.34v-.79c0-.18-.16-.33-.34-.33h-8.58c-.19 0-.34.15-.34.33v.79zM5.86 6.55L4.53 5.24a.555.555 0 0 1 0-.79c.22-.22.58-.22.8 0l1.33 1.31c.22.22.22.57 0 .79-.22.21-.58.21-.8 0zm-3.41 9.21H.57c-.32 0-.57-.25-.57-.56 0-.31.25-.56.57-.56h1.88a.56.56 0 1 1 0 1.12zm3.41 8.1c.22-.22.58-.22.8 0 .22.21.22.57 0 .78l-1.33 1.31c-.22.22-.58.22-.8 0a.555.555 0 0 1 0-.79l1.33-1.3zm19.22 0l1.33 1.3c.22.22.22.57 0 .79a.58.58 0 0 1-.81 0l-1.32-1.31a.527.527 0 0 1 0-.78c.22-.22.58-.22.8 0z" fill="#3B1949" opacity=".5"/></svg>