<?xml version="1.0" encoding="UTF-8"?> <svg xmlns="http://www.w3.org/2000/svg" xmlns:xlink="http://www.w3.org/1999/xlink" width="500px" height="300px" viewBox="0 0 500 300"><!-- Generator: Sketch 52.2 (67145) - http://www.bohemiancoding.com/sketch --><title>Untitled</title><desc>Created with Sketch.</desc><g id="Page-1" stroke="none" stroke-width="1" fill="none" fill-rule="evenodd"><g id="html" transform="translate(186.000000, 61.000000)"><polygon id="Path" fill="#E44D26" points="128 35 116.338871 164.584948 63.9216616 179 11.6487785 164.605251 0 35"></polygon><polygon id="Path" fill="#F16529" points="64 169 106.095906 157.293102 116 46 64 46"></polygon><polygon id="Path" fill="#EBEBEB" points="41.4335195 77.8731159 64 77.8731159 64 62 24 62 24.3818456 66.2584875 28.3025257 110 64 110 64 94.127234 42.8913479 94.127234"></polygon><polygon id="Path" fill="#EBEBEB" points="45.0202729 118 29 118 31.2358446 142.960195 63.9265496 152 64 151.979696 64 135.440386 63.930064 135.458939 46.15647 130.678411"></polygon><polygon id="Path" fill="#000000" points="12 0 20.2338214 0 20.2338214 7.9253809 27.7658218 7.9253809 27.7658218 0 36 0 36 24 27.7661786 24 27.7661786 15.9633857 20.2341782 15.9633857 20.2341782 24 12.0003567 24 12.0003567 0"></polygon><polygon id="Path" fill="#000000" points="46.0143127 7.95875093 39 7.95875093 39 0 61 0 61 7.95875093 53.9825803 7.95875093 53.9825803 24 46.0146579 24 46.0146579 7.95875093"></polygon><polygon id="Path" fill="#000000" points="65 0 73.359078 0 78.501042 8.43288336 83.6377949 0 92 0 92 24 84.0164427 24 84.0164427 12.1042813 78.501042 20.6376224 78.3631308 20.6376224 72.8439089 12.1042813 72.8439089 24 65 24"></polygon><polygon id="Path" fill="#000000" points="96 0 104.313016 0 104.313016 16.0669718 116 16.0669718 116 24 96 24"></polygon><polygon id="Path" fill="#FFFFFF" points="64 109.941241 83.6006479 109.941241 81.753032 130.616059 64 135.41493 64 152 96.6317597 142.942524 96.8711679 140.249258 100.611618 98.28072 101 94 64 94"></polygon><polygon id="Path" fill="#FFFFFF" points="64 77.9608905 64 78 102.570248 78 102.890589 74.4036905 103.618123 66.2925283 104 62 64 62"></polygon></g></g></svg> 