<?xml version="1.0" encoding="UTF-8"?> <svg xmlns="http://www.w3.org/2000/svg" xmlns:xlink="http://www.w3.org/1999/xlink" width="500px" height="300px" viewBox="0 0 500 300"><!-- Generator: Sketch 52.2 (67145) - http://www.bohemiancoding.com/sketch --><title>javascript-js-seeklogo.com</title><desc>Created with Sketch.</desc><g id="Page-1" stroke="none" stroke-width="1" fill="none" fill-rule="evenodd"><g id="javascript-js-seeklogo.com" transform="translate(179.000000, 79.000000)"><polygon id="Path" fill="#F7DF1E" points="0 0 142 0 142 142 0 142"></polygon><path d="M37.0002257,118.739731 L47.8837256,112.130625 C49.983357,115.866128 51.8933648,119.026729 56.47481,119.026729 C60.8664053,119.026729 63.6351377,117.30293 63.6351377,110.598007 L63.6351377,65 L77,65 L77,110.787602 C77,124.677665 68.8859097,131 57.0477444,131 C46.3563515,131 40.1502373,125.443748 37,118.738598" id="Path" fill="#000000"></path><path d="M85,117.253951 L95.7672169,110.909638 C98.6016358,115.620309 102.285486,119.080574 108.802639,119.080574 C114.281845,119.080574 117.77584,116.292677 117.77584,112.447584 C117.77584,107.833517 114.186694,106.199194 108.141274,103.508583 L104.83624,102.06565 C95.2954842,97.9330161 88.9666227,92.7422769 88.9666227,81.78367 C88.9666227,71.690414 96.523062,64 108.330682,64 C116.737447,64 122.782643,66.9801976 127.127188,74.7665341 L116.831258,81.4949928 C114.56417,77.3619037 112.109014,75.7280347 108.330906,75.7280347 C104.458094,75.7280347 102.002044,78.227254 102.002044,81.4949928 C102.002044,85.5323858 104.458094,87.1669368 110.124921,89.6663838 L113.430626,91.1081801 C124.671139,96.010924 131,101.008909 131,112.255284 C131,124.367919 121.648876,131 109.086304,131 C96.8069507,131 88.8723657,125.040514 85.0002237,117.253951" id="Path" fill="#000000"></path></g></g></svg> 