<?xml version="1.0" encoding="UTF-8"?> <svg xmlns="http://www.w3.org/2000/svg" xmlns:xlink="http://www.w3.org/1999/xlink" width="500px" height="300px" viewBox="0 0 500 300"><!-- Generator: Sketch 52.2 (67145) - http://www.bohemiancoding.com/sketch --><title>logo-norma</title><desc>Created with Sketch.</desc><g id="Page-1" stroke="none" stroke-width="1" fill="none" fill-rule="evenodd"><g id="logo-norma" transform="translate(142.000000, 54.000000)"><g id="Group" transform="translate(25.000000, 0.000000)"><g transform="translate(0.000000, 115.000000)" id="Path"><g transform="translate(24.000000, 37.000000)"><g><path d="M7.6,23.6 C7.6,22.3 6.2,21.6 5.6,20.6 C4.6,19 4.4,17.1 4.5,15.2 C4,16.1 3,16.4 2.1,16.9 C1.9,15.7 1.6,14.5 1.7,13.2 C1.8,11.3 2.9,10.5 3.6,8.9 C2.7,8.8 1.9,9.1 1.1,9.4 C1.7,6.2 4.3,2.7 7.2,1.2 C10.7,-0.7 13.5,3.1 14.8,6 C15.4,7.7 15.7,9.5 15.8,11.4 C15.2,11.4 14.5,11.1 14.1,10.5 C14,12.6 13.6,15.8 12.2,17.5 C12,17.1 11.6,16.7 11.3,16.2 C11.6,19.3 7.6,20.7 7.6,23.6 Z" fill="#516B43"></path><path d="M7.9,23.5 C7.7,22.5 7.2,22.1 6.6,21.3 C5.1,19.4 4.7,17.6 4.8,15.2 C4.8,14.9 4.4,14.8 4.2,15 C3.9,15.4 2.9,16.5 2.4,16.1 C1.9,15.7 1.9,13.9 2,13.3 C2.2,11.7 3.2,10.5 3.9,9.2 C4,9 3.9,8.7 3.6,8.7 C3.5,8.7 1.6,8.9 1.6,9 C1.4,8.8 2.6,6.6 2.8,6.3 C3.8,4.5 5.6,2.5 7.5,1.7 C10.4,0.4 12.4,2.4 13.8,4.7 C14.3,5.5 14.7,6.3 14.9,7.2 C15.1,7.8 16.3,12.3 14.4,10.5 C14.2,10.3 13.9,10.4 13.8,10.7 C13.7,12.1 13.6,13.6 13.1,14.9 C12.7,16.1 12.5,17.9 11.6,16.2 C11.4,15.9 11,16 11,16.4 C10.9,19.3 7.5,20.7 7.2,23.6 C7.3,24 7.9,24 7.9,23.5 C8.2,20.6 11.6,19.4 11.7,16.4 C11.5,16.5 11.3,16.5 11.1,16.6 C11.5,17.3 11.4,17.1 12,17.9 C12.1,18.1 12.4,18.1 12.6,17.9 C14.1,15.8 14.4,13.2 14.6,10.8 C14.4,10.9 14.2,11 14,11 C14.6,11.6 15,11.8 15.9,11.9 C16.1,11.9 16.3,11.8 16.3,11.6 C16,7.8 14.6,1.4 9.9,0.6 C5.5,-0.2 1.8,5.9 0.9,9.5 C0.8,9.7 1.1,10 1.3,9.9 C1.8,9.6 2.4,9.5 3.1,9.5 C2.9,9.9 2.6,10.2 2.4,10.6 C2.1,11.1 1.8,11.6 1.7,12.1 C1.2,13.7 1.6,15.4 1.9,17 C1.9,17.2 2.2,17.3 2.4,17.2 C3.3,16.7 4.1,16.2 4.8,15.4 C4.6,15.3 4.4,15.2 4.2,15.2 C4.1,16.8 4.2,18.5 4.9,19.9 C5.5,21.2 7,22.1 7.3,23.6 C7.4,24.1 8,23.9 7.9,23.5 Z" fill="#000000"></path></g><path d="M8,19.6 C8,14 12.6,8.9 9.6,3.4 C9.4,3 8.8,3.4 9,3.7 C11.9,9 7.3,14.2 7.3,19.5 C7.3,20 8,20 8,19.6 Z" fill="#000000"></path><path d="M5.1,12.8 C5.8,11.7 7.2,11.1 8.1,10.2 C8.9,9.4 9.6,8.4 10.2,7.4 C10.4,7 9.9,6.7 9.6,7.1 C8.9,8.3 8.1,9.3 7.1,10.2 C6.2,11 5.1,11.5 4.4,12.5 C4.3,12.8 4.9,13.1 5.1,12.8 Z" fill="#000000"></path><path d="M11,15.5 C11.4,14 11.2,12.4 10.4,11.1 C10.2,10.7 9.6,11.1 9.8,11.4 C10.5,12.6 10.7,14 10.3,15.3 C10.2,15.7 10.8,15.9 11,15.5 Z" fill="#000000"></path><path d="M13.3,10.7 C13.3,8.8 12.3,7 10.6,6.2 C10.2,6 9.9,6.6 10.3,6.8 C11.9,7.5 12.7,9.1 12.7,10.7 C12.7,11.1 13.3,11.1 13.3,10.7 Z" fill="#000000"></path></g><path d="M41.5,39.5 C49,40.1 59,40 65.1,35 C65.4,34.7 65,34.3 64.6,34.5 C61.3,37.2 57.1,38 52.9,38.5 C49.1,39 45.3,39.1 41.5,38.8 C41.1,38.8 41.1,39.5 41.5,39.5 Z" fill="#000000"></path><g transform="translate(38.000000, 29.000000)"><g transform="translate(0.000000, 13.000000)" fill="#000000"><path d="M1,0.4 C0.9,0.4 0.9,0.5 0.8,0.5 C0.7,0.6 0.6,0.8 0.7,0.9 C5.4,7.3 13.2,8.7 20.1,11.8 C20.5,12 20.8,11.4 20.4,11.2 C17.2,9.8 14,8.7 10.7,7.4 C8.9,6.7 7.2,5.9 5.6,4.8 C5.2,4.5 1.2,0.9 1.2,0.9 C1.7,0.8 1.4,0.2 1,0.4 Z"></path><path d="M20.1,11.8 C24.1,14.3 27,17.9 30.2,21.3 C32.8,24.1 35.8,27.3 39.4,28.6 C39.8,28.7 40,28.1 39.6,28 C35.4,26.5 32,22.4 29.1,19.1 C26.5,16.2 23.8,13.3 20.5,11.2 C20.1,11 19.8,11.5 20.1,11.8 Z"></path><path d="M20.3,11.8 C24.4,11.7 28.3,14.1 32,15.8 C35.5,17.4 39.1,18.5 43,19.2 C50.9,20.7 58.7,19.8 66.7,20.2 C67.1,20.2 67.1,19.6 66.7,19.6 C58.2,19.2 49.8,20.1 41.4,18.3 C37.2,17.4 33.5,15.8 29.6,14 C26.7,12.7 23.7,11.2 20.4,11.2 C19.9,11.2 19.9,11.8 20.3,11.8 Z"></path></g><g transform="translate(3.000000, 0.000000)"><g transform="translate(13.000000, 22.000000)"><path d="M0.4,0.8 C0.3,4.5 2.1,7.4 4.4,10 C5.3,7.3 3.4,1.7 0.4,0.8" fill="#757552"></path><path d="M0.1,0.8 C0.1,4.5 1.9,7.5 4.2,10.3 C4.4,10.5 4.7,10.4 4.7,10.2 C5.6,6.9 3.9,1.9 0.5,0.6 C0.1,0.5 -0.1,1.1 0.3,1.2 C3.3,2.4 4.8,7.1 4,10 C4.2,10 4.4,9.9 4.5,9.9 C2.3,7.2 0.6,4.4 0.6,0.9 C0.7,0.3 0.1,0.3 0.1,0.8 Z" fill="#000000"></path></g><g transform="translate(1.000000, 17.000000)"><path d="M0.8,0.6 C-0.3,3.5 0.9,7.2 3.4,9 C4.1,6.8 3.7,2 0.8,0.6" fill="#757552"></path><path d="M0.5,0.5 C-0.5,3.7 0.6,7.1 3.2,9.2 C3.4,9.4 3.7,9.3 3.7,9.1 C4.6,6.2 3.8,1.9 1,0.4 C0.6,0.2 0.3,0.8 0.7,1 C3.3,2.4 4,6.4 3.1,9 C3.3,9 3.5,8.9 3.6,8.9 C1.2,7 0.1,3.8 1.1,0.8 C1.3,0.3 0.6,0.1 0.5,0.5 Z" fill="#000000"></path></g><g transform="translate(21.000000, 30.000000)"><path d="M3.6,0.9 C2.5,2.5 1.5,2.9 1.2,5.1 C1.1,6.8 1.4,8.9 2.6,10.2 C4.1,7.5 5.3,4.3 3.5,1.3" fill="#757552"></path><path d="M3.3,0.8 C2.2,2.4 1,3.4 0.9,5.4 C0.8,7.2 1.3,9 2.4,10.4 C2.5,10.6 2.8,10.5 2.9,10.3 C4.5,7.3 5.5,4.2 3.8,1.1 C3.6,0.7 3,1.1 3.2,1.4 C4.8,4.3 3.8,7.2 2.3,10 C2.5,10 2.6,10 2.8,9.9 C1.6,8.4 1.1,6.1 1.6,4.3 C2,3 3,2.1 3.8,1 C4.1,0.7 3.6,0.4 3.3,0.8 Z" fill="#000000"></path></g><g transform="translate(29.000000, 37.000000)"><path d="M1.9,0.8 C0.6,2.8 -0.3,5.7 0.7,8 C2.6,7.1 3.3,2.4 1.9,0.8" fill="#757552"></path><path d="M1.7,0.6 C0.4,2.8 -0.5,5.5 0.5,8 C0.6,8.2 0.8,8.3 1,8.2 C3.2,7 3.8,2.5 2.3,0.6 C2.1,0.3 1.5,0.6 1.7,0.9 C3,2.6 2.6,6.6 0.6,7.7 C0.8,7.8 0.9,7.8 1.1,7.9 C0.2,5.5 1,3 2.3,0.9 C2.4,0.6 1.9,0.3 1.7,0.6 Z" fill="#000000"></path></g><g transform="translate(36.000000, 40.000000)"><path d="M0.4,1 C0.2,3.8 3.7,5.6 5.7,6.9 C6.3,4.4 3.5,-1.11022302e-16 0.4,1" fill="#757552"></path><path d="M0.1,1 C0,4.1 3.3,5.7 5.5,7.2 C5.7,7.3 5.9,7.2 6,7 C6.6,3.9 3.8,-0.3 0.3,0.7 C-0.1,0.8 0.1,1.4 0.5,1.3 C3.4,0.4 5.9,4.2 5.4,6.8 C5.6,6.7 5.7,6.7 5.9,6.6 C3.9,5.3 0.7,3.8 0.8,1 C0.7,0.6 0.1,0.6 0.1,1 Z" fill="#000000"></path></g><g transform="translate(31.000000, 35.000000)"><path d="M0.5,2.4 C2.5,4.5 7.1,4.2 9.2,2.5 L9.2,2.4 C8.1,1.1 5.9,1.1 4.4,1.2 C2.9,1.3 1.7,2.6 0.5,2.4" fill="#757552"></path><path d="M0.2,2.6 C1.5,3.9 3.4,4.3 5.2,4.2 C6.1,4.1 9.2,3.7 9.4,2.6 C9.6,1.6 7.5,1 6.8,0.9 C5.9,0.8 5,0.7 4.1,0.8 C2.8,1 1.7,2 0.3,2 C-0.1,2 -0.1,2.6 0.3,2.6 C1.5,2.7 2.4,1.9 3.6,1.6 C4.7,1.3 7.4,1.1 8.2,2.1 C8.6,2.5 8.5,2.3 8.2,2.6 C8,2.8 7.4,3 7.1,3.1 C6.4,3.3 5.7,3.5 5,3.5 C3.4,3.6 1.7,3.3 0.5,2.1 C0.4,1.9 -0.1,2.3 0.2,2.6 Z" fill="#000000"></path></g><g transform="translate(26.000000, 27.000000)"><path d="M1.2,0.4 C2.8,3.2 3.7,6.7 6.9,7.9 C7.5,5.4 3.1,1.6 1.2,0.4" fill="#757552"></path><path d="M0.9,0.5 C2.5,3.4 3.5,6.8 6.8,8.2 C7,8.3 7.2,8.1 7.2,8 C7.8,4.8 3.7,1.6 1.4,0.1 C1,-0.1 0.7,0.4 1.1,0.7 C2.3,1.5 3.5,2.4 4.5,3.5 C5.5,4.6 7,6.2 6.7,7.9 C6.8,7.8 7,7.7 7.1,7.7 C4,6.4 3.1,3 1.6,0.3 C1.2,-0.1 0.7,0.2 0.9,0.5 Z" fill="#000000"></path></g><g transform="translate(35.000000, 31.000000)"><path d="M1.3,0.4 C2.2,2.3 2.1,3.9 8.6,5.9 C8.1,2 4.2,1.4 1.3,0.4" fill="#757552"></path><path d="M1,0.5 C1.5,1.5 1.9,2.6 2.7,3.4 C4.2,4.9 6.5,5.6 8.5,6.2 C8.8,6.3 8.9,6 8.9,5.8 C8.2,2 4.5,1.2 1.4,0.1 C1,2.84217094e-14 0.8,0.6 1.2,0.7 C4.1,1.8 7.7,2.4 8.3,6 C8.4,5.9 8.6,5.7 8.7,5.6 C6.8,5 4.5,4.4 3,2.9 C2.3,2.2 2,1.2 1.5,0.3 C1.4,-0.2 0.8,0.1 1,0.5 Z" fill="#000000"></path></g><g transform="translate(48.000000, 32.000000)"><path d="M1.1,1.1 C1.7,2.9 4.4,5.5 6.3,5.9 C6.8,3.3 3,1.5 1.1,1.1" fill="#757552"></path><path d="M0.8,1.2 C1.6,3.4 3.9,5.6 6.2,6.3 C6.4,6.3 6.6,6.2 6.6,6.1 C7.1,3.2 3.6,1.4 1.2,0.9 C0.8,0.8 0.6,1.4 1,1.5 C2.9,2 6.3,3.5 5.9,5.9 C6,5.8 6.2,5.7 6.3,5.7 C4.3,5.1 2.1,3 1.4,1.1 C1.3,0.6 0.6,0.8 0.8,1.2 Z" fill="#000000"></path></g><g transform="translate(0.000000, 14.000000)"><path d="M0.8,2.4 C4,3.8 9.8,3.8 12.9,1.6 C11.4,0.6 3.1,0.3 0.8,2.4" fill="#757552"></path><path d="M0.8,2.7 C4.6,4.2 9.6,4.1 13.2,1.9 C13.4,1.8 13.4,1.5 13.2,1.3 C11.4,0.3 8.9,0.4 6.9,0.4 C4.8,0.5 2.3,0.7 0.6,2.1 C0.3,2.4 0.7,2.8 1.1,2.6 C3.7,0.4 8.7,0.9 11.8,1.5 C13.1,1.8 12.2,1.8 11.3,2.1 C10.1,2.6 8.9,2.8 7.6,2.9 C5.3,3.1 3,2.8 0.9,2 C0.5,2 0.4,2.6 0.8,2.7 Z" fill="#000000"></path></g><g transform="translate(8.000000, 16.000000)"><path d="M0.7,4.9 C2.5,6.4 9.8,3.3 10.8,1.1 C6.8,0.7 4.2,5.4 0.7,4.9" fill="#757552"></path><path d="M0.5,5.2 C2.1,6.3 4.6,5.3 6.1,4.7 C7.8,4 10.1,3 11,1.3 C11.1,1.1 11,0.8 10.7,0.8 C6.8,0.6 4.4,4.8 0.6,4.6 C0.2,4.6 0.2,5.2 0.6,5.2 C4.5,5.4 6.8,1.2 10.7,1.4 C10.6,1.2 10.5,1.1 10.4,0.9 C9.6,2.5 7.4,3.4 5.9,4 C4.5,4.5 2.2,5.5 0.8,4.5 C0.5,4.4 0.2,5 0.5,5.2 Z" fill="#000000"></path></g><g transform="translate(11.000000, 9.000000)"><path d="M0.7,1 C2.6,3.3 6.8,4.3 9.7,3.9 C8.4,1.4 3.2,1.1 0.7,1" fill="#757552"></path><path d="M0.5,1.2 C2.8,3.6 6.5,4.6 9.8,4.2 C10,4.2 10.2,3.9 10.1,3.7 C8.4,0.8 3.7,0.8 0.8,0.6 C0.4,0.6 0.4,1.2 0.8,1.2 C3.5,1.3 8,1.3 9.5,3.9 C9.6,3.7 9.7,3.6 9.8,3.4 C6.7,3.8 3.2,2.9 1,0.6 C0.6,0.4 0.2,0.9 0.5,1.2 Z" fill="#000000"></path></g><g transform="translate(19.000000, 7.000000)"><path d="M1,1 C2.4,2.2 7.2,3.3 8.8,2.4 C7.3,0 3.3,0.3 1,1" fill="#757552"></path><path d="M0.8,1.3 C2.7,2.8 6.7,3.7 9,2.7 C9.2,2.6 9.2,2.4 9.1,2.3 C7.3,-0.3 3.6,-0.1 0.9,0.8 C0.5,0.9 0.7,1.5 1.1,1.4 C3.5,0.7 7,0.3 8.6,2.6 C8.6,2.5 8.7,2.3 8.7,2.2 C6.7,3.1 2.9,2.1 1.2,0.8 C0.8,0.5 0.5,1.1 0.8,1.3 Z" fill="#000000"></path></g><g transform="translate(23.000000, 1.000000)"><path d="M0.8,4.6 C3.4,5.2 7.5,3 8.9,1.1 C4.6,-0.1 4.2,3.4 0.8,4.6" fill="#757552"></path><path d="M0.8,4.9 C3.8,5.5 7.4,3.6 9.2,1.3 C9.3,1.1 9.3,0.8 9.1,0.8 C7.6,0.5 6.3,0.5 5,1.4 C3.6,2.4 2.6,3.7 0.9,4.4 C0.5,4.5 0.7,5.2 1.1,5 C2.3,4.5 3.2,3.8 4.2,2.9 C5.7,1.6 7,1 9,1.4 C9,1.2 8.9,1 8.9,0.9 C7.2,3 3.9,4.9 1.2,4.4 C0.5,4.2 0.3,4.8 0.8,4.9 Z" fill="#000000"></path></g><g transform="translate(1.000000, 3.000000)"><path d="M1,7.1 C3.9,6.1 6.9,3.8 7.1,0.7 C5.6,0.8 3.3,2 2.4,3.2 C1.2,4.4 1.6,5.7 1,7.1" fill="#757552"></path><path d="M1.1,7.4 C4.2,6.3 7.1,4.1 7.5,0.6 C7.5,0.4 7.3,0.3 7.2,0.3 C5.6,0.5 4,1.2 2.8,2.3 C1.3,3.6 1.3,5.2 0.7,7 C0.6,7.4 1.2,7.6 1.3,7.2 C1.8,5.7 1.7,4.2 2.9,3 C4,1.9 5.6,1.1 7.1,1 C7,0.9 6.9,0.8 6.8,0.7 C6.5,3.8 3.7,5.9 0.9,6.8 C0.6,6.9 0.7,7.5 1.1,7.4 Z" fill="#000000"></path></g><g transform="translate(11.000000, 0.000000)"><path d="M1,9 C3,9 4.4,7.5 6.2,6.4 C8.5,5 10.2,3 11.7,0.8 C9.2,0.5 6.9,1.8 5.5,3.8 C3.8,6.1 4.2,8.3 1,9" fill="#757552"></path><path d="M1,9.3 C3.3,9.1 5.1,7.6 6.9,6.3 C8.9,4.9 10.5,3 11.9,1 C12.1,0.8 11.8,0.5 11.6,0.5 C9.3,0.3 7.2,1.2 5.7,2.9 C3.9,5 3.9,7.8 0.9,8.7 C0.5,8.8 0.7,9.4 1,9.3 C3,8.8 3.8,7.8 4.6,6.1 C6,3.1 8.1,0.9 11.7,1.2 C11.6,1 11.5,0.9 11.4,0.7 C10,2.6 8.6,4.4 6.6,5.8 C4.9,7 3.1,8.6 1,8.7 C0.6,8.7 0.6,9.4 1,9.3 Z" fill="#000000"></path></g><g transform="translate(58.000000, 32.000000)"><path d="M0.7,0.5 C1.5,3 4.7,4.6 7,5.2 C7.1,3.1 2.5,0.9 0.7,0.5" fill="#757552"></path><path d="M0.3,0.6 C1.3,3.3 4.2,4.8 6.9,5.6 C7.1,5.7 7.3,5.5 7.3,5.3 C7.2,2.6 3,0.7 0.7,0.3 C0.3,0.2 0.1,0.8 0.5,0.9 C2.4,1.3 6.6,3 6.6,5.3 C6.7,5.2 6.9,5.1 7,5 C4.6,4.3 1.8,3 0.9,0.5 C0.8,0.1 0.2,0.2 0.3,0.6 Z" fill="#000000"></path></g><g transform="translate(21.000000, 19.000000)"><path d="M0.4,5.5 C3.1,5.8 6.4,3.1 7.3,0.7 C5.8,0.3 3.9,1.5 2.8,2.3 C1.8,3.1 1.4,4.7 0.4,5.5" fill="#757552"></path><path d="M0.4,5.8 C3.5,6 6.5,3.5 7.6,0.7 C7.7,0.5 7.5,0.3 7.4,0.3 C5.9,2.77555756e-17 4.4,0.7 3.2,1.5 C1.8,2.5 1.5,4.1 0.2,5.2 C-0.1,5.5 0.3,5.9 0.7,5.7 C1.7,4.9 2,3.6 2.8,2.7 C3.8,1.6 5.8,0.6 7.2,0.9 C7.1,0.8 7,0.6 7,0.5 C6,3 3.2,5.3 0.4,5.1 C0,5.1 0,5.8 0.4,5.8 Z" fill="#000000"></path></g><g transform="translate(27.000000, 23.000000)"><path d="M1,4.4 C4,5.2 8.5,4.1 9.7,0.9 C5.3,-0.5 4.9,4.7 1,4.4" fill="#757552"></path><path d="M0.9,4.7 C4.3,5.4 8.5,4.4 10,0.9 C10.1,0.7 9.9,0.5 9.8,0.5 C8.3,0.1 7,0.3 5.8,1.3 C4.2,2.5 3.2,4.1 1.1,4.1 C0.6,4 0.6,4.7 0.9,4.7 C3.7,4.8 4.6,2.5 6.8,1.4 C7.3,1.1 9,0.6 9.2,1.3 C9.3,2 7.6,3.1 7.1,3.4 C5.3,4.4 3.1,4.6 1.1,4.2 C0.7,4 0.5,4.6 0.9,4.7 Z" fill="#000000"></path></g><g transform="translate(34.000000, 25.000000)"><path d="M0.5,4.7 C1.8,5.3 2.8,5.9 4.8,5 C6.6,4.2 8.9,2.5 9,0.4 C5.7,0.8 3.5,5.1 0.5,4.7" fill="#757552"></path><path d="M0.3,5 C2.2,5.9 3.8,6 5.7,4.9 C7.5,3.9 9,2.5 9.3,0.4 C9.3,0.2 9.1,0.1 8.9,0.1 C5.7,0.6 3.8,4.5 0.5,4.4 C0.1,4.4 0.1,5 0.5,5 C4,5.2 5.8,1.2 9.1,0.7 C9,0.6 8.8,0.5 8.7,0.4 C8.5,2.2 7,3.5 5.5,4.4 C3.8,5.3 2.5,5.3 0.7,4.5 C0.3,4.3 -0.1,4.8 0.3,5 Z" fill="#000000"></path></g><g transform="translate(47.000000, 26.000000)"><path d="M0.4,6.5 C3.1,6.7 6.8,4.6 6.5,1.2 C4.9,1.7 3.7,2.6 2.6,3.9 C1.8,4.9 2,6.6 0.4,6.5" fill="#757552"></path><path d="M0.4,6.8 C3.6,7 7,4.6 6.8,1.2 C6.8,1 6.6,0.8 6.4,0.9 C5,1.4 3.8,2.1 2.8,3.2 C2,4 1.6,6.2 0.4,6.2 C0,6.2 0,6.8 0.4,6.8 C1.5,6.8 1.9,6.2 2.3,5.2 C3.1,3.3 4.7,2.1 6.6,1.4 C6.5,1.3 6.3,1.2 6.2,1.1 C6.4,4.2 3.3,6.2 0.4,6.1 C0,6.1 0,6.8 0.4,6.8 Z" fill="#000000"></path></g></g></g><g transform="translate(111.000000, 46.000000)"><g><path d="M0.5,7.5 C0.5,11.3 7.3,12.7 9.4,13.5 C8.6,10.3 4.9,7.9 1.8,7.2 C3.4,5.3 1.8,2.4 3.2,0.5 C1.1,1.9 0.5,5.1 0.5,7.5 Z" fill="#A6AD77"></path><path d="M0.2,7.5 C0.5,11.7 6.2,12.7 9.4,13.9 C9.6,14 9.9,13.7 9.8,13.5 C9,10.9 7,9.1 4.6,7.9 C4.2,7.7 3.6,7.6 3.3,7.3 C2.3,6.7 2.7,7.2 2.9,6.1 C3.2,4.3 2.7,2.4 3.6,0.7 C3.7,0.4 3.4,0.1 3.2,0.3 C0.8,2 0.2,4.8 0.2,7.5 C0.2,7.9 0.8,7.9 0.8,7.5 C0.9,5 1.3,2.4 3.4,0.8 C3.3,0.7 3.1,0.5 3,0.4 C1.9,2.5 3,5.1 1.6,7.1 C1.5,7.3 1.6,7.5 1.8,7.6 C3.8,8.1 5.6,9 7.1,10.4 C7.2,10.5 9.3,13.1 9.3,13.2 C9.2,13.3 8.1,12.8 8,12.8 C5.4,12 1.2,10.8 0.9,7.6 C0.8,7.1 0.2,7.1 0.2,7.5 Z" fill="#000000"></path></g><path d="M3.2,9.3 C4.3,9.4 5.2,10.1 6,10.7 C6.3,11 6.8,10.5 6.5,10.2 C5.5,9.4 4.5,8.7 3.2,8.6 C2.8,8.6 2.8,9.2 3.2,9.3 Z" fill="#000000"></path></g><g transform="translate(70.000000, 41.000000)"><path d="M6.1,8.1 C5.7,8.1 5.3,8.1 5.1,8.2 C4.2,8.5 3.3,9.5 4.6,9.9 C5.5,10.1 6,9.4 6.9,9.5 C7.3,9.5 7.9,9.5 9,9.8 C9.3,10 9.7,10.1 10,10.3 C11.1,10.9 12.3,11.4 13.5,11.9 C12.6,12 11.7,12.2 11.5,12.3 C10.9,12.6 9.4,13.8 10.7,14.1 C11.6,14.3 12.5,13.8 13.4,13.5 C13.9,13.4 15.1,12.9 15.9,12.8 C17.8,13.5 19.7,14.1 21.6,14.6 C22,14.7 22.7,14.8 23.4,15 C22.9,15.2 22.4,15.6 21.9,15.8 C21.3,16.1 19.2,15.9 19.4,16.9 C19.6,17.8 21.2,17.2 22.1,17.2 C23,17.1 23.5,16.5 24.4,16.3 C25.3,16.1 26,15.3 26,15.3 C27.2,15.4 28.5,15.5 29.5,15.4 C29.9,15.9 29.7,16.2 29.7,16.7 C29.7,17.2 29,17.9 29.8,18.1 C30.7,18.3 31.1,17 31.1,16 C31.1,15.7 31,15.3 30.7,15.1 C30.7,15.1 30.7,15.1 30.7,15.1 C31.8,14.5 29.8,14.3 28.1,14.1 C28.1,14 28.1,14 28.1,13.9 C27.4,12.2 25.2,9.4 23.7,9.3 C21.9,9.1 23.4,10.4 24.3,11.2 C25.2,12.1 25.5,12.9 26.2,13.9 C24.5,13.7 22.9,13.4 21.3,13 C21,12.1 19.2,10.7 18.7,10.2 C17.7,9.4 16.5,7.7 16.2,7.9 C15.4,8.5 16.6,9.6 17,10.2 C17.2,10.4 18,11.5 18.8,12.4 C17.4,11.9 15.9,11.4 14.4,10.8 C13.9,10.6 13.4,10.4 12.9,10.2 C12.9,10.1 12.8,9.9 12.7,9.8 C11,8.6 10.2,5.3 9.3,5.6 C8.4,5.8 9,6.6 9.5,7.8 C9.6,8.1 9.8,8.4 10,8.7 C8.9,8.1 7.8,7.5 6.6,6.8 C5.5,4.9 4.5,3.4 3.3,1.3 C2.8,0.4 2.5,1.8 2.5,2.3 C2.6,3 3,3.6 3.3,4.3 C3.4,4.5 3.6,4.8 3.8,5.2 C3.3,4.9 2.7,4.5 2.1,4.2 C1.8,4 0.6,3.4 0.6,4.4 C1,5 3.5,6.6 6.1,8.1 Z" fill="#78A017"></path><path d="M6.1,7.8 C5.1,7.8 2.9,8.6 3.9,9.9 C4.6,10.8 6.2,9.9 6.9,9.8 C9,9.6 11.4,11.3 13.3,12.1 C13.3,11.9 13.4,11.7 13.4,11.5 C12.4,11.6 10.1,11.9 9.9,13.3 C9.8,13.9 10.1,14.1 10.7,14.3 C12.2,14.8 14,13.2 15.5,13.1 C16.9,13 18.6,13.9 19.9,14.3 C21.1,14.6 22.2,14.9 23.4,15.1 C23.4,14.9 23.3,14.7 23.3,14.5 C22.5,14.9 21.8,15.2 20.9,15.4 C20.5,15.5 20.1,15.4 19.8,15.7 C19.5,15.9 19.2,16 19.1,16.4 C18.8,18 21.4,17.5 22.2,17.3 C23.2,17.1 24.3,16.7 25.2,16.2 C25.1,16.2 26.1,15.5 26.1,15.5 C26.5,15.4 28.5,15.4 28.7,15.6 C29.5,16.2 28.5,18.8 30.4,18.2 C30.9,18.1 31.1,17.5 31.3,17.2 C31.4,17 31.6,16.1 31.5,15.8 C31.8,16.8 30.8,13.8 30.9,15.3 C30.9,14.7 32,14.9 30.9,14.1 C30.3,13.7 29,14.1 28.6,13.8 C27.9,13.3 27.4,11.7 26.8,11 C26,10 24.3,8.2 22.8,9.1 C22.7,9.2 22.6,9.3 22.6,9.4 C22.7,10.3 23.6,10.8 24.1,11.4 C24.6,12 25.1,12.6 25.5,13.3 C24.9,13.3 24.4,13.3 23.8,13.1 C22.8,12.9 22,12.7 21.2,12.1 C20.3,11.3 19.4,10.3 18.5,9.4 C17.9,8.8 17.2,7.5 16.3,7.4 C16.2,7.4 16,7.4 15.9,7.5 C15,9 17.7,11.3 18.6,12.3 C18.7,12.1 18.8,11.9 18.9,11.8 C16.5,11 13.4,10.3 11.8,8.1 C11.2,7.3 10.7,5.4 9.7,5 C7.3,4 9.3,8.1 9.6,8.6 C9.7,8.5 9.9,8.3 10,8.2 C7.9,7.1 6.6,6.1 5.3,4 C4.6,2.9 4,1.4 3.1,0.5 C3,0.4 2.8,0.4 2.7,0.4 C1,1.3 2.9,4.1 3.4,5 C3.5,4.9 3.7,4.7 3.8,4.6 C3.2,4.2 0.4,2 0.2,4.1 C0.1,5.8 4.5,7.7 5.4,8.3 C5.8,8.5 6.1,8 5.7,7.7 C4.5,7 3.3,6.3 2.2,5.5 C2.1,5.4 0.6,4.2 1.2,3.9 C1.5,3.8 3.3,5.1 3.4,5.2 C3.7,5.4 4,5 3.8,4.8 C3.6,4.5 2.2,2.1 3.1,2 C3.3,2 4.8,4.8 4.9,5 C5.2,5.5 5.5,6.4 6,6.8 C6.9,7.6 8.4,8.2 9.4,8.7 C9.7,8.8 10,8.5 9.8,8.3 C9.6,8 9,7 9,6.7 C9.2,5.3 9.9,6.9 10,7 C10.5,7.7 10.9,8.5 11.4,9.2 C13,11.1 16,11.7 18.3,12.5 C18.6,12.6 18.8,12.2 18.6,12 C18.5,11.9 15.6,8.3 15.9,8.2 C16.2,8.2 18.3,10.6 18.6,10.9 C19.3,11.5 19.9,12.7 20.6,13.2 C21.8,14 24.2,14 25.6,14.2 C25.8,14.2 26,13.9 25.9,13.7 C25.4,13 25.1,12.2 24.5,11.6 C24.1,11.1 22.8,10.3 23.4,10 C24.4,9.5 27.2,12.9 27.2,14 C27.2,14.2 27.4,14.3 27.5,14.3 C28,14.3 29.5,14.8 29.9,14.6 C29.7,14.7 29.6,14.9 29.7,15.1 C29.1,17.1 29,17.6 29.2,16.8 C29.2,16.7 29.3,16.6 29.3,16.5 C29.2,16.1 29.2,15.5 29.1,15.1 C29.1,15 28.9,14.9 28.8,14.9 C27.7,15 26.1,14.6 25.2,14.9 C24.4,15.1 23.6,15.9 22.8,16.2 C22.4,16.3 18.5,17.3 20.3,16.1 C20.5,15.9 21.1,16 21.4,15.9 C21.9,15.8 22.6,15.3 23,15.1 C23.2,15 23.2,14.6 22.9,14.5 C21.4,14.3 20,13.9 18.6,13.4 C17.6,13.1 16.2,12.3 15.2,12.3 C14.4,12.3 13.4,12.7 12.7,13 C12.3,13.1 10.3,14.2 10.3,12.8 C10.3,12.2 12.6,12 12.9,12 C13.2,12 13.2,11.5 13,11.4 C11.3,10.7 9.5,9.5 7.7,9.1 C7.1,9 6.6,9 6,9 C6,9 5.3,9.1 5.3,9.2 C4.7,9.1 3.1,8.3 5.4,8.3 C6.5,8.4 6.5,7.8 6.1,7.8 Z" fill="#000000"></path></g><g transform="translate(67.000000, 42.000000)"><path d="M1.4,1.6 C0.6,2.6 2.8,4.1 3.7,3.2 C5,2.1 2.4,0.4 1.4,1.6 Z" fill="#F29C9C"></path><path d="M1.2,1.3 C0,2.8 3.1,4.6 4.2,3.2 C4.7,2.5 4.3,1.6 3.6,1.2 C2.8,0.7 1.8,0.7 1.2,1.3 C0.9,1.6 1.4,2.1 1.7,1.8 C2.1,1.4 2.7,1.4 3.1,1.7 C3.5,1.9 4,2.3 3.7,2.8 C3.2,3.8 1,2.6 1.6,1.9 C1.9,1.5 1.4,1 1.2,1.3 Z" fill="#000000"></path></g><g transform="translate(71.000000, 40.000000)"><path d="M1.2,2.3 C1.5,3.2 2.5,3.1 2.9,2.1 C3.7,0.4 0.3,-0.4 1.2,2.3 Z" fill="#F29C9C"></path><path d="M0.9,2.4 C1.3,3.5 2.5,3.5 3.1,2.6 C3.5,2 3.5,1.2 3,0.7 C2.6,0.3 1.9,0.1 1.4,0.4 C0.6,0.8 0.7,1.7 0.9,2.4 C1,2.8 1.6,2.6 1.5,2.2 C1.4,1.9 1.2,1.3 1.5,1 C1.7,0.8 2,0.9 2.2,1 C2.5,1.1 2.6,1.4 2.6,1.7 C2.5,2.3 1.8,3.1 1.4,2.2 C1.3,1.8 0.7,2 0.9,2.4 Z" fill="#000000"></path></g><g transform="translate(77.000000, 43.000000)"><path d="M0.8,2.2 C1.4,3.3 2.9,4.9 3.7,3.4 C4.9,1 -1,-1.2 0.8,2.2 Z" fill="#F29C9C"></path><path d="M0.5,2.3 C1,3.1 1.9,4.5 3.1,4.3 C4,4.1 4.4,3 4.1,2.1 C3.7,1 1.9,-0.4 0.7,0.2 C-0.2,0.6 0.2,1.7 0.5,2.3 C0.7,2.7 1.2,2.3 1.1,2 C0.9,1.6 0.5,0.8 1.2,0.7 C1.8,0.6 2.4,1 2.9,1.4 C3.4,1.8 3.8,2.4 3.6,3 C3.1,4.6 1.6,2.6 1.2,2 C0.9,1.7 0.3,2 0.5,2.3 Z" fill="#000000"></path></g><g transform="translate(71.000000, 48.000000)"><path d="M1.3,2.2 C1.4,3.5 3.6,4.5 3.7,2.5 C3.8,0.3 1.1,-0.5 1.3,2.2 Z" fill="#F29C9C"></path><path d="M0.9,2.2 C1,3.1 1.8,3.9 2.7,3.9 C3.8,3.9 4.1,2.6 3.9,1.8 C3.7,1 3.1,0.2 2.2,0.2 C1.2,0.2 0.9,1.3 0.9,2.2 C0.9,2.6 1.6,2.6 1.5,2.2 C1.5,1.7 1.5,0.9 2.2,0.8 C2.7,0.8 3.1,1.3 3.2,1.7 C3.3,2.2 3.4,3.2 2.7,3.2 C2.1,3.2 1.6,2.6 1.5,2.1 C1.5,1.8 0.9,1.8 0.9,2.2 Z" fill="#000000"></path></g><g transform="translate(84.000000, 45.000000)"><path d="M1.1,3.5 C1.7,4.8 3,4.7 3.5,3.3 C4.2,0.7 -0.4,0.3 1.1,3.5 Z" fill="#F29C9C"></path><path d="M0.8,3.7 C1.2,4.5 2.2,5.1 3,4.5 C3.7,4 4,3 3.8,2.2 C3.4,1.1 1.8,0.5 0.9,1.4 C0.2,2 0.5,2.9 0.8,3.7 C1,4.1 1.5,3.8 1.4,3.4 C1.2,2.9 0.9,2.2 1.5,1.8 C1.8,1.5 2.4,1.6 2.7,1.8 C3.2,2.1 3.4,2.6 3.3,3.1 C3.2,3.5 2.9,4.1 2.5,4.2 C2,4.4 1.6,3.9 1.4,3.5 C1.2,3 0.6,3.3 0.8,3.7 Z" fill="#000000"></path></g><g transform="translate(91.000000, 48.000000)"><path d="M1.1,2.4 C1.2,3.7 3.3,4.1 3.9,2.6 C4.4,1.5 3.4,0.3 2.3,0.3 C0.9,0.3 1,1.3 1.1,2.4 Z" fill="#F29C9C"></path><path d="M0.8,2.4 C0.9,3.3 1.7,3.9 2.7,3.9 C3.8,3.8 4.6,2.9 4.4,1.8 C4.2,0.6 3,-0.1 1.8,0.1 C0.6,0.3 0.7,1.5 0.8,2.4 C0.8,2.8 1.5,2.8 1.4,2.4 C1.4,1.9 1.2,1.1 1.7,0.8 C2.4,0.4 3.5,1 3.7,1.7 C4.2,3.3 1.6,3.9 1.4,2.4 C1.4,2 0.7,2 0.8,2.4 Z" fill="#000000"></path></g><g transform="translate(86.000000, 55.000000)"><path d="M1.4,2.7 C1.9,3.9 4.1,4.2 4.1,2.4 C4,0.1 0.5,0.3 1.4,2.7 Z" fill="#F29C9C"></path><path d="M1.1,2.8 C1.5,3.7 2.4,4.2 3.4,4 C4.5,3.7 4.6,2.4 4.2,1.5 C3.8,0.7 2.9,0.3 2,0.6 C1,0.8 0.8,1.9 1.1,2.8 C1.2,3.2 1.9,3 1.7,2.6 C1.5,2.1 1.5,1.4 2.1,1.2 C2.6,1 3.2,1.2 3.5,1.6 C3.8,2.1 3.9,3.1 3.2,3.3 C2.6,3.5 1.9,3.1 1.7,2.6 C1.6,2.2 0.9,2.4 1.1,2.8 Z" fill="#000000"></path></g><g transform="translate(78.000000, 53.000000)"><path d="M0.8,1.4 C0.2,2.3 1.1,3.5 2.2,3.2 C4.2,2.6 2.2,-0.8 0.8,1.4 Z" fill="#F29C9C"></path><path d="M0.5,1.2 C0,2.1 0.5,3.3 1.6,3.5 C2.4,3.6 3.3,3.1 3.4,2.3 C3.5,1.6 3.1,0.9 2.5,0.5 C1.7,0.1 1,0.6 0.5,1.2 C0.3,1.5 0.8,1.9 1.1,1.5 C1.3,1.1 1.7,0.8 2.2,1 C2.5,1.2 2.7,1.5 2.8,1.9 C2.8,2.4 2.6,2.7 2.1,2.8 C1.3,3 0.7,2.2 1.1,1.5 C1.3,1.2 0.7,0.9 0.5,1.2 Z" fill="#000000"></path></g><g transform="translate(96.000000, 57.000000)"><path d="M0.9,2.8 C0.8,3.9 3.1,3.8 3.6,3 C4.7,1.6 1.2,-0.8 0.9,2.8 Z" fill="#F29C9C"></path><path d="M0.6,2.8 C0.5,4.8 4.9,4 4.1,1.9 C3.8,1.2 3,0.6 2.3,0.6 C1.1,0.6 0.7,1.8 0.6,2.8 C0.6,3.2 1.2,3.2 1.2,2.8 C1.3,2.2 1.5,1.3 2.2,1.3 C2.7,1.3 3.1,1.6 3.3,2 C4.1,3.4 1.1,3.8 1.2,2.9 C1.3,2.4 0.6,2.4 0.6,2.8 Z" fill="#000000"></path></g><g transform="translate(98.000000, 45.000000)"><g><path d="M14.5,9.9 C13.8,11.3 16.8,12 17.5,13.4 C18.5,15.7 17.8,17.4 15.2,17.1 C14.4,20.2 11.3,21.6 8.6,19.4 C7.6,18.5 7.5,17.3 6.8,16.2 C6.2,15.2 5.3,14.4 4.5,13.5 C2.8,11.4 -0.6,8.7 1,5.7 C1.8,4.1 3.3,4.8 4.7,4.4 C6.3,3.8 7,2.2 8.4,1.5 C11.3,0.1 15.3,3.8 14.1,6.8 C14.7,7.4 14.8,9.3 14.5,9.9 Z" fill="#F29C9C"></path><path d="M14.2,9.9 C14,10.7 14.3,11.1 14.9,11.7 C15.3,12.1 15.9,12.4 16.4,12.8 C16.9,13.3 17.5,14 17.6,14.8 C17.7,15.8 16.3,17 15.2,17 C15.1,17 14.9,17.1 14.9,17.2 C13.8,20.5 10,21.6 8,18.2 C7.4,17.1 7.1,16 6.2,15 C4.3,12.8 -2.7,6.9 3.1,5.1 C4.3,4.7 4.8,5 5.9,4.2 C7.5,3 8.4,1.2 10.8,2 C13.3,2.8 13.7,4.7 13.7,6.9 C13.7,7.9 14.6,8.6 14.2,9.9 C14.1,10.3 14.7,10.5 14.8,10.1 C15.2,8.7 14.6,7.5 14.5,6.1 C14.3,4.2 13.6,2.7 11.9,1.6 C10.5,0.8 8.9,0.7 7.5,1.7 C7,2.1 6.5,2.6 6,3.1 C5,4 4,4.1 2.8,4.3 C2.1,4.4 1.5,4.5 1,5 C-0.4,6.4 0.2,8.7 1.2,10.2 C3,12.9 5.7,14.7 7.1,17.7 C7.9,19.4 9.2,20.8 11.2,20.9 C12,20.9 12.8,20.7 13.5,20.3 C14.4,19.7 14.6,18.7 15.3,18.1 C16.4,17 18.2,17.6 18.3,15.5 C18.4,14.7 18.1,13.7 17.6,13 C17,12.2 14.6,11.2 14.9,10.1 C14.9,9.6 14.3,9.5 14.2,9.9 Z" fill="#000000"></path></g><path d="M13.3,11.7 C13.4,14.6 9.2,15 7.8,13.1 C7.3,12.5 7.1,11.9 6.5,11.4 C5.4,10.3 3.9,9.2 5.2,7.3 C5.4,7 4.9,6.6 4.6,7 C3.5,8.5 3.8,9.8 5.1,11.1 C5.8,11.8 6.4,12.3 6.9,13.2 C7.3,13.8 7.6,14.2 8.3,14.6 C10.6,15.7 14,14.7 13.9,11.9 C13.9,11.3 13.2,11.3 13.3,11.7 Z" fill="#000000"></path><path d="M9.2,9.8 C8.4,8 8.7,6.3 10.3,5.1 C10.6,4.8 10.2,4.4 9.8,4.6 C8,6 7.7,8 8.6,10.1 C8.8,10.5 9.3,10.2 9.2,9.8 Z" fill="#000000"></path><path d="M11.6,15.8 C11.6,17.1 12.9,17.5 13.9,17.4 C14.3,17.3 14.1,16.7 13.7,16.8 C13,16.9 12.1,16.6 12.2,15.8 C12.3,15.4 11.7,15.4 11.6,15.8 Z" fill="#000000"></path></g><g transform="translate(112.000000, 46.000000)"><path d="M12.5,1.5 C12.8,1.2 12.4,1.1 12.3,0.5 C11,0.8 11,1.7 10,2.5 C8.9,3.3 7.6,5 6.4,5.5 C5.5,5.9 -0.5,7.4 1.1,7.9 C5.1,8.3 10.5,4.9 12.5,1.5 Z" fill="#78A017"></path><path d="M12.8,1.6 C13,1.1 12.8,1.1 12.6,0.5 C12.5,0.4 12.4,0.2 12.2,0.3 C10.9,0.8 10.4,1.8 9.4,2.8 C8.2,4 7.1,5.2 5.4,5.8 C4.6,6.1 0.7,6.7 0.6,7.8 C0.4,9.4 4.5,8.1 5,7.9 C8.1,6.6 11,4.5 12.8,1.6 C13,1.3 12.4,1 12.2,1.4 C10.6,4 7.9,6 5.1,7.1 C4.6,7.3 1.6,8.3 1.3,7.9 C1.3,7.9 3.7,7 3.8,6.9 C5.1,6.5 6.4,6.2 7.6,5.3 C8.5,4.6 9.3,3.8 10.1,3 C10.3,2.8 12.7,0.3 12.2,1.4 C12,1.8 12.6,1.9 12.8,1.6 Z" fill="#000000"></path></g><g transform="translate(120.000000, 35.000000)"><path d="M13.8,1.5 C11.4,1.3 10.5,0.5 8.1,0.7 C4.6,0.9 0.3,5.5 0.4,6.7 C0.5,8 3.7,7.2 4.6,6.9 C2.8,8 1.3,10.4 1.1,12.6 C0.8,15.4 3.1,14.7 4.9,13.5 C2.6,15.8 3,19.2 3.1,22.1 C6.4,21.2 9.1,19 11.2,16.3 C11.3,17.3 11,18.1 10.7,19 C13.2,18.6 15.8,14.2 16.3,11.8 C16.3,12.7 16.3,13.5 16.2,14.3 C21,11.1 19.8,1.9 13.8,1.5 Z" fill="#516B43"></path><path d="M13.8,1.2 C11.2,0.9 8.8,-0.2 6.2,0.8 C4.1,1.6 2.1,3.2 0.8,5 C-1.5,8.1 2.4,8 4.6,7.2 C4.5,7 4.4,6.8 4.4,6.6 C2.4,7.9 0.1,11 0.7,13.6 C1.3,15.8 3.7,14.6 4.9,13.7 C4.8,13.5 4.6,13.4 4.5,13.2 C2.3,15.7 2.4,18.9 2.6,22 C2.6,22.2 2.8,22.4 3,22.3 C6.4,21.3 9,19.2 11.2,16.4 C11,16.3 10.8,16.2 10.6,16.2 C10.6,17.2 10.4,17.9 10.1,18.8 C10,19 10.3,19.3 10.5,19.2 C13.6,18.4 15.6,14.6 16.3,11.8 C16.1,11.8 15.9,11.7 15.7,11.7 C15.7,12.5 15.7,13.3 15.6,14.2 C15.6,14.4 15.9,14.6 16.1,14.5 C21.1,11.1 20.5,2 13.8,1.2 C13.4,1.2 13.4,1.8 13.8,1.8 C16.9,2.2 18.7,4.8 18.8,7.8 C18.8,9.1 18.6,10.4 17.9,11.5 C17.6,12 17.2,12.9 16.7,13.1 C15.9,13.4 16.3,12.4 16.3,11.7 C16.3,11.3 15.8,11.3 15.7,11.6 C15.2,13.5 14.2,15.3 12.9,16.8 C12.6,17.1 11.4,18.6 11,18.3 C11.1,18.4 11.3,16.4 11.3,16.2 C11.3,15.9 10.9,15.7 10.7,16 C9.9,17 9,18 8.1,18.9 C7.6,19.3 4.4,21.9 3.6,21.5 C2.9,21.1 3.2,19.7 3.2,18.9 C3.3,16.9 3.7,15.2 5,13.7 C5.2,13.4 4.9,13 4.6,13.2 C4.2,13.5 3.7,13.9 3.2,14 C2.1,14.1 1.5,12.4 1.6,11.4 C1.8,9.7 3.4,8.1 4.7,7.2 C5,7 4.8,6.5 4.5,6.6 C3.5,6.9 0.7,7.9 0.9,6.1 C1,5 3,3.6 3.8,3 C5.3,1.8 7,1 8.9,1.1 C10.5,1.2 12.1,1.8 13.8,1.9 C14.2,1.9 14.2,1.2 13.8,1.2 Z" fill="#000000"></path></g><path d="M125.9,52.7 C127.5,50.8 129.6,49.2 131,47.1 C132.3,45.1 133.1,42.8 133.6,40.5 C133.7,40.1 133.1,39.9 133,40.3 C132.5,42.6 131.8,44.8 130.5,46.8 C129.1,48.9 127.1,50.4 125.5,52.3 C125.2,52.6 125.6,53.1 125.9,52.7 Z" fill="#000000"></path><path d="M132.6,49.4 C132.6,48 132.8,46.6 132.6,45.2 C132.5,44.8 131.9,44.8 132,45.2 C132.2,46.6 132,48 132,49.4 C132,49.8 132.6,49.8 132.6,49.4 Z" fill="#000000"></path><path d="M125.2,45.8 C127.4,45.1 129.5,44.2 131.8,44.2 C132.2,44.2 132.2,43.6 131.8,43.6 C129.4,43.6 127.3,44.5 125.1,45.2 C124.6,45.3 124.8,46 125.2,45.8 Z" fill="#000000"></path><g transform="translate(151.000000, 0.000000)"><path d="M12.1,2.9 C12.3,1.2 11.4,-0.4 9.6,1.2 C7.6,3 7.7,7.2 6.1,9.3 C3.9,12.5 -0.1,14.9 0.5,19.5 C1.1,17.7 1.5,16 2.8,14.6 C4.1,13.1 5.5,12.3 6.5,10.4 C6.2,11.7 6.1,13 5.5,14.2 C4.5,16.7 2.6,18.8 1.3,21.1 C0,23.7 0.5,26.4 1.1,29.1 C1.1,25.8 1.2,23.1 2.9,20.2 C3.8,18.6 5.2,16.7 5.8,14.8 C5.5,15.4 5.4,16.2 5.3,16.9 C5,20.4 5.2,24.6 6.8,27.9 C6.2,26 6.2,23.9 6.3,21.9 C6.4,18.8 6.6,15.7 7.4,12.7 C8.1,9.8 10.2,6.7 10,3.7 C10.2,5.1 10.5,6.4 10.6,7.7 C10.8,10.4 10.2,12.7 9.6,15.2 C9,17.2 8.1,20.8 9.7,22.5 C9.9,19 11.8,15.7 11.7,12.3 C12.2,13.1 12.4,14.1 12.5,15 C12.8,17 13,19 13.3,21 C13.6,22.9 14.5,24.6 14.8,26.6 C14.8,23.7 15,20.6 14.7,17.7 C14.3,14.6 12.6,11.9 12.4,8.8 C12.2,6.7 12.1,4.8 12.1,2.9 Z" fill="#757552"></path><path d="M12.4,2.9 C12.4,1.7 12.2,0.1 10.7,0.2 C8.6,0.4 7.7,3.8 7.3,5.3 C6.8,7.1 6.3,8.6 5.2,10 C4.3,11.1 3.4,12 2.5,13.1 C0.9,15 0.1,16.9 0.3,19.4 C0.3,19.8 0.8,19.8 0.9,19.5 C1.6,17.3 2.4,15.4 4.1,13.7 C5.2,12.7 6.1,11.7 6.9,10.5 C6.7,10.4 6.5,10.3 6.3,10.3 C5.8,12.4 5.4,14.3 4.2,16.2 C3.3,17.7 2.2,19.1 1.3,20.6 C-0.2,23.3 0.2,26.3 0.8,29.2 C0.9,29.6 1.4,29.5 1.4,29.1 C1.4,26.2 1.6,23.4 3,20.7 C4,18.7 5.3,17 6.1,14.9 C6.2,14.5 5.6,14.3 5.5,14.7 C4,18.7 4.9,24.2 6.5,28 C6.6,28.3 7.2,28.1 7.1,27.8 C6,23.4 6.5,18 7.5,13.6 C8.3,10.2 10.4,7.1 10.3,3.6 C10.1,3.6 9.9,3.7 9.7,3.7 C10,5.9 10.4,8 10.2,10.2 C10,12.1 9.5,14 9.1,15.8 C8.6,18 7.9,20.6 9.4,22.6 C9.6,22.9 10,22.8 10,22.4 C10.3,18.9 11.9,15.7 12,12.2 C11.8,12.3 11.6,12.3 11.4,12.4 C12.6,14.7 12.5,17.6 12.8,20.1 C13.1,22.3 14,24.4 14.5,26.6 C14.6,27 15.1,26.9 15.1,26.5 C15.1,22.9 15.6,19.1 14.6,15.5 C14.1,13.7 13.4,12.1 13,10.3 C12.5,7.9 12.4,5.3 12.4,2.9 C12.4,2.5 11.7,2.5 11.8,2.9 C11.9,6.9 12.3,10.3 13.5,14.1 C14.9,18.2 14.6,22.3 14.5,26.5 C14.7,26.5 14.9,26.4 15.1,26.4 C14.5,23.5 13.5,20.9 13.2,17.9 C13,15.9 12.9,13.9 11.9,12.1 C11.8,11.8 11.3,12 11.3,12.3 C11.2,15.8 9.6,19 9.3,22.5 C9.5,22.4 9.7,22.4 9.9,22.3 C7.9,19.6 9.9,15.3 10.5,12.4 C11.1,9.3 10.7,6.6 10.3,3.6 C10.2,3.2 9.7,3.3 9.7,3.7 C9.7,6.1 8.7,8.2 7.9,10.4 C7.2,12.3 6.7,14.2 6.4,16.3 C5.9,20.1 5.5,24.3 6.5,28.1 C6.7,28 6.9,27.9 7.1,27.9 C5.5,24.3 4.7,18.9 6.2,15.1 C6,15 5.8,15 5.6,14.9 C4.7,17.5 2.8,19.6 1.9,22.1 C1,24.4 1,26.9 0.9,29.3 C1.1,29.3 1.3,29.2 1.5,29.2 C1.1,27.2 0.7,25 1.2,23 C1.6,21.3 2.7,19.9 3.7,18.4 C5.4,15.9 6.3,13.6 6.9,10.7 C7,10.4 6.5,10.1 6.3,10.5 C5.2,12.4 3.4,13.5 2.1,15.3 C1.2,16.6 0.7,18.2 0.3,19.7 C0.5,19.7 0.7,19.8 0.9,19.8 C0.5,15.6 3.8,13.4 6,10.3 C6.8,9.2 7.2,8.1 7.6,6.8 C7.9,5.9 8,5 8.3,4.2 C8.5,3.6 8.7,3.1 9,2.5 C11,1.2 11.9,1.4 11.6,3.1 C11.8,3.3 12.4,3.3 12.4,2.9 Z" fill="#000000"></path></g><path d="M0.9,7.2 C2.4,10.2 5.2,12.7 7.8,14.7 C10.9,17 14.9,19.2 18.2,21.1 C20.6,22.4 21.1,24.4 23.1,26.4 C23.7,22.3 18.6,19.6 15.7,18.1 C13.9,17.1 10.5,14.8 8.8,13.5 C6.7,11.7 4.7,10.7 3.3,8.3 C2.5,7.2 2,5.2 0.6,5.1 C-0.6,5.1 0.3,5.9 0.9,7.2 Z" stroke="#000000" stroke-width="0.6447" fill="#A6AD77"></path><g transform="translate(8.000000, 7.000000)"><g><path d="M7.2,1.2 C5.1,1.9 3.7,0.9 3.9,2.9 C-0.1,4 0.4,9.9 4.8,7.8 C6.1,10.3 9.6,7.3 7.9,5.5 C11.6,4.7 10.4,0.2 7.2,1.2 Z" fill="#3ADBC4"></path><path d="M7.1,0.9 C5.8,1.3 4,0.8 3.5,2.2 C3.3,2.7 3.6,2.5 3.2,2.8 C2.9,3 2.5,3.1 2.2,3.4 C1.7,3.8 1.3,4.3 1.1,4.9 C0.7,5.9 0.6,7.1 1.4,7.9 C2.3,9 3.8,8.6 4.9,8.2 C4.8,8.2 4.6,8.1 4.5,8.1 C6.1,10.8 10.1,7.7 8.1,5.5 C8.1,5.7 8,5.9 8,6 C9.5,5.6 10.9,4.3 10.5,2.6 C10.1,1 8.5,0.5 7.1,0.9 C6.7,1 6.9,1.6 7.3,1.5 C8.4,1.2 9.6,1.5 9.8,2.7 C10.1,4.1 8.9,4.9 7.7,5.3 C7.5,5.4 7.4,5.7 7.6,5.8 C8.9,7.3 6.1,9.6 5,7.7 C4.9,7.5 4.7,7.5 4.6,7.6 C3.3,8.2 1.5,8.1 1.5,6.3 C1.5,4.8 2.6,3.7 4,3.3 C4.1,3.3 4.2,3.1 4.2,3 C4.1,2 4.7,2 5.5,1.9 C6.1,1.9 6.7,1.8 7.3,1.6 C7.7,1.4 7.5,0.8 7.1,0.9 Z" fill="#000000"></path></g><path d="M5.7,5.5 C5.3,5.4 6.1,5.1 6.2,5.1 C6.4,5.1 6.6,5.1 6.8,5.2 C7.2,5.3 7.4,4.7 7,4.6 C6.5,4.4 5.7,4.5 5.3,4.8 C4.8,5.2 4.9,6 5.5,6.2 C5.9,6.2 6.1,5.6 5.7,5.5 Z" fill="#000000"></path></g><g transform="translate(15.000000, 11.000000)"><g><path d="M1.8,4.6 C0.1,3.8 1.1,8 3.5,6.6 C3.2,9 7.5,9 7.2,6.2 C10.6,6.2 9.3,2.5 6,3.4 C6.1,-1.4 -1,3.3 1.8,4.6 Z" fill="#3ADBC4"></path><path d="M1.9,4.2 C0.8,3.8 0.5,4.9 0.8,5.8 C1.3,7.1 2.5,7.5 3.7,6.8 C3.5,6.7 3.4,6.6 3.2,6.5 C3,9.4 7.7,9 7.5,6.1 C7.4,6.2 7.3,6.3 7.2,6.4 C8.3,6.4 9.9,5.8 9.5,4.3 C9,2.8 7.2,2.6 6,2.9 C6.1,3 6.3,3.1 6.4,3.2 C6.4,1 4.7,0.3 2.8,1.3 C1.6,1.9 -0.1,3.8 1.7,4.7 C2,5 2.3,4.5 1.9,4.2 C0.7,3.6 2.4,2.3 3.1,1.9 C4.5,1.2 5.7,1.6 5.7,3.3 C5.7,3.5 5.9,3.7 6.1,3.6 C7,3.4 8.3,3.4 8.8,4.3 C9.4,5.4 8,5.7 7.2,5.7 C7,5.7 6.9,5.8 6.9,6 C7.1,8.1 3.7,8.5 3.9,6.4 C3.9,6.1 3.6,6 3.4,6.1 C2.7,6.5 2,6.4 1.6,5.6 C1.4,5.3 1.1,4.4 1.8,4.6 C2.1,5 2.3,4.4 1.9,4.2 Z" fill="#000000"></path></g><path d="M4.1,5.2 C4.1,4.9 4.7,5.2 4.7,5.5 C4.7,5.9 5.3,5.9 5.3,5.5 C5.3,4.4 3.3,4 3.4,5.2 C3.5,5.6 4.2,5.6 4.1,5.2 Z" fill="#000000"></path></g><g transform="translate(18.000000, 8.000000)"><g><path d="M5.8,5.5 C4.9,6.3 8.4,8.2 10,6.5 C11.3,5 9.5,3.8 8.1,3.9 C9.3,1.6 6.4,-0.2 5.2,2 C3.6,-2.6 -1.9,3.8 3.2,4.3 C2.5,5.8 4.9,6.3 5.8,5.5 Z" fill="#3ADBC4"></path><path d="M5.6,5.3 C4.3,6.9 8.3,7.7 9.2,7.4 C10.1,7.1 11,6.1 10.7,5.1 C10.4,4 9.1,3.6 8.1,3.6 C8.2,3.8 8.3,3.9 8.4,4.1 C9.5,1.7 6.5,-0.7 4.9,1.8 C5.1,1.8 5.3,1.9 5.5,1.9 C4.8,0 2.8,-0.7 1.4,1.1 C0,2.8 1.2,4.4 3.2,4.6 C3.1,4.5 3,4.3 2.9,4.2 C2.3,6.1 4.8,6.8 6.1,5.9 C6.3,5.6 6,5 5.6,5.3 C4.9,5.8 3.1,5.7 3.5,4.3 C3.6,4.1 3.4,3.9 3.2,3.9 C1.7,3.7 0.9,2.6 2,1.4 C3.1,0.2 4.4,0.7 4.9,2.1 C5,2.4 5.3,2.4 5.5,2.2 C6.6,0.4 8.6,2.1 7.8,3.8 C7.7,4 7.8,4.3 8.1,4.3 C8.6,4.3 9.5,4.4 9.9,4.9 C10.7,6.1 9.4,6.9 8.5,7 C8.3,7 5.6,6.4 6.1,5.9 C6.3,5.4 5.8,5 5.6,5.3 Z" fill="#000000"></path></g><path d="M4.6,3.1 C3.8,4.4 6.7,5.2 6.6,3.7 C6.6,3.3 5.9,3.3 6,3.7 C6.1,4.2 5,3.8 5.2,3.5 C5.3,3.1 4.8,2.7 4.6,3.1 Z" fill="#000000"></path></g><g transform="translate(1.000000, 16.000000)"><g><path d="M9.7,0.7 C9.4,-0.1 2.1,5 4.3,7.7 C1.1,9.2 1.6,13.4 0.9,16.2 C4.1,13.1 11.6,5.7 9.7,0.7 Z" fill="#A6AD77"></path><path d="M9.9,0.5 C8.6,-1 4.3,4.2 3.9,5.2 C3.6,6 3.8,6.4 3.7,7.2 C3.6,7.6 3.8,7.3 3.6,7.8 C3.6,7.8 2.6,8.7 2.6,8.7 C0.9,10.7 1.1,13.7 0.6,16.2 C0.5,16.5 0.9,16.7 1.1,16.5 C4.8,12.9 11.9,6.6 10,0.7 C9.9,0.3 9.2,0.5 9.4,0.9 C11.2,6.5 4.2,12.6 0.7,16.1 C0.9,16.2 1.1,16.3 1.2,16.4 C1.9,13.5 1.5,9.8 4.5,8.1 C4.6,8 4.7,7.8 4.6,7.7 C3.1,5.6 8.8,0.4 9.5,1.1 C9.7,1.3 10.2,0.8 9.9,0.5 Z" fill="#000000"></path></g><path d="M4.8,11 C5.7,10.1 6.5,9.1 7.3,8.1 C8,7.3 8.5,6.4 8.8,5.3 C8.9,4.9 8.3,4.7 8.2,5.1 C7.9,6.3 7.2,7.2 6.4,8.1 C5.7,8.9 5.2,9.8 4.4,10.5 C4,10.8 4.4,11.3 4.8,11 Z" fill="#000000"></path></g><g transform="translate(4.000000, 22.000000)"><g><path d="M23.8,13.9 C20,15.3 21.2,18.2 13.9,18.2 C14.8,17.7 15.8,17 16.1,16.1 C14.7,16 13.2,16.9 11.7,17 C10,17.1 7.6,17.1 6.1,16.1 C7.3,15.8 9.5,15.2 10.2,13.8 C7.6,13.6 5.4,14.6 3,13 C3.8,12.6 4.7,12.5 5.5,11.9 C4.1,11.6 2.6,11.9 1.2,12 C1.4,10.9 3.3,9.5 4.1,8.7 C5.3,7.5 6.5,6.9 8,6.2 C7,5.7 6.1,5.1 5.2,4.5 C9,2.8 12.9,2 16.7,4.2 C15.8,2.8 14.5,1.9 13.6,0.7 C19.5,-0.1 25,4.5 25.3,10.5 C25.3,11.9 25.3,13.3 23.8,13.9 Z" fill="#516B43"></path><path d="M23.7,13.6 C22.4,14.1 21.6,14.8 20.6,15.8 C18.7,17.6 16.5,17.9 13.9,17.9 C14,18.1 14,18.3 14.1,18.5 C15.1,17.9 15.9,17.3 16.4,16.2 C16.5,16 16.3,15.8 16.1,15.8 C12.7,15.9 9.7,17.6 6.3,15.8 C6.3,16 6.2,16.2 6.2,16.4 C7.8,16 9.5,15.5 10.5,14 C10.6,13.8 10.5,13.5 10.2,13.5 C8.8,13.4 7.5,13.7 6.1,13.6 C5.7,13.6 4.2,13.6 4.3,12.9 C4.3,13.1 5.7,12.2 5.6,12.3 C5.8,12.2 5.8,11.8 5.5,11.7 C4.7,11.6 3.6,11.8 2.8,11.6 C1.9,12 1.7,11.8 2.1,11 C2.4,10.7 2.7,10.4 3,10.1 C4.5,8.6 6,7.4 8,6.5 C8.2,6.4 8.2,6.1 8,5.9 C7.9,5.8 5.8,4.8 5.9,4.6 C6,4 8.3,3.6 8.8,3.4 C11.5,2.8 13.9,3.1 16.4,4.3 C16.7,4.4 17,4.1 16.8,3.9 C15.9,2.6 14.7,1.5 13.6,0.3 C13.5,0.5 13.4,0.7 13.4,0.9 C16.5,0.6 19.6,1.5 21.8,3.8 C23.6,5.6 27.1,11.8 23.7,13.6 C23.3,13.8 23.6,14.4 23.9,14.2 C27.1,12.6 25.1,7.2 23.6,5 C21.3,1.6 17.4,0 13.4,0.3 C13.1,0.3 13,0.6 13.2,0.9 C14.2,2.1 15.4,3.1 16.3,4.4 C16.4,4.3 16.6,4.1 16.7,4 C12.7,2 8.8,2.6 4.9,4.3 C4.7,4.4 4.7,4.7 4.9,4.9 C5.2,5.1 6.4,5.7 6.6,6 C7.1,6.7 6.9,6.1 6.3,6.7 C5.6,7.4 4.5,7.9 3.8,8.6 C2.7,9.6 1.3,10.6 0.8,12.1 C0.7,12.3 0.9,12.5 1.1,12.5 C2.5,12.4 3.9,12.2 5.3,12.4 C5.3,12.2 5.2,12 5.2,11.8 C4.4,12.2 3.5,12.5 2.7,12.9 C2.5,13 2.5,13.4 2.7,13.5 C4.2,14.3 5.5,14.4 7.2,14.4 C7.9,14.4 10.2,13.7 8.7,15 C8,15.5 6.8,15.8 6,16 C5.7,16.1 5.7,16.5 5.9,16.6 C7.5,17.4 9.2,17.6 11,17.5 C11.8,17.5 12.5,17.3 13.3,17.2 C13.9,17.1 14.5,16.6 15,17 C15.5,17.3 14.2,18 13.8,18.2 C13.5,18.4 13.6,18.8 14,18.8 C16.1,18.8 18.2,18.6 20,17.4 C21.4,16.4 22.3,15.1 24,14.4 C24.2,14 24.1,13.4 23.7,13.6 Z" fill="#000000"></path></g><path d="M6.4,10.7 C11.7,9.1 18.1,8.9 23.2,11.4 C23.6,11.6 23.9,11 23.5,10.8 C18.2,8.2 11.7,8.4 6.2,10 C5.9,10.2 6,10.9 6.4,10.7 Z" fill="#000000"></path><path d="M12.4,11.9 C12.4,11.3 13.2,10.8 13.7,10.6 C14.3,10.3 15,10 15.6,10 C16,10 16,9.4 15.6,9.4 C14.3,9.3 11.9,10.4 11.7,12 C11.7,12.3 12.3,12.3 12.4,11.9 Z" fill="#000000"></path><path d="M11.5,6.8 C12.9,7.3 13.9,8.3 15,9.3 C15.3,9.6 15.8,9.1 15.5,8.8 C14.3,7.7 13.2,6.7 11.7,6.1 C11.3,6 11.2,6.6 11.5,6.8 Z" fill="#000000"></path></g><g transform="translate(19.000000, 15.000000)"><g><g><path d="M7,13 C5.5,11.3 5.5,9.8 4.9,8.1 C3.6,4.4 7.7,1.7 9.8,5.1 C11.5,-0.9 19.9,0.6 18.6,6.8 C23.1,5.9 28.7,11.5 27.4,16.3 C26.8,19.1 23.7,19.5 22.7,20.4 C20.6,22.2 24.2,24.3 21.2,26.6 C18.8,28.5 16,28.5 14.1,26.2 C12.4,30.5 5.1,28.8 6.6,23.8 C3.6,24.2 1.9,21 3.2,18.6 C-3.3,17.5 3.4,8.9 7,13 Z" fill="#E2BBA8"></path><path d="M7.3,12.8 C6.2,11.4 5.4,9.2 5.1,7.4 C4.7,4.7 7.4,2.3 9.6,5.2 C9.8,5.4 10.1,5.4 10.2,5.1 C11.9,-0.1 19.3,0.8 18.4,6.6 C18.4,6.8 18.5,7 18.7,7 C21.8,6.6 24.8,8.6 26.4,11.3 C27.2,12.7 27.7,14.4 27.2,16.1 C26.7,17.8 25.5,18.5 24,19.2 C22.9,19.7 21.9,20.2 21.7,21.6 C21.6,22.7 22.5,23.8 22.1,24.9 C21.5,26.4 19.4,27.6 17.9,27.6 C16.5,27.6 15.3,26.9 14.4,25.9 C14.3,25.8 14,25.8 13.9,26 C12.1,29.9 5.9,28.4 7,23.9 C7,23.7 6.9,23.5 6.7,23.5 C4.1,23.7 2.5,21.2 3.5,18.8 C3.6,18.6 3.5,18.4 3.3,18.3 C-2.2,17.1 3.4,9.8 6.9,13.3 C7.1,13.5 7.6,13.1 7.3,12.8 C5.4,10.9 2.8,11.5 1.2,13.5 C0.6,14.3 0.1,15.3 0.1,16.3 C0.2,17.7 1.1,17.8 1.9,18.6 C2.6,19.3 2.3,18.4 2.4,19.6 C2.5,20.2 2.3,20.7 2.5,21.4 C2.9,23.1 4,23.3 5.3,24.1 C6.3,24.7 5.9,23.9 6,25.3 C6,25.8 6.2,26.3 6.4,26.7 C6.9,27.8 8,28.5 9.2,28.8 C10.3,29.1 11.6,28.9 12.6,28.3 C13.1,28 13.4,27.4 13.9,27.1 C15,26.5 13.7,26.9 14.4,26.9 C14.2,26.9 15.8,27.9 15.7,27.8 C18.5,29.1 23.1,27 22.6,23.6 C22.4,22.1 22.4,21 23.8,20 C24.5,19.5 25.3,19.3 26,18.8 C27.2,17.9 27.8,16.5 27.9,15 C28,11.3 24.9,7.7 21.6,6.7 C21.3,6.6 19.1,6.4 19,6.3 C18.8,6.1 19,4.6 18.9,4.1 C18.5,2.8 17.6,1.7 16.3,1.2 C13.3,5.68434189e-14 10.5,2 9.5,4.9 C9.7,4.9 9.9,4.8 10.1,4.8 C8.8,3 6.4,2.3 4.9,4.5 C3.2,6.9 5.2,11.2 6.8,13.2 C7.1,13.6 7.5,13.1 7.3,12.8 Z" fill="#000000"></path></g><g transform="translate(12.000000, 12.000000)"><path d="M1.9,4.7 C1.9,6.4 2.8,7.5 4.7,7.3 C4.7,6.9 4.7,6.4 4.7,6 C5.1,6 5.3,6.2 6,6.2 C5.8,5.3 6.2,5.6 5.6,4.5 C7.1,3.9 6.5,4.3 6,3 C6.6,1.5 5.8,1.1 4.3,1.5 C1.7,-0.9 -0.7,3.2 1.9,4.7" fill="#A36969"></path><path d="M1.6,4.7 C1.7,6.6 2.8,7.7 4.7,7.6 C4.9,7.6 5,7.5 5,7.3 C5,6.9 5,6.4 5,6 C4.9,6.1 4.8,6.2 4.7,6.3 C5.1,6.3 5.5,6.5 6,6.5 C6.2,6.5 6.3,6.3 6.3,6.1 C6.2,5.4 6.2,5 5.8,4.3 C5.8,4.4 5.7,4.6 5.7,4.7 C6.1,4.5 6.8,4.4 6.8,3.9 C6.8,3.7 6.7,3.6 6.6,3.5 C6.4,3 6.5,2.7 6.5,2.1 C6.5,1.6 6.3,1.2 5.8,1 C5.5,0.9 5.1,0.9 4.8,0.9 C4.3,0.9 4.2,0.9 3.8,0.6 C2.7,-5.68434189e-14 1.4,0.3 0.7,1.5 C-1.42108547e-14,2.7 0.5,4.1 1.7,4.8 C2,5 2.4,4.5 2,4.2 C1.1,3.6 0.7,2.5 1.4,1.6 C1.7,1.2 2.1,0.9 2.6,0.9 C3.3,0.9 3.5,1.5 4.1,1.6 C4.5,1.7 4.9,1.4 5.3,1.5 C6.1,1.8 5.6,2.3 5.6,2.9 C5.6,3.2 5.9,3.4 6,3.7 C6.1,4 6,3.8 6.1,3.7 C6.1,3.8 5.4,4 5.4,4 C5.2,4.1 5.2,4.3 5.3,4.4 C5.6,5 5.6,5.4 5.7,6 C5.8,5.9 5.9,5.7 6,5.6 C5.6,5.6 5.1,5.4 4.7,5.4 C4.5,5.4 4.4,5.6 4.4,5.7 C4.4,6.1 4.4,6.6 4.4,7 C4.5,6.9 4.6,6.8 4.7,6.7 C3.1,6.8 2.3,6 2.2,4.4 C2.2,4.3 1.6,4.3 1.6,4.7 Z" fill="#000000"></path></g><path d="M6.7,24.1 C9.1,23.1 12.1,22.6 13.3,20.1 C13.5,19.7 12.9,19.4 12.7,19.8 C11.5,22.1 8.6,22.6 6.4,23.5 C6.2,23.6 6.3,24.2 6.7,24.1 Z" fill="#000000"></path><path d="M7.4,13.3 C8.8,12.7 10.3,12.7 11.4,13.9 C11.7,14.2 12.1,13.8 11.9,13.4 C10.7,12 8.9,12 7.3,12.7 C6.8,12.9 7,13.5 7.4,13.3 Z" fill="#000000"></path><path d="M11.7,10.3 C11.9,8.9 11.7,7.4 10.8,6.3 C10.5,6 10.1,6.5 10.3,6.8 C11.1,7.7 11.2,9 11.1,10.1 C11,10.5 11.6,10.7 11.7,10.3 Z" fill="#000000"></path><path d="M17.2,11.7 C17.6,11.2 17.9,10.6 17.9,10 C17.9,9.6 17.3,9.6 17.3,10 C17.3,10.5 17.1,10.9 16.7,11.3 C16.4,11.6 16.9,12 17.2,11.7 Z" fill="#000000"></path><path d="M19,18.3 C20.8,17.7 21.6,19.9 21.9,21.2 C22,21.6 22.6,21.4 22.5,21 C22.1,19.3 21,16.9 18.8,17.6 C18.4,17.8 18.6,18.4 19,18.3 Z" fill="#000000"></path><path d="M23,14 C23.6,14 24.1,14 24.6,14.2 C25,14.3 25.2,13.7 24.8,13.6 C24.2,13.4 23.6,13.4 23,13.4 C22.5,13.3 22.5,14 23,14 Z" fill="#000000"></path></g><path d="M15.7,16.8 C15.3,16.5 15.6,15.4 16.1,15.5 C16.5,15.6 16.7,14.9 16.3,14.9 C15,14.7 14.3,16.6 15.4,17.4 C15.7,17.6 16,17 15.7,16.8 Z" fill="#000000"></path></g><g transform="translate(137.000000, 3.000000)"><g transform="translate(7.000000, 0.000000)"><path d="M3.6,0.5 C2.3,2.3 4.5,4.5 5.4,6 C7.8,9.9 8,13.8 6.7,18.1 C6.1,20.2 5.2,22.1 3.9,23.8 C3.1,24.7 0.1,26.9 1,28.1 C1.3,28.1 1.5,28.1 1.9,28 C7.4,22.7 10.1,16.1 7.9,8.7 C7,5.7 5.9,2.7 3.6,0.5 Z" fill="#A6AD77"></path><path d="M3.3,0.4 C2.4,2.2 3.4,3.7 4.4,5.2 C6.8,8.7 7.6,12.6 6.7,16.8 C5.9,20.1 4.5,22.7 2.2,25.1 C1.3,26 0.2,27.1 0.7,28.4 C0.7,28.5 0.9,28.6 1,28.6 C3.1,28.5 4.6,25.7 5.7,24.1 C7.2,21.8 8.3,19.2 8.7,16.5 C9.5,11.1 7.7,4.3 3.8,0.4 C3.5,0.1 3,0.6 3.3,0.9 C7.1,4.6 8.8,11.2 8,16.4 C7.6,19.1 6.5,21.6 5,23.8 C4.5,24.6 3.4,26.6 2.3,27.1 C0.3,28 2.3,25.8 2.9,25.3 C5.7,22.6 7.2,18.8 7.6,15 C7.8,12.8 7.6,10.6 6.8,8.5 C6,6.5 2.6,3.2 3.8,0.9 C4,0.3 3.5,0 3.3,0.4 Z" fill="#000000"></path></g><g transform="translate(11.000000, 20.000000)"><path d="M1.2,4.7 C0.1,9.6 10.9,8.1 13.9,3.3 C10.9,0.8 2.4,-0.5 1.2,4.7 Z" fill="#A6AD77"></path><path d="M0.9,4.6 C0.4,7.3 3,8.1 5.3,8 C8.7,7.8 12.3,6.2 14.2,3.4 C14.3,3.2 14.2,3.1 14.1,3 C10.5,0.3 2.4,-0.8 0.9,4.6 C0.8,5 1.4,5.2 1.5,4.8 C2.3,1.9 5.3,1.3 7.9,1.5 C9,1.6 10.1,1.8 11.2,2.2 C11.7,2.4 12.5,2.6 12.9,3 C13.4,3.6 13.5,3.2 13,4 C11.5,6.5 0.7,9.8 1.6,4.8 C1.6,4.4 1,4.2 0.9,4.6 Z" fill="#000000"></path></g><g transform="translate(2.000000, 7.000000)"><path d="M10.3,15 C10.8,11.8 10,9 7.2,6.9 C4.8,5.2 2,4 1.9,0.8 C-1,3.7 3.3,6.5 4,8.3 C4.3,9.2 4,9.6 4.6,10.4 C5.2,11.3 6,11.8 6.9,12.3 C8,13.1 10.3,15 10.3,15 Z" fill="#A6AD77"></path><path d="M10.6,15 C10.9,12.6 10.6,10.2 9,8.2 C6.8,5.5 2.6,4.7 2.2,0.8 C2.2,0.6 1.8,0.3 1.6,0.6 C-0.9,3.6 2,5.4 3.4,8 C4.3,9.6 4,10.6 5.5,11.9 C6.9,13.1 8.5,14.1 10,15.3 C10.3,15.6 10.8,15.1 10.5,14.8 C9.8,14.2 9.1,13.7 8.4,13.1 C6.7,11.8 5.3,11.1 4.5,8.9 C3.5,6.4 -0.3,3.9 2.1,1.1 C1.9,1 1.7,0.9 1.5,0.9 C1.7,3.2 2.9,4.5 4.7,5.8 C8.2,8.3 10.5,10.4 9.9,15.1 C9.9,15.4 10.6,15.4 10.6,15 Z" fill="#000000"></path></g><g transform="translate(0.000000, 14.000000)"><path d="M5.2,13.3 C7,12.5 7,9.6 6.5,7.8 C5.7,5.8 3.3,2.1 1.6,0.9 C1.4,2.1 1.5,3.2 1.3,4.3 C1,5.5 0.5,7 1.1,8.3 C1.4,9.1 2.4,9.3 2.7,9.8 C3,10.3 2.7,10.8 2.9,11.5 C3.2,12.8 3.7,13.9 5.2,13.3 Z" fill="#A6AD77"></path><path d="M5.4,13.6 C10.3,10.7 4.6,2.8 1.7,0.7 C1.5,0.5 1.2,0.8 1.2,1 C1,2.4 0.9,3.7 0.7,5.1 C0.5,5.9 0.3,6.7 0.5,7.6 C0.7,8.9 1.5,9.2 2.1,10.2 C2.9,11.8 2.7,14.4 5.4,13.6 C5.7,13.5 5.6,12.9 5.2,13 C4.1,13.3 3.3,11.7 3.2,10.9 C3.2,10.7 3.3,10.5 3.2,10.3 C3,9.7 2.9,9.7 2.6,9.3 C2.1,8.5 2.3,9.4 1.7,7.9 C1.2,6.7 1.4,6.2 1.6,4.9 C1.7,4.4 1.8,2 1.9,1.9 C2.7,1.5 5,5.4 5.3,6 C6.4,7.9 7.7,11.6 5.1,13.1 C4.7,13.2 5,13.8 5.4,13.6 Z" fill="#000000"></path></g><g transform="translate(9.000000, 7.000000)"><path d="M4.2,0.7 C3.1,0.3 1.9,4.7 1.9,6.3 C0.3,4.4 0.8,-0.4 4.2,0.7 Z" fill="#A6AD77"></path><path d="M4.2,0.4 C3.3,0.2 2.8,1.4 2.5,2.1 C2,3.4 1.6,4.9 1.6,6.3 C1.8,6.2 2,6.1 2.2,6.1 C0.9,4.4 1.1,0.2 4.1,1.1 C4.5,1.1 4.6,0.5 4.2,0.4 C0.5,-0.6 -0.1,4.3 1.6,6.5 C1.8,6.7 2.1,6.5 2.2,6.3 C2.2,5.3 2.4,4.4 2.7,3.5 C2.8,3.1 3.4,0.9 4,1.1 C4.5,1.1 4.7,0.5 4.2,0.4 Z" fill="#000000"></path></g><path d="M12.8,25.5 C15.3,23.9 18.2,23.3 21.1,23.9 C21.5,24 21.7,23.4 21.3,23.3 C18.2,22.6 15.1,23.3 12.5,24.9 C12.1,25.2 12.4,25.7 12.8,25.5 Z" fill="#000000"></path><path d="M5,26.3 C4.1,24.2 5.2,21.9 4.1,19.8 C3.9,19.4 3.4,19.8 3.5,20.1 C4.5,22.1 3.5,24.5 4.3,26.5 C4.5,26.9 5.1,26.7 5,26.3 Z" fill="#000000"></path><path d="M12.3,21.6 C11.3,19.2 10.5,16.7 8.4,15.1 C8.1,14.8 7.6,15.3 7.9,15.6 C9.9,17.2 10.7,19.7 11.7,22 C11.9,22.3 12.4,22 12.3,21.6 Z" fill="#000000"></path></g><g transform="translate(122.000000, 22.000000)"><g><g><path d="M9.1,19.9 C12.3,19.9 13,23.2 17.6,21.9 C20.5,21.1 21.4,20.4 23.4,18.6 C25.4,16.9 27.3,14.4 26.4,10.8 C25.5,7.4 22.2,7.8 19.4,7.5 C19.1,4.6 18.8,2.7 15.6,1.1 C13.3,-0.1 10.6,0.7 9,2.7 C6.6,-0.3 3.1,2.2 1.9,5 C1,7 0.7,10.2 0.9,12.3 C1,14.1 2,16 3.9,16.3 C3.8,17.6 7.9,19.9 9.1,19.9 Z" fill="#E2BBA8"></path><path d="M9.1,20.2 C11.7,20.3 13.4,22.7 16.2,22.5 C19.2,22.2 21.7,20.6 23.9,18.6 C26,16.6 27.4,14.1 26.8,11.1 C26.3,8.4 24.3,7.6 21.7,7.3 C21.1,7.2 20.2,7.4 19.8,7 C19.5,6.7 19.5,5.6 19.4,5.2 C19.1,3.9 18.6,2.8 17.6,1.9 C15.6,0.1 12.8,-0.6 10.4,0.9 C9.8,1.3 9.5,1.9 8.8,1.8 C8.5,1.8 7.9,1.2 7.5,1 C6.4,0.7 5.3,1 4.4,1.5 C1.6,3.1 0.9,6.6 0.7,9.6 C0.6,11.2 0.6,13.1 1.4,14.6 C2,15.6 3.1,16 3.8,16.7 C5.3,18.3 6.7,20 9.1,20.2 C9.5,20.2 9.5,19.6 9.1,19.6 C7.8,19.5 4.3,17.9 4.4,16.2 C4.4,16.1 4.3,15.9 4.2,15.9 C0.6,14.9 1.1,9.9 1.8,7.1 C2.5,4 5.8,-0.6 9,2.9 C9.1,3 9.3,3 9.5,2.9 C11.5,0.5 14.4,0.2 16.8,2.1 C18.6,3.5 19,5.4 19.2,7.5 C19.2,7.7 19.3,7.8 19.5,7.8 C22.7,8.1 26.3,8.1 26.4,12.3 C26.5,15.6 23.8,18.2 21.2,20 C19,21.5 15.8,22.5 13.3,21.2 C11.9,20.5 10.9,19.7 9.2,19.6 C8.7,19.6 8.7,20.2 9.1,20.2 Z" fill="#000000"></path></g><path d="M14,17.5 C17.4,20.3 22.6,19.2 25.6,16.4 C25.9,16.1 25.4,15.7 25.1,15.9 C22.3,18.5 17.5,19.6 14.4,17 C14.1,16.8 13.6,17.3 14,17.5 Z" fill="#000000"></path><path d="M13.9,14.4 C14.6,11.7 16.7,8.5 19.6,7.9 C20,7.8 19.8,7.2 19.4,7.3 C16.3,7.9 14.1,11.4 13.3,14.3 C13.1,14.6 13.7,14.8 13.9,14.4 Z" fill="#000000"></path><path d="M9,13.8 C7.5,13.2 7.5,10.5 7.5,9.1 C7.5,6.8 8,4.7 9.4,2.9 C9.7,2.6 9.1,2.2 8.8,2.6 C7.1,4.9 6.6,7.6 6.9,10.4 C7,11.9 7.2,13.8 8.8,14.4 C9.2,14.5 9.4,13.9 9,13.8 Z" fill="#000000"></path><path d="M4,16.5 C5.6,16.9 7.8,16.9 9.2,16 C9.6,15.8 9.2,15.2 8.9,15.4 C7.6,16.2 5.6,16.1 4.2,15.8 C3.8,15.8 3.6,16.4 4,16.5 Z" fill="#000000"></path><path d="M11.6,20.5 C10.8,19.4 11.2,18.1 11.6,16.9 C11.7,16.5 11.1,16.3 11,16.7 C10.6,18 10.1,19.6 11,20.8 C11.3,21.1 11.8,20.8 11.6,20.5 Z" fill="#000000"></path><g transform="translate(9.000000, 13.000000)"><path d="M0.5,1.6 C0,2.7 3,4.4 3.9,4.3 C6.9,4.1 3.4,-0.1 0.5,1.6" fill="#A36969"></path><path d="M0.2,1.5 C-0.3,2.7 1.5,3.7 2.3,4.1 C3.1,4.5 4.6,5 5.2,4 C5.8,3.1 4.9,2.1 4.2,1.6 C3.1,0.8 1.6,0.6 0.3,1.3 C-0.1,1.5 0.3,2.1 0.6,1.9 C1.5,1.4 2.6,1.4 3.5,2 C3.9,2.2 5,3.1 4.7,3.7 C4.3,4.4 3,3.9 2.5,3.6 C2,3.3 0.4,2.5 0.8,1.7 C0.9,1.3 0.3,1.2 0.2,1.5 Z" fill="#000000"></path></g></g><path d="M10.9,15.8 C11.4,16 11.8,16.3 12.2,16.6 C12.5,16.9 12.9,16.4 12.7,16.1 C12.3,15.6 11.7,15.3 11.2,15.1 C10.7,15.1 10.5,15.7 10.9,15.8 Z" fill="#000000"></path></g></g><g transform="translate(126.000000, 17.000000)" id="Path"><g><path d="M9.3,0.8 C9.3,2.1 10.7,2.9 11.3,3.9 C12.2,5.5 12.4,7.5 12.3,9.3 C12.9,8.5 13.8,8.2 14.7,7.6 C14.9,8.8 15.2,10 15.1,11.3 C15,13.2 13.9,14 13.1,15.6 C14,15.7 14.8,15.4 15.6,15.1 C14.9,18.3 12.2,21.7 9.3,23.1 C5.7,25 3,21 1.8,18.1 C1.2,16.4 1,14.5 0.9,12.7 C1.5,12.7 2.2,13.1 2.6,13.6 C2.8,11.5 3.3,8.3 4.7,6.7 C4.9,7.1 5.3,7.5 5.5,8 C5.2,5 9.2,3.7 9.3,0.8 Z" fill="#516B43"></path><path d="M9,0.9 C9.2,1.9 9.6,2.4 10.3,3.2 C11.8,5 12.1,7 12,9.3 C12,9.6 12.4,9.7 12.6,9.5 C12.9,9.1 14,8 14.4,8.4 C15,8.9 14.8,11.4 14.7,11.9 C14.4,13.2 13.4,14.2 12.8,15.3 C12.7,15.5 12.8,15.8 13.1,15.8 C13.2,15.8 15.1,15.6 15.1,15.6 C15.3,15.8 14.1,17.9 13.9,18.2 C12.8,20 11.1,21.9 9.1,22.7 C6.2,23.9 4.2,21.8 2.9,19.5 C2.4,18.7 2.1,17.9 1.8,17 C1.6,16.5 0.6,12 2.4,13.7 C2.6,13.9 2.9,13.7 3,13.5 C3.1,12.1 3.3,10.6 3.7,9.3 C4.1,8.1 4.4,6.4 5.3,8.1 C5.5,8.4 5.9,8.2 5.9,7.9 C6,5 9.5,3.7 9.8,0.8 C9.6,0.4 9,0.4 9,0.9 C8.7,3.8 5.2,4.9 5.1,7.9 C5.3,7.8 5.5,7.8 5.7,7.7 C5.4,7.2 5.2,6.8 4.9,6.4 C4.8,6.2 4.5,6.2 4.3,6.4 C2.8,8.4 2.4,11 2.2,13.5 C2.4,13.4 2.6,13.3 2.8,13.3 C2.2,12.7 1.8,12.5 1,12.3 C0.8,12.3 0.6,12.4 0.6,12.6 C0.8,16.5 2.1,22.8 6.7,23.7 C11.1,24.5 14.9,18.5 15.9,15 C16,14.8 15.7,14.5 15.5,14.6 C14.9,14.9 14.4,15 13.7,14.9 C13.9,14.5 14.2,14.2 14.4,13.8 C14.7,13.3 15,12.8 15.2,12.3 C15.7,10.7 15.4,9 15.1,7.4 C15.1,7.2 14.8,7.1 14.6,7.2 C13.7,7.7 12.8,8.1 12.1,8.9 C12.3,9 12.5,9.1 12.7,9.1 C12.8,7.5 12.7,5.8 12.1,4.3 C11.5,2.9 10,2 9.8,0.5 C9.5,0.3 8.9,0.5 9,0.9 Z" fill="#000000"></path></g><path d="M8.9,4.7 C8.8,10.3 4.1,15.3 7,20.8 C7.2,21.2 7.7,20.8 7.6,20.5 C4.8,15.1 9.5,10.1 9.6,4.7 C9.5,4.3 8.9,4.3 8.9,4.7 Z" fill="#000000"></path><path d="M11.5,11.6 C10.7,12.7 9.4,13.3 8.4,14.2 C7.5,15 6.8,16 6.2,17 C6,17.4 6.5,17.7 6.8,17.3 C7.5,16.2 8.3,15.1 9.4,14.2 C10.3,13.4 11.4,12.9 12.1,11.9 C12.4,11.6 11.8,11.3 11.5,11.6 Z" fill="#000000"></path><path d="M5.8,8.8 C5.4,10.3 5.5,11.9 6.3,13.3 C6.5,13.7 7.1,13.3 6.9,13 C6.2,11.8 6.1,10.4 6.5,9 C6.5,8.6 5.9,8.4 5.8,8.8 Z" fill="#000000"></path><path d="M3.3,13.5 C3.3,15.4 4.2,17.2 5.9,18 C6.3,18.2 6.6,17.6 6.2,17.4 C4.7,16.7 3.9,15.1 3.9,13.4 C3.9,13.1 3.3,13.1 3.3,13.5 Z" fill="#000000"></path></g><path d="M124.9,38.6 C117.4,37.9 107.5,37.8 101.3,42.6 C101,42.9 101.4,43.3 101.8,43.1 C105.3,40.4 109.6,39.7 113.9,39.3 C117.6,38.9 121.3,38.9 125,39.3 C125.3,39.3 125.3,38.7 124.9,38.6 Z" id="Path" fill="#000000"></path><g transform="translate(60.000000, 0.000000)" id="Path"><g transform="translate(2.000000, 6.000000)" fill="#000000"><path d="M65.4,29.9 C65.5,29.9 65.5,29.9 65.6,29.8 C65.8,29.7 65.9,29.5 65.8,29.3 C61.2,22.8 53.4,21.3 46.6,18 C46.2,17.8 45.9,18.4 46.3,18.6 C49.4,20.1 52.7,21.2 55.9,22.6 C57.7,23.3 59.4,24.2 60.9,25.3 C61.5,25.8 65.2,29.3 65.3,29.3 C64.9,29.4 65.1,30 65.4,29.9 Z"></path><path d="M46.6,18 C42.7,15.4 39.8,11.8 36.7,8.3 C34.2,5.5 31.2,2.2 27.6,0.8 C27.2,0.6 27,1.3 27.4,1.4 C31.6,3 34.9,7.2 37.7,10.5 C40.3,13.5 42.9,16.4 46.2,18.5 C46.7,18.8 47,18.2 46.6,18 Z"></path><path d="M46.5,18 C42.4,18 38.5,15.5 34.9,13.7 C31.4,12 27.8,10.9 24,10.1 C16.2,8.5 8.3,9.2 0.4,8.6 C0,8.6 0,9.2 0.4,9.2 C8.9,9.8 17.3,9.1 25.7,11.1 C29.9,12.1 33.6,13.8 37.4,15.6 C40.3,17 43.2,18.6 46.5,18.6 C46.9,18.6 46.9,18 46.5,18 Z"></path></g><g><g transform="translate(47.000000, 16.000000)"><path d="M5.3,10.1 C5.5,6.4 3.7,3.5 1.5,0.8 C0.6,3.4 2.3,9.1 5.3,10.1" fill="#757552"></path><path d="M5.6,10.1 C5.7,6.4 4,3.4 1.7,0.5 C1.5,0.3 1.2,0.4 1.2,0.6 C0.2,3.9 1.9,9 5.2,10.3 C5.6,10.5 5.8,9.8 5.4,9.7 C2.4,8.5 1,3.7 1.8,0.8 C1.6,0.8 1.4,0.9 1.3,0.9 C3.4,3.6 5.1,6.5 5,10 C5,10.5 5.6,10.5 5.6,10.1 Z" fill="#000000"></path></g><g transform="translate(60.000000, 22.000000)"><path d="M3.8,9.5 C4.9,6.6 3.8,2.9 1.4,1.1 C0.6,3.2 0.9,8 3.8,9.5" fill="#757552"></path><path d="M4.1,9.6 C5.2,6.5 4.2,3 1.6,0.9 C1.4,0.7 1.1,0.8 1.1,1 C0.1,3.9 0.8,8.2 3.6,9.8 C4,10 4.3,9.5 3.9,9.2 C1.3,7.7 0.8,3.8 1.6,1.1 C1.4,1.1 1.2,1.2 1.1,1.2 C3.5,3.2 4.5,6.4 3.4,9.3 C3.3,9.8 4,10 4.1,9.6 Z" fill="#000000"></path></g><g transform="translate(40.000000, 8.000000)"><path d="M1.3,9.7 C2.4,8.1 3.5,7.7 3.8,5.6 C3.9,3.9 3.7,1.8 2.5,0.5 C0.9,3.2 -0.3,6.4 1.4,9.4" fill="#757552"></path><path d="M1.6,9.9 C2.7,8.5 3.9,7.5 4.1,5.6 C4.3,3.8 3.9,1.8 2.8,0.4 C2.7,0.2 2.4,0.2 2.2,0.4 C0.5,3.3 -0.5,6.4 1.1,9.6 C1.3,10 1.8,9.6 1.7,9.3 C0.2,6.3 1.2,3.4 2.8,0.7 C2.6,0.7 2.4,0.7 2.2,0.7 C3.3,2.2 3.8,4.3 3.4,6.1 C3.1,7.5 1.9,8.4 1.1,9.6 C0.8,9.9 1.3,10.2 1.6,9.9 Z" fill="#000000"></path></g><g transform="translate(34.000000, 3.000000)"><path d="M1.1,7.7 C2.4,5.7 3.4,2.8 2.4,0.5 C0.6,1.3 -0.2,6 1.1,7.7" fill="#757552"></path><path d="M1.4,7.8 C2.8,5.6 3.7,2.9 2.8,0.4 C2.7,0.2 2.5,0.1 2.3,0.2 C1.42177936e-14,1.4 -0.6,5.8 0.8,7.8 C1,8.1 1.6,7.8 1.4,7.5 C0.2,5.8 0.7,1.8 2.6,0.8 C2.4,0.7 2.3,0.7 2.1,0.6 C2.9,3 2.1,5.5 0.8,7.5 C0.6,7.9 1.2,8.2 1.4,7.8 Z" fill="#000000"></path></g><g transform="translate(24.000000, 0.000000)"><path d="M5.7,7.3 C6,4.5 2.5,2.6 0.6,1.3 C-0.1,3.9 2.6,8.4 5.7,7.3" fill="#757552"></path><path d="M6,7.3 C6.2,4.2 2.9,2.5 0.7,1 C0.5,0.9 0.3,1 0.2,1.2 C-0.5,4.3 2.3,8.5 5.7,7.6 C6.1,7.5 5.9,6.9 5.5,7 C2.6,7.8 0.2,4 0.8,1.4 C0.6,1.5 0.5,1.5 0.3,1.6 C2.3,3 5.4,4.5 5.3,7.3 C5.4,7.8 6,7.8 6,7.3 Z" fill="#000000"></path></g><g transform="translate(25.000000, 9.000000)"><path d="M9.6,2.1 C7.6,-0.1 3.1,0.1 0.9,1.8 L0.9,1.9 C1.9,3.2 4.2,3.3 5.7,3.2 C7.1,3.1 8.4,1.9 9.6,2.1" fill="#757552"></path><path d="M9.8,1.9 C8.5,0.6 6.7,0.1 4.8,0.2 C3.9,0.2 0.8,0.6 0.5,1.7 C0.2,2.8 2.7,3.4 3.4,3.5 C4.1,3.6 5,3.6 5.7,3.6 C7,3.4 8.2,2.4 9.5,2.5 C9.9,2.5 9.9,1.9 9.5,1.9 C8.3,1.8 7.4,2.6 6.2,2.9 C5.1,3.2 2.4,3.3 1.6,2.3 C1.3,1.9 1.3,2.1 1.6,1.8 C1.8,1.6 2.4,1.4 2.7,1.3 C3.4,1.1 4.1,1 4.8,0.9 C6.4,0.8 8.1,1.2 9.3,2.4 C9.6,2.6 10.1,2.2 9.8,1.9 Z" fill="#000000"></path></g><g transform="translate(32.000000, 13.000000)"><path d="M6.7,8.2 C5.1,5.4 4.4,1.8 1.2,0.6 C0.4,3 4.7,7 6.7,8.2" fill="#757552"></path><path d="M6.9,8 C5.4,5.1 4.5,1.6 1.3,0.2 C1.1,0.1 0.9,0.2 0.8,0.4 C0.1,3.6 4.2,6.9 6.5,8.4 C6.8,8.6 7.2,8.1 6.8,7.8 C4.8,6.5 0.8,3.3 1.4,0.5 C1.2,0.6 1.1,0.6 0.9,0.7 C4,2.1 4.9,5.5 6.3,8.2 C6.6,8.7 7.1,8.4 6.9,8 Z" fill="#000000"></path></g><g transform="translate(22.000000, 11.000000)"><path d="M7.6,6 C6.7,4.1 6.8,2.4 0.4,0.4 C0.9,4.3 4.7,4.9 7.6,6" fill="#757552"></path><path d="M7.9,5.9 C7.4,4.9 7.1,3.8 6.3,3 C4.8,1.5 2.5,0.8 0.6,0.1 C0.3,0 0.2,0.3 0.2,0.5 C0.8,4.3 4.5,5.2 7.6,6.4 C8,6.5 8.2,5.9 7.8,5.8 C4.9,4.7 1.4,4 0.8,0.4 C0.7,0.5 0.5,0.7 0.4,0.8 C2.3,1.4 4.6,2.1 6,3.7 C6.7,4.5 7,5.4 7.4,6.3 C7.5,6.6 8.1,6.2 7.9,5.9 Z" fill="#000000"></path></g><g transform="translate(11.000000, 9.000000)"><path d="M5.9,6 C5.3,4.2 2.7,1.5 0.8,1.1 C0.2,3.6 3.9,5.6 5.9,6" fill="#757552"></path><path d="M6.2,5.9 C5.4,3.7 3.2,1.4 0.9,0.7 C0.7,0.7 0.5,0.8 0.5,0.9 C0,3.8 3.4,5.6 5.8,6.2 C6.2,6.3 6.4,5.7 6,5.6 C4.1,5.1 0.7,3.5 1.2,1.1 C1.1,1.2 0.9,1.3 0.8,1.3 C2.8,1.9 4.9,4 5.6,6 C5.7,6.5 6.3,6.3 6.2,5.9 Z" fill="#000000"></path></g><g transform="translate(52.000000, 31.000000)"><path d="M12.7,1.7 C9.5,0.2 3.7,0.1 0.5,2.2 C2.2,3.3 10.4,3.8 12.7,1.7" fill="#757552"></path><path d="M12.8,1.4 C9,-0.2 4,-0.2 0.4,1.9 C0.2,2 0.2,2.3 0.4,2.5 C2.1,3.5 4.7,3.5 6.7,3.5 C8.8,3.5 11.3,3.3 13,2 C13.3,1.7 12.9,1.3 12.5,1.5 C9.9,3.6 4.8,3.1 1.8,2.4 C0.4,2.1 1.6,2 2.6,1.7 C3.7,1.3 4.9,1.1 6,1.1 C8.3,1 10.6,1.3 12.7,2.1 C13,2.2 13.2,1.6 12.8,1.4 Z" fill="#000000"></path></g><g transform="translate(46.000000, 27.000000)"><path d="M11,1 C9.2,-0.5 1.8,2.4 0.8,4.5 C4.8,5.1 7.5,0.5 11,1" fill="#757552"></path><path d="M11.2,0.8 C9.7,-0.3 7.1,0.6 5.6,1.2 C3.8,1.8 1.6,2.8 0.6,4.5 C0.5,4.7 0.6,5 0.9,5 C4.8,5.3 7.3,1.1 11.1,1.5 C11.5,1.5 11.5,0.9 11.1,0.9 C7.2,0.6 4.8,4.7 0.9,4.4 C1,4.6 1.1,4.7 1.2,4.9 C2.1,3.4 4.2,2.5 5.8,1.9 C7.2,1.4 9.6,0.5 10.9,1.5 C11.2,1.5 11.5,1 11.2,0.8 Z" fill="#000000"></path></g><g transform="translate(44.000000, 35.000000)"><path d="M9.7,3.9 C7.8,1.6 3.6,0.4 0.7,0.8 C2,3.3 7.3,3.8 9.7,3.9" fill="#757552"></path><path d="M10,3.7 C7.8,1.2 4.1,0.2 0.8,0.5 C0.6,0.5 0.4,0.8 0.5,1 C2.2,3.9 6.8,4.1 9.7,4.3 C10.1,4.3 10.1,3.7 9.7,3.7 C7,3.5 2.5,3.4 1,0.8 C0.9,1 0.8,1.1 0.7,1.3 C3.8,1 7.3,1.9 9.4,4.3 C9.8,4.5 10.3,4 10,3.7 Z" fill="#000000"></path></g><g transform="translate(37.000000, 38.000000)"><path d="M8.4,2.7 C7,1.5 2.2,0.3 0.6,1.1 C2.1,3.6 6.1,3.4 8.4,2.7" fill="#757552"></path><path d="M8.7,2.5 C6.8,1 2.8,-0.1 0.5,0.9 C0.3,1 0.3,1.2 0.4,1.3 C2.1,4 5.9,3.8 8.6,3 C9,2.9 8.8,2.3 8.4,2.4 C6,3.1 2.5,3.4 1,1 C1,1.1 0.9,1.3 0.9,1.4 C2.9,0.5 6.7,1.6 8.3,2.9 C8.5,3.2 9,2.7 8.7,2.5 Z" fill="#000000"></path></g><g transform="translate(33.000000, 42.000000)"><path d="M8.5,1.1 C5.9,0.4 1.8,2.6 0.4,4.5 C4.7,5.6 5.2,2.2 8.5,1.1" fill="#757552"></path><path d="M8.6,0.8 C5.6,0.2 2,2 0.2,4.3 C0.1,4.5 0.1,4.8 0.3,4.8 C1.8,5.2 3.1,5.1 4.5,4.3 C6,3.4 7,2 8.7,1.4 C9.1,1.3 8.9,0.6 8.5,0.8 C7.3,1.2 6.3,2 5.4,2.8 C3.9,4.1 2.6,4.7 0.6,4.2 C0.6,4.4 0.7,4.6 0.7,4.7 C2.4,2.6 5.8,0.8 8.5,1.4 C8.8,1.5 9,0.8 8.6,0.8 Z" fill="#000000"></path></g><g transform="translate(56.000000, 38.000000)"><path d="M7.4,1 C4.5,1.9 1.4,4.2 1.1,7.3 C2.6,7.2 4.9,6.1 5.9,4.9 C7.1,3.7 6.9,2.4 7.4,1" fill="#757552"></path><path d="M7.3,0.7 C4.2,1.7 1.2,3.9 0.8,7.3 C0.8,7.5 1,7.6 1.1,7.6 C2.7,7.5 4.2,6.8 5.4,5.8 C7,4.5 7,2.9 7.6,1.1 C7.7,0.7 7.1,0.5 7,0.9 C6.4,2.4 6.5,3.9 5.2,5.1 C4.1,6.1 2.5,6.8 1.1,6.9 C1.2,7 1.3,7.1 1.4,7.2 C1.8,4.1 4.7,2.1 7.4,1.2 C7.9,1.2 7.7,0.6 7.3,0.7 Z" fill="#000000"></path></g><g transform="translate(42.000000, 39.000000)"><path d="M11.4,0.9 C9.4,0.9 7.9,2.3 6.2,3.4 C3.9,4.7 2.2,6.8 0.6,8.9 C3.1,9.3 5.5,8 6.9,6 C8.6,3.7 8.2,1.6 11.4,0.9" fill="#757552"></path><path d="M11.4,0.6 C9.1,0.7 7.3,2.2 5.4,3.5 C3.4,4.9 1.8,6.7 0.3,8.7 C0.1,8.9 0.4,9.2 0.6,9.2 C2.9,9.4 5,8.6 6.5,6.9 C8.4,4.9 8.5,2 11.5,1.2 C11.9,1.1 11.7,0.5 11.4,0.6 C9.4,1.1 8.6,2 7.8,3.7 C6.4,6.6 4.1,8.8 0.6,8.5 C0.7,8.7 0.8,8.8 0.9,9 C2.3,7.1 3.8,5.4 5.8,4 C7.5,2.8 9.4,1.3 11.5,1.2 C11.8,1.2 11.8,0.5 11.4,0.6 Z" fill="#000000"></path></g><g transform="translate(0.000000, 10.000000)"><path d="M7.3,5.4 C6.6,2.9 3.4,1.2 1.1,0.5 C0.9,2.6 5.5,5 7.3,5.4" fill="#757552"></path><path d="M7.6,5.3 C6.7,2.5 3.7,1 1.1,0.2 C0.9,0.1 0.7,0.3 0.7,0.5 C0.7,3.2 5,5.2 7.2,5.7 C7.6,5.8 7.8,5.2 7.4,5.1 C5.5,4.7 1.4,2.9 1.4,0.5 C1.3,0.6 1.1,0.7 1,0.8 C3.4,1.5 6.2,2.9 7,5.4 C7.1,5.8 7.7,5.7 7.6,5.3 Z" fill="#000000"></path></g><g transform="translate(37.000000, 23.000000)"><path d="M7.4,1.2 C4.7,0.8 1.3,3.4 0.4,5.9 C1.9,6.4 3.9,5.2 4.9,4.4 C5.9,3.5 6.3,1.9 7.4,1.2" fill="#757552"></path><path d="M7.4,0.9 C4.3,0.6 1.2,3.1 0.1,5.8 C1.42108547e-14,6 0.2,6.2 0.3,6.2 C1.8,6.5 3.3,5.9 4.5,5.1 C5.9,4.2 6.3,2.5 7.6,1.5 C7.9,1.2 7.5,0.8 7.1,1 C6.1,1.8 5.8,3 4.9,3.9 C3.9,5 1.9,5.9 0.4,5.6 C0.5,5.7 0.6,5.9 0.6,6 C1.6,3.5 4.5,1.3 7.3,1.5 C7.8,1.6 7.8,0.9 7.4,0.9 Z" fill="#000000"></path></g><g transform="translate(28.000000, 20.000000)"><path d="M9.8,1.2 C6.8,0.4 2.3,1.4 1,4.6 C5.4,5.9 5.9,0.8 9.8,1.2" fill="#757552"></path><path d="M9.9,0.9 C6.6,0.1 2.3,1 0.8,4.4 C0.7,4.6 0.8,4.8 1,4.9 C2.6,5.3 3.9,5.1 5.2,4.1 C6.7,2.9 7.7,1.4 9.8,1.6 C10.2,1.5 10.2,0.9 9.9,0.9 C6.2,0.7 4.9,5.3 1.1,4.3 C1.2,4.5 1.2,4.6 1.3,4.8 C2.7,1.7 6.6,0.8 9.7,1.6 C10.1,1.6 10.3,1 9.9,0.9 Z" fill="#000000"></path></g><g transform="translate(22.000000, 17.000000)"><path d="M9.4,1.7 C8.1,1.1 7.2,0.5 5.1,1.3 C3.3,2 1,3.7 0.8,5.8 C4,5.5 6.4,1.3 9.4,1.7" fill="#757552"></path><path d="M9.6,1.4 C7.8,0.5 6.3,0.3 4.4,1.3 C2.6,2.2 0.9,3.7 0.6,5.8 C0.6,6 0.7,6.2 0.9,6.2 C4.1,5.8 6.2,1.9 9.5,2.1 C9.9,2.1 9.9,1.5 9.5,1.5 C6.1,1.3 4.2,5.2 0.9,5.6 C1,5.7 1.1,5.9 1.2,6 C1.5,4.2 2.8,3 4.3,2.1 C6.1,1.1 7.5,1.2 9.3,2 C9.6,2.1 9.9,1.6 9.6,1.4 Z" fill="#000000"></path></g><g transform="translate(11.000000, 15.000000)"><path d="M7.6,0.7 C4.9,0.4 1.1,2.4 1.4,5.9 C3,5.4 4.2,4.6 5.3,3.3 C6.1,2.2 6,0.5 7.6,0.7" fill="#757552"></path><path d="M7.6,0.3 C4.4,0.1 0.9,2.4 1,5.8 C1,6 1.2,6.2 1.4,6.1 C2.7,5.7 3.9,5 5,4 C5.4,3.6 5.8,3.2 6,2.6 C6.4,1.8 6.5,0.9 7.6,0.9 C8,1 8,0.3 7.6,0.3 C6.5,0.3 6.1,0.9 5.6,1.9 C4.8,3.7 3.1,4.9 1.2,5.5 C1.3,5.6 1.5,5.7 1.6,5.8 C1.5,2.7 4.6,0.7 7.5,0.9 C8,1 8,0.4 7.6,0.3 Z" fill="#000000"></path></g></g></g><g transform="translate(46.000000, 16.000000)" id="Path"><g><path d="M9.3,7.2 C9.4,3.4 2.6,1.8 0.5,1 C1.2,4.2 4.9,6.7 7.9,7.4 C6.2,9.2 7.8,12.2 6.4,14.1 C8.6,12.7 9.2,9.5 9.3,7.2 Z" fill="#A6AD77"></path><path d="M9.6,7.2 C9.4,2.9 3.7,1.9 0.6,0.7 C0.4,0.6 0.1,0.9 0.2,1.1 C1,3.8 3.1,5.8 5.6,7 C6.9,7.6 7.3,7.3 6.9,8.8 C6.5,10.6 7.1,12.3 6.1,14 C5.9,14.3 6.3,14.6 6.5,14.4 C8.9,12.6 9.5,9.9 9.6,7.2 C9.6,6.8 9,6.8 9,7.2 C8.9,9.7 8.4,12.3 6.3,13.8 C6.4,13.9 6.6,14.1 6.7,14.2 C7.9,12.1 6.8,9.5 8.2,7.5 C8.3,7.3 8.2,7.1 8,7 C6.1,6.5 4.2,5.5 2.8,4.1 C2.5,3.8 0.8,1.3 0.7,1.3 C0.8,1.2 1.8,1.7 2,1.8 C4.5,2.7 8.8,3.9 9,7.2 C9,7.6 9.6,7.6 9.6,7.2 Z" fill="#000000"></path></g><path d="M6.6,5.3 C5.5,5.2 4.6,4.5 3.8,3.8 C3.5,3.5 3,4 3.3,4.3 C4.3,5.1 5.3,5.8 6.6,6 C7,6 7,5.4 6.6,5.3 Z" fill="#000000"></path></g><g transform="translate(65.000000, 17.000000)" id="Path"><path d="M25.6,11.3 C26,11.3 26.4,11.3 26.6,11.2 C27.5,10.9 28.5,9.9 27.1,9.5 C26.2,9.2 25.6,10 24.8,9.9 C24.4,9.9 23.8,9.9 22.7,9.6 C22.4,9.4 22,9.2 21.8,9.1 C20.7,8.5 19.5,7.9 18.3,7.4 C19.2,7.3 20.1,7.2 20.3,7 C20.9,6.7 22.4,5.5 21.1,5.2 C20.2,5 19.3,5.4 18.4,5.7 C17.9,5.8 16.6,6.2 15.9,6.3 C14,5.6 12.1,4.9 10.2,4.4 C9.8,4.3 9.1,4.2 8.4,4 C8.9,3.8 9.4,3.5 10,3.2 C10.6,2.9 12.7,3.2 12.5,2.1 C12.3,1.2 10.7,1.7 9.8,1.8 C8.9,1.9 8.4,2.4 7.5,2.6 C6.6,2.8 5.9,3.6 5.9,3.6 C4.7,3.5 3.4,3.4 2.4,3.4 C2.1,2.9 2.2,2.6 2.2,2.1 C2.2,1.6 2.9,0.9 2.1,0.7 C1.2,0.4 0.7,1.7 0.7,2.8 C0.7,3.1 0.8,3.5 1.1,3.7 C1.1,3.7 1.1,3.7 1.1,3.7 C-0.1,4.2 2,4.5 3.7,4.7 C3.7,4.8 3.7,4.8 3.7,4.9 C4.3,6.6 6.5,9.4 8,9.6 C9.8,9.8 8.4,8.5 7.4,7.7 C6.5,6.8 6.2,5.9 5.6,5 C7.3,5.2 8.9,5.6 10.5,6 C10.8,6.9 12.5,8.4 13,8.9 C14,9.8 15.2,11.4 15.4,11.3 C16.2,10.7 15.1,9.6 14.7,9 C14.5,8.8 13.8,7.7 12.9,6.8 C14.3,7.3 15.8,7.9 17.3,8.5 C17.8,8.7 18.3,8.9 18.8,9.2 C18.8,9.3 18.9,9.5 19,9.6 C20.7,10.8 21.4,14.1 22.3,13.9 C23.2,13.7 22.6,12.9 22.1,11.6 C22,11.3 21.8,11 21.6,10.6 C22.7,11.2 23.8,11.9 25,12.6 C26.1,14.6 27,16.1 28.2,18.2 C28.7,19.1 29,17.7 29,17.2 C28.9,16.5 28.5,15.8 28.2,15.2 C28.1,15 27.9,14.7 27.7,14.3 C28.2,14.6 28.8,15 29.3,15.3 C29.6,15.5 30.7,16.2 30.8,15.1 C30.6,14.5 28.2,12.8 25.6,11.3 Z" fill="#78A017"></path><path d="M25.6,11.6 C26.6,11.6 28.8,10.9 27.8,9.5 C27.1,8.6 25.5,9.5 24.8,9.5 C22.7,9.7 20.3,7.9 18.5,7.1 C18.4,7.3 18.4,7.5 18.3,7.7 C19.4,7.6 21.1,7.5 21.7,6.3 C22.1,5.6 21.9,5.2 21.2,4.9 C19.8,4.3 18,5.8 16.6,5.9 C15.2,6 13.7,5.2 12.4,4.8 C11.1,4.4 9.8,4 8.5,3.8 C8.5,4 8.6,4.2 8.6,4.4 C9.5,4 10.2,3.7 11.2,3.5 C11.5,3.4 11.9,3.5 12.2,3.3 C12.5,3.1 12.8,3 12.9,2.6 C13.3,1 10.6,1.5 9.9,1.6 C8.9,1.8 7.7,2.2 6.9,2.7 C7,2.7 6,3.4 5.9,3.4 C5.5,3.5 3.5,3.4 3.3,3.3 C2.5,2.7 3.6,0.1 1.7,0.6 C1.2,0.7 1,1.3 0.8,1.6 C0.7,1.8 0.5,2.7 0.5,3 C0.2,2 1.1,4.9 1,3.6 C1,4.2 -0.1,4 1,4.8 C1.6,5.2 2.9,4.9 3.3,5.2 C3.9,5.7 4.5,7.3 5,8 C5.8,9 7.5,10.8 8.9,10 C9,9.9 9.1,9.8 9.1,9.7 C9.1,9.2 8.9,9.1 8.6,8.7 C7.7,7.4 6.6,6.4 5.8,5 C5.7,5.2 5.6,5.3 5.4,5.5 C6.8,5.7 8.7,5.8 9.9,6.6 C10.7,7.1 11.3,8.1 12,8.7 C12.8,9.5 14.1,11.6 15.2,11.8 C15.3,11.8 15.5,11.8 15.6,11.7 C16.6,10.2 13.9,7.9 13,6.8 C12.9,7 12.8,7.2 12.7,7.3 C15.1,8.2 18.1,8.9 19.7,11.2 C20.3,12 20.7,13.9 21.7,14.3 C24,15.3 22.2,11.3 21.9,10.7 C21.8,10.8 21.6,11 21.5,11.1 C23.6,12.3 24.9,13.3 26.1,15.4 C26.7,16.5 27.3,18 28.2,18.9 C28.3,19 28.5,19 28.6,19 C30.3,18.1 28.5,15.4 27.9,14.4 C27.8,14.5 27.6,14.7 27.5,14.8 C28.1,15.2 30.9,17.5 31.1,15.4 C31.3,13.7 26.9,11.7 25.9,11.1 C25.5,10.9 25.2,11.4 25.6,11.7 C26.6,12.3 28.8,13.3 29.5,14.3 C30.7,16 28.6,14.7 27.8,14.2 C27.5,14 27.2,14.4 27.4,14.6 C27.6,15 29,17.6 28,17.4 C27.7,17.3 26.4,14.6 26.2,14.3 C25.9,13.7 25.6,12.9 25.1,12.5 C24.2,11.7 22.7,11.1 21.7,10.5 C21.4,10.3 21.1,10.7 21.3,10.9 C21.4,11.1 22.4,12.8 22.3,13 C21.7,13.7 21.2,12.3 21.1,12.1 C20.6,11.4 20.2,10.6 19.7,9.9 C18.2,8 15.1,7.3 12.9,6.5 C12.6,6.4 12.4,6.8 12.6,7 C13.2,7.7 13.8,8.4 14.3,9.2 C14.1,8.9 15.6,10.9 15.1,10.8 C14.4,10.7 13.2,8.7 12.6,8.2 C11.9,7.5 11.2,6.2 10.5,5.7 C9.3,4.9 6.9,4.8 5.5,4.6 C5.2,4.6 5,4.8 5.1,5.1 C5.5,5.8 5.9,6.6 6.4,7.2 C6.8,7.7 8.1,8.5 7.4,8.8 C6.4,9.2 3.6,5.9 3.7,4.7 C3.7,4.5 3.5,4.4 3.4,4.4 C3.6,4.4 1.2,3.9 1,4 C1.2,3.9 1.3,3.7 1.2,3.5 C1.8,1.5 2,1 1.8,1.8 C1.8,1.9 1.7,2 1.7,2.1 C1.8,2.5 1.8,3.1 1.9,3.5 C1.9,3.6 2.1,3.7 2.2,3.7 C3.3,3.7 4.8,4.1 5.8,3.8 C6.6,3.6 7.4,2.8 8.3,2.5 C8.9,2.3 9.5,2.1 10.2,2 C11,1.6 11.3,1.6 11.3,2.2 C11.5,2.7 11.2,2.8 10.5,2.7 C9.7,3 8.9,3.3 8.1,3.6 C7.9,3.7 7.9,4.1 8.2,4.2 C9.5,4.5 10.8,4.8 12.1,5.2 C13.2,5.5 14.7,6.5 15.8,6.5 C16.5,6.5 17.3,6.2 18,6 C18.3,5.9 19.5,5.4 19.7,5.4 C19.9,5.7 20.1,6 20.4,6.4 C19.7,6.7 19,6.9 18.2,6.9 C17.9,6.9 17.7,7.4 18,7.5 C19.8,8.3 21.6,9.6 23.5,9.9 C24,10 24.5,10 25,10 C25,10 25.7,9.9 25.7,9.9 C26.4,10 27.9,10.8 25.6,10.8 C25.2,11 25.2,11.6 25.6,11.6 Z" fill="#000000"></path></g><g transform="translate(95.000000, 31.000000)" id="Path"><path d="M3.2,3 C4.1,2.1 1.9,0.5 0.9,1.3 C-0.5,2.4 2.1,4.2 3.2,3 Z" fill="#F29C9C"></path><path d="M3.4,3.2 C4.6,1.7 1.6,-0.2 0.4,1.3 C-0.2,2 0.3,2.9 1,3.3 C1.7,3.8 2.7,3.9 3.4,3.2 C3.7,2.9 3.2,2.4 2.9,2.7 C2.5,3.1 1.9,3.1 1.4,2.8 C1,2.6 0.6,2.2 0.8,1.7 C1.4,0.7 3.4,1.9 2.9,2.7 C2.7,3.1 3.1,3.5 3.4,3.2 Z" fill="#000000"></path></g><g transform="translate(92.000000, 34.000000)" id="Path"><path d="M2.3,1.2 C2,0.2 1,0.4 0.6,1.3 C-0.2,3 3.2,3.9 2.3,1.2 Z" fill="#F29C9C"></path><path d="M2.7,1.1 C2.3,0 1.2,0 0.6,0.9 C0.2,1.5 0.1,2.3 0.7,2.8 C1.1,3.2 1.8,3.4 2.3,3.1 C2.9,2.7 2.9,1.8 2.7,1.1 C2.6,0.7 2,0.9 2.1,1.3 C2.2,1.6 2.4,2.2 2,2.5 C1.8,2.7 1.5,2.6 1.3,2.5 C1,2.4 0.9,2.1 0.9,1.8 C1,1.2 1.8,0.5 2.1,1.3 C2.2,1.7 2.8,1.5 2.7,1.1 Z" fill="#000000"></path></g><g transform="translate(85.000000, 29.000000)" id="Path"><path d="M3.8,3.2 C3.3,2.1 1.8,0.4 0.9,1.9 C-0.4,4.3 5.5,6.6 3.8,3.2 Z" fill="#F29C9C"></path><path d="M4,3 C3.6,2.2 2.6,0.7 1.4,1 C0.5,1.2 0.2,2.3 0.4,3.1 C0.7,4.2 2.6,5.7 3.8,5.1 C4.7,4.7 4.4,3.6 4,3 C3.8,2.6 3.3,3 3.4,3.3 C3.6,3.7 4,4.5 3.3,4.5 C2.7,4.5 2.1,4.2 1.7,3.8 C1.2,3.4 0.8,2.8 1.1,2.2 C1.7,0.6 3.1,2.6 3.5,3.3 C3.7,3.7 4.2,3.4 4,3 Z" fill="#000000"></path></g><g transform="translate(91.000000, 25.000000)" id="Path"><path d="M3.4,2.3 C3.3,1 1.2,0 1,1.9 C0.8,4.1 3.5,5 3.4,2.3 Z" fill="#F29C9C"></path><path d="M3.8,2.3 C3.7,1.4 3,0.5 2,0.5 C0.9,0.5 0.6,1.7 0.8,2.6 C1,3.4 1.6,4.2 2.5,4.2 C3.5,4.3 3.8,3.2 3.8,2.3 C3.8,1.9 3.1,1.9 3.2,2.3 C3.2,2.8 3.2,3.6 2.5,3.6 C2,3.6 1.6,3.1 1.5,2.6 C1.4,2.1 1.4,1.1 2.1,1.1 C2.7,1.1 3.2,1.7 3.2,2.2 C3.1,2.7 3.8,2.7 3.8,2.3 Z" fill="#000000"></path></g><g transform="translate(78.000000, 27.000000)" id="Path"><path d="M3.6,1.7 C3,0.4 1.7,0.5 1.2,1.9 C0.4,4.5 5,4.9 3.6,1.7 Z" fill="#F29C9C"></path><path d="M3.9,1.6 C3.5,0.8 2.6,0.2 1.7,0.7 C1,1.2 0.6,2.2 0.8,3 C1.1,4.1 2.7,4.8 3.7,3.9 C4.4,3.3 4.2,2.4 3.9,1.6 C3.8,1.3 3.2,1.5 3.3,1.8 C3.5,2.3 3.8,3.1 3.3,3.5 C3,3.8 2.4,3.7 2.1,3.5 C1.6,3.2 1.4,2.7 1.5,2.2 C1.6,1.8 1.9,1.3 2.3,1.1 C2.8,1 3.2,1.5 3.4,1.9 C3.5,2.3 4,1.9 3.9,1.6 Z" fill="#000000"></path></g><g transform="translate(71.000000, 25.000000)" id="Path"><path d="M3.6,1.6 C3.5,0.3 1.5,-0.1 0.8,1.3 C0.3,2.4 1.2,3.6 2.4,3.6 C3.7,3.7 3.7,2.8 3.6,1.6 Z" fill="#F29C9C"></path><path d="M3.9,1.6 C3.8,0.7 3,0.1 2.1,0.1 C1,0.1 0.2,1.1 0.4,2.2 C0.6,3.4 1.8,4.1 2.9,3.9 C4,3.7 4,2.5 3.9,1.6 C3.9,1.2 3.2,1.2 3.3,1.6 C3.3,2.1 3.5,2.9 3,3.2 C2.3,3.6 1.2,3 1,2.2 C0.6,0.6 3.1,0.1 3.3,1.5 C3.3,2 4,2 3.9,1.6 Z" fill="#000000"></path></g><g transform="translate(76.000000, 18.000000)" id="Path"><path d="M3.4,1.5 C3,0.3 0.7,-0.1 0.7,1.8 C0.8,4 4.3,3.8 3.4,1.5 Z" fill="#F29C9C"></path><path d="M3.8,1.4 C3.5,0.5 2.5,-0.1 1.5,0.2 C0.4,0.5 0.2,1.8 0.7,2.7 C1.1,3.5 2,3.9 2.9,3.6 C3.8,3.3 4.1,2.3 3.8,1.4 C3.7,1 3,1.2 3.2,1.6 C3.4,2.1 3.4,2.8 2.8,3 C2.3,3.2 1.7,3 1.4,2.5 C1.1,2 1.1,1 1.7,0.8 C2.3,0.6 3,1 3.2,1.6 C3.3,1.9 3.9,1.8 3.8,1.4 Z" fill="#000000"></path></g><g transform="translate(85.000000, 20.000000)" id="Path"><path d="M3,3 C3.6,2.1 2.7,0.9 1.7,1.2 C-0.4,1.7 1.5,5.1 3,3 Z" fill="#F29C9C"></path><path d="M3.3,3.1 C3.9,2.2 3.3,1 2.3,0.8 C1.5,0.7 0.6,1.2 0.5,2 C0.4,2.7 0.7,3.4 1.3,3.8 C2,4.3 2.8,3.8 3.3,3.1 C3.5,2.8 3,2.4 2.7,2.8 C2.4,3.2 2,3.5 1.6,3.2 C1.3,3 1.1,2.6 1.1,2.3 C1.1,1.9 1.4,1.6 1.8,1.5 C2.6,1.3 3.2,2.1 2.8,2.8 C2.5,3.2 3.1,3.5 3.3,3.1 Z" fill="#000000"></path></g><g transform="translate(66.000000, 16.000000)" id="Path"><path d="M4,1.2 C4.1,0.1 1.8,0.2 1.3,1 C0.2,2.3 3.6,4.7 4,1.2 Z" fill="#F29C9C"></path><path d="M4.3,1.2 C4.4,-0.7 0,-0.1 0.8,2.1 C1.1,2.8 1.8,3.4 2.6,3.4 C3.8,3.3 4.2,2.1 4.3,1.2 C4.4,0.8 3.7,0.8 3.7,1.2 C3.6,1.8 3.4,2.7 2.7,2.7 C2.2,2.7 1.8,2.4 1.6,2 C0.8,0.6 3.8,0.3 3.8,1.2 C3.6,1.6 4.3,1.6 4.3,1.2 Z" fill="#000000"></path></g><g transform="translate(50.000000, 10.000000)" id="Path"><g><path d="M4.3,11.7 C5,10.3 2,9.6 1.4,8.1 C0.4,5.8 1.2,4.1 3.8,4.4 C4.7,1.3 7.8,-1.77635684e-15 10.5,2.3 C11.5,3.2 11.6,4.4 12.2,5.6 C12.7,6.7 13.7,7.4 14.5,8.3 C16.1,10.4 19.5,13.2 17.9,16.2 C17.1,17.8 15.5,17 14.2,17.4 C12.6,17.9 11.9,19.5 10.4,20.2 C7.5,21.5 3.6,17.7 4.8,14.8 C4,14.3 4,12.3 4.3,11.7 Z" fill="#F29C9C"></path><path d="M4.6,11.8 C4.8,11 4.5,10.6 3.9,10 C3.5,9.6 2.9,9.3 2.5,8.9 C2,8.4 1.4,7.7 1.4,6.9 C1.4,5.9 2.8,4.7 3.8,4.8 C3.9,4.8 4.1,4.7 4.1,4.6 C5.4,0.7 9.5,0.8 11.3,4.4 C11.8,5.3 12.1,6.2 12.8,7.1 C14.6,9.3 21.6,15.4 15.6,17.1 C14.4,17.4 13.9,17.1 12.7,17.9 C11.1,19.1 10.1,20.8 7.8,20 C5.4,19.1 5,17.2 5,15 C5.1,13.7 4.2,13 4.6,11.8 C4.7,11.4 4.1,11.2 4,11.6 C3.5,13 4.1,14.2 4.2,15.6 C4.4,17.5 5,19 6.7,20.1 C8.1,21 9.7,21.1 11.1,20.1 C11.7,19.7 12.1,19.2 12.6,18.7 C13.6,17.8 14.6,17.8 15.9,17.5 C16.6,17.4 17.2,17.4 17.7,16.8 C19.2,15.4 18.6,13.1 17.7,11.6 C16,8.8 13.3,7 12,4 C11.2,2.3 10,0.8 8,0.7 C7.2,0.7 6.4,0.9 5.7,1.3 C4.8,1.9 4.6,2.8 3.9,3.5 C2.8,4.5 1,3.9 0.8,6 C0.7,6.8 1,7.9 1.5,8.5 C2.1,9.3 4.5,10.3 4.1,11.4 C3.9,12 4.5,12.2 4.6,11.8 Z" fill="#000000"></path></g><path d="M5.6,9.9 C5.6,7 9.7,6.7 11.2,8.7 C11.6,9.3 11.9,9.9 12.4,10.5 C13.5,11.6 15,12.7 13.6,14.6 C13.4,14.9 13.9,15.3 14.2,14.9 C15.3,13.4 15,12.1 13.8,10.8 C13.1,10.1 12.5,9.5 12,8.7 C11.6,8.1 11.3,7.6 10.7,7.3 C8.5,6.1 5,7.1 5.1,9.9 C4.9,10.3 5.6,10.3 5.6,9.9 Z" fill="#000000"></path><path d="M9.6,11.9 C10.3,13.7 10.1,15.4 8.5,16.6 C8.2,16.8 8.5,17.4 8.8,17.2 C10.6,15.8 11,13.9 10.2,11.8 C10,11.3 9.4,11.5 9.6,11.9 Z" fill="#000000"></path><path d="M7.3,5.9 C7.4,4.7 6.1,4.1 5.1,4.2 C4.7,4.2 4.7,4.9 5.1,4.8 C5.8,4.7 6.7,4.9 6.7,5.8 C6.6,6.3 7.3,6.3 7.3,5.9 Z" fill="#000000"></path></g><g transform="translate(41.000000, 22.000000)" id="Path"><path d="M1.2,6.9 C0.9,7.2 1.3,7.3 1.4,7.9 C2.7,7.6 2.7,6.7 3.7,5.9 C4.8,5.2 6.1,3.5 7.3,3 C8.2,2.6 14.3,1.2 12.7,0.7 C8.7,0.2 3.2,3.5 1.2,6.9 Z" fill="#78A017"></path><path d="M0.9,6.7 C0.6,7.3 0.8,7.2 1.1,7.9 C1.2,8.1 1.3,8.2 1.5,8.1 C2.8,7.6 3.3,6.6 4.4,5.7 C5.7,4.6 6.8,3.4 8.5,2.8 C9.3,2.5 13.2,2 13.4,0.9 C13.7,-0.7 9.5,0.5 9,0.7 C5.7,1.8 2.7,3.9 0.9,6.7 C0.7,7.1 1.2,7.4 1.5,7 C3.1,4.4 5.9,2.5 8.7,1.5 C9.2,1.3 12.4,0.4 12.5,0.8 C12.6,0.9 10.1,1.7 10,1.7 C8.7,2.1 7.3,2.3 6.2,3.2 C5.3,3.9 4.3,4.8 3.5,5.6 C3.4,5.7 1,8.1 1.5,7 C1.6,6.7 1.1,6.3 0.9,6.7 Z" fill="#000000"></path></g><g transform="translate(27.000000, 19.000000)" id="Path"><path d="M5.6,20.6 C8,20.8 8.9,21.6 11.3,21.6 C14.8,21.5 19.2,17 19.2,15.8 C19.1,14.5 15.9,15.2 15,15.5 C16.8,14.5 18.4,12 18.7,9.9 C19.1,7.1 16.7,7.7 15,9 C17.3,6.8 17.1,3.3 17,0.4 C13.7,1.2 10.9,3.4 8.8,6 C8.7,5 9.1,4.2 9.4,3.3 C6.9,3.7 4.2,8 3.7,10.4 C3.7,9.5 3.7,8.7 3.9,7.9 C-1.4,10.9 -0.4,20.1 5.6,20.6 Z" fill="#516B43"></path><path d="M5.6,21 C8.4,21.4 10.9,22.6 13.7,21.4 C15.6,20.6 17.4,19.2 18.6,17.5 C21,14.4 17,14.5 14.9,15.2 C15,15.4 15.1,15.6 15.1,15.8 C17.1,14.5 19.5,11.5 18.9,8.9 C18.4,6.7 15.9,7.9 14.7,8.7 C14.8,8.9 15,9 15.1,9.2 C17.4,6.7 17.3,3.6 17.2,0.4 C17.2,0.2 17,7.10542736e-15 16.8,0.1 C13.4,1 10.7,3.1 8.5,5.8 C8.7,5.9 8.9,6 9.1,6 C9.1,5 9.3,4.3 9.7,3.4 C9.8,3.2 9.5,2.9 9.3,3 C6.2,3.8 4.2,7.5 3.3,10.3 C3.5,10.3 3.7,10.4 3.9,10.4 C3.9,9.6 4,8.8 4.1,7.9 C4.1,7.7 3.8,7.5 3.6,7.6 C-1.4,10.9 -1.1,20 5.6,21 C5.9,21 6.1,20.4 5.7,20.4 C2.7,20 0.9,17.5 0.8,14.5 C0.7,13.2 1,11.9 1.6,10.7 C1.9,10.2 2.2,9.4 2.7,9.1 C3.8,8.5 3.3,9.3 3.2,10.4 C3.2,10.8 3.7,10.8 3.8,10.5 C4.3,8.6 5.4,6.8 6.7,5.3 C6.9,5.1 8.4,3.5 8.7,3.8 C8.7,3.8 8.3,5.7 8.3,5.9 C8.3,6.2 8.7,6.3 8.9,6.1 C9.7,5.1 10.6,4.1 11.6,3.3 C12.2,2.8 15.3,0.3 16.2,0.8 C16.9,1.2 16.6,2.6 16.6,3.4 C16.5,5.4 16.1,7.1 14.7,8.6 C14.5,8.9 14.8,9.3 15.1,9.1 C15.5,8.8 16,8.4 16.6,8.3 C17.7,8.2 18.3,10 18.1,11 C17.8,12.7 16.2,14.3 14.9,15.1 C14.6,15.3 14.8,15.8 15.1,15.7 C16,15.4 18.9,14.6 18.5,16.5 C18.3,17.6 16,19.2 15.1,19.7 C11.8,21.9 9.1,20.7 5.6,20.2 C5.2,20.3 5.2,20.9 5.6,21 Z" fill="#000000"></path></g><path d="M40.9,23.6 C39.3,25.4 37.3,26.9 35.9,28.8 C34.4,30.8 33.5,33.3 32.9,35.7 C32.8,36.1 33.4,36.3 33.5,35.9 C34.1,33.4 35,30.9 36.6,28.9 C38,27.1 39.8,25.7 41.3,24.1 C41.6,23.7 41.1,23.3 40.9,23.6 Z" id="Path" fill="#000000"></path><path d="M34,26.8 C34,28.2 33.8,29.6 33.9,31 C33.9,31.4 34.6,31.4 34.5,31 C34.3,29.6 34.5,28.2 34.6,26.8 C34.7,26.4 34.1,26.4 34,26.8 Z" id="Path" fill="#000000"></path><path d="M41.4,30.5 C39.2,31.1 37.1,32 34.8,32 C34.4,32 34.4,32.6 34.8,32.6 C37.2,32.7 39.3,31.8 41.6,31.1 C42,31 41.8,30.4 41.4,30.5 Z" id="Path" fill="#000000"></path><g transform="translate(0.000000, 46.000000)" id="Path"><path d="M2.6,26.6 C2.4,28.3 3.3,29.9 5.1,28.3 C7.2,26.6 7.2,22.4 8.7,20.2 C10.9,17 15,14.8 14.5,10.2 C13.9,12 13.5,13.6 12.1,15.1 C10.8,16.5 9.3,17.4 8.3,19.2 C8.6,17.9 8.8,16.6 9.3,15.4 C10.4,12.9 12.3,10.9 13.6,8.6 C14.9,6 14.5,3.3 14,0.6 C13.9,3.9 13.8,6.6 12,9.5 C11.1,11.1 9.6,13 9,14.8 C9.3,14.2 9.4,13.4 9.5,12.7 C9.9,9.2 9.7,5 8.3,1.7 C8.8,3.6 8.8,5.7 8.7,7.8 C8.6,10.9 8.2,14 7.4,17 C6.6,19.9 4.5,23 4.6,26 C4.5,24.6 4.2,23.3 4.1,22 C4,19.3 4.6,17 5.2,14.5 C5.8,12.5 6.9,8.9 5.3,7.2 C5.1,10.7 3.1,13.9 3.1,17.3 C2.6,16.5 2.4,15.5 2.4,14.6 C2.1,12.6 2,10.6 1.7,8.5 C1.4,6.6 0.6,4.8 0.3,2.9 C0.2,5.8 -0.1,8.9 0.2,11.8 C0.5,14.9 2.2,17.6 2.3,20.8 C2.5,22.8 2.7,24.7 2.6,26.6 Z" fill="#757552"></path><path d="M2.3,26.6 C2.2,28.1 2.7,29.8 4.5,29.1 C6.3,28.4 7,25.9 7.4,24.2 C7.9,22.7 8.3,21.2 9.3,19.9 C10.2,18.7 11.3,17.8 12.2,16.7 C13.9,14.8 14.9,12.8 14.7,10.2 C14.7,9.8 14.2,9.8 14.1,10.1 C13.3,12.4 12.6,14.2 10.8,15.8 C9.7,16.8 8.7,17.7 8,19 C8.2,19.1 8.4,19.2 8.6,19.2 C9.1,17.1 9.6,15.2 10.8,13.4 C11.7,11.9 12.9,10.6 13.8,9 C15.3,6.3 15,3.4 14.5,0.4 C14.4,-7.10542736e-15 13.9,0.1 13.9,0.5 C13.8,3.4 13.6,6.2 12.2,8.9 C11.1,10.9 9.8,12.6 9,14.7 C8.9,15.1 9.5,15.3 9.6,14.9 C11.2,11 10.5,5.5 8.9,1.7 C8.7,1.3 8.2,1.5 8.3,1.9 C9.3,6.3 8.7,11.7 7.6,16 C6.7,19.4 4.6,22.4 4.6,25.9 C4.8,25.9 5,25.9 5.2,25.9 C5,24 4.6,22.1 4.8,20.1 C4.9,18 5.5,16 6,13.9 C6.6,11.6 7.4,8.9 5.9,6.9 C5.7,6.6 5.3,6.7 5.3,7.1 C4.9,10.6 3.2,13.7 3.1,17.2 C3.3,17.1 3.5,17.1 3.7,17 C2.5,14.6 2.7,11.5 2.4,8.9 C2.1,6.8 1.3,4.9 0.9,2.8 C0.8,2.4 0.3,2.5 0.3,2.9 C0.2,6.5 -0.3,10.3 0.6,13.9 C1.1,15.7 1.8,17.4 2.1,19.2 C2.3,21.6 2.3,24.2 2.3,26.6 C2.3,27 2.9,27 2.9,26.6 C2.9,22.6 2.6,19.1 1.4,15.4 C0.1,11.3 0.5,7.2 0.6,3 C0.4,3 0.2,3.1 0,3.1 C0.5,6 1.4,8.7 1.7,11.6 C1.9,13.6 2,15.6 2.8,17.5 C2.9,17.8 3.4,17.6 3.4,17.3 C3.6,13.8 5.3,10.7 5.6,7.2 C5.4,7.3 5.2,7.3 5,7.4 C6.9,10.1 4.9,14.1 4.3,16.9 C3.6,20.1 3.9,22.9 4.2,26.1 C4.2,26.5 4.8,26.5 4.8,26.1 C4.8,23.7 5.9,21.6 6.8,19.4 C7.6,17.5 8.1,15.6 8.4,13.6 C9,9.8 9.4,5.6 8.6,1.8 C8.4,1.9 8.2,1.9 8,2 C9.5,5.7 10.2,11.1 8.7,14.9 C8.9,15 9.1,15 9.3,15.1 C10.3,12.5 12.2,10.5 13.2,8 C14.1,5.7 14.2,3.3 14.3,0.8 C14.1,0.8 13.9,0.9 13.7,0.9 C14.1,2.9 14.5,5.1 13.9,7.1 C13.4,8.8 12.3,10.2 11.3,11.6 C9.5,14.1 8.6,16.3 7.9,19.3 C7.8,19.7 8.3,19.9 8.5,19.5 C9.6,17.6 11.5,16.6 12.8,14.8 C13.8,13.5 14.2,11.9 14.7,10.4 C14.5,10.4 14.3,10.3 14.1,10.3 C14.4,14.6 11,16.7 8.7,19.7 C7.8,20.9 7.4,22.1 6.9,23.5 C6.7,24.3 6.4,25.1 6.1,25.9 C5.9,26.6 5.5,27.2 5.1,27.8 C3.3,28.2 2.6,27.8 2.8,26.7 C3,26.2 2.3,26.2 2.3,26.6 Z" fill="#000000"></path></g><path d="M164.9,71.8 C163.4,68.7 160.7,66.2 158.2,64.1 C155.1,61.8 151.2,59.4 147.9,57.5 C145.6,56.2 145,54.1 143.2,52.1 C142.5,56.2 147.6,59 150.4,60.5 C152.2,61.5 155.5,63.9 157.2,65.3 C159.3,67.2 161.2,68.2 162.6,70.6 C163.3,71.7 163.8,73.7 165.2,73.8 C166.3,73.9 165.5,73.1 164.9,71.8 Z" id="Path" stroke="#000000" stroke-width="0.6447" fill="#A6AD77"></path><g transform="translate(147.000000, 62.000000)" id="Path"><g><path d="M3.6,8.4 C5.7,7.7 7.1,8.8 7,6.8 C11,5.8 10.7,-0.1 6.2,1.8 C5,-0.7 1.4,2.2 3,4 C-0.7,4.9 0.3,9.4 3.6,8.4 Z" fill="#3ADBC4"></path><path d="M3.7,8.8 C4.6,8.6 6.5,8.9 7.1,8.1 C7.3,7.8 7.2,7.3 7.4,7.1 C7.6,6.8 8.4,6.7 8.7,6.4 C10,5.4 10.8,3.2 9.6,1.9 C9,1.3 8.2,1.1 7.3,1.2 C7.1,1.2 6.6,1.5 6.5,1.4 C6.3,1.4 6.2,1.1 6,1 C5.7,0.8 5.3,0.6 5,0.6 C3.1,0.5 1.7,2.8 2.9,4.3 C2.9,4.1 3,3.9 3,3.8 C1.5,4.2 0.1,5.4 0.4,7.1 C0.7,8.6 2.2,9.1 3.7,8.8 C4.1,8.7 3.9,8.1 3.5,8.2 C2.4,8.5 1.2,8.2 1,6.9 C0.8,5.5 2,4.7 3.1,4.4 C3.4,4.3 3.4,4 3.2,3.9 C1.9,2.4 4.8,0.2 5.9,2.1 C6,2.2 6.1,2.3 6.3,2.2 C7.6,1.7 9.4,1.6 9.4,3.5 C9.5,5 8.2,6.2 6.8,6.6 C6.7,6.6 6.6,6.8 6.6,6.9 C6.6,7.9 6,7.9 5.2,8 C4.6,8 4,8.1 3.4,8.3 C3.1,8.2 3.3,8.9 3.7,8.8 Z" fill="#000000"></path></g><path d="M5.2,4.2 C5.5,4.3 5.1,4.5 5,4.5 C4.9,4.5 4.8,4.6 4.7,4.6 C4.5,4.6 4.3,4.6 4.1,4.5 C3.7,4.4 3.5,5 3.9,5.1 C4.4,5.3 5.2,5.3 5.6,4.9 C6.1,4.5 6,3.7 5.4,3.5 C4.9,3.5 4.8,4.1 5.2,4.2 Z" fill="#000000"></path></g><g transform="translate(141.000000, 58.000000)" id="Path"><g><path d="M8.1,5.1 C9.8,5.9 8.8,1.7 6.4,3 C6.8,0.6 2.5,0.6 2.7,3.4 C-0.7,3.3 0.5,7 3.8,6.2 C3.7,10.9 10.9,6.5 8.1,5.1 Z" fill="#3ADBC4"></path><path d="M8,5.4 C9.1,5.9 9.4,4.7 9.1,3.8 C8.6,2.5 7.4,2.1 6.2,2.7 C6.4,2.8 6.5,2.9 6.7,3 C7,0.1 2.2,0.4 2.4,3.4 C2.5,3.3 2.6,3.2 2.7,3.1 C1.6,3.1 0,3.7 0.4,5.1 C0.8,6.6 2.7,6.8 3.9,6.5 C3.8,6.4 3.6,6.3 3.5,6.2 C3.5,8.4 5.2,9.1 7.1,8.2 C8.3,7.6 10.1,5.8 8.2,4.8 C7.9,4.6 7.6,5.2 8,5.4 C9.2,6.1 7.5,7.3 6.8,7.6 C5.4,8.3 4.2,7.9 4.2,6.1 C4.2,5.9 4,5.7 3.8,5.8 C2.9,6 1.6,5.9 1.1,5 C0.6,3.9 2,3.6 2.7,3.6 C2.9,3.6 3,3.5 3,3.3 C2.9,1.2 6.2,0.9 6,2.9 C6,3.2 6.3,3.3 6.5,3.2 C7.2,2.8 7.9,3 8.3,3.7 C8.5,4 8.8,5 8.1,4.7 C7.8,4.6 7.7,5.3 8,5.4 Z" fill="#000000"></path></g><path d="M5.8,4.4 C5.8,4.6 5.2,4.4 5.2,4.1 C5.2,3.7 4.6,3.7 4.6,4.1 C4.5,5.2 6.6,5.6 6.5,4.4 C6.4,4 5.8,4 5.8,4.4 Z" fill="#000000"></path></g><g transform="translate(137.000000, 62.000000)" id="Path"><g><path d="M5.1,3 C6,2.3 2.5,0.2 0.9,1.9 C-0.4,3.4 1.4,4.6 2.8,4.5 C1.6,6.7 4.4,8.6 5.7,6.5 C7.2,11.2 12.8,4.8 7.8,4.3 C8.4,2.7 6,2.3 5.1,3 Z" fill="#3ADBC4"></path><path d="M5.3,3.2 C6.6,1.7 2.8,0.8 1.9,1 C0.9,1.2 -0.1,2.2 0.1,3.2 C0.3,4.4 1.7,4.8 2.7,4.8 C2.6,4.6 2.5,4.5 2.4,4.3 C1.3,6.7 4.2,9.1 5.8,6.6 C5.6,6.6 5.4,6.5 5.2,6.5 C5.9,8.4 7.8,9.1 9.2,7.5 C10.7,5.9 9.6,4.2 7.6,3.9 C7.7,4 7.8,4.2 7.8,4.3 C8.4,2.5 6,1.7 4.7,2.6 C4.6,2.9 4.9,3.5 5.3,3.2 C6,2.7 7.9,2.9 7.4,4.2 C7.4,4.3 7.5,4.6 7.6,4.6 C9.1,4.8 10,5.8 8.9,7.1 C7.8,8.3 6.5,7.9 5.9,6.4 C5.8,6.1 5.5,6.1 5.3,6.3 C4.1,8.1 2.2,6.3 3,4.6 C3.1,4.4 3,4.1 2.7,4.1 C1.9,4.1 0.2,3.7 0.8,2.3 C1.1,1.6 1.9,1.4 2.6,1.4 C2.8,1.4 5.2,2.1 4.7,2.6 C4.6,3.1 5.1,3.5 5.3,3.2 Z" fill="#000000"></path></g><path d="M6.3,5.4 C7.1,4.1 4.2,3.2 4.3,4.8 C4.3,5.2 5,5.2 4.9,4.8 C4.9,4.3 5.9,4.7 5.7,5.1 C5.5,5.5 6,5.8 6.3,5.4 Z" fill="#000000"></path></g><g transform="translate(154.000000, 46.000000)" id="Path"><g><path d="M1.3,16.1 C1.6,17 9,12 6.8,9.2 C10.1,7.8 9.6,3.6 10.4,0.8 C7.1,3.8 -0.5,11.1 1.3,16.1 Z" fill="#A6AD77"></path><path d="M1.1,16.3 C2.5,17.8 7,12.5 7.4,11.4 C7.6,10.8 7.4,10.3 7.5,9.7 C7.8,8.2 7,10.3 7.6,9.1 C7.6,9.1 8.6,8.2 8.6,8.2 C10.3,6.2 10.2,3.2 10.8,0.8 C10.9,0.5 10.5,0.3 10.3,0.5 C6.5,4 -0.7,10.1 1.1,16.1 C1.2,16.5 1.8,16.3 1.7,15.9 C0,10.3 7.1,4.3 10.8,0.9 C10.6,0.8 10.4,0.7 10.3,0.6 C9.5,3.5 9.9,7.2 6.8,8.8 C6.7,8.9 6.6,9.1 6.7,9.2 C8.1,11.4 2.4,16.5 1.7,15.7 C1.2,15.5 0.8,16 1.1,16.3 Z" fill="#000000"></path></g><path d="M6.4,5.9 C5.4,6.7 4.7,7.8 3.9,8.8 C3.2,9.6 2.6,10.5 2.3,11.5 C2.2,11.9 2.8,12.1 2.9,11.7 C3.2,10.5 4,9.6 4.7,8.7 C5.4,7.9 6,7 6.8,6.4 C7.2,6.1 6.7,5.6 6.4,5.9 Z" fill="#000000"></path></g><g transform="translate(136.000000, 38.000000)" id="Path"><g><path d="M2.6,4.6 C6.4,3.3 5.3,0.4 12.6,0.5 C11.7,1 10.6,1.6 10.4,2.6 C11.8,2.7 13.3,1.9 14.8,1.8 C16.5,1.7 18.9,1.8 20.4,2.8 C19.2,3.1 16.9,3.6 16.3,5 C18.9,5.3 21.1,4.4 23.5,5.9 C22.7,6.3 21.8,6.4 21,6.9 C22.4,7.3 23.9,7 25.3,6.9 C25.1,8 23.1,9.3 22.3,10.2 C21.1,11.4 19.9,12 18.4,12.6 C19.4,13.2 20.3,13.7 21.2,14.4 C17.4,16 13.4,16.7 9.7,14.5 C10.5,15.9 11.8,16.8 12.7,18.1 C6.8,18.7 1.4,14.1 1.2,8.1 C1.1,6.5 1.1,5.1 2.6,4.6 Z" fill="#516B43"></path><path d="M2.7,4.9 C4,4.4 4.9,3.7 5.9,2.8 C7.9,1.1 10,0.8 12.6,0.8 C12.5,0.6 12.5,0.4 12.4,0.2 C11.4,0.8 10.6,1.3 10.1,2.4 C10,2.6 10.1,2.9 10.4,2.9 C13.9,2.9 16.9,1.2 20.2,3.1 C20.2,2.9 20.3,2.7 20.3,2.5 C18.6,2.9 17,3.3 16,4.8 C15.9,5 16.1,5.3 16.3,5.3 C17.6,5.4 19,5.2 20.3,5.3 C20.8,5.3 22.3,5.2 22.1,6.1 C22.1,6 20.7,6.7 20.8,6.7 C20.6,6.8 20.6,7.2 20.9,7.3 C21.7,7.4 22.9,7.2 23.6,7.4 C24.5,7.1 24.7,7.3 24.2,8 C24,8.2 23.8,8.4 23.5,8.7 C22.1,10.3 20.2,11.5 18.3,12.3 C18.1,12.4 18,12.7 18.2,12.9 C19.1,13.5 20.1,14 21,14.7 C21,14.5 21.1,14.3 21.1,14.1 C17.3,15.6 13.6,16.2 9.8,14.2 C9.5,14.1 9.2,14.4 9.4,14.6 C10.3,15.9 11.5,17 12.5,18.3 C12.6,18.1 12.7,17.9 12.7,17.7 C9.6,17.9 6.5,16.9 4.3,14.6 C2.5,12.8 -0.7,6.5 2.7,4.9 C3.2,4.7 2.8,4.1 2.5,4.3 C-0.7,5.8 1.2,11.2 2.6,13.5 C4.8,16.9 8.7,18.7 12.7,18.4 C13,18.4 13.1,18.1 12.9,17.8 C11.9,16.6 10.8,15.6 9.9,14.3 C9.8,14.4 9.6,14.6 9.5,14.7 C13.4,16.8 17.3,16.3 21.3,14.7 C21.6,14.6 21.6,14.3 21.4,14.1 C20.5,13.4 19.6,12.9 18.6,12.3 C18.6,12.5 18.5,12.7 18.5,12.9 C21,11.8 24.6,9.7 25.6,7 C25.7,6.8 25.5,6.6 25.3,6.6 C23.9,6.7 22.5,6.9 21.1,6.6 C21.1,6.8 21.2,7 21.2,7.2 C22,6.8 22.9,6.5 23.7,6.2 C23.9,6.1 23.9,5.8 23.7,5.6 C22.3,4.8 21,4.6 19.3,4.6 C18.6,4.6 16.1,5.2 17.8,4 C18.5,3.5 19.7,3.3 20.6,3.1 C20.9,3 20.9,2.6 20.7,2.5 C19.1,1.6 17.4,1.4 15.6,1.5 C14.8,1.5 14.1,1.6 13.3,1.8 C12.7,1.9 12.1,2.4 11.6,2 C11.1,1.6 12.5,1 12.9,0.8 C13.2,0.6 13.1,0.2 12.7,0.2 C10.6,0.2 8.5,0.3 6.7,1.4 C5.3,2.3 4.3,3.6 2.7,4.3 C2.1,4.4 2.3,5 2.7,4.9 Z" fill="#000000"></path></g><path d="M19.9,8.1 C14.5,9.5 8.1,9.6 3.1,7 C2.7,6.8 2.4,7.4 2.8,7.6 C8,10.3 14.6,10.2 20.1,8.8 C20.4,8.6 20.3,8 19.9,8.1 Z" fill="#000000"></path><path d="M14,6.7 C13.9,7.3 13.1,7.8 12.7,8 C12.1,8.3 11.4,8.6 10.8,8.5 C10.4,8.5 10.4,9.1 10.8,9.1 C12.2,9.2 14.6,8.1 14.7,6.6 C14.6,6.3 14,6.3 14,6.7 Z" fill="#000000"></path><path d="M14.7,11.9 C13.3,11.3 12.3,10.3 11.2,9.3 C10.9,9 10.4,9.5 10.7,9.8 C11.8,10.9 13,11.9 14.4,12.5 C14.9,12.7 15.1,12.1 14.7,11.9 Z" fill="#000000"></path></g><g transform="translate(119.000000, 34.000000)" id="Path"><g><g><path d="M21.2,16.4 C22.7,18.1 22.6,19.7 23.2,21.4 C24.4,25.1 20.3,27.8 18.2,24.3 C16.4,30.3 8,28.6 9.4,22.4 C4.9,23.2 -0.6,17.5 0.8,12.8 C1.5,10 4.5,9.7 5.6,8.8 C7.8,7 4.2,4.9 7.2,2.6 C9.6,0.7 12.4,0.8 14.3,3.2 C16.1,-1.1 23.4,0.8 21.8,5.7 C24.8,5.3 26.5,8.6 25.1,10.9 C31.6,12.2 24.7,20.6 21.2,16.4 Z" fill="#E2BBA8"></path><path d="M20.9,16.6 C22,18 22.5,19.8 22.9,21.5 C23.6,24.4 20.8,27.4 18.5,24.2 C18.3,24 18,24 17.9,24.3 C16.1,29.4 8.7,28.4 9.8,22.6 C9.8,22.4 9.7,22.2 9.5,22.2 C6.3,22.6 3.2,20.3 1.8,17.5 C1,16 0.7,14.1 1.4,12.5 C2.1,11 3.3,10.5 4.6,9.9 C5.8,9.3 6.8,8.7 6.7,7.2 C6.6,5.2 5.8,4.1 8.1,2.6 C10.2,1.2 12.5,1.7 14.2,3.6 C14.3,3.7 14.6,3.7 14.7,3.5 C16.6,-0.3 22.8,1.3 21.6,5.8 C21.5,6 21.7,6.2 21.9,6.2 C24.5,6.1 26.1,8.6 24.9,10.9 C24.8,11.1 24.9,11.3 25.1,11.4 C30.5,12.7 24.9,19.9 21.4,16.4 C21.1,15.9 20.6,16.4 20.9,16.6 C22.8,18.6 25.4,18 27,16.1 C27.7,15.3 28.2,14.2 28.1,13.2 C27.9,11.9 27.2,11.8 26.3,11 C25.3,10.1 25.9,11.3 25.8,10 C25.7,9.4 25.9,8.8 25.8,8.2 C25.4,6.4 24.3,6.2 23,5.4 C22.1,4.8 22.4,5.4 22.3,4.2 C22.3,3.7 22.2,3.2 21.9,2.8 C21.3,1.6 20.2,0.9 18.9,0.6 C17.8,0.4 16.5,0.5 15.5,1.2 C15.1,1.5 14.8,2 14.4,2.2 C13.5,2.6 14.6,2.6 13.4,2 C13,1.8 12.6,1.5 12.2,1.3 C9.5,0.3 5.3,2.1 5.5,5.3 C5.6,6.7 6.2,7.8 4.7,9 C3.9,9.6 2.9,9.7 2.1,10.3 C0.9,11.2 0.2,12.5 0.1,14.1 C-0.1,17.8 2.9,21.4 6.3,22.6 C6.7,22.8 8.7,22.8 8.9,23.1 C9.1,23.4 8.9,24.8 9,25.3 C9.4,26.6 10.3,27.7 11.5,28.2 C14.5,29.5 17.4,27.5 18.4,24.6 C18.2,24.6 18,24.7 17.8,24.7 C19.1,26.5 21.4,27.2 22.9,25.2 C24.6,22.8 22.8,18.5 21.3,16.5 C21.2,16 20.6,16.3 20.9,16.6 Z" fill="#000000"></path></g><g transform="translate(9.000000, 9.000000)"><path d="M5.4,3.6 C5.4,1.9 4.6,0.8 2.7,1 C2.7,1.4 2.7,1.9 2.7,2.3 C2.3,2.3 2.1,2.1 1.4,2.1 C1.6,3 1.2,2.7 1.8,3.8 C0.3,4.4 0.9,4 1.3,5.3 C0.6,6.8 1.5,7.2 3,6.8 C5.5,9.2 7.9,5.2 5.4,3.6" fill="#A36969"></path><path d="M5.7,3.6 C5.7,1.7 4.6,0.5 2.6,0.6 C2.4,0.6 2.3,0.7 2.3,0.9 C2.3,1.3 2.3,1.8 2.3,2.2 C2.4,2.1 2.5,2 2.6,1.9 C2.2,1.8 1.8,1.7 1.3,1.7 C1.1,1.7 1,1.9 1,2.1 C1.1,2.8 1.1,3.2 1.4,3.9 C1.5,3.7 1.5,3.6 1.6,3.4 C1.3,3.5 0.5,3.7 0.4,4.1 C0.4,4.3 0.5,4.3 0.5,4.5 C0.5,4.6 0.7,4.7 0.7,4.9 C0.8,5.3 0.7,5.6 0.6,6 C0.5,7.6 2.2,7 3,7.4 C4.2,8 5.5,8.1 6.3,6.8 C7.1,5.6 6.6,4.2 5.4,3.4 C5.1,3.2 4.7,3.7 5.1,4 C6,4.6 6.4,5.9 5.5,6.8 C5.1,7.2 4.6,7.4 4.1,7.3 C3.6,7.2 3.3,6.7 2.9,6.6 C2.5,6.5 2,6.9 1.6,6.7 C1,6.4 1.5,5.8 1.5,5.3 C1.5,5 1.3,4.7 1.1,4.5 C0.9,4.3 1,4.4 0.9,4.5 C1,4.3 1.5,4.3 1.7,4.2 C1.9,4.1 2,3.9 1.9,3.7 C1.6,3.1 1.7,2.7 1.5,2 C1.4,2.1 1.3,2.3 1.2,2.4 C1.6,2.4 2,2.6 2.5,2.6 C2.7,2.6 2.8,2.4 2.8,2.3 C2.8,1.9 2.8,1.4 2.8,1 C2.7,1.1 2.6,1.2 2.5,1.3 C4.1,1.2 4.9,2 4.9,3.6 C5,4.1 5.7,4.1 5.7,3.6 Z" fill="#000000"></path></g><path d="M21.7,5.4 C19.3,6.3 16.3,6.8 15,9.3 C14.8,9.7 15.4,10 15.6,9.6 C16.8,7.3 19.7,6.9 21.9,6 C22.3,5.9 22.1,5.2 21.7,5.4 Z" fill="#000000"></path><path d="M20.9,16.1 C19.5,16.6 18,16.7 16.9,15.4 C16.6,15.1 16.2,15.5 16.4,15.9 C17.6,17.3 19.4,17.3 21,16.7 C21.4,16.6 21.2,16 20.9,16.1 Z" fill="#000000"></path><path d="M16.5,19.1 C16.3,20.5 16.4,22 17.4,23.1 C17.7,23.4 18.1,23 17.9,22.6 C17.1,21.7 17,20.4 17.2,19.2 C17.2,18.8 16.6,18.6 16.5,19.1 Z" fill="#000000"></path><path d="M11,17.5 C10.5,18 10.3,18.6 10.2,19.2 C10.2,19.6 10.8,19.6 10.8,19.2 C10.8,18.7 11.1,18.3 11.4,17.9 C11.8,17.7 11.3,17.2 11,17.5 Z" fill="#000000"></path><path d="M9.4,10.9 C7.6,11.4 6.9,9.3 6.6,7.9 C6.5,7.5 5.9,7.7 6,8.1 C6.4,9.8 7.5,12.2 9.6,11.5 C9.9,11.4 9.8,10.8 9.4,10.9 Z" fill="#000000"></path><path d="M5.3,15.1 C4.7,15.1 4.2,15 3.7,14.9 C3.3,14.8 3.1,15.4 3.5,15.5 C4.1,15.7 4.7,15.7 5.3,15.8 C5.7,15.8 5.7,15.1 5.3,15.1 Z" fill="#000000"></path></g><path d="M12.6,12.5 C13,12.8 12.7,13.9 12.1,13.8 C11.7,13.7 11.5,14.3 11.9,14.4 C13.2,14.6 13.9,12.7 12.9,11.9 C12.6,11.7 12.3,12.3 12.6,12.5 Z" fill="#000000"></path></g><g transform="translate(3.000000, 44.000000)" id="Path"><g transform="translate(10.000000, 0.000000)"><path d="M5.1,28.3 C6.4,26.5 4.3,24.3 3.4,22.8 C1.1,18.9 1,14.9 2.4,10.6 C3.1,8.5 4,6.7 5.3,5 C6.1,4.2 9.1,2 8.3,0.8 C8,0.8 7.8,0.8 7.4,0.9 C1.8,6 -1,12.6 1,20.1 C1.8,23.1 2.8,26.1 5.1,28.3 Z" fill="#A6AD77"></path><path d="M5.4,28.5 C6.4,26.7 5.4,25.2 4.4,23.6 C2.1,20.2 1.4,16.4 2.3,12.4 C3,9.1 4.5,6.3 6.9,4 C7.8,3.2 9.2,2 8.7,0.7 C8.6,0.6 8.5,0.5 8.4,0.5 C6.3,0.5 4.7,3.3 3.6,4.9 C2,7.3 0.8,9.9 0.3,12.8 C-0.5,18.1 1.1,24.7 4.9,28.6 C5.2,28.9 5.6,28.4 5.4,28.1 C1.5,24.2 0,17.5 1,12.2 C1.5,9.7 2.6,7.3 4.1,5.2 C4.7,4.4 5.8,2.4 6.8,2 C8.8,1.2 6.7,3.3 6.2,3.8 C3.4,6.4 1.8,10.2 1.3,14 C1,16.2 1.2,18.4 2,20.5 C2.7,22.5 6.1,25.9 4.9,28.1 C4.7,28.5 5.2,28.9 5.4,28.5 Z" fill="#000000"></path></g><g><path d="M14,4.1 C15.2,-0.8 4.4,0.5 1.3,5.2 C4.3,7.8 12.7,9.3 14,4.1 Z" fill="#A6AD77"></path><path d="M14.3,4.2 C14.8,1.5 12.3,0.6 10,0.7 C6.6,0.8 3,2.3 1,5.1 C0.9,5.2 0.9,5.4 1.1,5.5 C4.6,8.3 12.6,9.7 14.3,4.2 C14.4,3.8 13.8,3.6 13.7,4 C12.8,6.8 10.1,7.4 7.5,7.2 C6.4,7.1 5.3,6.9 4.2,6.5 C3.1,6.1 1.6,5.7 2.5,4.4 C4,2 14.7,-0.9 13.7,4 C13.6,4.4 14.3,4.6 14.3,4.2 Z" fill="#000000"></path></g><g transform="translate(13.000000, 6.000000)"><path d="M0.9,0.8 C0.3,4 1.1,6.8 3.8,8.9 C6.1,10.7 8.9,11.9 8.9,15.1 C11.9,12.3 7.6,9.4 6.9,7.5 C6.6,6.6 6.9,6.2 6.3,5.3 C5.7,4.4 4.9,3.9 4.1,3.3 C3.1,2.8 0.9,0.8 0.9,0.8 Z" fill="#A6AD77"></path><path d="M0.6,0.7 C0.2,3.1 0.4,5.5 2,7.5 C4.1,10.3 8.3,11.1 8.7,15.1 C8.7,15.4 9.1,15.6 9.3,15.3 C11.9,12.4 9,10.5 7.7,7.9 C7.4,7.2 7.4,6.4 7.1,5.8 C6.7,4.9 5.9,4.2 5.1,3.6 C3.8,2.6 2.5,1.6 1.2,0.5 C0.9,0.2 0.4,0.7 0.7,1 C1.5,1.7 2.3,2.4 3.1,3 C4.8,4.3 5.7,4.8 6.5,7 C7.4,9.5 11.2,12.1 8.7,14.9 C8.9,15 9.1,15.1 9.3,15.1 C9.1,13 8.1,11.6 6.4,10.3 C5,9.3 3.6,8.4 2.5,7.1 C1.1,5.2 0.8,3.1 1.2,0.8 C1.2,0.5 0.6,0.3 0.6,0.7 Z" fill="#000000"></path></g><g transform="translate(18.000000, 1.000000)"><path d="M3.1,0.7 C1.2,1.4 1.2,4.3 1.7,6.2 C2.4,8.3 4.8,12 6.5,13.2 C6.7,12 6.7,10.9 6.9,9.8 C7.2,8.6 7.7,7.1 7.2,5.8 C6.9,5 5.9,4.8 5.6,4.3 C5.3,3.8 5.6,3.3 5.4,2.6 C5.1,1.2 4.6,0.1 3.1,0.7 Z" fill="#A6AD77"></path><path d="M2.9,0.4 C-2.1,3.1 3.5,11.1 6.2,13.3 C6.4,13.4 6.7,13.4 6.7,13.2 C6.9,12.1 6.9,10.9 7.1,9.8 C7.3,9 7.6,8.2 7.6,7.4 C7.6,6 7.2,5.7 6.4,4.7 C5.4,3 5.9,-0.4 2.9,0.4 C2.6,0.5 2.7,1.1 3.1,1 C4.2,0.7 5,2.4 5.1,3.1 C5.1,3.3 5,3.5 5.1,3.7 C5.3,4.2 5.4,4.3 5.7,4.7 C5.8,4.9 7,7.7 7,8 C7,8.5 6.7,9 6.6,9.5 C6.5,9.8 6.5,10.1 6.5,10.5 C6.4,11.1 6.7,12.5 6.2,12.4 C5,12.1 3.4,8.8 2.8,7.8 C1.8,5.9 0.8,2.4 3.3,1 C3.6,0.8 3.3,0.2 2.9,0.4 Z" fill="#000000"></path></g><g transform="translate(12.000000, 15.000000)"><path d="M0.7,6.1 C1.8,6.5 3,2.2 3.1,0.6 C4.6,2.5 4,7.2 0.7,6.1 Z" fill="#A6AD77"></path><path d="M0.6,6.4 C1.5,6.6 2.1,5.4 2.4,4.7 C3,3.4 3.4,1.9 3.4,0.5 C3.2,0.6 3,0.6 2.8,0.7 C4.1,2.4 3.8,6.7 0.8,5.8 C0.4,5.6 0.2,6.3 0.6,6.4 C4.2,7.5 5,2.6 3.3,0.4 C3.1,0.1 2.7,0.2 2.7,0.6 C2.7,1.6 2.4,2.5 2.1,3.4 C2,3.8 1.4,5.9 0.7,5.8 C0.4,5.7 0.2,6.3 0.6,6.4 Z" fill="#000000"></path></g><path d="M13.5,3.3 C10.9,4.8 8,5.4 5.1,4.7 C4.7,4.6 4.5,5.2 4.9,5.3 C8,6.1 11.1,5.4 13.8,3.8 C14.1,3.6 13.8,3.1 13.5,3.3 Z" fill="#000000"></path><path d="M21.3,2.7 C22.1,4.8 21,7.1 22.1,9.2 C22.3,9.6 22.8,9.2 22.7,8.9 C21.7,6.9 22.8,4.5 22,2.5 C21.8,2.1 21.1,2.3 21.3,2.7 Z" fill="#000000"></path><path d="M13.9,7.1 C14.9,9.5 15.7,12.1 17.7,13.8 C18,14.1 18.5,13.6 18.2,13.3 C16.2,11.7 15.5,9.2 14.6,6.9 C14.3,6.6 13.7,6.7 13.9,7.1 Z" fill="#000000"></path></g><g transform="translate(17.000000, 31.000000)" id="Path"><g><g><path d="M18.4,3.3 C15.2,3.2 14.6,-0.1 10,1.1 C7,1.9 6.2,2.5 4.1,4.3 C2,6 0.1,8.4 0.9,12 C1.7,15.5 5,15.1 7.8,15.5 C8.1,18.4 8.3,20.3 11.4,22 C13.6,23.2 16.4,22.5 18,20.5 C20.3,23.6 23.9,21.2 25.1,18.4 C26,16.4 26.4,13.3 26.2,11.1 C26.1,9.3 25.2,7.4 23.3,7.1 C23.7,5.7 19.7,3.3 18.4,3.3 Z" fill="#E2BBA8"></path><path d="M18.4,3 C15.6,2.8 14,0.3 11,0.6 C8,0.9 5.5,2.5 3.4,4.5 C1.3,6.5 -0.1,9.1 0.6,12.1 C1.2,14.7 3.4,15.3 5.8,15.6 C6.8,15.7 7.1,15.5 7.6,16.4 C7.8,16.9 7.8,17.7 7.9,18.2 C8.3,19.5 8.9,20.5 10,21.4 C12.5,23.4 14.7,23.1 17.3,21.7 C18.2,21.2 17.9,21.2 18.8,21.6 C19.2,21.8 19.5,22 20,22.1 C21.1,22.3 22.3,21.9 23.2,21.2 C25.7,19.4 26.4,16.1 26.6,13.1 C26.7,11.6 26.7,9.8 25.9,8.5 C25.3,7.5 24.3,7.3 23.6,6.6 C22.9,5.9 22.5,5 21.6,4.3 C20.7,3.7 19.6,3.1 18.4,3 C18,2.9 18,3.6 18.4,3.6 C19.7,3.8 23.1,5.4 23,7.1 C23,7.2 23.1,7.4 23.2,7.4 C26.8,8.4 26.1,13.5 25.4,16.3 C24.7,19.3 21.3,23.9 18.1,20.3 C18,20.2 17.8,20.2 17.6,20.3 C15.6,22.6 12.6,22.9 10.2,20.9 C8.4,19.5 8.1,17.6 7.9,15.4 C7.9,15.2 7.8,15.1 7.6,15.1 C4.4,14.7 0.8,14.7 0.8,10.4 C0.8,7.1 3.6,4.5 6.2,2.8 C8.5,1.3 11.7,0.4 14.1,1.8 C15.5,2.6 16.5,3.4 18.1,3.5 C18.8,3.7 18.8,3 18.4,3 Z" fill="#000000"></path></g><path d="M13.5,5.6 C10.2,2.7 5,3.7 1.8,6.4 C1.5,6.7 1.9,7.1 2.3,6.9 C5.1,4.4 10,3.4 13,6.1 C13.4,6.3 13.8,5.8 13.5,5.6 Z" fill="#000000"></path><path d="M13.5,8.7 C12.7,11.3 10.6,14.6 7.7,15.1 C7.3,15.2 7.5,15.8 7.9,15.7 C11,15.1 13.3,11.7 14.2,8.8 C14.3,8.5 13.7,8.3 13.5,8.7 Z" fill="#000000"></path><path d="M18.4,9.4 C19.9,10 19.8,12.5 19.8,13.8 C19.8,16.2 19.3,18.4 17.8,20.3 C17.5,20.6 18,21.1 18.3,20.8 C20,18.6 20.6,15.9 20.5,13.2 C20.4,11.6 20.3,9.6 18.7,8.9 C18.2,8.7 18,9.3 18.4,9.4 Z" fill="#000000"></path><path d="M23.4,6.8 C21.8,6.4 19.7,6.3 18.2,7.2 C17.8,7.4 18.2,8 18.5,7.8 C19.8,7 21.8,7.2 23.2,7.5 C23.7,7.5 23.8,6.9 23.4,6.8 Z" fill="#000000"></path><path d="M16,2.7 C16.8,3.8 16.3,5.2 15.9,6.3 C15.8,6.7 16.4,6.9 16.5,6.5 C17,5.2 17.4,3.7 16.6,2.4 C16.3,2 15.7,2.4 16,2.7 Z" fill="#000000"></path><g transform="translate(13.000000, 5.000000)"><path d="M5,3.6 C5.6,2.5 2.6,0.8 1.6,0.8 C-1.4,1 2,5.2 5,3.6" fill="#A36969"></path><path d="M5.2,3.8 C5.7,2.6 4.1,1.6 3.3,1.1 C2.5,0.6 1,0.1 0.3,1.1 C-0.3,1.9 0.5,3 1.2,3.5 C2.3,4.4 3.8,4.6 5.1,3.9 C5.5,3.7 5.1,3.1 4.8,3.3 C3.9,3.8 2.8,3.7 1.9,3.2 C1.5,2.9 0.5,2.1 0.8,1.5 C1.2,0.8 2.4,1.3 2.9,1.6 C3.4,1.8 5,2.8 4.7,3.5 C4.5,3.8 5.1,4.1 5.2,3.8 Z" fill="#000000"></path></g></g><path d="M16.6,7.4 C16.1,7.2 15.7,6.9 15.3,6.5 C15,6.2 14.6,6.6 14.8,7 C15.2,7.5 15.7,7.8 16.2,8 C16.7,8.1 17,7.5 16.6,7.4 Z" fill="#000000"></path></g></g><g id="Group" transform="translate(0.000000, 65.000000)"><rect id="Rectangle" stroke="#000000" stroke-width="0.9511" fill="#FFFFFF" x="0.5" y="0.2" width="215" height="62.8"></rect><g transform="translate(12.000000, 6.000000)" fill="#000000" id="Path"><path d="M7.2,0.8 C6.4,5.8 4.5,10.5 3.6,15.5 C3.2,17.6 2.8,19.7 2.4,21.9 C1.9,24.7 1.4,27.6 1.1,30.5 C1,32.2 0.6,35 1.6,36.6 C3.1,38.9 5,34.5 5.5,33.4 C7.9,28.6 9.7,23.5 11.5,18.5 C13.1,13.9 15.1,9.1 15.9,4.3 C16,3.7 15.2,3.5 15,4 C11.1,13.5 10.4,24 9.6,34.1 C9.6,34.6 10.4,34.7 10.5,34.2 C11.2,31.5 12.3,29.2 14.6,27.6 C14.4,27.5 14.1,27.4 13.9,27.3 C15,30.7 15.2,34.5 14.8,38.1 C14.4,41.6 13.2,46.9 9.2,47.9 C5.8,48.8 1.7,46 3.7,42.3 C4.7,40.5 6.7,39.7 8.5,39.2 C12.1,38.2 15.9,38.2 19.6,38 C20.2,38 20.2,37 19.6,37 C14.9,37.2 9.4,37 5.3,39.4 C1.4,41.7 1.1,47.4 6,48.7 C16.8,51.6 16.9,33.1 14.9,27 C14.8,26.7 14.5,26.5 14.2,26.7 C11.7,28.4 10.4,30.9 9.6,33.8 C9.9,33.8 10.2,33.9 10.5,33.9 C11.3,24 12,13.6 15.9,4.2 C15.6,4.1 15.3,4 15,3.9 C14.5,7.2 13.2,10.5 12.1,13.7 C10.5,18.4 8.8,23.1 6.9,27.8 C6.5,28.7 3.5,36.5 2.5,36.1 C1.3,35.6 2,30.8 2.1,29.9 C2.4,27.1 2.8,24.3 3.4,21.6 C3.8,19.7 4.1,17.7 4.5,15.8 C5.5,10.8 7.3,6.1 8.1,1.1 C8.2,0.4 7.3,0.2 7.2,0.8 Z"></path><path d="M17.7,29.4 C26.9,29.3 35,18.5 34.7,9.8 C34.6,7.7 33.9,4.8 31.2,5.9 C28.2,7.2 25.8,11.2 24.4,14 C22,18.8 21.7,25.5 22.3,30.7 C22.5,32.5 22.8,35.5 24.9,36 C27.1,36.6 29.8,33.9 30.5,32.1 C31.1,30.5 30.4,28.1 28.3,28.2 C24.8,28.5 26.6,34.1 27.2,35.8 C27.4,36.4 28.3,36.1 28.1,35.5 C27.7,34.5 25.8,28.5 28.7,29.1 C31.5,29.7 28.4,33.5 27.4,34.1 C22.9,37.3 23,28.9 23.1,26.3 C23.2,22.6 23.4,18.4 24.9,15 C26,12.6 27.5,10.2 29.4,8.3 C30,7.6 31.1,6.5 32.1,6.3 C34,6.1 33.9,8.8 33.8,10.1 C33.7,18.1 26.1,28 17.7,28.1 C17.1,28.4 17.1,29.4 17.7,29.4 Z"></path><path d="M33.9,31.5 C36.6,32.7 39.6,30.2 39.9,27.5 C40.1,25.8 38.5,24 36.8,25 C35.3,25.9 34.8,28.3 34.6,29.8 C34.3,31.7 34.3,34.2 35.4,35.8 C36.8,37.9 39.1,36.6 40.6,35.3 C41.1,34.9 40.4,34.2 39.9,34.6 C38.5,35.8 36.7,36.7 35.8,34.6 C35.1,33 35.2,31 35.5,29.4 C35.7,28.4 36.1,25.9 37.4,25.6 C38.8,25.3 39,27.1 38.6,28.1 C38,29.7 36.1,31.4 34.2,30.6 C33.8,30.5 33.4,31.3 33.9,31.5 Z"></path><path d="M44.3,23.7 C44.2,27.2 44.2,30.7 44.1,34.2 C44.1,34.7 44.9,34.9 45,34.3 C45.5,32.3 45.9,30.2 47,28.5 C47.7,27.3 48.7,26.6 49.5,28.1 C50.1,29.3 49.7,31.6 49.5,32.9 C49.8,32.9 50.1,33 50.4,33 C50.5,30.6 51,28.2 53.5,27.1 C53.3,27 53,26.9 52.8,26.8 C53.6,29.9 53.3,33 53.2,36.2 C53.2,36.8 54.1,36.8 54.2,36.2 C54.3,33 54.6,29.7 53.7,26.6 C53.6,26.3 53.3,26.2 53,26.3 C50.3,27.5 49.6,30.2 49.5,33 C49.5,33.5 50.4,33.7 50.4,33.1 C50.8,30.6 50.8,28 49.5,25.7 C49.4,25.5 49.2,25.4 49,25.5 C45.7,26.8 44.8,30.9 44.1,34 C44.4,34 44.7,34.1 45,34.1 C45.1,30.6 45.1,27.1 45.2,23.6 C45.3,23.1 44.3,23.1 44.3,23.7 Z"></path><path d="M58.3,23.4 C57.1,26.2 54.6,33.2 58.5,35.2 C61.4,36.7 62.7,31.5 59.7,30.5 C59.6,30.4 59.3,30.5 59.2,30.6 C58.2,31.7 58.1,32.8 58.4,34.2 C58.5,34.8 59.4,34.5 59.3,33.9 C58.9,33 59.2,32.2 60.2,31.7 C60.5,32 60.6,32.4 60.6,32.9 C60.6,33.4 60.3,34.2 59.7,34.4 C57.9,34.9 57.5,31.8 57.5,30.8 C57.5,28.4 58.2,25.9 59.2,23.8 C59.4,23.4 58.6,22.9 58.3,23.4 Z"></path><path d="M64.9,23.1 C64.2,27.9 64.1,32.7 64.3,37.5 C64.3,38.1 65.3,38.1 65.3,37.5 C65.1,32.8 65.2,28.1 65.9,23.4 C65.9,22.7 65,22.5 64.9,23.1 Z"></path><path d="M78.2,24.9 C77.2,28.6 76.8,32.3 76.7,36.1 C76.7,36.7 77.6,36.7 77.7,36.1 C77.8,32.4 78.2,28.7 79.2,25.2 C79.3,24.6 78.4,24.3 78.2,24.9 Z"></path><path d="M77.2,28.5 C77.2,30.8 78.1,33.2 80.8,31.8 C83.2,30.6 85.3,27.8 86.2,25.3 C86.3,24.9 85.8,24.5 85.5,24.8 C82.4,27 81.6,37 87.3,35.5 C87.9,35.3 87.6,34.4 87,34.6 C82.6,35.7 83.7,27.2 86,25.6 C85.8,25.4 85.5,25.2 85.3,25.1 C84.7,26.9 83.4,28.6 82,29.9 C81.4,30.4 80.5,31.3 79.7,31.4 C78.2,31.5 78.3,29.7 78.3,28.6 C78.1,27.9 77.2,27.9 77.2,28.5 Z"></path><path d="M98,27 C95.6,25 92.4,25.4 90.4,27.8 C89.4,29.1 88.2,32.8 90,34 C92.8,35.8 97.3,27.7 98.3,25.9 C98.6,25.4 97.8,24.9 97.5,25.4 C95.7,28.3 94.1,36.1 99.8,35 C100.4,34.9 100.1,34 99.5,34.1 C94.9,34.9 97,27.9 98.3,25.9 C98,25.7 97.8,25.6 97.5,25.4 C96,27.9 94.4,30.6 92.1,32.4 C91.7,32.7 91,33.4 90.4,33.1 C89.7,32.7 90,30.6 90.1,30.1 C90.9,27 94.6,25.4 97.1,27.6 C97.8,28.1 98.5,27.4 98,27 Z"></path><path d="M117.9,4.6 C117.2,16.6 113.1,28 112.1,40 C112,40.6 113,40.6 113.1,40 C114.1,28 118.2,16.6 118.9,4.6 C118.9,4 118,4 117.9,4.6 Z"></path><path d="M126.2,11.1 C121.9,16.2 119.2,22.8 113,26 C113.2,26.2 113.5,26.4 113.7,26.5 C113.8,26 113.9,25.1 114.4,24.7 C115.1,24.1 114.9,24.3 115.6,25.2 C116.2,26 116.7,26.9 117.1,27.9 C118,29.8 118.8,31.7 119.9,33.5 C122.1,36.8 125.2,37.8 129,37.1 C129.6,37 129.3,36.1 128.7,36.2 C120,37.8 119.5,28.4 115.2,23.4 C115,23.2 114.7,23.2 114.5,23.4 C113.5,24.4 113,25.1 112.7,26.4 C112.6,26.8 113,27.1 113.4,26.9 C119.7,23.7 122.5,17.1 126.8,11.9 C127.2,11.3 126.6,10.6 126.2,11.1 Z"></path><path d="M131.2,23.9 C131,28.5 128.7,34.3 132,38.2 C132.2,38.4 132.5,38.4 132.7,38.2 C135.6,35.2 137,31 137.5,26.9 C137.6,26.4 136.7,26.3 136.6,26.8 C135.9,30 133.9,35.3 136.8,38 C137.2,38.4 137.9,37.7 137.5,37.3 C135,34.9 136.9,29.8 137.5,27 C137.2,27 136.9,26.9 136.6,26.9 C136.3,29.2 135.7,31.5 134.7,33.7 C134.3,34.6 133.8,35.4 133.3,36.2 C132.2,37.8 131.9,36.6 131.5,35.2 C130.6,31.6 132.1,27.6 132.2,24 C132.2,23.3 131.2,23.3 131.2,23.9 Z"></path><path d="M145.6,31.1 C146.3,29.9 147,27.2 145,26.7 C143,26.2 141.7,29 141.5,30.5 C141.2,32.3 141.7,34.6 143.2,35.8 C144.9,37.3 146.8,36.2 148,34.7 C148.4,34.2 147.7,33.5 147.3,34 C146.4,35.1 145.1,36.2 143.8,35.1 C142.8,34.3 142.4,32.8 142.3,31.5 C142.3,30.2 142.8,27.9 144.3,27.5 C146,27.1 145,29.9 144.7,30.5 C144.4,31.1 145.3,31.6 145.6,31.1 Z"></path><path d="M150,31.3 C152.4,32.8 155.5,29.8 154.9,27.2 C154.5,25.7 152.8,24.4 151.5,25.7 C150.3,26.9 150.1,29.1 150,30.7 C149.9,32.4 150.1,34.6 151.4,35.9 C153.2,37.7 155.7,35.8 157.1,34.5 C157.5,34.1 156.9,33.4 156.4,33.8 C155.3,34.8 153.1,36.7 151.8,35 C150.8,33.7 150.8,31.7 150.9,30.2 C151,29.2 151.2,26.7 152.3,26.2 C153.1,25.8 153.7,26.8 153.9,27.4 C154.3,29.1 152.1,31.5 150.4,30.4 C149.9,30.2 149.5,31 150,31.3 Z"></path><path d="M160.9,26.1 C161.1,30.3 159.2,34.6 158.1,38.6 C157.9,39.2 158.9,39.4 159,38.9 C160.1,34.8 162,30.4 161.8,26.1 C161.9,25.5 160.9,25.5 160.9,26.1 Z"></path><path d="M160.9,26.1 C160.9,29.7 161.6,33.3 162.9,36.7 C163.1,37.3 164,37 163.8,36.4 C162.5,33.1 161.8,29.6 161.8,26 C161.9,25.5 160.9,25.5 160.9,26.1 Z"></path><path d="M166.3,30.1 C166.7,33.1 169,32.6 170,30.2 C170.5,29.1 170.8,25.4 168.6,25.9 C167.1,26.2 166.5,28.7 166.3,29.9 C165.8,31.9 165.5,34.3 166.3,36.2 C167.2,38.5 169.3,38 171,36.8 C171.5,36.4 171,35.6 170.5,36 C169.2,37 167.7,37.5 167.1,35.6 C166.6,34 166.8,32.1 167.1,30.5 C167.3,29.7 167.7,27.1 168.7,26.8 C171,26.3 167.9,34.4 167.2,29.8 C167.1,29.3 166.2,29.5 166.3,30.1 Z"></path><path d="M175.1,32.7 C180.4,31.8 185.4,25.3 184.5,19.9 C183.5,13.9 178.1,19.5 176.7,22.2 C175.1,25.6 174.6,30 174.8,33.7 C174.9,35 175,37 176.2,37.8 C177.3,38.6 178.9,37.9 179.7,37 C180.7,35.8 180.7,33.3 179.2,32.4 C177.3,31.2 176.7,34.1 176.6,35.4 C176.5,36 177.5,36 177.6,35.4 C177.7,34.9 177.7,32.8 178.9,33.3 C179.3,33.4 179.4,34.2 179.5,34.5 C179.7,35.6 179,37.2 177.7,37.2 C176.2,37.2 176,35.3 175.9,34.1 C175.6,31.1 176.1,27.8 176.8,24.8 C177.1,23.5 177.7,22.3 178.4,21.3 C179.5,19.6 182.9,16 183.6,20 C184.5,24.9 179.7,30.9 174.9,31.7 C174.2,31.9 174.5,32.8 175.1,32.7 Z"></path><path d="M182.3,32.9 C182.2,33.7 182.2,34.7 182.5,35.5 C183.1,37.2 184.8,36.8 186.1,36 C187.6,35.1 188.7,33.6 188.3,31.7 C188.1,30.4 187,29.2 185.7,29 C183.6,28.7 182.6,31 182.3,32.7 C182.2,33.3 183.1,33.6 183.2,33 C183.4,31.9 183.9,30 185.3,30 C186.3,30 187,30.9 187.3,31.7 C187.7,33 186.9,34.2 185.9,35 C185.1,35.6 183.8,36.4 183.4,35.1 C183.2,34.4 183.2,33.6 183.3,32.9 C183.4,32.3 182.4,32.3 182.3,32.9 Z"></path><path d="M187.1,33.7 C186.8,36.7 187.3,39.8 189.6,42 C190,42.4 190.7,41.8 190.3,41.3 C188.2,39.3 187.7,36.4 188.1,33.7 C188.1,33.1 187.2,33.1 187.1,33.7 Z"></path><path d="M167.1,23.3 C167.1,23.6 166.8,23.9 166.5,23.9 C166.2,23.9 165.9,23.6 165.9,23.3 C165.9,23 166.2,22.7 166.5,22.7 C166.9,22.7 167.1,23 167.1,23.3 Z"></path><path d="M171.6,23.4 C171.6,23.7 171.3,24 171,24 C170.7,24 170.4,23.7 170.4,23.4 C170.4,23.1 170.7,22.8 171,22.8 C171.3,22.8 171.6,23.1 171.6,23.4 Z"></path></g></g></g></g></svg> 