<?xml version="1.0" encoding="UTF-8"?> <svg xmlns="http://www.w3.org/2000/svg" xmlns:xlink="http://www.w3.org/1999/xlink" width="500px" height="300px" viewBox="0 0 500 300"><!-- Generator: Sketch 52.2 (67145) - http://www.bohemiancoding.com/sketch --><title>Logo White 2</title><desc>Created with Sketch.</desc><g id="Page-1" stroke="none" stroke-width="1" fill="none" fill-rule="evenodd"><g id="Logo-White-2" transform="translate(115.000000, 106.000000)"><g id="Logo-White"><path d="M268.986366,34.2307928 C268.986366,45.315376 268.986366,56.3999592 268.986366,67.4845424 C268.986366,68.2181818 268.837132,68.4444444 268.06722,68.4444444 C252.976499,68.4193042 237.884648,68.4193042 222.791666,68.4444444 C222.008188,68.4444444 221.875912,68.1976125 221.875912,67.4742577 C221.894001,45.3050913 221.894001,23.1359249 221.875912,0.966758494 C221.875912,0.233119069 222.028538,0 222.801841,0 C237.910651,0.0274257729 253.007025,0.0285685134 268.090962,0.00342822161 C268.881224,0.00342822161 269.003324,0.263973064 268.999933,0.98047138 C268.979582,12.0627691 268.97506,23.1462096 268.986366,34.2307928 Z M239.678848,52.6232017 C239.658498,52.1741047 239.638147,51.9375574 239.638147,51.6804408 C239.638147,46.424977 239.638147,41.1695133 239.621189,35.9106214 C239.621189,35.2009795 239.794165,34.9952862 240.506418,35.0192837 C243.647115,35.1289868 246.652144,34.5221916 249.375664,32.8972146 C254.605637,29.7775329 257.376641,25.1425773 256.89163,18.9752066 C256.410012,12.9003979 253.160781,8.54312825 247.65269,6.05766758 C244.528952,4.6486685 241.184754,4.46697276 237.840556,5.0292011 C231.535421,6.07823691 227.292427,9.82871136 225.332036,15.8486685 C222.893417,23.3324763 227.105885,31.3819406 234.489575,33.987389 C235.100078,34.203367 235.283229,34.4879094 235.283229,35.1358433 C235.260617,44.1337823 235.260617,53.1305785 235.283229,62.126232 C235.283229,62.3250689 235.283229,62.5273339 235.283229,62.7261708 C235.232353,63.7546373 234.815177,64.2620141 233.804456,64.5362718 C233.113156,64.6894213 232.401931,64.7287806 231.698221,64.6528313 C231.094502,64.6185491 230.918135,64.8242424 230.945268,65.420753 C230.96901,65.931558 230.965618,66.2503826 231.647346,66.2435262 C235.54778,66.209244 239.448213,66.2195286 243.345255,66.2435262 C243.796349,66.2435262 243.969324,66.1509642 244.003241,65.6401592 C244.057508,64.8585246 243.816699,64.570554 243.03322,64.6596878 C242.498669,64.7284977 241.956187,64.6982933 241.432347,64.570554 C240.119766,64.2277319 239.655106,63.6483624 239.651714,62.2667891 C239.651714,60.2372819 239.651714,58.2112029 239.651714,56.1816957 C239.621701,55.7855739 239.788175,55.4002281 240.096024,55.1532293 C241.859699,53.6345271 243.61659,52.1089685 245.329389,50.5319865 C245.817791,50.0828895 246.007725,50.2165901 246.346893,50.6691154 C247.432231,52.16382 248.558269,53.6310989 249.670741,55.1086624 C251.689922,57.7895317 253.709103,60.470401 255.728284,63.1512703 C256.274344,63.8814815 256.142069,64.2345883 255.263623,64.4985614 C254.635392,64.6771012 253.979044,64.7318042 253.330365,64.6596878 C252.652029,64.5979798 252.682554,64.9819406 252.685945,65.4447505 C252.689337,65.9075605 252.638462,66.2538108 253.313406,66.2469544 C257.127917,66.2149577 260.942428,66.2149577 264.756939,66.2469544 C265.435275,66.2470545 265.435275,65.9041322 265.435275,65.4104683 C265.435275,64.9168044 265.360658,64.601408 264.756939,64.663116 C262.898298,64.8550964 261.592501,63.9329048 260.507163,62.5101928 C257.15392,58.1197837 253.795025,53.7396592 250.430477,49.3698194 C249.965817,48.7630242 249.178947,48.1493725 249.155205,47.5185797 C249.128072,46.7986532 250.121834,46.3666973 250.681462,45.8284665 C252.540103,44.0320784 254.412311,42.2459749 256.315044,40.5044383 C258.010885,38.9583104 260.079811,38.4989287 262.294579,38.6017753 C262.860989,38.6292011 262.993265,38.3857974 262.92204,37.916131 C262.867773,37.5527395 263.156066,37.0350781 262.396329,37.0385063 C258.412234,37.0613611 254.428139,37.0613611 250.444044,37.0385063 C249.99295,37.0385063 249.887808,37.2030609 249.860675,37.6350168 C249.819975,38.3206612 249.935292,38.7526171 250.756079,38.61206 C251.038162,38.5867014 251.321916,38.5867014 251.603999,38.61206 C252.139885,38.61206 252.733429,38.550352 253.045464,39.1125803 C253.384632,39.7228038 253.01833,40.2747475 252.740212,40.7924089 C252.600138,41.0062234 252.425926,41.195056 252.224677,41.3512091 C250.522053,42.8961943 248.816037,44.4377512 247.10663,45.97588 L239.678848,52.6232017 Z" id="Shape" fill="#FD6602" fill-rule="nonzero"></path><path d="M9.21416703,52.8335217 L15.2170693,47.4588496 C17.482618,45.4366048 19.7470213,43.4132123 22.0102792,41.3886722 C22.2109767,41.2284963 22.3829553,41.0352098 22.518825,40.8171183 C22.7868424,40.3144264 23.1029655,39.7841897 22.8005869,39.1954203 C22.4982083,38.606651 21.8934511,38.6892853 21.3505441,38.6823991 C21.0647737,38.6567296 20.7772844,38.6567296 20.491514,38.6823991 C19.6977702,38.8166798 19.5156558,38.4654841 19.5637615,37.7321048 C19.5946866,37.2569576 19.6977702,37.0951321 20.1925715,37.0985752 C24.202524,37.1157907 28.2090403,37.1261199 32.2189928,37.0985752 C32.9508864,37.0985752 32.7756443,37.525519 32.7996971,37.9249181 C32.8271861,38.3966222 32.8271861,38.7409317 32.1537065,38.6961715 C29.284546,38.5068012 26.9067507,39.5397299 24.9584705,41.671006 C24.2712464,42.4078285 23.5015554,43.0482442 22.7696618,43.7368633 C21.5979448,44.8317677 20.4468444,45.9507737 19.2442023,47.0146903 C18.7631455,47.438191 18.7184759,47.7205248 19.1273742,48.2473184 C22.5634946,52.6510376 25.9755621,57.0788584 29.3945018,61.49635 C29.7381139,61.9508386 30.0817259,62.4018841 30.4459547,62.8735882 C31.4767908,64.2301678 32.7790804,65.0840555 34.5692991,64.8981283 C35.2874482,64.8223802 35.3286817,65.1632467 35.3424262,65.7416867 C35.3561706,66.3201268 35.1500034,66.4922816 34.565863,66.4888385 C30.7586416,66.4635891 26.9502749,66.4635891 23.1407628,66.4888385 C22.4982083,66.4888385 22.3916886,66.2719235 22.4123053,65.7072558 C22.432922,65.1425881 22.4123053,64.8189371 23.1201461,64.8946852 C23.7482831,64.9656992 24.3841991,64.914255 24.9928317,64.743189 C25.9274564,64.4746276 26.0545929,64.130318 25.4635802,63.3452923 C23.7523922,61.0820308 22.0343321,58.8233602 20.3093996,56.5692803 C18.8696652,54.6755778 17.4196224,52.7818752 16.007377,50.8778434 C15.6637649,50.3992531 15.4472893,50.2580862 14.9215629,50.7401196 C13.2035028,52.3273866 11.4064118,53.856121 9.61962923,55.3848554 C9.3323685,55.6184974 9.17923832,55.9795351 9.21073091,56.3489222 C9.21073091,58.3562469 9.21073091,60.3670147 9.21073091,62.3743393 C9.21073091,64.0270252 9.89795498,64.7845062 11.5713456,64.8946852 C12.0573099,64.9347107 12.5457325,64.9347107 13.0316967,64.8946852 C13.7842071,64.8258233 13.5746037,65.352617 13.5986566,65.7416867 C13.6227094,66.1307565 13.6570706,66.4922816 13.0179523,66.4853954 C9.00914518,66.4555552 5.0003381,66.4555552 0.99153103,66.4853954 C0.256201275,66.4853954 0.414262811,66.0722239 0.390209968,65.6624955 C0.362721006,65.1839053 0.390209968,64.8430388 1.04650896,64.884356 C1.81682975,64.9744334 2.59689951,64.9301669 3.35214571,64.7535183 C4.33144001,64.4711845 4.72659385,63.9822649 4.79188014,62.9803241 C4.79188014,62.7496367 4.79188014,62.5223924 4.79188014,62.291705 C4.79188014,50.1261009 4.79188014,37.9604968 4.79188014,25.7948926 C4.79188014,23.9149625 4.18368683,23.2952053 2.27664004,23.2401157 C1.847125,23.2401157 1.41760995,23.2401157 0.988094909,23.2401157 C0.180606627,23.2401157 -0.204238852,22.6238016 0.1084481,21.8628775 C0.239020673,21.5254542 0.489857458,21.6356332 0.689152439,21.6356332 C2.00518653,21.5943161 3.32122063,21.7010521 4.6338186,21.5082387 C5.98052703,21.357985 7.24554979,20.7856413 8.24861721,19.8727683 C8.47196503,19.6627395 8.69531285,19.4802554 9.00112756,19.5869914 C9.38597304,19.7247152 9.20729479,20.0827972 9.20729479,20.3341431 C9.20729479,30.7781995 9.20729479,41.2222559 9.20729479,51.6663123 L9.21416703,52.8335217 Z" id="Path" fill="#000000"></path><path d="M193.513858,21.5111111 L193.513858,44.5370153 C193.682492,44.6465972 193.749945,44.5609863 193.814026,44.4651021 C196.960728,40.0647025 201.362063,38.4586423 206.522249,38.7497193 C209.760012,38.9346388 212.680745,40.0099116 214.839254,42.6501513 C216.099241,44.2309579 216.960545,46.0998994 217.348521,48.0950037 C218.090509,51.5673813 218.21867,55.0500322 217.311422,58.5121364 C215.938745,63.7686449 212.377205,66.7307816 207.324944,67.9361829 C203.074401,69.011803 198.578435,68.3658048 194.788728,66.1349298 C194.643703,66.0493189 194.498678,65.9602836 194.357026,65.8678239 C193.166473,65.0767793 193.169846,65.0767793 192.238989,66.1246565 C191.770188,66.655444 191.298014,67.1828071 190.829213,67.7135946 C190.67411,67.9455554 190.428536,68.0989014 190.154679,68.1348001 C189.503753,68.1793178 189.190095,68.1074047 189.190095,67.2581447 C189.22607,54.1379909 189.23394,41.0178371 189.213704,27.8976833 C189.221519,27.5272812 189.206876,27.1567418 189.169859,26.7881662 C189.11634,26.0131835 188.542879,25.3783748 187.787064,25.2574435 C186.930493,25.0908239 186.05487,25.0493112 185.186735,25.1341638 C184.512201,25.1684082 184.576282,24.7574759 184.572909,24.3225726 C184.569536,23.8876693 184.49871,23.4904348 185.186735,23.5246792 C186.225346,23.5741951 187.265927,23.5616171 188.303082,23.4870104 C190.171542,23.3603063 191.81066,22.5761105 193.513858,21.5111111 Z M193.513858,54.6596465 C193.513858,56.173247 193.513858,57.6834231 193.513858,59.1970235 C193.513858,62.1249159 194.862927,64.2138215 197.378939,65.4945604 C199.665609,66.6588684 202.151268,66.7718748 204.63018,66.4465534 C209.142814,65.8575505 211.405876,63.7070051 212.407559,59.1764769 C213.034875,56.3376199 213.044993,53.4610941 212.82577,50.5777194 C212.719905,48.8141115 212.333808,47.0794971 211.682435,45.4410662 C210.562708,42.7426111 208.647031,41.1228531 205.712808,40.8523227 C203.351938,40.6365833 201.051777,40.8934159 199.024802,42.1262127 C195.72633,44.1329319 193.557703,46.9615156 193.517231,51.0811115 C193.517231,52.2591173 193.527349,53.4576697 193.527349,54.6562221 L193.513858,54.6596465 Z" id="Shape" fill="#000000" fill-rule="nonzero"></path><path d="M157.761753,68.4444444 C151.668587,68.4196858 147.19258,66.3930167 144.02084,61.6464374 C140.068516,55.7468143 140.60208,48.1636056 145.203243,42.7167113 C149.705599,37.400684 155.370597,36.2334923 161.58892,37.7968217 C167.379075,39.2505059 170.959222,43.4559327 172.372178,49.5394769 C174.018979,56.652272 170.65621,63.6872543 164.441181,66.7679328 C162.350578,67.8290234 160.073735,68.4005026 157.761753,68.4444444 Z M167.9324,52.842983 C167.945683,51.8659738 167.889529,50.8893004 167.764427,49.9214669 C167.247331,45.7655573 165.64664,42.2993519 162.11919,40.191333 C156.605698,36.9019748 149.603498,39.7668997 147.327618,46.2041384 C145.908075,50.2504028 145.937717,54.3957015 146.866513,58.5445372 C147.238806,60.2781113 148.034626,61.8738041 149.172036,63.1673235 C151.862909,66.2090956 155.192742,67.202977 158.986974,66.6547506 C162.497955,66.1489676 165.004387,64.1329093 166.535912,60.7268319 C167.612921,58.3287836 167.948868,55.7468143 167.929107,52.8465199 L167.9324,52.842983 Z" id="Shape" fill="#000000" fill-rule="nonzero"></path><path d="M64.7271921,68.4413548 C60.1952199,68.4201134 56.1909883,66.975704 53.017948,63.3575999 C48.1891217,57.8490188 47.8098082,50.166743 51.8800074,43.9961409 C57.9127419,34.8552948 70.0408801,36.020027 75.1434718,40.8382654 C80.0217738,45.4405504 81.8721642,52.3156561 79.431364,58.6845105 C77.4688288,63.7930469 73.6855885,66.7243484 68.7380205,68.0023676 C67.4223086,68.3207473 66.0756969,68.4681346 64.7271921,68.4413548 Z M53.9052119,53.1122055 C53.9052119,53.2290327 53.9052119,53.3494001 53.9052119,53.4662274 C53.9975665,56.4116898 54.3043157,59.3359109 55.884239,61.8317654 C58.4569744,65.8640752 62.1511584,67.2730824 66.5742842,66.6818658 C70.5092499,66.1543731 73.1710414,63.7965871 74.5728523,59.8563231 C76.0307357,55.721347 76.0472276,51.4447622 74.9191821,47.2566828 C73.672395,42.6296163 70.8127007,39.6204299 66.2510431,38.9371676 C61.7454579,38.2609857 58.3349344,40.3532553 55.8941342,44.30414 C54.2680335,46.9309827 53.9513892,50.0109734 53.9052119,53.1122055 Z" id="Shape" fill="#000000" fill-rule="nonzero"></path><path d="M105.53192,44.7614569 C106.977029,42.7387205 108.673264,40.9275644 110.575616,39.3760477 C113.855689,36.8042257 117.469781,35.5218185 121.598263,36.2821528 C122.762594,36.4721561 123.843333,37.0322741 124.694625,37.8869137 C125.584221,38.6973335 125.898741,40.0030738 125.482912,41.1595046 C125.062047,42.4419118 124.110091,42.9114269 122.8976,42.9709923 C122.257672,43.0334206 121.612678,42.9386494 121.013729,42.6941886 C120.200035,42.3821473 119.687635,41.5356497 119.764496,40.6304241 C119.764496,40.3676357 119.807918,40.1048474 119.804578,39.8455629 C119.784537,38.7523633 119.393734,38.3283981 118.351593,38.2232828 C116.818443,38.0691136 115.432261,38.5736672 114.116224,39.3024669 C110.495452,41.3066661 107.823295,44.3409956 105.69225,47.9534594 C105.510004,48.3146122 105.433322,48.7241185 105.471797,49.1307512 C105.471797,53.4521597 105.471797,57.7735681 105.471797,62.0949765 C105.471797,64.0781526 106.169898,64.8384869 108.09051,64.8630138 C110.12135,64.8875407 112.155529,64.9015561 114.183028,64.8630138 C114.851067,64.8630138 114.941253,65.0697407 114.957954,65.6969288 C114.977995,66.3976978 114.744181,66.4923016 114.156307,66.4887977 C107.144122,66.4677747 100.12971,66.4677747 93.1130711,66.4887977 C92.5485779,66.4887977 92.2813623,66.4292324 92.2847025,65.7109442 C92.2880427,64.9926561 92.5084956,64.8560061 93.1364525,64.8700215 C94.9735603,64.9120676 96.8106682,64.8980523 98.647776,64.8700215 C100.58843,64.8489984 101.199686,64.1902756 101.199686,62.1860765 C101.199686,55.1503564 101.199686,48.1146363 101.199686,41.0789162 C101.199686,39.0221594 100.448142,38.2337943 98.4674054,38.2197789 C96.7405241,38.2197789 95.0169829,38.1777328 93.2934417,38.2197789 C92.5752995,38.2443058 92.6487838,37.8448675 92.6254025,37.3578331 C92.6020211,36.8707987 92.6588044,36.5799796 93.2934417,36.5904912 C97.0246469,36.7049594 100.753039,36.2781269 104.372872,35.3220994 C105.35155,35.0487995 105.475137,35.1854494 105.475137,36.2366028 C105.475137,38.8060889 105.475137,41.375575 105.475137,43.9450611 C105.475137,44.1412764 105.501858,44.3199725 105.53192,44.7614569 Z" id="Path" fill="#000000"></path><path d="M140.606707,81.4169601 C141.333096,81.4169601 142.059484,81.437278 142.782525,81.4169601 C143.217688,81.4000285 143.348237,81.5320949 143.334848,81.9892478 C143.303538,84.9664062 141.124765,87.4728276 138.20996,87.884827 C134.896022,88.4029337 132.013901,87.1533824 130.487481,84.5323724 C129.401254,82.6281826 129.296283,80.3090884 130.205943,78.3124448 C131.115604,76.3158012 132.926699,74.8900671 135.063393,74.4885539 C137.571462,73.9496535 140.18316,74.6542011 142.092958,76.3848919 C142.300498,76.567753 142.812652,76.7472279 142.290455,77.1197228 C141.979146,77.3432198 141.838555,78.017097 141.189157,77.4380367 C139.609178,76.0327148 137.75806,75.3182018 135.632453,75.7177873 C132.589656,76.2833023 130.567819,78.9923566 130.972856,81.8605677 C131.404672,84.8608453 134.347047,87.0992013 137.419971,86.743638 C139.398291,86.5167547 140.88789,85.5787446 141.6511,83.6485435 C141.985841,82.7714872 141.942324,82.7003745 141.035176,82.6969882 C140.128027,82.6936019 139.247658,82.6665113 138.357246,82.6969882 C137.84844,82.7206924 137.754712,82.5005818 137.761407,82.0502015 C137.768102,81.5998212 137.814966,81.372938 138.343857,81.3932559 C139.100372,81.4474369 139.853539,81.4135738 140.606707,81.4169601 Z" id="Path" fill="#000000"></path><path d="M111.917726,81.1130597 C111.961877,82.9308853 111.266872,84.6890645 109.991217,85.9866157 C108.715561,87.284167 106.968033,88.0104468 105.147184,87.9998153 C101.221493,88.0269686 98.1727103,85.0570764 98.1761091,81.2114904 C98.1460383,79.3917868 98.8489288,77.6362349 100.127025,76.3388483 C101.405121,75.0414617 103.151368,74.3109104 104.973842,74.3111581 C108.90633,74.2975815 111.900732,77.2267437 111.917726,81.1130597 Z M105.119993,75.5941515 C102.077155,75.5983212 99.5984653,78.035803 99.5474958,81.0740062 C99.4965263,84.1122094 101.892065,86.6312361 104.933055,86.7371869 C107.975893,86.7330172 110.454583,84.2955354 110.505553,81.2573322 C110.556522,78.219129 108.160984,75.7001023 105.119993,75.5941515 Z" id="Shape" fill="#000000" fill-rule="nonzero"></path><path d="M55.9775754,88 C52.0952335,88 49.0918484,85.0628388 49.0884547,81.2637948 C49.0444102,78.4876277 50.688701,75.9600242 53.2507457,74.865522 C55.8127904,73.7710198 58.7848906,74.3265071 60.7741994,76.2716599 C62.7635082,78.2168126 63.3758213,81.1661767 62.324184,83.7375602 C61.2725467,86.3089438 58.7653529,87.9927979 55.9775754,88 Z M50.4425233,81.2401353 C50.496941,84.265715 52.9996859,86.6767161 56.0376782,86.6301869 C59.0756705,86.5836577 61.5027961,84.0971519 61.4637779,81.0713364 C61.4247597,78.0455208 58.9343178,75.6219157 55.8961277,75.6531071 C52.8316568,75.6531071 50.4459169,78.1035581 50.4459169,81.2401353 L50.4425233,81.2401353 Z" id="Shape" fill="#000000" fill-rule="nonzero"></path><path d="M162.582276,81.6890778 L166.89781,87.882934 C165.973053,88.1596355 165.346915,87.9467882 164.791419,87.0847566 C163.709324,85.3997156 162.518057,83.7998135 161.374954,82.1608893 C161.156609,81.8487133 160.951107,81.4975153 160.536893,81.6642456 C160.122679,81.830976 160.312126,82.2744079 160.308915,82.5901314 C160.286438,84.1581064 160.280016,85.722534 160.308915,87.290509 C160.308915,87.8261747 160.196531,88 159.685988,88 C159.175445,88 159.043796,87.8935764 159.043796,87.3188887 C159.066272,83.210936 159.05985,79.0994358 159.043796,74.9914831 C159.043796,74.523219 159.12407,74.2819921 159.612136,74.3139192 C160.973584,74.367131 162.341454,74.2571599 163.702902,74.4203428 C165.594159,74.6473799 166.779005,75.981223 166.807903,77.907491 C166.836802,79.8337589 165.709754,81.2350036 163.831341,81.5400847 C163.468502,81.6003915 163.09603,81.6287711 162.582276,81.6890778 Z M162.19375,75.6584046 L162.19375,75.700974 C161.712106,75.700974 161.230461,75.700974 160.752028,75.700974 C160.402033,75.700974 160.289649,75.8464197 160.29286,76.2224499 C160.29286,77.432132 160.29286,78.6418141 160.29286,79.8514962 C160.29286,80.1636722 160.357079,80.3587823 160.691019,80.3481399 C161.757059,80.3091179 162.82631,80.4687534 163.882716,80.1920519 C164.878369,80.0067065 165.584106,79.0167405 165.513885,77.9039435 C165.516036,76.7803964 164.727361,75.8484988 163.712535,75.7754706 C163.211625,75.700974 162.697871,75.700974 162.19375,75.6654995 L162.19375,75.6584046 Z" id="Shape" fill="#000000" fill-rule="nonzero"></path><path d="M33.379562,81.1590927 C33.379562,83.1929716 33.379562,85.2233132 33.379562,87.2571921 C33.379562,87.7630089 33.3136823,87.9893885 32.8382022,87.9929256 C32.3627221,87.9964628 32.2481486,87.784232 32.2653346,87.2288946 C32.2911136,85.5204364 32.2653346,83.8119782 32.2825206,82.10352 C32.2825206,81.5835544 32.1994548,81.3960838 31.7354321,81.3960838 C30.234519,81.4349928 28.7307416,81.4420672 27.2269642,81.3960838 C26.708519,81.3960838 26.6540966,81.6436865 26.6540966,82.1671892 C26.674147,83.8756474 26.6540966,85.5841057 26.6712826,87.2925639 C26.6712826,87.8372897 26.5538448,88 26.098415,88 C25.6429853,88 25.5255474,87.8655871 25.5255474,87.2925639 C25.544643,83.1988669 25.544643,79.1051699 25.5255474,75.0114729 C25.5255474,74.4419868 25.6888147,74.3429457 26.098415,74.3252598 C26.5681665,74.3252598 26.6512323,74.5374907 26.6426392,75.032696 C26.6197245,76.4475682 26.6426392,77.8624404 26.6254532,79.2773127 C26.6254532,79.8220385 26.7056547,80.0519552 27.1983208,80.0378065 C28.7011434,79.9977184 30.2039661,79.9977184 31.7067887,80.0378065 C32.1765401,80.0378065 32.2538772,79.83265 32.2452842,79.3303704 C32.2195052,77.9473328 32.2452842,76.560758 32.2452842,75.1777204 C32.2452842,74.6506804 32.2452842,74.3111111 32.8181518,74.3111111 C33.3910194,74.3111111 33.3509187,74.6648292 33.3509187,75.1388114 C33.3766977,77.1408556 33.379562,79.1570485 33.379562,81.1590927 Z" id="Path" fill="#000000"></path><path d="M233.656934,81.2076487 C233.656934,79.1425838 233.674052,77.0775188 233.656934,75.0124539 C233.656934,74.4350858 233.810991,74.3394482 234.227513,74.3359061 C234.644035,74.3323639 234.798092,74.4953022 234.798092,75.0443331 C234.772415,76.4895244 234.798092,77.9347156 234.778121,79.3799068 C234.778121,79.9360221 234.900796,80.0883339 235.3487,80.063539 C236.845518,80.030479 238.342336,80.030479 239.839154,80.063539 C240.287058,80.063539 240.409732,79.9006007 240.389762,79.3551119 C240.361233,77.9099207 240.389762,76.4647294 240.369792,75.0195382 C240.369792,74.4705072 240.489613,74.3111111 240.94037,74.3111111 C241.391127,74.3111111 241.510949,74.4598808 241.510949,75.0195382 C241.493832,79.121331 241.493832,83.2231237 241.510949,87.3249165 C241.510949,87.9164531 241.328364,87.9766694 240.94037,87.9979222 C240.483907,88.0227172 240.369792,87.8278997 240.392615,87.2894951 C240.418291,85.5786438 240.392615,83.8677924 240.409732,82.156941 C240.409732,81.6327049 240.364086,81.3741291 239.839154,81.3882976 C238.344238,81.4378875 236.843616,81.4272611 235.3487,81.3882976 C234.889384,81.3882976 234.798092,81.5760308 234.80665,82.0967247 C234.829473,83.8075761 234.80665,85.5184274 234.82662,87.2292788 C234.82662,87.7889362 234.723916,87.9731273 234.256042,87.9943801 C233.711139,88.019175 233.705433,87.6968407 233.708286,87.2009418 C233.665493,85.2208881 233.656934,83.2160395 233.656934,81.2076487 Z" id="Path" fill="#000000"></path><path d="M194.386861,87.8757569 C193.557302,88.139079 193.013909,87.9860675 192.69559,87.0146225 C192.377271,86.0431775 191.875677,85.1571343 191.512343,84.2034814 C191.393291,83.7097577 190.95995,83.3920763 190.502725,83.4633328 C189.139419,83.5131505 187.772898,83.5024753 186.409592,83.4633328 C186.032913,83.4062708 185.675501,83.6639066 185.570387,84.0682619 C185.213484,84.9934476 184.763336,85.872374 184.432155,86.808235 C184.100975,87.7440959 183.666903,88.2778569 182.605839,87.8508481 C182.769822,87.4487481 182.927374,87.0075057 183.12351,86.5733801 C184.765479,82.720812 186.409592,78.8706161 188.055848,75.0227924 C188.171601,74.7523535 188.190893,74.3111111 188.551011,74.3111111 C188.853254,74.3111111 188.872546,74.7487951 188.975437,75.001442 C190.737445,79.1481718 192.493023,83.2996461 194.242171,87.4558649 C194.300047,87.5804092 194.335416,87.719187 194.386861,87.8757569 Z M186.419238,82.1111383 C187.734314,82.1111383 188.936853,82.1111383 190.139391,82.1111383 C190.335527,82.1111383 190.6442,82.1680728 190.460926,81.7552976 C189.84358,80.2785589 189.213372,78.808937 188.531719,77.17207 L186.419238,82.1111383 Z" id="Shape" fill="#000000" fill-rule="nonzero"></path><path d="M0.00208739074,81.1498924 C0.00208739074,79.1452101 0.0313294535,77.1405277 0.00208739074,75.1287617 C0.00208739074,74.4487281 0.180788885,74.2858034 0.775377495,74.3141381 C2.1237615,74.3814331 3.47864374,74.2645523 4.82702774,74.4381026 C6.63028828,74.6683223 7.79672167,75.9858874 7.85195668,77.8453542 C7.90719169,79.7862834 6.84797919,81.1782271 4.98298541,81.4722 C4.07315301,81.6171515 3.15207116,81.6598777 2.23423151,81.5997063 C1.40895552,81.5430368 1.25949609,81.8688862 1.2789908,82.6870516 C1.34072404,84.1285812 1.29848551,85.5736525 1.2789908,87.0187239 C1.2789908,87.486247 1.4414467,87.9891885 0.658409244,87.999814 C-0.124628215,88.0104396 0.00858562691,87.5641675 0.00858562691,87.0647679 C0.00533650882,85.0990458 0.00208739074,83.12624 0.00208739074,81.1498924 Z M1.2789908,78.02953 C1.2789908,78.6174757 1.2789908,79.2054214 1.2789908,79.8004508 C1.2789908,80.1546349 1.32122933,80.3636036 1.7111235,80.3458944 C2.73134658,80.2963086 3.7580679,80.466317 4.77179274,80.2148462 C5.94472437,79.9244152 6.59129886,79.0672895 6.52306738,77.8559797 C6.4548359,76.6446699 5.71078786,75.8583811 4.50211594,75.769835 C3.64434876,75.7060819 2.77683423,75.769835 1.90282147,75.6954563 C1.33097669,75.6494124 1.22050667,75.9115087 1.25299785,76.4534104 C1.28548903,76.9953122 1.2789908,77.4876282 1.2789908,78.02953 Z" id="Shape" fill="#000000" fill-rule="nonzero"></path><path d="M210.105123,81.0476118 C210.105123,79.0412643 210.105123,77.0349168 210.105123,75.0214797 C210.105123,74.5925609 210.105123,74.2877095 210.650027,74.312523 C212.088965,74.3692396 213.531167,74.2487169 214.96358,74.4330457 C216.758174,74.6634566 217.900189,75.9360339 217.94587,77.7828662 C218.011128,79.8104824 217.022469,81.1220523 215.146302,81.4729859 C214.095528,81.6279545 213.033588,81.6742442 211.974764,81.6112324 C211.514695,81.6112324 211.37439,81.749479 211.380916,82.2528383 C211.407019,83.9047074 211.380916,85.5565766 211.397231,87.2155353 C211.397231,87.7224393 211.371127,88.0202012 210.767491,87.9989325 C210.235638,87.9776638 210.085545,87.8216933 210.095334,87.2474383 C210.105123,85.1772847 210.105123,83.1142207 210.105123,81.0476118 Z M213.25382,75.6595408 L213.25382,75.7020782 C212.793752,75.7020782 212.33042,75.7020782 211.870351,75.7020782 C211.544061,75.7020782 211.377653,75.7552499 211.384179,76.1735344 C211.407019,77.4106639 211.384179,78.6548829 211.384179,79.8884676 C211.384179,80.1507816 211.413545,80.3528343 211.710469,80.3457447 C212.819855,80.3138416 213.935766,80.4839913 215.0321,80.1862294 C216.005992,79.9811725 216.692943,79.0294164 216.643973,77.9530158 C216.652157,76.8772074 215.919585,75.9641757 214.937476,75.8261456 C214.382784,75.7020782 213.808513,75.7020782 213.240769,75.6595408 L213.25382,75.6595408 Z" id="Shape" fill="#000000" fill-rule="nonzero"></path><path d="M259.182482,74.4295882 C259.991224,74.1073395 260.471944,74.4543765 260.865004,75.3255101 C261.566291,76.8836353 262.35241,78.3815601 263.16398,80.0282151 C263.955755,78.4098897 264.736219,76.9473767 265.397917,75.4069576 C265.779666,74.518118 266.223626,74.1108807 267.032368,74.4189646 C267.071956,74.8120371 266.817457,75.0776266 266.670413,75.3892516 C265.786264,77.233033 264.892689,79.069732 263.989689,80.8993487 C263.798394,81.2703045 263.699928,81.7043526 263.706912,82.1458488 C263.723878,83.8845748 263.706912,85.626842 263.721051,87.365568 C263.721051,87.8790411 263.596629,88.0277712 263.200741,87.9959005 C262.852926,87.9675709 262.575804,88.02423 262.589943,87.3726504 C262.626704,85.662254 262.589943,83.9518575 262.609737,82.241461 C262.616882,81.6840573 262.486533,81.1374654 262.236472,80.6762535 C261.280686,78.7852562 260.347522,76.8730117 259.408703,74.9678496 C259.321042,74.7907899 259.250348,74.610189 259.182482,74.4295882 Z" id="Path" fill="#000000"></path><path d="M79.7778094,81.8790622 C79.7778094,80.0491643 79.7591573,78.2228126 79.7778094,76.3929146 C79.7778094,75.8645139 79.6696272,75.6481887 79.0690295,75.6836519 C78.4684318,75.719115 77.7671128,75.6836519 77.1180196,75.7013834 C76.4689264,75.719115 76.5882999,75.3644836 76.5808391,74.9921206 C76.5733782,74.6197577 76.5547261,74.3041358 77.1366717,74.3112284 C79.4010369,74.3360526 81.6654022,74.3325063 83.9297674,74.3112284 C84.5602085,74.3112284 84.4072612,74.7084155 84.4221829,75.0204912 C84.4371046,75.3325668 84.4893305,75.6907445 83.9409587,75.6659203 C83.3925868,75.6410961 82.7584154,75.7013834 82.1727393,75.6659203 C81.4714203,75.6056329 81.2252125,75.7971339 81.2326734,76.5241282 C81.2774384,80.0704421 81.2326734,83.616756 81.2587863,87.141792 C81.2587863,87.6701928 81.2587863,88 80.5127022,88 C79.7666181,88 79.7666181,87.6914707 79.7666181,87.1559773 C79.7927311,85.4182835 79.7778094,83.6486729 79.7778094,81.8790622 Z" id="Path" fill="#000000"></path><path d="M239.067761,52.6599188 L246.567358,45.8622873 C248.294871,44.2974485 250.018956,42.729122 251.739613,41.1573078 C251.942994,40.9984431 252.119051,40.8063314 252.260609,40.588804 C252.5451,40.0586655 252.915281,39.5006249 252.569093,38.8798048 C252.253754,38.311301 251.653923,38.3775683 251.112361,38.3705928 C250.82729,38.3447938 250.540531,38.3447938 250.25546,38.3705928 C249.429408,38.5135907 249.309442,38.0776215 249.350573,37.376583 C249.374566,36.9371261 249.48425,36.7662262 249.940121,36.7697139 C253.966413,36.7836649 257.992705,36.7836649 262.018997,36.7697139 C262.790208,36.7697139 262.498862,37.2963647 262.550276,37.6625788 C262.622256,38.1543521 262.488579,38.4019826 261.916169,38.3601295 C259.674516,38.2554969 257.58025,38.7089049 255.873303,40.2958327 C253.94699,42.0676115 252.05838,43.884731 250.180053,45.7123139 C249.614498,46.2633789 248.61021,46.6993481 248.637631,47.4317763 C248.661625,48.073523 249.456829,48.6978308 249.92641,49.3151632 C253.315168,53.7725121 256.703926,58.2298611 260.092684,62.68721 C261.189517,64.1346277 262.492007,65.0728334 264.387472,64.8775192 C265.001013,64.8147397 265.072993,65.1111987 265.072993,65.6378495 C265.072993,66.1645003 265.072993,66.4923491 264.387472,66.4888613 C260.53256,66.4539838 256.677648,66.4539838 252.822736,66.4888613 C252.137215,66.4888613 252.192057,66.140086 252.188629,65.672727 C252.185201,65.2053681 252.164636,64.8112519 252.839874,64.8740315 C253.495423,64.9474002 254.158723,64.8917473 254.793608,64.7101071 C255.67793,64.44155 255.821889,64.0823114 255.26319,63.3394199 C253.227193,60.6073464 251.186626,57.8799232 249.141489,55.1571503 C248.017235,53.6539285 246.87927,52.16117 245.782437,50.6405095 C245.439677,50.1801261 245.258014,50.0441037 244.754156,50.5009994 C243.023216,52.105366 241.244289,53.6399775 239.465363,55.2024911 C239.154253,55.4537791 238.986015,55.8458165 239.016347,56.2488171 C239.033485,58.3135672 239.016347,60.3748295 239.016347,62.4395795 C239.016347,63.8346809 239.485929,64.4380623 240.815839,64.7833499 C241.345227,64.9133074 241.893455,64.9440363 242.433668,64.8740315 C243.228872,64.7833499 243.461949,65.0763212 243.413963,65.871529 C243.379687,66.3877165 243.204879,66.4853736 242.749008,66.4853736 C238.807263,66.4853736 234.865518,66.4574716 230.927201,66.4853736 C230.24168,66.4853736 230.24168,66.167988 230.217687,65.6483127 C230.190266,65.0414436 230.368502,64.8321784 230.978615,64.867056 C231.689778,64.9443241 232.408536,64.9042813 233.107157,64.7484723 C234.135439,64.4694521 234.550179,63.9637278 234.601593,62.9069385 C234.601593,62.7046488 234.601593,62.4988714 234.601593,62.2965817 C234.601593,53.1423914 234.601593,43.9893636 234.601593,34.8374985 C234.601593,34.1783131 234.416502,33.8888296 233.799533,33.6691011 C226.330784,31.0184084 222.070272,22.8256755 224.545002,15.2153974 C226.529585,9.08741457 230.81409,5.27530001 237.186006,4.20804745 C240.565624,3.64303139 243.945241,3.82788232 247.102065,5.25437349 C252.671921,7.78299477 255.952138,12.2298805 256.438858,18.3962286 C256.932433,24.6741849 254.128653,29.3826521 248.843288,32.5599955 C246.101204,34.2131906 243.054064,34.830523 239.880103,34.7189149 C239.160306,34.6945006 238.978643,34.9037658 238.985498,35.6257308 C239.016347,40.9724569 238.985498,46.319183 239.002636,51.6693968 C239.02663,51.9519048 239.047195,52.2065108 239.067761,52.6599188 Z M239.02663,26.0483597 C239.02663,28.2003036 239.02663,30.3487598 239.02663,32.5007037 C239.02663,32.8738933 239.02663,33.1598891 239.537343,33.1982544 C244.678749,33.4319339 248.791873,31.1579186 250.505676,25.9960434 C251.92015,21.8662842 251.92015,17.3710881 250.505676,13.241329 C249.024951,8.82932081 245.940107,6.14026288 241.3574,5.66244065 C236.641017,5.17066741 232.976908,7.31912355 230.776387,11.4521114 C228.15427,16.3768193 228.32565,21.6293761 230.190266,26.7982267 C230.896353,28.7618319 232.318808,30.2162251 234.022328,31.3671838 C234.365088,31.5904 234.625586,31.7822265 234.618731,31.1160655 C234.618731,28.9362196 234.618731,26.7563737 234.594738,24.5765278 C234.594738,23.5999568 234.049748,23.0419162 233.110585,22.832651 C232.26617,22.6764951 231.404823,22.6377759 230.550165,22.7175552 C229.864644,22.7454572 229.919486,22.3443655 229.91263,21.8874698 C229.905775,21.4305741 229.91263,21.036458 230.574158,21.0887743 C231.235686,21.1410906 232.000041,21.0887743 232.716411,21.0887743 C234.738697,21.0887743 236.641017,20.7120969 238.162873,19.2053874 C238.330941,19.0028203 238.610241,18.9374541 238.848394,19.0449508 C239.108892,19.1739976 239.002636,19.4565057 239.006064,19.6727464 C239.02663,21.7967882 239.023202,23.9278056 239.023202,26.0518475 L239.02663,26.0483597 Z" id="Shape" fill="#F9F9F9" fill-rule="nonzero"></path><path d="M239.417415,28.1069165 C239.417415,26.0028747 239.417415,23.8953723 239.417415,21.7913304 C239.417415,21.5767735 239.518232,21.2964653 239.267815,21.1684233 C239.041852,21.0617637 238.776848,21.1266209 238.617383,21.3276107 C237.173423,22.8225878 235.365222,23.1894109 233.449699,23.1963321 C232.773249,23.1963321 232.090295,23.2413198 231.417098,23.1963321 C230.7439,23.1513443 230.786178,23.5112462 230.789431,23.9888083 C230.792683,24.4663705 230.750405,24.8401147 231.394333,24.81243 C232.205245,24.7332719 233.022504,24.7716897 233.823697,24.9266296 C234.714789,25.1481077 235.215622,25.7018029 235.231883,26.6569272 C235.264405,28.8197991 235.231883,30.9826711 235.254648,33.145543 C235.254648,33.8065167 235.000979,33.616184 234.688772,33.3947059 C233.062691,32.2492489 231.722801,30.8061807 231.052856,28.8613263 C229.28368,23.7188819 229.11782,18.5037651 231.608975,13.6347077 C233.696863,9.53390252 237.173423,7.40563652 241.648397,7.89011984 C245.980276,8.35037899 248.907221,11.0184978 250.321911,15.3823083 C251.663986,19.4799099 251.663986,23.940103 250.321911,28.0377046 C248.695831,33.1593854 244.763968,35.4156934 239.914995,35.1838336 C239.420667,35.1596094 239.430423,34.8758406 239.430423,34.4917145 C239.420667,32.3738303 239.417415,30.2386431 239.417415,28.1069165 Z" id="Path" fill="#FD6602"></path></g></g></g></svg> 