<?xml version="1.0" encoding="UTF-8"?> <svg xmlns="http://www.w3.org/2000/svg" xmlns:xlink="http://www.w3.org/1999/xlink" width="500px" height="300px" viewBox="0 0 500 300"><!-- Generator: Sketch 52.2 (67145) - http://www.bohemiancoding.com/sketch --><title>logo-good</title><desc>Created with Sketch.</desc><defs><linearGradient x1="22.5759466%" y1="7.39603251%" x2="50%" y2="100%" id="linearGradient-1"><stop stop-color="#4C91CA" offset="0%"></stop><stop stop-color="#90BCDF" offset="100%"></stop></linearGradient><linearGradient x1="50%" y1="3.46820809%" x2="50%" y2="96.6198519%" id="linearGradient-2"><stop stop-color="#ECF6FD" offset="0%"></stop><stop stop-color="#C6DFF2" offset="100%"></stop></linearGradient><linearGradient x1="35.6136356%" y1="6.35802237%" x2="50%" y2="87.4165481%" id="linearGradient-3"><stop stop-color="#B8DCFA" offset="0%"></stop><stop stop-color="#3380BF" offset="100%"></stop></linearGradient><linearGradient x1="5.46820841%" y1="4.07739408%" x2="69.9609018%" y2="76.0166582%" id="linearGradient-4"><stop stop-color="#E8F1F8" offset="0%"></stop><stop stop-color="#9BC6E8" offset="100%"></stop></linearGradient></defs><g id="Page-1" stroke="none" stroke-width="1" fill="none" fill-rule="evenodd"><g id="logo-good" transform="translate(81.000000, 118.000000)"><g id="Group"><g id="Path"><g id="path-2-link" fill="#87B5DB"><polygon id="path-2" points="35.4982216 51.6547662 25.5024563 59.8338887 12.3840797 59.8338887 0.741800055 51.7074156 7.00899947 0.698207608 18.1455792 41.6953644"></polygon></g><g id="path-2-link" fill="url(#linearGradient-1)"><polygon id="path-2" points="35.4982216 51.6547662 25.5024563 59.8338887 12.3840797 59.8338887 0.741800055 51.7074156 7.00899947 0.698207608 18.1455792 41.6953644"></polygon></g></g><polygon id="Path-2" fill="url(#linearGradient-2)" points="7.00562286 0.707143611 38.9882081 25.5325273 35.4851976 51.6664151 17.7758747 41.528631"></polygon><g id="Path-3"><g id="path-5-link" fill="#D8D8D8"><polygon id="path-5" points="17.7982238 41.5224797 0.742381702 51.7238699 7.00441397 0.709845081"></polygon></g><g id="path-5-link" fill="url(#linearGradient-3)"><polygon id="path-5" points="17.7982238 41.5224797 0.742381702 51.7238699 7.00441397 0.709845081"></polygon></g></g><g id="Path-4" transform="translate(6.454545, 0.000000)"><g id="path-7-link" fill="#D8D8D8"><polygon id="path-7" points="11.3289996 41.5339258 32.5581747 25.5642401 0.56611939 0.771969498"></polygon></g><g id="path-7-link" fill="url(#linearGradient-4)"><polygon id="path-7" points="11.3289996 41.5339258 32.5581747 25.5642401 0.56611939 0.771969498"></polygon></g></g></g><path d="M227.945873,42.421875 L224.46334,42.421875 L224.46334,11.3958333 L213,11.3958333 L213,8.3125 L239.409213,8.3125 L239.409213,11.3958333 L227.945873,11.3958333 L227.945873,42.421875 Z M244.342802,24.8372396 C244.342802,24.2269934 244.326679,23.440109 244.294434,22.4765625 C244.262189,21.513016 244.21382,20.6458372 244.149328,19.875 L247.293282,19.875 C247.357774,20.4852461 247.406143,21.1597185 247.438388,21.8984375 C247.470633,22.6371565 247.486756,23.2473934 247.486756,23.7291667 L247.583493,23.7291667 C248.228409,22.4123198 249.195771,21.3444051 250.485605,20.5253906 C251.775439,19.7063761 253.226479,19.296875 254.838772,19.296875 C255.257967,19.296875 255.63685,19.3129339 255.975432,19.3450521 C256.314013,19.3771703 256.66065,19.4414057 257.015355,19.5377604 L256.580038,22.6210937 C256.386562,22.5568574 256.06411,22.4926218 255.612668,22.4283854 C255.161226,22.3641491 254.709791,22.3320312 254.258349,22.3320312 C253.387712,22.3320312 252.549333,22.4926199 251.743186,22.8138021 C250.937041,23.1349842 250.235703,23.6408386 249.639155,24.3313802 C249.042608,25.0219218 248.558926,25.9051595 248.1881,26.9811198 C247.817273,28.0570801 247.631862,29.3498189 247.631862,30.859375 L247.631862,42.421875 L244.342802,42.421875 L244.342802,24.8372396 Z M276.024184,27.8723958 C276.024184,25.9131847 275.508258,24.4518277 274.476392,23.4882812 C273.444525,22.5247348 271.945116,22.0429687 269.978119,22.0429687 C268.623793,22.0429687 267.366224,22.2838518 266.205374,22.765625 C265.044524,23.2473982 264.061041,23.8897529 263.254894,24.6927083 L261.416891,22.5247396 C262.35202,21.5933113 263.585406,20.8224857 265.117083,20.2122396 C266.648759,19.6019934 268.381948,19.296875 270.316699,19.296875 C271.542041,19.296875 272.686751,19.4654931 273.750864,19.8027344 C274.814977,20.1399756 275.750093,20.64583 276.556238,21.3203125 C277.362383,21.994795 277.991168,22.8459151 278.44261,23.8736979 C278.894052,24.9014808 279.11977,26.1058958 279.11977,27.4869792 L279.11977,37.3632812 C279.11977,38.230473 279.152015,39.1297696 279.216507,40.0611979 C279.280999,40.9926262 279.377734,41.7795107 279.506718,42.421875 L276.556238,42.421875 C276.459501,41.8758654 276.378887,41.2816872 276.314395,40.6393229 C276.249903,39.9969586 276.217658,39.3706628 276.217658,38.7604167 L276.120921,38.7604167 C275.089055,40.2699728 273.920161,41.3539464 272.614203,42.0123698 C271.308246,42.6707932 269.736286,43 267.898273,43 C267.027635,43 266.132825,42.8795584 265.21382,42.6386719 C264.294814,42.3977852 263.456433,42.0043429 262.698656,41.4583333 C261.94088,40.9123237 261.312095,40.2057334 260.812284,39.3385417 C260.312474,38.4713499 260.062572,37.4114646 260.062572,36.1588542 C260.062572,34.4244705 260.505946,33.0514373 261.392706,32.0397135 C262.279467,31.0279898 263.464485,30.273223 264.947793,29.7753906 C266.431101,29.2775583 268.132045,28.9563809 270.050672,28.811849 C271.969299,28.667317 273.96045,28.5950521 276.024184,28.5950521 L276.024184,27.8723958 Z M275.056814,31.1484375 C273.702488,31.1484375 272.340121,31.2046435 270.969674,31.3170573 C269.599226,31.4294711 268.357779,31.6542952 267.245298,31.9915365 C266.132816,32.3287777 265.221884,32.8185732 264.512476,33.4609375 C263.803068,34.1033018 263.448369,34.9544217 263.448369,36.0143229 C263.448369,36.8172783 263.601535,37.4917508 263.907869,38.0377604 C264.214204,38.58377 264.625333,39.025389 265.141267,39.3626302 C265.657201,39.6998715 266.229555,39.9407545 266.858349,40.0852865 C267.487144,40.2298184 268.12399,40.3020833 268.768906,40.3020833 C269.929756,40.3020833 270.961607,40.1013474 271.864491,39.6998698 C272.767375,39.298392 273.525141,38.7523905 274.137812,38.061849 C274.750483,37.3713074 275.218041,36.5763935 275.540499,35.6770833 C275.862957,34.7777732 276.024184,33.8303001 276.024184,32.8346354 L276.024184,31.1484375 L275.056814,31.1484375 Z M306.206142,38.6158854 C305.238766,40.0612051 303.981197,41.153208 302.433397,41.8919271 C300.885597,42.6306461 299.289451,43 297.644914,43 C295.871392,43 294.267185,42.6948816 292.832246,42.0846354 C291.397306,41.4743893 290.171983,40.6393283 289.156238,39.5794271 C288.140493,38.5195259 287.350483,37.2669343 286.78618,35.8216146 C286.221878,34.3762949 285.939731,32.8185847 285.939731,31.1484375 C285.939731,29.4782903 286.221878,27.9205801 286.78618,26.4752604 C287.350483,25.0299407 288.140493,23.7773491 289.156238,22.7174479 C290.171983,21.6575467 291.397306,20.8224857 292.832246,20.2122396 C294.267185,19.6019934 295.871392,19.296875 297.644914,19.296875 C299.289451,19.296875 300.885597,19.6742583 302.433397,20.4290365 C303.981197,21.1838146 305.238766,22.2999058 306.206142,23.7773437 L306.302879,23.7773437 L306.302879,6 L309.591939,6 L309.591939,42.421875 L306.302879,42.421875 L306.302879,38.6158854 L306.206142,38.6158854 Z M289.422265,31.1484375 C289.422265,32.401048 289.615737,33.5813746 290.002687,34.6894531 C290.389637,35.7975316 290.94587,36.7610636 291.671401,37.5800781 C292.396933,38.3990926 293.291741,39.0414473 294.355854,39.5071615 C295.419967,39.9728756 296.629167,40.2057292 297.983493,40.2057292 C299.24108,40.2057292 300.401914,39.9728756 301.466027,39.5071615 C302.53014,39.0414473 303.449133,38.4071221 304.223033,37.6041667 C304.996933,36.8012113 305.601534,35.8457087 306.036852,34.7376302 C306.472171,33.6295517 306.689827,32.4331661 306.689827,31.1484375 C306.689827,29.8637089 306.472171,28.6673233 306.036852,27.5592448 C305.601534,26.4511663 304.996933,25.4876343 304.223033,24.6686198 C303.449133,23.8496053 302.53014,23.2072506 301.466027,22.7415365 C300.401914,22.2758223 299.24108,22.0429688 297.983493,22.0429688 C296.629167,22.0429688 295.419967,22.2838518 294.355854,22.765625 C293.291741,23.2473982 292.396933,23.8977824 291.671401,24.7167969 C290.94587,25.5358114 290.389637,26.4993434 290.002687,27.6074219 C289.615737,28.7155004 289.422265,29.895827 289.422265,31.1484375 Z M335.662572,29.4140625 C335.565835,27.2942603 334.88062,25.5358143 333.60691,24.1386719 C332.333199,22.7415294 330.519398,22.0429688 328.165451,22.0429688 C327.069093,22.0429688 326.053363,22.2437045 325.118234,22.6451823 C324.183105,23.0466599 323.360848,23.5926615 322.65144,24.2832031 C321.942031,24.9737447 321.377736,25.7606292 320.958541,26.6438802 C320.539346,27.5271311 320.297505,28.450516 320.233013,29.4140625 L335.662572,29.4140625 Z M339,30.4739583 L339,31.1966146 C339,31.4535604 338.983877,31.726561 338.951631,32.015625 L320.184645,32.015625 C320.21689,33.1397626 320.442609,34.1996478 320.861804,35.1953125 C321.280999,36.1909772 321.861416,37.058156 322.603071,37.796875 C323.344726,38.535594 324.21535,39.1217426 325.214971,39.5553385 C326.214592,39.9889345 327.294812,40.2057292 328.455662,40.2057292 C330.164691,40.2057292 331.639916,39.8122869 332.881382,39.0253906 C334.122848,38.2384943 335.066024,37.3311683 335.71094,36.3033854 L338.177735,38.2304687 C336.823409,39.9327343 335.332062,41.153208 333.703647,41.8919271 C332.075231,42.6306461 330.32592,43 328.455662,43 C326.778878,43 325.223039,42.702911 323.7881,42.108724 C322.35316,41.5145369 321.119774,40.6875054 320.087908,39.6276042 C319.056042,38.567703 318.241845,37.3151114 317.645298,35.8697917 C317.04875,34.4244719 316.75048,32.850703 316.75048,31.1484375 C316.75048,29.446172 317.040687,27.8724031 317.621113,26.4270833 C318.201539,24.9817636 319.007673,23.729172 320.039539,22.6692708 C321.071405,21.6093696 322.280607,20.7823381 323.667179,20.188151 C325.05375,19.593964 326.553159,19.296875 328.165451,19.296875 C329.938972,19.296875 331.502872,19.593964 332.857198,20.188151 C334.211524,20.7823381 335.34011,21.5852815 336.242994,22.5970052 C337.145878,23.608729 337.831091,24.7890558 338.298656,26.1380208 C338.766222,27.4869858 339,28.9322839 339,30.4739583 Z" id="Trade" fill="#4E93CB" fill-rule="nonzero"></path><path d="M66.4831014,23.4583333 L66.5314778,23.4583333 L82.8343274,8 L87.8170974,8 L70.5467197,23.6041667 L88.7846256,42.4166667 L83.6567263,42.4166667 L66.5314778,24.0902778 L66.4831014,24.0902778 L66.4831014,42.4166667 L63,42.4166667 L63,8 L66.4831014,8 L66.4831014,23.4583333 Z M107.457919,27.7361111 C107.457919,25.7592494 106.941909,24.2847271 105.909874,23.3125 C104.877839,22.3402729 103.378185,21.8541667 101.410868,21.8541667 C100.056322,21.8541667 98.7985478,22.0972198 97.6375083,22.5833333 C96.4764687,23.0694469 95.4928249,23.7175885 94.6865474,24.5277778 L92.8482439,22.3402778 C93.7835258,21.4004582 95.0171119,20.6226883 96.5490391,20.0069444 C98.0809664,19.3912006 99.814437,19.0833333 101.749503,19.0833333 C102.975045,19.0833333 104.119942,19.2534705 105.184228,19.59375 C106.248514,19.9340295 107.183782,20.4444411 107.99006,21.125 C108.796337,21.8055589 109.425224,22.6643467 109.87674,23.7013889 C110.328255,24.738431 110.554009,25.9536967 110.554009,27.3472222 L110.554009,37.3125 C110.554009,38.1875043 110.58626,39.0949027 110.650762,40.0347222 C110.715264,40.9745418 110.812016,41.7685153 110.941021,42.4166667 L107.99006,42.4166667 C107.893306,41.8657381 107.81268,41.2662069 107.748178,40.6180556 C107.683675,39.9699042 107.651425,39.3379661 107.651425,38.7222222 L107.554672,38.7222222 C106.522637,40.2453779 105.353552,41.3391171 104.047382,42.0034722 C102.741213,42.6678274 101.168995,43 99.3306826,43 C98.4599029,43 97.5649483,42.8784733 96.6457919,42.6354167 C95.7266355,42.3923598 94.8881196,41.9953731 94.1302187,41.4444444 C93.3723178,40.8935158 92.7434308,40.1805599 92.2435388,39.3055556 C91.7436467,38.4305513 91.4937044,37.3611175 91.4937044,36.0972222 C91.4937044,34.3472134 91.9371505,32.9618106 92.8240557,31.9409722 C93.710961,30.9201338 94.8961711,30.1585673 96.3797217,29.65625 C97.8632722,29.1539327 99.5644923,28.8298619 101.483433,28.6840278 C103.402373,28.5381937 105.393849,28.4652778 107.457919,28.4652778 L107.457919,27.7361111 Z M106.490391,31.0416667 C105.135845,31.0416667 103.773256,31.098379 102.402584,31.2118056 C101.031913,31.3252321 99.790264,31.5520817 98.6776011,31.8923611 C97.5649381,32.2326406 96.6538581,32.7268486 95.944334,33.375 C95.2348099,34.0231514 94.880053,34.881939 94.880053,35.9513889 C94.880053,36.7615781 95.0332434,37.4421269 95.3396289,37.9930556 C95.6460144,38.5439842 96.0572097,38.9895817 96.5732273,39.3298611 C97.0892449,39.6701406 97.6616933,39.9131937 98.2905898,40.0590278 C98.9194863,40.2048619 99.5564359,40.2777778 100.201458,40.2777778 C101.362497,40.2777778 102.394517,40.0752334 103.297548,39.6701389 C104.200579,39.2650442 104.958468,38.7141238 105.571239,38.0173611 C106.18401,37.3205984 106.651644,36.5185231 106.974155,35.6111111 C107.296666,34.7036991 107.457919,33.7476902 107.457919,32.7430556 L107.457919,31.0416667 L106.490391,31.0416667 Z M122.2611,23.5555556 C122.906122,22.2268452 123.897829,21.1493097 125.236249,20.3229167 C126.57467,19.4965237 128.066261,19.0833333 129.711067,19.0833333 C130.323838,19.0833333 130.960788,19.1481475 131.621935,19.2777778 C132.283083,19.4074081 132.928095,19.658563 133.556991,20.03125 C134.185888,20.403937 134.766399,20.898145 135.298542,21.5138889 C135.830685,22.1296327 136.290257,22.9236062 136.67727,23.8958333 C137.451296,22.3402699 138.507504,21.1493097 139.845924,20.3229167 C141.184345,19.4965237 142.772688,19.0833333 144.611001,19.0833333 C147.481349,19.0833333 149.634077,19.942121 151.069251,21.6597222 C152.504425,23.3773235 153.222001,25.6458193 153.222001,28.4652778 L153.222001,42.4166667 L149.932406,42.4166667 L149.932406,29.8263889 C149.932406,27.4282287 149.48896,25.5000073 148.602054,24.0416667 C147.715149,22.583326 146.207433,21.8541667 144.07886,21.8541667 C142.88557,21.8541667 141.877738,22.0972198 141.055335,22.5833333 C140.232932,23.0694469 139.571794,23.7094868 139.071902,24.5034722 C138.57201,25.2974577 138.20919,26.1967543 137.983433,27.2013889 C137.757675,28.2060235 137.644798,29.2430501 137.644798,30.3125 L137.644798,42.4166667 L134.355202,42.4166667 L134.355202,29.1458333 C134.355202,28.0439759 134.274576,27.0393565 134.11332,26.1319444 C133.952065,25.2245324 133.669872,24.4548643 133.266733,23.8229167 C132.863594,23.190969 132.307271,22.7048628 131.597747,22.3645833 C130.888223,22.0243039 129.985205,21.8541667 128.888668,21.8541667 C128.114642,21.8541667 127.332564,22.0324057 126.542412,22.3888889 C125.75226,22.7453721 125.042747,23.2881907 124.41385,24.0173611 C123.784954,24.7465313 123.277006,25.6701333 122.889993,26.7881944 C122.50298,27.9062556 122.309476,29.2268443 122.309476,30.75 L122.309476,42.4166667 L119.019881,42.4166667 L119.019881,24.6736111 C119.019881,24.0578673 119.003755,23.2638937 118.971504,22.2916667 C118.939253,21.3194396 118.890877,20.4444484 118.826375,19.6666667 L121.970842,19.6666667 C122.035344,20.2824105 122.08372,20.9629592 122.115971,21.7083333 C122.148222,22.4537075 122.164347,23.069442 122.164347,23.5555556 L122.2611,23.5555556 Z M179.006627,29.2916667 C178.909874,27.1527671 178.224548,25.3784793 176.95063,23.96875 C175.676711,22.5590207 173.862614,21.8541667 171.508284,21.8541667 C170.411746,21.8541667 169.395852,22.056711 168.46057,22.4618056 C167.525288,22.8669003 166.702897,23.4178206 165.993373,24.1145833 C165.283849,24.811346 164.719463,25.6053197 164.300199,26.4965278 C163.880934,27.387736 163.639055,28.3194396 163.574553,29.2916667 L179.006627,29.2916667 Z M182.344599,30.3611111 L182.344599,31.0902778 C182.344599,31.3495384 182.328474,31.6249985 182.296223,31.9166667 L163.526176,31.9166667 C163.558427,33.0509316 163.784182,34.1203654 164.203446,35.125 C164.62271,36.1296346 165.203221,37.0046258 165.944997,37.75 C166.686772,38.4953742 167.557539,39.0868033 168.557323,39.5243056 C169.557107,39.9618078 170.637503,40.1805556 171.798542,40.1805556 C173.50785,40.1805556 174.983316,39.7835688 176.224983,38.9895833 C177.466651,38.1955979 178.409981,37.2800977 179.055003,36.2430556 L181.5222,38.1875 C180.167654,39.9051013 178.676063,41.1365703 177.047382,41.8819444 C175.418702,42.6273186 173.669106,43 171.798542,43 C170.121485,43 168.565393,42.7002345 167.130219,42.1006944 C165.695045,41.5011544 164.461459,40.6666721 163.429423,39.5972222 C162.397388,38.5277724 161.58306,37.2638962 160.986415,35.8055556 C160.389769,34.3472149 160.091451,32.7592679 160.091451,31.0416667 C160.091451,29.3240654 160.381707,27.7361184 160.962227,26.2777778 C161.542747,24.8194372 162.349012,23.555561 163.381047,22.4861111 C164.413082,21.4166612 165.62248,20.582179 167.009278,19.9826389 C168.396075,19.3830988 169.895729,19.0833333 171.508284,19.0833333 C173.282094,19.0833333 174.846249,19.3830988 176.200795,19.9826389 C177.555341,20.582179 178.684113,21.3923561 179.587144,22.4131944 C180.490175,23.4340328 181.1755,24.6249933 181.643141,25.9861111 C182.110782,27.347229 182.344599,28.8055477 182.344599,30.3611111 Z M192.358516,19.6666667 C192.423018,20.2824105 192.471394,20.9629592 192.503645,21.7083333 C192.535895,22.4537075 192.552021,23.069442 192.552021,23.5555556 L192.648774,23.5555556 C193.293795,22.2268452 194.341941,21.1493097 195.793241,20.3229167 C197.24454,19.4965237 198.776444,19.0833333 200.388999,19.0833333 C203.259347,19.0833333 205.412076,19.942121 206.84725,21.6597222 C208.282423,23.3773235 209,25.6458193 209,28.4652778 L209,42.4166667 L205.710404,42.4166667 L205.710404,29.8263889 C205.710404,28.6273089 205.613653,27.5416715 205.420146,26.5694444 C205.226638,25.5972174 204.896071,24.7627349 204.428429,24.0659722 C203.960788,23.3692095 203.331902,22.8263908 202.54175,22.4375 C201.751597,22.0486092 200.759892,21.8541667 199.5666,21.8541667 C198.695821,21.8541667 197.849242,22.0324057 197.026839,22.3888889 C196.204436,22.7453721 195.470734,23.2881907 194.825712,24.0173611 C194.180691,24.7465313 193.66468,25.6701333 193.277667,26.7881944 C192.890654,27.9062556 192.69715,29.2268443 192.69715,30.75 L192.69715,42.4166667 L189.407555,42.4166667 L189.407555,24.6736111 C189.407555,24.0578673 189.391429,23.2638937 189.359178,22.2916667 C189.326928,21.3194396 189.278552,20.4444484 189.214049,19.6666667 L192.358516,19.6666667 Z" id="Kamen" fill="#000000" fill-rule="nonzero"></path><path d="M62,51 L64.9727409,51 C65.5078369,51 65.9933799,51.0566099 66.429384,51.1698312 C66.8653881,51.2830525 67.2394544,51.4553434 67.5515937,51.6867089 C67.863733,51.9180744 68.1040272,52.2085074 68.2724834,52.5580169 C68.4409395,52.9075264 68.5251663,53.318563 68.5251663,53.7911392 C68.5251663,54.2637155 68.4384623,54.6747521 68.2650515,55.0242616 C68.0916408,55.3737711 67.8488693,55.6642041 67.53673,55.8955696 C67.2245907,56.1269351 66.8480472,56.3016872 66.4070884,56.4198312 C65.9661297,56.5379752 65.4781095,56.5970464 64.9430135,56.5970464 L63.0701867,56.5970464 L63.0701867,61.4556962 L62,61.4556962 L62,51 Z M63.0701867,55.6962025 L64.8835587,55.6962025 C65.7258395,55.6962025 66.3649725,55.5337569 66.8009766,55.2088608 C67.2369807,54.8839646 67.4549796,54.4113955 67.4549796,53.7911392 C67.4549796,53.1413469 67.229549,52.6663166 66.778681,52.3660338 C66.327813,52.0657509 65.6961119,51.9156118 64.8835587,51.9156118 L63.0701867,51.9156118 L63.0701867,55.6962025 Z M76.8042498,56.9957806 C76.8042498,56.3952149 76.6457052,55.9472589 76.3286113,55.6518987 C76.0115174,55.3565386 75.5507472,55.2088608 74.9462868,55.2088608 C74.530101,55.2088608 74.1436486,55.2826997 73.7869178,55.4303797 C73.430187,55.5780598 73.1279615,55.7749636 72.8802318,56.021097 L72.315411,55.3565401 C72.6027774,55.0710254 72.9817981,54.8347407 73.4524844,54.6476793 C73.9231708,54.460618 74.4557815,54.3670886 75.0503327,54.3670886 C75.4268818,54.3670886 75.7786525,54.4187758 76.1056557,54.5221519 C76.4326589,54.625528 76.7200209,54.7805896 76.9677506,54.9873418 C77.2154802,55.1940939 77.4087065,55.4549914 77.5474351,55.7700422 C77.6861636,56.085093 77.7555269,56.4542876 77.7555269,56.8776371 L77.7555269,59.9050633 C77.7555269,60.1708874 77.765436,60.4465528 77.7852543,60.7320675 C77.8050727,61.0175822 77.8347999,61.2587895 77.8744366,61.4556962 L76.9677506,61.4556962 C76.938023,61.2883255 76.9132504,61.1061895 76.8934321,60.9092827 C76.8736137,60.7123759 76.8637047,60.5203947 76.8637047,60.3333333 L76.8339772,60.3333333 C76.5168833,60.7960642 76.1576807,61.1283393 75.7563587,61.3301688 C75.3550366,61.5319982 74.871971,61.6329114 74.3071475,61.6329114 C74.0395995,61.6329114 73.7646237,61.5959919 73.4822118,61.5221519 C73.1998,61.4483119 72.9421652,61.3277083 72.7092992,61.1603376 C72.4764333,60.9929669 72.2832071,60.7763726 72.1296147,60.5105485 C71.9760223,60.2447244 71.8992273,59.9198331 71.8992273,59.535865 C71.8992273,59.0042168 72.0354766,58.5833348 72.3079792,58.2732068 C72.5804818,57.9630787 72.9446388,57.7317167 73.4004615,57.5791139 C73.8562841,57.4265112 74.3789858,57.3280593 74.9685823,57.2837553 C75.5581788,57.2394513 76.170062,57.2172996 76.8042498,57.2172996 L76.8042498,56.9957806 Z M76.5069757,58 C76.09079,58 75.6721331,58.017229 75.2509927,58.0516878 C74.8298523,58.0861465 74.4483543,58.1550627 74.1064874,58.2584388 C73.7646206,58.3618149 73.4846902,58.511954 73.2666881,58.7088608 C73.0486861,58.9057675 72.9396866,59.166665 72.9396866,59.4915612 C72.9396866,59.7376946 72.9867546,59.9444436 73.0808918,60.1118143 C73.1750291,60.279185 73.3013692,60.4145564 73.4599163,60.5179325 C73.6184633,60.6213086 73.7943487,60.6951475 73.9875778,60.7394515 C74.1808069,60.7837555 74.3765104,60.8059072 74.5746941,60.8059072 C74.9314249,60.8059072 75.248514,60.7443747 75.5259712,60.621308 C75.8034285,60.4982413 76.0362909,60.330873 76.2245654,60.1191983 C76.4128398,59.9075236 76.5565209,59.6638551 76.6556128,59.3881857 C76.7547047,59.1125162 76.8042498,58.8220832 76.8042498,58.5168776 L76.8042498,58 L76.5069757,58 Z M87.8777098,58.1476793 C87.8777098,57.7637112 87.8182555,57.4117456 87.6993454,57.0917722 C87.5804352,56.7717987 87.4144587,56.493672 87.2014112,56.257384 C86.9883638,56.0210959 86.733206,55.8389599 86.4359305,55.7109705 C86.1386549,55.582981 85.8067021,55.5189873 85.4400622,55.5189873 C85.10315,55.5189873 84.7811063,55.5706746 84.4739214,55.6740506 C84.1667366,55.7774267 83.8942381,55.9324883 83.6564177,56.1392405 C83.4185973,56.3459927 83.2303254,56.6044289 83.0915969,56.914557 C82.9528684,57.224685 82.883505,57.5864959 82.883505,58 C82.883505,58.4135041 82.9454365,58.7900827 83.0693014,59.1297468 C83.1931662,59.4694109 83.3665743,59.7598441 83.589531,60.0010549 C83.8124877,60.2422656 84.082509,60.4317856 84.3996029,60.5696203 C84.7166968,60.7074549 85.0684678,60.7763713 85.4549259,60.7763713 C85.8413841,60.7763713 86.1857232,60.7074549 86.4879534,60.5696203 C86.7901836,60.4317856 87.0453412,60.2422656 87.2534342,60.0010549 C87.4615272,59.7598441 87.6175944,59.4792562 87.7216409,59.1592827 C87.8256874,58.8393092 87.8777098,58.5021116 87.8777098,58.1476793 Z M85.4995171,54.6624473 C86.0048856,54.6624473 86.4706103,54.7461314 86.8967053,54.9135021 C87.3228003,55.0808728 87.6869574,55.3171573 87.9891876,55.6223629 C88.2914178,55.9275684 88.5267574,56.2943016 88.6952136,56.7225738 C88.8636697,57.1508461 88.9478965,57.6258764 88.9478965,58.1476793 C88.9478965,58.6793275 88.8537606,59.1617419 88.6654862,59.5949367 C88.4772117,60.0281315 88.2245311,60.3948648 87.9074372,60.6951477 C87.5903433,60.9954305 87.2187544,61.2267925 86.7926594,61.3892405 C86.3665643,61.5516885 85.9157032,61.6329114 85.4400622,61.6329114 C84.8851478,61.6329114 84.3872187,61.5443047 83.9462599,61.3670886 C83.5053012,61.1898725 83.1312351,60.936359 82.8240502,60.6065401 C82.5168654,60.2767212 82.2790485,59.8779911 82.1105924,59.4103376 C81.9421363,58.942684 81.8579094,58.4184276 81.8579094,57.8375527 C81.8579094,57.552038 81.8653413,57.2763726 81.880205,57.0105485 C81.8950687,56.7447244 81.9124096,56.483827 81.9322279,56.2278481 C82.090775,54.4852234 82.5540224,53.1807357 83.3219843,52.314346 C84.0899462,51.4479563 85.2517809,51.0147679 86.8075231,51.0147679 L88.8141232,51.0147679 L88.8141232,51.871308 L86.7777957,51.871308 C86.0544251,51.871308 85.4574056,51.9697599 84.9867193,52.1666667 C84.5160329,52.3635734 84.1320577,52.6441614 83.8347821,53.0084388 C83.5375066,53.3727163 83.312076,53.8108273 83.1584836,54.3227848 C83.0048912,54.8347423 82.88846,55.4008407 82.8091865,56.021097 C83.0668254,55.6075929 83.4334597,55.277779 83.9091007,55.0316456 C84.3847416,54.7855121 84.9148752,54.6624473 85.4995171,54.6624473 Z M99.8875832,58 C99.8875832,58.5218029 99.7959247,59.0042172 99.6126046,59.4472574 C99.4292846,59.8902976 99.174127,60.2742599 98.8471238,60.5991561 C98.5201207,60.9240523 98.1287138,61.1775658 97.6728912,61.3597046 C97.2170685,61.5418435 96.7166622,61.6329114 96.171657,61.6329114 C95.636561,61.6329114 95.1411092,61.5418435 94.6852865,61.3597046 C94.2294639,61.1775658 93.838057,60.9240523 93.5110539,60.5991561 C93.1840507,60.2742599 92.9288931,59.8902976 92.7455731,59.4472574 C92.5622531,59.0042172 92.4705945,58.5218029 92.4705945,58 C92.4705945,57.4781971 92.5622531,56.9957828 92.7455731,56.5527426 C92.9288931,56.1097024 93.1840507,55.7257401 93.5110539,55.4008439 C93.838057,55.0759477 94.2294639,54.8224342 94.6852865,54.6402954 C95.1411092,54.4581565 95.636561,54.3670886 96.171657,54.3670886 C96.7166622,54.3670886 97.2170685,54.4581565 97.6728912,54.6402954 C98.1287138,54.8224342 98.5201207,55.0759477 98.8471238,55.4008439 C99.174127,55.7257401 99.4292846,56.1097024 99.6126046,56.5527426 C99.7959247,56.9957828 99.8875832,57.4781971 99.8875832,58 Z M98.8173964,58 C98.8173964,57.6160319 98.755465,57.2542211 98.6316001,56.914557 C98.5077353,56.5748929 98.3318499,56.2795372 98.1039386,56.028481 C97.8760273,55.7774249 97.5985743,55.5780598 97.2715712,55.4303797 C96.944568,55.2826997 96.5779337,55.2088608 96.171657,55.2088608 C95.7653803,55.2088608 95.4012233,55.2826997 95.0791747,55.4303797 C94.7571262,55.5780598 94.4821504,55.7774249 94.2542391,56.028481 C94.0263278,56.2795372 93.8504424,56.5748929 93.7265776,56.914557 C93.6027128,57.2542211 93.5407813,57.6160319 93.5407813,58 C93.5407813,58.3839681 93.6027128,58.7457789 93.7265776,59.085443 C93.8504424,59.4251071 94.0263278,59.7204628 94.2542391,59.971519 C94.4821504,60.2225751 94.7571262,60.4194789 95.0791747,60.5622363 C95.4012233,60.7049936 95.7653803,60.7763713 96.171657,60.7763713 C96.5779337,60.7763713 96.944568,60.7049936 97.2715712,60.5622363 C97.5985743,60.4194789 97.8760273,60.2225751 98.1039386,59.971519 C98.3318499,59.7204628 98.5077353,59.4251071 98.6316001,59.085443 C98.755465,58.7457789 98.8173964,58.3839681 98.8173964,58 Z M103.321099,54.5443038 L104.331831,54.5443038 L104.331831,55.5485232 C104.331831,56.0014088 104.346694,56.3853712 104.376422,56.7004219 C104.40615,57.0154727 104.487899,57.2739089 104.621673,57.4757384 C104.755447,57.6775679 104.966014,57.8227844 105.253381,57.9113924 C105.540747,58.0000004 105.937108,58.0443038 106.442477,58.0443038 L107.958575,58.0443038 L107.958575,54.5443038 L108.969307,54.5443038 L108.969307,61.4556962 L107.958575,61.4556962 L107.958575,58.8860759 L106.427613,58.8860759 C105.783516,58.8860759 105.258337,58.8270048 104.852061,58.7088608 C104.445784,58.5907167 104.128695,58.4135032 103.900783,58.1772152 C103.672872,57.9409272 103.519282,57.6480327 103.440009,57.2985232 C103.360735,56.9490137 103.321099,56.5478223 103.321099,56.0949367 L103.321099,54.5443038 Z M118.69017,55.8291139 L114.424286,61.4556962 L113.383827,61.4556962 L113.383827,54.5443038 L114.424286,54.5443038 L114.424286,59.964135 L118.69017,54.5443038 L119.730629,54.5443038 L119.730629,61.4556962 L118.69017,61.4556962 L118.69017,55.8291139 Z M129.510947,57.4683544 C129.481219,56.8185621 129.270652,56.2795381 128.879239,55.8512658 C128.487826,55.4229936 127.930443,55.2088608 127.207072,55.2088608 C126.87016,55.2088608 126.558025,55.2703932 126.270659,55.3934599 C125.983293,55.5165266 125.730612,55.6838949 125.51261,55.8955696 C125.294608,56.1072443 125.1212,56.3484515 124.99238,56.6191983 C124.863561,56.8899451 124.789243,57.1729943 124.769425,57.4683544 L129.510947,57.4683544 Z M130.536542,57.7932489 L130.536542,58.0147679 C130.536542,58.0935307 130.531588,58.1772148 130.521678,58.2658228 L124.754561,58.2658228 C124.76447,58.6104096 124.833833,58.9353008 124.962653,59.2405063 C125.091472,59.5457119 125.269835,59.8115319 125.497746,60.0379747 C125.725658,60.2644175 125.993202,60.4440921 126.300386,60.5770042 C126.607571,60.7099164 126.939524,60.7763713 127.296255,60.7763713 C127.821441,60.7763713 128.27478,60.6557677 128.656284,60.414557 C129.037787,60.1733462 129.327627,59.8952195 129.52581,59.5801688 L130.283859,60.1708861 C129.867673,60.692689 129.40938,61.0668061 128.908967,61.2932489 C128.408553,61.5196917 127.870987,61.6329114 127.296255,61.6329114 C126.780977,61.6329114 126.302866,61.5418435 125.861907,61.3597046 C125.420948,61.1775658 125.041928,60.9240523 124.724834,60.5991561 C124.40774,60.2742599 124.157537,59.8902976 123.974217,59.4472574 C123.790897,59.0042172 123.699238,58.5218029 123.699238,58 C123.699238,57.4781971 123.788419,56.9957828 123.966785,56.5527426 C124.14515,56.1097024 124.392876,55.7257401 124.70997,55.4008439 C125.027064,55.0759477 125.398653,54.8224342 125.824748,54.6402954 C126.250843,54.4581565 126.711613,54.3670886 127.207072,54.3670886 C127.752078,54.3670886 128.232666,54.4581565 128.648852,54.6402954 C129.065037,54.8224342 129.411854,55.0685639 129.689311,55.378692 C129.966768,55.68882 130.177335,56.0506309 130.321018,56.464135 C130.464702,56.8776392 130.536542,57.3206727 130.536542,57.7932489 Z M141.089772,61.4556962 L140.079041,61.4556962 L140.079041,54.5443038 L145.950204,54.5443038 L145.950204,61.4556962 L144.939472,61.4556962 L144.939472,55.3860759 L141.089772,55.3860759 L141.089772,61.4556962 Z M157.335802,58 C157.335802,58.5218029 157.244143,59.0042172 157.060823,59.4472574 C156.877503,59.8902976 156.622346,60.2742599 156.295342,60.5991561 C155.968339,60.9240523 155.576932,61.1775658 155.12111,61.3597046 C154.665287,61.5418435 154.164881,61.6329114 153.619876,61.6329114 C153.08478,61.6329114 152.589328,61.5418435 152.133505,61.3597046 C151.677682,61.1775658 151.286276,60.9240523 150.959272,60.5991561 C150.632269,60.2742599 150.377112,59.8902976 150.193792,59.4472574 C150.010472,59.0042172 149.918813,58.5218029 149.918813,58 C149.918813,57.4781971 150.010472,56.9957828 150.193792,56.5527426 C150.377112,56.1097024 150.632269,55.7257401 150.959272,55.4008439 C151.286276,55.0759477 151.677682,54.8224342 152.133505,54.6402954 C152.589328,54.4581565 153.08478,54.3670886 153.619876,54.3670886 C154.164881,54.3670886 154.665287,54.4581565 155.12111,54.6402954 C155.576932,54.8224342 155.968339,55.0759477 156.295342,55.4008439 C156.622346,55.7257401 156.877503,56.1097024 157.060823,56.5527426 C157.244143,56.9957828 157.335802,57.4781971 157.335802,58 Z M156.265615,58 C156.265615,57.6160319 156.203683,57.2542211 156.079819,56.914557 C155.955954,56.5748929 155.780068,56.2795372 155.552157,56.028481 C155.324246,55.7774249 155.046793,55.5780598 154.71979,55.4303797 C154.392786,55.2826997 154.026152,55.2088608 153.619876,55.2088608 C153.213599,55.2088608 152.849442,55.2826997 152.527393,55.4303797 C152.205345,55.5780598 151.930369,55.7774249 151.702458,56.028481 C151.474546,56.2795372 151.298661,56.5748929 151.174796,56.914557 C151.050931,57.2542211 150.989,57.6160319 150.989,58 C150.989,58.3839681 151.050931,58.7457789 151.174796,59.085443 C151.298661,59.4251071 151.474546,59.7204628 151.702458,59.971519 C151.930369,60.2225751 152.205345,60.4194789 152.527393,60.5622363 C152.849442,60.7049936 153.213599,60.7763713 153.619876,60.7763713 C154.026152,60.7763713 154.392786,60.7049936 154.71979,60.5622363 C155.046793,60.4194789 155.324246,60.2225751 155.552157,59.971519 C155.780068,59.7204628 155.955954,59.4251071 156.079819,59.085443 C156.203683,58.7457789 156.265615,58.3839681 156.265615,58 Z M165.372365,57.9417184 C165.626227,57.9617891 165.865611,58.0058291 166.090524,58.0738397 C166.318435,58.142757 166.519093,58.2436701 166.692504,58.3765823 C166.865915,58.5094944 167.002164,58.6768625 167.101256,58.878692 C167.200347,59.0805214 167.249893,59.3241899 167.249893,59.6097046 C167.249893,60.1708888 167.01703,60.6188451 166.551299,60.9535865 C166.085567,61.2883279 165.396889,61.4556962 164.485244,61.4556962 L161.304411,61.4556962 L161.304411,54.5443038 L164.306879,54.5443038 C165.188797,54.5443038 165.842793,54.7141334 166.268888,55.0537975 C166.694983,55.3934616 166.908027,55.8438791 166.908027,56.4050633 C166.908027,56.6610421 166.868391,56.8751749 166.789118,57.0474684 C166.709844,57.2197618 166.598368,57.3625171 166.454684,57.4757384 C166.311001,57.5889597 166.145025,57.6800278 165.95675,57.7489451 C165.768483,57.8178597 165.570311,57.8818512 165.362227,57.9409213 L165.372365,57.9417184 Z M162.315143,60.6434599 L163.608285,60.6434599 C163.974925,60.6434599 164.311832,60.6360759 164.619017,60.621308 C164.926202,60.6065401 165.193746,60.5622367 165.421657,60.4883966 C165.649568,60.4145566 165.827931,60.2988757 165.95675,60.1413502 C166.08557,59.9838247 166.149979,59.762308 166.149979,59.4767932 C166.149979,59.004217 165.974093,58.6940936 165.622317,58.5464135 C165.270541,58.3987334 164.797384,58.3248945 164.202833,58.3248945 L162.315143,58.3248945 L162.315143,60.6434599 Z M164.247424,57.6012658 C164.742884,57.6012658 165.131813,57.5249656 165.414225,57.3723629 C165.696637,57.2197601 165.837841,56.9170206 165.837841,56.464135 C165.837841,56.2081562 165.783341,56.0063299 165.67434,55.8586498 C165.565339,55.7109697 165.411749,55.6002113 165.213565,55.5263713 C165.015381,55.4525313 164.777565,55.4057666 164.500107,55.3860759 C164.22265,55.3663853 163.91547,55.3565401 163.578558,55.3565401 L162.315143,55.3565401 L162.315143,57.6012658 L164.247424,57.6012658 Z M176.569436,57.4683544 C176.539708,56.8185621 176.329141,56.2795381 175.937728,55.8512658 C175.546315,55.4229936 174.988932,55.2088608 174.265561,55.2088608 C173.928649,55.2088608 173.616514,55.2703932 173.329148,55.3934599 C173.041782,55.5165266 172.789101,55.6838949 172.571099,55.8955696 C172.353097,56.1072443 172.179689,56.3484515 172.050869,56.6191983 C171.92205,56.8899451 171.847732,57.1729943 171.827914,57.4683544 L176.569436,57.4683544 Z M177.595031,57.7932489 L177.595031,58.0147679 C177.595031,58.0935307 177.590077,58.1772148 177.580167,58.2658228 L171.81305,58.2658228 C171.822959,58.6104096 171.892322,58.9353008 172.021142,59.2405063 C172.149961,59.5457119 172.328324,59.8115319 172.556235,60.0379747 C172.784147,60.2644175 173.05169,60.4440921 173.358875,60.5770042 C173.66606,60.7099164 173.998013,60.7763713 174.354744,60.7763713 C174.87993,60.7763713 175.333269,60.6557677 175.714772,60.414557 C176.096276,60.1733462 176.386115,59.8952195 176.584299,59.5801688 L177.342348,60.1708861 C176.926162,60.692689 176.467869,61.0668061 175.967455,61.2932489 C175.467042,61.5196917 174.929476,61.6329114 174.354744,61.6329114 C173.839466,61.6329114 173.361355,61.5418435 172.920396,61.3597046 C172.479437,61.1775658 172.100417,60.9240523 171.783323,60.5991561 C171.466229,60.2742599 171.216026,59.8902976 171.032706,59.4472574 C170.849386,59.0042172 170.757727,58.5218029 170.757727,58 C170.757727,57.4781971 170.846908,56.9957828 171.025274,56.5527426 C171.203639,56.1097024 171.451365,55.7257401 171.768459,55.4008439 C172.085553,55.0759477 172.457142,54.8224342 172.883237,54.6402954 C173.309332,54.4581565 173.770102,54.3670886 174.265561,54.3670886 C174.810567,54.3670886 175.291155,54.4581565 175.707341,54.6402954 C176.123526,54.8224342 176.470343,55.0685639 176.7478,55.378692 C177.025257,55.68882 177.235824,56.0506309 177.379507,56.464135 C177.523191,56.8776392 177.595031,57.3206727 177.595031,57.7932489 Z M182.633827,65 L181.623095,65 L181.623095,54.5443038 L182.633827,54.5443038 L182.633827,55.7405063 L182.678418,55.7405063 C182.965784,55.2876207 183.34976,54.9455005 183.830355,54.714135 C184.310951,54.4827695 184.798971,54.3670886 185.29443,54.3670886 C185.839436,54.3670886 186.332409,54.460618 186.773369,54.6476793 C187.214328,54.8347407 187.590871,55.0907156 187.90301,55.4156118 C188.21515,55.740508 188.457921,56.1244704 188.631332,56.5675105 C188.804743,57.0105507 188.891447,57.4880425 188.891447,58 C188.891447,58.5119575 188.804743,58.9894493 188.631332,59.4324895 C188.457921,59.8755296 188.21515,60.259492 187.90301,60.5843882 C187.590871,60.9092844 187.214328,61.1652593 186.773369,61.3523207 C186.332409,61.539382 185.839436,61.6329114 185.29443,61.6329114 C184.798971,61.6329114 184.310951,61.5172305 183.830355,61.285865 C183.34976,61.0544995 182.965784,60.7222243 182.678418,60.2890295 L182.633827,60.2890295 L182.633827,65 Z M187.82126,58 C187.82126,57.6160319 187.761805,57.2542211 187.642895,56.914557 C187.523986,56.5748929 187.353055,56.2795372 187.130098,56.028481 C186.90714,55.7774249 186.632165,55.5780598 186.305162,55.4303797 C185.978159,55.2826997 185.60657,55.2088608 185.190384,55.2088608 C184.803926,55.2088608 184.447201,55.2802384 184.120197,55.4229958 C183.793194,55.5657531 183.510787,55.7626569 183.272966,56.0137131 C183.035146,56.2647692 182.849351,56.5601249 182.715577,56.899789 C182.581803,57.2394531 182.514917,57.6061865 182.514917,58 C182.514917,58.3938135 182.581803,58.7605469 182.715577,59.100211 C182.849351,59.4398751 183.035146,59.7327695 183.272966,59.978903 C183.510787,60.2250364 183.793194,60.4194789 184.120197,60.5622363 C184.447201,60.7049936 184.803926,60.7763713 185.190384,60.7763713 C185.60657,60.7763713 185.978159,60.7049936 186.305162,60.5622363 C186.632165,60.4194789 186.90714,60.2225751 187.130098,59.971519 C187.353055,59.7204628 187.523986,59.4251071 187.642895,59.085443 C187.761805,58.7457789 187.82126,58.3839681 187.82126,58 Z M194.554518,57.8818565 L191.983097,54.5443038 L193.27624,54.5443038 L195.178794,57.1729958 L197.081348,54.5443038 L198.300172,54.5443038 L195.773342,57.8375527 L198.537991,61.4556962 L197.229985,61.4556962 L195.16393,58.5759494 L193.03842,61.4556962 L191.819596,61.4556962 L194.554518,57.8818565 Z M202.922784,61.4556962 L201.912052,61.4556962 L201.912052,54.5443038 L202.922784,54.5443038 L202.922784,57.335443 L206.891393,57.335443 L206.891393,54.5443038 L207.902125,54.5443038 L207.902125,61.4556962 L206.891393,61.4556962 L206.891393,58.1772152 L202.922784,58.1772152 L202.922784,61.4556962 Z M219.287723,58 C219.287723,58.5218029 219.196064,59.0042172 219.012744,59.4472574 C218.829425,59.8902976 218.574267,60.2742599 218.247263,60.5991561 C217.92026,60.9240523 217.528854,61.1775658 217.073031,61.3597046 C216.617207,61.5418435 216.116802,61.6329114 215.571797,61.6329114 C215.036701,61.6329114 214.541249,61.5418435 214.085426,61.3597046 C213.629603,61.1775658 213.238197,60.9240523 212.911193,60.5991561 C212.58419,60.2742599 212.329032,59.8902976 212.145713,59.4472574 C211.962393,59.0042172 211.870734,58.5218029 211.870734,58 C211.870734,57.4781971 211.962393,56.9957828 212.145713,56.5527426 C212.329032,56.1097024 212.58419,55.7257401 212.911193,55.4008439 C213.238197,55.0759477 213.629603,54.8224342 214.085426,54.6402954 C214.541249,54.4581565 215.036701,54.3670886 215.571797,54.3670886 C216.116802,54.3670886 216.617207,54.4581565 217.073031,54.6402954 C217.528854,54.8224342 217.92026,55.0759477 218.247263,55.4008439 C218.574267,55.7257401 218.829425,56.1097024 219.012744,56.5527426 C219.196064,56.9957828 219.287723,57.4781971 219.287723,58 Z M218.217536,58 C218.217536,57.6160319 218.155604,57.2542211 218.03174,56.914557 C217.907875,56.5748929 217.731989,56.2795372 217.504078,56.028481 C217.276167,55.7774249 216.998714,55.5780598 216.671711,55.4303797 C216.344707,55.2826997 215.978074,55.2088608 215.571797,55.2088608 C215.165519,55.2088608 214.801362,55.2826997 214.479314,55.4303797 C214.157266,55.5780598 213.882289,55.7774249 213.654379,56.028481 C213.426468,56.2795372 213.250582,56.5748929 213.126717,56.914557 C213.002852,57.2542211 212.940921,57.6160319 212.940921,58 C212.940921,58.3839681 213.002852,58.7457789 213.126717,59.085443 C213.250582,59.4251071 213.426468,59.7204628 213.654379,59.971519 C213.882289,60.2225751 214.157266,60.4194789 214.479314,60.5622363 C214.801362,60.7049936 215.165519,60.7763713 215.571797,60.7763713 C215.978074,60.7763713 216.344707,60.7049936 216.671711,60.5622363 C216.998714,60.4194789 217.276167,60.2225751 217.504078,59.971519 C217.731989,59.7204628 217.907875,59.4251071 218.03174,59.085443 C218.155604,58.7457789 218.217536,58.3839681 218.217536,58 Z M228.324855,56.1244726 C228.156399,55.8586485 227.91115,55.639593 227.589102,55.4672996 C227.267054,55.2950062 226.91776,55.2088608 226.541211,55.2088608 C226.134933,55.2088608 225.7683,55.2802384 225.441296,55.4229958 C225.114293,55.5657531 224.834363,55.7626569 224.601497,56.0137131 C224.368631,56.2647692 224.190269,56.5601249 224.066404,56.899789 C223.942539,57.2394531 223.880607,57.6061865 223.880607,58 C223.880607,58.3938135 223.942539,58.7580856 224.066404,59.092827 C224.190269,59.4275684 224.366154,59.7204628 224.594065,59.971519 C224.821976,60.2225751 225.099429,60.4194789 225.426433,60.5622363 C225.753436,60.7049936 226.12007,60.7763713 226.526347,60.7763713 C226.97226,60.7763713 227.348804,60.6926872 227.655988,60.5253165 C227.963173,60.3579458 228.215854,60.1413515 228.414037,59.8755274 L229.172086,60.4367089 C228.87481,60.8009863 228.510653,61.0914195 228.079604,61.3080169 C227.648555,61.5246143 227.130807,61.6329114 226.526347,61.6329114 C225.961522,61.6329114 225.451209,61.5418435 224.995385,61.3597046 C224.539562,61.1775658 224.150633,60.9240523 223.828584,60.5991561 C223.506536,60.2742599 223.256332,59.8902976 223.077967,59.4472574 C222.899603,59.0042172 222.810421,58.5218029 222.810421,58 C222.810421,57.4781971 222.899603,56.9957828 223.077967,56.5527426 C223.256332,56.1097024 223.506536,55.7257401 223.828584,55.4008439 C224.150633,55.0759477 224.539562,54.8224342 224.995385,54.6402954 C225.451209,54.4581565 225.961522,54.3670886 226.526347,54.3670886 C226.992079,54.3670886 227.465235,54.4680018 227.945831,54.6698312 C228.426426,54.8716607 228.815356,55.1694776 229.112631,55.5632911 L228.324855,56.1244726 Z M231.416506,54.5443038 L237.525488,54.5443038 L237.525488,55.3860759 L234.894613,55.3860759 L234.894613,61.4556962 L233.883881,61.4556962 L233.883881,55.3860759 L231.416506,55.3860759 L231.416506,54.5443038 Z M246.11671,55.8291139 L241.850826,61.4556962 L240.810367,61.4556962 L240.810367,54.5443038 L241.850826,54.5443038 L241.850826,59.964135 L246.11671,54.5443038 L247.157169,54.5443038 L247.157169,61.4556962 L246.11671,61.4556962 L246.11671,55.8291139 Z M262.451921,55.8291139 L258.186038,61.4556962 L257.145578,61.4556962 L257.145578,54.5443038 L258.186038,54.5443038 L258.186038,59.964135 L262.451921,54.5443038 L263.49238,54.5443038 L263.49238,61.4556962 L262.451921,61.4556962 L262.451921,55.8291139 Z M268.174447,56.1392405 L267.386671,55.6666667 C267.505581,55.4106878 267.67899,55.1842485 267.906901,54.9873418 C268.105084,54.8199711 268.367674,54.6649093 268.694677,54.5221519 C269.02168,54.3793945 269.43786,54.3080169 269.943228,54.3080169 C270.389141,54.3080169 270.770639,54.3670881 271.087733,54.4852321 C271.404828,54.6033761 271.662463,54.7584379 271.860646,54.9504219 C272.058829,55.142406 272.204988,55.3540775 272.299125,55.585443 C272.393263,55.8168085 272.440331,56.0407866 272.440331,56.257384 C272.440331,56.4838268 272.395739,56.6954983 272.306557,56.8924051 C272.217375,57.0893118 272.093512,57.2616026 271.934965,57.4092827 C271.776417,57.5569628 271.588146,57.6751051 271.370144,57.7637131 C271.152142,57.852321 270.919279,57.901547 270.67155,57.9113924 L270.67155,57.9556962 C270.939098,57.9556962 271.196733,57.9852317 271.444462,58.0443038 C271.692192,58.1033759 271.907714,58.1969051 272.091033,58.3248945 C272.274353,58.4528839 272.420512,58.6153295 272.529513,58.8122363 C272.638514,59.009143 272.693014,59.2454276 272.693014,59.521097 C272.693014,60.1413533 272.440332,60.6483806 271.934965,61.0421941 C271.429597,61.4360076 270.740919,61.6329114 269.86891,61.6329114 C269.333814,61.6329114 268.895339,61.5615337 268.553472,61.4187764 C268.211605,61.276019 267.941583,61.1209572 267.7434,60.9535865 C267.505579,60.7566797 267.332171,60.5253177 267.22317,60.2594937 L268.040674,59.757384 C268.119948,59.9641361 268.248766,60.146272 268.42713,60.3037975 C268.565859,60.4416321 268.761562,60.564697 269.014247,60.6729958 C269.266931,60.7812946 269.586497,60.835443 269.972956,60.835443 C270.508051,60.835443 270.929186,60.7173007 271.23637,60.4810127 C271.543555,60.2447246 271.697145,59.9296785 271.697145,59.535865 C271.697145,59.2109688 271.570806,58.9328423 271.318121,58.7014768 C271.065436,58.4701113 270.636871,58.3544304 270.03241,58.3544304 L269.140588,58.3544304 L269.140588,57.5864979 L269.883773,57.5864979 C270.329686,57.5864979 270.70623,57.4855847 271.013415,57.2837553 C271.320599,57.0819258 271.47419,56.7742636 271.47419,56.3607595 C271.47419,56.1933888 271.444462,56.0309432 271.385008,55.8734177 C271.325553,55.7158922 271.233894,55.5780596 271.110029,55.4599156 C270.986164,55.3417716 270.825142,55.245781 270.626959,55.1719409 C270.428775,55.0981009 270.195913,55.0611814 269.928364,55.0611814 C269.571634,55.0611814 269.279317,55.1177914 269.051406,55.2310127 C268.823495,55.344234 268.645133,55.4697603 268.516313,55.6075949 C268.357765,55.7651204 268.243812,55.9423338 268.174447,56.1392405 Z M283.23138,57.3797468 C283.627747,57.3797468 283.999336,57.4092823 284.346158,57.4683544 L286.84326,54.5443038 L287.972902,54.5443038 L285.267708,57.6751055 C286.09017,57.9310843 286.729302,58.3667339 287.185126,58.9820675 C287.640949,59.5974011 288.002627,60.4219358 288.270176,61.4556962 L287.140534,61.4556962 C287.001806,60.8452853 286.82592,60.3357966 286.612873,59.9272152 C286.399826,59.5186338 286.132281,59.1888199 285.810233,58.9377637 C285.488185,58.6867076 285.114117,58.5094942 284.688023,58.4061181 C284.261929,58.3027421 283.776386,58.2461323 283.23138,58.2362869 L283.23138,61.4556962 L282.220648,61.4556962 L282.220648,54.5443038 L283.23138,54.5443038 L283.23138,57.3797468 Z M296.217557,57.9417184 C296.47142,57.9617891 296.710804,58.0058291 296.935716,58.0738397 C297.163627,58.142757 297.364285,58.2436701 297.537696,58.3765823 C297.711107,58.5094944 297.847355,58.6768625 297.946448,58.878692 C298.04554,59.0805214 298.095085,59.3241899 298.095085,59.6097046 C298.095085,60.1708888 297.862223,60.6188451 297.396491,60.9535865 C296.930759,61.2883279 296.242081,61.4556962 295.330436,61.4556962 L292.149603,61.4556962 L292.149603,54.5443038 L295.152071,54.5443038 C296.033989,54.5443038 296.687986,54.7141334 297.11408,55.0537975 C297.540174,55.3934616 297.75322,55.8438791 297.75322,56.4050633 C297.75322,56.6610421 297.713584,56.8751749 297.63431,57.0474684 C297.555036,57.2197618 297.44356,57.3625171 297.299877,57.4757384 C297.156193,57.5889597 296.990217,57.6800278 296.801942,57.7489451 C296.613675,57.8178597 296.415503,57.8818512 296.207418,57.9409213 L296.217557,57.9417184 Z M293.160335,60.6434599 L294.453477,60.6434599 C294.820116,60.6434599 295.157025,60.6360759 295.464209,60.621308 C295.771394,60.6065401 296.038938,60.5622367 296.266849,60.4883966 C296.49476,60.4145566 296.673122,60.2988757 296.801942,60.1413502 C296.930762,59.9838247 296.995171,59.762308 296.995171,59.4767932 C296.995171,59.004217 296.819285,58.6940936 296.467509,58.5464135 C296.115734,58.3987334 295.642577,58.3248945 295.048025,58.3248945 L293.160335,58.3248945 L293.160335,60.6434599 Z M295.092616,57.6012658 C295.588076,57.6012658 295.977005,57.5249656 296.259417,57.3723629 C296.54183,57.2197601 296.683033,56.9170206 296.683033,56.464135 C296.683033,56.2081562 296.628533,56.0063299 296.519532,55.8586498 C296.410531,55.7109697 296.256941,55.6002113 296.058757,55.5263713 C295.860574,55.4525313 295.622756,55.4057666 295.345299,55.3860759 C295.067842,55.3663853 294.760662,55.3565401 294.42375,55.3565401 L293.160335,55.3565401 L293.160335,57.6012658 L295.092616,57.6012658 Z M306.493078,56.9957806 C306.493078,56.3952149 306.334534,55.9472589 306.017439,55.6518987 C305.700345,55.3565386 305.239575,55.2088608 304.635115,55.2088608 C304.218929,55.2088608 303.832477,55.2826997 303.475746,55.4303797 C303.119015,55.5780598 302.81679,55.7749636 302.56906,56.021097 L302.004239,55.3565401 C302.291605,55.0710254 302.670625,54.8347407 303.141313,54.6476793 C303.612,54.460618 304.144609,54.3670886 304.739161,54.3670886 C305.11571,54.3670886 305.46748,54.4187758 305.794484,54.5221519 C306.121487,54.625528 306.408849,54.7805896 306.656579,54.9873418 C306.904308,55.1940939 307.097535,55.4549914 307.236263,55.7700422 C307.374992,56.085093 307.444355,56.4542876 307.444355,56.8776371 L307.444355,59.9050633 C307.444355,60.1708874 307.454264,60.4465528 307.474082,60.7320675 C307.493901,61.0175822 307.523629,61.2587895 307.563265,61.4556962 L306.656579,61.4556962 C306.626851,61.2883255 306.602079,61.1061895 306.58226,60.9092827 C306.562441,60.7123759 306.552533,60.5203947 306.552533,60.3333333 L306.522805,60.3333333 C306.20571,60.7960642 305.846509,61.1283393 305.445187,61.3301688 C305.043865,61.5319982 304.5608,61.6329114 303.995976,61.6329114 C303.728427,61.6329114 303.453452,61.5959919 303.17104,61.5221519 C302.888628,61.4483119 302.630993,61.3277083 302.398127,61.1603376 C302.165261,60.9929669 301.972035,60.7763726 301.818443,60.5105485 C301.664851,60.2447244 301.588055,59.9198331 301.588055,59.535865 C301.588055,59.0042168 301.724305,58.5833348 301.996807,58.2732068 C302.269309,57.9630787 302.633466,57.7317167 303.08929,57.5791139 C303.545113,57.4265112 304.067814,57.3280593 304.65741,57.2837553 C305.247007,57.2394513 305.85889,57.2172996 306.493078,57.2172996 L306.493078,56.9957806 Z M306.195804,58 C305.779618,58 305.360962,58.017229 304.939821,58.0516878 C304.51868,58.0861465 304.137183,58.1550627 303.795316,58.2584388 C303.453448,58.3618149 303.173518,58.511954 302.955516,58.7088608 C302.737514,58.9057675 302.628515,59.166665 302.628515,59.4915612 C302.628515,59.7376946 302.675582,59.9444436 302.76972,60.1118143 C302.863857,60.279185 302.990197,60.4145564 303.148744,60.5179325 C303.307292,60.6213086 303.483176,60.6951475 303.676406,60.7394515 C303.869636,60.7837555 304.065339,60.8059072 304.263522,60.8059072 C304.620253,60.8059072 304.937342,60.7443747 305.214799,60.621308 C305.492256,60.4982413 305.725119,60.330873 305.913393,60.1191983 C306.101668,59.9075236 306.245348,59.6638551 306.344441,59.3881857 C306.443533,59.1125162 306.493078,58.8220832 306.493078,58.5168776 L306.493078,58 L306.195804,58 Z M312.914198,65 L311.903466,65 L311.903466,54.5443038 L312.914198,54.5443038 L312.914198,55.7405063 L312.958789,55.7405063 C313.246155,55.2876207 313.630131,54.9455005 314.110727,54.714135 C314.591322,54.4827695 315.079342,54.3670886 315.574801,54.3670886 C316.119807,54.3670886 316.61278,54.460618 317.05374,54.6476793 C317.4947,54.8347407 317.871242,55.0907156 318.183382,55.4156118 C318.495521,55.740508 318.738292,56.1244704 318.911703,56.5675105 C319.085114,57.0105507 319.171818,57.4880425 319.171818,58 C319.171818,58.5119575 319.085114,58.9894493 318.911703,59.4324895 C318.738292,59.8755296 318.495521,60.259492 318.183382,60.5843882 C317.871242,60.9092844 317.4947,61.1652593 317.05374,61.3523207 C316.61278,61.539382 316.119807,61.6329114 315.574801,61.6329114 C315.079342,61.6329114 314.591322,61.5172305 314.110727,61.285865 C313.630131,61.0544995 313.246155,60.7222243 312.958789,60.2890295 L312.914198,60.2890295 L312.914198,65 Z M318.101631,58 C318.101631,57.6160319 318.042176,57.2542211 317.923267,56.914557 C317.804357,56.5748929 317.633426,56.2795372 317.410469,56.028481 C317.187512,55.7774249 316.912537,55.5780598 316.585533,55.4303797 C316.25853,55.2826997 315.886941,55.2088608 315.470756,55.2088608 C315.084297,55.2088608 314.727572,55.2802384 314.400569,55.4229958 C314.073565,55.5657531 313.791159,55.7626569 313.553338,56.0137131 C313.315516,56.2647692 313.129722,56.5601249 312.995949,56.899789 C312.862175,57.2394531 312.795289,57.6061865 312.795289,58 C312.795289,58.3938135 312.862175,58.7605469 312.995949,59.100211 C313.129722,59.4398751 313.315516,59.7327695 313.553338,59.978903 C313.791159,60.2250364 314.073565,60.4194789 314.400569,60.5622363 C314.727572,60.7049936 315.084297,60.7763713 315.470756,60.7763713 C315.886941,60.7763713 316.25853,60.7049936 316.585533,60.5622363 C316.912537,60.4194789 317.187512,60.2225751 317.410469,59.971519 C317.633426,59.7204628 317.804357,59.4251071 317.923267,59.085443 C318.042176,58.7457789 318.101631,58.3839681 318.101631,58 Z M323.140427,61.4556962 L323.140427,54.5443038 L324.151159,54.5443038 L324.151159,60.5548523 L327.881949,60.5548523 L327.881949,54.5443038 L328.892681,54.5443038 L328.892681,60.5548523 L330.05205,60.5548523 L330.05205,63.5084388 L329.041318,63.5084388 L329.041318,61.4556962 L323.140427,61.4556962 Z M337.929813,56.9957806 C337.929813,56.3952149 337.77127,55.9472589 337.454175,55.6518987 C337.13708,55.3565386 336.676311,55.2088608 336.07185,55.2088608 C335.655665,55.2088608 335.269212,55.2826997 334.912481,55.4303797 C334.55575,55.5780598 334.253525,55.7749636 334.005795,56.021097 L333.440974,55.3565401 C333.72834,55.0710254 334.107361,54.8347407 334.578048,54.6476793 C335.048735,54.460618 335.581344,54.3670886 336.175896,54.3670886 C336.552446,54.3670886 336.904216,54.4187758 337.231219,54.5221519 C337.558223,54.625528 337.845584,54.7805896 338.093314,54.9873418 C338.341044,55.1940939 338.53427,55.4549914 338.672998,55.7700422 C338.811727,56.085093 338.88109,56.4542876 338.88109,56.8776371 L338.88109,59.9050633 C338.88109,60.1708874 338.890999,60.4465528 338.910818,60.7320675 C338.930637,61.0175822 338.960364,61.2587895 339,61.4556962 L338.093314,61.4556962 C338.063587,61.2883255 338.038814,61.1061895 338.018995,60.9092827 C337.999177,60.7123759 337.989268,60.5203947 337.989268,60.3333333 L337.959541,60.3333333 C337.642446,60.7960642 337.283244,61.1283393 336.881922,61.3301688 C336.4806,61.5319982 335.997535,61.6329114 335.432711,61.6329114 C335.165162,61.6329114 334.890188,61.5959919 334.607775,61.5221519 C334.325363,61.4483119 334.067729,61.3277083 333.834863,61.1603376 C333.601997,60.9929669 333.40877,60.7763726 333.255178,60.5105485 C333.101586,60.2447244 333.024791,59.9198331 333.024791,59.535865 C333.024791,59.0042168 333.161041,58.5833348 333.433543,58.2732068 C333.706044,57.9630787 334.070202,57.7317167 334.526025,57.5791139 C334.981848,57.4265112 335.504549,57.3280593 336.094146,57.2837553 C336.683742,57.2394513 337.295625,57.2172996 337.929813,57.2172996 L337.929813,56.9957806 Z M337.632539,58 C337.216354,58 336.797697,58.017229 336.376556,58.0516878 C335.955415,58.0861465 335.573918,58.1550627 335.232051,58.2584388 C334.890184,58.3618149 334.610254,58.511954 334.392252,58.7088608 C334.174249,58.9057675 334.06525,59.166665 334.06525,59.4915612 C334.06525,59.7376946 334.112318,59.9444436 334.206455,60.1118143 C334.300593,60.279185 334.426932,60.4145564 334.58548,60.5179325 C334.744027,60.6213086 334.919911,60.6951475 335.113141,60.7394515 C335.306371,60.7837555 335.502074,60.8059072 335.700258,60.8059072 C336.056988,60.8059072 336.374078,60.7443747 336.651535,60.621308 C336.928992,60.4982413 337.161854,60.330873 337.350129,60.1191983 C337.538404,59.9075236 337.682084,59.6638551 337.781176,59.3881857 C337.880269,59.1125162 337.929813,58.8220832 337.929813,58.5168776 L337.929813,58 L337.632539,58 Z" id="-" fill="#9B9B9B" fill-rule="nonzero"></path></g></g></svg> 