<?xml version="1.0" encoding="UTF-8"?> <svg xmlns="http://www.w3.org/2000/svg" xmlns:xlink="http://www.w3.org/1999/xlink" width="500px" height="300px" viewBox="0 0 500 300"><!-- Generator: Sketch 52.2 (67145) - http://www.bohemiancoding.com/sketch --><title>Untitled</title><desc>Created with Sketch.</desc><g id="Page-1" stroke="none" stroke-width="1" fill="none" fill-rule="evenodd"><g id="laravel" transform="translate(176.000000, 76.000000)" fill="#F35045"><path d="M93.0892307,120.605627 C94.2373134,122.268165 94.938792,122.140395 95.8316174,121.756703 C96.7244428,121.373011 142.648133,105.833485 144.05109,105.322024 C145.454047,104.810562 145.007826,104.362794 144.561604,103.659102 C144.115383,102.955412 128.807231,82.1086572 128.041842,80.8935049 C127.276454,79.6783525 126.89376,79.9342747 125.681767,80.3179669 L77,93.0181723 C77,93.0181723 91.9411481,118.943089 93.0892307,120.605627 Z" id="Path"></path><path d="M148,99 L148,74 C142.573169,75.4992606 135.709624,77.3939747 133,78.1412464 C137.087566,83.8112362 143.478273,92.6845501 148,99 Z" id="Path"></path><path d="M132.923301,48.1283256 C132.178242,48.300062 115.685134,51.3276394 114.66918,51.4650285 C113.653226,51.6024177 113.991751,52.1874791 114.398284,52.7721547 L128.912295,73 C128.912295,73 146.658439,68.5279074 147.742402,68.2870905 C147.830168,68.2674084 147.916034,68.2465685 148,68.2253424 L148,65.5470264 C144.774326,61.3921637 135.985981,50.0803315 135.226485,49.0232844 C134.312354,47.7501196 133.668359,47.9565892 132.923301,48.1283256 Z" id="Path"></path><path d="M27.0363938,16.4717324 C30.6713035,16.3079777 31.0030857,17.1282854 32.6001257,19.4768428 L72.7217947,86 L123.1697,74.0144573 C120.374686,70.0851104 107.685372,52.243514 106.45917,50.5411549 C105.080611,48.6267202 106.493585,47.7377659 108.734082,47.3619354 C110.974578,46.9861048 130.276722,43.7727536 131.931379,43.5334493 C133.586036,43.2941449 134.896151,42.7131416 137.584437,45.9264927 C138.959903,47.5705596 143.623801,53.329971 148,58.7285084 L148,27.6120401 C148,20.0060736 145.276911,13.5022876 139.831121,8.10144926 C134.38533,2.70061093 127.827412,0 120.158139,0 L27.3519349,0 C19.6826622,0 13.1247438,2.70061093 7.67895312,8.10144926 C4.55525099,11.1993668 2.33215571,14.6616098 1,18.4851104 C10.0938479,17.7441873 24.4923437,16.5863991 27.0363938,16.4717324 Z" id="Path"></path><path d="M97.2918856,129.322772 C93.0519169,130.60224 91.1506562,131.237175 88.3887606,127.398389 C86.3202294,124.523139 75.1342812,104.455887 69.6494169,94.5633365 C59.269375,97.2712155 40.2725729,102.209429 34.7946458,103.520375 C29.4477604,104.799842 27.1645521,101.607124 26.2861875,99.6389785 C25.6702917,98.2589354 9.99539581,64.5981594 0,43 L0,120.360743 C0,127.974591 2.71410417,134.484019 8.14192706,139.890566 C13.56975,145.296727 20.1060313,148 27.75,148 L120.25,148 C127.893969,148 134.43025,145.296727 139.858073,139.890566 C145.285896,134.484019 148,127.974591 148,120.360743 L148,111.27357 C136.645239,115.410246 100.148594,128.460581 97.2918856,129.322772 Z" id="Path"></path><path d="M34.9833926,95.8202512 C36.4897121,95.4742407 64.7191992,88.690579 65.3218815,88.5610189 C65.9245639,88.4314588 66.3116714,88.085449 65.6661059,86.9624674 C65.0205404,85.8394858 28.0370921,21.7426446 28.0370921,21.7426446 C27.6955721,21.1541945 27.7929285,20.9583031 26.8653385,21.0071789 C26.0381956,21.0510121 5.11198262,22.9257513 0.266957376,23.3322745 C0.124013484,24.3439277 0.0378608143,25.3788552 0,26.4339536 C4.91842887,36.5435032 33.1467568,94.9978952 33.305154,95.4742407 C33.4774593,95.9928686 33.477073,96.1658735 34.9833926,95.8202512 Z" id="Path"></path></g></g></svg> 