<?xml version="1.0" encoding="utf-8"?>
<svg xmlns="http://www.w3.org/2000/svg"
	xmlns:xlink="http://www.w3.org/1999/xlink"
	width="185px" height="66px" viewBox="0 0 185 66">
<path fillRule="evenodd" d="M 185 43.51C 185 43.51 185 44.3 185 44.3 185 44.3 174.44 44.33 174.44 44.33 174.44 44.33 174.44 26.7 174.44 26.7 174.44 26.7 185 26.7 185 26.7 185 26.7 185 27.49 185 27.49 185 27.49 175.27 27.49 175.27 27.49 175.27 27.49 175.27 34.85 175.27 34.85 175.27 34.85 184.82 34.85 184.82 34.85 184.82 34.85 184.82 35.64 184.82 35.64 184.82 35.64 175.27 35.64 175.27 35.64 175.27 35.64 175.27 43.51 175.27 43.51 175.27 43.51 185 43.51 185 43.51ZM 170.59 39.86C 170.59 41.85 169.35 44.64 164.67 44.64 162.34 44.7 160.11 43.67 158.65 41.85 158.65 41.85 159.32 41.26 159.32 41.26 160.61 42.9 162.59 43.86 164.68 43.87 168.67 43.87 169.68 41.54 169.68 39.88 169.68 34.08 159.19 36.94 159.19 30.93 159.19 28.08 161.75 26.45 164.6 26.45 167.14 26.45 168.98 27.4 170.2 28.93 170.2 28.93 169.55 29.52 169.55 29.52 168.38 27.99 166.54 27.13 164.61 27.22 162.1 27.22 160.1 28.75 160.1 30.92 160.1 35.93 170.59 33.27 170.59 39.86ZM 148.57 44.62C 144.37 44.62 142.15 41.98 142.15 37.65 142.15 37.65 142.15 26.7 142.15 26.7 142.15 26.7 142.98 26.7 142.98 26.7 142.98 26.7 142.98 37.62 142.98 37.62 142.98 41.53 144.95 43.83 148.58 43.83 152.2 43.83 154.17 41.53 154.17 37.62 154.17 37.62 154.17 26.7 154.17 26.7 154.17 26.7 154.99 26.7 154.99 26.7 154.99 26.7 154.99 37.62 154.99 37.62 154.99 41.98 152.77 44.62 148.57 44.62ZM 130 44.64C 125 44.64 121.78 40.63 121.78 35.54 121.78 30.45 124.96 26.43 129.98 26.43 135.01 26.43 138.2 30.44 138.2 35.54 138.2 40.64 134.99 44.64 130 44.64ZM 129.98 27.22C 125.55 27.22 122.68 30.71 122.68 35.54 122.68 40.37 125.5 43.86 129.98 43.86 134.46 43.86 137.28 40.31 137.28 35.54 137.28 30.71 134.41 27.22 129.98 27.22ZM 101.23 15.99C 101.23 15.99 138.19 15.99 138.19 15.99 138.19 15.99 138.19 16.58 138.19 16.58 138.19 16.58 101.23 16.58 101.23 16.58 101.23 16.58 101.23 15.99 101.23 15.99ZM 111.45 10.34C 111.45 10.34 118.7 8 118.7 8 118.7 8 118.88 8.56 118.88 8.56 118.88 8.56 111.63 10.9 111.63 10.9 111.63 10.9 111.45 10.34 111.45 10.34ZM 100.24 10.35C 100.24 10.35 114.51-0 114.51-0 114.51-0 114.86 0.48 114.86 0.48 114.86 0.48 100.58 10.82 100.58 10.82 100.58 10.82 100.24 10.35 100.24 10.35ZM 97.78 43.78C 97.78 43.5 97.73 43.3 97.36 43.3 97.36 43.3 87.59 43.3 87.59 43.3 87.23 43.3 87.19 43.49 87.18 43.78 87.12 45.52 87.05 47.27 86.99 49.01 86.99 49.01 86.52 48.74 86.52 48.74 86.62 45.94 86.73 43.13 86.85 40.32 87.03 36.08 87.22 31.84 87.4 27.6 87.51 25.06 87.62 22.52 87.66 19.97 87.61 19.5 87.45 19.05 87.21 18.65 86.93 18 86.96 17.99 87.8 17.84 87.8 17.84 87.8 15.48 87.8 15.48 87.8 15.48 89.25 15.48 89.25 15.48 89.25 15.48 89.25 13.52 89.25 13.52 89.25 13.52 88.72 13.4 88.72 13.4 89.79 12.81 90.78 12.22 91.78 11.63 92.09 11.51 92.28 11.2 92.25 10.86 92.25 10.23 92.34 9.6 92.53 8.99 92.71 9.6 92.8 10.23 92.8 10.86 92.77 11.2 92.97 11.51 93.28 11.63 94.28 12.18 95.26 12.76 96.33 13.4 96.33 13.4 95.8 13.52 95.8 13.52 95.8 13.52 95.8 15.5 95.8 15.5 95.8 15.5 97.25 15.5 97.25 15.5 97.25 15.5 97.25 17.86 97.25 17.86 98.07 18 98.1 18.02 97.84 18.66 97.6 19.07 97.45 19.52 97.39 19.99 97.43 22.53 97.55 25.07 97.65 27.62 97.83 31.86 98.03 36.1 98.2 40.34 98.23 43.13 98.33 45.94 98.44 48.74 98.44 48.74 97.97 49.01 97.97 49.01 97.9 47.27 97.84 45.52 97.78 43.78ZM 89.2 15.99C 89.2 15.99 88.3 15.99 88.3 15.99 88.3 15.99 88.3 16.51 88.3 16.51 88.3 16.51 89.2 16.51 89.2 16.51 89.2 16.51 89.2 15.99 89.2 15.99ZM 89.2 16.64C 89.2 16.64 88.3 16.64 88.3 16.64 88.3 16.64 88.3 17.23 88.3 17.23 88.3 17.23 89.2 17.23 89.2 17.23 89.2 17.23 89.2 16.64 89.2 16.64ZM 89.2 17.39C 89.2 17.39 88.3 17.39 88.3 17.39 88.3 17.39 88.3 17.87 88.3 17.87 88.3 17.87 89.2 17.87 89.2 17.87 89.2 17.87 89.2 17.39 89.2 17.39ZM 95.16 13.51C 95.16 13.51 89.78 13.51 89.78 13.51 89.78 13.51 89.78 15.46 89.78 15.46 89.78 15.46 91.31 15.46 91.31 15.46 91.52 14.15 91.73 13.83 92.41 13.83 92.41 13.83 92.53 13.83 92.53 13.83 93.21 13.83 93.43 14.15 93.63 15.46 93.63 15.46 95.16 15.46 95.16 15.46 95.16 15.46 95.16 13.51 95.16 13.51ZM 92.14 17.23C 92.14 17.23 92.14 16.64 92.14 16.64 92.14 16.64 89.78 16.64 89.78 16.64 89.78 16.64 89.78 17.23 89.78 17.23 89.78 17.23 92.14 17.23 92.14 17.23ZM 89.78 17.39C 89.78 17.39 89.78 17.87 89.78 17.87 89.78 17.87 92.14 17.87 92.14 17.87 92.14 17.87 92.14 17.39 92.14 17.39 92.14 17.39 89.78 17.39 89.78 17.39ZM 92.14 16.51C 92.14 16.51 92.14 15.99 92.14 15.99 92.14 15.99 89.78 15.99 89.78 15.99 89.78 15.99 89.78 16.51 89.78 16.51 89.78 16.51 92.14 16.51 92.14 16.51ZM 95.16 15.99C 95.16 15.99 92.8 15.99 92.8 15.99 92.8 15.99 92.8 16.51 92.8 16.51 92.8 16.51 95.16 16.51 95.16 16.51 95.16 16.51 95.16 15.99 95.16 15.99ZM 95.16 16.65C 95.16 16.65 92.8 16.65 92.8 16.65 92.8 16.65 92.8 17.24 92.8 17.24 92.8 17.24 95.16 17.24 95.16 17.24 95.16 17.24 95.16 16.65 95.16 16.65ZM 95.16 17.37C 95.16 17.37 92.8 17.4 92.8 17.4 92.8 17.4 92.8 17.86 92.8 17.86 92.8 17.86 95.16 17.86 95.16 17.86 95.16 17.86 95.16 17.37 95.16 17.37ZM 96.65 16C 96.65 16 95.76 16 95.76 16 95.76 16 95.76 16.52 95.76 16.52 95.76 16.52 96.65 16.52 96.65 16.52 96.65 16.52 96.65 16 96.65 16ZM 96.65 16.65C 96.65 16.65 95.76 16.65 95.76 16.65 95.76 16.65 95.76 17.24 95.76 17.24 95.76 17.24 96.65 17.24 96.65 17.24 96.65 17.24 96.65 16.65 96.65 16.65ZM 96.65 17.4C 96.65 17.4 95.76 17.4 95.76 17.4 95.76 17.4 95.76 17.88 95.76 17.88 95.76 17.88 96.65 17.88 96.65 17.88 96.65 17.88 96.65 17.4 96.65 17.4ZM 97.3 32.31C 97.3 32.31 97.29 32.31 97.29 32.31 97.23 30.54 97.15 28.77 97.07 27 97.07 26.7 97.04 26.49 96.64 26.49 96.64 26.49 88.32 26.49 88.32 26.49 87.91 26.49 87.89 26.7 87.88 27 87.81 28.77 87.72 30.54 87.66 32.31 87.66 32.99 87.66 33.66 87.66 34.36 87.66 34.36 97.3 34.36 97.3 34.36 97.3 33.68 97.32 32.99 97.3 32.31ZM 90.58 29.04C 90.65 28.07 91.5 27.34 92.48 27.41 92.54 27.4 92.61 27.4 92.67 27.4 93.65 27.41 94.44 28.2 94.44 29.18 94.52 30.41 94.44 31.65 94.44 32.93 94.44 32.93 90.58 32.93 90.58 32.93 90.58 31.65 90.47 30.4 90.58 29.18 90.57 29.13 90.58 29.09 90.58 29.04ZM 70.14 0.48C 70.14 0.48 70.49 0.01 70.49 0.01 70.49 0.01 84.76 10.36 84.76 10.36 84.76 10.36 84.42 10.84 84.42 10.84 84.42 10.84 70.14 0.48 70.14 0.48ZM 73.37 10.89C 73.37 10.89 66.12 8.54 66.12 8.54 66.12 8.54 66.3 7.98 66.3 7.98 66.3 7.98 73.55 10.33 73.55 10.33 73.55 10.33 73.37 10.89 73.37 10.89ZM 82.86 16.58C 82.86 16.58 45.9 16.58 45.9 16.58 45.9 16.58 45.9 15.99 45.9 15.99 45.9 15.99 82.86 15.99 82.86 15.99 82.86 15.99 82.86 16.58 82.86 16.58ZM 33.35 44.67C 28.46 44.82 24.37 40.98 24.22 36.1 24.21 35.91 24.21 35.73 24.22 35.54 24.07 30.66 27.92 26.58 32.81 26.43 32.99 26.43 33.17 26.43 33.34 26.43 35.85 26.37 38.28 27.35 40.02 29.15 40.02 29.15 39.43 29.74 39.43 29.74 37.83 28.09 35.62 27.19 33.32 27.23 28.75 27.23 25.16 30.59 25.16 35.55 25.16 40.51 28.75 43.89 33.32 43.89 35.5 43.89 37.58 43.05 39.13 41.53 39.13 41.53 39.13 36.7 39.13 36.7 39.13 36.7 31.62 36.7 31.62 36.7 31.62 36.7 31.62 35.91 31.62 35.91 31.62 35.91 40.04 35.91 40.04 35.91 40.04 35.91 40.04 41.85 40.04 41.85 38.3 43.67 35.88 44.7 33.35 44.67ZM 16.38 26.7C 16.38 26.7 17.26 26.7 17.26 26.7 17.26 26.7 17.26 44.3 17.26 44.3 17.26 44.3 16.38 44.33 16.38 44.33 16.38 44.33 16.38 26.7 16.38 26.7ZM 0 26.7C 0 26.7 0.88 26.7 0.88 26.7 0.88 26.7 0.88 43.51 0.88 43.51 0.88 43.51 10.05 43.51 10.05 43.51 10.05 43.51 10.05 44.3 10.05 44.3 10.05 44.3 0 44.33 0 44.33 0 44.33 0 26.7 0 26.7ZM 49.55 65.19C 49.55 65.19 52.46 58.23 52.46 58.23 52.46 58.23 53.05 58.23 53.05 58.23 53.05 58.23 53.05 66 53.05 66 53.05 66 52.67 66 52.67 66 52.67 66 52.67 58.67 52.67 58.67 52.67 58.67 49.63 66 49.63 66 49.63 66 49.5 66 49.5 66 49.5 66 46.46 58.67 46.46 58.67 46.46 58.67 46.46 66 46.46 66 46.46 66 46.09 66 46.09 66 46.09 66 46.09 58.23 46.09 58.23 46.09 58.23 46.68 58.23 46.68 58.23 46.68 58.23 49.55 65.19 49.55 65.19ZM 47.85 44.33C 47.85 44.33 46.98 44.33 46.98 44.33 46.98 44.33 46.98 26.7 46.98 26.7 46.98 26.7 47.85 26.7 47.85 26.7 47.85 26.7 47.85 34.85 47.85 34.85 47.85 34.85 60.32 34.85 60.32 34.85 60.32 34.85 60.32 26.7 60.32 26.7 60.32 26.7 61.2 26.7 61.2 26.7 61.2 26.7 61.2 44.3 61.2 44.3 61.2 44.3 60.32 44.33 60.32 44.33 60.32 44.33 60.32 35.67 60.32 35.67 60.32 35.67 47.85 35.67 47.85 35.67 47.85 35.67 47.85 44.33 47.85 44.33ZM 80.62 27.49C 80.62 27.49 74.43 27.49 74.43 27.49 74.43 27.49 74.43 44.3 74.43 44.3 74.43 44.3 73.55 44.33 73.55 44.33 73.55 44.33 73.55 27.51 73.55 27.51 73.55 27.51 67.39 27.51 67.39 27.51 67.39 27.51 67.39 26.7 67.39 26.7 67.39 26.7 80.62 26.7 80.62 26.7 80.62 26.7 80.62 27.49 80.62 27.49ZM 73.92 58.57C 73.92 58.57 69.52 58.57 69.52 58.57 69.52 58.57 69.52 61.83 69.52 61.83 69.52 61.83 73.83 61.83 73.83 61.83 73.83 61.83 73.83 62.17 73.83 62.17 73.83 62.17 69.52 62.17 69.52 62.17 69.52 62.17 69.52 65.65 69.52 65.65 69.52 65.65 73.92 65.65 73.92 65.65 73.92 65.65 73.92 65.99 73.92 65.99 73.92 65.99 69.14 66 69.14 66 69.14 66 69.14 58.23 69.14 58.23 69.14 58.23 73.92 58.23 73.92 58.23 73.92 58.23 73.92 58.57 73.92 58.57ZM 90.52 46.08C 90.58 45.03 91.48 44.22 92.54 44.28 93.51 44.34 94.28 45.11 94.34 46.08 94.34 46.08 94.38 46.08 94.38 46.08 94.49 47.3 94.38 48.55 94.38 49.83 94.38 49.83 90.52 49.83 90.52 49.83 90.52 48.55 90.44 47.31 90.52 46.08ZM 95.78 62.26C 95.7 64.29 94.07 65.92 92.03 66 92.03 66 89.71 66 89.71 66 89.71 66 89.71 58.23 89.71 58.23 89.71 58.23 92.03 58.23 92.03 58.23 94.18 58.31 95.86 60.12 95.78 62.26ZM 90.09 65.66C 90.09 65.66 92.03 65.66 92.03 65.66 93.86 65.74 95.42 64.33 95.51 62.51 95.51 62.37 95.51 62.25 95.5 62.12 95.5 62.12 95.5 62.12 95.5 62.12 95.61 60.28 94.21 58.7 92.36 58.59 92.25 58.58 92.14 58.58 92.03 58.58 92.03 58.58 90.09 58.58 90.09 58.58 90.09 58.58 90.09 65.66 90.09 65.66ZM 105.21 34.85C 105.21 34.85 116.99 34.85 116.99 34.85 116.99 34.85 116.99 26.7 116.99 26.7 116.99 26.7 117.81 26.7 117.81 26.7 117.81 26.7 117.81 44.3 117.81 44.3 117.81 44.3 116.99 44.33 116.99 44.33 116.99 44.33 116.99 35.67 116.99 35.67 116.99 35.67 105.21 35.67 105.21 35.67 105.21 35.67 105.21 44.33 105.21 44.33 105.21 44.33 104.38 44.33 104.38 44.33 104.38 44.33 104.38 26.7 104.38 26.7 104.38 26.7 105.21 26.7 105.21 26.7 105.21 26.7 105.21 34.85 105.21 34.85ZM 113.25 66C 113.25 66 112.88 66 112.88 66 112.88 66 112.88 58.23 112.88 58.23 112.88 58.23 113.25 58.23 113.25 58.23 113.25 58.23 113.25 66 113.25 66ZM 134.37 58.23C 134.37 58.23 137.62 66 137.62 66 137.62 66 137.16 66 137.16 66 137.16 66 136.3 63.91 136.3 63.91 136.3 63.91 131.95 63.91 131.95 63.91 131.95 63.91 131.11 66 131.11 66 131.11 66 130.68 66 130.68 66 130.68 66 133.93 58.23 133.93 58.23 133.93 58.23 134.37 58.23 134.37 58.23ZM 136.16 63.57C 136.16 63.57 134.12 58.66 134.12 58.66 134.12 58.66 132.09 63.57 132.09 63.57 132.09 63.57 136.16 63.57 136.16 63.57Z" fill="rgb(255,255,255)" opacity="0.66"/></svg>