<?xml version="1.0" encoding="utf-8"?>
<svg xmlns="http://www.w3.org/2000/svg"
	xmlns:xlink="http://www.w3.org/1999/xlink"
	width="1920px" height="117px" viewBox="0 0 1920 117">
<path fillRule="evenodd" d="M 978.09 117C 977.07 117 976.05 117 975.03 117 615.51 117 256.25 117-103.77 117-102.51 100.69-106.35 84.4-101.26 71.3-94.16 66.83-89.12 63.65-83.67 60.22-80.54 64.71-78.3 60.84-75.89 56.84-74.82 59.41-74.08 61.2-73.04 63.71-72.02 62.26-71.14 61.25-70.54 60.1-67.5 54.28-63.25 53.71-59.58 58.87-57.26 62.11-55.39 60.25-53.84 58.47-49.47 53.45-44.42 49.66-37.65 48.88-32.11 48.24-26.82 47.35-22.1 52.53-19.8 55.05-15.09 55.73-11.32 56.43-8.56 56.93-5.11 59.35-4.1 58.96 0.65 57.14 3.76 60.8 7.65 61.41 12.84 62.21 18.55 63.04 22.98 64.68 27.6 66.38 32.15 67.12 36.79 67.98 38.28 68.25 39.93 67.65 42.59 67.31 45.81 71.74 51.19 68.76 55.36 66.88 62.52 63.65 69.07 59.07 75.86 55.01 81.06 51.89 86.09 48.46 91.45 45.68 93.38 44.68 96.14 44.66 98.39 45.02 105.94 46.25 112.82 45.11 119.66 41.44 125.85 38.12 133.66 37.7 137.86 30.91 147.82 30.52 157.24 21.63 167.73 29.06 169.05 29.99 170.7 30.61 172.28 30.98 183.64 33.58 195.02 36.04 206.38 38.64 209.75 39.41 213.53 39.75 216.29 41.56 226.91 48.56 238.49 46.96 250 46.06 256.32 45.57 262.07 43.51 267.12 39.34 268.42 38.27 271.17 39.07 273.2 38.74 276.08 38.27 279.5 38.34 281.64 36.76 286.55 33.16 291.05 30.53 297.71 31.52 301.5 32.08 305.84 29.91 309.74 28.44 316.02 26.09 322.21 23.44 328.33 20.66 338.99 15.83 349.67 11.03 360.13 5.78 365.23 3.23 369.98 3.34 375.51 4.05 394.25 6.48 411.21 13.85 428.09 21.6 433.16 23.92 436.77 23.76 439.77 18.22 441.29 15.39 444.51 13.45 447.06 11.22 449.83 8.8 452.96 6.76 455.47 4.12 460.84-1.52 468.25-1.41 473.45 4.73 474.76 6.28 476.01 7.88 477.35 9.4 480.93 13.48 485.09 15.64 490.48 12.94 494.97 10.7 498.58 11.93 501.81 15.48 505.01 18.99 508.59 20.22 513.67 19.14 516.47 18.55 520.48 20.26 522.96 22.19 529.96 27.65 537.35 31.47 546.36 29.5 551.51 28.37 556.51 26.32 561.43 24.34 567.13 22.04 572.15 22.59 576.75 26.77 577.83 27.76 579.14 28.5 580.34 29.35 589.98 36.2 590.72 36.19 600.56 29.09 606.27 24.97 613.33 24.94 620.33 31.18 626.93 37.06 633.64 41.2 642.43 43.08 652.24 45.19 661.74 48.89 671.24 52.26 673.23 52.96 674.7 55.2 676.35 56.79 677.09 57.51 677.7 59.1 678.34 59.08 685.9 58.88 692.46 62.59 699.54 64.13 702.99 64.89 706.82 63.89 710.06 62.65 712.46 64.03 714.86 65.41 717.5 66.93 718.11 65.66 718.57 64.71 718.63 64.6 723.08 65.98 727.3 67.3 732.57 68.93 736.24 65.7 740.84 67.33 745.78 69.4 748.96 70.74 752.63 70.96 756.11 71.53 760.98 72.34 766.28 72.11 770.64 74.04 773.85 75.46 776.43 74.2 779.09 74.17 783.76 74.12 787.41 73.6 790.82 78.31 792.56 80.71 797.68 80.66 801.31 81.72 803.9 77.56 806.57 76.99 810 80.16 810.96 79.15 811.92 78.15 812.59 77.44 815.28 79.15 817.68 80.67 819.23 81.65 822.8 78.93 825.35 76.41 828.41 75.01 829.41 74.55 831.74 77.01 834.07 78.53 835.13 76.95 836.96 74.73 839.77 78.56 840.21 79.16 843.11 77.96 844.88 77.59 845.08 76.94 845.27 76.3 845.47 75.66 846.3 76.8 847.03 78.04 847.97 79.07 852.71 84.26 858.22 82.44 863.91 81.06 869.22 79.78 874.72 79.33 880.11 78.34 881.26 78.13 882.32 77.27 883.36 76.62 889.82 72.55 895.87 76.28 902.22 77.16 910.98 78.37 918.79 84.82 928.43 81.51 931.12 80.59 934.72 81.11 937.55 82.04 948.7 85.73 959.73 89.75 970.79 93.68 973.36 91.7 975.31 90.19 977.42 88.56 979.67 90.79 980.29 88.81 980.98 86.75 981.9 88.04 982.54 88.94 983.43 90.19 983.76 89.44 984.08 88.92 984.24 88.33 985.01 85.33 987.16 84.97 989.83 87.55 991.51 89.18 992.24 88.2 992.82 87.27 994.44 84.63 996.61 82.6 1000.14 82.09 1003.05 81.67 1005.81 81.12 1009.12 83.73 1010.73 85.01 1013.42 85.29 1015.6 85.6 1017.2 85.82 1019.46 87.04 1019.97 86.82 1022.36 85.79 1024.62 87.67 1026.89 87.94 1029.94 88.29 1033.3 88.65 1036.06 89.45 1038.94 90.3 1041.67 90.63 1044.47 91.03 1045.38 91.16 1046.25 90.81 1047.75 90.6 1050.25 92.93 1052.99 91.26 1055.19 90.2 1058.98 88.36 1062.26 85.78 1065.77 83.45 1068.48 81.66 1071.06 79.69 1073.95 78.05 1074.99 77.46 1076.69 77.4 1078.12 77.55 1082.97 78.08 1087.1 77.31 1090.89 75.12 1094.35 73.12 1099.26 72.7 1101.01 68.76 1107.39 68.28 1112.31 62.94 1120.26 66.93 1121.26 67.44 1122.44 67.75 1123.55 67.92 1131.52 69.14 1139.58 70.28 1147.73 71.53 1150.17 71.9 1152.84 72 1155.01 73.01 1163.42 76.9 1171.42 75.69 1179.58 74.89 1184.11 74.45 1188.03 73.07 1191.19 70.42 1192 69.74 1194.14 70.15 1195.61 69.9 1197.69 69.53 1200.25 69.49 1201.64 68.47 1204.85 66.12 1207.9 64.37 1213.1 64.78 1216.08 65.01 1219.13 63.54 1221.94 62.5 1226.52 60.83 1231.01 58.96 1235.47 57.01 1243.32 53.56 1251.3 50.08 1259.16 46.28 1263.02 44.41 1266.98 44.27 1271.69 44.5 1287.88 45.29 1303.49 49.47 1319.36 53.98 1324.18 55.35 1327.41 55.11 1329.42 51.24 1330.44 49.26 1333.12 47.81 1335.16 46.18 1337.39 44.41 1340.01 42.87 1342 40.94 1346.27 36.79 1353.2 36.49 1358.85 40.5 1360.28 41.51 1361.65 42.57 1363.11 43.56 1367.02 46.24 1371.24 47.56 1376.1 45.43 1380.17 43.65 1383.82 44.35 1387.4 46.7 1390.95 49.04 1394.62 49.75 1399.51 48.77 1402.23 48.22 1406.43 49.26 1409.15 50.53 1416.85 54.13 1424.8 56.57 1433.83 54.79 1439.05 53.77 1444.04 52.07 1448.99 50.4 1454.77 48.46 1460.19 48.64 1465.6 51.52 1466.87 52.2 1468.36 52.69 1469.76 53.27 1481 57.94 1481.82 57.9 1491.91 52.19 1497.84 48.84 1505.78 48.48 1514.41 52.9 1522.59 57.08 1530.77 59.97 1541.24 61.06 1553.07 62.3 1564.82 64.81 1576.7 67.09 1579.21 67.57 1581.22 69.26 1583.4 70.45 1584.38 70.99 1585.29 72.22 1586.07 72.18 1595.43 71.78 1604 74.5 1613.1 75.51 1617.56 76 1622.38 75.09 1626.45 74 1629.68 75.03 1632.91 76.07 1636.48 77.21 1637.17 76.17 1637.69 75.39 1637.75 75.3 1643.71 76.28 1649.4 77.21 1656.53 78.39 1661.18 75.65 1667.51 76.84 1674.36 78.39 1678.81 79.39 1683.86 79.47 1688.69 79.84 1695.51 80.37 1702.88 80.04 1709.16 81.52 1713.82 82.62 1717.39 81.5 1721.18 81.4 1727.88 81.23 1733.1 80.69 1738.39 84.58 1741.09 86.57 1748.59 86.4 1754 87.22 1757.56 83.61 1761.5 83.05 1766.83 85.68 1768.21 84.79 1769.59 83.9 1770.55 83.28 1774.71 84.68 1778.44 85.93 1780.84 86.73 1786.13 84.3 1789.89 82.04 1794.52 80.73 1796.03 80.3 1799.79 82.38 1803.49 83.65 1805.06 82.24 1807.79 80.24 1812.41 83.52 1813.13 84.04 1817.65 82.9 1820.43 82.52 1820.7 81.95 1820.98 81.38 1821.25 80.8 1822.63 81.79 1823.85 82.86 1825.42 83.75 1833.26 88.23 1842.04 86.47 1851.22 85.1 1859.87 83.81 1868.96 83.25 1877.92 82.2 1879.85 81.98 1881.59 81.16 1883.32 80.54 1894.13 76.6 1904.65 79.84 1915.7 80.46 1931.11 81.31 1945.19 87.11 1962.5 83.74 1967.39 82.79 1974.02 83.17 1979.26 83.98 2002.1 87.5 2025.13 91.48 2048.71 95.39 2051.41 95.84 2054.17 96.22 2057 96.64 2057 103.47 2057 110.07 2057 117 1380.78 117 1178.47 117 978.09 117Z" fill="rgb(255,255,255)"/></svg>