<?xml version="1.0" encoding="UTF-8"?> <svg xmlns="http://www.w3.org/2000/svg" xmlns:xlink="http://www.w3.org/1999/xlink" width="500px" height="300px" viewBox="0 0 500 300"><!-- Generator: Sketch 52.2 (67145) - http://www.bohemiancoding.com/sketch --><title>Untitled</title><desc>Created with Sketch.</desc><g id="Page-1" stroke="none" stroke-width="1" fill="none" fill-rule="evenodd"><g id="mysql" transform="translate(157.000000, 59.000000)" fill="#00546B"><path d="M171.32587,140.764202 C161.205559,140.512644 153.362172,141.52208 146.783757,144.295659 C144.886199,145.051943 141.849782,145.052735 141.596629,147.448163 C142.609307,148.457612 142.735487,150.096762 143.62116,151.483546 C145.140175,154.004753 147.795644,157.410428 150.19954,159.176155 C152.8558,161.193443 155.51285,163.21073 158.295324,164.976457 C163.229298,168.003193 168.79576,169.768109 173.602763,172.794831 C176.386818,174.558949 179.168434,176.830208 181.951697,178.721713 C183.343741,179.729556 184.228623,181.369497 186,182 L186,181.621863 C185.114295,180.486646 184.861142,178.847495 183.976261,177.586486 C182.712012,176.32548 181.446183,175.19026 180.181144,173.929254 C176.512207,169.011804 171.958358,164.724105 167.024448,161.193443 C162.976969,158.419062 154.120905,154.636052 152.476466,149.970165 C152.476466,149.970165 152.349494,149.844383 152.223313,149.718602 C155.006545,149.466239 158.295324,148.457605 160.952406,147.700513 C165.253862,146.565298 169.175192,146.817654 173.602763,145.683225 C175.626503,145.178511 177.651065,144.548008 179.674805,143.917501 L179.674805,142.783086 C177.398704,140.512625 175.753508,137.486703 173.34961,135.342819 C166.898234,129.793284 159.813515,124.371908 152.476466,119.832588 C148.554344,117.31058 143.494188,115.670622 139.319771,113.527552 C137.802369,112.769675 135.271468,112.392338 134.386586,111.131319 C132.10888,108.356955 130.843841,104.700521 129.199455,101.421404 C125.532134,94.4851056 121.988558,86.7940573 118.826,79.4803809 C116.549898,74.5621394 115.157875,69.6438749 112.374627,65.1046347 C99.344927,43.6675612 85.17629,30.6793295 63.417494,17.9427059 C58.7366948,15.2949085 53.171024,14.1596928 47.2251661,12.7729066 C44.0633758,12.6463249 40.8999712,12.394768 37.7373506,12.2681863 C35.713611,11.3853138 33.6890676,8.9898936 31.9176869,7.85466779 C24.708424,3.31457082 6.11137232,-6.52033441 0.798066868,6.46788154 C-2.61769986,14.6644404 5.85822286,22.7343597 8.76761815,26.8962978 C10.9191465,29.7964586 13.7015899,33.0747441 15.2197981,36.3538717 C16.1054901,38.49614 16.3578489,40.7673857 17.2435409,43.0370386 C19.268081,48.5841803 21.1648356,54.7641961 23.8218985,59.9348555 C25.2139225,62.5826525 26.7313268,65.3570231 28.502701,67.7524252 C29.5145674,69.1392099 31.285141,69.7705141 31.6652919,72.0401637 C29.8947248,74.5621655 29.7677367,78.3451929 28.7550597,81.4977308 C24.2012455,95.746897 25.9726164,113.401025 32.4239957,123.867173 C34.4477352,127.01889 39.2554962,133.956022 45.7069249,131.307437 C51.3995972,129.037777 50.1345548,121.849869 51.7789474,115.54484 C52.1591048,114.030674 51.9059323,113.022838 52.6646361,112.014184 C52.665295,112.139966 52.6646361,112.266543 52.6646361,112.266543 C54.436007,115.797199 56.2065839,119.202098 57.8509698,122.732695 C61.7730685,128.911141 68.6038211,135.342744 74.2964568,139.630525 C77.3336777,141.899363 79.7367639,145.808974 83.5318645,147.196553 L83.5318645,146.817608 L83.2786986,146.817608 C82.5191938,145.682391 81.3811436,145.178458 80.3692706,144.295607 C78.092358,142.025953 75.5614797,139.251573 73.7909126,136.729577 C68.4783945,129.667439 63.7967816,121.849876 59.6223408,113.779149 C57.5986012,109.870357 55.8272304,105.582581 54.1828378,101.673801 C53.4233334,100.159639 53.4233334,97.8907872 52.1582944,97.134509 C50.2607391,99.9080747 47.4782958,102.304308 46.086272,105.709191 C43.683986,111.131352 43.4300129,117.814535 42.5443242,124.750019 C42.0387829,124.876605 42.2911517,124.750019 42.0379824,125.002387 C37.9905001,123.992939 36.5984761,119.832588 35.0802415,116.301125 C31.2851278,107.348328 30.6526117,92.9725094 33.9421907,82.6329413 C34.8278795,79.9843496 38.6229932,71.6620195 37.104785,69.1400045 C36.3460812,66.7437683 33.8152026,65.3569902 32.4239825,63.4654847 C30.7795899,61.0692517 29.0082191,58.0433204 27.8701683,55.3947582 C24.8337518,48.3334307 23.3155502,40.5150564 20.0267848,33.4529178 C18.5085766,30.1738237 15.8523176,26.7697499 13.7015899,23.7438071 C11.2985033,20.3389396 8.64143383,17.9427059 6.74385229,13.9073156 C6.11213336,12.5205294 5.22564406,10.2508843 6.23751712,8.73750981 C6.49068635,7.72887229 6.99621765,7.3507272 8.008888,7.09836346 C9.65328052,5.7107772 14.334083,7.47650197 15.9784393,8.23278926 C20.6592417,10.1234892 24.5805463,11.8900275 28.502645,14.5378179 C30.2732153,15.7988222 32.1707704,18.1950558 34.4476825,18.8255581 L37.1047422,18.8255581 C41.153025,19.7076238 45.7068491,19.077908 49.5019596,20.212344 C56.2073054,22.3554143 62.2785076,25.508725 67.7188671,28.9136063 C84.2913424,39.3797603 97.9527809,54.2602733 107.188254,72.0401703 C108.706462,74.9395251 109.338178,77.5889082 110.730202,80.6148529 C113.387265,86.7941001 116.67604,93.0991259 119.332306,99.1517994 C121.988564,105.077881 124.518639,111.131365 128.31374,116.049617 C130.212099,118.696612 137.801545,120.084192 141.217263,121.471778 C143.747341,122.606207 147.669463,123.615655 149.946355,125.002436 C154.247021,127.649425 158.548476,130.67697 162.596746,133.577115 C164.621276,135.089688 170.94568,138.243001 171.325838,140.764215 L171.32587,140.764202 Z" id="Path"></path><path d="M42.1246794,31 C39.9995224,31 38.50016,31.2509273 37,31.6257346 C37,31.6250836 37,31.7511967 37,31.8758677 L37.2501629,31.8758677 C38.250798,33.8753366 39.999529,35.2506665 41.2495261,36.9999964 C42.2501644,38.999466 43.1245235,40.9997362 44.1251618,43 C44.2498395,42.8745347 44.3745239,42.7498669 44.3745239,42.7498669 C46.1256377,41.4992049 47,39.4997353 47,36.5005278 C46.2495212,35.6254608 46.1248369,34.7503971 45.49984,33.8753301 C44.7501555,32.6246654 43.1245169,32.0005322 42.1246794,31 Z" id="Path"></path></g></g></svg> 