<?xml version="1.0" encoding="UTF-8"?> <svg xmlns="http://www.w3.org/2000/svg" xmlns:xlink="http://www.w3.org/1999/xlink" width="500px" height="300px" viewBox="0 0 500 300"><!-- Generator: Sketch 52.2 (67145) - http://www.bohemiancoding.com/sketch --><title>Untitled</title><desc>Created with Sketch.</desc><g id="Page-1" stroke="none" stroke-width="1" fill="none" fill-rule="evenodd"><g id="js" transform="translate(171.000000, 60.000000)" fill="#539E43" fill-rule="nonzero"><path d="M79.4999994,180 C77.0310555,180 74.7267076,179.338538 72.5869558,178.180982 L50.6956522,165.117133 C47.4037259,163.298116 49.0496898,162.636655 50.0372663,162.305924 C54.4813661,160.817639 55.3043474,160.486907 59.9130439,157.841064 C60.4068315,157.510334 61.0652173,157.6757 61.5590063,158.00643 L78.3478258,168.093706 C79.0062118,168.424437 79.8291927,168.424437 80.3229821,168.093706 L145.996894,129.89435 C146.65528,129.563619 146.984472,128.902159 146.984472,128.075333 L146.984472,51.8419847 C146.984472,51.0151575 146.65528,50.3536975 145.996894,50.0229675 L80.3229821,11.9889756 C79.6645961,11.6582456 78.8416152,11.6582456 78.3478258,11.9889756 L12.673912,50.0229675 C12.0155276,50.3536975 11.6863353,51.1805232 11.6863353,51.8419847 L11.6863353,128.075333 C11.6863353,128.736793 12.0155276,129.563619 12.673912,129.89435 L30.6149064,140.312357 C40.3260871,145.273311 46.4161493,139.48553 46.4161493,133.697749 L46.4161493,58.4565908 C46.4161493,57.4644007 47.2391305,56.4722093 48.3913039,56.4722093 L56.7857144,56.4722093 C57.7732924,56.4722093 58.760869,57.299035 58.760869,58.4565908 L58.760869,133.697749 C58.760869,146.761598 51.6832302,154.368396 39.3385091,154.368396 C35.5527951,154.368396 32.5900624,154.368396 24.195652,150.234267 L6.91304343,140.312357 C2.63354048,137.831878 0,133.201653 0,128.240697 L0,52.007349 C0,47.0463945 2.63354048,42.4161686 6.91304343,39.9356913 L72.5869558,1.73633365 C76.7018633,-0.578777885 82.2981367,-0.578777885 86.4130442,1.73633365 L152.086956,39.9356913 C156.366459,42.4161686 159,47.0463945 159,52.007349 L159,128.240697 C159,133.201653 156.366459,137.831878 152.086956,140.312357 L86.4130442,178.511712 C84.2732912,179.503904 81.8043479,180 79.4999994,180 Z M99.7453421,127.579237 C70.9409934,127.579237 65.0155279,114.350022 65.0155279,103.10519 C65.0155279,102.112999 65.8385094,101.120809 66.9906825,101.120809 L75.5496897,101.120809 C76.5372667,101.120809 77.3602476,101.782268 77.3602476,102.77446 C78.6770179,111.538815 82.4627333,115.838309 99.9099375,115.838309 C113.736025,115.838309 119.661491,112.696371 119.661491,105.254938 C119.661491,100.955443 118.015528,97.8135044 96.4534154,95.6637567 C78.5124224,93.8447397 67.3198764,89.875975 67.3198764,75.4892048 C67.3198764,62.0946252 78.5124224,54.1570963 97.2763981,54.1570963 C118.34472,54.1570963 128.714286,61.4331652 130.031056,77.3082218 C130.031056,77.8043173 129.866459,78.3004135 129.537267,78.796509 C129.208075,79.1272389 128.714286,79.4579688 128.220497,79.4579688 L119.661491,79.4579688 C118.83851,79.4579688 118.015528,78.796509 117.850932,77.9696829 C115.875777,68.8745983 110.773291,65.898024 97.2763981,65.898024 C82.13354,65.898024 80.3229821,71.1897102 80.3229821,75.1584742 C80.3229821,79.9540649 82.4627333,81.4423521 102.872671,84.0881952 C123.118013,86.7340377 132.664596,90.5374367 132.664596,104.758841 C132.5,119.310978 120.649069,127.579237 99.7453421,127.579237 Z" id="Shape"></path></g></g></svg> 