<?xml version="1.0" encoding="UTF-8"?> <svg xmlns="http://www.w3.org/2000/svg" xmlns:xlink="http://www.w3.org/1999/xlink" width="500px" height="300px" viewBox="0 0 500 300"><!-- Generator: Sketch 52.2 (67145) - http://www.bohemiancoding.com/sketch --><title>Untitled</title><desc>Created with Sketch.</desc><defs><radialGradient cx="30.0202132%" cy="17.5837348%" fx="30.0202132%" fy="17.5837348%" r="124.198216%" gradientTransform="translate(0.300202,0.175837),scale(0.528689,1.000000),translate(-0.300202,-0.175837)" id="radialGradient-1"><stop stop-color="#FFFFFF" offset="0%"></stop><stop stop-color="#4C6B97" offset="50%"></stop><stop stop-color="#231F20" offset="100%"></stop></radialGradient></defs><g id="Page-1" stroke="none" stroke-width="1" fill="none" fill-rule="evenodd"><g id="php" transform="translate(128.000000, 86.000000)"><ellipse id="Oval" fill="url(#radialGradient-1)" cx="122" cy="64.5" rx="122" ry="64.5"></ellipse><ellipse id="Oval" fill="#6181B6" cx="122" cy="64.5" rx="117" ry="59.5"></ellipse><g id="Group" transform="translate(35.000000, 16.000000)" fill="#FFFFFF" fill-rule="nonzero"><path d="M111.182065,67.4010989 C111.182065,67.4010989 116.983696,37.3813187 116.983696,37.3813187 C118.315217,30.5934066 117.173913,25.5263736 113.75,22.3714286 C110.421196,19.3120879 104.714674,17.7824176 96.3451087,17.7824176 L86.263587,17.7824176 L89.1168478,2.86813187 C89.2119565,2.29450549 89.1168478,1.72087912 88.736413,1.24285714 C88.3559783,0.764835165 87.8804348,0.573626374 87.3097826,0.573626374 L73.423913,0.573626374 C72.4728261,0.573626374 71.7119565,1.24285714 71.5217391,2.1032967 L65.3396739,33.9395604 C64.7690217,30.3065934 63.4375,27.2472527 61.1548913,24.7615385 C57.0652174,20.0769231 50.6929348,17.6868132 42.0380435,17.6868132 L15.3125,17.6868132 C14.361413,17.6868132 13.6005435,18.356044 13.4103261,19.2164835 L0.951086957,83.8450549 C0.855978261,84.4186813 0.951086957,84.9923077 1.33152174,85.4703297 C1.71195652,85.9483516 2.1875,86.1395604 2.75815217,86.1395604 L16.7391304,86.1395604 C17.6902174,86.1395604 18.451087,85.4703297 18.6413043,84.6098901 L21.6847826,69.0263736 L32.0516304,69.0263736 C37.4728261,69.0263736 42.1331522,68.4527473 45.6521739,67.3054945 C49.361413,66.0626374 52.6902174,64.0549451 55.638587,61.2824176 C58.0163043,59.0835165 60.013587,56.5978022 61.5353261,53.9208791 L59.0625,66.8274725 C58.9673913,67.4010989 59.0625,67.9747253 59.4429348,68.4527473 C59.8233696,68.9307692 60.298913,69.121978 60.8695652,69.121978 L74.7554348,69.121978 C75.7065217,69.121978 76.4673913,68.4527473 76.6576087,67.5923077 L83.5054348,32.2186813 L93.0163043,32.2186813 C97.1059783,32.2186813 98.2472826,32.9835165 98.6277174,33.3659341 C98.9130435,33.6527473 99.4836957,34.8 98.8179348,38.3373626 L93.3016304,66.9230769 C93.2065217,67.4967033 93.3016304,68.0703297 93.6820652,68.5483516 C94.0625,69.0263736 94.5380435,69.2175824 95.1086957,69.2175824 L109.375,69.2175824 C110.230978,68.9307692 110.991848,68.2615385 111.182065,67.4010989 Z M46.888587,42.543956 C46.0326087,47.0373626 44.4157609,50.2879121 42.0380435,52.1043956 C39.6603261,53.9208791 35.7608696,54.8769231 30.625,54.8769231 L24.4429348,54.8769231 L28.9130435,31.7406593 L36.9021739,31.7406593 C42.798913,31.7406593 45.1766304,32.9835165 46.1277174,34.0351648 C47.3641304,35.5648352 47.6494565,38.5285714 46.888587,42.543956 Z" id="Shape"></path><path d="M170.529891,24.7615385 C166.440217,20.0769231 160.067935,17.6868132 151.413043,17.6868132 L124.497283,17.6868132 C123.546196,17.6868132 122.785326,18.356044 122.595109,19.2164835 L110.13587,83.7494505 C110.040761,84.3230769 110.13587,84.8967033 110.516304,85.3747253 C110.896739,85.8527473 111.372283,86.043956 111.942935,86.043956 L125.923913,86.043956 C126.875,86.043956 127.63587,85.3747253 127.826087,84.5142857 L130.869565,68.9307692 L141.236413,68.9307692 C146.657609,68.9307692 151.317935,68.3571429 154.836957,67.2098901 C158.546196,65.967033 161.875,63.9593407 164.82337,61.1868132 C167.296196,58.8923077 169.388587,56.310989 170.910326,53.5384615 C172.432065,50.7659341 173.57337,47.7065934 174.23913,44.3604396 C175.855978,36.0428571 174.619565,29.5417582 170.529891,24.7615385 Z M155.978261,42.543956 C155.122283,47.0373626 153.505435,50.2879121 151.127717,52.1043956 C148.75,53.9208791 144.850543,54.8769231 139.714674,54.8769231 L133.532609,54.8769231 L138.002717,31.7406593 L145.991848,31.7406593 C151.888587,31.7406593 154.266304,32.9835165 155.217391,34.0351648 C156.548913,35.5648352 156.834239,38.5285714 155.978261,42.543956 Z" id="Shape"></path></g><g id="Group" transform="translate(37.000000, 18.000000)" fill="#000004"><path d="M34.2,27.8418605 C39.5497207,27.8418605 43.0843575,28.7953488 44.8994413,30.7976744 C46.7145251,32.8 47.096648,36.1372093 46.1413408,40.9046512 C45.1860335,45.8627907 43.275419,49.4860465 40.5050279,51.5837209 C37.7346369,53.6813953 33.5312849,54.7302326 27.8949721,54.7302326 L19.3927374,54.7302326 L24.6469274,27.8418605 L34.2,27.8418605 Z M0,82 L14.0430168,82 L17.3865922,64.9325581 L29.4234637,64.9325581 C34.7731844,64.9325581 39.072067,64.3604651 42.5111732,63.2162791 C45.9502793,62.072093 49.0072626,60.2604651 51.8731844,57.5906977 C54.2614525,55.3976744 56.172067,53.0139535 57.6050279,50.4395349 C59.0379888,47.8651163 60.0888268,45.0046512 60.6620112,41.8581395 C62.1905028,34.2302326 61.0441341,28.3186047 57.3184358,24.027907 C53.5927374,19.7372093 47.6698324,17.6395349 39.5497207,17.6395349 L12.5145251,17.6395349 L0,82 Z" id="Shape" fill-rule="nonzero"></path><path d="M70.9793296,0.572093023 L84.9268156,0.572093023 L81.5832402,17.6395349 L94.0022346,17.6395349 C101.835754,17.6395349 107.185475,18.9744186 110.146927,21.7395349 C113.10838,24.5046512 113.968156,28.8906977 112.821788,34.9930233 L106.994413,64.9325581 L92.8558659,64.9325581 L98.396648,36.4232558 C99.0653631,33.1813953 98.7787709,30.9883721 97.727933,29.844186 C96.677095,28.7 94.2888268,28.0325581 90.7541899,28.0325581 L79.577095,28.0325581 L72.4122905,64.9325581 L58.4648045,64.9325581 L70.9793296,0.572093023 Z" id="Path"></path><path d="M143.773743,27.8418605 C149.123464,27.8418605 152.658101,28.7953488 154.473184,30.7976744 C156.288268,32.8 156.670391,36.1372093 155.715084,40.9046512 C154.759777,45.8627907 152.849162,49.4860465 150.078771,51.5837209 C147.30838,53.6813953 143.105028,54.7302326 137.468715,54.7302326 L128.96648,54.7302326 L134.22067,27.8418605 L143.773743,27.8418605 Z M109.573743,82 L123.61676,82 L126.960335,64.9325581 L138.997207,64.9325581 C144.346927,64.9325581 148.64581,64.3604651 152.084916,63.2162791 C155.524022,62.072093 158.581006,60.2604651 161.446927,57.5906977 C163.835196,55.3976744 165.74581,53.0139535 167.178771,50.4395349 C168.611732,47.8651163 169.66257,45.0046512 170.235754,41.8581395 C171.764246,34.2302326 170.617877,28.3186047 166.892179,24.027907 C163.16648,19.7372093 157.243575,17.6395349 149.123464,17.6395349 L122.088268,17.6395349 L109.573743,82 Z" id="Shape" fill-rule="nonzero"></path></g></g></g></svg> 