<?xml version="1.0" encoding="UTF-8"?> <svg xmlns="http://www.w3.org/2000/svg" xmlns:xlink="http://www.w3.org/1999/xlink" width="500px" height="300px" viewBox="0 0 500 300"><!-- Generator: Sketch 52.2 (67145) - http://www.bohemiancoding.com/sketch --><title>postcss</title><desc>Created with Sketch.</desc><g id="Page-1" stroke="none" stroke-width="1" fill="none" fill-rule="evenodd"><g id="postcss" transform="translate(177.000000, 78.000000)" fill-rule="nonzero"><path d="M28.4889608,60.1667228 C28.684457,60.3142671 29.0238089,60.4101709 28.684457,60.7015709 C28.4410089,61.0409228 28.1496089,61.3323228 27.955957,61.7214709 C27.7623051,62.0626671 27.6166051,62.1585709 27.3252051,61.9169671 C27.7125089,61.2843709 28.0998127,60.6997266 28.4871165,60.1648785 L28.4889608,60.1667228 Z M126.04341,111.100861 C126.04341,111.244716 126.091362,111.34062 126.091362,111.488165 C126.18911,111.294513 126.18911,111.196765 126.238906,111.100861 L126.04341,111.100861 Z M116.143187,130.490027 L107.696276,83.6410215 C107.55242,83.5949139 107.358768,83.4990101 107.017572,83.401262 C107.11532,83.5949139 107.165116,83.7406139 107.213068,83.8863139 C107.452828,83.838362 107.55242,83.838362 107.648324,83.7904101 C107.648324,83.7424582 107.648324,83.6945063 107.69812,83.6428658 L116.145032,130.495559 L116.143187,130.490027 Z M107.40672,73.0952924 C107.358768,73.2391481 107.358768,73.3866924 107.358768,73.5323924 C107.358768,73.3848481 107.358768,73.2373038 107.410409,73.0934481 L107.40672,73.0952924 Z M107.358768,74.4527 L107.358768,74.1115038 C107.216757,74.1594557 107.071057,74.1594557 106.875561,74.2092519 C107.119009,74.3014671 107.362457,74.3531076 107.362457,74.4490114 L107.358768,74.4527 Z" id="Shape" fill="#DD3735"></path><path d="M145.165152,62.6454671 C145.069248,60.7495228 145.021296,58.8535785 144.8258,56.9594785 C144.486448,54.3829861 144.147096,51.7585418 143.564296,49.2318456 C143.127196,47.1422494 142.402385,45.148557 141.672041,43.1567089 C140.749889,40.8236646 139.827737,38.4426684 138.662137,36.2073722 C136.769881,32.6109797 134.294825,29.4018911 132.013422,26.0489468 C130.504781,23.9095544 128.564573,22.1611544 127.107573,19.9738101 C126.28317,18.710462 125.069618,17.6426101 123.856066,16.6725063 C121.914014,15.1140696 119.876058,13.7031772 117.838103,12.3439253 C116.285199,11.2742291 114.732295,10.2543291 113.079799,9.33033291 C111.770343,8.5981443 110.363139,8.0153443 109.003887,7.3827481 C107.450984,6.6542481 105.946032,5.7782038 104.199476,5.4388519 C103.760532,5.34663671 103.373228,5.19909241 102.936128,5.0515481 C101.820324,4.6642443 100.752472,4.2271443 99.6348241,3.8859481 C97.9380646,3.3511 96.2874127,2.7203481 94.5390127,2.2814038 C92.8459418,1.8443038 91.0975418,1.5547481 89.3491418,1.3094557 C87.4089342,1.02358861 85.4207747,0.922151899 83.4768785,0.732188608 C82.2153747,0.584644304 80.9538709,0.440788608 79.740319,0.392836709 C77.8960152,0.296932911 76.0037595,0.296932911 74.1594557,0.248981013 C73.2373038,0.19918481 72.2672,0.101436709 71.3450481,0.151232911 C69.9378443,0.19918481 68.5306405,0.34488481 67.1215924,0.538536709 C65.7641848,0.686081013 64.4049329,0.925840506 63.0954772,1.12318101 C61.4964658,1.31683291 59.8956101,1.41458101 58.2929101,1.61007722 C56.7879582,1.80557342 55.2350544,2.09697342 53.7319468,2.34042152 C53.1970987,2.43816962 52.6622506,2.63182152 52.1274025,2.72772532 C50.9654911,2.97117342 49.7519392,3.06892152 48.5863392,3.45806962 C46.5022759,4.09251013 44.4126797,4.82285443 42.3747241,5.59746203 C40.4806241,6.37575823 38.6363203,7.20200633 36.8418127,8.17395443 C34.9975089,9.19201013 33.2491089,10.405562 31.5025532,11.5748506 C29.850057,12.6924987 28.2012494,13.8580987 26.5967051,15.1214468 C25.0474899,16.3386873 23.5904899,17.6979392 22.1814418,19.0590354 C21.4068342,19.833643 20.774238,20.7594835 20.045738,21.6336835 C18.8340304,23.0445759 17.6204785,24.4038278 16.4548785,25.8626722 C15.4884633,27.0799127 14.6105747,28.3414165 13.6884228,29.6066089 C12.0414595,31.8382165 10.6342557,34.221057 9.3248,36.6038975 C8.7899519,37.5758456 8.3049,38.5477937 7.8198481,39.5178975 C7.0913481,40.9748975 6.3148962,42.3857899 5.63619241,43.8925861 C5.1492962,44.9143304 4.76199241,46.0319785 4.47059241,47.1496266 C3.79373291,49.5324671 3.11318481,51.9632595 2.48243291,54.3424114 C1.89963291,56.4818038 1.75393291,58.7171 1.70782532,60.9044443 C1.65802911,62.8483405 1.85168101,64.7442848 2.04533291,66.688181 C2.09512911,67.1750772 1.80557342,67.7578772 2.38468481,68.145181 C2.19103291,68.6800291 2.33673291,68.9751177 2.6244443,69.0673329 C2.28878101,69.602181 2.77198861,69.9452215 2.58018101,70.4321177 C2.53038481,70.5280215 2.72772532,70.7216734 2.81994051,70.8673734 C2.81994051,71.0149177 2.77383291,71.2085696 2.81994051,71.3542696 C2.87158101,71.7913696 3.06523291,72.2284696 3.06523291,72.7153658 C3.06523291,73.0547177 3.35478861,73.4438658 3.45253671,73.785062 C3.50048861,73.9289177 3.45253671,74.1723658 3.35478861,74.2701139 C3.06338861,74.6094658 3.11134051,74.9008658 3.54844051,75.096362 C3.79373291,75.7271139 3.69598481,76.0185139 3.64803291,76.3136025 C3.74393671,76.7488582 3.59823671,76.8945582 3.64803291,76.9923063 C4.03533671,77.7706025 4.18288101,78.6448025 4.22898861,79.5190025 C4.22898861,79.7144987 4.32673671,79.9099949 4.42448481,80.1515987 C4.47243671,80.1515987 4.42448481,81.0737506 4.42448481,81.0737506 C4.6642443,80.9298949 4.86158481,80.881943 5.10318861,80.7841949 C5.25073291,81.4149468 5.39458861,82.0014354 5.58824051,82.5362835 C5.83168861,82.9235873 5.83168861,83.1153949 5.73578481,83.1633468 C5.92943671,84.0375468 6.02534051,84.8637949 6.3628481,85.690043 C6.3628481,84.7678911 6.27063291,83.8457392 6.12308861,82.9696949 C6.80179241,83.213143 7.38459241,83.4547468 7.77374051,83.4547468 C7.82353671,83.3072025 7.87148861,83.1153949 7.92128481,83.0176468 C7.62988481,82.7280911 7.38643671,82.2909911 7.09503671,81.9995911 C7.19278481,82.3868949 7.09503671,82.5344392 7.09503671,82.6819835 C6.90138481,82.5823911 6.65793671,82.484643 6.41633291,82.3868949 C6.60998481,82.1471354 6.80363671,81.901843 7.09503671,81.6122873 C7.09503671,81.173343 6.85527722,80.7823506 6.17288481,80.8321468 C6.46428481,80.736243 6.75568481,80.5923873 7.09503671,80.4927949 C7.62988481,80.2032392 7.04708481,79.6683911 7.04708481,78.987843 C7.09503671,78.1634392 6.60998481,77.3371911 6.46428481,76.4611468 C6.22083671,75.1018949 6.27063291,73.0602506 6.12493291,71.6991544 C5.83353291,71.4557063 5.59008481,72.0864582 5.54213291,72.1362544 C5.68967722,73.3018544 5.83353291,74.4674544 5.92943671,75.6348987 C5.63988101,74.6629506 5.44438481,73.5932544 5.20278101,72.4258101 C5.15298481,72.7670063 5.10503291,72.9127063 5.10503291,73.1082025 C4.86527342,73.347962 5.05708101,73.6430506 5.20278101,73.9824025 C4.86342911,73.8348582 4.47428101,73.8864987 4.47428101,73.8864987 L4.47428101,75.2475949 C3.99107342,74.7606987 3.84721772,74.3733949 3.60192532,74.0303544 C3.50602152,73.6430506 3.45438101,73.2557468 3.36216582,72.868443 C3.45438101,72.6231506 3.36216582,72.4774506 3.36216582,72.3335949 C3.31052532,71.9905544 3.26257342,71.6032506 3.21462152,71.1643063 C3.26257342,71.1163544 3.16666962,70.3896987 3.16666962,70.3896987 C3.55397342,70.4358063 3.79926582,70.4819139 4.04086962,70.4819139 C3.55581772,69.8548506 3.89332532,69.4638582 4.09066582,69.0747101 C4.18841392,68.8792139 4.52776582,68.8349506 4.62551392,68.6357658 C5.01281772,67.9072658 5.64541392,67.3263101 5.64541392,66.4004696 C5.64541392,65.9633696 5.79295823,65.4783177 5.83906582,65.0393734 C5.93681392,64.2131253 6.03271772,63.3868772 6.07882532,62.5606291 C6.17841772,61.4909329 6.07882532,60.4212367 6.32411772,59.4013367 C6.71511013,57.7045772 7.20016203,56.0022848 7.73316582,54.2999924 C8.12046962,53.0827519 8.55941392,51.9208405 9.04262152,50.7036 C9.77112152,48.8076557 10.4516696,46.9117114 11.3738215,45.1153595 C12.6832772,42.4890709 14.1882291,39.9623747 15.6452291,37.3877266 C16.567381,35.7831823 17.5374848,34.2763861 18.5592291,32.721638 C19.5274886,31.2148418 20.4957481,29.6600937 21.6152405,28.2492013 C23.1699886,26.2573532 24.8685924,24.4093608 26.7608481,22.7568646 C28.7029,21.0084646 30.5472038,19.2102684 32.6331114,17.6057241 C35.3479266,15.5105949 38.2139747,13.6662911 41.2681418,12.0617468 C43.7450418,10.7522911 46.3160013,9.72685823 48.8888051,8.75491013 C50.539457,8.12415823 52.3339646,7.83275823 54.0344127,7.29791013 C55.9746203,6.66531392 57.9166722,6.37575823 59.9546278,6.32596203 C61.2640835,6.27616582 62.5274316,6.13046582 63.8368873,5.98476582 C65.0024873,5.89255063 66.166243,5.79295823 67.4295911,5.64725823 C67.2820468,5.84091013 67.2340949,5.93865823 67.186143,6.03456203 C66.6549835,6.81285823 66.0721835,7.59115443 65.5373354,8.36760633 C65.1002354,9.00020253 64.6151835,9.68075063 64.1780835,10.3115025 C63.3997873,11.3350911 62.5735392,12.3549911 61.8468835,13.4246873 C60.7310797,15.0292316 59.7111797,16.6817278 58.5455797,18.2844278 C57.3836684,19.8391759 56.1203203,21.2980203 54.9067684,22.8029722 C53.3059127,24.8944127 51.8009608,27.0319608 50.2001051,29.121557 C48.7431051,31.1134051 47.1938899,33.013038 45.7848418,35.0048861 C44.523338,36.7514418 43.4056899,38.6012785 42.192138,40.3957861 C40.3976304,43.0700266 38.6012785,45.6926266 36.8067709,48.3668671 C35.3977228,50.4066671 33.990519,52.4003595 32.5353633,54.4420038 C32.4376152,54.5895481 32.2919152,54.6338114 32.1480595,54.7315595 C31.7607557,55.3623114 31.7607557,55.7035076 31.6132114,55.9949076 C31.2259076,56.7234076 30.8386038,57.4519076 30.3996595,58.1343 C30.1562114,58.5216038 29.8168595,58.8609557 29.5254595,59.2501038 C29.4775076,58.6673038 30.3000671,58.3759038 29.9127633,57.6455595 C29.6730038,58.0365519 29.4277114,58.3759038 29.1861076,58.7650519 L28.6033076,59.9269633 C28.7969595,60.0745076 29.1381557,60.1722557 28.7969595,60.4618114 C28.6494152,60.7071038 28.5055595,60.9966595 28.3598595,61.2419519 C28.6033076,61.0944076 28.7471633,60.9505519 28.8947076,60.7550557 C28.8947076,61.2899038 28.6033076,61.7251595 28.3598595,62.1622595 C28.1662076,62.5495633 27.6811557,62.8446519 27.3418038,63.1342076 C27.3897557,63.1840038 27.7291076,63.3297038 27.7789038,63.3776557 C28.2160038,63.2301114 28.3617038,62.9903519 28.4115,63.1342076 C28.5590443,62.9405557 28.7029,62.7948557 28.7508519,62.6491557 C28.9426595,62.1622595 29.2340595,61.7749557 29.7191114,61.5794595 C29.9146076,61.4817114 30.0584633,61.3360114 30.2041633,61.1921557 C31.6611633,59.6835152 33.1661152,58.2265152 34.4755709,56.6219709 C36.5153709,54.1413823 38.3596747,51.5685785 40.3035709,49.0418823 C41.1261304,47.9721861 42.0980785,46.9024899 42.9704342,45.8807456 C43.1142899,46.9983937 43.0183861,48.0662456 42.9704342,49.0898342 C42.8228899,50.8861861 42.7269861,52.6862266 42.5831304,54.5305304 C42.5333342,55.2590304 42.5831304,55.9875304 42.5333342,56.7178747 C42.5333342,56.9115266 42.3857899,57.0572266 42.3857899,57.2527228 C42.3857899,57.7377747 42.5333342,58.2726228 42.5333342,58.759519 C42.3857899,60.5577152 42.1902937,62.3061152 42.0445937,64.1043114 C41.9947975,64.4916152 42.1884494,64.8826076 42.2843532,65.2238038 C42.0445937,67.8464038 42.5794418,70.6183924 42.1404975,73.3885367 C42.4798494,72.8536886 42.5775975,72.5143367 42.5775975,72.1749848 C42.6237051,71.8835848 42.5775975,71.5921848 42.5775975,71.2528329 L42.5775975,70.7659367 C42.6237051,69.8898924 42.817357,68.9677405 42.7214532,68.0916962 C42.6237051,67.1197481 42.6237051,66.1975962 42.8192013,65.2736 C42.9169494,64.8862962 42.7712494,64.3994 43.0146975,63.9125038 L43.0146975,64.6410038 C42.9667456,67.4074595 43.0644937,70.1794481 42.6771899,72.9495924 C42.6273937,73.1930405 42.8247342,73.6319848 42.2898861,73.5821886 C41.8509418,74.4563886 42.3857899,75.0889848 41.9025823,75.5740367 C41.8029899,75.6717848 41.9947975,76.1088848 42.0445937,76.4002848 C41.8490975,76.9849291 41.8490975,76.9849291 42.1404975,77.032881 C42.1884494,78.1025772 42.2880418,79.072681 42.3341494,80.0944253 C43.108757,78.2501215 42.7214532,76.3504886 43.0644937,74.4545443 C43.1124456,75.2328405 43.1622418,76.0111367 43.1124456,76.8336962 C43.1124456,78.1007329 43.0644937,79.3142848 43.0165418,80.5776329 C43.0165418,80.821081 42.9667456,81.0645291 42.9187937,81.3079772 C42.7712494,81.9903696 42.7251418,82.6690734 42.4816937,83.2998253 C42.2880418,83.7867215 42.3857899,84.5170658 42.3857899,85.0980215 L42.3857899,86.9478582 C42.5794418,87.7741063 42.3359937,88.2112063 42.4816937,88.6962582 C42.3341494,89.1849987 42.2880418,89.3306987 42.3341494,89.4763987 L42.4816937,90.2048987 C43.4536418,90.1071506 43.0165418,90.8374949 43.4038456,91.2247987 C43.1124456,91.6157911 43.2101937,91.7596468 43.2101937,91.9569873 C43.2101937,92.3940873 43.1640861,92.7832354 43.1142899,93.2203354 C43.1142899,94.3379835 43.066338,95.4556316 43.066338,96.5253278 C43.066338,96.6728722 43.1142899,96.8148835 43.1142899,96.9605835 C43.1142899,97.0601759 43.066338,98.3253684 43.066338,98.3253684 C43.1640861,98.4692241 43.066338,98.6149241 42.9187937,98.7606241 C42.8726861,98.7606241 42.7269861,92.5877392 42.7269861,92.5877392 L41.9984861,92.5877392 C41.9025823,95.5017392 42.1460304,98.1261835 41.6111823,100.85022 C41.0283823,100.896328 40.8365747,100.994076 40.2021342,100.994076 C38.6971823,100.994076 37.1922304,100.994076 35.6872785,101.042028 C33.8909266,101.042028 32.1462152,101.08998 30.348019,101.08998 C29.4775076,101.08998 28.5553557,101.189572 27.6811557,101.189572 C26.5155557,101.189572 25.3020038,101.042028 24.1400924,101.042028 C22.3418962,101.042028 20.5953405,101.189572 18.7989886,101.237524 C17.4895329,101.285476 16.1800772,101.285476 14.8706215,101.335272 C13.9945772,101.38138 13.1185329,101.427487 12.2480215,101.52708 C11.8607177,101.575032 11.5195215,101.720732 11.0344696,101.866432 C10.8869253,101.866432 10.5494177,101.81848 10.259862,101.866432 C9.77112152,101.96418 9.33771013,102.253735 8.84896962,102.353328 C8.12046962,102.500872 7.92681772,102.69268 8.02272152,103.423024 L8.02272152,103.908076 C7.97476962,104.00398 9.09241772,103.760532 9.09241772,103.760532 C8.99282532,103.760532 8.94487342,104.051932 8.79732911,104.29538 C9.18832152,104.147835 9.42992532,104.051932 9.67337342,103.956028 C10.4018734,104.297224 11.0326253,104.103572 11.613581,104.251116 C13.5058367,104.734324 15.4460443,104.933509 17.3862519,105.123472 C18.6496,105.22122 19.8631519,105.271016 21.1246557,105.317124 C22.9191633,105.414872 24.7155152,105.51262 26.5100228,105.51262 C28.0149747,105.51262 29.4719747,105.365076 30.973238,105.365076 C33.0573013,105.365076 35.1487418,105.46098 37.2346494,105.51262 C37.6717494,105.51262 38.1568013,105.46098 38.6418532,105.46098 L42.1829165,105.46098 C45.3403646,105.365076 48.4941241,105.313435 51.6497278,105.22122 C53.4479241,105.16958 55.2922278,105.073676 57.0867354,105.02388 L62.6196468,104.876335 C64.7553506,104.828384 66.8910544,104.828384 68.9788063,104.78412 C70.579662,104.78412 72.1325658,104.728791 73.7371101,104.682684 C75.5297734,104.634732 77.3740772,104.489032 79.1704291,104.393128 C80.1423772,104.343332 81.1143253,104.245584 82.0844291,104.14968 C83.2500291,104.053776 84.463581,103.90992 85.6254924,103.860124 C87.3738924,103.760532 89.1702443,103.71258 90.9186443,103.614832 C93.1023,103.470976 95.2859557,103.277324 97.5175633,103.227528 C99.5573633,103.131624 101.643271,103.179576 103.683071,103.131624 C105.479423,103.081828 107.275775,102.98408 109.120078,102.936128 L112.181623,102.788584 C112.181623,102.788584 114.217734,102.740632 115.237634,102.641039 C116.98419,102.545135 118.730746,102.351484 120.479146,102.303532 C121.593105,102.253735 122.710753,102.303532 123.826557,102.253735 C125.621065,102.205784 127.465368,102.106191 129.26172,102.106191 C129.93858,102.106191 130.66708,102.205784 131.54128,102.253735 C131.153976,102.594932 130.910528,102.788584 130.619128,103.032032 C130.81278,103.079984 131.006432,103.179576 131.201928,103.27548 C130.910528,103.469132 130.66708,103.515239 130.42732,103.515239 C130.327728,103.760532 130.22998,103.85828 130.132232,104.345176 L131.006432,104.345176 C130.66708,104.345176 130.37568,104.782276 130.036328,105.073676 C129.649024,104.974084 129.307828,105.073676 129.114176,105.608524 C129.453528,105.800332 129.405576,105.946032 129.357624,106.143372 C128.774824,106.33518 128.337724,106.530676 128.583016,107.161428 C128.385676,107.257332 128.144072,107.35508 127.900624,107.50078 C127.660865,107.888084 127.22192,107.985832 127.317824,108.52068 C127.51332,108.566787 127.705128,108.668224 127.852672,108.712487 C127.609224,108.810235 127.36762,108.955935 127.124172,109.051839 C126.251816,109.586687 126.640965,109.830135 126.834616,110.073584 C126.687072,110.171332 126.543216,110.267235 126.397516,110.317032 C126.49342,110.754132 126.637276,110.85188 126.687072,110.85188 C126.49342,110.995735 126.249972,111.191232 125.958572,111.43468 C125.811028,111.87178 125.617376,112.065432 125.423724,112.356832 C125.230072,112.648232 125.132324,113.039224 124.888876,113.32878 C123.87082,114.448272 123.14232,115.763261 121.832865,116.635616 C121.345968,116.976813 120.910713,117.413913 120.473613,117.852857 C119.599413,118.677261 118.822961,119.601257 117.900809,120.379553 C116.689101,121.399453 115.429442,122.321605 114.116297,123.245601 C112.517286,124.363249 110.91643,125.480897 109.31373,126.550594 C108.43953,127.131549 107.469427,127.568649 106.547275,128.103497 C105.625123,128.638346 104.750923,129.125242 103.828771,129.658246 C103.245971,130.045549 102.711123,130.580397 102.080371,130.875486 C100.479515,131.557878 98.7790671,132.138834 97.1302595,132.77143 C95.5257152,133.453823 94.3638038,134.034778 93.1502519,134.471878 C92.0344481,134.859182 90.8688481,135.154271 89.7050924,135.39403 C89.3177886,135.493623 88.8788443,135.39403 88.4417443,135.443827 C87.6154962,135.591371 86.7910924,135.786867 85.9648443,135.882771 C83.8291405,136.174171 81.6934367,136.369667 79.5595772,136.661067 C78.2962291,136.808611 77.0826772,137.048371 75.8211734,137.195915 C74.9488177,137.243867 74.0266658,137.147963 73.1524658,137.147963 C72.5217139,137.147963 71.8430101,137.295508 71.2104139,137.197759 C70.1923582,137.050215 69.1724582,136.810456 68.1525582,136.614959 C67.9127987,136.567008 67.5697582,136.467415 67.3779506,136.567008 C66.9906468,136.762504 66.6476063,136.471104 66.2584582,136.567008 C66.0186987,136.616804 65.7752506,136.419463 65.5318025,136.419463 C65.3363063,136.373356 65.0928582,136.471104 64.8494101,136.419463 C64.314562,136.275608 63.8313544,136.081956 63.2448658,136.129908 C62.6675987,136.177859 62.0829544,135.886459 61.4558911,135.742604 C60.5798468,135.547108 59.7591316,135.3553 58.881243,135.157959 C58.5437354,135.060211 58.2541797,134.914511 57.9129835,134.720859 C56.6496354,134.720859 55.8233873,134.672908 55.0469354,134.379663 C54.3682316,134.139904 53.7374797,133.798708 53.0089797,133.896456 C52.8171722,133.944408 52.6714722,133.848504 52.4741316,133.848504 C52.3265873,133.653008 52.1845759,133.263859 52.0407203,133.263859 C51.0706165,133.313656 50.4878165,132.489252 49.6615684,132.243959 C49.2263127,132.096415 48.8869608,131.611363 48.4498608,131.465663 C47.3801646,131.028563 46.5096532,130.106411 45.2961013,129.960711 C44.9087975,129.910915 44.5214937,129.717263 44.0825494,129.573408 C44.2300937,129.765215 44.3223089,129.910915 44.4698532,130.056615 C43.0626494,129.374223 41.7531937,128.599615 40.4418937,127.869271 C40.2500861,127.821319 40.1043861,127.629511 39.9586861,127.529919 L38.6492304,126.655719 C37.9207304,126.803263 37.6293304,126.508175 37.4319899,126.412271 C36.1225342,125.490119 34.6194266,124.905475 33.3560785,123.885575 C32.8212304,123.44663 32.1941671,123.15523 31.8068633,122.620382 C31.1244709,121.794134 30.3000671,121.211334 29.3779152,120.726282 C28.6512595,120.338978 27.9725557,119.900034 27.2938519,119.462934 C26.9526557,119.219486 26.6114595,118.928086 26.6114595,118.393238 C26.6114595,118.052042 26.4676038,117.710846 26.0305038,117.906342 C25.8368519,117.614942 25.6432,117.27559 25.3997519,117.177842 C24.8169519,116.938082 24.4296481,116.495449 23.9925481,116.108146 C23.5554481,115.720842 23.2179405,115.185994 22.6830924,114.992342 C21.7111443,114.605038 21.1283443,113.77879 20.5473886,113.098242 C19.1862924,111.493697 17.9727405,109.741609 16.7112367,108.044849 C16.6134886,107.897305 16.4198367,107.799557 16.2741367,107.653857 C16.4677886,108.188705 16.7112367,108.625805 16.9528405,109.110857 C16.4696329,108.917205 16.130281,108.576009 15.838881,108.236657 C15.7890848,108.286453 19.1862924,113.874694 19.1862924,113.874694 C19.481381,114.311794 19.7211405,114.750738 20.0125405,115.187838 C19.2840405,115.23579 18.7989886,114.846642 18.5555405,114.409542 C18.1202848,113.634934 17.6333886,113.148038 16.6632848,113.24763 C16.567381,112.90459 16.4696329,112.515442 16.4235253,112.177934 C16.2261848,112.177934 16.0823291,112.177934 15.7411329,112.128138 C16.4235253,113.197834 17.004481,114.119986 17.6352329,115.189682 C17.3899405,115.042138 17.2479291,114.946234 17.1464924,114.898282 C18.0188481,115.820434 18.6496,116.987878 19.7654038,117.572523 C20.0088519,118.688327 21.2703557,119.223175 21.5617557,120.292871 C21.3219962,120.243075 21.1228114,120.195123 20.8793633,120.145327 C20.4920595,119.660275 20.0549595,119.175223 19.6197038,118.640375 C19.7156076,118.979727 19.8594633,119.271127 20.0549595,119.514575 C20.6377595,120.243075 21.1726076,120.971575 21.8513114,121.604171 C22.0947595,121.851308 22.4341114,121.949056 22.4341114,122.386156 C22.8214152,122.579808 22.9689595,122.625915 23.1128152,122.625915 C23.2124076,122.921004 23.0667076,123.358104 23.6476633,123.260356 C24.0349671,123.988856 24.4222709,123.988856 24.957119,123.747252 C25.5897152,124.379848 25.9309114,124.429644 26.3661671,124.042341 C26.3661671,124.2821 26.414119,124.525548 26.414119,124.721044 C26.6077709,124.623296 26.5616633,124.477596 26.5616633,124.234148 C26.8014228,124.4278 26.9489671,124.525548 27.0448709,124.621452 C27.5299228,125.303844 27.9670228,125.934596 28.6457266,126.469444 C29.5678785,127.247741 30.3941266,128.073989 31.264638,128.802489 C32.9650861,130.213381 34.8610304,131.380825 36.7514418,132.448677 C39.0826418,133.761822 41.3160937,135.17087 43.6934013,136.432373 C46.5557608,137.941014 49.6136165,138.962758 52.7673759,139.691258 C53.9329759,139.934706 55.0487797,140.17631 56.2162241,140.465866 C57.2305911,140.760954 58.2523354,141.198054 59.2722354,141.439658 C60.8251392,141.780854 62.4259949,142.072254 63.9788987,142.36181 C64.3164063,142.411606 64.6612911,142.461403 65.0485949,142.509354 C65.4820063,142.607103 66.0150101,142.411606 66.1127582,142.559151 C66.3562063,142.946454 66.5498582,142.750958 66.8412582,142.703006 C67.1806101,142.605258 67.5697582,142.605258 67.957062,142.605258 C69.3163139,142.65321 70.6257696,142.94461 71.9850215,142.848706 C72.2801101,142.848706 72.7153658,142.603414 72.9588139,143.088466 C73.3940696,142.894814 73.6375177,142.894814 73.8311696,142.848706 C73.8828101,143.283962 73.8311696,143.283962 73.7389544,143.331914 C73.639362,143.379866 73.493662,143.429662 73.3000101,143.575362 C75.0465658,143.914714 76.6972177,143.962666 78.1505291,143.575362 C80.6772253,143.769014 82.860881,143.477614 84.9486329,142.749114 C85.1422848,142.992562 85.2879848,143.331914 85.5793848,142.846862 C85.6752886,142.699318 85.9187367,142.649522 86.1142329,142.60157 C86.5494886,142.503822 87.0843367,142.31017 87.4716405,142.454025 C87.9105848,142.60157 88.0562848,142.214266 88.3937924,142.214266 C88.9784367,142.214266 89.5114405,142.16447 90.0462886,142.066722 C90.3376886,142.01877 90.6290886,141.87307 90.9684405,141.775322 C90.5811367,141.577981 90.1938329,141.530029 89.8987443,141.530029 C90.4833886,141.238629 91.0163924,140.995181 91.5512405,140.755422 C91.4534924,140.899277 91.3557443,141.092929 91.1639367,141.092929 L91.8407962,141.092929 C91.6932519,141.092929 91.4996,141.530029 91.2579962,141.821429 C93.0027076,141.384329 94.6035633,140.995181 96.1583114,140.604189 C95.6234633,139.586133 96.7392671,139.927329 97.1284152,139.342685 C96.6433633,139.490229 96.1583114,139.634085 95.6714152,139.729989 C97.3220671,138.905585 99.0206709,138.177085 100.669478,137.448585 C100.429719,137.739985 100.13463,137.885685 99.701219,138.130977 C99.992619,138.177085 100.186271,138.177085 100.331971,138.223192 C101.106578,138.468485 100.914771,137.739985 101.156375,137.301041 C102.078527,137.301041 102.46583,137.157185 102.90293,137.009641 C103.387982,136.862096 103.873034,136.718241 104.35993,136.524589 C105.134538,136.185237 105.863038,135.749981 106.63949,135.362677 C106.787034,135.311037 107.026794,135.362677 107.22229,135.362677 C107.757138,135.019637 107.948946,134.728237 108.094646,134.776189 C108.777038,134.873937 109.256557,134.628644 109.452053,134.001581 C109.791405,133.756289 110.034853,133.562637 110.276457,133.415092 C111.342465,132.832292 112.36052,132.249492 113.430216,131.666692 C113.81752,131.666692 114.013016,131.666692 114.10892,131.616896 C114.743361,131.321808 115.326161,130.986144 115.907116,130.644948 C115.759572,130.596996 115.422065,130.405189 115.422065,130.405189 C115.905272,130.305596 116.049128,130.257644 116.344216,130.159896 C117.506128,128.795111 119.110672,127.872959 120.32238,126.803263 C120.857228,126.755311 120.857228,126.609611 120.857228,126.513708 C121.049035,126.270259 121.244532,125.978859 121.484291,125.783363 C122.553987,124.811415 123.715899,123.985167 124.687847,122.965267 C126.095051,121.55253 127.454303,120.093686 128.715806,118.58689 C129.877718,117.225794 131.047006,115.866542 132.01711,114.359746 C133.376362,112.270149 134.540118,110.130757 135.75367,107.941568 C136.62787,106.388665 137.404322,104.833916 138.280366,103.279168 C138.372581,103.131624 138.569922,102.937972 138.715622,102.937972 C140.025077,102.790428 141.338222,102.698213 142.599725,102.550668 C142.891125,102.502716 143.230477,102.310909 143.521877,102.163365 C143.374333,101.919916 143.278429,101.628516 143.134573,101.385068 C142.939077,101.08998 142.647677,100.85022 142.452181,100.555132 C142.260373,100.315372 142.114673,100.020284 141.968973,99.7307278 C141.821429,99.4909684 141.677573,99.2954722 141.531873,99.0483354 C141.236785,98.5134873 140.947229,97.9786392 140.701937,97.3995278 C140.653985,97.2519835 140.554392,97.0122241 140.606033,96.8646797 C141.480233,94.9705797 141.819585,92.9289354 142.643989,91.0329911 C143.468392,89.0890949 143.713685,86.9017506 144.100989,84.8121544 C144.440341,82.8203063 144.635837,80.8284582 144.875596,78.8366101 C145.023141,77.427562 145.216792,76.0664658 145.2629,74.6574177 C145.557989,72.4221215 145.458396,70.330681 145.410444,68.2392405 C145.362492,66.3949367 145.2629,64.4989924 145.170685,62.651 L145.165152,62.6454671 Z M23.3949937,122.470994 C23.0556418,122.08369 22.7642418,121.644746 22.4248899,121.257442 L22.5724342,121.109897 C23.1017494,121.694542 23.6365975,122.277342 24.1696013,122.909938 C23.8782013,122.762394 23.5388494,122.66649 23.3949937,122.470994 Z M24.1696013,122.909938 C24.3171456,122.860142 24.4646899,122.860142 24.6085456,122.81219 C24.7560899,123.055638 24.8519937,123.347038 24.9958494,123.638438 C24.3171456,123.588642 23.9777937,123.297242 24.1714456,122.909938 L24.1696013,122.909938 Z M74.6481962,142.981496 L74.6481962,142.833952 C75.5703481,142.738048 76.4427038,142.6403 77.3648557,142.544396 L77.3648557,142.686408 C76.4427038,142.833952 75.5703481,142.926167 74.6481962,142.977808 L74.6481962,142.981496 Z M86.8759304,141.718148 C86.1990709,141.865692 85.4705709,141.963441 84.7918671,142.061189 C84.548419,142.109141 84.257019,142.352589 84.1611152,141.913644 C84.0633671,141.963441 83.965619,141.963441 83.8697152,142.013237 C84.1094747,142.739892 84.694119,142.157092 85.1791709,142.448492 C84.1094747,142.596037 83.0951076,142.691941 82.0733633,142.835796 L82.0733633,142.739892 C82.3684519,142.691941 82.7059595,142.642144 82.9955152,142.592348 L82.9955152,142.448492 C82.5123076,142.398696 82.0272557,142.350744 81.5385152,142.350744 C81.3965038,142.350744 81.2010076,142.546241 81.0553076,142.594192 C80.8616557,142.642144 80.6680038,142.691941 80.4245557,142.691941 C79.6001519,142.739892 78.7757481,142.739892 77.9974519,142.787844 C77.9476557,142.787844 77.8499076,142.739892 77.8019557,142.739892 L77.8019557,142.592348 C81.0534633,142.157092 84.257019,141.719992 87.5085266,141.282892 C87.5583228,141.378796 87.5583228,141.476544 87.6062747,141.572448 C87.3148747,141.572448 87.1212228,141.673885 86.8777747,141.719992 L86.8759304,141.718148 Z M87.6062747,141.234941 C88.7239228,141.087396 89.7456671,140.991492 90.8116747,140.847637 C88.5800671,141.478389 87.8515671,141.574292 87.608119,141.234941 L87.6062747,141.234941 Z M45.3329873,43.108757 C46.8822025,40.9693646 48.4867468,38.8299722 50.0396506,36.6444722 C50.5247025,36.0081873 50.9120063,35.3276392 51.3970582,34.6968873 C51.5446025,34.5013911 51.7382544,34.4054873 51.9798582,34.2099911 L51.9319063,34.1177759 C52.1255582,33.8724835 52.3192101,33.675143 52.4169582,33.4833354 C52.6640949,33.0960316 52.8097949,32.6570873 53.0034468,32.2199873 C53.0513987,32.1277722 53.1970987,32.0300241 53.1970987,32.0300241 C53.8794911,32.3693759 53.8794911,31.6427203 54.1192506,31.3974278 C54.5563506,30.9105316 54.9934506,30.3775278 55.3807544,29.8906316 C55.6721544,29.5033278 55.9635544,29.1621316 56.2070025,28.7250316 C56.2549544,28.5774873 56.1092544,28.3377278 56.0594582,28.1403873 L55.9156025,28.1403873 C56.0631468,28.0444835 56.2070025,27.9006278 56.3527025,27.8010354 C56.4006544,27.8010354 56.4006544,27.8010354 56.4486063,27.7530835 C56.7400063,27.3141392 57.0314063,26.8770392 57.3228063,26.4878911 C57.903762,25.7132835 58.5345139,24.9349873 59.2132177,24.2562835 C59.1173139,24.496043 59.0195658,24.7413354 58.9218177,24.9349873 C58.9716139,24.9349873 58.9716139,24.9847835 59.0195658,24.9847835 C59.6023658,24.2064873 60.2331177,23.4779873 60.8159177,22.6978468 C60.7661215,22.6517392 60.7181696,22.601943 60.6683734,22.601943 C60.4286139,22.8453911 60.2331177,23.0888392 59.9896696,23.3322873 C59.9417177,23.2824911 59.8937658,23.2345392 59.8421253,23.2345392 C60.3308658,22.601943 60.8159177,21.9711911 61.2991253,21.2426911 C61.3968734,21.3902354 61.4946215,21.582043 61.6864291,21.9711911 C61.8837696,21.4861392 62.0774215,21.1467873 62.2212772,20.8055911 C62.0774215,20.9531354 61.8837696,21.0969911 61.7380696,21.2445354 L61.5905253,21.0969911 L62.4647253,19.7875354 C63.3868772,18.4743911 64.3090291,17.1132949 65.231181,15.8001506 C65.5723772,15.3150987 66.0057886,14.9259506 66.3008772,14.4390544 C67.2230291,12.5947506 68.6800291,11.134062 69.7939886,9.43361392 C70.0374367,9.09426203 70.3767886,8.80286203 70.6681886,8.51146203 C70.9079481,8.21637342 71.1052886,8.31596582 71.2989405,8.55941392 C72.6083962,10.2119101 73.9178519,11.9123582 75.2273076,13.5648544 C76.2011,14.7820949 77.1712038,15.9440063 78.0933557,17.2091987 C79.2091595,18.7657911 80.2770114,20.3205392 81.3946595,21.8752873 C82.6561633,23.6734835 83.9176671,25.4716797 85.131219,27.3159835 C86.9755228,30.0400203 88.7220785,32.7622127 90.5663823,35.4825608 C91.9256342,37.4744089 93.2848861,39.4201494 94.5943418,41.4119975 L92.1155975,41.4119975 C89.836038,41.3658899 87.504838,41.172238 85.2252785,41.2681418 C82.1194709,41.4156861 78.9657114,41.755038 75.8599038,41.9984861 C71.9278481,42.3396823 67.9478405,42.3857899 64.0194734,42.3857899 C62.608581,42.3857899 61.2013772,42.5831304 59.7960177,42.6808785 C58.0955696,42.7767823 56.4449177,42.8745304 54.7463139,42.920638 C52.7544658,43.0202304 50.8179468,43.0681823 48.8260987,43.1179785 C47.7084506,43.1659304 46.5446949,43.1179785 45.331143,43.1179785 L45.3329873,43.108757 Z M100.999609,65.461719 L100.999609,65.9006633 C100.951657,65.9006633 100.903705,65.9504595 100.805957,65.9504595 C100.612305,65.2680671 100.418653,64.5377228 100.175205,63.8571747 C99.6901532,62.4462823 99.1553051,61.0353899 98.2811051,59.7738861 C97.3073127,58.4146342 96.4368013,57.0074304 95.4630089,55.596538 C95.2232494,55.2553418 94.8802089,54.9639418 94.5888089,54.6743861 C93.5689089,53.5548937 92.5490089,52.3874494 91.2395532,51.5630456 C89.2975013,50.3458051 87.3074975,49.3259051 85.1717937,48.4498608 C84.5889937,48.2101013 84.0559899,47.9150127 83.4750342,47.5756608 L84.6369456,47.5756608 L92.9363127,47.4281165 C94.7326646,47.3820089 96.4810646,47.3820089 98.2755722,47.2842608 C98.7108278,47.2842608 98.9542759,47.4318051 99.1977241,47.8191089 C99.6329797,48.5476089 100.07008,49.2761089 100.555132,50.0064532 C100.604928,50.102357 100.702676,50.2462127 100.702676,50.393757 C100.702676,51.4634532 100.702676,52.5811013 100.750628,53.6507975 C100.796735,54.7684456 100.898172,55.8381418 100.942435,56.9557899 C100.942435,58.073438 100.844687,59.239038 100.894484,60.404638 C100.94428,62.0589785 100.992232,63.7612709 100.992232,65.4580304 L100.999609,65.461719 Z M48.7763025,49.1875823 C51.0577063,49.0898342 53.2395177,48.9441342 55.4748139,48.8463861 C57.217681,48.748638 59.0158772,48.6988418 60.7605886,48.602938 C61.4890886,48.5568304 62.1696367,48.5107228 62.8962924,48.602938 C62.1216848,48.9939304 61.3433886,49.3830785 60.6646848,49.8681304 C59.7904848,50.4509304 58.9679253,51.2273823 58.091881,51.8599785 C57.2158367,52.4907304 56.4393848,53.2690266 55.7127291,54.0952747 C54.7905772,55.2110785 53.7706772,56.1830266 52.7987291,57.2527228 C52.1163367,58.031019 51.3417291,58.759519 50.7607734,59.5857671 C49.9363696,60.6554633 49.2078696,61.8173747 48.4314177,63.0346152 C48.6748658,58.4164785 48.9662658,53.8499823 48.7707696,49.1838937 L48.7763025,49.1875823 Z M80.4706633,95.9406835 C78.9159152,96.3279873 77.3169038,96.7669316 75.7123595,96.9605835 C74.3549519,97.1560797 72.9459038,97.1081278 71.5387,97.1081278 C70.2735076,97.1081278 69.0599557,97.0601759 67.7984519,96.9605835 C66.3912481,96.8167278 64.9840443,96.6710278 63.6247924,96.0384316 C62.4573481,95.5035835 61.2456405,95.0185316 60.0837291,94.4338873 C58.9144405,93.8510873 57.7506848,93.1723835 56.8746405,92.1026873 C56.2475772,91.3225468 55.3715329,90.6917949 54.595081,90.0112468 C54.7426253,90.5940468 55.0801329,91.080943 55.614981,91.4202949 C55.3715329,91.7116949 55.032181,91.5678392 54.5452848,90.7876987 C54.4014291,90.8854468 54.2557291,90.935243 54.157981,90.9831949 C54.3055253,90.6419987 54.449381,90.3008025 54.595081,90.0112468 C54.4014291,89.623943 54.157981,89.1849987 53.9643291,88.7940063 C53.5770253,88.1632544 53.1897215,87.4845506 52.8485253,86.8519544 C52.7507772,86.7044101 52.7507772,86.5605544 52.6548734,86.4148544 C52.4114253,86.1234544 52.1679772,85.8302101 51.972481,85.5388101 C51.5851772,84.9578544 51.2458253,84.3271025 50.7607734,83.7424582 C50.7607734,83.8900025 50.8105696,84.0338582 50.8105696,84.2293544 C50.7607734,84.2293544 50.7128215,84.2773063 50.7128215,84.2773063 L49.6910772,81.798562 C49.6431253,81.798562 49.6431253,81.798562 49.5951734,81.8465139 L50.4675291,85.0556025 C50.4195772,85.0556025 50.3716253,85.1017101 50.3199848,85.1017101 C50.1779734,84.9099025 50.0322734,84.7144063 49.932681,84.4746468 C49.8367772,84.0836544 49.5453772,84.0836544 49.3056177,84.2293544 C49.1580734,84.3271025 49.0603253,84.6664544 49.1101215,84.8121544 C49.4513177,85.6384025 49.8386215,86.4646506 50.2277696,87.2908987 C50.3236734,87.5822987 50.4214215,87.8257468 50.5671215,88.1171468 C50.6169177,88.2148949 50.7626177,88.3107987 50.7626177,88.4564987 C50.9581139,88.8438025 51.1038139,89.2311063 51.3454177,89.5741468 C51.7825177,90.1569468 52.2675696,90.7397468 52.7046696,91.3225468 C53.138081,91.9053468 53.5253848,92.5397873 53.9145329,93.120743 C53.9624848,93.2184911 54.1081848,93.2184911 54.1542924,93.2682873 C54.3995848,93.9967873 55.2239886,94.5297911 55.8067886,94.2383911 C55.9543329,95.3560392 57.1660405,95.7451873 57.6510924,96.8148835 C57.0682924,96.5714354 56.6330367,96.3777835 56.2438886,96.1822873 C56.1940924,96.2302392 56.1940924,96.2781911 56.1442962,96.3759392 C56.7270962,96.6673392 57.3098962,96.9587392 57.8410557,97.2980911 C58.3297962,97.5931797 58.8148481,97.8827354 59.2519481,98.220243 C59.8347481,98.7550911 60.5152962,99.0501797 61.3360114,99.2419873 C61.2917481,99.094443 61.2437962,99.0446468 61.2437962,99.0446468 C62.6012038,99.677243 64.0102519,100.357791 65.0762595,100.888951 C60.0284,100.988543 54.6411886,101.086291 49.058481,101.184039 C49.058481,100.261887 49.0105291,99.385843 49.0105291,98.4618468 C49.0105291,98.074543 49.1064329,97.7333468 49.0566367,97.3441987 C48.9090924,95.1125911 48.9090924,92.8736063 48.6195367,90.686262 C48.329981,88.355062 48.329981,86.0699696 48.3797772,83.7332367 C48.4258848,82.4735772 48.329981,81.1622772 48.2801848,79.8970848 C48.2801848,78.1966367 48.2801848,76.5404519 48.3318253,74.8436924 C48.3318253,74.6002443 48.4295734,74.4065924 48.5273215,74.1613 L48.6748658,74.1613 C48.7209734,74.2608924 48.6748658,74.4065924 48.767081,74.4563886 C48.9146253,74.6039329 49.1580734,74.8436924 49.2558215,74.7957405 C49.5453772,74.6002443 49.9824772,74.4084367 50.0802253,74.1133481 C50.3199848,73.5323924 50.4195772,72.8997962 50.4195772,72.3169962 C50.4195772,71.8817405 50.6150734,71.5903405 50.806881,71.2970962 C50.9064734,71.1495519 50.9544253,71.0056962 51.0521734,70.8120443 C50.8585215,70.6645 50.6648696,70.5685962 50.4214215,70.3749443 C50.6169177,69.8400962 50.5689658,69.2075 51.2974658,68.9179443 C51.3933696,68.8681481 51.3933696,68.6228557 51.4450101,68.479 C51.4911177,68.0861633 51.5372253,67.6490633 51.5888658,67.2617595 C51.6847696,67.4093038 51.7364101,67.4554114 51.8286253,67.5513152 C51.8802658,67.4554114 51.9282177,67.4037709 51.9282177,67.4037709 C51.9282177,67.2119633 51.8802658,66.8228152 51.9282177,66.8228152 C52.5110177,66.7250671 52.2675696,66.0943152 52.5589696,65.8029152 C52.6050772,65.7512747 52.5091734,65.6055747 52.5091734,65.5078266 C52.5091734,65.4119228 52.5091734,65.2680671 52.5571253,65.2680671 C53.2339848,65.1205228 53.138081,64.3920228 53.575181,64.0508266 C53.7227253,63.9530785 53.7688329,63.8110671 53.9624848,63.5657747 C54.3497886,64.2444785 53.6710848,64.5856747 53.6231329,65.0707266 C54.4456924,64.5856747 54.6891405,63.4200747 54.2040886,63.0788785 C54.3977405,62.9313342 54.5913924,62.7395266 54.7389367,62.5440304 C55.2737848,61.9612304 55.8528962,61.4263823 56.3397924,60.8435823 C56.6809886,60.4083266 56.8746405,59.8734785 57.2139924,59.4363785 C57.4094886,59.1929304 57.7967924,58.9992785 58.0881924,58.8517342 C58.9623924,58.3685266 59.7849519,57.8336785 60.3198,57.0074304 C60.4175481,56.9096823 60.5632481,56.8137785 60.7071038,56.7160304 C60.8546481,56.6182823 61.1460481,56.6182823 61.194,56.4725823 C61.2437962,56.3766785 61.0980962,56.1332304 61.0003481,55.9875304 C61.1921557,55.8897823 61.3876519,55.6961304 61.7749557,55.5006342 C61.6274114,55.7920342 61.5813038,55.9875304 61.4835557,56.1830266 L61.7233152,56.4227861 C62.1622595,56.0834342 62.8409633,55.6961304 63.2780633,55.4047304 C63.2780633,55.3586228 63.0346152,55.1649709 63.0346152,55.1649709 C62.7450595,55.3125152 62.3079595,55.5522747 61.8727038,55.7477709 C61.964919,55.6002266 61.964919,55.5043228 62.0202481,55.4563709 C62.6971076,55.0192709 63.3758114,54.5821709 64.1043114,54.2391304 C65.8010709,53.4645228 67.501519,52.6862266 69.2001228,51.9577266 C69.4915228,51.8101823 69.8825152,51.9097747 70.2200228,51.9097747 C70.3638785,51.9097747 70.4597823,51.9097747 70.6073266,51.8618228 C71.3819342,51.6183747 72.1602304,51.3749266 72.9366823,51.1794304 C73.2741899,51.0835266 73.6614937,51.0355747 74.0063785,51.0355747 C75.4578456,51.0816823 76.9148456,51.0816823 78.3700013,51.1794304 C79.0007532,51.2273823 79.5835532,51.3730823 80.1663532,51.5667342 C80.8930089,51.8120266 81.6694608,52.1513785 82.3500089,52.4888861 C83.1744127,52.931519 83.9508646,53.4147266 84.7291608,53.9495747 C86.1363646,54.8717266 87.4458203,55.8934709 88.8530241,56.719719 C90.2122759,57.5459671 91.2801278,58.6636152 92.1543278,59.9288076 C93.2240241,61.4337595 94.4357316,62.7948557 94.9207835,64.6410038 L95.6474392,67.8500924 C95.7949835,68.4328924 96.1343354,69.0156924 95.9886354,69.6943962 C95.743343,70.9116367 95.5496911,72.1749848 95.3560392,73.390381 C95.2601354,73.8791215 95.1623873,74.367862 95.2121835,74.847381 C95.3043987,76.3597101 94.723443,77.6691658 94.1424873,79.030262 C93.9469911,79.467362 93.6555911,79.9063063 93.4139873,80.3913582 C93.4619392,80.4393101 93.7533392,80.5868544 93.8012911,80.5868544 L94.2383911,79.7126544 C94.2881873,79.7126544 94.2881873,79.7126544 94.3361392,79.7624506 C94.0926911,80.4411544 93.8990392,81.1714987 93.6537468,81.8520468 C93.0746354,83.358843 92.4918354,84.9135911 91.7633354,86.3705911 C91.3760316,87.1968392 90.6936392,87.8773873 90.2104316,88.6575278 C89.7272241,89.3362316 89.3380759,90.0647316 88.8530241,90.6973278 C88.4159241,91.2321759 87.9806684,91.7670241 87.3960241,92.1543278 C86.0865684,93.1262759 84.7273165,94.0982241 83.3201127,94.8765203 C82.447757,95.4113684 81.427857,95.7027684 80.4577532,95.9462165 L80.4706633,95.9406835 Z M54.6006139,93.3586582 L54.552662,93.4084544 C54.4512253,93.3605025 54.3055253,93.3125506 54.2096215,93.2148025 L53.0440215,91.4627139 C52.9481177,91.3188582 52.8964772,91.1731582 52.9481177,90.9795063 C53.4829658,91.8057544 54.0178139,92.5840506 54.5987696,93.3586582 L54.6006139,93.3586582 Z M84.7918671,100.016595 C86.9736785,99.094443 88.7700304,97.7849873 90.4169937,96.2763468 C90.6622861,96.0328987 90.9038899,95.7912949 91.1952899,95.5939544 C93.2350899,94.3324506 94.7363532,92.5822063 96.0974494,90.6383101 C97.6503532,88.4030139 98.6702532,85.8763177 99.9336013,83.4953215 C100.029505,83.2998253 100.125409,83.1080177 100.223157,82.9604734 C100.125409,88.500762 100.758005,93.9433025 101.484661,99.4356392 C96.0015456,99.6292911 90.418838,99.822943 84.7900228,100.018439 L84.7918671,100.016595 Z M134.003425,98.5595949 C133.955473,98.657343 133.855881,98.7550911 133.809773,98.8546835 C133.759977,98.7550911 133.759977,98.6093911 133.712025,98.4120506 C133.420625,99.1921911 132.789873,98.803043 132.352773,98.803043 C129.733862,98.8528392 127.06331,98.8528392 124.44071,98.8528392 C121.917703,98.8528392 119.346743,98.8528392 116.823735,98.8971025 C115.997487,98.8971025 115.123287,99.0907544 114.297039,99.1405506 C112.30888,99.2364544 110.318876,99.2880949 108.328872,99.3342025 C108.181328,99.3342025 108.037472,99.094443 107.794024,98.8989468 C107.746072,98.9966949 107.64648,99.1423949 107.502624,99.3360468 C107.450984,99.240143 107.35508,99.1442392 107.257332,98.9985392 C107.20938,99.1460835 107.159584,99.2899392 107.109787,99.385843 L106.96962,99.385843 C106.871872,98.7071392 106.67822,98.0763873 106.67822,97.3939949 C106.67822,95.9369949 106.825765,94.4799949 106.871872,93.0193063 C106.921668,92.3406025 106.871872,91.7098506 106.871872,91.0754101 C107.067368,91.2229544 107.213068,91.3207025 107.40672,91.4627139 C107.502624,91.2727506 107.600372,91.1270506 107.69812,90.9831949 C107.69812,90.9831949 107.600372,90.9315544 107.502624,90.8356506 C107.594839,90.7858544 107.694432,90.6881063 107.694432,90.6401544 C107.742384,90.4926101 107.841976,90.3487544 107.841976,90.2528506 C107.841976,89.9116544 107.742384,89.6202544 107.694432,89.3306987 C107.742384,89.3306987 107.790335,89.3306987 107.841976,89.2790582 L108.131532,90.7360582 L108.279076,90.7360582 C108.08358,90.3985506 108.714332,90.1053063 108.181328,89.7180025 C108.133376,89.6682063 108.22928,89.3768063 108.22928,89.2311063 C108.081735,88.9415506 107.98952,88.6501506 107.841976,88.2610025 C107.889928,88.2130506 108.035628,88.1632544 108.181328,88.1134582 C107.987676,88.0175544 107.841976,87.9216506 107.696276,87.8736987 C108.181328,87.4347544 108.181328,87.1913063 107.744228,86.7062544 C107.84382,86.6601468 107.939724,86.6601468 107.939724,86.6140392 C107.939724,86.1750949 107.939724,85.7379949 107.84382,85.3045835 C107.746072,84.8139987 107.991365,84.2348873 107.26102,83.9397987 C107.308972,84.087343 107.358768,84.1832468 107.454672,84.3271025 C107.454672,84.3271025 107.307128,84.3768987 107.163272,84.4746468 C106.53252,83.8900025 106.923513,83.109862 106.775968,82.2375063 C107.11532,82.3352544 107.358768,82.4330025 107.600372,82.5325949 C107.502624,82.1895544 107.26102,81.8004063 107.11532,81.3633063 L106.91798,81.3633063 L106.91798,78.1542177 C106.91798,78.2040139 107.257332,78.2040139 107.452828,78.2538101 C107.452828,78.2040139 107.498935,78.156062 107.498935,78.1062658 C107.351391,77.9126139 107.157739,77.718962 106.964087,77.4755139 L107.061835,77.3777658 C106.674532,76.8945582 106.868184,76.2158544 106.868184,76.0683101 L106.868184,72.6655696 C107.35508,73.1524658 106.628424,73.7832177 107.35508,74.0746177 L107.35508,73.5895658 L107.305284,73.5895658 C107.257332,72.8610658 107.257332,72.1325658 107.20938,71.4022215 L107.113476,71.4022215 C107.06368,71.5018139 107.06368,71.5497658 107.013884,71.6475139 L106.91798,71.6475139 L107.20938,60.0320886 C107.694432,60.6628405 108.227435,61.2493291 108.566787,61.8763924 C109.684435,63.919881 111.139591,65.6701253 112.498843,67.5162734 C113.664443,69.1208177 114.730451,70.8692177 115.800147,72.5217139 C117.109603,74.513562 118.371106,76.5054101 119.682406,78.4972582 C120.65251,80.0058987 121.674254,81.5126949 122.688622,82.9715392 C123.610773,84.2809949 124.584566,85.5461873 125.55467,86.8113797 C126.377229,87.9290278 127.251429,89.0466759 128.075833,90.1643241 C129.047781,91.5254203 130.017885,92.8846722 130.989833,94.1978165 C131.473041,94.8765203 132.007889,95.5570684 132.539048,96.2376165 C132.834137,96.6249203 133.269392,96.9200089 133.560792,97.1597684 C133.514685,97.1597684 133.464889,97.1597684 133.368985,97.1118165 C133.516529,97.3054684 133.608744,97.4511684 133.708337,97.5489165 C134.243185,97.8403165 134.291137,98.1317165 133.999737,98.5706608 L134.003425,98.5595949 Z M136.478481,86.4130101 L136.478481,86.0718139 C136.478481,86.1677177 136.526433,86.3115734 136.478481,86.4111658 L136.478481,86.4130101 Z M138.129133,64.9822 C138.079337,64.9822 137.789781,64.6871114 137.741829,64.6391595 C137.692033,64.7867038 137.741829,64.9305595 137.644081,65.1260557 C137.594285,64.9822 137.256777,65.0301519 137.256777,64.8862962 C137.206981,65.565 137.546333,66.2455481 137.496537,66.9260962 C137.644081,66.8283481 138.225037,66.7785519 138.370737,66.6346962 C138.420533,66.6826481 138.518281,66.7306 138.566233,66.7306 C137.594285,67.4609443 137.837733,68.1876 138.274833,69.0175367 C138.370737,69.2093443 138.662137,69.5984924 138.370737,69.9876405 C138.274833,70.0853886 138.420533,70.3749443 138.468485,70.6202367 L138.610496,70.6202367 L138.610496,70.7124519 L138.173396,70.8599962 C138.077492,70.7124519 137.496537,70.4247405 137.496537,70.1776038 L137.496537,72.6600367 C137.981589,72.807581 137.981589,73.4862848 138.175241,73.827481 C138.276677,73.6799367 138.322785,73.5821886 138.372581,73.4401772 L138.422377,73.4844405 C138.372581,73.7758405 138.324629,74.0672405 138.226881,74.3604848 C138.130977,74.7957405 138.033229,75.1848886 137.987122,75.6219886 C137.987122,75.6699405 138.079337,75.7695329 138.079337,75.8156405 C137.548177,77.032881 137.839577,78.3902886 137.645925,79.6517924 C137.498381,80.5739443 137.645925,81.5514253 137.548177,82.5215291 C137.448585,83.3477772 137.253089,84.2219772 137.061281,85.0482253 C137.011485,85.1957696 136.913737,85.2418772 136.673977,85.3396253 C136.769881,84.7568253 136.721929,84.3676772 136.624181,83.8328291 C136.572541,83.8328291 135.941789,83.4934772 135.891992,83.4934772 C135.891992,84.1758696 136.279296,85.0980215 136.426841,85.8726291 C136.279296,85.8246772 135.698341,85.4853253 135.652233,85.4853253 C135.552641,86.0681253 135.552641,86.8464215 135.504689,87.4771734 C135.454892,87.9640696 135.019637,88.3993253 134.969841,88.9341734 C134.969841,89.229262 135.309192,89.4210696 135.261241,89.9079658 L135.648544,89.9079658 C135.648544,88.937862 136.087489,88.063662 136.087489,87.0419177 L136.231344,87.0419177 C136.281141,87.1396658 136.426841,87.2374139 136.378889,87.2853658 C136.281141,87.8202139 136.0838,88.4030139 136.135441,88.937862 C136.135441,89.229262 136.3752,89.520662 136.282985,89.8600139 C136.183392,90.1551025 136.135441,90.4446582 136.085644,90.8817582 C136.035848,90.6383101 135.987896,90.5424063 135.987896,90.3967063 C135.939944,90.3967063 135.502844,90.3469101 135.453048,90.3469101 C135.405096,90.6383101 135.794244,90.9297101 135.744448,91.1731582 C135.696496,91.2211101 135.648544,91.2211101 135.550796,91.2709063 L133.949941,88.9360177 C132.684748,87.0917139 131.423244,85.2418772 130.161741,83.3477772 C129.820544,82.860881 129.529144,82.3758291 129.285696,81.8907772 C127.782589,79.3124405 126.131937,76.8336962 124.287633,74.4527 C122.882273,72.6563481 121.760937,70.7087633 120.451481,68.8183519 C119.241618,67.0201557 118.028066,65.2699114 116.814514,63.4698709 C116.377414,62.8889152 115.84441,62.3540671 115.455262,61.7214709 C114.195603,59.7296228 113.07611,57.6879785 111.818295,55.6961304 C110.748599,54.0417899 109.586687,52.4372456 108.469039,50.8345456 C108.081735,50.2996975 107.694432,49.7150532 107.303439,49.1322532 C107.255487,49.040038 107.207535,48.9422899 107.207535,48.7965899 C107.109787,47.7268937 107.012039,46.6571975 106.964087,45.6372975 C106.964087,44.6653494 107.061835,43.6934013 107.061835,42.671657 L107.061835,41.797457 C107.061835,41.5540089 107.107943,41.360357 107.107943,41.1150646 C107.154051,41.068957 107.203847,40.9712089 107.251799,40.923257 C105.844595,40.923257 104.387595,40.8716165 102.980391,40.923257 C102.058239,40.9693646 101.573187,40.5802165 100.942435,39.8996684 C99.0981316,37.8100722 97.7388797,35.4290759 96.1380241,33.1937797 C94.6330722,31.0543873 93.0801684,28.9629468 91.5272646,26.8733506 C90.2639165,25.1729025 89.0005684,23.5204063 87.7409089,21.8199582 C86.3318608,19.876062 84.9744532,17.9321658 83.5174532,15.9882696 C81.7690532,13.6570696 79.9727013,11.322181 78.1781937,8.99098101 C77.348257,7.92128481 76.4261051,6.90138481 75.5039532,5.78189241 C76.1365494,5.88148481 76.7211937,5.97738861 77.3021494,6.02718481 L79.6333494,6.17472911 C81.3799051,6.31674051 83.1264608,6.41448861 84.8711722,6.6542481 C86.3281722,6.85158861 87.7851722,7.14298861 89.2901241,7.38459241 C92.4955241,7.91944051 95.6492835,8.79548481 98.7071392,9.81538481 C100.503491,10.3981848 102.248203,11.176481 104.000291,11.904981 C107.928658,13.5095253 111.667062,15.4534215 115.35567,17.4932215 C116.517581,18.1258177 117.199973,19.1457177 118.070485,20.0697139 C119.333833,21.3828582 120.597181,22.6941582 121.808889,24.0534101 C123.214248,25.6579544 124.523704,27.3104506 125.8848,28.9629468 C127.096508,30.4199468 128.356167,31.8769468 129.573408,33.3376354 C129.960711,33.7747354 130.2558,34.3095835 130.591463,34.7946354 C131.366071,35.9620797 132.242115,37.0815722 132.920819,38.3430759 C133.404027,39.2689165 133.695427,40.3386127 134.034778,41.3585127 C134.517986,42.8653089 135.004882,44.3223089 135.491778,45.8291051 C135.829286,46.9467532 136.118842,48.1160418 136.36229,49.2779532 C136.557786,50.0580937 136.509834,50.8824975 136.749594,51.6571051 C137.044682,52.682538 136.749594,53.7964975 137.044682,54.8200861 C137.09079,54.9178342 137.136897,55.0635342 137.188538,55.1612823 C137.38219,55.3530899 137.52789,55.5485861 137.23649,55.8399861 C137.190382,55.887938 137.190382,56.0797456 137.23649,56.2272899 C137.336082,56.1313861 137.384034,56.033638 137.481782,55.887938 C137.481782,55.9856861 137.52789,56.0354823 137.52789,56.0815899 C137.52789,56.2733975 137.478094,56.4688937 137.52789,56.6625456 C137.52789,56.7584494 137.623794,56.9023051 137.671746,57.0018975 C137.769494,56.9023051 137.865397,56.8543532 138.059049,56.7068089 C138.496149,58.3611494 138.545946,60.0136456 138.545946,61.7140937 C138.545946,63.318638 138.835501,64.9231823 138.158642,66.4779304 C138.302497,65.9430823 137.963146,65.4543418 138.108846,64.9692899 L138.129133,64.9822 Z" id="Shape" fill="#DD3A0A"></path><path d="M114.783935,131.900919 C114.249087,132.288223 113.714239,132.629419 113.035535,132.775119 C112.983895,132.727167 112.983895,132.677371 112.935943,132.627575 C113.470791,132.288223 114.051747,131.948871 114.586595,131.607675 C114.636391,131.69989 114.734139,131.799482 114.782091,131.89723 L114.783935,131.900919 Z M23.7822975,66.044519 C24.3171456,65.3676595 24.8519937,64.6871114 25.4311051,64.0065633 C25.4772127,64.0545152 25.8645165,64.1541076 25.9143127,64.2002152 C25.3794646,64.8826076 24.6509646,65.8047595 24.1179608,66.5332595 C24.0183684,66.4355114 23.8726684,66.0961595 23.7767646,66.0463633 L23.7822975,66.044519 Z M9.99612658,89.8637025 C9.60882278,89.0374544 9.22151899,88.1614101 8.83421519,87.3370063 C8.88216709,87.2872101 9.22151899,87.1415101 9.26947089,87.1415101 C9.80431899,87.9161177 10.0440785,88.8382696 10.4350709,89.6682063 C10.4350709,89.6682063 10.0477671,89.8618582 9.99797089,89.8618582 L9.99612658,89.8637025 Z M22.3750937,66.5332595 C22.0836937,66.9722038 21.7922937,67.4591 21.5008937,67.8980443 C21.4529418,67.8464038 20.9180937,68.0898519 20.8701418,68.0419 C21.1615418,67.6048 21.8881975,66.8246595 22.1795975,66.3894038 C22.2293937,66.4373557 22.2773456,66.4871519 22.3750937,66.5369481 L22.3750937,66.5332595 Z M109.59222,133.896456 C109.638328,133.896456 109.638328,133.848504 109.688124,133.848504 C110.027476,133.896456 110.41478,133.944408 110.803928,133.944408 C110.169487,134.381508 109.780339,134.331711 109.586687,133.896456 L109.59222,133.896456 Z M22.4673089,68.5749038 C22.5189494,68.4273595 22.6148532,68.2835038 22.7126013,68.1378038 C22.8085051,68.1378038 22.9523608,68.0880076 22.9523608,68.0880076 C23.1497013,67.7486557 23.1497013,67.5052076 23.3433532,67.2138076 C23.2954013,67.1658557 23.2456051,67.1658557 23.1958089,67.1160595 C22.9062532,67.3152443 22.6148532,67.5586924 22.3234532,67.7523443 C22.4212013,67.8482481 22.4212013,67.8998886 22.4212013,67.9957924 C22.0338975,67.9459962 21.8863532,68.1433367 21.6927013,68.6744962 C21.6447494,68.8220405 21.4013013,68.8699924 21.1578532,69.0618 C21.1099013,69.1613924 21.0619494,69.4048405 20.9642013,69.6464443 L21.0139975,69.6980848 C20.9162494,69.7958329 20.7705494,69.8456291 20.7705494,69.8456291 C20.4791494,70.1351848 20.1397975,70.3804772 19.8483975,70.6700329 C19.8004456,70.8175772 19.7524937,70.9614329 19.7524937,71.1071329 C20.0936899,70.767781 20.6746456,70.1351848 21.1117456,69.7460367 L21.1615418,69.7958329 C21.3551937,69.5044329 21.5008937,69.2130329 21.6963899,68.9216329 C21.7424975,68.9695848 21.7424975,69.0175367 21.7922937,69.0691772 C21.6447494,69.456481 21.5008937,69.8917367 21.3551937,70.2808848 C21.253757,70.3288367 21.108057,70.4284291 21.108057,70.3786329 C20.9144051,70.5261772 20.7687051,70.7179848 20.5732089,70.8636848 L19.7008532,71.4464848 C19.2158013,71.8835848 18.7307494,72.2708886 18.1959013,72.7098329 C17.8565494,73.244681 17.5171975,73.7297329 17.1262051,74.3623291 C17.7108494,74.2147848 17.8565494,74.4600772 17.8085975,74.9469734 C18.4873013,75.0428772 18.5370975,74.5098734 18.7307494,74.1207253 C18.7787013,74.0211329 18.8284975,73.8256367 18.9244013,73.7776848 C19.3615013,73.390381 19.8465532,73.0510291 20.3316051,72.661881 C20.4293532,72.5641329 20.4293532,72.3667924 20.4293532,72.2229367 C20.4293532,72.1749848 20.1840608,72.1749848 20.0383608,72.1251886 C20.4754608,71.6382924 21.108057,70.8157329 21.5433127,70.2808848 C21.7867608,70.1333405 22.0283646,69.9378443 22.0283646,69.7921443 C21.9804127,69.2572962 22.3197646,69.1134405 22.710757,68.9179443 C22.5152608,68.7704 22.4654646,68.6283886 22.4654646,68.5804367 L22.4673089,68.5749038 Z" id="Shape" fill="#DD3735"></path><path d="M23.4411013,68.0400557 C23.2474494,68.3794076 23.0537975,68.6708076 22.8601456,69.0120038 L22.5687456,68.8644595 C22.3750937,69.9802633 21.6945456,70.9522114 21.0158418,71.1458633 C21.2094937,71.2436114 21.4031456,71.3413595 21.5506899,71.2934076 C21.6945456,71.2436114 21.7904494,70.998319 21.8881975,70.8544633 L23.1976532,68.958519 L23.6365975,68.2281747 L23.4429456,68.0345228 L23.4411013,68.0400557 Z M7.28131139,89.374962 C7.52475949,89.374962 7.76820759,89.4229139 8.05591899,89.4229139 C8.05591899,89.229262 8.30121139,89.2753696 8.30121139,89.083562 L8.4487557,89.083562 C8.4487557,89.3270101 8.49670759,89.520662 8.49670759,89.7659544 L7.4786519,89.7659544 C7.4288557,89.7161582 7.2352038,89.4229139 7.2831557,89.374962 L7.28131139,89.374962 Z M6.89400759,87.1396658 C6.74646329,86.9921215 6.5067038,86.8482658 6.5067038,86.7025658 C6.45690759,86.5107582 6.60260759,86.2691544 6.74646329,86.0257063 C6.8460557,86.3650582 6.89400759,86.6564582 6.98991139,86.9976544 C6.94011519,87.043762 6.89216329,87.0935582 6.89216329,87.1415101 L6.89400759,87.1396658 Z M8.10755949,84.0283253 C8.30121139,84.5189101 8.49486329,85.0537582 8.69035949,85.5406544 C8.64240759,85.5406544 8.35100759,85.6881987 8.3030557,85.7343063 C8.1094038,85.2474101 7.8659557,84.712562 7.6723038,84.2275101 C7.7202557,84.1795582 8.0116557,84.0320139 8.1094038,84.0320139 L8.10755949,84.0283253 Z M116.146876,130.493715 C116.386635,130.397811 116.678035,130.346171 117.069028,130.253956 C116.630084,130.591463 116.290732,130.834911 115.999332,131.126311 C115.949535,131.078359 115.901584,131.028563 115.851787,131.028563 C115.949535,130.834911 116.047284,130.689211 116.146876,130.493715 Z M56.4910253,27.8010354 C56.780581,27.6055392 57.0258734,27.4598392 57.3154291,27.2661873 L57.4113329,27.3620911 C57.1162443,27.7493949 56.8764848,28.1366987 56.5352886,28.6254392 C56.4873367,28.2879316 56.4873367,28.0905911 56.4375405,27.8508316 C56.3895886,27.8508316 56.4375405,27.8508316 56.4873367,27.8028797 L56.4910253,27.8010354 Z M70.7106076,52.391138 C71.1477076,52.1956418 71.5848076,52.0038342 72.1178114,51.7585418 C72.0698595,52.0499418 72.0698595,52.245438 72.0698595,52.4409342 C71.9223152,52.391138 71.7286633,52.3413418 71.5829633,52.3413418 C71.2915633,52.391138 70.7567152,52.7802861 70.5132671,52.828238 C70.4671595,52.828238 70.7087633,52.4409342 70.7087633,52.391138 L70.7106076,52.391138 Z M107.117165,93.6039506 C107.213068,94.0890025 108.13522,94.3324506 107.213068,94.8175025 C107.360613,94.9189392 107.502624,94.9650468 107.648324,95.0646392 C107.648324,95.1144354 107.600372,95.2121835 107.55242,95.2601354 C107.454672,95.306243 107.26102,95.4039911 107.165116,95.3523506 C107.11532,95.3523506 107.017572,95.160543 107.017572,95.0627949 C107.017572,94.6256949 107.067368,94.1885949 107.11532,93.6057949 L107.117165,93.6039506 Z" id="Shape" fill="#DD3735"></path></g></g></svg> 