<?xml version="1.0" encoding="utf-8"?>
<!-- Generator: Adobe Illustrator 22.1.0, SVG Export Plug-In . SVG Version: 6.00 Build 0)  -->
<svg version="1.1" id="Слой_1" xmlns="http://www.w3.org/2000/svg" xmlns:xlink="http://www.w3.org/1999/xlink" x="0px" y="0px"
	 viewBox="0 0 500 300" style="enable-background:new 0 0 500 300;" xml:space="preserve">
<g id="Layer_3">
</g>
<g id="Слой_x0020_1">
	<path style="fill:#333333;" d="M160.3,165.7h4.4v-13.8h5c6.5,0,11.4-2.6,11.4-8.9c0-6.1-4.4-8.7-11.2-8.7h-9.6V165.7z M164.7,138
		h4.7c4.1,0,7.2,1.2,7.2,5c0,3.7-3,5.1-7.3,5.1h-4.7V138z M209.9,151.7h4.7l8,14h5.3l-8.8-14.4c4.5-0.8,7.6-3.7,7.6-8.3
		c0-6.4-5.1-8.7-11.2-8.7h-10.1v31.4h4.4V151.7z M209.9,138h5.4c3.8,0,7,1.2,7,5c0,3.8-3.2,5.1-7.4,5.1h-5.1V138z M256,158h14.9
		l3.2,7.7h5l-13.5-31.4h-4L248,165.7h4.9L256,158z M263.5,139.4l5.9,14.7h-11.7L263.5,139.4z M306.3,134.3h-4.4v31.4h4.4V134.3z
		 M359.5,137.6c-2.6-2.5-6.7-4.1-11.6-4.1c-9.5,0-16.7,6.7-16.7,16.4c0,9.7,7,16.5,16.8,16.5c4.6,0,8.5-1,11.8-2.7v-15.2h-11.3v3.7
		h7v8.7c-1.8,1-4.4,1.6-7.3,1.6c-7.5,0-12.1-5.6-12.1-12.6c0-6.9,4.6-12.6,12-12.6c3.6,0,6.7,1.4,8.5,3.4L359.5,137.6z M417.8,150
		c0-9.8-7.1-16.4-16.7-16.4c-9.5,0-16.6,6.7-16.6,16.4c0,9.7,7,16.5,16.6,16.5C410.7,166.5,417.8,159.6,417.8,150z M413,150
		c0,7-4.7,12.6-11.9,12.6c-7.2,0-11.8-5.6-11.8-12.6c0-6.9,4.6-12.6,11.8-12.6C408.4,137.4,413,143.1,413,150z M447,151.7h4.7l8,14
		h5.3l-8.8-14.4c4.5-0.8,7.6-3.7,7.6-8.3c0-6.4-5.1-8.7-11.2-8.7h-10.1v31.4h4.4V151.7z M447,138h5.4c3.8,0,7,1.2,7,5
		c0,3.8-3.2,5.1-7.4,5.1H447V138z"/>
	<path style="fill:#333333;" d="M78.5,106.6c24,0,43.4,19.4,43.4,43.4s-19.4,43.4-43.4,43.4S35,174,35,150S54.5,106.6,78.5,106.6z"
		/>
	<g>
		<defs>
			<circle id="SVGID_1_" cx="78.5" cy="150" r="43.4"/>
		</defs>
		<clipPath id="SVGID_2_">
			<use xlink:href="#SVGID_1_"  style="overflow:visible;"/>
		</clipPath>
		<g style="clip-path:url(#SVGID_2_);">
			<g id="_663087648">
				<path id="_x31_" style="fill:#FFFFFF;" d="M119.7,108.5c-2,3.8-4,7.4-6.1,11c-4.9,8.4-9.7,16.1-14.6,23.1
					c3.3-5.1,6.1-10.6,8.4-16.1c3.5-8.5,5.9-17.4,7.3-26.1c-1.7,4.1-3.3,8-5,11.9c-4.4,9.8-8.8,18.7-13.5,26.9
					c-4.3,7.6-8.9,14.8-13.8,21.5c3.9-2.6,7.6-6.2,11.1-10.5c-3.6,4.8-7.4,9.4-11.2,13.7c3.8-2,7.6-4.9,11.3-8.7
					c-3.9,4.3-7.9,8.3-11.9,12.1c3.6-1.2,7.3-3.6,11.1-6.7c-4.1,3.7-8.1,7.1-12.3,10.2c3.3-0.6,6.9-2.2,10.6-4.7
					c-4.1,3-8.1,5.7-12.2,8.2c2.9,0.1,6.2-0.9,9.7-2.7c-3.5,2-6.9,3.9-10.4,5.5c-3.5-1.6-6.9-3.4-10.4-5.5c3.5,1.8,6.8,2.8,9.7,2.7
					c-4.1-2.5-8.1-5.2-12.2-8.2c3.7,2.5,7.3,4.2,10.6,4.7c-4.1-3.1-8.2-6.5-12.3-10.2c3.8,3.1,7.5,5.5,11.1,6.7
					c-4-3.8-8-7.8-11.9-12.1c3.7,3.7,7.5,6.7,11.3,8.6c-3.8-4.3-7.5-8.9-11.2-13.7c3.5,4.3,7.2,7.8,11.1,10.5
					c-4.9-6.7-9.4-13.8-13.8-21.5c-4.6-8.2-9.1-17.1-13.5-26.9c-1.7-3.9-3.3-7.8-5-11.9c1.4,8.7,3.8,17.7,7.3,26.1
					c2.3,5.6,5.1,11,8.4,16.1c-4.9-7-9.7-14.6-14.6-23.1c-2-3.5-4-7.2-6.1-11c2.7,8.7,6.2,17.3,10.5,25.2c2.9,5.3,6.1,10.3,9.8,14.9
					c-5.3-6.2-10.6-13-16-20.5c-2.2-3.1-4.5-6.4-6.8-9.8c3.6,8.2,8,16.3,12.8,23.4c3.2,4.8,6.7,9.2,10.5,13.2
					c-5.4-5.2-10.8-11-16.4-17.5c-2.3-2.7-4.7-5.5-7.1-8.4c4.3,7.6,9.2,14.8,14.3,21.1c3.5,4.2,7.2,8.1,11,11.4
					c-5.3-4.3-10.8-9.1-16.5-14.6c-2.3-2.2-4.7-4.6-7-7c4.7,6.8,9.9,13.1,15.1,18.5c3.6,3.6,7.3,6.9,11,9.5
					c-5.2-3.3-10.5-7.2-16-11.6c-2.2-1.8-4.5-3.7-6.8-5.6c4.9,5.9,10.2,11.4,15.3,15.8c3.5,3,7.1,5.6,10.7,7.6
					c-4.8-2.4-9.8-5.3-15-8.7c-2.1-1.4-4.2-2.8-6.4-4.3c5,5,10.1,9.5,15.1,13c3.5,2.4,6.9,4.4,10.2,5.8c-4.5-1.6-9.1-3.6-13.9-6
					c-2-1-3.9-2.1-5.9-3.2c4.9,4.2,9.9,7.8,14.6,10.5c3.4,1.9,6.6,3.3,9.7,4.1c-4.1-0.8-8.3-1.9-12.8-3.5c-1.8-0.6-3.6-1.4-5.4-2.1
					c5.3,3.8,13,9.5,22.7,9.5s17.3-5.7,22.7-9.5c-1.8,0.7-3.6,1.5-5.4,2.1c-4.5,1.6-8.7,2.8-12.8,3.5c3.1-0.8,6.4-2.2,9.7-4.1
					c4.7-2.7,9.8-6.3,14.6-10.5c-2,1.1-4,2.2-5.9,3.2c-4.8,2.4-9.5,4.4-13.9,6c3.3-1.4,6.7-3.4,10.2-5.8c5-3.5,10.2-8,15.1-13
					c-2.2,1.5-4.3,3-6.4,4.3c-5.2,3.4-10.2,6.2-15,8.7c3.5-2,7.1-4.6,10.7-7.6c5.2-4.4,10.4-9.9,15.3-15.8c-2.3,2-4.5,3.8-6.8,5.6
					c-5.5,4.4-10.8,8.2-16,11.6c3.7-2.6,7.4-5.9,11-9.5c5.2-5.3,10.4-11.7,15.1-18.5c-2.4,2.4-4.7,4.8-7,7
					c-5.7,5.5-11.1,10.3-16.5,14.6c3.8-3.3,7.5-7.2,11-11.5c5.1-6.3,10-13.5,14.3-21.1c-2.4,2.9-4.7,5.7-7,8.4
					c-5.6,6.5-11.1,12.3-16.4,17.5c3.8-3.9,7.3-8.4,10.5-13.2c4.8-7.1,9.2-15.2,12.8-23.4c-2.3,3.4-4.5,6.6-6.8,9.8
					c-5.4,7.6-10.7,14.4-16,20.6c3.6-4.6,6.9-9.6,9.8-14.9C113.5,125.8,117.1,117.2,119.7,108.5z M74.3,181.5
					c1.4,0.3,2.7,0.4,3.9,0.3c1.2,0.1,2.5,0,3.9-0.3c-1.3,0.4-2.6,0.7-3.9,1C76.9,182.2,75.6,181.9,74.3,181.5z M70.9,176.7
					c2.7,1,5.2,1.4,7.3,1.2c2.2,0.3,4.6-0.2,7.4-1.2c-2.5,1.1-4.9,2-7.4,2.9C75.8,178.7,73.4,177.7,70.9,176.7z"/>
			</g>
		</g>
	</g>
	<path style="fill:none;" d="M78.5,106.6c24,0,43.4,19.4,43.4,43.4s-19.4,43.4-43.4,43.4S35,174,35,150S54.5,106.6,78.5,106.6z"/>
</g>
</svg>
