<?xml version="1.0" encoding="UTF-8"?> <svg xmlns="http://www.w3.org/2000/svg" xmlns:xlink="http://www.w3.org/1999/xlink" width="500px" height="300px" viewBox="0 0 500 300"><!-- Generator: Sketch 52.2 (67145) - http://www.bohemiancoding.com/sketch --><title>pug</title><desc>Created with Sketch.</desc><g id="Page-1" stroke="none" stroke-width="1" fill="none" fill-rule="evenodd"><g id="pug" transform="translate(149.000000, 74.000000)"><g id="Group"><path d="M143.096484,117.078947 C116.071094,130.934211 86.3628906,130.934211 59.2980469,117.078947 C56.8125,115.815789 54.8398438,111.75 54.8398438,108.236842 C54.8398438,105.236842 54.8398438,102.197368 54.8398438,99.1973684 C54.8398438,95.6447368 56.8519531,93.9473684 59.2980469,95.2105263 C86.3234375,109.065789 116.031641,109.065789 143.096484,95.2105263 C145.582031,93.9473684 147.554688,95.6842105 147.554688,99.1973684 C147.554688,102.197368 147.554688,105.236842 147.554688,108.236842 C147.554688,111.75 145.582031,115.815789 143.096484,117.078947 Z" id="Path" fill="#C1272D"></path><path d="M169.135547,38.8815789 C168.741016,31.9736842 169.490625,25.8157895 166.452734,20.5263158 C158.956641,7.5 140.058594,0 101.789063,0 L101.789063,0.394736842 C101.789063,0.394736842 101.355078,0.394736842 101.355078,0.394736842 C101.355078,0.394736842 101.789063,0.394736842 101.789063,0.394736842 L101.789063,0 C64.703125,0 44.1875,7.61842105 36.6914063,20.6447368 C33.6535156,25.9342105 34.0875,32.0526316 33.6929688,38.9605263 C33.3773438,44.4473684 30.93125,50.4078947 31.9175781,56.7236842 C33.2195313,64.9342105 33.7324219,73.1052632 34.9949219,80.7236842 C35.98125,86.9210526 44.3058594,92.0526316 45.0949219,97.9736842 C47.2648438,114.078947 63.5195313,121.460526 101.789063,121.460526 L101.789063,121.618421 L101.276172,121.618421 L101.473438,121.618421 L101.789063,121.618421 L101.789063,121.460526 C140.453125,121.460526 155.879297,114.078947 158.049219,97.9736842 C158.838281,92.0526316 166.807813,86.9210526 167.833594,80.7236842 C169.056641,73.1052632 169.569531,64.9342105 170.871484,56.7236842 C171.857812,50.3289474 169.451172,44.3684211 169.135547,38.8815789 Z" id="Path" fill="#EFCCA3"></path><path d="M143.096484,125.092105 C116.071094,135.078947 86.3628906,135.078947 59.2980469,125.092105 C56.8125,124.184211 54.8398438,121.263158 54.8398438,118.697368 C54.8398438,116.526316 54.8398438,114.355263 54.8398438,112.184211 C54.8398438,109.618421 56.8519531,108.394737 59.2980469,109.302632 C86.3234375,119.289474 116.031641,119.289474 143.096484,109.302632 C145.582031,108.394737 147.554688,109.618421 147.554688,112.184211 C147.554688,114.355263 147.554688,116.526316 147.554688,118.697368 C147.554688,121.223684 145.582031,124.144737 143.096484,125.092105 Z" id="Path" fill="#ED1C24"></path><ellipse id="Oval" fill="#C1272D" cx="101.197266" cy="128.447368" rx="3.82695312" ry="3.82894737"></ellipse><path d="M101.355078,44.2105263 C108.219922,44.2894737 112.954297,48.8289474 117.4125,52.7763158 C122.580859,57.3552632 131.576172,60.5921053 135.205859,64.5 C138.835547,68.4078947 143.569922,72.5131579 145.345313,78.6710526 C147.120703,84.8289474 147.633594,92.7631579 147.633594,94.7763158 C147.633594,96.8289474 148.817188,96.3552632 151.933984,94.7763158 C159.311719,91.0657895 167.596875,81.3552632 167.596875,81.3552632 C166.610547,87.5526316 158.641016,92.6052632 157.851953,98.5263158 C155.682031,114.631579 140.019141,121.934211 101.394531,121.934211 L101.236719,121.934211 L101.157813,121.934211 L101.749609,121.934211" id="Path" fill="#CCAC8D"></path><path d="M126.407813,32.2105263 C127.907031,37.1447368 132.838672,53.7631579 123.133203,48.1184211 C123.133203,48.1184211 127.157422,50.4868421 129.800781,59.4473684 C132.404688,68.3684211 138.993359,69.5131579 138.993359,69.5131579 C138.993359,69.5131579 149.566797,71.5263158 157.417969,64.8552632 C164.125,59.1710526 165.190234,49.0263158 162.349609,41.3684211 C159.508984,33.7105263 154.419531,31.3421053 146.962891,29.7631579 C139.545703,28.1842105 124.790234,26.7631579 126.407813,32.2105263 Z" id="Path" fill="#CCAC8D"></path><g transform="translate(130.984375, 36.315789)" id="Oval"><ellipse fill="#000000" cx="14.2425781" cy="13.9736842" rx="13.8875" ry="13.8947368"></ellipse><ellipse fill="#FFFFFF" cx="10.6917969" cy="7.77631579" rx="3.55078125" ry="3.55263158"></ellipse></g><path d="M124.158984,49.6184211 C124.158984,49.6184211 136.705078,58.0657895 143.491016,66.5131579 C150.276953,74.9605263 150.158594,76.5394737 150.158594,76.5394737 L145.345313,78.6710526 C145.345313,78.6710526 138.441016,65.6052632 129.840234,60.6315789 C121.239453,55.6973684 120.174219,51.5526316 120.174219,51.5526316 L124.158984,49.6184211 Z" id="Path" fill="#EFCCA3"></path><g transform="translate(97.843750, 124.342105)" id="Oval"><ellipse fill="#FF931E" cx="3.35351562" cy="3.55263158" rx="3.27460937" ry="3.27631579"></ellipse><ellipse fill="#FFB81E" cx="4.33984375" cy="4.69736842" rx="1.14414062" ry="1.14473684"></ellipse></g><g transform="translate(98.632813, 130.657895)" id="Oval"><ellipse fill="#FF931E" cx="2.56445312" cy="2.32894737" rx="2.209375" ry="2.21052632"></ellipse><ellipse fill="#FFB81E" cx="3.23515625" cy="3.07894737" rx="1" ry="1"></ellipse></g><path d="M101.789062,44.2105263 C94.9242187,44.2894737 89.9925781,48.8289474 85.534375,52.7763158 C80.3660156,57.3552632 71.2523438,60.5921053 67.6226563,64.5 C63.9929688,68.4078947 59.1796875,72.5131579 57.4042969,78.6710526 C55.6289063,84.8289474 55.0765625,92.7631579 55.0765625,94.7763158 C55.0765625,96.8289474 55.4316406,96.9868421 50.7761719,94.7763158 C43.3195313,91.2631579 35.0738281,81.3552632 35.0738281,81.3552632 C36.0601563,87.5526316 44.0296875,92.6052632 44.81875,98.5263158 C46.9886719,114.631579 62.6515625,121.934211 101.236719,121.934211 L101.394531,121.934211 L101.473437,121.934211 L101.749609,121.934211" id="Path" fill="#CCAC8D"></path><path d="M138.677734,71.2894737 C131.063281,61.8947368 118.911719,53.2894737 102.104688,53.2894737 L101.986328,53.2894737 L101.946875,53.2894737 C85.1398438,53.2894737 72.9882813,61.8947368 65.3738281,71.2894737 C57.5226563,80.8421053 58.0355469,84.7105263 58.0355469,93.9078947 C58.0355469,127.105263 69.6742188,117.276316 77.4464844,121.263158 C85.3765625,125.171053 93.4644531,123.592105 101.946875,123.592105 L101.986328,123.592105 L102.104688,123.592105 C110.587109,123.592105 118.675,125.052632 126.605078,121.144737 C134.377344,117.157895 146.016016,127.184211 146.016016,93.9868421 C146.016016,84.7894737 146.528906,80.8421053 138.677734,71.2894737 Z" id="Path" fill="#56332B"></path><path d="M101.236719,61.4210526 C101.236719,61.4210526 100.171484,76.6578947 97.8832031,79.6578947 L101.986328,78.6710526 L101.236719,61.4210526 Z" id="Path" fill="#442823"></path><path d="M102.301953,61.4210526 C102.301953,61.4210526 103.367188,76.6578947 105.655469,79.6578947 L101.552344,78.6710526 L102.301953,61.4210526 Z" id="Path" fill="#442823"></path><path d="M89.0851563,57.8684211 C87.4675781,54.2368421 93.109375,48.3157895 102.144141,48.3157895 C111.139453,48.3157895 116.820703,54.2368421 115.203125,57.8684211 C113.625,61.5789474 107.864844,62.8026316 102.144141,62.8815789 C96.4234375,62.8026316 90.7027344,61.6184211 89.0851563,57.8684211 Z" id="Path" fill="#56332B"></path><path d="M102.2625,61.4210526 C102.223047,60.75 107.667578,60.6710526 110.46875,58.7368421 C110.46875,58.7368421 104.590234,60.5921053 103.327734,59.8815789 C102.025781,59.1710526 101.789063,57.3157895 101.670703,57.3157895 C101.552344,57.3157895 101.276172,59.2894737 100.210938,59.8815789 C99.1457031,60.4736842 92.478125,58.7368421 92.478125,58.7368421 C92.478125,58.7368421 101.315625,60.8684211 101.276172,61.3815789 C101.197266,61.8947368 101.197266,63.3947368 101.197266,64.5 C101.197266,68.4473684 101.276172,78.2763158 101.789063,79.0263158 C102.775391,80.4868421 102.380859,68.4473684 102.380859,64.5 C102.341406,63.4342105 102.301953,62.0921053 102.2625,61.4210526 Z" id="Path" fill="#000000"></path><path d="M102.420313,82.6973684 C105.103125,82.6973684 109.8375,84.5131579 114.058984,87.5526316 C109.916406,83.0526316 105.063672,79.8157895 102.420313,79.8157895 C99.5796875,79.8157895 93.6222656,83.3289474 89.2429688,88.3421053 C93.8589844,84.7894737 99.5007813,82.6973684 102.420313,82.6973684 Z" id="Path" fill="#7F4A41"></path><path d="M101.433984,110.526316 C95.3976563,110.526316 89.5980469,108.631579 84.271875,107.25 C83.1277344,106.934211 81.9835938,107.763158 80.8789063,107.407895 C70.9761719,104.25 62.8882813,98.8421053 57.9566406,92.1315789 C57.9566406,92.6447368 57.9960938,93.1973684 57.9960938,93.75 C57.9960938,126.947368 69.6347656,117.157895 77.4070313,121.184211 C85.3371094,125.092105 93.425,123.552632 101.907422,123.552632 L101.946875,123.552632 L102.065234,123.552632 C110.547656,123.552632 118.635547,125.013158 126.565625,121.105263 C134.337891,117.118421 145.976563,127.026316 145.976563,93.8289474 C145.976563,92.5657895 146.016016,91.3815789 146.094922,90.2763158 C141.478906,97.6184211 133.154297,103.618421 122.699219,107.131579 C121.712891,107.447368 119.582422,106.618421 118.556641,106.934211 C112.954297,108.473684 107.904297,110.526316 101.433984,110.526316 Z" id="Path" fill="#442823"></path><path d="M86.3628906,92.7236842 C86.3628906,92.7236842 82.378125,104.565789 85.1003906,109.776316 L81.4707031,108.157895 C81.4707031,108.157895 84.271875,96.1973684 86.3628906,92.7236842 Z" id="Path" fill="#442823"></path><path d="M117.688672,92.7236842 C117.688672,92.7236842 121.673438,104.565789 118.951172,109.776316 L122.580859,108.157895 C122.580859,108.157895 119.779688,96.1973684 117.688672,92.7236842 Z" id="Path" fill="#442823"></path><path d="M76.3023438,32.2105263 C74.803125,37.1447368 69.8714844,53.7631579 79.5769531,48.1184211 C79.5769531,48.1184211 75.5527344,50.4868421 72.909375,59.4473684 C70.2660156,68.4078947 63.7167969,69.5131579 63.7167969,69.5131579 C63.7167969,69.5131579 53.1433594,71.5263158 45.2921875,64.8552632 C38.5851563,59.1710526 37.5199219,49.0263158 40.3605469,41.3684211 C43.2011719,33.7105263 48.290625,31.3421053 55.7472656,29.7631579 C63.1644531,28.1842105 77.959375,26.7631579 76.3023438,32.2105263 Z" id="Path" fill="#CCAC8D"></path><path d="M102.025781,79.8157895 C106.207813,79.8157895 119.503516,88.9342105 119.740234,100.263158 C119.740234,100.065789 119.779688,99.8684211 119.779688,99.7105263 C119.779688,88.1052632 109.008984,78.7105263 102.025781,78.7105263 C95.0425781,78.7105263 84.271875,88.1052632 84.271875,99.7105263 C84.271875,99.9078947 84.3113281,100.105263 84.3113281,100.263158 C84.5480469,88.8947368 97.8042969,79.8157895 102.025781,79.8157895 Z" id="Path" fill="#000000"></path><g transform="translate(95.871094, 52.500000)" fill="#331712" id="Oval"><ellipse transform="translate(9.034265, 3.073386) rotate(-14.460093) translate(-9.034265, -3.073386) " cx="9.03426457" cy="3.07338553" rx="1.30196616" ry="2.44723385"></ellipse><ellipse transform="translate(2.166099, 3.080854) rotate(17.235421) translate(-2.166099, -3.080854) " cx="2.16609887" cy="3.08085395" rx="1.30201905" ry="2.44726838"></ellipse></g><g transform="translate(44.187500, 36.315789)" id="Oval"><ellipse fill="#000000" cx="14.1242188" cy="13.9736842" rx="13.8875" ry="13.8947368"></ellipse><ellipse fill="#FFFFFF" cx="17.675" cy="7.77631579" rx="3.55078125" ry="3.55263158"></ellipse></g><path d="M106.168359,50.4078947 C106.168359,50.2894737 102.578125,51.9868421 101.552344,52.1052632 C100.526563,51.9473684 96.9363281,50.2894737 96.9363281,50.4078947 C96.9363281,50.3289474 99.9347656,50.3684211 101.552344,50.4473684 C103.169922,50.3684211 106.207813,50.3684211 106.168359,50.4078947 Z" id="Path" fill="#7F4A41"></path><path d="M78.590625,49.6184211 C78.590625,49.6184211 66.0445313,58.0657895 59.2585938,66.5131579 C52.4726563,74.9605263 52.5910156,76.5394737 52.5910156,76.5394737 L57.4042969,78.6710526 C57.4042969,78.6710526 64.3085938,65.6052632 72.909375,60.6315789 C81.5101563,55.6578947 82.5753906,51.5526316 82.5753906,51.5526316 L78.590625,49.6184211 Z" id="Path" fill="#EFCCA3"></path><path d="M51.2496094,24.3947368 C51.2496094,24.3947368 47.0675781,36.0394737 37.5199219,40.9736842 C37.559375,40.9736842 52.2753906,39.2368421 51.2496094,24.3947368 Z" id="Path" fill="#CCAC8D"></path><path d="M150.750391,24.3947368 C150.750391,24.3947368 154.932422,36.0394737 164.480078,40.9736842 C164.480078,40.9736842 149.724609,39.2368421 150.750391,24.3947368 Z" id="Path" fill="#CCAC8D"></path><path d="M123.567188,46.2236842 C123.567188,46.2236842 114.374609,36.3947368 101.828516,36.1578947 L101.828516,36.1184211 C101.749609,36.1184211 101.907422,36.1184211 101.828516,36.1184211 C101.749609,36.1184211 101.828516,36.1184211 101.828516,36.1184211 L101.828516,36.1578947 C89.5980469,36.3947368 80.0503906,46.2236842 80.0503906,46.2236842 C90.9,38.6052632 101.039453,38.8026316 101.828516,38.8421053 C101.828516,38.8421053 101.789063,38.8421053 101.828516,38.8421053 C101.867969,38.8421053 101.828516,38.8421053 101.828516,38.8421053 C102.972656,38.7631579 112.717578,38.6052632 123.567188,46.2236842 Z" id="Path" fill="#CCAC8D"></path><path d="M112.678125,25.6184211 C112.678125,25.6184211 108.062109,18.9473684 101.789063,18.7894737 C101.749609,18.7894737 101.828516,18.7894737 101.789063,18.7894737 C101.749609,18.7894737 101.789063,18.7894737 101.789063,18.7894737 C96.265625,18.9473684 90.9,25.6184211 90.9,25.6184211 C96.3445313,20.4473684 101.789063,20.5657895 101.789063,20.6052632 C101.789063,20.6052632 101.789063,20.6052632 101.789063,20.6052632 C101.789063,20.6052632 101.789063,20.6052632 101.789063,20.6052632 C102.972656,20.5657895 107.233594,20.4473684 112.678125,25.6184211 Z" id="Path" fill="#CCAC8D"></path><path d="M58.2722656,74.1710526 C58.2722656,74.1710526 50.815625,77.8421053 45.5289063,75.6315789 L45.5683594,75.6315789 C45.5683594,75.6315789 45.6867188,75.6315789 45.6472656,75.6315789 C45.6078125,75.6315789 45.765625,75.6315789 45.765625,75.6315789 C40.2421875,72.9078947 38.50625,64.9342105 38.50625,64.9342105 C38.50625,64.9342105 42.9644531,78.9473684 58.2722656,74.1710526 Z" id="Path" fill="#CCAC8D"></path><path d="M144.792969,74.1710526 C144.792969,74.1710526 152.249609,77.8421053 157.536328,75.6315789 L157.496875,75.6315789 C157.496875,75.6315789 157.851953,75.6315789 157.891406,75.6315789 C157.930859,75.6315789 158.207031,75.6315789 158.207031,75.6315789 C163.730469,72.9078947 164.992969,64.9342105 164.992969,64.9342105 C164.992969,64.9342105 160.100781,78.9473684 144.792969,74.1710526 Z" id="Path" fill="#CCAC8D"></path><path d="M101.749609,30.5131579 C101.749609,30.5131579 101.789062,30.5131579 101.749609,30.5131579 C101.710156,30.5131579 101.749609,30.5131579 101.749609,30.5131579 Z" id="Path" fill="#CCAC8D"></path><path d="M66.8335938,23.5263158 C70.9761719,22.6578947 77.6832031,22.5 83.0488281,24.3947368 C89.8742188,26.7631579 84.3902344,35.4473684 85.7710938,35.9210526 C87.1519531,36.3947368 89.00625,29.9210526 101.710156,30.5131579 C114.414063,31.1052632 115.952734,36.75 117.688672,35.9210526 C119.424609,35.0921053 115.992188,20.0526316 135.0875,23.5263158 C135.0875,23.5263158 115.045313,18.1578947 115.992188,32.6842105 C115.992188,32.6842105 104.550781,23.7631579 88.375,31.7763158 C88.4144531,31.7763158 92.5964844,18.2368421 66.8335938,23.5263158 Z" id="Path" fill="#CCAC8D"></path><path d="M136.783984,23.5657895 C137.020703,23.6052632 137.257422,23.6842105 137.494141,23.7236842 C137.494141,23.7236842 137.257422,23.6447368 136.783984,23.5657895 Z" id="Path" fill="#CCAC8D"></path><path d="M136.665625,23.5263158 C136.705078,23.5263158 136.744531,23.5263158 136.783984,23.5657895 C136.744531,23.5263158 136.705078,23.5263158 136.665625,23.5263158 Z" id="Path" fill="#CCAC8D"></path><path d="M61.3496094,4.18421053 C61.3496094,4.18421053 44.3058594,25.6184211 41.7414063,33.9078947 C39.1769531,42.1973684 37.3621094,76.5 35.1132813,81.3552632 L27.14375,47.6447368 L41.7019531,12.4342105 L61.3496094,4.18421053 Z" id="Path" fill="#CCAC8D"></path><path d="M141.478906,4.18421053 C141.478906,4.18421053 158.522656,25.6184211 161.087109,33.9078947 C163.651563,42.1973684 165.466406,76.5 167.715234,81.3552632 L175.684766,47.6447368 L161.126563,12.4342105 L141.478906,4.18421053 Z" id="Path" fill="#CCAC8D"></path><path d="M140.650391,4.18421053 C140.650391,4.18421053 158.956641,19.5 164.243359,37.1842105 C169.530078,54.8684211 167.360156,76.3421053 171.502734,79.1052632 C177.341797,82.9736842 183.969922,60.3947368 186.179297,57.9473684 C189.611719,54.1973684 201.210938,44.5263158 201.960547,42.7894737 C202.710156,41.0526316 178.604297,14.7236842 167.991406,9.51315789 C155.405859,3.35526316 139.624609,2.80263158 140.650391,4.18421053 Z" id="Path" fill="#56332B"></path><path d="M156.313281,13.6184211 C156.313281,13.6184211 177.933594,41.25 177.539063,75.6315789 L186.179297,57.9473684 C186.179297,57.9473684 178.604297,35.3289474 156.313281,13.6184211 Z" id="Path" fill="#442823"></path><path d="M61.3496094,4.18421053 C61.3496094,4.18421053 43.0433594,19.5 37.7566406,37.1842105 C32.4699219,54.8684211 34.6398438,76.3421053 30.4972656,79.1052632 C24.6582031,82.9736842 18.0300781,60.3947368 15.8207031,57.9473684 C12.3882813,54.1973684 0.7890625,44.5263158 0.039453125,42.7894737 C-0.71015625,41.0526316 23.3957031,14.7236842 34.0085938,9.51315789 C46.5941406,3.35526316 62.3753906,2.80263158 61.3496094,4.18421053 Z" id="Path" fill="#56332B"></path><path d="M45.6867188,13.6184211 C45.6867188,13.6184211 24.0664063,41.25 24.4609375,75.6315789 L15.8207031,57.9473684 C15.8207031,57.9473684 23.3957031,35.3289474 45.6867188,13.6184211 Z" id="Path" fill="#442823"></path><path d="M33.9296875,76.3421053 C33.9296875,76.3421053 35.4289063,84.9078947 38.0722656,87.5921053 C40.715625,90.2763158 38.9007813,85.5394737 38.9007813,85.5394737 C38.9007813,85.5394737 36.296875,84.1184211 36.7308594,73.1842105 C37.1648438,62.2105263 33.9296875,76.3421053 33.9296875,76.3421053 Z" id="Path" fill="#CCAC8D"></path><path d="M168.701563,76.3421053 C168.701563,76.3421053 167.202344,84.9078947 164.558984,87.5921053 C161.915625,90.2763158 163.730469,85.5394737 163.730469,85.5394737 C163.730469,85.5394737 166.334375,84.1184211 165.900391,73.1842105 C165.466406,62.25 168.701563,76.3421053 168.701563,76.3421053 Z" id="Path" fill="#CCAC8D"></path><g transform="translate(85.218750, 129.473684)"><path d="M26.3546875,12.2763158 C27.5777344,11.6447368 28.4851563,10.5 28.7613281,9.07894737 C29.1953125,6.63157895 27.5777344,4.30263158 25.1316406,3.86842105 C22.8828125,3.47368421 20.7523438,4.81578947 20.0816406,6.94736842 C17.1226563,6.07894737 14.0453125,5.56578947 10.9679688,5.32894737 C11.0863281,3.11842105 9.54765625,1.10526316 7.29882813,0.671052632 C4.85273438,0.236842105 2.525,1.85526316 2.09101563,4.30263158 C1.81484375,5.76315789 2.28828125,7.14473684 3.23515625,8.13157895 C2.01210938,8.76315789 1.1046875,9.90789474 0.828515625,11.3289474 C0.39453125,13.7763158 2.01210938,16.1052632 4.45820313,16.5394737 C6.66757813,16.9342105 8.75859375,15.6315789 9.46875,13.6184211 C12.4671875,14.4473684 15.5445313,15 18.621875,15.2368421 C18.5824219,17.4078947 20.1210938,19.3421053 22.2910156,19.7368421 C24.7371094,20.1710526 27.0648438,18.5526316 27.4988281,16.1052632 C27.7355469,14.6842105 27.2621094,13.3026316 26.3546875,12.2763158 Z" id="Path" fill="#FFB81E"></path><path d="M23.0800781,20.2894737 C22.8039063,20.2894737 22.4882813,20.25 22.2121094,20.2105263 C19.9632813,19.8157895 18.30625,17.9210526 18.1484375,15.6710526 C15.3078125,15.3947368 12.4671875,14.8815789 9.70546875,14.1710526 C8.79804688,16.2236842 6.58867188,17.4078947 4.33984375,17.0131579 C1.65703125,16.5394737 -0.118359375,13.9736842 0.355078125,11.2894737 C0.591796875,9.94736842 1.38085938,8.76315789 2.525,8.05263158 C1.69648438,6.94736842 1.38085938,5.60526316 1.61757813,4.26315789 C1.85429688,2.96052632 2.56445313,1.85526316 3.66914063,1.06578947 C4.734375,0.315789474 6.07578125,0.0394736842 7.33828125,0.276315789 C9.6265625,0.671052632 11.3230469,2.64473684 11.4019531,4.93421053 C14.2425781,5.17105263 17.04375,5.68421053 19.7660156,6.43421053 C20.6339844,4.30263158 22.8828125,3.03947368 25.1710938,3.47368421 C26.4730469,3.71052632 27.5777344,4.42105263 28.3667969,5.52631579 C29.1164063,6.59210526 29.3925781,7.93421053 29.1953125,9.19736842 C28.9585938,10.5394737 28.1695313,11.7236842 27.0253906,12.4342105 C27.8539063,13.5394737 28.1695313,14.8815789 27.9328125,16.2236842 C27.6960938,17.5263158 26.9859375,18.6315789 25.88125,19.4210526 C25.0527344,19.9736842 24.1058594,20.2894737 23.0800781,20.2894737 Z M9.153125,13.0657895 L9.54765625,13.1842105 C12.5066406,14.0131579 15.5445312,14.5263158 18.621875,14.8026316 L19.0558594,14.8421053 L19.0558594,15.2763158 C19.0164062,17.25 20.3972656,18.9473684 22.3699219,19.3026316 C23.4351562,19.5 24.5003906,19.2631579 25.3683594,18.6315789 C26.2363281,18 26.828125,17.0921053 27.0253906,16.0263158 C27.2621094,14.7631579 26.8675781,13.5 25.9996094,12.5921053 L25.565625,12.1578947 L26.1179687,11.8815789 C27.2621094,11.2894737 28.0511719,10.2631579 28.2878906,9 C28.4851562,7.93421053 28.2484375,6.86842105 27.6171875,6 C26.9859375,5.13157895 26.0785156,4.53947368 25.0132812,4.34210526 C23.040625,3.98684211 21.0679687,5.17105263 20.4761719,7.10526316 L20.3578125,7.53947368 L19.9238281,7.42105263 C17.0042969,6.59210526 13.9664062,6.03947368 10.9285156,5.80263158 L10.4945312,5.76315789 L10.5339844,5.32894737 C10.6523437,3.31578947 9.23203125,1.5 7.21992187,1.14473684 C6.1546875,0.947368421 5.08945312,1.18421053 4.22148437,1.81578947 C3.35351562,2.44736842 2.76171875,3.35526316 2.56445312,4.42105263 C2.32773437,5.68421053 2.72226562,6.94736842 3.59023437,7.85526316 L4.02421875,8.28947368 L3.471875,8.56578947 C2.32773437,9.15789474 1.53867187,10.1842105 1.30195312,11.4473684 C0.907421875,13.6184211 2.3671875,15.7105263 4.53710937,16.1052632 C6.4703125,16.4605263 8.3640625,15.3552632 9.03476562,13.4605263 L9.153125,13.0657895 Z" id="Shape" fill="#FF931E" fill-rule="nonzero"></path><ellipse id="Oval" fill="#FFCC66" cx="7.49609375" cy="3.90789474" rx="1.69648437" ry="1.69736842"></ellipse><ellipse id="Oval" fill="#FFCC66" cx="23.9875" cy="16.1447368" rx="1.69648437" ry="1.69736842"></ellipse></g><ellipse id="Oval" fill="#FF931E" cx="100.013672" cy="139.697368" rx="1.02578125" ry="1.02631579"></ellipse><ellipse id="Oval" fill="#FF931E" cx="91.9257813" cy="138.473684" rx="1.02578125" ry="1.02631579"></ellipse><ellipse id="Oval" fill="#FF931E" cx="108.101563" cy="141.315789" rx="1.02578125" ry="1.02631579"></ellipse><g transform="translate(74.566406, 68.289474)" fill="#442823" id="Oval"><ellipse cx="11.0863281" cy="1.5" rx="1.22304688" ry="1.22368421"></ellipse><ellipse cx="3.82695312" cy="9.19736842" rx="1.22304687" ry="1.22368421"></ellipse><ellipse cx="1.38085938" cy="1.5" rx="1.22304688" ry="1.22368421"></ellipse></g><g transform="translate(114.808594, 68.289474)" fill="#442823" id="Oval"><ellipse cx="1.53867187" cy="1.5" rx="1.22304688" ry="1.22368421"></ellipse><ellipse cx="8.79804688" cy="9.19736842" rx="1.22304688" ry="1.22368421"></ellipse><ellipse cx="11.2441406" cy="1.5" rx="1.22304688" ry="1.22368421"></ellipse></g></g></g></g></svg> 