<?xml version="1.0" encoding="UTF-8"?> <svg xmlns="http://www.w3.org/2000/svg" xmlns:xlink="http://www.w3.org/1999/xlink" width="500px" height="300px" viewBox="0 0 500 300"><!-- Generator: Sketch 52.2 (67145) - http://www.bohemiancoding.com/sketch --><title>Untitled</title><desc>Created with Sketch.</desc><g id="Page-1" stroke="none" stroke-width="1" fill="none" fill-rule="evenodd"><g id="react" transform="translate(177.000000, 85.000000)" fill="#61DAFB"><path d="M145,64.6902655 C145,55.1769912 132.853403,46.0442478 114.633508,40.3362832 C118.808901,21.6902655 116.910995,6.46902655 108.560209,1.90265487 C106.662304,0.761061947 104.384817,0 101.727749,0 L101.727749,6.46902655 C103.246073,6.46902655 104.005236,6.84955752 105.143979,7.2300885 C109.319372,9.51327434 110.837696,18.2654867 109.698953,29.6814159 C109.319372,32.3451327 108.939791,35.3893805 108.180628,38.4336283 C102.486911,36.9115044 96.0340314,35.7699115 89.5811518,35.3893805 C85.7853403,30.0619469 81.6099476,25.1150442 77.434555,20.5486726 C86.9240838,11.4159292 96.0340314,6.84955752 102.10733,6.84955752 L102.10733,0 C94.1361257,0 83.5078534,5.7079646 72.5,15.9823009 C61.8717277,6.08849558 51.2434555,0.380530973 42.8926702,0.380530973 L42.8926702,6.84955752 C48.9659686,6.84955752 58.0759162,11.7964602 67.565445,20.5486726 C63.3900524,24.7345133 59.2146597,29.6814159 55.4188482,35.3893805 C48.5863874,36.1504425 42.513089,37.2920354 36.8193717,38.8141593 C36.0602094,35.7699115 35.6806283,33.1061947 35.3010471,30.0619469 C33.7827225,18.6460177 35.6806283,9.89380531 39.4764398,7.61061947 C40.2356021,7.2300885 41.3743455,6.84955752 42.8926702,6.84955752 L42.8926702,0.380530973 C40.2356021,0.380530973 38.3376963,0.761061947 36.0602094,1.90265487 C28.0890052,6.84955752 26.1910995,21.6902655 30.3664921,40.3362832 C12.1465969,46.0442478 0,55.1769912 0,64.6902655 C0,74.2035398 12.1465969,83.3362832 30.3664921,89.0442478 C26.1910995,107.690265 28.0890052,122.911504 36.4397906,127.477876 C38.3376963,128.619469 40.6151832,129 42.8926702,129 C50.8638743,129 61.4921466,123.292035 72.5,113.017699 C83.1282723,122.911504 93.7565445,128.619469 102.10733,128.619469 C104.764398,128.619469 106.662304,128.238938 108.939791,127.097345 C117.290576,122.150442 119.188482,107.309735 114.633508,88.6637168 C132.853403,83.3362832 145,74.2035398 145,64.6902655 Z M106.282723,44.9026549 C105.143979,48.7079646 104.005236,52.5132743 102.486911,56.699115 C101.348168,54.4159292 99.8298429,52.1327434 98.6910995,49.4690265 C97.1727749,47.1858407 96.0340314,44.9026549 94.5157068,42.619469 C98.6910995,43.380531 102.486911,44.1415929 106.282723,44.9026549 Z M92.9973822,76.4867257 C90.7198953,80.2920354 88.4424084,84.0973451 85.7853403,87.9026549 C81.2303665,88.2831858 77.0549738,88.6637168 72.5,88.6637168 C67.9450262,88.6637168 63.7696335,88.2831858 59.2146597,88.2831858 C56.9371728,84.8584071 54.2801047,81.0530973 52.0026178,76.8672566 C49.7251309,73.0619469 47.8272251,68.8761062 45.9293194,65.0707965 C47.8272251,61.2654867 49.7251309,57.079646 52.0026178,53.2743363 C54.2801047,49.4690265 56.5575916,45.6637168 59.2146597,41.8584071 C63.7696335,41.4778761 67.9450262,41.0973451 72.5,41.0973451 C77.0549738,41.0973451 81.2303665,41.4778761 85.7853403,41.4778761 C88.0628272,44.9026549 90.7198953,48.7079646 92.9973822,52.8938053 C95.2748691,56.699115 97.1727749,60.8849558 99.0706806,64.6902655 C97.1727749,68.4955752 95.2748691,72.6814159 92.9973822,76.4867257 Z M102.486911,72.6814159 C104.005236,76.4867257 105.52356,80.6725664 106.662304,84.4778761 C102.866492,85.2389381 98.6910995,86.380531 94.5157068,86.7610619 C96.0340314,84.4778761 97.552356,82.1946903 98.6910995,79.9115044 C99.8298429,77.2477876 101.348168,74.9646018 102.486911,72.6814159 Z M72.5,104.265487 C69.8429319,101.60177 67.1858639,98.1769912 64.1492147,94.7522124 C66.8062827,94.7522124 69.4633508,95.1327434 72.1204188,95.1327434 C74.7774869,95.1327434 77.8141361,95.1327434 80.4712042,94.7522124 C78.1937173,98.1769912 75.1570681,101.221239 72.5,104.265487 Z M50.4842932,86.7610619 C46.3089005,86 42.1335079,85.2389381 38.3376963,84.4778761 C39.4764398,80.6725664 40.6151832,76.8672566 42.1335079,72.6814159 C43.2722513,74.9646018 44.7905759,77.2477876 45.9293194,79.9115044 C47.8272251,82.1946903 49.3455497,84.4778761 50.4842932,86.7610619 Z M72.5,25.1150442 C75.1570681,27.7787611 77.8141361,31.2035398 80.8507853,34.6283186 C78.1937173,34.6283186 75.5366492,34.2477876 72.8795812,34.2477876 C70.2225131,34.2477876 67.1858639,34.2477876 64.5287958,34.6283186 C66.8062827,31.2035398 69.8429319,28.159292 72.5,25.1150442 Z M50.4842932,42.619469 C48.9659686,44.9026549 47.447644,47.1858407 46.3089005,49.4690265 C44.7905759,51.7522124 43.6518325,54.0353982 42.513089,56.699115 C40.9947644,52.8938053 39.4764398,48.7079646 38.3376963,44.9026549 C42.1335079,44.1415929 46.3089005,43.380531 50.4842932,42.619469 Z M23.9136126,79.5309735 C13.2853403,74.9646018 6.83246073,69.2566372 6.83246073,64.6902655 C6.83246073,60.1238938 13.6649215,54.0353982 23.9136126,49.8495575 C26.5706806,48.7079646 29.2277487,47.9469027 32.2643979,46.8053097 C33.7827225,52.5132743 36.0602094,58.6017699 38.7172775,64.6902655 C36.0602094,70.7787611 33.7827225,76.8672566 32.2643979,82.5752212 C29.2277487,81.8141593 26.5706806,80.6725664 23.9136126,79.5309735 Z M39.8560209,121.769912 C35.6806283,119.486726 34.1623037,110.734513 35.3010471,99.3185841 C35.6806283,96.6548673 36.0602094,93.6106195 36.8193717,90.5663717 C42.513089,92.0884956 48.9659686,93.2300885 55.4188482,93.6106195 C59.2146597,98.9380531 63.3900524,103.884956 67.565445,108.451327 C58.0759162,117.584071 48.9659686,122.150442 42.8926702,122.150442 C41.7539267,122.530973 40.6151832,122.530973 39.8560209,121.769912 Z M109.698953,99.3185841 C111.217277,110.734513 109.319372,119.486726 105.52356,121.769912 C104.764398,122.150442 103.625654,122.530973 102.10733,122.530973 C96.0340314,122.530973 86.9240838,117.584071 77.434555,108.831858 C81.6099476,104.646018 85.7853403,99.699115 89.5811518,93.9911504 C96.4136126,93.2300885 102.486911,92.0884956 108.180628,90.5663717 C108.939791,93.6106195 109.319372,96.6548673 109.698953,99.3185841 Z M121.086387,79.5309735 C118.429319,80.6725664 115.772251,81.4336283 112.735602,82.5752212 C111.217277,76.8672566 108.939791,70.7787611 106.282723,64.6902655 C108.939791,58.6017699 111.217277,52.5132743 112.735602,46.8053097 C115.772251,47.5663717 118.429319,48.7079646 121.086387,49.8495575 C131.71466,54.4159292 138.167539,60.1238938 138.167539,64.6902655 C138.167539,69.2566372 131.335079,75.3451327 121.086387,79.5309735 Z" id="Shape" fill-rule="nonzero"></path><circle id="Oval" cx="71.5" cy="64.5" r="13.5"></circle></g></g></svg> 