<?xml version="1.0" encoding="utf-8"?>
<!-- Generator: Adobe Illustrator 22.1.0, SVG Export Plug-In . SVG Version: 6.00 Build 0)  -->
<svg version="1.1" id="Layer_1" xmlns="http://www.w3.org/2000/svg" xmlns:xlink="http://www.w3.org/1999/xlink" x="0px" y="0px"
	 viewBox="0 0 500 300" style="enable-background:new 0 0 500 300;" xml:space="preserve">
<g>
	<path style="fill:#7AAF4E;" d="M355.7,150.1c0,58.3-47.5,105.7-105.8,105.7c-58.3-0.1-105.6-47.5-105.6-105.8
		c0-58.3,47.5-105.7,105.8-105.7C308.4,44.4,355.8,91.8,355.7,150.1z M349.7,150c0-54.9-44.7-99.6-99.6-99.7
		c-54.9-0.1-99.7,44.7-99.8,99.7c-0.1,54.9,44.7,99.7,99.7,99.8C304.9,249.7,349.7,204.9,349.7,150z"/>
	<path style="fill:#FDFCFC;" d="M349.7,150c0,54.9-44.8,99.7-99.7,99.7c-55,0-99.7-44.9-99.7-99.8c0.1-55,44.9-99.8,99.8-99.7
		C305,50.4,349.7,95.1,349.7,150z M171.4,120.7c-1.1-0.6-2.2-0.7-3.3-0.4c-4.9,1.3-7.5,9.3-4.1,13.1c0.6,0.7,1.7,1,2.6,1.5
		c1.4,0.6,2.7,0,3.8-0.7c3.3-2.1,5-7.2,3.4-10.8C173.3,122.4,172.2,121.6,171.4,120.7z M331.2,119.9c-0.1,0-0.2,0-0.2,0.1
		c-2,0.1-3.1,1.4-3.8,3c-1.6,3.3-0.6,8,2.1,10.5c2.8,2.6,6.5,1.8,8.1-1.6c1.6-3.4,0.5-8.2-2.3-10.6
		C334,120.3,332.8,119.7,331.2,119.9z M250,221.5c39.2,0,71.2-31.9,71.2-71.1c0-39.4-31.8-71.3-71.2-71.4
		c-39.3,0-71.3,31.9-71.3,71.1C178.8,189.6,210.7,221.5,250,221.5z M288.8,83.6c4.8,3.4,9.4,6.6,14.1,9.9c-0.5-1.2-0.3-2,0.8-2.4
		c1.9-0.6,3.8-1,5.8-1.5c0.2-0.1,0.7,0.2,0.8,0.4c0.1,0.3,0.1,0.8-0.1,0.9c-1.8,1.5-2.7,4.3-5.8,4.1c2.1,2,4.1,3.9,6,5.6
		c-0.6-1.5,0.9-2.3,1.9-3.3c1.9-1.8,3.9-3.6,5.8-5.3c1.3-1.1,2.3-3,4.6-1.7c-0.2-0.5-0.4-0.8-0.6-1c-1-1.1-1.9-2.2-3-3.1
		c-2.9-2.6-5.8-5.2-8.7-7.7c-1-0.8-2.2-1.2-3.5-0.5c-1.3,0.8-1.2,2.1-1.1,3.3c0.1,0.7,0.4,1.3,0.6,1.9c0.1,0.4,0.3,0.8,0.5,1.3
		c-3.4,0.2-6.1,1.5-8.8,3.1c-0.3,0.2-0.6,0.3-0.9,0.3c-1.2,0.1-1.8-0.7-1.4-1.8c0.2-0.6,0.5-1.1,0.9-1.6c1.8-2.8,3.7-5.5,5.5-8.3
		c0.7-1.1,1.5-2,3-1.5c0,0,0.1-0.1,0.3-0.3c-2.7-1.9-5.5-3.6-8.5-5.1c1.6,1.9,0.2,3.2-0.6,4.7c-1.8-1-3.5-1.9-5.2-2.8
		c0.5-0.9,0.9-1.8,1.6-2.4c0.5-0.4,1.3-0.4,2.3-0.7c-3.1-1.6-6-3-9.2-3.9c1.2,1.1,0.9,2.3,0.4,3.5c-1.2,2.9-2.5,5.9-3.7,8.8
		c-0.5,1.2-0.9,2.6-2.6,2.7c0,0-0.1,0.1-0.1,0.3c2.4,1.1,4.9,2.2,7.3,3.3c-0.1-0.9-0.5-1.8-0.2-2.4c1.1-2.6,2.4-5,3.7-7.7
		c1.8,0.9,3.4,1.8,5.1,2.7c-1.2,2-2.3,3.9-3.4,5.8C291.4,82.6,290.8,83.9,288.8,83.6z M257.7,248c0.2-1.4-0.6-2.2-1.4-2.9
		c-1.3-1.2-2-2.6-2.1-4.4c-0.1-3.6-0.1-7.2-0.2-10.8c0-0.4,0.1-0.9,0.2-1.3c0.1-0.8,0.6-1.1,1.4-1c4.8,0.6,7.7,5.8,5.7,10.2
		c-0.7,1.6-1.8,1.8-3.1,0.7c-0.4-0.3-1-0.3-1.5-0.4c-0.1,0.6-0.5,1.2-0.3,1.7c0.4,1.9,2.9,2.8,4.8,1.8c1.5-0.8,2.3-2.1,2.9-3.5
		c0.8-1.9,0.9-4,0.7-6c-0.2-1.7-0.7-3.4-1.5-5c-1-2-2.9-2.9-5.2-2.5c-3.4,0.5-6.7,0.3-10-0.6c-1.6-0.5-3.4-0.5-5.1-0.8
		c-2.1-0.3-4.2,1.3-3.8,4c0.5,3.3,1.1,6.5,1.8,9.8c0.2,0.9,0.6,1.7,1.1,2.5c1.5,2.2,4.9,2.2,6.4,0.2c0.6-0.9,0.5-2.1-0.3-2.7
		c-1-0.7-1.3,0.3-1.8,0.8c-0.1,0.1-0.1,0.2-0.2,0.3c-0.6,0.7-1.2,0.6-1.8,0.1c-0.4-0.4-0.8-0.9-1-1.4c-0.8-1.8-1-3.8-0.7-5.8
		c0.3-1.9,1.2-3.5,3-4.5c1.3-0.7,2.1-0.6,2.7,0.7c0.6,1.3,1.3,2.7,1.5,4.1c0.4,3.2,0.6,6.4,0.7,9.5c0.1,2.3-0.4,4.5-1.6,6.6
		c-0.2,0.4-0.3,0.8-0.4,1.3C251.7,248.4,254.7,248.2,257.7,248z M234.8,73c0.2-0.1,0.4-0.1,0.6-0.2c2.4-0.6,4.6-1.5,6.4-3.3
		c2.3-2.3,1.9-5.7-0.9-7.3c-0.9-0.5-2-1-3.1-1.1c-1.7-0.2-3.4-0.2-5.1-0.3c-0.6-1.3,1-1.4,1.5-2.2c-1.8-0.2-9.2,1.5-9.9,2.3
		c0.9,0.2,2.1,0,2.3,1.4c-0.6,0.2-1.2,0.4-1.8,0.6c-2.1,0.8-4,2-5.3,3.9c-1.8,2.7-1,5.7,2,6.9c1.4,0.5,3.1,0.6,4.7,0.8
		c1.1,0.1,2.3-0.2,3.4-0.3c0.1,0.1,0.2,0.2,0.3,0.3c-0.4,0.7-0.8,1.4-1.3,2.2c2.8-0.6,5.5-1.2,8.2-1.8c0-0.1,0.1-0.3,0.1-0.4
		C235.7,74.5,234.9,74.2,234.8,73z M269.6,67.3c0.2-1.1,0.4-2,0.7-3c0.5-1.6,0.2-3.7,2.8-4c0-0.2-0.1-0.3-0.1-0.5
		c-3.1-0.6-6.2-1.2-9.3-1.8c-0.1,0.1-0.2,0.3-0.3,0.4c1.8,0.8,1.4,2.2,1.2,3.6c-0.1,0.8-0.2,1.6-0.4,2.4c-0.5,2.7-0.9,5.4-1.4,8.1
		c-0.1,0.8-0.4,1.5-1.4,1.6c-0.1,0-0.2,0.3-0.4,0.5c2.7,0.5,5.3,1,8,1.5c-1.1-2.1-1.1-2.1-0.7-3.9c0.1-0.7,0.3-1.3,0.5-2
		c0.1-0.3,0.2-0.6,0.4-0.7c2-1.1,4-2.1,6.1-3.2c-0.5,2.7-1.3,5.2-2,7.7c-0.3,1-0.7,2.1-2.1,2.1c-0.1,0-0.1,0.3-0.2,0.4
		c2.6,0.8,5.1,1.6,7.6,2.5c-1.3-1.7-0.2-3.2,0.3-4.7c0.9-2.5,1.8-5,2.7-7.4c0.6-1.5,0.7-3.3,3.1-3.3c-3.1-1.4-6.1-2.4-9.3-3
		c0.1,0.4,0.4,0.5,0.6,0.7c0.8,0.7,0.8,2.3-0.1,2.8C273.8,65.3,271.8,66.2,269.6,67.3z M179.8,179c0-0.4,0-0.8-0.1-1.2
		c-0.4-2.7-1-5.5-1.3-8.2c-0.4-3.4-2.2-5.9-5.6-6.4c-6.3-1-11.6,1-15.6,5.8c-4.2,5.1-2.4,12.3,3.6,15c0.7,0.3,1.5,0.5,2.2,0.4
		c0.4-0.1,1-0.6,1.2-1.1c0.1-0.3-0.3-0.9-0.7-1.1c-4-2.4-4.9-8.1-1.7-11.5c2.8-3,6.5-4.1,10.6-3.8c1.1,0.1,2.2,0.3,2.9,1.4
		c1.6,2.3,1.9,4.9,0.9,7.5c-0.5,1.2-1.8,1.8-2.9,1.1c-0.3-0.2-0.4-0.7-0.6-1.2c-0.1-0.5,0-1.1-0.3-1.5c-0.9-1.4-2.3-2.1-3.9-2.3
		c-0.9-0.2-1.4,0.4-1,1.3C169.7,178.4,174.6,180.8,179.8,179z M189.8,83.4c0.5-2.6,1.3-4.9,2.9-6.8c0.2-0.2,0.3-0.6,0.5-0.9
		c-0.1-0.1-0.2-0.2-0.4-0.2c-2.4,1.9-4.7,3.8-7.1,5.7c0.1,0.1,0.1,0.2,0.2,0.4c0.3,0,0.5-0.1,0.8-0.1c1-0.3,1.5,0.1,1.4,1.1
		c-0.3,1.9-0.6,3.8-1,5.7c-0.1,0-0.2,0.1-0.3,0.1c-1-1.7-3.8-2.4-2.5-5.4c-0.1-0.1-0.3-0.1-0.4-0.2c-2.4,2.4-4.7,4.8-7.1,7.2
		c2.6,0,2.6,0,4.6,1.8c2.2,2,4.4,4,6.6,6c0.9,0.8,1.8,1.6,1.2,3.1c0,0.1,0.1,0.2,0.2,0.3c2.1-2.1,4-4.2,6-6.2c0-0.1-0.1-0.3-0.1-0.4
		c-1.8,1-2.7-0.2-3.7-1.2c-0.8-0.8-1.6-1.7-2.4-2.5c-0.7-0.6-0.9-1.3-0.4-2.1c2.8,0.1,5.4,0.9,7.6,2.5c0.6,0.4,1,0.9,0.4,1.7
		c-0.1,0.1,0,0.3,0,0.7c2.4-1.9,4.7-3.7,6.9-5.4c-1.1-0.4-2.1-0.5-2.9-1C197.5,85.1,194,83.4,189.8,83.4z M206.8,85.2
		c3.4-0.2,6.4-1.5,8.8-3.9c2.3-2.2,3.2-4.9,2.6-8c-0.7-3.7-3.6-7.4-8.6-6.9c-3.9,0.4-7.1,2-9.6,5.1c-2.1,2.6-2.8,5.5-1.3,8.6
		C200.4,83.2,203.1,85,206.8,85.2z M260,57.6c-1.6-0.1-3-0.2-4.3-0.3c-1.4-0.1-2.7-0.1-4.1-0.1c-1.4,0-2.7-0.1-4.1,0
		c-1.3,0.1-2.6-0.3-4,0.4c1.7,0.8,1.9,1.1,2,3c0.1,3.1,0.3,6.2,0.4,9.3c0.1,1.4,0.4,3-1.2,4c2.4,0.1,4.7,0.1,7,0.1
		c2.3,0.1,4.6,0.2,7,0.4c0.6-1.9,2-3.8,2.4-6c-0.5,0.3-0.7,0.6-1,0.9c-1.8,2.1-3.9,3.3-6.7,3c-1-0.1-1.9-0.4-2-1.5
		c-0.1-2.1,0-4.3,0-6.6c1.2,0.2,2.5,0.1,3.4,0.6c1,0.5,1.6,1.6,2.6,2.6c-0.3-2.4-0.5-4.6-0.8-6.7c-0.1-0.1-0.2-0.1-0.3-0.2
		c-0.8,2.9-3,1.9-4.9,2.1c0-0.9,0-1.6,0-2.3c0-0.9,0.6-1.4,1.4-1.5c3.2-0.4,6.2,1.3,7,3.7c0.1,0.2,0.3,0.4,0.5,0.6
		c0.1,0,0.2-0.1,0.3-0.1C260.5,61.3,260.3,59.4,260,57.6z M208.6,215.3c0-2.7-0.7-4.2-2.2-5.6c-0.9-0.8-1.9-1-2.9-0.7
		c-0.6,0.2-1.2,0.7-1.7,1.1c0.3,0.5,0.6,1.1,1,1.5c1.5,1.1,2.4,2.5,2.8,4.3c1,4.4-2.2,10.8-6.3,12.6c-0.4,0.2-0.8,0.3-1.1,0.4
		c-0.9,0.4-1.6,0-2.2-0.7c-1.5-1.8-1.2-4.2,0.6-5.6c1.8-1.5,3.8-1.7,6-0.8c0.6,0.2,1.4,0.5,1-0.6c-0.9-2.9-2.4-4.3-5.6-3
		c-0.9,0.4-1.8,1-2.4,1.7c-1.3,1.6-2.5,3.3-3.7,5c-0.7,1-0.5,2,0.2,2.9c1,1.1,2,2.2,3.1,3.1c2.9,2.3,5.2,1.5,7.1-1.1
		c1.2-1.7,2.4-3.4,3.4-5.2C207.5,221.7,208.6,218.7,208.6,215.3z M195.3,213.1c0-0.5,0-0.8,0-1c-0.2-1.2-0.1-2.6-0.6-3.6
		c-1.6-3.1-4.9-4-8-2.5c-3.3,1.7-5.3,4.5-6.2,8.1c-0.4,1.9-0.3,3.6,0.8,5.3c1.6,2.6,4,3.1,6.9,2.5
		C193.3,221,195.6,218.1,195.3,213.1C195.3,213,195.3,213,195.3,213.1z M282.6,242.5c-1.5-4.6-2.8-8.9-4.3-13.1
		c-1.2-3.4-0.8-3-4.1-2.6c-5.1,0.5-5.5,0.7-6.6,5.5c-0.1,0.5-0.2,0.9-0.2,1.4c-0.5,3.8-0.9,7.6-1.4,11.4c0,0.3,0.5,0.8,0.7,0.8
		c1.1-0.1,2.2-0.2,3.2-0.5c0.4-0.1,0.9-0.6,1-1c0.1-0.3-0.5-0.8-0.9-1c-0.9-0.4-1.4-1.2-1.4-2.1c0-1.3,0.2-2.5,0.4-3.8
		c0.1-0.3,0.4-0.8,0.7-0.8c2.1-0.2,4.2-0.3,6.3-0.3c0.4,0,1.1,0.6,1.2,1c0.3,1.1,0.3,2.4,0.4,3.5c0.1,1.2,0.5,1.9,1.8,2
		C280.4,242.9,281.3,242.6,282.6,242.5z M310,214.4c0-0.4,0.1-0.6,0.1-0.8c0-1.7-0.1-3.4-1.8-4.2c-1.8-0.9-3.5-0.5-5,0.8
		c-1.1,1-2.3,1.9-3.5,2.9c-1.1,0.9-1.1,1,0,1.9c1.4,1.2,2.8,2.3,3.9,3.7c1.9,2.2,3.7,4.6,5.4,7c0.5,0.6,0.9,0.8,1.5,0.4
		c1.9-1.2,3.8-2.4,5.7-3.8c1.7-1.2,1.8-3.2,1.3-4.9c-0.4-1.7-1.9-2.6-3.7-2.8C312.6,214.3,311.3,214.4,310,214.4z M177.3,196.7
		c-3.1,0.1-5.8,0.9-7.5,3.7c-0.7,1.2-0.8,2.4-0.1,3.5c0.3,0.5,0.9,0.8,1.3,1.2c0.4-0.4,0.9-0.8,1-1.3c1-3.2,4.6-5.4,7.8-4.6
		c0.9,0.2,2.1,0.8,2.5,1.5c0.5,1-0.4,1.9-1.2,2.6c-1.4,1.2-2.9,2.3-4.3,3.4c-1.4,1-2.1,2.4-1.9,4.1c0.1,0.8,0.7,1.5,1,2.2
		c0.6-0.5,1.5-0.9,1.7-1.6c0.6-1.9,2-2.9,3.4-4c1-0.7,2.1-1.4,3-2.2c1.2-1.1,2.4-2.3,3.6-3.5c0.6-0.7,0.6-1.3-0.3-1.9
		C184.3,198,181,196.8,177.3,196.7z M158.9,187.5c1,1,1.7,1.9,2.6,2.7c1.3,1.1,2.2,0.8,2.9-0.7c0.2-0.5,0.4-1,0.8-1.3
		c0.7-0.9,2-1.3,2.7-0.6c1.4,1.2,2.6,2.5,3.9,3.8c0.6,0.6,0.4,1.2-0.3,1.5c-0.9,0.4-1.7,0.8-2.6,1.1c-1.4,0.5-2.8,0.9-4.5,1.4
		c0.8,1.2,1.5,2.2,2.2,3.2c0.4,0.6,0.8,0.5,1.4,0.1c2.9-2.1,5.8-4.1,8.7-6.1c1.3-0.9,2.2-2.1,2.1-3.8c-0.2-2.2-1.2-4.1-2.9-5.6
		c-1.1-0.9-2.3-0.9-3.7-0.2c-1.8,1-3.8,1.9-5.8,2.6C164,186.4,161.6,186.8,158.9,187.5z M344.8,173.6c-1.6,0-3.1,0.1-4.6-0.1
		c-0.8-0.1-2-0.7-2.1-1.1c-0.1-1.1,1-1.6,2-1.6c1.3-0.1,2.5,0.1,3.8,0.1c0.4,0,1-0.1,1.1-0.3c0.4-0.6,0.7-1.3,0.8-1.9
		c0.2-1.7-0.4-2.1-2-1.5c-1.8,0.6-3.7,1.1-5.4,1.8c-1.3,0.5-2.1,0-2.9-0.9c-1-1.3-2.1-2.6-3.3-3.8c-1.6-1.6-2.8-1.2-3.4,0.9
		c-0.6,2.3-0.6,2.4,1.8,2.5c2,0.1,3.8,0.6,4.6,2.6c0.2,0.5,0.3,1.2,0.1,1.6c-0.1,0.3-1,0.3-1.5,0.2c-1-0.2-2-0.6-3-0.7
		c-0.8-0.1-1.8,0.1-2.5,0.4c-1,0.5-0.8,1.5-0.6,2.3c0.3,0.9,1,0.4,1.6,0.3c0.7-0.1,1.4-0.2,2-0.1c1.5,0.2,2.9,0.5,4.3,0.9
		c2.6,0.8,5.2,1.6,7.9,2.5C344,176.3,344.4,175.1,344.8,173.6z M326.2,211.3c1.2-0.6,1.8-1.5,1.7-2.8c-0.1-1.5-1-2.4-2-3.3
		c-2.7-2.3-6-3.8-9.4-4.8c-0.4-0.1-1-0.1-1.4,0.1c-2.2,0.7-4,2.2-5.5,3.9c-0.8,0.9-0.5,2.1,0.5,2.9c1.5,1.2,2.9,2.4,4.2,3.7
		c1.3,1.4,2.4,3.1,3.7,4.6c2,2.4,2.6,2.4,4.4-0.2c0,0,0-0.1,0.1-0.1c0.5-0.7,0.3-1-0.6-1.1c-0.7-0.1-1.6,0-2.2-0.4
		c-3.1-2.1-5.7-4.6-7.3-8c-0.1-0.3-0.2-0.7-0.1-1c0.7-1.8,3.3-2.9,4.9-2c0.7,0.4,1.1,1.1,1.7,1.7c-0.5,0.4-1,0.8-1.5,1.2
		c-0.4,0.3-1.1,0.6-1.3,1c-0.4,0.7-0.6,1.6-0.6,2.4c0,0.9,0.6,1.1,1.3,0.5c0.8-0.8,1.5-1.6,2.3-2.4c1.3-1.3,2.6-1.5,4-0.3
		c0.8,0.7,1.5,1.7,2.1,2.6C325.5,209.9,325.8,210.6,326.2,211.3z M323.9,188.2c0,0.1-0.1,0.2-0.1,0.3c-3.2,0-3.1,0-4.4,3
		c-0.6,1.3-1.3,2.7-2.1,3.8c-1.4,2-1.5,1.9,0.7,3.1c3.9,2,8.1,3.7,11.6,6.5c0.2,0.2,0.6,0.2,0.8,0.1c1.3-0.8,2.2-1.9,2.4-3.5
		c0.1-0.9-0.3-1.2-1.2-1c-4.2,0.9-7.4-0.9-10.1-3.8c-1.5-1.6-1.3-2.8,0.4-4.2c0.6-0.5,1.2-1,1.9-1.4c1.2-0.7,1.9-0.4,3.1,1
		c0.9,1.1,0.4,1.8-0.4,2.5c-0.4,0.4-0.8,0.8-1.2,1.2c-0.7,0.7-0.8,1.4-0.1,2.1c0.7,0.8,1.4,0.3,2-0.2c1.3-1.3,2.2-2.8,2.5-4.7
		c0.2-1.5-0.3-2.8-1.6-3.4C326.7,188.8,325.3,188.6,323.9,188.2z M323.5,183.3c0.2,1.4,0.6,2,1.7,2.6c2.3,1.3,4.7,2.7,6.9,4.2
		c1.2,0.8,2.3,1.8,3.6,2.6c0.4,0.3,1.3,0.3,1.7,0c0.8-0.4,1.2-2.1,0.9-2.8c-0.5-0.9-1.3-0.7-2.1-0.6c-1.6,0.1-2.9-0.8-3.8-1.9
		c-0.4-0.6-0.2-1.7-0.2-2.6c0.1-0.7,0.3-1.5,0.6-2.2c0.7-2,1.2-2.3,3.2-1.5c1.4,0.6,2.7,1.5,4.1,2.2c1,0.5,1.6,0.2,1.7-0.9
		c0.1-1.5-0.6-2.5-2.2-2.8c-3.9-0.9-7.9-1.7-11.8-2.6c-1.1-0.2-2.2,0-2.6,1.1C324.5,179.8,324.1,181.6,323.5,183.3z M218.2,223.7
		c-0.3,0.5-0.4,0.8-0.6,1.1c-1.2,1.9-2.6,3.7-5,4.1c-0.5,0.1-1,0-1.5,0c0.1-0.5,0.1-1,0.3-1.4c0.5-1.2,1.2-2.3,1.7-3.4
		c0.3-0.8,0.5-1.8,0.5-2.7c0.1-0.9-0.5-1.4-1.4-1.6c-0.9-0.2-1.2,0.4-1.4,1.1c-0.6,1.7-1.1,3.4-1.8,5.1c-1.4,3.2-2.9,6.3-4.5,9.5
		c0.9,0.4,1.9,1,3,1.6c1-2.1,0.4-4.9,2.8-6.2c1.3,1.6,1.5,3.1,0.4,5.5c-0.6,1.3-0.1,1.9,0.9,2.4c0.3,0.2,0.6,0.4,1,0.5
		c1.5,0.5,2.2,0,1.8-1.6c-0.3-1.4-0.9-2.8-1.3-4.2c-0.6-2.1,0-3.3,2-4.1c1.3-0.5,2.6-0.9,3.8-1.4c2-0.8,2.1-2,0.4-3.3
		C219,224.2,218.6,224,218.2,223.7z M307,227.9c0.1-2.1-1.2-3.3-2.2-4.7c-1.5-2-3.9-2.3-5.7-0.6c-0.5,0.5-0.6,1.4-0.9,2.1
		c0.7,0,1.5,0.1,2.2-0.1c1.2-0.4,2.7,0,3.4,1.1c0.6,1,0.4,2.1-0.6,3c-1.4,1.3-2.2,1.3-3.4,0.2c-2.5-2.4-4.3-5.3-5.5-8.6
		c-0.2-0.5-0.2-1.2-0.2-1.7c0.1-0.8-0.3-1.1-0.9-0.8c-0.9,0.5-1.8,1.1-2.5,1.9c-0.3,0.3-0.3,1.4,0.1,1.7c2.7,2.6,4.3,5.8,6.4,8.8
		c0.6,0.9,1.3,1.8,2.1,2.6c0.6,0.6,1.5,1,2.4,0.4c1.4-0.9,2.7-1.8,4-2.7C306.6,229.7,307.1,228.9,307,227.9z M282.3,232.6
		c0,0.5,0.1,1.3,0.2,2.2c0.4,2.6,2.4,4.8,4.6,5.1c0.4,0.1,0.8-0.2,1.2-0.3c-0.1-0.4-0.2-1-0.4-1.2c-2.7-2.5-3.2-5.7-2.8-9.1
		c0.1-0.7,1-1.6,1.7-1.9c0.5-0.2,1.5,0.5,1.9,1c1.2,1.8,2.3,3.6,3.3,5.5c0.8,1.5,2.8,2.3,4.3,1.7c0.6-0.3,0.8-0.7,0.4-1.2
		c-0.5-0.7-1-1.3-1.7-1.9c-2.4-1.9-4.1-4.3-5.4-6.9c-0.6-1.1-1.2-2.3-1.8-3.4c-0.3-0.4-0.9-1.1-1.2-1c-0.6,0.1-1.3,0.6-1.6,1.1
		C283.3,225.5,282.4,228.8,282.3,232.6z M217.7,242.1c1.2,0.2,2.2,0.3,3.2,0.4c0.6,0.1,0.9-0.2,0.9-0.9c0-1.4,0.2-2.7,0.2-4.1
		c0.1-3,0.4-5.8,3.2-7.7c0.4-0.3,0.6-1.2,0.5-1.6c-0.2-0.7-0.8-1.4-1.3-2c-0.8-1-1.9-0.9-2.5,0.3c-0.4,0.8-0.7,1.6-0.9,2.5
		C219.9,233.2,219.9,237.7,217.7,242.1z M280,57.3c-3.6,0.9-6.6,0-9.4-2.3c0.2,2.4,1.7,3.8,4.2,4.3C277.2,59.8,279,59.3,280,57.3z"
		/>
	<path style="fill:#684F4B;" d="M250,221.5c-39.3,0-71.2-31.9-71.2-71.3c0-39.3,32-71.2,71.3-71.1c39.4,0,71.2,32,71.2,71.4
		C321.2,189.6,289.2,221.5,250,221.5z M250,217.6c36.9,0.1,67.2-30,67.4-67c0.1-37.1-29.8-67.5-67.1-67.6
		c-37.5-0.1-67.5,30.3-67.5,67.2C182.6,187.5,213,217.7,250,217.6z"/>
	<path style="fill:#D3A46F;" d="M288.8,83.6c2,0.3,2.6-1,3.3-2.2c1.1-1.9,2.2-3.8,3.4-5.8c-1.7-0.9-3.3-1.8-5.1-2.7
		c-1.3,2.6-2.6,5.1-3.7,7.7c-0.3,0.6,0.1,1.5,0.2,2.4c-2.4-1.1-4.8-2.2-7.3-3.3c0.1-0.2,0.1-0.3,0.1-0.3c1.7-0.1,2.1-1.5,2.6-2.7
		c1.2-2.9,2.5-5.9,3.7-8.8c0.5-1.2,0.9-2.3-0.4-3.5c3.2,0.9,6.1,2.4,9.2,3.9c-1,0.3-1.9,0.3-2.3,0.7c-0.7,0.6-1,1.5-1.6,2.4
		c1.8,1,3.4,1.9,5.2,2.8c0.8-1.5,2.2-2.8,0.6-4.7c3,1.5,5.8,3.2,8.5,5.1c-0.2,0.2-0.2,0.3-0.3,0.3c-1.5-0.5-2.3,0.4-3,1.5
		c-1.8,2.8-3.7,5.5-5.5,8.3c-0.3,0.5-0.7,1-0.9,1.6c-0.4,1.1,0.2,1.9,1.4,1.8c0.3,0,0.6-0.1,0.9-0.3c2.7-1.6,5.5-3,8.8-3.1
		c-0.2-0.5-0.4-0.9-0.5-1.3c-0.2-0.6-0.5-1.3-0.6-1.9c-0.2-1.3-0.2-2.6,1.1-3.3c1.2-0.7,2.5-0.3,3.5,0.5c2.9,2.5,5.8,5.1,8.7,7.7
		c1.1,1,2,2.1,3,3.1c0.2,0.3,0.5,0.6,0.6,1c-2.3-1.3-3.3,0.6-4.6,1.7c-2,1.7-3.9,3.5-5.8,5.3c-1.1,1-2.5,1.8-1.9,3.3
		c-1.8-1.7-3.9-3.6-6-5.6c3.2,0.3,4-2.6,5.8-4.1c0.2-0.2,0.2-0.7,0.1-0.9c-0.1-0.2-0.5-0.4-0.8-0.4c-1.9,0.5-3.9,0.9-5.8,1.5
		c-1.1,0.3-1.3,1.2-0.8,2.4C298.2,90.3,293.6,87.1,288.8,83.6z M311.6,89.1c1.2-1.1,2.2-2,3.1-3c0.3-0.3,0.3-1.1,0.1-1.6
		c-0.2-0.5-0.7-0.9-1.2-1.3c-0.7-0.5-1.5-1-2.4-0.4c-0.9,0.6-1.3,1.5-1,2.5C310.5,86.7,311.2,87.9,311.6,89.1z"/>
	<path style="fill:#694F4C;" d="M257.7,248c-3,0.2-6,0.4-9.1,0.7c0.1-0.4,0.2-0.9,0.4-1.3c1.2-2,1.7-4.2,1.6-6.6
		c-0.2-3.2-0.3-6.4-0.7-9.5c-0.2-1.4-0.8-2.8-1.5-4.1c-0.6-1.3-1.4-1.4-2.7-0.7c-1.8,1-2.7,2.6-3,4.5c-0.3,2-0.1,3.9,0.7,5.8
		c0.2,0.5,0.6,1,1,1.4c0.6,0.6,1.2,0.6,1.8-0.1c0.1-0.1,0.1-0.2,0.2-0.3c0.5-0.4,0.8-1.5,1.8-0.8c0.8,0.6,0.9,1.8,0.3,2.7
		c-1.5,2.1-4.9,2-6.4-0.2c-0.5-0.7-0.9-1.6-1.1-2.5c-0.7-3.2-1.3-6.5-1.8-9.8c-0.4-2.7,1.6-4.3,3.8-4c1.7,0.2,3.4,0.3,5.1,0.8
		c3.3,0.9,6.6,1.1,10,0.6c2.4-0.4,4.2,0.5,5.2,2.5c0.8,1.5,1.3,3.3,1.5,5c0.3,2,0.2,4.1-0.7,6c-0.6,1.5-1.4,2.8-2.9,3.5
		c-1.9,1-4.4,0-4.8-1.8c-0.1-0.5,0.2-1.1,0.3-1.7c0.5,0.1,1.2,0.1,1.5,0.4c1.4,1.1,2.4,0.8,3.1-0.7c1.9-4.4-1-9.6-5.7-10.2
		c-0.8-0.1-1.3,0.2-1.4,1c-0.1,0.4-0.2,0.9-0.2,1.3c0,3.6,0.1,7.2,0.2,10.8c0,1.8,0.8,3.2,2.1,4.4
		C257.1,245.9,257.8,246.6,257.7,248z"/>
	<path style="fill:#D3A46F;" d="M234.8,73c0.1,1.2,0.9,1.5,2,1.6c0,0.1-0.1,0.3-0.1,0.4c-2.7,0.6-5.4,1.2-8.2,1.8
		c0.5-0.9,0.9-1.5,1.3-2.2c-0.1-0.1-0.2-0.2-0.3-0.3c-1.1,0.1-2.3,0.4-3.4,0.3c-1.6-0.1-3.2-0.2-4.7-0.8c-3-1.1-3.8-4.2-2-6.9
		c1.3-1.9,3.2-3.1,5.3-3.9c0.6-0.2,1.2-0.4,1.8-0.6c-0.2-1.4-1.4-1.2-2.3-1.4c0.7-0.8,8.2-2.5,9.9-2.3c-0.6,0.8-2.1,0.9-1.5,2.2
		c1.8,0.1,3.5,0,5.1,0.3c1.1,0.2,2.2,0.6,3.1,1.1c2.8,1.6,3.2,5,0.9,7.3c-1.8,1.8-4,2.7-6.4,3.3C235.2,72.9,235,72.9,234.8,73z
		 M229.2,72.5c-0.7-3-1.4-5.8-2.1-8.6c-2,0.4-3.1,1.7-3.1,3.5C224,70,226.1,72.1,229.2,72.5z M234.4,71.3c2.2-0.4,3.5-2.1,3.2-4
		c-0.4-2.7-2.4-4.7-4.8-4.5C233.4,65.7,233.9,68.5,234.4,71.3z"/>
	<path style="fill:#D3A46F;" d="M269.6,67.3c2.2-1,4.2-2,6.2-3c0.9-0.5,0.9-2.1,0.1-2.8c-0.2-0.2-0.4-0.4-0.6-0.7
		c3.2,0.6,6.3,1.6,9.3,3c-2.3,0-2.5,1.9-3.1,3.3c-0.9,2.5-1.8,4.9-2.7,7.4c-0.5,1.5-1.6,3-0.3,4.7c-2.5-0.8-5-1.6-7.6-2.5
		c0.1-0.2,0.1-0.4,0.2-0.4c1.4-0.1,1.7-1.1,2.1-2.1c0.7-2.5,1.5-5,2-7.7c-2,1.1-4.1,2.1-6.1,3.2c-0.2,0.1-0.3,0.4-0.4,0.7
		c-0.2,0.7-0.3,1.3-0.5,2c-0.4,1.8-0.4,1.8,0.7,3.9c-2.7-0.5-5.3-1-8-1.5c0.2-0.3,0.3-0.5,0.4-0.5c0.9-0.1,1.2-0.8,1.4-1.6
		c0.5-2.7,0.9-5.4,1.4-8.1c0.1-0.8,0.3-1.6,0.4-2.4c0.2-1.4,0.6-2.8-1.2-3.6c0.1-0.1,0.2-0.3,0.3-0.4c3.1,0.6,6.2,1.2,9.3,1.8
		c0,0.2,0.1,0.3,0.1,0.5c-2.6,0.2-2.4,2.3-2.8,4C270,65.2,269.8,66.2,269.6,67.3z"/>
	<path style="fill:#69504D;" d="M179.8,179c-5.2,1.8-10.1-0.6-12.3-5.9c-0.4-0.9,0-1.5,1-1.3c1.6,0.3,3,1,3.9,2.3
		c0.3,0.4,0.1,1,0.3,1.5c0.1,0.4,0.3,1,0.6,1.2c1.1,0.6,2.5,0.1,2.9-1.1c1-2.6,0.7-5.2-0.9-7.5c-0.7-1-1.8-1.3-2.9-1.4
		c-4.1-0.3-7.7,0.7-10.6,3.8c-3.2,3.4-2.3,9.1,1.7,11.5c0.4,0.2,0.8,0.9,0.7,1.1c-0.2,0.5-0.7,1.1-1.2,1.1c-0.7,0.1-1.5-0.1-2.2-0.4
		c-6-2.8-7.8-10-3.6-15c4-4.8,9.3-6.8,15.6-5.8c3.4,0.6,5.2,3,5.6,6.4c0.3,2.8,0.9,5.5,1.3,8.2C179.8,178.2,179.8,178.6,179.8,179z"
		/>
	<path style="fill:#D3A46F;" d="M189.8,83.4c4.2,0.1,7.7,1.7,11.1,3.9c0.8,0.5,1.9,0.7,2.9,1c-2.2,1.8-4.5,3.5-6.9,5.4
		c0-0.4-0.1-0.6,0-0.7c0.6-0.8,0.2-1.3-0.4-1.7c-2.3-1.6-4.8-2.5-7.6-2.5c-0.4,0.8-0.2,1.5,0.4,2.1c0.8,0.8,1.6,1.7,2.4,2.5
		c1,1,1.9,2.2,3.7,1.2c0,0.1,0.1,0.3,0.1,0.4c-2,2-4,4.1-6,6.2c-0.1-0.1-0.2-0.3-0.2-0.3c0.6-1.4-0.3-2.2-1.2-3.1
		c-2.2-2-4.4-4-6.6-6c-2-1.8-2-1.8-4.6-1.8c2.4-2.4,4.7-4.8,7.1-7.2c0.1,0.1,0.3,0.1,0.4,0.2c-1.3,3,1.4,3.7,2.5,5.4
		c0.1,0,0.2-0.1,0.3-0.1c0.3-1.9,0.7-3.8,1-5.7c0.1-1-0.3-1.4-1.4-1.1c-0.2,0.1-0.5,0.1-0.8,0.1c-0.1-0.1-0.1-0.2-0.2-0.4
		c2.4-1.9,4.7-3.8,7.1-5.7c0.1,0.1,0.2,0.2,0.4,0.2c-0.2,0.3-0.3,0.6-0.5,0.9C191.1,78.5,190.3,80.8,189.8,83.4z"/>
	<path style="fill:#D2A36E;" d="M206.8,85.2c-3.7-0.2-6.4-2-8-5.2c-1.6-3.1-0.8-6,1.3-8.6c2.5-3,5.7-4.7,9.6-5.1
		c5-0.5,7.9,3.3,8.6,6.9c0.6,3.2-0.3,5.9-2.6,8C213.1,83.6,210.2,85,206.8,85.2z M213.4,77.9c-0.3-2.1-1.3-4.4-3.1-6.3
		c-0.7-0.7-1.7-1.4-2.7-1.7c-2.4-0.8-4.5,0.8-4.6,3.4c0,3,3.2,7.5,6.1,8.4C211.5,82.3,213.4,80.9,213.4,77.9z"/>
	<path style="fill:#D3A46F;" d="M260,57.6c0.2,1.8,0.5,3.7,0.7,5.6c-0.1,0-0.2,0.1-0.3,0.1c-0.2-0.2-0.4-0.4-0.5-0.6
		c-0.8-2.4-3.8-4.1-7-3.7c-0.9,0.1-1.4,0.6-1.4,1.5c0,0.7,0,1.4,0,2.3c1.9-0.1,4.1,0.8,4.9-2.1c0.1,0.1,0.2,0.1,0.3,0.2
		c0.2,2.1,0.5,4.3,0.8,6.7c-1-1.1-1.7-2.1-2.6-2.6c-1-0.5-2.2-0.4-3.4-0.6c0,2.4-0.1,4.5,0,6.6c0.1,1.1,1,1.4,2,1.5
		c2.8,0.2,4.9-1,6.7-3c0.3-0.3,0.6-0.7,1-0.9c-0.4,2.3-1.8,4.1-2.4,6c-2.4-0.1-4.7-0.3-7-0.4c-2.3-0.1-4.6,0-7-0.1
		c1.6-1.1,1.2-2.6,1.2-4c-0.1-3.1-0.3-6.2-0.4-9.3c-0.1-1.8-0.3-2.1-2-3c1.4-0.7,2.8-0.3,4-0.4c1.4-0.1,2.7,0,4.1,0
		c1.4,0,2.7,0,4.1,0.1C257.1,57.3,258.4,57.5,260,57.6z"/>
	<path style="fill:#69504D;" d="M208.6,215.3c0,3.4-1.1,6.4-2.8,9.3c-1,1.8-2.2,3.5-3.4,5.2c-1.9,2.6-4.2,3.5-7.1,1.1
		c-1.1-0.9-2.2-2-3.1-3.1c-0.7-0.8-0.9-1.9-0.2-2.9c1.2-1.7,2.3-3.4,3.7-5c0.6-0.7,1.5-1.4,2.4-1.7c3.2-1.3,4.8,0.1,5.6,3
		c0.3,1.1-0.5,0.9-1,0.6c-2.1-0.9-4.1-0.7-6,0.8c-1.8,1.5-2.1,3.8-0.6,5.6c0.6,0.7,1.3,1.1,2.2,0.7c0.4-0.1,0.8-0.2,1.1-0.4
		c4.1-1.9,7.2-8.2,6.3-12.6c-0.4-1.8-1.3-3.2-2.8-4.3c-0.5-0.3-0.7-1-1-1.5c0.6-0.4,1.1-1,1.7-1.1c1-0.3,2,0,2.9,0.7
		C208,211.1,208.6,212.7,208.6,215.3z"/>
	<path style="fill:#69504D;" d="M195.3,213.1C195.3,213,195.3,213,195.3,213.1c0.3,5-2,7.9-7.1,8.8c-2.8,0.5-5.2,0.1-6.9-2.5
		c-1-1.6-1.2-3.4-0.8-5.3c0.9-3.6,2.9-6.4,6.2-8.1c3.1-1.6,6.4-0.6,8,2.5c0.5,1,0.4,2.4,0.6,3.6
		C195.3,212.4,195.3,212.6,195.3,213.1z M192.5,211.7c-0.1-0.5-0.1-1.1-0.3-1.7c-0.6-2.1-2.4-2.8-4-1.4c-2.3,2-4.2,4.4-5.2,7.3
		c-0.2,0.5-0.1,1.5,0.2,1.9c1.5,1.7,5.2,1.7,6.9,0.1C191.8,216.2,192.4,214.1,192.5,211.7z"/>
	<path style="fill:#684F4C;" d="M331.2,119.9c1.5-0.3,2.7,0.4,3.8,1.3c2.9,2.4,3.9,7.2,2.3,10.6c-1.6,3.4-5.3,4.2-8.1,1.6
		c-2.7-2.5-3.7-7.1-2.1-10.5c0.8-1.6,1.8-2.9,3.8-3c0.1,0.1,0.2,0.3,0.3,0.4c0.2,0.1,0.3,0.3,0.5,0.4c1.8,1.8,1.9,2.6,0.6,4.8
		c-0.5,0.9-1,1.7-1.4,2.6c-0.8,2,0.4,4.7,2.6,5.6c-0.4-0.5-0.6-0.9-0.9-1.3c-1.2-1.6-1.4-3.3-0.2-5.1c0.5-0.7,0.9-1.5,1.2-2.3
		c0.9-2,0.4-3.5-1.7-4.5c-0.2-0.1-0.3-0.2-0.5-0.3C331.4,120.1,331.3,120,331.2,119.9z"/>
	<path style="fill:#69504D;" d="M282.6,242.5c-1.3,0.1-2.2,0.3-3.1,0.3c-1.2-0.1-1.7-0.8-1.8-2c-0.1-1.2-0.1-2.4-0.4-3.5
		c-0.1-0.4-0.8-1-1.2-1c-2.1,0-4.2,0.2-6.3,0.3c-0.3,0-0.7,0.5-0.7,0.8c-0.2,1.3-0.4,2.5-0.4,3.8c0,0.9,0.4,1.7,1.4,2.1
		c0.4,0.2,0.9,0.7,0.9,1c-0.1,0.4-0.6,0.9-1,1c-1.1,0.3-2.2,0.5-3.2,0.5c-0.2,0-0.7-0.6-0.7-0.8c0.4-3.8,0.9-7.6,1.4-11.4
		c0.1-0.5,0.1-0.9,0.2-1.4c1.1-4.7,1.5-4.9,6.6-5.5c3.3-0.3,2.9-0.7,4.1,2.6C279.8,233.6,281.1,237.9,282.6,242.5z M272.3,234.4
		c1.2-0.1,2.8,0.2,3.6-1.3c0.7-1.3-0.1-2.5-0.7-3.7c-0.5-0.9-1.3-1.2-2.2-1c-1.7,0.2-2.5,1.1-3,3.3
		C269.3,234.4,269.3,234.4,272.3,234.4z"/>
	<path style="fill:#6A514E;" d="M310,214.4c1.3,0,2.6-0.1,3.8,0c1.8,0.2,3.2,1.1,3.7,2.8c0.5,1.8,0.4,3.7-1.3,4.9
		c-1.8,1.3-3.8,2.5-5.7,3.8c-0.6,0.4-1,0.2-1.5-0.4c-1.8-2.4-3.5-4.8-5.4-7c-1.2-1.4-2.6-2.5-3.9-3.7c-1.1-0.9-1.1-1,0-1.9
		c1.2-0.9,2.4-1.9,3.5-2.9c1.5-1.3,3.2-1.7,5-0.8c1.7,0.9,1.9,2.6,1.8,4.2C310.1,213.8,310,214,310,214.4z M306.6,217.9
		c1.2,2,2.4,3.7,4.3,4.8c1.5,0.8,3.4,0.4,4.1-1c0.7-1.4,0.1-3.4-1.5-4C311.3,216.7,309,216.9,306.6,217.9z M304.5,211.3
		c-0.2,0-0.5,0.1-0.8,0.1c-1.5,0.4-1.8,1.2-1,2.4c0.6,0.9,1.3,1.7,2.1,2.4c1,0.9,1.9,0.7,3-0.3c0.8-0.8,1-1.8,0.2-2.8
		C307.2,212,306,211.4,304.5,211.3z"/>
	<path style="fill:#69504D;" d="M177.3,196.7c3.7,0.1,7,1.2,10,3.3c0.8,0.6,0.9,1.2,0.3,1.9c-1.1,1.2-2.3,2.4-3.6,3.5
		c-0.9,0.8-2,1.5-3,2.2c-1.5,1-2.8,2.1-3.4,4c-0.2,0.7-1.1,1.1-1.7,1.6c-0.4-0.7-1-1.5-1-2.2c-0.2-1.7,0.5-3.1,1.9-4.1
		c1.5-1.1,2.9-2.2,4.3-3.4c0.8-0.7,1.8-1.6,1.2-2.6c-0.4-0.8-1.6-1.3-2.5-1.5c-3.2-0.8-6.8,1.4-7.8,4.6c-0.2,0.5-0.7,0.9-1,1.3
		c-0.4-0.4-1-0.7-1.3-1.2c-0.7-1.2-0.6-2.3,0.1-3.5C171.5,197.6,174.3,196.8,177.3,196.7z"/>
	<path style="fill:#6A514E;" d="M158.9,187.5c2.7-0.7,5.1-1.2,7.4-2c2-0.7,3.9-1.6,5.8-2.6c1.4-0.7,2.6-0.7,3.7,0.2
		c1.7,1.4,2.7,3.3,2.9,5.6c0.2,1.7-0.7,2.9-2.1,3.8c-2.9,2-5.9,4-8.7,6.1c-0.6,0.4-1,0.5-1.4-0.1c-0.7-1-1.4-2-2.2-3.2
		c1.7-0.5,3.2-0.9,4.5-1.4c0.9-0.3,1.8-0.7,2.6-1.1c0.7-0.3,0.9-0.9,0.3-1.5c-1.3-1.3-2.6-2.6-3.9-3.8c-0.7-0.6-2-0.3-2.7,0.6
		c-0.3,0.4-0.5,0.9-0.8,1.3c-0.7,1.5-1.6,1.8-2.9,0.7C160.6,189.5,159.8,188.6,158.9,187.5z M170.1,186.2c0.9,1.4,1.6,2.6,2.5,3.9
		c0.8,1.2,1.4,1.3,2.7,0.6c1.7-1.1,1.8-3.3,0-4.4C173.6,185.1,171.9,185.2,170.1,186.2z"/>
	<path style="fill:#69504D;" d="M344.8,173.6c-0.4,1.5-0.8,2.7-1.2,4.1c-2.7-0.8-5.3-1.7-7.9-2.5c-1.4-0.4-2.9-0.7-4.3-0.9
		c-0.6-0.1-1.4,0-2,0.1c-0.6,0.1-1.3,0.6-1.6-0.3c-0.3-0.8-0.4-1.9,0.6-2.3c0.7-0.4,1.7-0.5,2.5-0.4c1,0.1,2,0.5,3,0.7
		c0.5,0.1,1.4,0.1,1.5-0.2c0.2-0.4,0.1-1.2-0.1-1.6c-0.8-2-2.6-2.5-4.6-2.6c-2.4-0.1-2.4-0.2-1.8-2.5c0.6-2.2,1.8-2.5,3.4-0.9
		c1.2,1.2,2.3,2.5,3.3,3.8c0.8,1,1.5,1.5,2.9,0.9c1.8-0.7,3.6-1.2,5.4-1.8c1.6-0.6,2.2-0.2,2,1.5c-0.1,0.7-0.4,1.4-0.8,1.9
		c-0.2,0.2-0.7,0.3-1.1,0.3c-1.3,0-2.5-0.2-3.8-0.1c-1,0.1-2.1,0.5-2,1.6c0,0.5,1.3,1,2.1,1.1C341.7,173.7,343.2,173.6,344.8,173.6z
		"/>
	<path style="fill:#6A514E;" d="M326.2,211.3c-0.4-0.7-0.7-1.4-1.1-1.9c-0.7-0.9-1.3-1.8-2.1-2.6c-1.4-1.2-2.7-1-4,0.3
		c-0.8,0.8-1.5,1.7-2.3,2.4c-0.7,0.7-1.3,0.4-1.3-0.5c0-0.8,0.3-1.7,0.6-2.4c0.2-0.4,0.8-0.7,1.3-1c0.5-0.4,1-0.8,1.5-1.2
		c-0.6-0.6-1-1.3-1.7-1.7c-1.6-0.9-4.2,0.2-4.9,2c-0.1,0.3,0,0.7,0.1,1c1.6,3.4,4.3,6,7.3,8c0.6,0.4,1.4,0.3,2.2,0.4
		c0.8,0.1,1,0.4,0.6,1.1c0,0,0,0.1-0.1,0.1c-1.7,2.6-2.3,2.7-4.4,0.2c-1.3-1.5-2.4-3.1-3.7-4.6c-1.3-1.4-2.7-2.6-4.2-3.7
		c-1-0.8-1.3-1.9-0.5-2.9c1.5-1.7,3.3-3.2,5.5-3.9c0.4-0.1,1-0.2,1.4-0.1c3.4,1,6.7,2.5,9.4,4.8c1,0.9,1.9,1.8,2,3.3
		C327.9,209.8,327.4,210.6,326.2,211.3z"/>
	<path style="fill:#69504D;" d="M323.9,188.2c1.4,0.4,2.8,0.7,4.1,1.3c1.4,0.6,1.8,1.9,1.6,3.4c-0.3,1.8-1.2,3.4-2.5,4.7
		c-0.6,0.5-1.3,1-2,0.2c-0.7-0.7-0.5-1.4,0.1-2.1c0.4-0.4,0.8-0.8,1.2-1.2c0.8-0.7,1.3-1.4,0.4-2.5c-1.2-1.4-1.9-1.8-3.1-1
		c-0.7,0.4-1.3,0.9-1.9,1.4c-1.7,1.4-1.9,2.6-0.4,4.2c2.7,2.9,5.9,4.7,10.1,3.8c0.9-0.2,1.3,0.1,1.2,1c-0.2,1.6-1.1,2.7-2.4,3.5
		c-0.2,0.1-0.6,0.1-0.8-0.1c-3.5-2.8-7.7-4.4-11.6-6.5c-2.2-1.1-2.1-1.1-0.7-3.1c0.9-1.2,1.5-2.5,2.1-3.8c1.3-2.9,1.3-3,4.4-3
		C323.8,188.4,323.9,188.3,323.9,188.2z"/>
	<path style="fill:#6A514E;" d="M323.5,183.3c0.5-1.7,1-3.4,1.7-5.1c0.4-1.1,1.5-1.4,2.6-1.1c3.9,0.8,7.9,1.7,11.8,2.6
		c1.6,0.3,2.2,1.3,2.2,2.8c-0.1,1.1-0.7,1.5-1.7,0.9c-1.4-0.7-2.7-1.6-4.1-2.2c-1.9-0.8-2.5-0.5-3.2,1.5c-0.2,0.7-0.5,1.4-0.6,2.2
		c-0.1,0.9-0.3,2,0.2,2.6c0.9,1.1,2.2,2,3.8,1.9c0.8-0.1,1.6-0.3,2.1,0.6c0.4,0.7-0.1,2.3-0.9,2.8c-0.4,0.2-1.3,0.2-1.7,0
		c-1.2-0.8-2.3-1.8-3.6-2.6c-2.3-1.5-4.6-2.9-6.9-4.2C324.2,185.3,323.7,184.7,323.5,183.3z M329.6,185.6c0.5-1,1-1.9,1.4-2.7
		c0.2-0.5,0.5-1.1,0.6-1.7c0.1-0.4,0-1-0.2-1.2c-1.1-1-2.4-1.1-3.7-0.7c-1.2,0.3-1.7,1.4-1.9,2.6c-0.2,1.3,0.5,2.1,1.6,2.7
		C328,184.9,328.8,185.2,329.6,185.6z"/>
	<path style="fill:#6A514E;" d="M218.2,223.7c0.4,0.3,0.8,0.5,1.1,0.8c1.7,1.4,1.6,2.5-0.4,3.3c-1.2,0.5-2.6,0.9-3.8,1.4
		c-2,0.8-2.6,2-2,4.1c0.4,1.4,1,2.8,1.3,4.2c0.4,1.5-0.3,2.1-1.8,1.6c-0.3-0.1-0.6-0.3-1-0.5c-1-0.6-1.5-1.1-0.9-2.4
		c1.1-2.4,0.8-3.9-0.4-5.5c-2.4,1.4-1.8,4.1-2.8,6.2c-1.1-0.6-2.1-1.1-3-1.6c1.5-3.2,3.1-6.3,4.5-9.5c0.7-1.6,1.2-3.4,1.8-5.1
		c0.2-0.6,0.5-1.3,1.4-1.1c0.9,0.2,1.5,0.7,1.4,1.6c-0.1,0.9-0.2,1.8-0.5,2.7c-0.5,1.2-1.1,2.3-1.7,3.4c-0.2,0.4-0.2,0.9-0.3,1.4
		c0.5,0,1,0.1,1.5,0c2.4-0.5,3.8-2.2,5-4.1C217.8,224.4,217.9,224.1,218.2,223.7z"/>
	<path style="fill:#69504D;" d="M307,227.9c0.1,1-0.4,1.9-1.4,2.5c-1.4,0.9-2.7,1.8-4,2.7c-0.9,0.6-1.7,0.2-2.4-0.4
		c-0.8-0.8-1.5-1.7-2.1-2.6c-2-3-3.7-6.3-6.4-8.8c-0.3-0.3-0.3-1.4-0.1-1.7c0.7-0.8,1.6-1.4,2.5-1.9c0.6-0.3,0.9,0,0.9,0.8
		c0,0.6,0,1.2,0.2,1.7c1.2,3.3,3,6.1,5.5,8.6c1.2,1.2,2,1.1,3.4-0.2c1-0.9,1.2-2,0.6-3c-0.7-1.1-2.3-1.5-3.4-1.1
		c-0.7,0.2-1.5,0.1-2.2,0.1c0.3-0.7,0.4-1.7,0.9-2.1c1.8-1.7,4.2-1.4,5.7,0.6C305.8,224.5,307.1,225.8,307,227.9z"/>
	<path style="fill:#6A514E;" d="M282.3,232.6c0.1-3.8,0.9-7.1,2.6-10.1c0.3-0.5,1-1,1.6-1.1c0.3-0.1,0.9,0.6,1.2,1
		c0.7,1.1,1.2,2.2,1.8,3.4c1.4,2.6,3.1,5,5.4,6.9c0.6,0.5,1.2,1.2,1.7,1.9c0.4,0.5,0.2,0.9-0.4,1.2c-1.6,0.6-3.5-0.2-4.3-1.7
		c-1-1.9-2.1-3.8-3.3-5.5c-0.4-0.6-1.5-1.2-1.9-1c-0.7,0.3-1.6,1.2-1.7,1.9c-0.4,3.4,0.1,6.6,2.8,9.1c0.3,0.3,0.3,0.8,0.4,1.2
		c-0.4,0.1-0.8,0.3-1.2,0.3c-2.2-0.3-4.2-2.6-4.6-5.1C282.4,233.9,282.4,233.1,282.3,232.6z"/>
	<path style="fill:#69504D;" d="M166.6,134.9c-0.9-0.5-1.9-0.8-2.6-1.5c-3.4-3.8-0.9-11.8,4.1-13.1c1.2-0.3,2.3-0.2,3.3,0.4
		c0,0.1,0,0.3,0,0.4c0,0.3-0.1,0.7,0,1c0.5,1.8,0.2,2.6-1.4,3.6c-0.9,0.6-1.8,1.1-2.7,1.7c-1.3,0.8-1.9,2.1-1.8,3.6
		c0.1,1.3,0.7,2.5,1.1,3.7C166.6,134.7,166.6,134.8,166.6,134.9z"/>
	<path style="fill:#694F4C;" d="M166.6,134.9c0-0.1,0-0.2,0-0.3c0-0.4-0.1-0.7-0.1-1.1c-0.7-3.3-0.2-4.5,2.7-6.2
		c0.7-0.5,1.5-0.9,2.1-1.5c1-0.9,1.3-2,0.8-3.3c-0.2-0.5-0.5-1-0.7-1.5c0-0.1,0-0.3,0-0.4c0.8,0.9,1.9,1.7,2.3,2.7
		c1.6,3.6,0,8.7-3.4,10.8C169.3,134.9,168,135.5,166.6,134.9z"/>
	<path style="fill:#69504D;" d="M217.7,242.1c2.2-4.4,2.1-8.9,3.3-13.2c0.2-0.8,0.5-1.7,0.9-2.5c0.6-1.2,1.7-1.3,2.5-0.3
		c0.5,0.6,1,1.3,1.3,2c0.1,0.5-0.1,1.4-0.5,1.6c-2.8,1.9-3.1,4.7-3.2,7.7c0,1.4-0.2,2.7-0.2,4.1c0,0.7-0.3,1-0.9,0.9
		C219.9,242.4,218.9,242.3,217.7,242.1z"/>
	<path style="fill:#D3A571;" d="M280,57.3c-1,1.9-2.9,2.5-5.2,2c-2.5-0.5-4-2-4.2-4.3C273.4,57.3,276.4,58.3,280,57.3z"/>
	<path style="fill:#69504D;" d="M331.2,119.9c0.1,0.1,0.2,0.2,0.2,0.3c0,0-0.1,0-0.1,0l0,0.1c-0.1-0.1-0.2-0.3-0.3-0.4
		C331.1,120,331.2,119.9,331.2,119.9z"/>
	<path style="fill:#D2A36D;" d="M250,217.6c-36.9,0.1-67.3-30.1-67.3-67.4c0.1-37,30-67.4,67.5-67.2c37.2,0.1,67.2,30.4,67.1,67.6
		C317.2,187.6,286.9,217.7,250,217.6z M253.7,106.7c0,0-0.1-0.1-0.1-0.1C253.6,106.6,253.6,106.6,253.7,106.7
		C253.7,106.6,253.7,106.7,253.7,106.7c0.1,0.1,0.1,0.2,0.2,0.3c1,2,2.1,3.9,3,6c0.9,2.2,0.4,4.2-1.4,5.8c-1.5,1.3-3.1,2.3-4.8,3.3
		c-3.5,2.1-7.3,3.7-10.4,6.6c-3.2,3-4.8,6.2-2.1,10.7c0,0-0.1,0.1-0.1,0.1c-1.7-1.4-3.6-2.7-5.1-4.3c-1.7-1.9-1.6-4,0-6
		c1.1-1.5,2.4-2.9,3.8-4.1c2.8-2.6,5.8-4.9,8.4-7.7c3-3.1,4.2-6.9,3.1-11.3c-1.5-5.6-5-9.7-9.1-13.5c-0.1,0-0.1,0-0.2-0.1
		c0.1,0,0.1,0,0.2,0c0.3,0.7,0.6,1.4,1,2c2,3.5,4,6.9,4.9,10.9c0.7,3.2,0.1,6.1-2.1,8.5c-1.5,1.6-3.1,3-4.8,4.4
		c-3.1,2.6-6.3,5-8.6,8.5c-2.6,4.1-2.1,8.6,1.7,11.7c2,1.6,4.3,3,6.6,4c4.5,1.8,9.1,3.3,13.6,4.8c1,0.4,2.1,0.6,3.1,0.9
		c0.7,0.2,1.4,0.3,2.1,0.4c-1.1-0.9-2.3-1.6-3.5-2.2c-3.7-2.2-7.5-4.3-10.5-7.5c-2.6-2.7-2.5-4.6,0.4-7c0.1-0.1,0.1-0.1,0.2-0.1
		c2.1-1.4,4.2-2.8,6.3-4.2c2.6-1.9,5.4-3.6,7.8-5.7c1.9-1.6,2.9-3.9,2.5-6.6c-0.5-3.7-2.9-6.1-5.7-8.2
		C253.9,106.8,253.8,106.7,253.7,106.7z M259.1,176.1c2.6-1.1,4.7-2.9,6.5-4.9c3.3-3.6,5.9-7.7,6.2-12.7c0.1-1.4-0.2-2.8-0.4-4.2
		c-0.1,0-0.2,0-0.3,0c0,1.1,0.1,2.2,0,3.3c-0.5,4.7-2.7,8.7-5.7,12.1C263.4,172,261.1,173.9,259.1,176.1c-0.1,0-0.2,0-0.2,0.1
		C258.9,176.2,259,176.1,259.1,176.1z M260.7,154c-0.2,0.1-0.5,0.1-0.7,0.2c-3.2,1.7-6.7,2.4-10.3,2.5c-6.5,0.2-12.8-1.3-18.7-3.9
		c-0.4-0.2-0.7-0.3-1.1-0.5c0,0.2,0,0.3,0.1,0.3c7.4,4.6,15.3,6.3,23.9,4.7C256.4,156.8,258.8,155.8,260.7,154
		c0-0.1,0.1-0.1,0.1-0.2C260.7,153.8,260.7,153.9,260.7,154z M277.7,190.4c-1.5,2.2-3.7,3.4-6,4.4c-6.8,2.7-13.9,3.6-21.1,3.5
		c-4.9,0-9.9-0.4-14.8-1c-4.2-0.5-8.2-1.6-12-3.5c-1.6-0.8-3-1.8-3.9-3.6c0.3,0.1,0.5,0.1,0.7,0.2c8.7,3.4,17.8,4.8,27.1,4.8
		c3.9,0,7.9-0.4,11.8-0.9c7.7-0.9,15.1-3,21.8-7c3.6-2.1,6.8-4.7,8.6-8.6c0.6-1.2,0.7-2.6,1.1-4c-0.1,0-0.3-0.1-0.4-0.1
		c-1,3.7-3.5,6.1-6.5,8.1c-3.7,2.4-7.7,4-12,5.1c-9.7,2.6-19.6,3.5-29.7,3c-6.6-0.3-13.1-1.2-19.5-3c-5-1.4-9.9-3.2-13.9-6.7
		c-1.5-1.3-2.7-2.9-4-4.3c0.4,1.2,0.9,2.4,1.6,3.5c2.7,4.1,6.7,6.7,11,8.8c1,0.5,1.8,0.9,2.1,2c0.2,0.7,0.8,1.3,1.4,1.9
		c2.1,2.1,4.7,3.4,7.5,4.3c11.1,3.7,22.3,4,33.7,1.8c4.4-0.9,8.7-2.2,12.4-4.8c1.4-1,2.7-2.1,3.1-3.8c0-0.1,0.1-0.3,0.1-0.4
		c0,0-0.1,0-0.1,0C277.8,190.2,277.7,190.3,277.7,190.4z M220.9,146.2c1.8,0.6,4,1.1,6,1.9c3,1.2,6,2.5,9,3.7
		c4.6,1.9,9.5,3,14.5,2.8c4.5-0.2,8.8-1.4,13.1-2.8c3.1-1.1,6.3-2.1,9.4-3.1c2-0.6,2.6-0.2,2.9,1.9c0.6,3.7,0.2,7.3-0.9,10.9
		c-3.9,13.2-16.6,21.7-30.5,20.4c-7-0.7-13-3.4-17.9-8.2c-7-6.9-10-15.3-8.8-25.4c-0.3,0.8-0.6,1.3-0.8,1.9
		c-0.7,2.7-0.8,5.4-0.6,8.2c0.6,7,3.4,13.1,8.4,18.1c7.2,7.4,16.1,10.5,26.4,9.7c7.9-0.7,14.6-3.8,20.3-9.3c5.3-5.2,8.4-11.6,9.3-19
		c0.4-3.1,0.4-6.2-0.6-9.3c-0.8-2.4-2.4-4-5-4.2c-1.4-0.1-2.9,0-4.2,0.5c-3.5,1.2-7,2.6-10.5,4c-7.1,2.9-14.3,3.8-21.7,1.8
		c-4.1-1.1-8.2-2.5-12.3-3.6C224.6,146.4,222.6,145.9,220.9,146.2z M281.9,154.1c0.1,0.1,0.2,0.1,0.3,0.2c0.3-0.2,0.5-0.4,0.8-0.6
		c3.2-2.3,6.7-4,10.8-4c1.9,0,2.9,0.8,2.8,2.8c-0.1,1.5-0.3,3.1-0.9,4.4c-2.5,5.1-6.7,8.2-12,9.9c-1.2,0.4-2.5,0.5-4,0.8
		c0.4,0.2,0.5,0.2,0.7,0.2c0.3,0.1,0.5,0.1,0.8,0.2c3.4,0.8,6.7-0.1,9.8-1.5c5.6-2.6,9.8-6.5,10.3-13c0.4-5.3-3.1-8.3-7.9-7.7
		c-4.3,0.5-7.8,2.8-10.4,6.2C282.6,152.5,282.3,153.3,281.9,154.1z M218.1,148.1C218.1,148.1,218.1,148.1,218.1,148.1
		c-0.1-0.1-0.1,0-0.1,0C218,148.1,218.1,148.1,218.1,148.1C218.1,148.2,218.1,148.1,218.1,148.1z"/>
	<path style="fill:#FDFBF8;" d="M311.6,89.1c-0.5-1.2-1.1-2.5-1.5-3.8c-0.3-1,0.2-1.9,1-2.5c0.9-0.6,1.7-0.1,2.4,0.4
		c0.5,0.4,1,0.8,1.2,1.3c0.2,0.5,0.2,1.2-0.1,1.6C313.9,87.2,312.8,88.1,311.6,89.1z"/>
	<path style="fill:#FDFBF9;" d="M229.2,72.5c-3.1-0.4-5.1-2.5-5.2-5.1c-0.1-1.8,1-3.1,3.1-3.5C227.7,66.8,228.4,69.6,229.2,72.5z"/>
	<path style="fill:#FDFBF8;" d="M234.4,71.3c-0.5-2.8-1-5.7-1.6-8.5c2.4-0.2,4.4,1.8,4.8,4.5C237.9,69.3,236.6,70.9,234.4,71.3z"/>
	<path style="fill:#FEFDFC;" d="M213.4,77.9c0,3-1.9,4.5-4.2,3.7c-2.9-0.9-6.2-5.4-6.1-8.4c0-2.5,2.2-4.2,4.6-3.4c1,0.3,2,1,2.7,1.7
		C212.1,73.5,213.1,75.8,213.4,77.9z"/>
	<path style="fill:#FBFAF9;" d="M192.5,211.7c-0.2,2.4-0.7,4.5-2.4,6.2c-1.6,1.6-5.4,1.6-6.9-0.1c-0.4-0.4-0.4-1.3-0.2-1.9
		c1-2.9,2.8-5.4,5.2-7.3c1.6-1.4,3.5-0.6,4,1.4C192.4,210.6,192.5,211.3,192.5,211.7z"/>
	<path style="fill:#EBE7E6;" d="M332,120.6c2,1.1,2.6,2.5,1.7,4.5c-0.4,0.8-0.8,1.6-1.2,2.3c-1.2,1.8-0.9,3.5,0.2,5.1
		c0.3,0.4,0.5,0.8,0.9,1.3c-2.2-0.9-3.4-3.6-2.6-5.6c0.4-0.9,0.9-1.8,1.4-2.6c1.3-2.3,1.2-3-0.6-4.8
		C331.9,120.7,331.9,120.6,332,120.6z"/>
	<path style="fill:#EBE7E6;" d="M331.8,120.8c-0.2-0.1-0.3-0.3-0.5-0.4c0,0,0-0.1,0-0.1s0.1,0,0.1,0c0.2,0.1,0.3,0.2,0.5,0.3
		C331.9,120.6,331.9,120.7,331.8,120.8z"/>
	<path style="fill:#F9F8F7;" d="M272.3,234.4c-2.9-0.1-2.9-0.1-2.3-2.8c0.5-2.2,1.3-3,3-3.3c1-0.1,1.7,0.1,2.2,1
		c0.6,1.2,1.4,2.4,0.7,3.7C275.1,234.6,273.5,234.3,272.3,234.4z"/>
	<path style="fill:#FBFAF9;" d="M306.6,217.9c2.4-1,4.7-1.3,6.9-0.3c1.6,0.7,2.2,2.6,1.5,4c-0.7,1.4-2.5,1.8-4.1,1
		C309,221.6,307.8,219.9,306.6,217.9z"/>
	<path style="fill:#F7F6F5;" d="M304.5,211.3c1.5,0.1,2.8,0.7,3.6,1.9c0.7,1,0.6,2-0.2,2.8c-1.1,1-2,1.2-3,0.3
		c-0.8-0.7-1.5-1.5-2.1-2.4c-0.9-1.3-0.5-2,1-2.4C304,211.4,304.3,211.3,304.5,211.3z"/>
	<path style="fill:#F8F7F6;" d="M170.1,186.2c1.9-0.9,3.5-1.1,5.1,0c1.8,1.2,1.7,3.3,0,4.4c-1.2,0.8-1.9,0.7-2.7-0.6
		C171.7,188.8,170.9,187.5,170.1,186.2z"/>
	<path style="fill:#F9F8F7;" d="M329.6,185.6c-0.9-0.4-1.6-0.6-2.3-1c-1-0.6-1.7-1.5-1.6-2.7c0.2-1.2,0.7-2.2,1.9-2.6
		c1.3-0.4,2.6-0.2,3.7,0.7c0.2,0.2,0.3,0.8,0.2,1.2c-0.1,0.6-0.3,1.2-0.6,1.7C330.6,183.7,330.1,184.5,329.6,185.6z"/>
	<path style="fill:#EAE6E4;" d="M171.4,121.1c0.2,0.5,0.5,1,0.7,1.5c0.5,1.3,0.2,2.4-0.8,3.3c-0.7,0.6-1.4,1.1-2.1,1.5
		c-2.9,1.7-3.4,2.9-2.7,6.2c0.1,0.3,0.1,0.7,0.1,1.1c-0.4-1.2-0.9-2.5-1.1-3.7c-0.2-1.4,0.5-2.7,1.8-3.6c0.9-0.6,1.8-1.1,2.7-1.7
		c1.6-1,1.9-1.8,1.4-3.6C171.3,121.8,171.4,121.4,171.4,121.1z"/>
	<path style="fill:#FEFCFA;" d="M220.9,146.2c1.7-0.4,3.7,0.1,5.6,0.7c4.1,1.2,8.2,2.5,12.3,3.6c7.4,2,14.6,1.1,21.7-1.8
		c3.5-1.4,7-2.8,10.5-4c1.3-0.4,2.8-0.6,4.2-0.5c2.6,0.2,4.2,1.8,5,4.2c1,3,0.9,6.2,0.6,9.3c-0.9,7.4-4,13.8-9.3,19
		c-5.6,5.5-12.4,8.6-20.3,9.3c-10.3,0.9-19.2-2.3-26.4-9.7c-4.9-5-7.7-11.1-8.4-18.1c-0.3-2.8-0.2-5.5,0.6-8.2
		c0.2-0.6,0.4-1.1,0.8-1.9c-1.2,10.1,1.8,18.5,8.8,25.4c4.9,4.9,11,7.6,17.9,8.2c13.9,1.3,26.6-7.2,30.5-20.4
		c1-3.6,1.5-7.2,0.9-10.9c-0.4-2.1-0.9-2.5-2.9-1.9c-3.2,0.9-6.3,2-9.4,3.1c-4.2,1.5-8.6,2.6-13.1,2.8c-5,0.2-9.8-0.9-14.5-2.8
		c-3-1.2-5.9-2.6-9-3.7C224.9,147.4,222.8,146.8,220.9,146.2z"/>
	<path style="fill:#FDFBF8;" d="M277.8,190.5c-0.4,1.8-1.7,2.8-3.1,3.8c-3.7,2.7-8,4-12.4,4.8c-11.4,2.2-22.6,1.9-33.7-1.8
		c-2.8-0.9-5.4-2.2-7.5-4.3c-0.6-0.6-1.2-1.2-1.4-1.9c-0.4-1.1-1.2-1.6-2.1-2c-4.3-2.1-8.3-4.6-11-8.8c-0.7-1.1-1.1-2.3-1.6-3.5
		c1.3,1.4,2.5,3,4,4.3c4,3.4,8.9,5.3,13.9,6.7c6.4,1.8,12.9,2.7,19.5,3c10,0.5,19.9-0.3,29.7-3c4.2-1.1,8.3-2.7,12-5.1
		c3-2,5.6-4.4,6.5-8.1c0.1,0,0.3,0.1,0.4,0.1c-0.4,1.3-0.5,2.7-1.1,4c-1.8,3.9-5,6.5-8.6,8.6c-6.8,4-14.1,6.1-21.8,7
		c-3.9,0.4-7.9,0.9-11.8,0.9c-9.3,0-18.4-1.3-27.1-4.8c-0.2-0.1-0.4-0.1-0.7-0.2c0.9,1.8,2.4,2.8,3.9,3.6c3.8,2,7.8,3.1,12,3.5
		c4.9,0.6,9.9,1,14.8,1c7.2,0,14.3-0.8,21.1-3.5c2.4-0.9,4.5-2.2,6-4.4C277.7,190.4,277.8,190.5,277.8,190.5z"/>
	<path style="fill:#FEFCFA;" d="M239.1,92.5c4.1,3.7,7.7,7.9,9.1,13.5c1.1,4.3-0.1,8.1-3.1,11.3c-2.6,2.7-5.6,5.1-8.4,7.7
		c-1.4,1.3-2.6,2.7-3.8,4.1c-1.6,2-1.6,4.1,0,6c1.5,1.6,3.4,2.9,5.1,4.3c0.1,0,0.2,0,0.3,0c0-0.1-0.1-0.1-0.1-0.2
		c-2.8-4.5-1.2-7.7,2.1-10.7c3.1-2.8,6.9-4.5,10.4-6.6c1.7-1,3.3-2.1,4.8-3.3c1.8-1.5,2.3-3.6,1.4-5.8c-0.8-2.1-2-4-3-6
		c0,0,0.1-0.1,0.1-0.1c2.8,2.1,5.1,4.6,5.7,8.2c0.4,2.6-0.5,4.9-2.5,6.6c-2.4,2.1-5.2,3.9-7.8,5.7c-2.1,1.4-4.2,2.8-6.3,4.2
		c-0.1,0-0.1,0.1-0.2,0.1c-2.9,2.4-3,4.3-0.4,7c3,3.2,6.8,5.3,10.5,7.5c1.2,0.7,2.4,1.3,3.5,2.2c-0.7-0.1-1.4-0.2-2.1-0.4
		c-1-0.3-2.1-0.5-3.1-0.9c-4.6-1.6-9.2-3-13.6-4.8c-2.4-1-4.6-2.4-6.6-4c-3.8-3-4.3-7.6-1.7-11.7c2.2-3.5,5.4-5.9,8.6-8.5
		c1.7-1.4,3.3-2.8,4.8-4.4c2.2-2.4,2.8-5.3,2.1-8.5c-0.9-4-2.9-7.4-4.9-10.9C239.7,93.9,239.4,93.2,239.1,92.5L239.1,92.5z"/>
	<path style="fill:#FDFBF9;" d="M281.9,154.1c0.4-0.7,0.7-1.5,1.1-2.1c2.6-3.5,6.1-5.7,10.4-6.2c4.7-0.6,8.3,2.4,7.9,7.7
		c-0.5,6.5-4.7,10.5-10.3,13c-3.1,1.4-6.3,2.2-9.8,1.5c-0.3-0.1-0.5-0.1-0.8-0.2c-0.1,0-0.3-0.1-0.7-0.2c1.5-0.3,2.8-0.4,4-0.8
		c5.3-1.7,9.5-4.9,12-9.9c0.6-1.3,0.8-2.9,0.9-4.4c0.1-1.9-0.9-2.8-2.8-2.8c-4.1,0-7.6,1.7-10.8,4c-0.3,0.2-0.5,0.4-0.8,0.6
		C282.1,154.2,282,154.1,281.9,154.1z"/>
	<path style="fill:#FAF5F0;" d="M260.7,154c-1.9,1.9-4.3,2.8-6.8,3.3c-8.6,1.6-16.5-0.1-23.9-4.7c-0.1,0-0.1-0.1-0.1-0.3
		c0.4,0.2,0.7,0.3,1.1,0.5c6,2.6,12.2,4.1,18.7,3.9c3.6-0.1,7.1-0.8,10.3-2.5C260.2,154,260.5,154,260.7,154L260.7,154z"/>
	<path style="fill:#FBF6F1;" d="M259,176c2.1-2.1,4.4-4,6.4-6.3c3-3.5,5.2-7.4,5.7-12.1c0.1-1.1,0-2.2,0-3.3c0.1,0,0.2,0,0.3,0
		c0.1,1.4,0.4,2.8,0.4,4.2c-0.3,5.1-2.8,9.1-6.2,12.7C263.7,173.2,261.6,175,259,176C259,176.1,259,176,259,176z"/>
	<path style="fill:#FDFBF8;" d="M277.7,190.4c0-0.1,0.1-0.2,0.1-0.3c0,0,0.1,0,0.1,0c0,0.1-0.1,0.3-0.1,0.4
		C277.8,190.5,277.7,190.4,277.7,190.4z"/>
	<path style="fill:#FEFCFA;" d="M253.9,107c-0.1-0.1-0.1-0.2-0.2-0.3l0,0c0.1,0,0.2,0.1,0.3,0.1C254,106.9,254,106.9,253.9,107z"/>
	<path style="fill:#FEFCFA;" d="M253.7,106.7C253.7,106.7,253.7,106.6,253.7,106.7c-0.1-0.1-0.1-0.1-0.1-0.1
		C253.7,106.6,253.7,106.6,253.7,106.7C253.7,106.7,253.7,106.7,253.7,106.7z"/>
	<path style="fill:#FEFCFA;" d="M239.1,92.5c-0.1,0-0.1,0-0.2,0C239,92.5,239,92.5,239.1,92.5C239.1,92.5,239.1,92.5,239.1,92.5z"/>
	<path style="fill:#FEFCFA;" d="M218.1,148.1C218.1,148.1,218.1,148.2,218.1,148.1c-0.1,0-0.1,0-0.1,0
		C218,148.1,218.1,148,218.1,148.1C218.1,148.1,218.1,148.1,218.1,148.1z"/>
	<path style="fill:#FBF6F1;" d="M259.1,176.1c-0.1,0-0.2,0.1-0.2,0.1C258.9,176.1,258.9,176.1,259.1,176.1
		C259,176,259,176.1,259.1,176.1z"/>
	<path style="fill:#FAF5F0;" d="M260.7,154c0-0.1,0.1-0.1,0.1-0.2C260.7,153.8,260.7,153.9,260.7,154C260.7,154,260.7,154,260.7,154
		z"/>
	<path style="fill:#D2A36D;" d="M238.1,139.3c0,0.1,0.1,0.1,0.1,0.2c-0.1,0-0.2,0-0.3,0C238.1,139.4,238.1,139.3,238.1,139.3z"/>
</g>
</svg>
