<?xml version="1.0" encoding="UTF-8"?> <svg xmlns="http://www.w3.org/2000/svg" xmlns:xlink="http://www.w3.org/1999/xlink" width="500px" height="300px" viewBox="0 0 500 300"><!-- Generator: Sketch 52.2 (67145) - http://www.bohemiancoding.com/sketch --><title>Fill 1</title><desc>Created with Sketch.</desc><g id="Page-1" stroke="none" stroke-width="1" fill="none" fill-rule="evenodd"><g id="Artboard" transform="translate(-151.000000, -131.000000)" fill="#BE5F8B"><path d="M452.40519,327 C451.653161,326.456236 451.77821,324.698782 454.251513,319.225092 C455.222487,317.07597 457.437901,313.457761 461.289347,310 C461.735459,311.422052 462.007626,312.785639 461.999837,314.055155 C461.950077,322.524164 456.002209,325.686965 452.40519,327 Z M418.501335,334.316809 C417.468196,334.838106 416.521079,335.165681 416.080776,334.912944 C415.757975,334.726919 416.50689,334.040552 416.50689,334.040552 C416.50689,334.040552 421.775009,328.575272 423.84971,326.086388 C425.056664,324.639244 426.456057,322.921401 427.980933,321 C427.993349,321.192012 428,321.382313 428,321.570476 C427.984481,328.118549 421.426047,332.539524 418.501335,334.316809 Z M376.558444,314.425244 C374.089154,320.429793 368.920988,335.791385 365.775519,334.968162 C363.075295,334.261455 361.430899,322.583974 365.236373,311.091573 C367.15169,305.306609 371.243361,298.39414 373.647054,295.71116 C377.516777,291.393836 381.77738,289.981765 382.81254,291.732177 C384.132101,293.962541 378.106692,310.661365 376.558444,314.425244 Z M325.48802,348.9838 C318.457088,356.692218 308.634278,359.605432 304.421957,357.151634 C299.873683,354.501263 301.675081,343.152895 310.303345,334.972971 C315.562286,329.987911 322.35128,325.396442 326.854997,322.568306 C327.879785,321.948588 329.385777,321.038264 331.21569,319.936294 C331.519116,319.762558 331.690211,319.666287 331.690211,319.666287 L331.683528,319.654645 C332.036857,319.4424 332.398651,319.224334 332.772476,319 C335.91189,330.643003 332.867826,340.893431 325.48802,348.9838 Z M488.988764,294.180082 C480.460784,294.225097 473.074471,296.273509 466.882832,299.326963 C464.618206,294.804946 462.326409,290.826676 461.941548,287.868601 C461.492097,284.41536 460.971376,282.355359 461.513924,278.241599 C462.056917,274.127838 464.435575,268.30261 464.400831,267.866275 C464.366086,267.42994 463.867192,265.334284 458.948625,265.298628 C454.029613,265.263418 449.821971,266.245284 449.327086,267.544929 C448.831755,268.844574 447.884746,271.769222 447.295426,274.818664 C446.433942,279.281404 437.474774,295.197157 432.387831,303.523623 C430.724106,300.274064 429.309384,297.408693 429.014501,295.142782 C428.565496,291.689541 428.044329,289.62954 428.586877,285.515334 C429.129871,281.402019 431.508529,275.575899 431.473785,275.139564 C431.43904,274.703229 430.940591,272.608019 426.021579,272.572364 C421.102567,272.537154 416.894925,273.519019 416.400039,274.818664 C415.904708,276.11831 415.375969,279.154827 414.36838,282.0924 C413.360791,285.030418 401.451463,311.579998 398.332481,318.461522 C396.743145,321.967801 395.360049,324.784591 394.383641,326.708654 C394.380968,326.703751 394.377405,326.697957 394.377405,326.697957 C394.377405,326.697957 394.31727,326.825872 394.213482,327.042034 C393.377834,328.679515 392.880275,329.585612 392.880275,329.585612 C392.880275,329.585612 392.885621,329.598092 392.894975,329.619485 C392.232158,330.821969 391.521678,331.93888 391.169779,331.93888 C390.923896,331.93888 390.431683,328.737901 391.277131,324.344244 C393.049098,315.134412 397.306183,300.771459 397.263866,300.276738 C397.241594,300.023138 398.054971,297.520563 394.483865,296.212003 C391.012538,294.940883 389.776438,297.061052 389.459729,297.067737 C389.15282,297.074422 388.924753,297.81695 388.924753,297.81695 C388.924753,297.81695 392.792078,281.664978 381.54824,281.664978 C374.518725,281.664978 364.778253,289.359004 359.979956,296.333232 C356.951843,297.985868 350.472004,301.525128 343.597057,305.304618 C340.956479,306.7558 338.262003,308.239517 335.706949,309.647912 C335.533227,309.455372 335.35995,309.262386 335.181328,309.071629 C321.547696,294.517473 296.344162,284.223265 297.413222,264.656828 C297.802093,257.543543 300.273403,238.813674 345.842083,216.093948 C383.170093,197.482635 413.052991,202.604111 418.217441,213.954614 C425.594846,230.17032 402.246577,260.309078 363.481127,264.656828 C348.711173,266.313475 340.934207,260.5863 338.999654,258.45276 C336.96354,256.207351 336.659749,256.106178 335.89938,256.527359 C334.661053,257.214175 335.445921,259.196624 335.89938,260.37816 C337.057083,263.392393 341.806382,268.737162 349.904066,271.39573 C357.027568,273.734735 374.368611,275.019673 395.339113,266.903129 C418.827251,257.812742 437.167865,232.524924 431.780694,211.387414 C426.302207,189.889336 390.677121,182.821958 356.960307,194.807576 C336.893606,201.940472 315.170753,213.135873 299.551788,227.753318 C280.980435,245.134069 278.019139,260.261388 279.239203,266.582229 C283.575132,289.041224 314.513282,303.666691 326.90235,314.505983 C326.290759,314.843373 325.717475,315.160262 325.195863,315.448181 C318.984625,318.522582 295.401162,330.871441 289.502179,343.91915 C282.8112,358.719329 290.567675,369.338002 295.702726,370.76779 C311.613456,375.197549 327.940229,367.229867 336.714538,354.134915 C345.487066,341.043083 344.415779,323.996157 340.389432,316.214776 C340.339543,316.11806 340.284308,316.023573 340.233082,315.927748 C341.836672,314.977973 343.472334,314.012153 345.093296,313.059704 C348.254595,311.202494 351.357542,309.469634 354.050682,308.003299 C352.544198,312.134442 351.440394,317.086108 350.866219,324.237278 C350.191821,332.63862 353.632858,343.497968 358.135827,347.770396 C360.118488,349.651228 362.503828,349.695351 364.015657,349.695351 C369.255387,349.695351 371.646518,345.333784 374.278632,340.175315 C377.507639,333.848681 380.372274,326.483578 380.372274,326.483578 C380.372274,326.483578 376.776669,346.379384 386.573267,346.379384 C390.142591,346.379384 393.733296,341.748171 395.332432,339.386882 C395.336886,339.412732 395.339113,339.426548 395.339113,339.426548 C395.339113,339.426548 395.43221,339.272784 395.613951,338.964363 C395.984558,338.39744 396.194361,338.036427 396.194361,338.036427 C396.194361,338.036427 396.201488,337.998989 396.21307,337.933917 C397.647837,335.441148 400.830072,329.758096 405.602534,320.386477 C411.768337,308.278292 417.682466,293.109969 417.682466,293.109969 C417.682466,293.109969 418.232586,296.818594 420.034398,302.950905 C421.094549,306.559248 423.346702,310.547769 425.123569,314.37272 C423.693255,316.358289 422.813954,317.498822 422.813954,317.498822 C422.813954,317.498822 422.822417,317.519769 422.838008,317.558099 C421.695004,319.076135 420.413469,320.714508 419.072689,322.311877 C414.206239,328.111255 408.409707,334.73383 407.633302,336.645414 C406.719256,338.897509 406.935295,340.554156 408.702362,341.886782 C409.993252,342.860179 412.291286,343.01127 414.689098,342.849483 C419.062444,342.555324 422.139555,341.470058 423.65762,340.809093 C426.024252,339.971633 428.780199,338.654605 431.366879,336.752381 C436.140677,333.240754 439.020012,328.21733 438.743392,321.56311 C438.59016,317.895935 437.421321,314.261296 435.942901,310.829894 C436.376315,310.206813 436.810621,309.577938 437.246263,308.94104 C444.771999,297.93283 450.609512,285.836234 450.609512,285.836234 C450.609512,285.836234 451.159633,289.544413 452.96189,295.67717 C453.873709,298.781433 455.672847,302.167374 457.290691,305.48869 C450.214405,311.241716 445.825914,317.926243 444.302059,322.311877 C441.48464,330.422181 443.691358,334.097379 447.830402,334.933947 C449.705266,335.313233 452.352971,334.453489 454.344986,333.609789 C456.823423,332.787482 459.801646,331.417863 462.583429,329.372125 C467.357227,325.860497 471.947058,320.943149 471.670439,314.289375 C471.543933,311.259989 470.722984,308.253333 469.608935,305.364787 C475.607252,302.864886 483.373527,301.474765 493.265449,302.630451 C514.486289,305.10985 518.649387,318.36748 517.853828,323.916378 C517.057824,329.465721 512.606526,332.515609 511.118305,333.436859 C509.63053,334.357664 509.176179,334.677227 509.301349,335.36226 C509.482198,336.357941 510.170405,336.319612 511.439023,336.105678 C513.186045,335.810628 522.582637,331.592129 522.98487,321.349623 C523.495792,308.346038 511.044362,294.062419 488.988764,294.180082 Z" id="Fill-1"></path></g></g></svg> 