<svg xmlns="http://www.w3.org/2000/svg" width="64" height="64"><path d="M63.06 64H31.08c-.38 0-.72-.23-.87-.58a.976.976 0 0 1 .2-1.03l5.41-5.42H7.12c-1.87 0-3.63-.72-4.97-2.03-1.25-1.22-2-2.83-2.13-4.57-.01-.06-.02-.13-.02-.2V10.14c0-4.08 3.31-7.41 7.39-7.41.52 0 .94.42.94.94V13h29.16l6.53-6.56 3.06-3.06L49.6.84C50.14.3 50.86 0 51.63 0c.76 0 1.48.3 2.02.84l2.92 2.93c.54.54.84 1.26.84 2.03 0 .77-.3 1.49-.84 2.03l-2.52 2.54L51.43 13h7.21c.52 0 .94.42.94.94v19.19l2.82-2.82c.27-.27.67-.35 1.02-.21.35.15.58.49.58.87v32.09c0 .52-.42.94-.94.94zM55.24 6.5a.984.984 0 0 0 0-1.4l-2.92-2.93a.99.99 0 0 0-1.39 0l-1.86 1.87 4.31 4.33 1.86-1.87zm-3.19 3.2l-4.31-4.33-1.72 1.73 4.31 4.33 1.72-1.73zm10.07 47.92h-1.73a.939.939 0 1 1 0-1.88h1.73V52.9h-1.73c-.52 0-.94-.43-.94-.95s.42-.94.94-.94h1.73v-2.84h-1.73a.939.939 0 1 1 0-1.88h1.73v-2.84h-1.73c-.52 0-.94-.42-.94-.95 0-.52.42-.94.94-.94h1.73v-8.31L45.6 49.83c-.03.02-.05.04-.08.06-.17.14-.38.21-.59.21-.21 0-.42-.07-.59-.21a.435.435 0 0 1-.07-.06.948.948 0 0 1 0-1.34L57.7 35.01V14.88h-8.15L30.22 34.27c-.03.03-.05.05-.08.07 0 .01-.01.01-.02.01-.02.02-.04.04-.06.05-.01.01-.02.01-.02.01-.02.02-.05.03-.07.04-.01 0-.02.01-.02.01-.03.01-.05.02-.07.03-.01 0-.01 0-.01.01l-5.73 2.02H42.8c.52 0 .94.43.94.95s-.42.94-.94.94H16.79c-.52 0-.94-.42-.94-.94s.42-.95.94-.95h3.12c.01-.04.02-.09.04-.14l1.25-3.54 1.83-5.21v-.02c.01-.01.02-.03.03-.05 0-.01.01-.03.01-.04.01-.02.02-.03.03-.05.01-.01.02-.02.02-.03.02-.02.03-.04.04-.06.01-.01.01-.02.02-.02a.27.27 0 0 1 .07-.08l4.39-4.41c.37-.37.97-.37 1.33 0 .37.37.37.96 0 1.33l-3.73 3.75 4.31 4.32 18.94-19 .51-.51-4.31-4.32-6.15 6.16-6.8 6.82c-.36.37-.96.37-1.33 0a.954.954 0 0 1 0-1.33l5.2-5.21H8.33A46720398829336856 46720398829336856 0 0 1 6.45 33.1V4.7c-2.59.44-4.57 2.72-4.57 5.44v35.1c.11-.13.23-.26.35-.37a7.293 7.293 0 0 1 4.22-2.05v-5.95c0-.52.42-.95.94-.95s.94.43.94.95v6.83c0 .52-.42.94-.94.94-.1 0-.19 0-.28.01h-.07c-.07.01-.14.01-.21.02-.02 0-.04.01-.06.01-.07.01-.14.01-.21.02-.02.01-.03.01-.04.01-.08.01-.16.03-.24.04 0 .01-.01.01-.01.01-1.7.35-3.11 1.49-3.85 3.01v.01c-.04.08-.07.15-.1.23-.01.01-.02.03-.02.05-.03.06-.05.12-.07.18-.02.03-.03.07-.04.1-.02.05-.03.09-.05.14-.01.05-.03.09-.04.14-.01.04-.02.07-.03.1-.01.06-.03.12-.04.19-.01.02-.01.04-.02.06-.01.07-.03.14-.04.22 0 .01-.01.02-.01.02l-.03.25c-.01 0-.01.01-.01.01-.02.17-.03.35-.04.53a5.219 5.219 0 0 0 5.24 5.08H37.7l3.81-3.82a.94.94 0 0 1 1.19-.11c.05.03.09.07.13.11.37.37.37.97 0 1.34l-9.48 9.52h28.77v-4.5zm-34.29-24.4l-3.53-3.55-.95 2.7 1.79 1.8 2.69-.95zm27.78 12.19a.92.92 0 0 1 1.02-.2c.35.14.58.49.58.87v10.3c0 .52-.42.94-.94.94H46c-.38 0-.72-.23-.86-.58a.938.938 0 0 1 .2-1.03l10.27-10.3zm-.28 10.03v-7.09l-7.06 7.09h7.06z" fill="#255589"/></svg>