<?xml version="1.0" encoding="utf-8"?>
<svg xmlns="http://www.w3.org/2000/svg"
	xmlns:xlink="http://www.w3.org/1999/xlink"
	width="64px" height="64px" viewBox="0 0 64 64">
<path fillRule="evenodd" d="M 62.93 64C 62.93 64 51.2 64 51.2 64 51.2 64 51.2 61.87 51.2 61.87 51.2 61.87 61.87 61.87 61.87 61.87 61.87 61.87 61.87 51.2 61.87 51.2 61.87 51.2 64 51.2 64 51.2 64 51.2 64 62.93 64 62.93 64 63.52 63.52 64 62.93 64ZM 33.07 61.84C 33.07 61.84 33.07 64 33.07 64 33.07 64 30.93 64 30.93 64 30.93 64 30.93 61.84 30.93 61.84 15.29 61.26 2.74 48.71 2.16 33.07 2.16 33.07-0 33.07-0 33.07-0 33.07-0 30.93-0 30.93-0 30.93 2.16 30.93 2.16 30.93 2.74 15.29 15.29 2.74 30.93 2.16 30.93 2.16 30.93-0 30.93-0 30.93-0 33.07-0 33.07-0 33.07-0 33.07 2.16 33.07 2.16 48.71 2.74 61.26 15.29 61.84 30.93 61.84 30.93 64 30.93 64 30.93 64 30.93 64 33.07 64 33.07 64 33.07 61.84 33.07 61.84 33.07 61.26 48.71 48.71 61.26 33.07 61.84ZM 54.63 48C 55.33 47.01 55.97 45.98 56.53 44.91 56.53 44.91 56.53 40.85 56.53 40.85 56.53 38.91 54.96 37.33 53.01 37.33 53.01 37.33 50.64 37.33 50.64 37.33 50.64 37.33 52.19 41.2 52.19 41.2 52.35 41.6 52.26 42.05 51.96 42.35 51.96 42.35 49.82 44.49 49.82 44.49 49.41 44.9 48.73 44.9 48.31 44.49 48.31 44.49 46.18 42.35 46.18 42.35 45.88 42.05 45.78 41.6 45.94 41.2 45.94 41.2 47.49 37.33 47.49 37.33 47.49 37.33 45.12 37.33 45.12 37.33 43.18 37.33 41.6 38.91 41.6 40.85 41.6 40.85 41.6 48 41.6 48 41.6 48 54.63 48 54.63 48ZM 50.54 28.15C 49 30.17 45.71 30.73 43.88 30.88 44.71 33.15 46.69 34.79 49.07 35.2 50.7 35.2 53.92 33.05 54.35 30.44 54.35 30.44 50.54 28.15 50.54 28.15ZM 54.24 27.88C 53.76 24.9 52.09 23.47 49.07 23.47 45.76 23.47 44.08 25.16 43.79 28.74 45.67 28.56 48.58 27.95 49.12 26.33 49.15 26.25 49.18 26.18 49.22 26.12 49.52 25.61 50.18 25.45 50.68 25.75 50.68 25.75 54.24 27.88 54.24 27.88ZM 48.19 41.34C 48.19 41.34 49.07 42.23 49.07 42.23 49.07 42.23 49.95 41.34 49.95 41.34 49.95 41.34 49.07 39.14 49.07 39.14 49.07 39.14 48.19 41.34 48.19 41.34ZM 30.93 59.71C 30.93 59.71 30.93 57.6 30.93 57.6 30.93 57.6 33.07 57.6 33.07 57.6 33.07 57.6 33.07 59.71 33.07 59.71 40.74 59.41 47.94 55.95 52.96 50.13 52.96 50.13 40.53 50.13 40.53 50.13 39.94 50.13 39.47 49.66 39.47 49.07 39.47 49.07 39.47 43.73 39.47 43.73 39.47 43.73 24.53 43.73 24.53 43.73 24.53 43.73 24.53 49.07 24.53 49.07 24.53 49.66 24.06 50.13 23.47 50.13 23.47 50.13 11.04 50.13 11.04 50.13 16.06 55.95 23.26 59.41 30.93 59.71ZM 33.47 21.75C 31.94 23.77 28.64 24.33 26.81 24.48 27.64 26.74 29.62 28.39 32 28.8 33.64 28.8 36.86 26.65 37.28 24.04 37.28 24.04 33.47 21.75 33.47 21.75ZM 37.17 21.48C 36.69 18.5 35.03 17.07 32 17.07 28.69 17.07 27.01 18.76 26.73 22.34 28.6 22.16 31.52 21.55 32.06 19.93 32.08 19.85 32.11 19.78 32.15 19.72 32.46 19.21 33.11 19.05 33.62 19.35 33.62 19.35 37.17 21.48 37.17 21.48ZM 31.12 34.94C 31.12 34.94 32 35.82 32 35.82 32 35.82 32.88 34.94 32.88 34.94 32.88 34.94 32 32.74 32 32.74 32 32.74 31.12 34.94 31.12 34.94ZM 33.58 30.93C 33.58 30.93 35.13 34.8 35.13 34.8 35.28 35.2 35.19 35.65 34.89 35.95 34.89 35.95 32.76 38.09 32.76 38.09 32.34 38.5 31.66 38.5 31.25 38.09 31.25 38.09 29.11 35.95 29.11 35.95 28.81 35.65 28.72 35.2 28.88 34.8 28.88 34.8 30.42 30.93 30.42 30.93 30.42 30.93 28.05 30.93 28.05 30.93 26.11 30.93 24.53 32.51 24.53 34.45 24.53 34.45 24.53 41.6 24.53 41.6 24.53 41.6 39.47 41.6 39.47 41.6 39.47 41.6 39.47 34.45 39.47 34.45 39.47 32.51 37.89 30.93 35.95 30.93 35.95 30.93 33.58 30.93 33.58 30.93ZM 7.47 44.91C 8.03 45.98 8.67 47.01 9.37 48 9.37 48 22.4 48 22.4 48 22.4 48 22.4 40.85 22.4 40.85 22.4 38.91 20.82 37.33 18.88 37.33 18.88 37.33 16.51 37.33 16.51 37.33 16.51 37.33 18.06 41.2 18.06 41.2 18.22 41.6 18.12 42.05 17.82 42.35 17.82 42.35 15.69 44.49 15.69 44.49 15.27 44.9 14.6 44.9 14.18 44.49 14.18 44.49 12.05 42.35 12.05 42.35 11.74 42.05 11.65 41.6 11.81 41.2 11.81 41.2 13.36 37.33 13.36 37.33 13.36 37.33 10.99 37.33 10.99 37.33 9.04 37.33 7.47 38.91 7.47 40.85 7.47 40.85 7.47 44.91 7.47 44.91ZM 16.4 28.15C 14.87 30.17 11.57 30.73 9.75 30.88 10.58 33.15 12.55 34.79 14.93 35.2 16.57 35.2 19.79 33.05 20.22 30.44 20.22 30.44 16.4 28.15 16.4 28.15ZM 20.1 27.88C 19.63 24.9 17.96 23.47 14.93 23.47 11.63 23.47 9.94 25.16 9.66 28.74 11.54 28.56 14.45 27.95 14.99 26.33 15.01 26.25 15.05 26.18 15.09 26.12 15.39 25.61 16.04 25.45 16.55 25.75 16.55 25.75 20.1 27.88 20.1 27.88ZM 14.05 41.34C 14.05 41.34 14.93 42.23 14.93 42.23 14.93 42.23 15.81 41.34 15.81 41.34 15.81 41.34 14.93 39.14 14.93 39.14 14.93 39.14 14.05 41.34 14.05 41.34ZM 59.71 30.93C 59.13 16.46 47.54 4.87 33.07 4.29 33.07 4.29 33.07 6.4 33.07 6.4 33.07 6.4 30.93 6.4 30.93 6.4 30.93 6.4 30.93 4.29 30.93 4.29 16.46 4.87 4.87 16.46 4.29 30.93 4.29 30.93 6.4 30.93 6.4 30.93 6.4 30.93 6.4 33.07 6.4 33.07 6.4 33.07 4.29 33.07 4.29 33.07 4.38 35.39 4.76 37.69 5.42 39.91 5.83 37.45 7.81 35.55 10.28 35.25 8.61 33.94 7.59 31.98 7.47 29.87 7.47 22.81 11.53 21.33 14.93 21.33 18.34 21.33 22.4 22.81 22.4 29.87 22.27 31.98 21.25 33.94 19.59 35.25 20.46 35.35 21.29 35.66 22.01 36.15 22.15 36.24 22.27 36.34 22.4 36.44 22.4 36.44 22.4 34.45 22.4 34.45 22.4 31.6 24.52 29.2 27.35 28.85 25.68 27.54 24.66 25.58 24.53 23.47 24.53 16.41 28.59 14.93 32 14.93 35.41 14.93 39.47 16.41 39.47 23.47 39.34 25.58 38.32 27.54 36.65 28.85 39.48 29.2 41.61 31.6 41.6 34.45 41.6 34.45 41.6 36.44 41.6 36.44 41.73 36.34 41.85 36.24 41.99 36.15 42.71 35.67 43.54 35.36 44.41 35.25 42.75 33.94 41.72 31.98 41.6 29.87 41.6 22.81 45.66 21.33 49.07 21.33 52.47 21.33 56.53 22.81 56.53 29.87 56.41 31.98 55.39 33.94 53.72 35.25 56.19 35.55 58.17 37.45 58.58 39.91 59.24 37.69 59.62 35.39 59.71 33.07 59.71 33.07 57.6 33.07 57.6 33.07 57.6 33.07 57.6 30.93 57.6 30.93 57.6 30.93 59.71 30.93 59.71 30.93ZM 61.87 2.13C 61.87 2.13 51.2 2.13 51.2 2.13 51.2 2.13 51.2-0 51.2-0 51.2-0 62.93-0 62.93-0 63.52-0 64 0.48 64 1.07 64 1.07 64 12.8 64 12.8 64 12.8 61.87 12.8 61.87 12.8 61.87 12.8 61.87 2.13 61.87 2.13ZM 2.13 12.8C 2.13 12.8-0 12.8-0 12.8-0 12.8-0 1.07-0 1.07-0 0.48 0.48-0 1.07-0 1.07-0 12.8-0 12.8-0 12.8-0 12.8 2.13 12.8 2.13 12.8 2.13 2.13 2.13 2.13 2.13 2.13 2.13 2.13 12.8 2.13 12.8ZM 2.13 61.87C 2.13 61.87 12.8 61.87 12.8 61.87 12.8 61.87 12.8 64 12.8 64 12.8 64 1.07 64 1.07 64 0.48 64-0 63.52-0 62.93-0 62.93-0 51.2-0 51.2-0 51.2 2.13 51.2 2.13 51.2 2.13 51.2 2.13 61.87 2.13 61.87Z" fill="rgb(37,85,137)"/></svg>