<svg xmlns="http://www.w3.org/2000/svg" width="64" height="64"><path d="M62.93 64H51.2v-2.13h10.67V51.2H64v11.73c0 .59-.48 1.07-1.07 1.07zm-29.86-2.16V64h-2.14v-2.16C15.29 61.26 2.74 48.71 2.16 33.07H0v-2.14h2.16C2.74 15.29 15.29 2.74 30.93 2.16V0h2.14v2.16c15.64.58 28.19 13.13 28.77 28.77H64v2.14h-2.16c-.58 15.64-13.13 28.19-28.77 28.77zM54.63 48c.7-.99 1.34-2.02 1.9-3.09v-4.06c0-1.94-1.57-3.52-3.52-3.52h-2.37l1.55 3.87c.16.4.07.85-.23 1.15l-2.14 2.14c-.41.41-1.09.41-1.51 0l-2.13-2.14c-.3-.3-.4-.75-.24-1.15l1.55-3.87h-2.37c-1.94 0-3.52 1.58-3.52 3.52V48h13.03zm-4.09-19.85c-1.54 2.02-4.83 2.58-6.66 2.73a6.732 6.732 0 0 0 5.19 4.32c1.63 0 4.85-2.15 5.28-4.76l-3.81-2.29zm3.7-.27c-.48-2.98-2.15-4.41-5.17-4.41-3.31 0-4.99 1.69-5.28 5.27 1.88-.18 4.79-.79 5.33-2.41.03-.08.06-.15.1-.21.3-.51.96-.67 1.46-.37l3.56 2.13zm-6.05 13.46l.88.89.88-.89-.88-2.2-.88 2.2zM30.93 59.71V57.6h2.14v2.11a27.68 27.68 0 0 0 19.89-9.58H40.53c-.59 0-1.06-.47-1.06-1.06v-5.34H24.53v5.34c0 .59-.47 1.06-1.06 1.06H11.04a27.68 27.68 0 0 0 19.89 9.58zm2.54-37.96c-1.53 2.02-4.83 2.58-6.66 2.73A6.75 6.75 0 0 0 32 28.8c1.64 0 4.86-2.15 5.28-4.76l-3.81-2.29zm3.7-.27c-.48-2.98-2.14-4.41-5.17-4.41-3.31 0-4.99 1.69-5.27 5.27 1.87-.18 4.79-.79 5.33-2.41.02-.08.05-.15.09-.21.31-.51.96-.67 1.47-.37l3.55 2.13zm-6.05 13.46l.88.88.88-.88-.88-2.2-.88 2.2zm2.46-4.01l1.55 3.87c.15.4.06.85-.24 1.15l-2.13 2.14c-.42.41-1.1.41-1.51 0l-2.14-2.14c-.3-.3-.39-.75-.23-1.15l1.54-3.87h-2.37c-1.94 0-3.52 1.58-3.52 3.52v7.15h14.94v-7.15c0-1.94-1.58-3.52-3.52-3.52h-2.37zM7.47 44.91c.56 1.07 1.2 2.1 1.9 3.09H22.4v-7.15c0-1.94-1.58-3.52-3.52-3.52h-2.37l1.55 3.87c.16.4.06.85-.24 1.15l-2.13 2.14c-.42.41-1.09.41-1.51 0l-2.13-2.14c-.31-.3-.4-.75-.24-1.15l1.55-3.87h-2.37c-1.95 0-3.52 1.58-3.52 3.52v4.06zm8.93-16.76c-1.53 2.02-4.83 2.58-6.65 2.73.83 2.27 2.8 3.91 5.18 4.32 1.64 0 4.86-2.15 5.29-4.76l-3.82-2.29zm3.7-.27c-.47-2.98-2.14-4.41-5.17-4.41-3.3 0-4.99 1.69-5.27 5.27 1.88-.18 4.79-.79 5.33-2.41a.68.68 0 0 1 .1-.21c.3-.51.95-.67 1.46-.37l3.55 2.13zm-6.05 13.46l.88.89.88-.89-.88-2.2-.88 2.2zm45.66-10.41C59.13 16.46 47.54 4.87 33.07 4.29V6.4h-2.14V4.29C16.46 4.87 4.87 16.46 4.29 30.93H6.4v2.14H4.29c.09 2.32.47 4.62 1.13 6.84a5.623 5.623 0 0 1 4.86-4.66 7.367 7.367 0 0 1-2.81-5.38c0-7.06 4.06-8.54 7.46-8.54 3.41 0 7.47 1.48 7.47 8.54a7.436 7.436 0 0 1-2.81 5.38c.87.1 1.7.41 2.42.9.14.09.26.19.39.29v-1.99a5.64 5.64 0 0 1 4.95-5.6 7.413 7.413 0 0 1-2.82-5.38c0-7.06 4.06-8.54 7.47-8.54s7.47 1.48 7.47 8.54a7.413 7.413 0 0 1-2.82 5.38 5.63 5.63 0 0 1 4.95 5.6v1.99c.13-.1.25-.2.39-.29.72-.48 1.55-.79 2.42-.9a7.402 7.402 0 0 1-2.81-5.38c0-7.06 4.06-8.54 7.47-8.54 3.4 0 7.46 1.48 7.46 8.54a7.367 7.367 0 0 1-2.81 5.38c2.47.3 4.45 2.2 4.86 4.66.66-2.22 1.04-4.52 1.13-6.84H57.6v-2.14h2.11zm2.16-28.8H51.2V0h11.73C63.52 0 64 .48 64 1.07V12.8h-2.13V2.13zM2.13 12.8H0V1.07C0 .48.48 0 1.07 0H12.8v2.13H2.13V12.8zm0 49.07H12.8V64H1.07C.48 64 0 63.52 0 62.93V51.2h2.13v10.67z" fill="#255589"/></svg>