<svg xmlns="http://www.w3.org/2000/svg" width="55" height="68"><path d="M53.99 28.2h-3.34c-.55 0-1.01-.45-1.01-1s.46-1 1.01-1h3.34c.56 0 1.01.45 1.01 1s-.45 1-1.01 1zm-7.28-2.33h-.12c-.5 0-.94-.37-1-.88-.98-8.27-7.5-14.75-15.86-15.76a1 1 0 0 1-.88-1.11c.07-.55.57-.94 1.12-.87 9.21 1.11 16.54 8.36 17.62 17.51a1 1 0 0 1-.88 1.11zm-2.13-14.16c-.39.39-1.03.39-1.42 0a.996.996 0 0 1 0-1.41l2.36-2.33a1.02 1.02 0 0 1 1.43 0c.39.39.39 1.02 0 1.41l-2.37 2.33zM27.5 5.3c-.56 0-1.01-.45-1.01-1V1c0-.55.45-1 1.01-1s1.01.45 1.01 1v3.3c0 .55-.45 1-1.01 1zm13.25 18.71c.79 0 1.43.64 1.43 1.42v3.55c0 .77-.64 1.41-1.43 1.41H37.7c-.19.58-.42 1.15-.71 1.69l2.16 2.13c.27.27.41.63.41 1 0 .38-.14.73-.41 1l-2.54 2.51c-.56.55-1.46.55-2.02 0l-2.16-2.13c-.55.28-1.12.52-1.71.7v3.02c0 .77-.64 1.41-1.43 1.41h-3.58c-.79 0-1.43-.64-1.43-1.41v-3.02c-.59-.18-1.17-.42-1.71-.7l-2.16 2.13c-.56.55-1.46.55-2.02 0l-2.54-2.51c-.55-.55-.55-1.45 0-2l2.16-2.13c-.29-.54-.52-1.11-.71-1.69h-3.05c-.79 0-1.43-.64-1.43-1.41v-3.55c0-.78.64-1.42 1.43-1.42h3.05c.19-.58.42-1.15.71-1.69l-2.16-2.13a1.39 1.39 0 0 1-.41-1c0-.38.14-.73.41-1l2.54-2.51c.56-.55 1.46-.55 2.02 0l2.16 2.13c.54-.28 1.12-.51 1.71-.7V14.1c0-.78.64-1.42 1.43-1.42h3.58c.79 0 1.43.64 1.43 1.42v3.01c.59.19 1.17.42 1.71.7l2.16-2.13c.56-.55 1.46-.55 2.02 0l2.54 2.51c.27.27.41.62.41 1s-.14.73-.41 1l-2.16 2.13c.29.54.52 1.11.71 1.69h3.05zm-5.73-2.56l2.29-2.26-1.71-1.69-2.28 2.26c-.34.33-.85.39-1.25.14-.8-.49-1.67-.85-2.58-1.06-.46-.1-.78-.5-.78-.97v-3.19h-2.42v3.19c0 .47-.32.87-.77.97-.92.21-1.79.57-2.59 1.06-.4.25-.92.19-1.25-.14L19.4 17.5l-1.71 1.69 2.29 2.26c.33.33.39.84.14 1.23-.5.79-.86 1.65-1.07 2.56-.11.45-.51.77-.98.77h-3.23v2.39h3.23c.47 0 .87.31.98.76.21.91.57 1.77 1.07 2.56.25.4.19.91-.14 1.23l-2.29 2.26 1.71 1.69 2.28-2.26c.34-.32.85-.38 1.25-.14.8.49 1.67.85 2.59 1.06.45.11.77.51.77.97v3.2h2.42v-3.2c0-.46.32-.86.78-.97.91-.21 1.78-.57 2.58-1.06.4-.24.91-.18 1.25.14l2.28 2.26 1.71-1.69-2.29-2.26a.982.982 0 0 1-.14-1.23c.5-.79.86-1.65 1.07-2.56.11-.45.51-.76.98-.76h3.23v-2.39h-3.23c-.47 0-.87-.32-.98-.77-.21-.91-.57-1.77-1.07-2.56-.25-.39-.19-.9.14-1.23zM27.5 32.54c-2.97 0-5.4-2.4-5.4-5.34s2.43-5.34 5.4-5.34 5.39 2.4 5.39 5.34-2.42 5.34-5.39 5.34zm0-8.68c-1.86 0-3.38 1.5-3.38 3.34 0 1.84 1.52 3.35 3.38 3.35 1.86 0 3.38-1.51 3.38-3.35s-1.52-3.34-3.38-3.34zM25.27 9.23c-9.11 1.12-15.99 8.81-15.99 17.88 0 6.29 3.23 12.02 8.65 15.34a6.534 6.534 0 0 1 3.1 5.54v4.19h12.94v-4.09c0-2.33 1.2-4.46 3.2-5.7 4.65-2.89 7.71-7.63 8.4-12.99.07-.55.57-.93 1.13-.86.55.07.94.56.87 1.11-.76 5.96-4.16 11.22-9.33 14.42-1.41.88-2.26 2.38-2.26 4.02v4.24c1.03.35 1.77 1.31 1.77 2.44v1.42c0 .61-.21 1.16-.56 1.6.35.44.56.99.56 1.59v1.42c0 1.43-1.18 2.59-2.62 2.59h-3.17v2.25c0 1.3-1.07 2.36-2.38 2.36h-4.16c-1.31 0-2.38-1.06-2.38-2.36v-2.25h-3.17c-1.44 0-2.62-1.16-2.62-2.59v-1.42c0-.6.21-1.15.56-1.59a2.55 2.55 0 0 1-.56-1.6v-1.42c0-1.13.74-2.09 1.76-2.44v-4.34c0-1.56-.82-3.04-2.14-3.85A20.167 20.167 0 0 1 9.91 37c-1.73-3-2.64-6.42-2.64-9.89 0-10.05 7.68-18.62 17.76-19.86.55-.07 1.05.32 1.12.87a.993.993 0 0 1-.88 1.11zm-.22 56.41c0 .2.17.37.37.37h4.16c.2 0 .37-.17.37-.37v-2.25h-4.9v2.25zm-5.78-4.84c0 .33.27.6.6.6h15.26c.33 0 .6-.27.6-.6v-1.42c0-.32-.27-.6-.6-.6H19.87c-.33 0-.6.28-.6.6v1.42zm0-4.61c0 .33.27.6.6.6h15.26c.33 0 .6-.27.6-.6v-1.42a.6.6 0 0 0-.6-.59H19.87a.6.6 0 0 0-.6.59v1.42zm-8.85-44.48L8.05 9.38a.996.996 0 0 1 0-1.41c.4-.39 1.04-.39 1.43 0l2.36 2.33c.39.39.39 1.02 0 1.41-.39.39-1.03.39-1.42 0zM4.35 28.2H1.01c-.56 0-1.01-.45-1.01-1s.45-1 1.01-1h3.34c.55 0 1.01.45 1.01 1s-.46 1-1.01 1zm6.07 14.49c.39-.39 1.03-.39 1.42 0 .39.39.39 1.02 0 1.41l-2.36 2.34c-.39.38-1.03.38-1.43 0a.996.996 0 0 1 0-1.41l2.37-2.34zm34.16 0l2.37 2.34c.39.39.39 1.02 0 1.41-.4.38-1.04.38-1.43 0l-2.36-2.34a.996.996 0 0 1 0-1.41c.39-.39 1.03-.39 1.42 0z" fill="#255589"/></svg>