<?xml version="1.0" encoding="utf-8"?>
<!-- Generator: Adobe Illustrator 22.1.0, SVG Export Plug-In . SVG Version: 6.00 Build 0)  -->
<svg version="1.1" id="Слой_1" xmlns="http://www.w3.org/2000/svg" xmlns:xlink="http://www.w3.org/1999/xlink" x="0px" y="0px"
	 viewBox="0 0 500 300" style="enable-background:new 0 0 500 300;" xml:space="preserve">
<g id="Layer_3">
</g>
<path style="fill:#2477BC;" d="M310.2,158.9c0.3,0,0.5,0.1,0.6,0.1c6.1-9.5,12.1-18.9,18.3-28.4c4.9,0,9.9,0,15,0
	c0,17.1,0,34.3,0,51.5c-4.9,0-9.6,0-14.6,0c0-9.6,0-19.1,0-28.5c-0.2-0.1-0.3-0.1-0.5-0.2c-6.2,9.6-12.3,19.3-18.4,28.8
	c-5.2,0-10.2,0-15,0c-0.5-1.5-0.8-47.4-0.3-51.4c4.9,0,9.9,0,15,0C310.2,140.1,310.2,149.4,310.2,158.9z"/>
<path style="fill:#C1413E;" d="M92.2,194.6c0-19.1,0-37.8,0-56.8c13.3,0,26.5,0,39.7,0c0.1,0.2,0.3,0.4,0.3,0.7
	c0.4,2.4,0.9,4.8,1.2,7.2c0.2,2.2,0,4.5,0.1,6.8c0,3.3-0.8,6.5-1.5,9.7c-0.9,3.9-2.6,7.5-4.5,10.9c-2.2,3.8-5,7.2-8.3,10.1
	c-3.8,3.4-8,6.1-12.7,8.1c-2.3,0.9-4.6,1.8-7,2.4c-1.8,0.4-3.5,0.7-5.3,0.9C93.5,194.6,92.9,194.6,92.2,194.6z"/>
<path style="fill:#2477BC;" d="M397.6,130.7c0,17.2,0,34.3,0,51.5c-5.2,0-10.2,0-15.6,0c0-13.1,0-26.2,0-39.2c-5.5,0-10.6,0-16.1,0
	c-0.2,2.3,0,4.5-0.1,6.6c0,2.1,0,4.3,0,6.4c0,2.2,0,4.4,0,6.6c0,2.2,0,4.4,0,6.6c0,2.1,0,4.3,0,6.4c0,2.2,0,4.3,0,6.6
	c-5.1,0-10,0-14.8,0c-0.5-1.4-0.7-47-0.3-51.3C352.1,130.5,393,130.3,397.6,130.7z"/>
<path style="fill:#7F7F7F;" d="M85.1,142.8c0,17.4,0,34.8,0,52.3c-11.2-1.1-20.8-5.4-28.5-13.3c-10.5-10.8-14.5-23.9-12.7-39
	C57.7,142.8,71.4,142.8,85.1,142.8z"/>
<path style="fill:#2477BC;" d="M291.3,182.1c-5.5,0-10.7,0-16.2,0c-1.2-2.5-1.9-5.4-3.1-8.5c-0.5-0.1-1.4-0.3-2.2-0.4
	c-3.7,0-7.3,0-11,0c-1.1,0-2.1-0.1-3.4-0.2c-1,3-2,6-3.1,9.1c-5.2,0-10.5,0-16,0c0-0.4-0.3-0.9-0.1-1.2c1.8-3.7,2.9-7.7,4.2-11.5
	c1-2.9,2.2-5.7,3.3-8.6c0.9-2.6,1.7-5.2,2.7-7.8c1.1-3,2.3-6,3.3-9c1-2.8,1.9-5.6,2.9-8.3c0.6-1.7,1.2-3.3,1.8-5
	c6.2,0,12.3,0,18.5,0C279.1,147.8,285.2,164.8,291.3,182.1z M258.4,161.6c3.8,0,7.1,0,10.6,0c0-0.4,0.1-0.7,0-0.9
	c-0.6-2-1.2-4-1.9-6c-1-2.8-2-5.5-2.5-8.5c-0.1-0.6-0.2-1.4-1.2-1.2C261.8,150.5,260.1,155.9,258.4,161.6z"/>
<path style="fill:#2477BC;" d="M48,130.5c8.6-18.3,27.1-27.1,45-25.4c12.5,1.2,23,6.8,31.1,16.6c2.1,2.6,4,5.5,5.3,8.7
	C102.1,130.5,75.1,130.5,48,130.5z"/>
<path style="fill:#2477BC;" d="M199.4,182.1c0-17.2,0-34.2,0-51.4c0.4-0.1,0.9-0.2,1.4-0.2c7.9,0,15.8,0,23.8,0c2.6,0,5,0.4,7.2,1.7
	c1.4,0.8,2.8,1.7,4,2.8c1.9,1.9,3.5,4.1,4.3,6.7c0.2,0.5,0.4,1,0.4,1.5c0.1,2.7,0.3,5.5,0,8.2c-0.7,5.2-3.7,9.1-8.1,11.7
	c-2.3,1.3-5.1,2.1-7.9,2c-2.7,0-5.3,0-8,0c-0.5,0-1,0.1-1.7,0.1c0,5.6,0,11.2,0,16.9C209.5,182.1,204.5,182.1,199.4,182.1z M225,150
	c0-1.5,0-3,0-4.3c-2.3-4.4-6.2-3.9-10.2-3.8c0,3.9,0,7.7,0,11.6c2.7,0.6,5.3,0.3,7.8-0.8C223.4,151.9,224.2,151,225,150z"/>
<path style="fill:#2477BC;" d="M422,130.7c5.1,0,9.9,0,14.9,0c4.8,12.7,9.5,25.3,14.3,38c0,0,0.1,0,0.1,0c1.7,4.4,3.4,8.9,5.2,13.6
	c-5.7,0-11,0-16.5,0c-1.1-1.2-1.2-3-1.7-4.6c-0.8-2.4-1.4-4.9-2.2-7.4c-0.7-2.4-1.5-4.8-2.3-7.2c-0.8-2.4-1.6-4.8-2.3-7.3
	c-0.5-1.8-0.9-3.7-1.4-5.9c-0.5,0.9-1.1,1.4-1.3,2.1c-0.8,2.4-1.5,4.8-2.2,7.2c-0.8,2.6-1.5,5.2-2.3,7.8c-0.7,2.2-1.6,4.3-2.3,6.5
	c-0.7,2.3-1.3,4.6-1.9,6.8c-0.2,0.7-0.5,1.3-0.8,2c-5.9,0-11.6,0-17.5,0c0.1-0.6,0-1.4,0.3-2c1.9-4.6,3.8-9.1,5.7-13.7
	c1.6-4,3.1-8,4.6-12c1.6-4,3.2-7.9,4.8-11.8c1.3-3.4,2.6-6.9,3.9-10.3C421.3,131.8,421.7,131.3,422,130.7z"/>
<path style="fill:#2477BC;" d="M194.4,130.7c0,4,0,7.9,0,11.9c-3.8,0.5-7.5-0.2-11.4,0.4c0,13.1,0,26.1,0,39.1c-5.1,0-10,0-15.1,0
	c0-13.1,0-26.1,0-39.3c-3.9,0-7.6,0-11.4,0c0-4.2,0-8,0-12.1C169.1,130.7,181.7,130.7,194.4,130.7z"/>
<path style="fill:#2477BC;" d="M314,145.3c0-6.3,0-12.5,0-18.9c4.3,0,8.6,0,13.2,0c-4.1,6.7-8.8,12.6-12.8,19
	C314.3,145.4,314.2,145.3,314,145.3z"/>
</svg>
