<?xml version="1.0" encoding="UTF-8"?> <svg xmlns="http://www.w3.org/2000/svg" xmlns:xlink="http://www.w3.org/1999/xlink" width="500px" height="300px" viewBox="0 0 500 300"><!-- Generator: Sketch 52.2 (67145) - http://www.bohemiancoding.com/sketch --><title>valnat_logo</title><desc>Created with Sketch.</desc><defs><linearGradient x1="-0.00250348189%" y1="49.9922629%" x2="99.989126%" y2="49.9922629%" id="linearGradient-1"><stop stop-color="#92C05B" offset="0%"></stop><stop stop-color="#52A161" offset="100%"></stop></linearGradient><linearGradient x1="0.043474222%" y1="50.0033457%" x2="100.022527%" y2="50.0033457%" id="linearGradient-2"><stop stop-color="#92C05B" offset="0%"></stop><stop stop-color="#52A161" offset="100%"></stop></linearGradient></defs><g id="Page-1" stroke="none" stroke-width="1" fill="none" fill-rule="evenodd"><g id="valnat_logo" transform="translate(56.000000, 105.000000)"><g id="g3918" transform="translate(115.000000, 35.000000)" fill="#3C3C3C"><path d="M0,24.3333333 L0,0.0416666667 L12.9681034,0.0416666667 C17.6568966,0.0416666667 20.0646552,3 20.0646552,6.20833333 C20.0646552,9.25 18.1637931,11.2916667 15.8405172,11.7916667 C18.4594828,12.2083333 20.5715517,14.7083333 20.5715517,17.75 C20.5715517,21.375 18.0793103,24.2916667 13.4327586,24.2916667 L0,24.2916667 L0,24.3333333 Z M14.6577586,7.125 C14.6577586,5.58333333 13.5594828,4.45833333 11.7853448,4.45833333 L5.23793103,4.45833333 L5.23793103,9.75 L11.7853448,9.75 C13.5594828,9.75 14.6577586,8.66666667 14.6577586,7.125 Z M15.1646552,17.0416667 C15.1646552,15.5 14.0663793,14.2083333 11.9965517,14.2083333 L5.23793103,14.2083333 L5.23793103,19.8333333 L11.9965517,19.8333333 C13.9818966,19.8333333 15.1646552,18.7916667 15.1646552,17.0416667 Z" id="path3906" fill-rule="nonzero"></path><path d="M41.4387931,24.3333333 L39.9181034,20.2083333 L29.3577586,20.2083333 L27.7948276,24.3333333 L21.7965517,24.3333333 L31.3008621,0.0416666667 L37.8482759,0.0416666667 L47.3103448,24.3333333 L41.4387931,24.3333333 Z M34.637931,5.20833333 L30.7939655,15.6666667 L38.4818966,15.6666667 L34.637931,5.20833333 Z" id="path3908" fill-rule="nonzero"></path><path d="M48.2396552,20.1666667 C50.7318966,20.1666667 52.1681034,18.875 52.9284483,12.4583333 L54.3646552,0.0416666667 L71.8525862,0.0416666667 L71.8525862,24.3333333 L66.5724138,24.3333333 L66.5724138,4.58333333 L59.0956897,4.58333333 L58.1241379,12.7916667 C56.9413793,22.875 53.2663793,24.75 48.2396552,24.75 L48.2396552,20.1666667 Z" id="path3910"></path><polygon id="path3912" points="93.5224138 24.3333333 93.5224138 14.125 81.9060345 14.125 81.9060345 24.3333333 76.6681034 24.3333333 76.6681034 0.0416666667 81.9060345 0.0416666667 81.9060345 9.58333333 93.5224138 9.58333333 93.5224138 0.0416666667 98.8025862 0.0416666667 98.8025862 24.3333333"></polygon><path d="M120.641379,24.3333333 L119.12069,20.2083333 L108.560345,20.2083333 L106.997414,24.3333333 L100.999138,24.3333333 L110.503448,0.0416666667 L117.050862,0.0416666667 L126.512931,24.3333333 L120.641379,24.3333333 Z M113.840517,5.20833333 L109.996552,15.6666667 L117.684483,15.6666667 L113.840517,5.20833333 Z" id="path3914" fill-rule="nonzero"></path><polygon id="path3916" points="134.581034 24.3333333 134.581034 4.58333333 127.4 4.58333333 127.4 0.0416666667 147 0.0416666667 147 4.58333333 139.861207 4.58333333 139.861207 24.2916667 134.581034 24.2916667"></polygon></g><path d="M266,47.3563686 C266,39.8373984 271.73468,34.7127371 279.168524,34.7127371 C284.60585,34.7127371 287.791783,37.6531165 289.533426,40.6775068 L284.988162,42.8617886 C283.968663,40.8875339 281.71727,39.2913279 279.168524,39.2913279 C274.665738,39.2913279 271.394847,42.6937669 271.394847,47.3143631 C271.394847,51.9349593 274.665738,55.3373984 279.168524,55.3373984 C281.71727,55.3373984 283.968663,53.7831978 284.988162,51.7669377 L289.533426,53.9512195 C287.749304,56.9756098 284.648329,59.9579946 279.168524,59.9579946 C271.73468,60 266,54.8753388 266,47.3563686 Z M298.41156,59.5799458 L298.41156,39.6693767 L291.190111,39.6693767 L291.190111,35.0907859 L310.942897,35.0907859 L310.942897,39.6693767 L303.763928,39.6693767 L303.763928,59.5379404 L298.41156,59.5379404 L298.41156,59.5799458 Z M314.298747,59.5799458 L314.298747,35.0907859 L325.895543,35.0907859 C331.29039,35.0907859 334.221448,38.703252 334.221448,42.9878049 C334.221448,47.2303523 331.247911,50.8848238 325.895543,50.8848238 L319.608635,50.8848238 L319.608635,59.5799458 L314.298747,59.5799458 Z M328.784123,42.9878049 C328.784123,40.9295393 327.212396,39.6693767 325.130919,39.6693767 L319.523677,39.6693767 L319.523677,46.2642276 L325.173398,46.2642276 C327.212396,46.2642276 328.784123,45.004065 328.784123,42.9878049 Z M336.260446,47.3563686 C336.260446,39.9634146 341.697772,34.7127371 349.174095,34.7127371 C356.650418,34.7127371 362.130223,40.0054201 362.130223,47.3563686 C362.130223,54.7493225 356.692897,60 349.174095,60 C341.697772,60 336.260446,54.7073171 336.260446,47.3563686 Z M356.692897,47.3563686 C356.692897,42.7777778 353.719359,39.3333333 349.174095,39.3333333 C344.62883,39.3333333 341.697772,42.7777778 341.697772,47.3563686 C341.697772,51.8929539 344.62883,55.3794038 349.174095,55.3794038 C353.719359,55.3794038 356.692897,51.8929539 356.692897,47.3563686 Z M365.825905,59.5799458 L365.825905,35.0907859 L371.093315,35.0907859 L371.093315,50.8848238 L382.562674,35.0907859 L388,35.0907859 L388,59.5799458 L382.732591,59.5799458 L382.732591,43.197832 L370.923398,59.5799458 L365.825905,59.5799458 Z M376.912953,33.9566396 C374.279248,33.9566396 371.900418,32.696477 370.37117,30.7222222 L372.452646,29 C373.472145,30.3861789 374.958914,31.2682927 376.912953,31.2682927 C378.782033,31.2682927 380.311281,30.4281843 381.33078,29 L383.412256,30.7222222 C381.925487,32.696477 379.589136,33.9566396 376.912953,33.9566396 Z" id="path3925" fill="url(#linearGradient-1)" fill-rule="nonzero"></path><path d="M91,45.5 C91,70.6180297 70.6274965,91 45.5211333,91 C44.591268,91 43.6614027,90.9577138 42.773804,90.9154275 L41.4635392,90.9154275 L41.4635392,25.5408922 L62.765908,33.955855 L62.765908,82.6273234 C71.6841616,75.5232342 77.4324199,64.6133829 77.4324199,52.3080855 C77.4324199,30.9112454 60.1031119,13.5738848 38.7162099,13.5738848 C18.4705063,13.5738848 1.817464,29.1775093 0.169066419,49.0097584 C0.0845332095,47.8680297 0,46.6840149 0,45.5 C0,20.3819703 20.3725035,0 45.4788667,0 C70.6697631,0 91,20.3819703 91,45.5 Z M30.7700882,88.5473978 L32.8411519,89.0125465 L32.8411519,37.0427509 L30.7700882,39.8336431 L30.7700882,88.5473978 Z M37.2368788,31.2072491 L35.1235485,33.9981413 L35.1235485,89.5199814 L37.2368788,89.9851301 L37.2368788,31.2072491 Z M28.5299582,42.8359665 L26.5011612,45.5422862 L26.5011612,87.6593866 L28.5299582,88.0822491 L28.5299582,42.8359665 Z M39.4770088,90.4925651 L41.4635392,90.9154275 L41.4635392,25.5408922 L39.4770088,28.2049257 L39.4770088,90.4925651 Z" id="path3932" fill="url(#linearGradient-2)" fill-rule="nonzero"></path><g id="g3974" transform="translate(114.000000, 69.000000)" fill="#6B6B6B"><path d="M0.127314815,7.65 L0.127314815,0.531818182 L3.60725309,0.531818182 C5.21990741,0.531818182 6.11111111,1.59545455 6.11111111,2.82272727 C6.11111111,4.05 5.21990741,5.11363636 3.60725309,5.11363636 L1.69753086,5.11363636 L1.69753086,7.65 L0.127314815,7.65 Z M4.49845679,2.78181818 C4.49845679,2.16818182 4.0316358,1.8 3.39506173,1.8 L1.69753086,1.8 L1.69753086,3.72272727 L3.35262346,3.72272727 C4.0316358,3.76363636 4.49845679,3.39545455 4.49845679,2.78181818 Z" id="path3934" fill-rule="nonzero"></path><polygon id="path3936" points="12.6041667 7.65 12.6041667 0.531818182 17.8240741 0.531818182 17.8240741 1.88181818 14.1743827 1.88181818 14.1743827 3.39545455 17.7391975 3.39545455 17.7391975 4.74545455 14.1743827 4.74545455 14.1743827 6.34090909 17.8240741 6.34090909 17.8240741 7.69090909 12.6041667 7.69090909"></polygon><polygon id="path3938" points="31.0648148 7.65 31.0648148 2.65909091 28.9853395 7.65 28.3063272 7.65 26.2268519 2.65909091 26.2268519 7.65 24.6141975 7.65 24.6141975 0.531818182 26.8209877 0.531818182 28.6033951 4.82727273 30.3858025 0.531818182 32.5925926 0.531818182 32.5925926 7.65"></polygon><path d="M39.2978395,4.05 C39.2978395,1.88181818 40.9104938,0.368181818 43.1597222,0.368181818 C45.4089506,0.368181818 47.0216049,1.92272727 47.0216049,4.05 C47.0216049,6.21818182 45.4089506,7.73181818 43.1597222,7.73181818 C40.9104938,7.77272727 39.2978395,6.21818182 39.2978395,4.05 Z M45.4089506,4.05 C45.4089506,2.7 44.5177469,1.71818182 43.1597222,1.71818182 C41.8016975,1.71818182 40.9104938,2.74090909 40.9104938,4.05 C40.9104938,5.35909091 41.8016975,6.38181818 43.1597222,6.38181818 C44.5177469,6.42272727 45.4089506,5.4 45.4089506,4.05 Z" id="path3940" fill-rule="nonzero"></path><polygon id="path3942" points="58.7345679 7.65 58.7345679 4.66363636 55.2546296 4.66363636 55.2546296 7.65 53.6844136 7.65 53.6844136 0.531818182 55.2546296 0.531818182 55.2546296 3.35454545 58.7345679 3.35454545 58.7345679 0.531818182 60.304784 0.531818182 60.304784 7.65"></polygon><polygon id="path3944" points="69.0470679 7.65 69.0470679 1.84090909 66.882716 1.84090909 66.882716 0.490909091 72.7816358 0.490909091 72.7816358 1.84090909 70.617284 1.84090909 70.617284 7.65"></polygon><polygon id="path3946" points="92.0910494 7.65 89.841821 4.78636364 89.2476852 5.44090909 89.2476852 7.65 87.6774691 7.65 87.6774691 0.531818182 89.2476852 0.531818182 89.2476852 3.72272727 91.878858 0.531818182 93.8310185 0.531818182 90.9027778 3.88636364 94.0432099 7.69090909 92.0910494 7.69090909"></polygon><path d="M100.324074,7.65 L100.324074,0.531818182 L104.228395,0.531818182 C105.628858,0.531818182 106.350309,1.39090909 106.350309,2.33181818 C106.350309,3.23181818 105.756173,3.84545455 105.07716,3.96818182 C105.883488,4.09090909 106.477623,4.82727273 106.477623,5.72727273 C106.477623,6.79090909 105.713735,7.65 104.313272,7.65 L100.324074,7.65 Z M104.737654,2.57727273 C104.737654,2.12727273 104.398148,1.8 103.888889,1.8 L101.89429,1.8 L101.89429,3.35454545 L103.888889,3.35454545 C104.398148,3.35454545 104.737654,3.02727273 104.737654,2.57727273 Z M104.864969,5.48181818 C104.864969,5.03181818 104.525463,4.66363636 103.931327,4.66363636 L101.89429,4.66363636 L101.89429,6.34090909 L103.931327,6.34090909 C104.525463,6.3 104.864969,6.01363636 104.864969,5.48181818 Z" id="path3948" fill-rule="nonzero"></path><path d="M118.317901,7.65 L117.85108,6.42272727 L114.66821,6.42272727 L114.201389,7.65 L112.418981,7.65 L115.262346,0.531818182 L117.256944,0.531818182 L120.100309,7.65 L118.317901,7.65 Z M116.280864,2.00454545 L115.135031,5.07272727 L117.426698,5.07272727 L116.280864,2.00454545 Z" id="path3950" fill-rule="nonzero"></path><path d="M126.338735,7.65 L126.338735,0.531818182 L129.818673,0.531818182 C131.431327,0.531818182 132.322531,1.59545455 132.322531,2.82272727 C132.322531,4.05 131.431327,5.11363636 129.818673,5.11363636 L127.951389,5.11363636 L127.951389,7.65 L126.338735,7.65 Z M130.667438,2.78181818 C130.667438,2.16818182 130.200617,1.8 129.564043,1.8 L127.866512,1.8 L127.866512,3.72272727 L129.564043,3.72272727 C130.200617,3.76363636 130.667438,3.39545455 130.667438,2.78181818 Z" id="path3952" fill-rule="nonzero"></path><polygon id="path3954" points="140.513117 7.65 140.513117 1.84090909 138.348765 1.84090909 138.348765 0.490909091 144.247685 0.490909091 144.247685 1.84090909 142.083333 1.84090909 142.083333 7.65"></polygon><polygon id="path3956" points="150.825617 7.65 150.825617 0.531818182 152.395833 0.531818182 152.395833 5.15454545 155.833333 0.531818182 157.445988 0.531818182 157.445988 7.65 155.875772 7.65 155.875772 2.86363636 152.353395 7.65"></polygon><path d="M164.448302,7.65 L164.448302,0.531818182 L167.928241,0.531818182 C169.540895,0.531818182 170.432099,1.59545455 170.432099,2.82272727 C170.432099,4.05 169.540895,5.11363636 167.928241,5.11363636 L166.060957,5.11363636 L166.060957,7.65 L164.448302,7.65 Z M168.777006,2.78181818 C168.777006,2.16818182 168.310185,1.8 167.673611,1.8 L165.97608,1.8 L165.97608,3.72272727 L167.673611,3.72272727 C168.310185,3.76363636 168.777006,3.39545455 168.777006,2.78181818 Z" id="path3958" fill-rule="nonzero"></path><polygon id="path3960" points="190.378086 7.65 190.378086 4.66363636 186.898148 4.66363636 186.898148 7.65 185.327932 7.65 185.327932 0.531818182 186.898148 0.531818182 186.898148 3.35454545 190.378086 3.35454545 190.378086 0.531818182 191.948302 0.531818182 191.948302 7.65"></polygon><path d="M204.04321,7.65 L203.576389,6.42272727 L200.393519,6.42272727 L199.926698,7.65 L198.14429,7.65 L200.987654,0.531818182 L202.982253,0.531818182 L205.825617,7.65 L204.04321,7.65 Z M202.006173,2.00454545 L200.86034,5.07272727 L203.152006,5.07272727 L202.006173,2.00454545 Z" id="path3962" fill-rule="nonzero"></path><path d="M211.63966,6.42272727 C212.403549,6.34090909 212.827932,6.05454545 213.040123,4.17272727 L213.464506,0.531818182 L218.726852,0.531818182 L218.726852,6.34090909 L219.405864,6.34090909 L219.405864,9 L217.835648,9 L217.835648,7.69090909 L213.209877,7.69090909 L213.209877,9 L211.63966,9 L211.63966,6.42272727 Z M213.719136,6.3 L217.156636,6.3 L217.156636,1.84090909 L214.907407,1.84090909 L214.61034,4.25454545 C214.483025,5.19545455 214.185957,5.89090909 213.719136,6.3 Z" id="path3964" fill-rule="nonzero"></path><polygon id="path3966" points="225.856481 7.65 225.856481 0.531818182 231.076389 0.531818182 231.076389 1.88181818 227.426698 1.88181818 227.426698 3.39545455 230.991512 3.39545455 230.991512 4.74545455 227.426698 4.74545455 227.426698 6.34090909 231.076389 6.34090909 231.076389 7.69090909 225.856481 7.69090909"></polygon><polygon id="path3968" points="237.145062 7.65 240.285494 3.84545455 237.357253 0.490909091 239.309414 0.490909091 241.643519 3.35454545 241.643519 0.490909091 243.213735 0.490909091 243.213735 3.35454545 245.54784 0.490909091 247.5 0.490909091 244.571759 3.84545455 247.712191 7.65 245.802469 7.65 243.553241 4.78636364 243.256173 5.15454545 243.256173 7.65 241.685957 7.65 241.685957 5.15454545 241.388889 4.78636364 239.13966 7.65"></polygon><polygon id="path3970" points="259.04321 7.65 259.04321 4.66363636 255.563272 4.66363636 255.563272 7.65 253.993056 7.65 253.993056 0.531818182 255.563272 0.531818182 255.563272 3.35454545 259.04321 3.35454545 259.04321 0.531818182 260.613426 0.531818182 260.613426 7.65"></polygon><path d="M267.276235,4.05 C267.276235,1.88181818 268.888889,0.368181818 271.138117,0.368181818 C273.387346,0.368181818 275,1.92272727 275,4.05 C275,6.21818182 273.387346,7.73181818 271.138117,7.73181818 C268.888889,7.77272727 267.276235,6.21818182 267.276235,4.05 Z M273.387346,4.05 C273.387346,2.7 272.496142,1.71818182 271.138117,1.71818182 C269.780093,1.71818182 268.888889,2.74090909 268.888889,4.05 C268.888889,5.35909091 269.780093,6.38181818 271.138117,6.38181818 C272.496142,6.42272727 273.387346,5.4 273.387346,4.05 Z" id="path3972" fill-rule="nonzero"></path></g></g></g></svg> 