<?xml version="1.0" encoding="UTF-8"?> <svg xmlns="http://www.w3.org/2000/svg" xmlns:xlink="http://www.w3.org/1999/xlink" width="500px" height="300px" viewBox="0 0 500 300"><!-- Generator: Sketch 52.2 (67145) - http://www.bohemiancoding.com/sketch --><title>vianika</title><desc>Created with Sketch.</desc><g id="Page-1" stroke="none" stroke-width="1" fill="none" fill-rule="evenodd"><g id="vianika" transform="translate(119.000000, 99.000000)"><path d="M9.6289606,73.3045263 C8.74355979,73.6817224 8.23761647,73.5559904 7.73167315,72.8015982 C7.35221566,72.172938 7.09924399,71.5442778 6.97275816,70.9156176 C6.59330067,69.0296371 6.7197865,67.0179246 6.97275816,65.1319441 C7.47870149,61.8629112 8.87004562,58.9710744 11.3997622,56.8336298 C12.6646205,55.7020415 14.0559647,54.6961852 15.4473088,53.5645969 C16.2062238,53.0616688 16.8386529,52.4330086 17.3445963,51.6786164 C17.7240538,51.0499562 17.7240538,50.421296 17.4710821,49.7926359 C16.9651388,48.4095835 15.7002805,47.6551913 14.1824505,47.9066554 C13.5500214,48.0323874 12.7911064,48.2838515 12.1586772,48.5353155 C11.1467906,48.9125116 10.2613898,49.4154398 9.24950311,49.7926359 C8.11113064,50.295564 6.97275816,50.6727601 5.70789986,50.5470281 C2.92521159,50.421296 1.15440996,48.6610476 1.02792413,45.8949428 C1.02792413,44.1346943 1.40738162,42.5001779 2.41926827,40.9913935 C3.05169742,39.9855372 3.68412657,38.9796809 4.44304155,37.9738246 C5.58141403,36.2135762 6.46681484,34.3275956 6.7197865,32.1901511 C6.7197865,31.938687 6.84627233,31.812955 6.84627233,31.4357589 C6.97275816,31.812955 7.22572982,32.064419 7.22572982,32.1901511 C8.3641023,34.2018636 9.6289606,35.9621121 11.3997622,37.4708965 C13.1705639,38.8539489 15.0678513,39.8598052 17.4710821,39.7340731 C19.4948554,39.7340731 21.265657,38.9796809 22.9099728,37.9738246 C24.8072603,36.5907723 26.3250902,34.8305238 27.3369769,32.8188112 C28.6018352,30.1784385 29.6137218,27.5380658 29.6137218,24.520497 C29.6137218,24.520497 29.7402077,24.520497 29.7402077,24.3947649 C29.8666935,24.520497 29.9931793,24.646229 29.9931793,24.8976931 C30.4991226,25.6520853 30.8785801,26.4064775 31.3845235,27.1608697 C32.5228959,28.9211182 33.6612684,30.5556346 34.7996409,32.3158831 C36.0644992,34.3275956 36.6969283,36.5907723 36.3174708,39.105413 C35.9380134,41.3685896 34.7996409,43.1288381 32.6493818,44.1346943 C31.6374951,44.5118904 30.7520943,44.8890865 29.7402077,45.2662826 C28.9812927,45.6434787 28.0958919,46.0206748 27.4634627,46.523603 C25.5661753,48.0323874 24.9337461,50.9242242 27.5899485,52.8102047 C28.3488635,53.3131328 29.1077785,53.816061 29.8666935,54.3189891 C30.8785801,54.9476493 31.8904668,55.7020415 32.3964101,56.9593618 C32.5228959,57.0850939 32.6493818,57.2108259 32.7758676,57.46229 C32.7758676,56.7078978 32.6493818,56.2049696 32.3964101,55.8277735 C32.0169526,55.3248454 31.5110093,54.6961852 31.005066,54.1932571 C30.4991226,53.6903289 29.8666935,53.3131328 29.3607502,52.9359367 C28.728321,52.4330086 28.0958919,51.9300805 27.5899485,51.3014203 C26.4515761,50.0440999 26.5780619,48.6610476 27.8429202,47.6551913 C28.6018352,47.1522632 29.3607502,46.649335 30.246151,46.2721389 C31.1315518,45.8949428 32.0169526,45.5177467 33.0288393,45.1405506 C33.9142401,44.7633545 34.7996409,44.2604264 35.5585559,43.6317662 C37.708815,41.4943216 38.3412441,38.8539489 37.8353008,35.9621121 C37.5823291,34.3275956 36.6969283,32.8188112 35.6850417,31.4357589 C33.5347826,28.166726 31.2580376,24.8976931 28.9812927,21.5029281 C28.8548068,21.3771961 28.728321,21.2514641 28.6018352,21 C28.6018352,22.2573203 28.6018352,23.3889087 28.6018352,24.520497 C28.4753494,27.9152619 27.5899485,31.0585628 25.6926611,33.9503995 C24.8072603,35.2077199 23.7953736,36.3393082 22.5305153,37.2194324 C19.3683696,39.356877 15.4473088,39.4826091 12.1586772,36.8422363 C10.5143614,35.584916 9.24950311,33.9503995 8.11113064,32.1901511 C7.60518732,31.4357589 7.09924399,30.5556346 6.46681484,29.5497783 C6.46681484,30.0527065 6.34032901,30.4299026 6.34032901,30.9328307 C6.08735735,33.5732034 5.20195654,35.8363801 3.55764074,37.8480926 C2.79872576,38.7282168 2.1662966,39.7340731 1.53386745,40.7399294 C0.521980807,42.3744458 -0.110448345,44.2604264 0.0160374852,46.2721389 C0.142523316,47.7809233 0.521980807,49.1639757 1.53386745,50.169832 C3.17818325,51.8043484 5.20195654,52.4330086 7.47870149,51.8043484 C8.61707396,51.5528844 9.6289606,51.0499562 10.7673331,50.5470281 C11.7792197,50.169832 12.6646205,49.6669038 13.6765072,49.2897077 C14.1824505,49.1639757 14.6883938,49.0382437 15.0678513,49.1639757 C15.8267663,49.1639757 16.3327096,49.6669038 16.5856813,50.421296 C16.8386529,51.0499562 16.5856813,51.6786164 16.079738,52.0558125 C15.9532521,52.1815445 15.7002805,52.3072766 15.5737946,52.4330086 C14.9413655,52.9359367 14.1824505,53.4388649 13.5500214,53.816061 C11.5262481,55.1991134 9.6289606,56.7078978 8.3641023,58.8453423 C5.96087152,62.7430354 5.4549282,67.0179246 6.46681484,71.4185458 C6.59330067,72.172938 6.97275816,72.9273302 7.60518732,73.5559904 C8.23761647,74.1846505 8.99653145,74.1846505 9.6289606,73.3045263 C10.0084181,73.3045263 10.1349039,72.9273302 10.1349039,72.5501341 C10.0084181,72.8015982 9.88193227,73.0530622 9.6289606,73.3045263 Z" id="Path" fill="#FFFFFF"></path><path d="M181.67213,20 C179.282552,20 177.270276,22 177.018741,24.6666667 C176.892974,26.2666667 177.396043,27.4666667 178.653716,28.4 C179.911389,29.2 181.169061,29.2 182.300967,28.4 C183.810174,27.4666667 184.690545,26 184.94208,24.1333333 C185.319381,21.8666667 183.810174,20.1333333 181.67213,20 Z" id="Path" fill="#FFFFFF"></path><path d="M168,98.9562757 C168,95.5684417 168,92.306083 168,89.0437243 C167.393939,88.918249 166.909091,89.0437243 166.545455,89.671101 C165.090909,91.929657 163.515152,94.0627377 161.939394,96.1958184 C161.818182,96.446769 161.575758,96.5722444 161.333333,96.9486704 C161.212121,95.9448677 161.212121,95.0665403 161.212121,94.188213 C161.212121,93.3098857 161.212121,92.4315583 161.212121,91.553231 C161.212121,90.6749036 161.212121,89.7965763 161.212121,89.0437243 C160.727273,89.0437243 160.363636,89.0437243 160,89.0437243 C160,92.4315583 160,95.693917 160,98.9562757 C160.727273,99.081751 161.212121,98.9562757 161.69697,98.328899 C163.151515,96.1958184 164.727273,94.0627377 166.181818,91.929657 C166.30303,91.6787063 166.545455,91.553231 166.787879,91.176805 C166.787879,93.9372623 166.787879,96.446769 166.787879,98.9562757 C167.272727,98.9562757 167.636364,98.9562757 168,98.9562757 Z" id="Path" fill="#FFFFFF"></path><path d="M247,98.938133 C247.727273,99.0629265 248.212121,99.0629265 248.69697,98.3141653 C250.151515,96.0678816 251.727273,93.9463915 253.30303,91.8249013 C253.424242,91.7001078 253.545455,91.4505207 253.666667,91.3257272 C253.666667,91.3257272 253.787879,91.3257272 253.787879,91.3257272 C253.787879,93.8215979 253.787879,96.3174687 253.787879,98.938133 C254.272727,98.938133 254.636364,98.938133 255,98.938133 C255,95.5687075 255,92.3240755 255,89.0794435 C254.272727,88.8298564 253.909091,89.204237 253.545455,89.7034112 C252.090909,91.9496949 250.515152,94.071185 248.939394,96.1926751 C248.818182,96.4422622 248.69697,96.6918493 248.333333,96.6918493 C248.333333,94.071185 248.333333,91.5753143 248.333333,89.0794435 C247.848485,89.0794435 247.484848,89.0794435 247.121212,89.0794435 C247,92.448869 247,95.693501 247,98.938133 Z" id="Path" fill="#FFFFFF"></path><path d="M227.230769,97.0422382 C227.230769,94.3104325 227.230769,91.7027997 227.230769,89.095167 C226.738462,89.095167 226.369231,89.095167 226,89.095167 C226,92.4478377 226,95.6763353 226,98.904833 C226.738462,99.1531789 227.230769,98.904833 227.723077,98.283968 C229.2,96.1730273 230.676923,94.1862595 232.153846,92.0753187 C232.276923,91.8269727 232.523077,91.5786268 232.646154,91.4544538 C232.646154,91.4544538 232.769231,91.4544538 232.769231,91.4544538 C232.769231,93.9379135 232.769231,96.4213732 232.769231,98.904833 C233.261538,98.904833 233.630769,98.904833 234,98.904833 C234,95.6763353 234,92.3236647 234,89.095167 C233.261538,88.8468211 232.892308,89.095167 232.4,89.716032 C230.923077,91.9511457 229.323077,94.0620865 227.723077,96.1730273 C227.723077,96.5455462 227.476923,96.6697192 227.230769,97.0422382 Z" id="Path" fill="#FFFFFF"></path><path d="M55,98.8746339 C55.7272727,99.1253661 56.2121212,98.8746339 56.6969697,98.2478037 C58.1515152,96.1165807 59.6060606,93.9853577 61.1818182,91.9795007 C61.3030303,91.7287686 61.4242424,91.4780365 61.7878788,91.3526705 C61.7878788,93.9853577 61.7878788,96.4926788 61.7878788,99 C62.2727273,99 62.6363636,99 63,99 C63,95.7404825 63,92.3555989 63,89.0960814 C62.2727273,88.8453493 61.9090909,89.0960814 61.4242424,89.7229117 C59.8484848,91.9795007 58.2727273,94.2360898 56.6969697,96.3673128 C56.5757576,96.4926788 56.4545455,96.743411 56.2121212,96.9941431 C56.2121212,94.2360898 56.2121212,91.7287686 56.2121212,89.0960814 C55.7272727,89.0960814 55.3636364,89.0960814 55,89.0960814 C55,92.3555989 55,95.6151164 55,98.8746339 Z" id="Path" fill="#FFFFFF"></path><path d="M40.9473684,89.1235348 C39.7631579,91.9648342 38.5789474,94.6825989 37.3947368,97.5238984 C37.3947368,97.5238984 37.2631579,97.5238984 37.2631579,97.5238984 C35.9473684,94.6825989 34.7631579,91.9648342 33.4473684,89.1235348 C32.9210526,89.1235348 32.5263158,89.1235348 32,89.1235348 C32.1315789,89.3706043 32.2631579,89.6176738 32.2631579,89.7412086 C33.4473684,92.3354385 34.6315789,94.9296685 35.8157895,97.4003637 C36.6052632,99.0063155 36.6052632,99.1298503 35.6842105,100.735802 C35.6842105,100.859337 35.5526316,100.859337 35.5526316,100.982872 C34.8947368,101.97115 34.3684211,102.218219 33.1842105,101.600545 C33.1842105,101.600545 33.0526316,101.600545 33.0526316,101.600545 C33.0526316,101.72408 33.0526316,101.847615 33.0526316,101.97115 C33.0526316,102.712358 33.1842105,102.835893 33.8421053,102.959428 C34.7631579,103.082963 35.6842105,102.959428 36.2105263,102.094685 C36.6052632,101.600545 36.8684211,100.982872 37.1315789,100.488733 C38.7105263,96.7826899 40.2894737,93.2001818 41.8684211,89.494139 C42,89.3706043 42,89.1235348 42,89 C41.7368421,89.1235348 41.4736842,89.1235348 40.9473684,89.1235348 Z" id="Path" fill="#FFFFFF"></path><path d="M176,97.4102172 C176.36971,98.2014673 176.862657,98.8608425 177.478841,99.2564675 C178.711209,100.047718 179.943576,100.179593 181.29918,99.7839676 C183.394205,99.2564675 184.873046,97.1464672 184.996283,94.6408417 C185.11952,90.816466 182.161838,88.1789656 178.587972,89.2339658 C177.602078,89.4977158 176.862657,90.2889659 176.246474,91.3439661 C176.492947,91.4758412 176.616184,91.6077162 176.739421,91.7395912 C176.862657,91.8714662 176.985894,91.8714662 177.109131,91.8714662 C178.464735,90.2889659 179.820339,89.7614658 181.29918,90.2889659 C182.654785,90.816466 183.517442,92.2670913 183.517442,93.7177165 C181.915364,93.7177165 180.313286,93.7177165 178.711209,93.7177165 C178.711209,94.1133416 178.711209,94.5089667 178.711209,94.9045918 C180.313286,94.9045918 182.038601,94.9045918 183.640679,94.9045918 C183.763915,96.355217 182.901258,97.9377173 181.545654,98.4652174 C179.697103,99.2564675 178.218262,98.5970924 176.985894,96.8827171 C176.492947,97.1464672 176.246474,97.2783422 176,97.4102172 Z" id="Path" fill="#FFFFFF"></path><path d="M244.733333,89.0940439 C243.8,88.8432602 243.133333,89.0940439 242.6,89.846395 C241.666667,91.1003135 240.733333,92.2288401 239.8,93.3573668 C239.266667,93.3573668 238.866667,93.3573668 238.333333,93.3573668 C238.333333,91.8526646 238.333333,90.4733542 238.333333,89.0940439 C237.8,89.0940439 237.4,89.0940439 237,89.0940439 C237,92.4796238 237,95.7398119 237,99 C237.533333,99 237.933333,99 238.333333,99 C238.333333,97.4952978 238.333333,95.9905956 238.333333,94.4858934 C239.8,94.3605016 239.8,94.3605016 240.466667,95.3636364 C241.4,96.492163 242.333333,97.4952978 243.133333,98.6238245 C243.4,98.8746082 243.666667,99 243.933333,99 C244.2,99 244.6,99 245,99 C243.533333,97.2445141 242.066667,95.4890282 240.6,93.8589342 C242.066667,92.2288401 243.4,90.7241379 244.733333,89.0940439 Z" id="Path" fill="#FFFFFF"></path><path d="M81.442623,98.7507788 C81.442623,97.2554517 81.442623,95.7601246 81.442623,94.3894081 C82.3606557,94.1401869 83.0163934,94.3894081 83.5409836,95.1370717 C84.3278689,96.258567 85.3770492,97.3800623 86.1639344,98.5015576 C86.295082,98.6261682 86.557377,98.8753894 86.6885246,98.8753894 C87.0819672,98.8753894 87.4754098,98.8753894 88,98.8753894 C86.557377,97.1308411 85.1147541,95.3862928 83.6721311,93.7663551 C84.9836066,92.1464174 86.295082,90.6510903 87.6065574,89.0311526 C87.3442623,89.0311526 87.2131148,89.0311526 87.0819672,89.0311526 C86.4262295,88.9065421 85.9016393,89.1557632 85.5081967,89.7788162 C84.7213115,90.9003115 83.8032787,91.8971963 83.0163934,92.894081 C82.7540984,93.2679128 82.4918033,93.517134 81.9672131,93.3925234 C81.704918,93.3925234 81.5737705,93.3925234 81.3114754,93.3925234 C81.3114754,91.8971963 81.3114754,90.5264798 81.3114754,89.1557632 C80.7868852,89.1557632 80.3934426,89.1557632 80,89.1557632 C80,92.5202492 80,95.7601246 80,99 C80.5245902,98.7507788 80.9180328,98.7507788 81.442623,98.7507788 Z" id="Path" fill="#FFFFFF"></path><path d="M193.650503,96.3713079 C192.791733,98.062918 190.092739,98.7878938 188.252516,96.8546251 C186.903019,95.4046736 186.780338,93.108917 188.007153,91.5381362 C189.35665,89.7256968 191.932962,89.7256968 193.40514,91.4173069 C193.527822,91.5381362 193.527822,91.6589655 193.650503,91.6589655 C194.018548,91.5381362 194.386592,91.4173069 194.877318,91.2964776 C194.509274,90.4506726 193.773185,89.8465261 193.037096,89.4840382 C191.074191,88.5174039 187.884472,88.8798918 186.534975,91.6589655 C186.044249,92.6255999 185.921567,93.5922342 186.044249,94.5588685 C186.534975,98.5462352 190.706147,99.9961867 193.527822,98.3045766 C194.141229,97.9420888 194.631955,97.4587716 195,96.6129665 C194.877318,96.6129665 194.754637,96.4921372 194.631955,96.4921372 C194.263911,96.4921372 194.018548,96.4921372 193.650503,96.3713079 Z" id="Path" fill="#FFFFFF"></path><path d="M119.773239,96.3149937 C118.669153,98.3772684 115.234221,98.7411992 113.762107,95.9510629 C113.148727,94.7379601 113.148727,93.5248573 113.639431,92.4330648 C114.743516,89.6429285 118.301125,89.6429285 119.527886,91.5838929 C119.527886,91.5838929 119.650562,91.7052032 119.773239,91.7052032 C120.141267,91.5838929 120.509295,91.4625826 120.877324,91.3412723 C120.754648,91.2199621 120.754648,91.0986518 120.754648,90.9773415 C119.40521,88.7937565 116.706335,88.6724463 114.866193,89.4003079 C112.535346,90.3707901 111.431261,93.1609265 112.289994,95.587132 C113.148727,98.0133376 115.60225,99.4690609 118.055772,98.8625095 C119.40521,98.6198889 120.386619,97.8920273 121,96.5576142 C120.631972,96.5576142 120.263943,96.436304 119.773239,96.3149937 Z" id="Path" fill="#FFFFFF"></path><path d="M20.7755659,96.3090823 C19.5511319,98.3696904 16.3676033,98.6121149 14.8982824,96.1878701 C14.163622,95.0969599 14.163622,93.7636252 14.5309522,92.5515028 C15.0207258,91.3393803 15.8778297,90.4908946 17.2247071,90.2484701 C18.5715846,90.0060456 19.6735753,90.4908946 20.5306791,91.5818048 C20.5306791,91.5818048 20.6531225,91.5818048 20.6531225,91.703017 C21.0204527,91.5818048 21.387783,91.4605926 21.7551132,91.3393803 C21.6326698,91.2181681 21.6326698,91.0969558 21.6326698,90.9757436 C20.2857923,88.7939232 17.469594,88.672711 15.7553863,89.3999844 C13.4289615,90.4908946 12.4494143,93.157564 13.3065181,95.7030211 C14.163622,98.1272659 16.6124901,99.4606006 19.0613582,98.8545394 C20.4082357,98.6121149 21.387783,97.8848415 22,96.5515068 C21.5102264,96.5515068 21.1428962,96.4302945 20.7755659,96.3090823 Z" id="Path" fill="#FFFFFF"></path><path d="M137.676923,99 C137.676923,95.9620253 137.676923,93.0506329 137.676923,90.1392405 C138.784615,90.1392405 139.892308,90.1392405 141,90.1392405 C141,89.7594937 141,89.3797468 141,89 C138.292308,89 135.584615,89 133,89 C133,89.3797468 133,89.7594937 133,90.1392405 C134.107692,90.1392405 135.215385,90.1392405 136.446154,90.1392405 C136.446154,93.1772152 136.446154,96.0886076 136.446154,99 C136.815385,99 137.184615,99 137.676923,99 Z" id="Path" fill="#FFFFFF"></path><path d="M224,89 C221.333333,89 218.666667,89 216,89 C216,89.3797468 216,89.7594937 216,90.1392405 C217.090909,90.1392405 218.181818,90.1392405 219.393939,90.1392405 C219.393939,93.1772152 219.393939,96.0886076 219.393939,99 C219.878788,99 220.242424,99 220.606061,99 C220.606061,96.0886076 220.606061,93.1772152 220.606061,90.1392405 C221.69697,90.1392405 222.787879,90.1392405 223.878788,90.1392405 C224,89.6329114 224,89.3797468 224,89 Z" id="Path" fill="#FFFFFF"></path><path d="M32,89 C29.3333333,89 26.6666667,89 24,89 C24,89.3797468 24,89.7594937 24,90.1392405 C25.0909091,90.1392405 26.1818182,90.1392405 27.3939394,90.1392405 C27.3939394,93.1772152 27.3939394,96.0886076 27.3939394,99 C27.8787879,99 28.2424242,99 28.6060606,99 C28.6060606,96.0886076 28.6060606,93.1772152 28.6060606,90.1392405 C29.8181818,90.1392405 30.9090909,90.1392405 32,90.1392405 C32,89.6329114 32,89.2531646 32,89 Z" id="Path" fill="#FFFFFF"></path><path d="M201.553846,99 C201.553846,95.9620253 201.553846,93.0506329 201.553846,90.1392405 C202.661538,90.1392405 203.769231,90.1392405 205,90.1392405 C205,89.7594937 205,89.3797468 205,89 C202.292308,89 199.584615,89 197,89 C197,89.3797468 197,89.7594937 197,90.1392405 C198.107692,90.1392405 199.215385,90.1392405 200.446154,90.1392405 C200.446154,93.1772152 200.446154,96.0886076 200.446154,99 C200.692308,99 201.061538,99 201.553846,99 Z" id="Path" fill="#FFFFFF"></path><path d="M152,99 C152,95.7088608 152,92.2911392 152,89 C151.7,89 151.3,89 151,89 C151,92.2911392 151,95.5822785 151,99 C151.3,99 151.6,99 152,99 Z" id="Path" fill="#FFFFFF"></path><path d="M87.4718741,46.293778 C88.1042224,45.4090242 88.7365706,44.5242705 89.3689189,43.6395167 C89.4953886,43.3867299 89.6218582,43.1339432 89.7483279,42.8811564 C89.8747976,42.6283696 90.1277369,42.5019762 90.2542065,42.2491894 C90.5071458,42.122796 90.6336155,41.9964026 90.8865548,41.8700092 C93.9218266,38.583781 97.4629769,36.1823066 101.889415,35.1711594 C103.65999,34.7919793 105.304096,34.6655859 107.074671,34.6655859 C108.465837,34.7919793 109.604064,35.2975528 110.489352,36.3087 C110.615821,36.4350934 110.742291,36.5614868 110.868761,36.6878801 C110.868761,36.6878801 110.868761,36.6878801 110.99523,36.6878801 C111.1217,36.5614868 111.248169,36.4350934 111.374639,36.3087 C112.006987,35.5503396 112.892275,35.2975528 113.904032,35.5503396 C114.536381,35.676733 115.168729,35.8031264 115.801077,35.9295198 C117.192243,36.1823066 117.571652,35.9295198 118.33047,34.7919793 C118.45694,34.6655859 118.58341,34.5391925 118.709879,34.2864057 C118.709879,34.2864057 118.836349,34.1600123 118.836349,34.1600123 C118.962819,34.0336189 119.215758,33.9072255 119.342228,33.7808321 C119.468697,33.7808321 119.595167,33.7808321 119.595167,33.9072255 C119.215758,34.7919793 118.709879,35.676733 118.33047,36.4350934 C117.065774,38.7101744 115.927547,40.8588621 114.66285,43.1339432 C112.006987,48.0632854 109.477594,52.9926277 106.821732,57.92197 C106.442323,58.8067238 106.062914,59.5650841 105.936444,60.5762313 C105.809974,61.9665586 106.695262,62.8513123 107.959958,62.7249189 C108.465837,62.7249189 108.845246,62.5985255 109.351125,62.4721322 C109.857003,62.2193454 110.489352,61.9665586 110.99523,61.5873784 C113.651093,59.9442643 115.927547,57.92197 118.204001,55.7732824 C121.618681,52.6134476 124.906892,49.200826 128.068634,45.661811 C128.700982,44.9034506 129.4598,44.2714837 129.965679,43.3867299 C130.471557,42.6283696 130.850966,41.8700092 131.230375,41.1116489 C131.862723,39.847715 132.621541,38.583781 133.25389,37.3198471 C134.139177,35.5503396 135.277404,34.7919793 137.680328,35.676733 C137.806797,35.8031264 138.059737,35.8031264 138.186206,35.9295198 C138.945024,36.1823066 139.577373,36.1823066 140.209721,35.4239462 C140.58913,35.0447661 140.968539,34.6655859 141.347948,34.2864057 C141.600887,34.0336189 141.980296,33.7808321 142.233235,33.6544387 C142.233235,33.6544387 142.359705,33.7808321 142.359705,33.7808321 C142.233235,34.0336189 142.233235,34.1600123 142.106766,34.4127991 C140.842069,36.6878801 139.703842,38.9629612 138.439146,41.2380423 C138.312676,41.4908291 138.312676,41.6172224 138.186206,41.8700092 C138.186206,41.9964026 138.186206,41.9964026 138.059737,42.122796 C138.186206,42.122796 138.186206,41.9964026 138.312676,41.9964026 C139.703842,40.8588621 141.095008,39.7213216 142.486175,38.583781 C144.13028,37.3198471 145.774386,36.1823066 147.671431,35.4239462 C149.189066,34.7919793 150.706702,34.4127991 152.350808,34.5391925 C154.627262,34.6655859 156.144898,36.1823066 156.271367,38.4573876 C156.397837,39.7213216 156.144898,40.8588621 155.512549,41.9964026 C154.880201,43.1339432 154.121383,44.3978771 153.362565,45.5354176 C150.453763,50.0855797 147.544961,54.5093484 144.762628,59.0595106 C144.509689,59.4386907 144.25675,59.8178709 144.13028,60.1970511 C143.750871,61.3345916 144.13028,62.2193454 145.521446,62.3457388 C146.280264,62.4721322 147.039082,62.2193454 147.671431,61.9665586 C149.189066,61.2081982 150.453763,60.1970511 151.59199,58.9331172 C153.868444,56.5316427 156.144898,54.0037749 158.421351,51.6023004 C160.571336,49.3272194 162.72132,46.9257449 164.744834,44.6506639 C165.250713,44.1450903 165.630122,43.5131233 165.883061,42.8811564 C167.147758,40.8588621 168.285985,38.7101744 169.424211,36.6878801 C169.93009,35.9295198 170.562438,35.5503396 171.447726,35.5503396 C172.333014,35.5503396 173.218301,35.5503396 173.977119,36.1823066 C174.356528,36.5614868 174.862407,36.4350934 175.368285,36.0559132 C175.874164,35.5503396 176.380043,35.0447661 176.885921,34.5391925 C177.138861,34.2864057 177.518269,34.0336189 177.897678,33.6544387 C177.897678,33.6544387 178.024148,33.6544387 178.024148,33.7808321 C177.897678,34.0336189 177.771209,34.2864057 177.771209,34.5391925 C174.988876,39.847715 172.206544,45.1562374 169.424211,50.4647599 C168.412454,52.3606608 167.400697,54.3829551 166.38894,56.2788559 C165.883061,57.2900031 165.630122,58.4275436 165.503652,59.4386907 C165.503652,59.8178709 165.503652,60.3234445 165.630122,60.7026247 C165.883061,61.8401652 167.147758,62.4721322 168.159515,62.092952 C168.791863,61.8401652 169.424211,61.5873784 169.93009,61.2081982 C172.206544,59.6914775 174.103589,57.7955766 176.127103,55.8996758 C180.427072,51.8550872 184.347631,47.4313185 188.26819,43.0075498 C188.647599,42.6283696 188.900539,42.122796 189.153478,41.7436158 C194.465203,33.0224718 200.282808,24.6805079 206.60629,16.7177242 C208.882744,13.8106762 211.412137,11.0300215 214.068,8.3757603 C215.838575,6.60625281 217.73562,4.96313871 220.012074,3.82559818 C221.150301,3.32002461 222.162058,2.81445104 223.426755,3.06723783 C224.059103,3.19363122 224.691451,3.446418 225.19733,3.69920479 C226.209087,4.33117175 226.714966,5.21592549 226.588496,6.47985942 C226.462027,7.87018673 226.082618,9.13412065 225.450269,10.3980546 C224.185573,13.1787092 222.541467,15.706577 220.644422,18.1080515 C215.712106,24.1749343 210.147441,29.4834568 203.697488,34.0336189 C202.685731,34.7919793 201.421035,35.4239462 200.282808,36.0559132 C200.029868,36.1823066 199.650459,36.4350934 199.52399,36.6878801 C198.765172,37.8254207 198.006354,38.9629612 197.374006,40.1005017 C197.247536,40.2268951 197.247536,40.3532885 197.374006,40.6060753 C197.626945,40.4796819 197.879884,40.2268951 198.132823,40.1005017 C200.282808,38.4573876 202.432792,36.9406669 204.835715,35.8031264 C205.721003,35.4239462 206.60629,35.0447661 207.618048,34.7919793 C208.250396,34.6655859 208.882744,34.5391925 209.515093,34.6655859 C211.412137,34.7919793 212.803304,36.1823066 212.803304,38.0782075 C212.803304,39.4685348 212.423895,40.7324687 211.538607,41.8700092 C210.40038,43.6395167 208.756275,45.029844 206.985699,46.1673846 C205.847473,46.9257449 204.709246,47.5577119 203.697488,48.1896788 C203.444549,48.3160722 203.318079,48.4424656 203.06514,48.568859 C203.444549,49.200826 203.823958,49.7063995 204.076897,50.2119731 C204.709246,51.2231203 204.835715,52.3606608 204.329837,53.6245947 C204.203367,54.1301683 203.950428,54.5093484 203.697488,55.014922 C202.93867,56.2788559 202.306322,57.5427899 201.547504,58.9331172 C201.294565,59.5650841 200.915156,60.0706577 200.788686,60.7026247 C200.535747,61.460985 200.915156,61.9665586 201.673974,61.8401652 C202.179852,61.8401652 202.685731,61.5873784 203.06514,61.3345916 C204.076897,60.5762313 205.088655,59.8178709 205.973942,59.0595106 C208.756275,56.5316427 211.285668,53.6245947 213.688591,50.8439401 C214.068,50.3383665 214.447409,49.9591863 214.826818,49.4536128 C216.091515,48.0632854 217.103272,46.5465647 218.115029,45.029844 C220.770892,40.8588621 224.312042,37.8254207 228.99142,35.9295198 C231.394343,34.9183727 233.923736,34.5391925 236.579599,34.6655859 C238.097235,34.7919793 239.235462,35.2975528 240.120749,36.4350934 C240.247219,36.5614868 240.373689,36.6878801 240.500158,36.8142735 C240.753098,36.6878801 240.879567,36.4350934 241.006037,36.3087 C241.638385,35.5503396 242.397203,35.2975528 243.40896,35.5503396 C244.041309,35.676733 244.800127,35.8031264 245.558945,35.9295198 C246.317763,36.0559132 247.076581,35.9295198 247.582459,35.2975528 C248.088338,34.7919793 248.594216,34.2864057 249.100095,33.6544387 C249.100095,33.6544387 249.226565,33.6544387 249.226565,33.7808321 C249.226565,33.9072255 249.226565,34.0336189 249.100095,34.1600123 C246.823641,38.583781 244.420718,42.8811564 242.144264,47.3049251 C240.247219,50.8439401 238.350174,54.3829551 236.453129,58.0483634 C235.947251,58.9331172 235.694311,59.8178709 235.694311,60.8290181 C235.694311,61.9665586 236.453129,62.8513123 237.717826,62.7249189 C238.223705,62.7249189 238.856053,62.5985255 239.235462,62.3457388 C240.120749,61.8401652 241.006037,61.3345916 241.891325,60.8290181 C244.041309,59.3122974 246.064823,57.5427899 247.961868,55.7732824 C251.250079,52.739841 254.285351,49.5800062 257.320623,46.293778 C258.585319,44.9034506 259.850016,43.3867299 261.241182,41.8700092 C261.494121,41.9964026 261.620591,42.122796 262,42.3755828 C261.241182,43.2603365 260.608834,44.0186969 259.976485,44.9034506 C257.067683,48.4424656 253.905942,51.8550872 250.744201,55.014922 C248.088338,57.6691833 245.306005,60.3234445 242.017794,62.3457388 C241.258976,62.8513123 240.500158,63.2304925 239.614871,63.6096727 C237.338417,64.7472132 233.544327,64.2416396 231.647282,61.2081982 C231.267873,60.7026247 231.014934,60.0706577 230.635525,59.4386907 C230.509056,59.185904 230.382586,58.9331172 230.256116,58.6803304 C229.876707,59.0595106 229.623768,59.4386907 229.370829,59.8178709 C228.232602,61.2081982 226.967905,62.3457388 225.450269,63.2304925 C223.932633,64.1152463 222.162058,64.368033 220.517953,64.1152463 C218.494438,63.8624595 217.229742,62.5985255 216.344454,60.9554114 C215.585636,59.4386907 215.206227,57.7955766 215.206227,56.1524625 C215.079757,54.6357418 215.206227,52.9926277 215.585636,51.475907 C215.585636,51.3495136 215.585636,51.0967269 215.585636,50.7175467 C215.079757,51.3495136 214.573879,51.8550872 214.19447,52.3606608 C211.665077,55.3941022 209.009214,58.3011502 205.973942,60.8290181 C204.709246,61.8401652 203.444549,62.8513123 201.926913,63.4832793 C200.915156,63.8624595 200.029868,64.2416396 198.891641,64.1152463 C197.626945,63.9888529 196.615188,63.4832793 195.85637,62.3457388 C195.350491,61.5873784 195.097552,60.7026247 195.350491,59.8178709 C195.7299,58.6803304 196.109309,57.5427899 196.615188,56.4052493 C197.121066,55.1413154 197.753415,54.0037749 198.259293,52.739841 C198.512232,52.107874 198.765172,51.3495136 198.891641,50.7175467 C199.018111,50.0855797 198.891641,49.8327929 198.259293,49.7063995 C197.879884,49.5800062 197.500475,49.5800062 197.247536,49.5800062 C195.85637,49.5800062 194.465203,49.5800062 193.200507,49.4536128 C192.821098,49.4536128 192.568159,49.5800062 192.441689,49.9591863 C191.429932,51.7286938 190.291705,53.6245947 189.279948,55.3941022 C188.52113,56.9108229 187.762312,58.4275436 187.003494,59.9442643 C186.624085,60.7026247 186.118206,61.460985 185.612327,62.2193454 C184.85351,63.2304925 183.715283,63.6096727 182.450586,63.2304925 C181.944707,63.1040991 181.438829,62.9777057 180.93295,62.7249189 C180.427072,62.4721322 179.921193,62.7249189 179.541784,62.9777057 C179.162375,63.3568859 178.656496,63.7360661 178.277087,64.1152463 C177.897678,64.368033 177.518269,64.6208198 177.26533,65 C177.26533,65 177.138861,64.8736066 177.138861,64.8736066 C177.3918,64.2416396 177.771209,63.7360661 178.024148,63.1040991 C180.427072,58.6803304 182.703525,54.2565617 185.106449,49.8327929 C185.485858,49.0744326 185.991736,48.1896788 186.371145,47.3049251 C186.371145,47.3049251 186.371145,47.1785317 186.497615,47.1785317 C186.497615,47.1785317 186.371145,47.1785317 186.371145,47.1785317 C185.485858,48.1896788 184.474101,49.200826 183.588813,50.2119731 C180.300602,53.7509881 177.012391,57.2900031 173.344771,60.3234445 C171.827135,61.5873784 170.183029,62.7249189 168.285985,63.6096727 C166.768349,64.2416396 165.377182,64.368033 163.859547,63.8624595 C161.583093,63.1040991 160.191927,61.3345916 160.191927,58.9331172 C160.191927,57.2900031 160.444866,55.7732824 160.950744,54.2565617 C161.456623,52.6134476 162.215441,51.0967269 162.847789,49.5800062 C162.847789,49.4536128 162.974259,49.3272194 162.974259,49.0744326 C162.974259,48.9480392 162.974259,48.9480392 163.100729,48.8216458 C162.974259,48.8216458 162.974259,48.9480392 162.847789,48.9480392 C161.709562,50.0855797 160.697805,51.3495136 159.559578,52.4870542 C157.030185,55.2677088 154.627262,58.0483634 152.097869,60.7026247 C150.706702,62.092952 149.189066,63.2304925 147.292022,63.8624595 C145.774386,64.368033 144.25675,64.4944264 142.739114,63.8624595 C141.347948,63.3568859 140.46266,62.3457388 139.956782,61.0818048 C138.818555,58.4275436 139.197964,56.0260692 140.842069,53.6245947 C143.497932,49.5800062 146.280264,45.4090242 148.936127,41.2380423 C149.442006,40.4796819 149.821415,39.7213216 150.200824,38.9629612 C150.706702,37.8254207 150.580233,37.0670603 148.936127,37.1934537 C147.92437,37.1934537 146.912613,37.6990273 146.027325,38.2046009 C143.750871,39.5949282 141.853826,41.2380423 140.209721,43.1339432 C136.162692,47.5577119 132.874481,52.6134476 130.218618,58.0483634 C129.58627,59.3122974 128.827452,60.4498379 128.195103,61.5873784 C128.068634,61.7137718 127.942164,61.9665586 127.815694,62.092952 C127.056877,63.1040991 126.171589,63.4832793 124.906892,62.9777057 C124.401014,62.7249189 123.768665,62.5985255 123.262787,62.4721322 C122.630439,62.2193454 122.12456,62.3457388 121.745151,62.7249189 C121.239272,63.1040991 120.733394,63.6096727 120.101045,64.1152463 C119.974576,64.2416396 119.721636,64.368033 119.595167,64.4944264 C119.974576,63.7360661 120.353985,62.9777057 120.733394,62.2193454 C123.136317,57.6691833 125.539241,52.9926277 127.942164,48.4424656 C128.068634,48.1896788 128.068634,48.0632854 128.195103,47.8104987 C128.195103,47.8104987 128.195103,47.6841053 128.195103,47.6841053 C128.195103,47.6841053 128.068634,47.6841053 128.068634,47.8104987 C127.183346,48.8216458 126.298059,49.8327929 125.412771,50.7175467 C122.12456,54.2565617 118.709879,57.7955766 114.78932,60.8290181 C113.271684,61.9665586 111.754048,62.9777057 110.109943,63.7360661 C108.086428,64.6208198 104.545278,64.2416396 102.774703,61.5873784 C102.268824,60.9554114 101.889415,60.1970511 101.510006,59.4386907 C101.383536,59.185904 101.257067,59.0595106 101.130597,58.6803304 C100.877658,58.9331172 100.624718,59.185904 100.498249,59.4386907 C99.6129611,60.5762313 98.6012038,61.5873784 97.4629769,62.4721322 C95.9453411,63.6096727 94.1747659,64.2416396 92.1512514,64.2416396 C90.1277369,64.2416396 88.610101,63.3568859 87.5983437,61.7137718 C86.8395258,60.5762313 86.4601168,59.3122974 86.2071775,57.92197 C85.8277685,55.3941022 85.9542382,52.9926277 86.7130561,50.5911533 C86.8395258,50.3383665 86.8395258,49.9591863 86.9659955,49.7063995 C86.5865865,48.4424656 86.9659955,47.3049251 87.4718741,46.293778 Z M106.568792,44.6506639 C106.695262,44.6506639 106.695262,44.5242705 106.568792,44.6506639 C107.32761,43.3867299 107.959958,42.2491894 108.465837,41.1116489 C108.845246,40.3532885 109.098185,39.5949282 109.351125,38.8365678 C109.730534,37.6990273 108.845246,36.0559132 107.32761,36.1823066 C106.821732,36.1823066 106.189383,36.3087 105.683505,36.4350934 C104.418808,36.8142735 103.280581,37.4462405 102.268824,38.2046009 C99.9923701,39.9741083 98.2217949,42.2491894 96.704159,44.6506639 C96.5776893,44.7770572 96.5776893,45.029844 96.4512197,45.1562374 C96.1982804,45.4090242 96.0718107,45.661811 95.8188714,46.0409912 C95.6924017,46.1673846 95.5659321,46.293778 95.4394624,46.4201713 C94.8071142,47.4313185 94.3012355,48.568859 93.6688872,49.5800062 C92.4041907,51.9814806 91.3924334,54.5093484 90.7600851,57.1636097 C90.5071458,58.4275436 90.2542065,59.6914775 90.5071458,60.9554114 C90.7600851,62.092952 91.2659638,62.5985255 92.4041907,62.5985255 C93.6688872,62.5985255 94.8071142,62.092952 95.8188714,61.3345916 C97.083568,60.3234445 98.0953252,59.0595106 98.9806128,57.6691833 C99.7394308,56.4052493 100.624718,55.014922 101.383536,53.6245947 C102.901172,51.0967269 104.292338,48.4424656 105.683505,45.9145978 C106.189383,45.5354176 106.315853,45.1562374 106.568792,44.6506639 Z M220.391483,59.8178709 C220.391483,60.1970511 220.517953,60.7026247 220.517953,61.2081982 C220.644422,62.092952 221.276771,62.5985255 222.162058,62.5985255 C223.679694,62.5985255 224.817921,62.092952 225.956148,61.0818048 C227.600253,59.8178709 228.73848,58.0483634 229.750238,56.2788559 C232.026691,52.3606608 234.176676,48.4424656 236.453129,44.5242705 C237.338417,42.8811564 238.223705,41.1116489 238.982523,39.3421414 C239.235462,38.9629612 239.235462,38.3309942 239.108992,37.8254207 C238.982523,36.8142735 238.223705,36.1823066 237.085478,36.1823066 C236.579599,36.1823066 235.947251,36.3087 235.441372,36.4350934 C233.797267,36.8142735 232.4061,37.8254207 231.141404,38.9629612 C229.117889,40.7324687 227.473784,42.8811564 226.082618,45.1562374 C223.932633,48.568859 222.162058,52.107874 220.897362,56.0260692 C220.770892,57.1636097 220.517953,58.4275436 220.391483,59.8178709 Z M201.168095,34.0336189 C201.168095,34.0336189 201.294565,34.1600123 201.294565,34.1600123 C202.559261,33.5280453 203.697488,32.6432916 204.709246,31.8849312 C207.870987,29.3570634 210.653319,26.4500154 213.309182,23.2901806 C216.217984,19.7511656 218.747377,15.9593638 220.644422,11.9147753 C221.40324,10.3980546 221.909119,8.88133387 222.162058,7.23821977 C222.288528,6.60625281 222.162058,5.97428585 222.035589,5.34231889 C221.909119,4.83674532 221.52971,4.58395853 221.023831,4.71035193 C220.770892,4.83674532 220.517953,4.96313871 220.265013,5.0895321 C219.885604,5.46871228 219.379726,5.72149906 219.000317,6.22707263 C217.482681,7.99658012 215.965045,9.76608761 214.573879,11.6619885 C211.412137,15.8329704 208.629805,20.2567392 205.973942,24.8069013 C204.329837,27.5875559 202.812201,30.2418171 201.673974,33.2752586 C201.294565,33.5280453 201.168095,33.7808321 201.168095,34.0336189 Z M193.200507,48.0632854 C194.212264,48.0632854 195.097552,48.0632854 195.982839,48.0632854 C200.029868,47.9368921 203.19161,46.0409912 205.721003,42.8811564 C206.353351,41.9964026 206.73276,40.9852555 206.85923,39.9741083 C206.985699,38.583781 206.353351,37.9518141 205.088655,37.9518141 C204.582776,37.9518141 203.950428,38.0782075 203.444549,38.3309942 C202.812201,38.583781 202.179852,38.9629612 201.547504,39.4685348 C199.018111,41.2380423 196.868127,43.2603365 194.971082,45.661811 C194.212264,46.293778 193.579916,47.0521383 193.200507,48.0632854 Z" id="Shape" fill="#807C7E" fill-rule="nonzero"></path><path d="M119.737168,33.9590962 C119.610416,34.0851315 119.356912,34.2111669 119.23016,34.3372023 C119.483664,33.8330608 119.610416,33.4549547 119.86392,32.9508133 C121.258194,30.430106 122.145459,27.7833633 122.652468,25.0105853 C123.159477,21.8597012 123.032724,18.8348524 122.145459,15.6839683 C120.877938,11.776872 118.469647,8.8780586 115.047338,6.7354574 C111.878535,4.84492693 108.456226,3.96267938 104.780414,3.58457328 C100.851097,3.20646719 96.9217801,3.71060865 93.1192153,4.84492693 C90.0771636,5.85320985 87.2886161,7.23959886 84.753573,8.8780586 C81.2045126,11.1466952 78.1624608,13.9194732 75.5006656,17.1963927 C73.9796397,18.9608878 72.8388703,21.103489 71.5713487,23.1200548 C69.2898099,26.649045 67.1350232,30.1780352 64.8534844,33.5809901 C61.8114326,38.1182632 58.6426287,42.4034656 55.2203205,46.5626326 C52.9387816,49.3354107 50.6572428,52.1081887 48.2489518,54.8809667 C45.4604044,58.1578862 42.4183526,61.3087703 39.6298052,64.4596544 C38.9960444,65.0898312 38.1087793,65.2158666 37.4750185,64.5856898 C37.855275,63.7034422 38.2355315,62.8211947 38.6157879,61.9389471 C39.503053,59.9223813 40.3903181,57.9058155 41.1508311,55.8892496 C41.7845918,54.2507899 42.1648483,52.6123301 42.2916005,50.847835 C42.6718569,47.3188448 42.4183526,43.91589 42.5451048,40.3868998 C42.5451048,37.362051 42.5451048,34.2111669 42.6718569,31.1863181 C42.7986091,29.2957877 43.0521134,27.5312926 43.4323699,25.6407621 C43.8126264,23.4981609 44.1928828,21.3555597 44.6998915,19.2129585 C45.4604044,16.0620744 46.4744216,12.9111903 48.375704,10.1384122 C49.2629691,8.75202323 50.4037385,7.36563422 51.7980122,6.35735131 C52.0515165,6.10528058 52.3050209,5.97924521 52.6852773,5.72717448 C51.7980122,5.34906839 50.9107471,5.09699766 50.1502342,4.71889157 C46.9814303,3.58457328 43.8126264,2.450255 40.6438224,1.69404281 C37.855275,0.937830625 34.9399754,0.433689167 32.0246758,0.685759896 C28.2221111,0.937830625 24.6730507,2.07214891 21.7577511,4.46682084 C18.462195,7.11356349 16.5609126,10.5165183 16.053904,14.8017207 C15.8003997,16.5662158 15.8003997,18.2046756 16.3074083,19.8431353 C16.814417,21.6076304 17.8284342,23.2460902 18.9692036,24.6324792 C19.7297166,25.5147267 20.6169817,26.3969743 21.5042468,27.4052572 C21.6309989,27.5312926 21.7577511,27.6573279 21.8845032,27.7833633 C21.7577511,27.7833633 21.6309989,27.9093987 21.6309989,27.7833633 C19.3494601,27.0271511 17.3214256,25.8928328 15.8003997,24.0023024 C13.7723652,21.4815951 12.8851001,18.5827817 13.0118522,15.4318976 C13.1386044,11.9029074 14.5328781,8.75202323 16.9411691,6.23131594 C18.7156993,4.34078547 20.870486,2.95439646 23.278777,1.94611354 C25.9405722,0.811795261 28.8558718,0.181618437 31.7711715,0.0555830726 C35.5737362,-0.196487657 39.1227966,0.433689167 42.6718569,1.44197208 C46.0941652,2.32421964 49.3897213,3.58457328 52.6852773,4.84492693 C53.4457903,5.09699766 53.8260467,4.97096229 54.4598075,4.46682084 C55.3470726,3.71060865 56.3610899,3.08043182 57.5018593,2.8283611 C57.8821158,2.70232573 58.3891244,2.57629037 58.896133,2.57629037 C59.5298938,2.57629037 60.1636546,2.95439646 60.2904067,3.58457328 C60.4171589,4.21475011 60.2904067,4.71889157 59.9101503,5.09699766 C59.4031416,5.60113912 58.6426287,5.85320985 58.0088679,6.10528058 C56.9948507,6.35735131 55.9808334,6.35735131 54.9668162,6.23131594 C54.4598075,6.10528058 54.2063032,6.23131594 53.8260467,6.60942204 C52.0515165,8.12184641 51.1642514,10.0123769 50.783995,12.1549781 C50.4037385,14.0455086 50.2769863,16.0620744 50.5304907,17.9526049 C50.783995,20.0952061 50.9107471,22.1117719 51.1642514,24.2543731 C51.4177558,26.5230097 51.7980122,28.6656109 52.0515165,30.9342474 C52.3050209,33.202884 52.6852773,35.5975559 52.431773,37.8661925 C52.3050209,40.0087937 51.6712601,42.0253595 50.9107471,44.0419253 C49.3897213,48.075057 47.3616867,51.856118 45.2069001,55.5111435 C44.5731393,56.5194264 43.9393785,57.5277094 43.3056177,58.5359923 C43.1788656,58.6620276 43.1788656,58.9140984 43.0521134,59.1661691 C43.0521134,59.1661691 43.0521134,59.2922045 42.9253613,59.2922045 C42.9253613,59.2922045 43.0521134,59.1661691 43.0521134,59.1661691 C43.8126264,58.4099569 44.5731393,57.6537447 45.3336522,56.8975325 C48.375704,53.6206131 51.2910036,50.2176582 54.0795511,46.688668 C58.0088679,41.6472534 61.8114326,36.3537681 65.2337409,30.9342474 C68.2757926,26.1449036 71.3178444,21.2295243 74.4866483,16.4401805 C76.2611785,13.5413671 78.4159652,11.0206598 80.9510083,8.75202323 C84.3733165,5.60113912 88.4293855,3.45853792 92.865711,2.19818427 C96.4147714,1.18990135 99.9638318,0.811795261 103.639644,1.06386599 C108.456226,1.31593672 112.7658,2.8283611 116.568364,5.72717448 C119.990673,8.37391714 122.272211,11.776872 123.286229,15.8100037 C124.300246,19.7171 124.173494,23.6241963 123.286229,27.5312926 C122.77922,29.421823 122.145459,31.1863181 121.258194,32.9508133 C121.131442,33.0768486 121.131442,33.202884 121.00469,33.3289193 C121.00469,33.4549547 121.00469,33.4549547 120.877938,33.5809901 C120.370929,33.7070254 119.86392,33.4549547 119.737168,33.9590962 Z M54.5865597,5.60113912 C55.8540812,5.97924521 56.8680985,5.85320985 58.0088679,5.22303302 C58.6426287,4.84492693 58.7693809,4.46682084 58.6426287,4.08871474 C58.3891244,3.71060865 57.8821158,3.71060865 57.5018593,3.71060865 C56.487842,3.96267938 55.6005769,4.46682084 54.840064,5.09699766 C54.7133118,5.22303302 54.7133118,5.34906839 54.5865597,5.60113912 Z" id="Shape" fill="#EBAB20" fill-rule="nonzero"></path><path d="M88,46.3658846 C87.4905159,47.365148 87.1084028,48.4893193 86.5989187,49.4885827 C86.2168056,49.8633065 85.7073215,50.2380302 85.3252084,50.7376619 C82.7777879,53.4856363 80.2303674,56.1087027 77.4282048,58.6068612 C75.5176394,60.3555722 73.479703,61.9793752 71.0596535,63.1035465 C69.6585722,63.852994 68.1301199,64.2277178 66.4742965,63.852994 C63.7995049,63.3533623 62.1436816,61.3548355 62.0163106,58.8566771 C61.8889395,56.6083344 62.5257947,54.4848997 63.2900208,52.4863729 C64.3089891,49.8633065 65.5826993,47.4900559 66.9837806,44.9918974 C68.5122329,42.368831 70.1680563,39.6208566 71.6965086,36.8728823 C72.2059927,35.9985268 72.8428478,35.623803 73.861816,35.623803 C74.7534132,35.623803 75.6450104,35.623803 76.4092366,36.2483426 C76.7913497,36.6230664 77.3008338,36.4981585 77.6829468,36.2483426 C78.0650599,35.9985268 78.319802,35.623803 78.7019151,35.3739872 C79.2113992,34.8743555 79.8482543,34.2498158 80.6124805,34 C80.3577384,34.6245396 80.1029964,35.1241713 79.7208833,35.7487109 C77.8103179,39.2461328 75.8997525,42.8684627 73.9891871,46.3658846 C72.2059927,49.7383985 70.4227983,52.9860046 68.639604,56.3585186 C68.1301199,57.357782 67.8753778,58.4819533 67.7480068,59.6061246 C67.6206357,60.8552039 68.3848619,61.8544672 69.5312011,62.1042831 C70.0406853,62.1042831 70.5501694,62.1042831 71.0596535,61.8544672 C72.0786217,61.2299276 73.0975899,60.605388 73.9891871,59.9808484 C77.6829468,56.9830582 80.9945935,53.6105442 84.3062402,50.2380302 C85.5799505,48.7391351 86.7262897,47.6149638 88,46.3658846 Z" id="Path" fill="#EBAB20"></path><path d="M9.88193227,73.435503 C9.12301728,74.1881657 8.3641023,74.1881657 7.60518732,73.435503 C6.97275816,72.808284 6.59330067,72.0556213 6.46681484,71.3029586 C5.4549282,66.912426 5.96087152,62.6473373 8.3641023,58.7585799 C9.6289606,56.6260355 11.5262481,55.1207101 13.5500214,53.7408284 C14.3089363,53.2390533 14.9413655,52.7372781 15.5737946,52.3609467 C15.7002805,52.235503 15.9532521,52.1100592 16.079738,51.9846154 C16.5856813,51.4828402 16.8386529,50.9810651 16.5856813,50.3538462 C16.3327096,49.6011834 15.8267663,49.0994083 15.0678513,49.0994083 C14.561908,49.0994083 14.0559647,49.0994083 13.6765072,49.2248521 C12.6646205,49.6011834 11.7792197,50.1029586 10.7673331,50.4792899 C9.6289606,50.9810651 8.61707396,51.4828402 7.47870149,51.7337278 C5.20195654,52.235503 3.17818325,51.7337278 1.53386745,50.1029586 C0.521980807,48.9739645 0.0160374852,47.5940828 0.0160374852,46.2142012 C-0.110448345,44.2071006 0.521980807,42.3254438 1.53386745,40.6946746 C2.1662966,39.6911243 2.79872576,38.8130178 3.55764074,37.8094675 C5.20195654,35.8023669 6.21384318,33.5443787 6.34032901,30.9100592 C6.34032901,30.5337278 6.46681484,30.1573964 6.46681484,29.5301775 C7.09924399,30.5337278 7.47870149,31.2863905 8.11113064,32.164497 C9.24950311,33.9207101 10.6408472,35.4260355 12.1586772,36.8059172 C15.4473088,39.4402367 19.3683696,39.3147929 22.5305153,37.1822485 C23.7953736,36.304142 24.9337461,35.1751479 25.6926611,33.9207101 C27.5899485,31.035503 28.4753494,27.8994083 28.6018352,24.512426 C28.6018352,23.383432 28.6018352,22.2544379 28.6018352,21 C28.728321,21.1254438 28.8548068,21.2508876 28.9812927,21.5017751 C31.2580376,24.7633136 33.4082967,28.0248521 35.6850417,31.4118343 C36.5704425,32.791716 37.4558433,34.2970414 37.8353008,35.9278107 C38.3412441,38.8130178 37.708815,41.4473373 35.5585559,43.5798817 C34.7996409,44.3325444 34.0407259,44.7088757 33.0288393,45.0852071 C32.1434384,45.4615385 31.1315518,45.8378698 30.246151,46.2142012 C29.3607502,46.5905325 28.6018352,46.9668639 27.8429202,47.5940828 C26.5780619,48.5976331 26.4515761,49.9775148 27.5899485,51.2319527 C28.0958919,51.8591716 28.728321,52.3609467 29.3607502,52.8627219 C29.8666935,53.364497 30.4991226,53.6153846 31.005066,54.1171598 C31.5110093,54.6189349 32.0169526,55.1207101 32.3964101,55.747929 C32.6493818,56.1242604 32.9023534,56.6260355 32.7758676,57.3786982 C32.5228959,57.1278107 32.3964101,57.0023669 32.3964101,56.8769231 C31.8904668,55.747929 30.8785801,54.9952663 29.8666935,54.2426036 C29.1077785,53.7408284 28.3488635,53.364497 27.5899485,52.7372781 C25.0602319,50.8556213 25.5661753,47.9704142 27.4634627,46.4650888 C28.0958919,45.9633136 28.9812927,45.5869822 29.7402077,45.2106509 C30.6256085,44.8343195 31.6374951,44.4579882 32.6493818,44.0816568 C34.9261267,43.2035503 35.9380134,41.4473373 36.3174708,39.0639053 C36.6969283,36.5550296 36.0644992,34.4224852 34.7996409,32.2899408 C33.6612684,30.5337278 32.5228959,28.9029586 31.3845235,27.1467456 C30.8785801,26.3940828 30.3726368,25.6414201 29.9931793,24.8887574 C29.8666935,24.7633136 29.7402077,24.6378698 29.7402077,24.3869822 C29.6137218,24.3869822 29.6137218,24.512426 29.6137218,24.512426 C29.6137218,27.5230769 28.6018352,30.1573964 27.3369769,32.791716 C26.3250902,34.9242604 24.8072603,36.6804734 22.9099728,37.9349112 C21.265657,39.0639053 19.4948554,39.6911243 17.4710821,39.6911243 C15.0678513,39.6911243 13.1705639,38.8130178 11.3997622,37.4331361 C9.6289606,36.0532544 8.23761647,34.1715976 7.22572982,32.164497 C7.09924399,31.9136095 6.97275816,31.6627219 6.84627233,31.4118343 C6.7197865,31.7881657 6.7197865,31.9136095 6.7197865,32.164497 C6.59330067,34.2970414 5.70789986,36.1786982 4.44304155,37.9349112 C3.8106124,38.9384615 3.17818325,39.9420118 2.41926827,40.9455621 C1.40738162,42.4508876 1.02792413,44.0816568 1.02792413,45.8378698 C1.15440996,48.5976331 2.79872576,50.3538462 5.70789986,50.4792899 C6.97275816,50.4792899 8.11113064,50.2284024 9.24950311,49.7266272 C10.1349039,49.3502959 11.1467906,48.8485207 12.1586772,48.4721893 C12.7911064,48.2213018 13.5500214,47.9704142 14.1824505,47.8449704 C15.5737946,47.5940828 16.8386529,48.4721893 17.4710821,49.7266272 C17.7240538,50.3538462 17.7240538,50.9810651 17.3445963,51.608284 C16.8386529,52.3609467 16.079738,52.9881657 15.4473088,53.4899408 C14.0559647,54.4934911 12.6646205,55.6224852 11.3997622,56.7514793 C8.87004562,59.0094675 7.47870149,61.7692308 6.97275816,65.0307692 C6.7197865,66.912426 6.59330067,68.9195266 6.97275816,70.8011834 C7.09924399,71.4284024 7.35221566,72.1810651 7.73167315,72.6828402 C8.3641023,73.5609467 8.87004562,73.6863905 9.88193227,73.435503 C9.88193227,73.3100592 9.88193227,73.435503 9.88193227,73.435503 Z" id="Shape" fill="#838081" fill-rule="nonzero"></path><path d="M90.4545371,42.3722944 C90.3314154,42.6233766 90.0851721,42.7489177 89.9620505,43 C88.4845907,41.8701299 87.2533742,40.3636364 86.268401,38.7316017 C84.6678196,35.969697 83.9290897,33.0822511 83.9290897,29.9437229 C83.9290897,29.6926407 83.9290897,29.3160173 83.9290897,29.0649351 C83.6828464,29.0649351 83.5597247,29.1904762 83.4366031,29.1904762 C81.4666567,29.9437229 79.1273454,28.4372294 79.0042237,25.9264069 C78.8811021,23.038961 81.4666567,20.4025974 84.5446979,21.030303 C84.7909412,21.1558442 85.0371845,21.2813853 85.2834278,21.4069264 C85.5296711,21.5324675 85.7759144,21.6580087 86.0221577,21.9090909 C88.3614691,18.017316 91.5626319,15.5064935 95.8718897,14 C96.118133,14.6277056 95.9950113,14.6277056 95.6256464,14.8787879 C95.0100381,15.1298701 94.3944299,15.3809524 93.7788216,15.6320346 C91.0701453,17.012987 88.730834,19.021645 87.1302526,21.7835498 C86.7608876,22.2857143 86.637766,22.7878788 86.8840093,23.5411255 C87.2533742,24.5454545 86.8840093,25.6753247 86.3915227,26.6796537 C86.1452794,27.0562771 85.8990361,27.4329004 85.6527928,27.8095238 C85.2834278,28.1861472 85.1603062,28.5627706 85.0371845,29.1904762 C84.7909412,33.961039 86.1452794,38.1038961 89.4695639,41.6190476 C89.7158072,41.6190476 90.0851721,41.995671 90.4545371,42.3722944 Z" id="Path" fill="#EAAD20"></path><path d="M20,41.0133333 C20.9711684,40.6333333 21.9423369,40.38 22.9135053,40 C22.7921093,40.2533333 22.7921093,40.5066667 22.6707132,40.6333333 C22.0637329,42.66 22.0637329,44.6866667 23.1562974,46.5866667 C23.1562974,46.5866667 23.1562974,46.5866667 23.1562974,46.7133333 C24.9772382,49.3733333 25.2200303,52.4133333 24.8558422,55.58 C24.491654,58.3666667 24.1274659,61.1533333 23.7632777,63.8133333 C23.2776935,67.4866667 22.7921093,71.2866667 23.0349014,74.96 C23.0349014,75.72 23.1562974,76.48 23.2776935,77.1133333 C23.3990895,77.7466667 23.1562974,77.8733333 22.6707132,78 C22.306525,78 21.9423369,78 21.5781487,78 C20.4855842,78 20.3641882,77.8733333 20.4855842,76.7333333 C20.6069803,75.4666667 20.8497724,74.2 20.9711684,73.06 C21.4567527,69.0066667 21.9423369,64.9533333 21.6995448,60.7733333 C21.5781487,58.4933333 21.0925645,56.34 20.7283763,54.1866667 C20.6069803,53.3 20.4855842,52.4133333 20.2427921,51.6533333 C20.1213961,51.02 20.2427921,50.3866667 20.3641882,49.7533333 C20.6069803,48.74 20.9711684,47.8533333 21.2139605,46.84 C21.4567527,45.9533333 21.5781487,45.0666667 21.4567527,44.0533333 C21.5781487,42.66 21.2139605,41.6466667 20,41.0133333 Z M22.306525,46.46 C22.0637329,47.0933333 22.0637329,47.6 21.8209408,48.1066667 C21.2139605,49.6266667 21.2139605,51.1466667 21.5781487,52.7933333 C22.0637329,54.9466667 22.4279211,57.2266667 22.9135053,59.38 C23.0349014,60.0133333 23.0349014,60.6466667 23.1562974,61.4066667 C23.3990895,61.1533333 23.3990895,60.7733333 23.5204856,60.52 C23.6418816,59.5066667 23.8846737,58.3666667 23.8846737,57.3533333 C24.0060698,55.58 24.2488619,53.9333333 24.2488619,52.16 C24.1274659,50.0066667 23.3990895,48.2333333 22.306525,46.46 Z" id="Shape" fill="#817F80" fill-rule="nonzero"></path><path d="M181.67213,21 C183.810174,21 185.319381,22.6842105 184.94208,24.6090226 C184.690545,26.2932331 183.810174,27.6165414 182.300967,28.4586466 C181.043294,29.1804511 179.785621,29.1804511 178.653716,28.4586466 C177.396043,27.6165414 176.892974,26.5338346 177.018741,25.0902256 C177.270276,22.8045113 179.282552,21 181.67213,21 Z" id="Path" fill="#807C7E"></path><path d="M43.1392405,99 C43.1392405,100 43.1392405,101 43.1392405,102 C42.7594937,102 42.3797468,102 42,102 C42,100.625 42,99.25 42,97.875 C42.1265823,97.875 42.1265823,97.75 42.2531646,97.75 C42.8860759,97.75 43.3924051,97.375 43.5189873,96.875 C43.7721519,96.125 44.0253165,95.375 44.1518987,94.625 C44.4050633,92.875 44.6582278,91.25 44.7848101,89.5 C44.7848101,89.375 44.7848101,89.25 44.9113924,89 C46.8101266,89 48.835443,89 50.7341772,89 C50.7341772,91.875 50.7341772,94.75 50.7341772,97.75 C51.1139241,97.75 51.4936709,97.75 52,97.875 C52,99.25 52,100.625 52,102 C51.6202532,102 51.2405063,102 50.8607595,102 C50.8607595,101 50.8607595,100 50.8607595,99 C48.3291139,99 45.7974684,99 43.1392405,99 Z M46.3037975,90.125 C45.7974684,92.75 45.7974684,95.5 44.5316456,97.875 C45.4177215,97.875 46.3037975,97.875 47.1898734,97.875 C48.0759494,97.875 48.835443,97.875 49.721519,97.875 C49.8481013,96.25 49.8481013,90.75 49.5949367,90.125 C48.4556962,90.125 47.443038,90.125 46.3037975,90.125 Z" id="Shape" fill="#3C3A3A" fill-rule="nonzero"></path><path d="M91.2983857,97.2962067 C91.2983857,98.2881707 91.2983857,99.1561393 91.2983857,100.148103 C91.2983857,101.140067 91.2983857,102.008036 91.2983857,103 C90.90887,103 90.3895157,103 90,103 C90,98.4121662 90,93.8243324 90,89.2364987 C90.3895157,89.2364987 90.7790314,89.2364987 91.1685471,89.2364987 C91.1685471,89.7324807 91.1685471,90.2284627 91.1685471,90.8484403 C91.4282242,90.6004492 91.5580628,90.6004492 91.6879014,90.4764537 C93.7653184,88.2445346 97.2709597,88.6165211 98.958861,91.0964313 C100.257247,93.0803594 100.387085,95.188283 99.0886996,97.1722111 C97.5306368,99.7761168 94.0249955,100.024108 91.9475785,97.7921887 C91.8177399,97.6681932 91.6879014,97.4202022 91.5580628,97.2962067 C91.4282242,97.2962067 91.2983857,97.2962067 91.2983857,97.2962067 Z M94.8040269,98.0401797 C95.7128969,98.0401797 96.3620897,97.7921887 97.0112826,97.2962067 C99.0886996,95.5602695 98.958861,92.2123908 96.7516054,90.7244448 C95.0637041,89.6084852 92.5967713,90.1044672 91.5580628,91.8404043 C91.4282242,92.0883953 91.2983857,92.4603819 91.2983857,92.8323684 C91.2983857,93.5763414 91.2983857,94.44431 91.2983857,95.188283 C91.2983857,95.3122785 91.2983857,95.5602695 91.4282242,95.6842651 C91.9475785,97.0482156 93.3758027,98.0401797 94.8040269,98.0401797 Z" id="Shape" fill="#3B393A" fill-rule="nonzero"></path><path d="M214.968831,94.4761485 C212.172543,94.4761485 209.24915,94.4761485 206.452862,94.4761485 C206.452862,95.9265007 207.469694,97.3768528 208.867838,97.8603036 C210.393087,98.464617 211.918335,97.8603036 213.316479,96.4099514 C213.697791,96.5308141 213.951999,96.5308141 214.333311,96.6516767 C214.079103,97.2559902 213.697791,97.7394409 213.189375,97.9811662 C211.664127,99.0689304 209.884671,99.3106557 208.105214,98.5854796 C206.198654,97.8603036 205.181822,96.4099514 205.054718,94.5970112 C204.673406,91.9380322 206.325758,89.7625039 208.740734,89.1581905 C212.172543,88.3121517 215.350143,90.9711307 214.968831,94.4761485 Z M206.325758,93.3883844 C208.740734,93.3883844 211.282815,93.3883844 213.697791,93.3883844 C213.697791,91.5754441 212.172543,90.125092 210.265983,90.0042293 C208.105214,89.8833666 206.452862,91.4545815 206.325758,93.3883844 Z" id="Shape" fill="#3C3A3A" fill-rule="nonzero"></path><path d="M168,98.9043365 C167.636364,98.9043365 167.151515,98.9043365 166.787879,98.9043365 C166.787879,96.4079212 166.787879,93.7866852 166.787879,91.1654492 C166.545455,91.5399115 166.30303,91.6647322 166.181818,91.9143738 C164.727273,94.0363267 163.151515,96.1582797 161.69697,98.2802327 C161.212121,98.9043365 160.727273,99.153978 160,98.9043365 C160,95.6589967 160,92.4136568 160,89.0434962 C160.363636,89.0434962 160.727273,89.0434962 161.212121,89.0434962 C161.212121,89.9172415 161.212121,90.6661661 161.212121,91.5399115 C161.212121,92.4136568 161.212121,93.2874022 161.212121,94.1611475 C161.212121,95.0348928 161.090909,95.9086382 161.333333,96.9072043 C161.575758,96.6575628 161.69697,96.4079212 161.939394,96.1582797 C163.515152,94.0363267 165.090909,91.789553 166.545455,89.6676 C166.909091,89.0434962 167.393939,88.9186754 168,89.0434962 C168,92.288836 168,95.5341759 168,98.9043365 Z" id="Path" fill="#3C3A3A"></path><path d="M247,98.8832682 C247,95.6410057 247,92.3987433 247,89.0317784 C247.369231,89.0317784 247.738462,89.0317784 248.230769,89.0317784 C248.230769,91.5258265 248.230769,94.1445769 248.230769,96.6386249 C248.6,96.6386249 248.723077,96.2645177 248.846154,96.1398153 C250.446154,94.0198745 252.046154,91.7752313 253.523077,89.6552904 C253.892308,89.1564808 254.384615,88.907076 255,89.0317784 C255,92.2740409 255,95.5163033 255,98.8832682 C254.630769,98.8832682 254.261538,98.8832682 253.769231,98.8832682 C253.769231,96.3892201 253.769231,93.8951721 253.769231,91.2764216 C253.769231,91.2764216 253.646154,91.2764216 253.646154,91.2764216 C253.523077,91.401124 253.4,91.6505289 253.276923,91.7752313 C251.676923,93.8951721 250.076923,96.0151129 248.6,98.2597562 C248.230769,99.0079706 247.738462,99.132673 247,98.8832682 Z" id="Path" fill="#3C3A3A"></path><path d="M227.107692,96.87596 C227.353846,96.5054219 227.6,96.3819093 227.723077,96.1348839 C229.323077,94.0351683 230.923077,91.81194 232.4,89.7122244 C232.769231,89.094661 233.261538,88.8476356 234,89.094661 C234,92.3059907 234,95.5173205 234,98.8521629 C233.630769,98.8521629 233.261538,98.8521629 232.769231,98.8521629 C232.769231,96.3819093 232.769231,93.9116556 232.769231,91.4414019 C232.769231,91.4414019 232.646154,91.4414019 232.646154,91.4414019 C232.523077,91.6884273 232.276923,91.9354527 232.153846,92.0589654 C230.676923,94.158681 229.2,96.1348839 227.723077,98.2345995 C227.230769,98.8521629 226.861538,99.222701 226,98.8521629 C226,95.6408332 226,92.4295034 226,89.094661 C226.369231,89.094661 226.738462,89.094661 227.230769,89.094661 C227.107692,91.5649146 227.107692,94.158681 227.107692,96.87596 Z" id="Path" fill="#3B393A"></path><path d="M55,98.9068513 C55,95.6776958 55,92.4485402 55,89.0951864 C55.3636364,89.0951864 55.8484848,89.0951864 56.2121212,89.0951864 C56.2121212,91.7033505 56.2121212,94.1873163 56.2121212,96.9196787 C56.4545455,96.6712821 56.5757576,96.4228855 56.6969697,96.2986872 C58.2727273,94.063118 59.8484848,91.9517471 61.4242424,89.7161779 C61.7878788,89.0951864 62.2727273,88.8467898 63,89.0951864 C63,92.3243419 63,95.5534975 63,98.9068513 C62.6363636,98.9068513 62.1515152,98.9068513 61.7878788,98.9068513 C61.7878788,96.4228855 61.7878788,93.9389197 61.7878788,91.3307556 C61.4242424,91.4549539 61.3030303,91.7033505 61.1818182,91.9517471 C59.7272727,94.063118 58.1515152,96.0502906 56.6969697,98.1616615 C56.2121212,98.9068513 55.7272727,99.1552479 55,98.9068513 Z" id="Path" fill="#3B393A"></path><path d="M108.103549,93.5941162 C108.103549,92.9823914 108.103549,92.3706667 107.977119,91.8812869 C107.724259,90.7801824 106.839248,90.1684577 105.701377,90.0461127 C104.689937,89.9237678 103.804926,90.1684577 103.046346,90.5354925 C102.667055,90.6578375 102.414195,90.9025273 102.034905,91.1472172 C101.908475,90.9025273 101.782045,90.6578375 101.529185,90.2908026 C103.172776,89.1896981 104.942797,88.7003183 106.839248,89.1896981 C108.229979,89.5567329 109.114989,90.5354925 109.36785,92.0036319 C109.49428,92.6153566 109.49428,93.2270813 109.49428,93.8388061 C109.49428,94.8175656 109.49428,95.9186702 109.49428,96.8974297 C109.49428,97.2644646 109.49428,97.5091545 109.74714,97.7538444 C110,97.9985343 109.87357,98.3655691 110,98.732604 C109.49428,99.0996388 108.988559,98.9772938 108.609269,98.610259 C108.356409,98.3655691 108.356409,97.8761893 108.103549,97.3868095 C107.977119,97.5091545 107.850689,97.6314994 107.724259,97.7538444 C106.586388,98.732604 105.195657,99.0996388 103.678496,98.9772938 C102.287765,98.8549489 101.149894,97.7538444 101.023464,96.40805 C100.897034,95.3069454 101.276324,94.4505308 102.287765,93.7164611 C102.919916,93.2270813 103.678496,93.1047364 104.563507,92.9823914 C105.574947,92.8600465 106.586388,92.9823914 107.597828,93.2270813 C107.597828,93.5941162 107.724259,93.5941162 108.103549,93.5941162 Z M107.977119,94.5728758 C106.712818,94.083496 105.574947,93.961151 104.437076,94.083496 C103.931356,94.2058409 103.299206,94.3281859 102.793485,94.6952207 C102.034905,95.0622555 101.908475,95.7963252 102.034905,96.5303949 C102.287765,97.3868095 102.793485,97.9985343 103.678496,98.1208792 C105.195657,98.3655691 106.459958,97.9985343 107.471398,96.8974297 C107.597828,96.6527399 107.850689,96.40805 107.850689,96.1633601 C108.103549,95.5516353 107.977119,95.0622555 107.977119,94.5728758 Z" id="Shape" fill="#3D3C3C" fill-rule="nonzero"></path><path d="M122,94.4050463 C122,92.9505783 122.50551,91.7605591 123.390152,90.7027643 C125.285814,88.4549502 128.571629,88.4549502 130.467291,90.5705399 C132.48933,92.6861296 132.48933,96.2561873 130.593668,98.371777 C129.203516,99.9584692 127.055099,100.355142 125.159437,99.6940205 C123.263775,98.76845 122,96.7850847 122,94.4050463 Z M123.263775,94.1405976 C123.263775,95.5950655 123.642907,96.6528603 124.401172,97.4462065 C125.664947,98.9006744 127.686986,99.0328987 129.077139,97.8428795 C131.225556,96.1239629 131.099178,92.4216809 128.824384,90.8349886 C127.560609,89.9094181 126.044079,89.9094181 124.780304,90.967213 C123.769285,91.8927835 123.390152,93.0828027 123.263775,94.1405976 Z" id="Shape" fill="#3B393A" fill-rule="nonzero"></path><path d="M72,89 C72,92.370319 72,95.6158114 72,98.8613037 C71.637931,98.8613037 71.1551724,98.8613037 70.7931034,98.8613037 C70.7931034,97.6130374 70.7931034,96.3647712 70.7931034,95.2413315 C70.0689655,95.2413315 69.4655172,95.2413315 68.7413793,95.2413315 C68.137931,96.1151179 67.5344828,97.1137309 66.9310345,98.112344 C66.3275862,99.110957 66.3275862,99.110957 65,98.8613037 C65.8448276,97.6130374 66.6896552,96.3647712 67.4137931,95.1165049 C67.2931034,94.9916782 67.1724138,94.8668516 67.0517241,94.8668516 C65.6034483,94.1178918 65.362069,92.7447989 65.6034483,91.4965326 C65.8448276,90.1234397 66.9310345,89.1248266 68.2586207,89.1248266 C69.4655172,89 70.6724138,89 72,89 Z M70.7931034,93.9930652 C70.7931034,92.6199723 70.7931034,91.371706 70.7931034,90.1234397 C70.1896552,90.1234397 69.4655172,90.1234397 68.862069,90.1234397 C68.6206897,90.1234397 68.5,90.1234397 68.2586207,90.1234397 C67.2931034,90.2482663 66.6896552,91.1220527 66.6896552,92.1206657 C66.6896552,93.1192788 67.2931034,93.9930652 68.2586207,93.9930652 C69.1034483,94.1178918 69.9482759,93.9930652 70.7931034,93.9930652 Z" id="Shape" fill="#3B393A" fill-rule="nonzero"></path><path d="M41.6842105,89 C42.0789474,89 42.4736842,89 43,89 C43,89.2470695 42.8684211,89.3706043 42.8684211,89.494139 C41.2894737,93.2001818 39.7105263,96.7826899 38.1315789,100.488733 C37.8684211,101.106406 37.6052632,101.600545 37.2105263,102.094685 C36.6842105,102.959428 35.7631579,103.082963 34.8421053,102.959428 C34.1842105,102.835893 34.0526316,102.712358 34.0526316,101.97115 C34.0526316,101.847615 34.0526316,101.72408 34.0526316,101.600545 C34.1842105,101.600545 34.1842105,101.600545 34.1842105,101.600545 C35.3684211,102.094685 35.8947368,101.97115 36.5526316,100.982872 C36.5526316,100.859337 36.6842105,100.859337 36.6842105,100.735802 C37.6052632,99.1298503 37.6052632,99.0063155 36.8157895,97.4003637 C35.6315789,94.8061337 34.4473684,92.2119037 33.2631579,89.7412086 C33.1315789,89.494139 33.1315789,89.3706043 33,89.1235348 C33.5263158,89.1235348 33.9210526,89.1235348 34.4473684,89.1235348 C35.6315789,91.8412995 36.9473684,94.6825989 38.2631579,97.5238984 C38.2631579,97.5238984 38.3947368,97.5238984 38.3947368,97.5238984 C39.3157895,94.6825989 40.5,91.8412995 41.6842105,89 Z" id="Path" fill="#3C3A3A"></path><path d="M176,97.3010942 C176.374843,97.1688567 176.624738,97.0366192 176.874634,96.9043818 C177.999163,98.6234688 179.498534,99.2846561 181.497697,98.4912314 C182.872121,97.9622815 183.746755,96.3754319 183.621807,94.9208198 C181.997488,94.9208198 180.373168,94.9208198 178.623901,94.9208198 C178.623901,94.5241074 178.623901,94.2596325 178.623901,93.7306826 C180.24822,93.7306826 181.87254,93.7306826 183.496859,93.7306826 C183.496859,92.2760705 182.497278,90.8214584 181.247802,90.2925085 C179.74843,89.7635586 178.249058,90.160271 176.999581,91.8793581 C176.874634,91.8793581 176.749686,91.7471206 176.624738,91.7471206 C176.499791,91.6148832 176.374843,91.4826457 176.124948,91.3504082 C176.749686,90.2925085 177.499372,89.4990837 178.498953,89.2346088 C182.122435,88.1767091 185.121179,90.8214584 184.996231,94.6563449 C184.871284,97.1688567 183.496859,99.2846561 181.247802,99.813606 C179.873377,100.210318 178.623901,99.9458435 177.374424,99.2846561 C176.749686,98.7557063 176.249895,98.094519 176,97.3010942 Z" id="Path" fill="#3B393A"></path><path d="M244.6,89.0940439 C243.266667,90.7241379 241.933333,92.2288401 240.6,93.8589342 C242.066667,95.4890282 243.4,97.2445141 245,99 C244.6,99 244.2,99 243.933333,99 C243.533333,99 243.266667,98.8746082 243.133333,98.6238245 C242.2,97.4952978 241.4,96.492163 240.466667,95.3636364 C239.666667,94.4858934 239.666667,94.4858934 238.333333,94.4858934 C238.333333,95.9905956 238.333333,97.369906 238.333333,99 C237.933333,99 237.533333,99 237,99 C237,95.7398119 237,92.4796238 237,89.0940439 C237.4,89.0940439 237.8,89.0940439 238.333333,89.0940439 C238.333333,90.4733542 238.333333,91.9780564 238.333333,93.3573668 C238.866667,93.3573668 239.266667,93.3573668 239.8,93.3573668 C240.733333,92.2288401 241.666667,91.1003135 242.6,89.846395 C243,89.0940439 243.666667,88.8432602 244.6,89.0940439 Z" id="Path" fill="#3C3A3A"></path><path d="M81.3114754,99 C80.7868852,99 80.3934426,99 80,99 C80,95.7578547 80,92.5157094 80,89.1488662 C80.3934426,89.1488662 80.7868852,89.1488662 81.3114754,89.1488662 C81.3114754,90.5205431 81.3114754,92.0169178 81.3114754,93.3885947 C81.5737705,93.3885947 81.8360656,93.3885947 81.9672131,93.3885947 C82.4918033,93.5132926 82.7540984,93.2638968 83.0163934,92.8898031 C83.8032787,91.767522 84.7213115,90.7699388 85.5081967,89.7723557 C85.9016393,89.2735641 86.295082,88.8994704 87.0819672,89.0241683 C87.2131148,89.0241683 87.3442623,89.0241683 87.6065574,89.0241683 C86.295082,90.6452409 84.9836066,92.2663136 83.6721311,93.7626884 C85.1147541,95.383761 86.4262295,97.1295316 88,98.8753021 C87.4754098,98.8753021 87.0819672,98.8753021 86.6885246,98.8753021 C86.4262295,98.8753021 86.295082,98.6259063 86.1639344,98.5012084 C85.2459016,97.3789273 84.3278689,96.3813442 83.5409836,95.1343652 C83.0163934,94.3861778 82.3606557,94.136782 81.442623,94.3861778 C81.3114754,96.0072505 81.3114754,97.3789273 81.3114754,99 Z" id="Path" fill="#3C3A3A"></path><path d="M143,89 C143.379889,89 143.633149,89 143.886408,89 C144.013038,89 144.139668,89 144.392927,89 C144.392927,90.1328671 144.392927,91.2657343 144.392927,92.5244755 C144.772817,92.5244755 145.026076,92.5244755 145.279336,92.5244755 C145.785855,92.5244755 146.292374,92.5244755 146.798893,92.5244755 C149.204858,92.6503497 150.471155,94.6643357 149.838007,96.8041958 C149.458117,98.0629371 148.445079,98.8181818 147.178782,98.9440559 C145.912484,99.0699301 144.519557,98.9440559 143.12663,98.9440559 C143.12663,97.3076923 143.12663,95.6713287 143.12663,93.9090909 C143,92.3986014 143,90.7622378 143,89 Z M144.266298,93.7832168 C144.266298,94.5384615 144.266298,95.1678322 144.266298,95.9230769 C144.266298,96.5524476 144.266298,97.3076923 144.266298,97.9370629 C145.152706,97.9370629 145.912484,97.9370629 146.798893,97.9370629 C147.432041,97.9370629 147.811931,97.6853147 148.19182,97.1818182 C148.698339,96.4265734 148.698339,95.6713287 148.31845,94.7902098 C147.93856,94.034965 147.305412,93.6573427 146.545633,93.6573427 C145.912484,93.6573427 145.152706,93.7832168 144.266298,93.7832168 Z" id="Shape" fill="#3B393A" fill-rule="nonzero"></path><path d="M193.773185,96.2356824 C194.141229,96.3562652 194.386592,96.3562652 194.631955,96.4768479 C194.754637,96.4768479 194.877318,96.5974306 195,96.5974306 C194.754637,97.3209269 194.141229,97.8032577 193.527822,98.2855886 C190.706147,99.9737466 186.534975,98.6473367 186.044249,94.5475244 C185.921567,93.5828627 186.044249,92.618201 186.534975,91.6535393 C187.884472,88.8801369 191.074191,88.5183887 193.037096,89.4830505 C193.895866,89.8447986 194.509274,90.4477122 194.877318,91.2917912 C194.509274,91.4123739 194.141229,91.5329566 193.650503,91.6535393 C193.527822,91.5329566 193.527822,91.4123739 193.40514,91.4123739 C191.932962,89.7242159 189.479331,89.7242159 188.007153,91.5329566 C186.780338,93.1005319 187.025701,95.3916034 188.252516,96.838596 C190.215421,98.526754 192.914414,97.8032577 193.773185,96.2356824 Z" id="Path" fill="#3B393A"></path><path d="M119.773239,96.1936834 C120.141267,96.3149937 120.509295,96.436304 121,96.5576142 C120.386619,97.8920273 119.40521,98.4985787 118.055772,98.8625095 C115.60225,99.4690609 113.148727,98.0133376 112.289994,95.587132 C111.431261,93.0396162 112.535346,90.3707901 114.866193,89.4003079 C116.583659,88.6724463 119.40521,88.7937565 120.754648,90.9773415 C120.754648,91.0986518 120.877324,91.2199621 120.877324,91.3412723 C120.509295,91.4625826 120.141267,91.5838929 119.773239,91.7052032 C119.650562,91.5838929 119.650562,91.5838929 119.527886,91.5838929 C118.301125,89.5216182 114.743516,89.6429285 113.639431,92.4330648 C113.148727,93.6461676 113.148727,94.8592704 113.762107,95.9510629 C115.234221,98.6198889 118.669153,98.1346478 119.773239,96.1936834 Z" id="Path" fill="#3B393A"></path><path d="M20.7734405,96.9320698 C21.1414083,97.0643079 21.5093762,97.196546 22,97.328784 C21.3867202,98.7834031 20.4054726,99.4445936 19.0562572,99.8413078 C16.6031381,100.502498 14.1500191,99.0478793 13.2914274,96.4031174 C12.4328358,93.7583555 13.5367393,90.7168793 15.7445465,89.5267365 C17.4617298,88.6010698 20.2828167,88.7333079 21.6320321,91.2458317 C21.6320321,91.3780698 21.7546881,91.5103079 21.7546881,91.642546 C21.3867202,91.7747841 21.0187524,91.9070222 20.6507845,92.0392603 C20.5281286,92.0392603 20.5281286,92.0392603 20.5281286,91.9070222 C19.6695369,90.5846412 18.5656333,90.1879269 17.2164179,90.4524031 C15.8672024,90.7168793 15.0086107,91.642546 14.5179869,92.9649269 C14.0273631,94.2873079 14.1500191,95.6096888 14.8859548,96.9320698 C16.3578262,99.4445936 19.546881,99.0478793 20.7734405,96.9320698 Z" id="Path" fill="#3B393A"></path><path d="M137.676923,99 C137.184615,99 136.815385,99 136.446154,99 C136.446154,96.0886076 136.446154,93.1772152 136.446154,90.1392405 C135.215385,90.1392405 134.230769,90.1392405 133,90.1392405 C133,89.7594937 133,89.3797468 133,89 C135.707692,89 138.292308,89 141,89 C141,89.3797468 141,89.6329114 141,90.1392405 C139.892308,90.1392405 138.784615,90.1392405 137.676923,90.1392405 C137.676923,93.0506329 137.676923,95.9620253 137.676923,99 Z" id="Path" fill="#3C3A3A"></path><path d="M224,89 C224,89.3797468 224,89.7594937 224,90.1392405 C222.892308,90.1392405 221.784615,90.1392405 220.676923,90.1392405 C220.676923,93.1772152 220.676923,96.0886076 220.676923,99 C220.184615,99 219.815385,99 219.446154,99 C219.446154,96.0886076 219.446154,93.1772152 219.446154,90.1392405 C218.215385,90.1392405 217.230769,90.1392405 216,90.1392405 C216,89.7594937 216,89.3797468 216,89 C218.584615,89 221.292308,89 224,89 Z" id="Path" fill="#3C3A3A"></path><path d="M32,89 C32,89.3797468 32,89.6329114 32,90.1392405 C30.9090909,90.1392405 29.8181818,90.1392405 28.6060606,90.1392405 C28.6060606,93.1772152 28.6060606,96.0886076 28.6060606,99 C28.1212121,99 27.7575758,99 27.3939394,99 C27.3939394,96.0886076 27.3939394,93.1772152 27.3939394,90.1392405 C26.3030303,90.1392405 25.2121212,90.1392405 24,90.1392405 C24,89.7594937 24,89.3797468 24,89 C26.6666667,89 29.3333333,89 32,89 Z" id="Path" fill="#3C3A3A"></path><path d="M201.676923,99 C201.184615,99 200.815385,99 200.446154,99 C200.446154,96.0886076 200.446154,93.1772152 200.446154,90.1392405 C199.338462,90.1392405 198.230769,90.1392405 197,90.1392405 C197,89.7594937 197,89.3797468 197,89 C199.707692,89 202.292308,89 205,89 C205,89.3797468 205,89.6329114 205,90.1392405 C203.892308,90.1392405 202.784615,90.1392405 201.553846,90.1392405 C201.676923,93.0506329 201.676923,95.9620253 201.676923,99 Z" id="Path" fill="#3C3A3A"></path><path d="M152,99 C151.7,99 151.3,99 151,99 C151,95.7088608 151,92.4177215 151,89 C151.3,89 151.6,89 152,89 C152,92.2911392 152,95.5822785 152,99 Z" id="Path" fill="#3D3C3C"></path><path d="M14,35.0790698 C14.129796,35.2093023 14.2595921,35.2093023 14.2595921,35.3395349 C15.0383683,36.1209302 16.2065326,36.1209302 16.8555128,35.2093023 C17.1151049,34.8186047 17.374697,34.427907 17.504493,33.9069767 C17.7640851,33.3860465 17.7640851,32.8651163 18.0236772,32.344186 C18.2832692,31.8232558 18.4130653,31.3023256 18.8024534,30.9116279 C19.8408217,29.7395349 21.1387821,29.6093023 22.1771504,31.0418605 C23.0857226,32.344186 23.2155187,33.7767442 22.6963345,35.3395349 C22.5665385,35.7302326 22.4367425,36.1209302 22.1771504,36.5116279 C21.6579662,37.1627907 21.1387821,37.1627907 20.6195979,36.5116279 C19.8408217,35.4697674 19.7110257,34.2976744 20.2302098,33.1255814 C20.3600059,32.6046512 20.749394,32.344186 21.2685781,32.2139535 C21.5281702,32.0837209 21.7877623,31.9534884 21.7877623,31.8232558 C21.7877623,31.5627907 21.6579662,31.3023256 21.3983742,31.172093 C20.749394,30.6511628 19.8408217,30.6511628 19.3216376,31.3023256 C18.9322494,31.6930233 18.6726574,32.344186 18.4130653,32.8651163 C18.1534732,33.5162791 17.8938811,34.2976744 17.6342891,34.9488372 C17.374697,35.4697674 16.9853089,35.8604651 16.5959208,36.2511628 C15.5575525,36.6418605 14.3893881,36.2511628 14,35.0790698 Z M22.3069464,34.1674419 C22.3069464,34.1674419 22.3069464,34.1674419 22.3069464,34.1674419 C22.1771504,34.0372093 22.3069464,33.7767442 22.1771504,33.6465116 C22.1771504,33.1255814 21.9175583,32.8651163 21.5281702,32.7348837 C21.1387821,32.7348837 20.87919,32.9953488 20.749394,33.5162791 C20.6195979,34.1674419 20.749394,34.9488372 21.008986,35.6 C21.1387821,35.7302326 21.2685781,35.9906977 21.5281702,35.9906977 C21.6579662,35.9906977 21.9175583,35.7302326 22.0473543,35.6 C22.1771504,35.2093023 22.1771504,34.6883721 22.3069464,34.1674419 Z" id="Shape" fill="#8B8887" fill-rule="nonzero"></path><path d="M120.066667,33.4038462 C120.2,32.8846154 120.6,33.0144231 121,33.0144231 C120.466667,34.0528846 119.933333,35.0913462 119,36 C119.4,35.0913462 119.8,34.3125 120.333333,33.4038462 C120.333333,33.5336538 120.2,33.5336538 120.066667,33.4038462 Z" id="Path" fill="#D3B22A"></path><path d="M10.281966,72.7777778 C10.381966,72.5777778 10.581966,72.3777778 10.681966,72.1777778 C10.781966,72.5777778 10.681966,72.7777778 10.281966,72.7777778 C10.381966,72.8777778 10.381966,72.7777778 10.281966,72.7777778 Z" id="Path" fill="#8B8887"></path><path d="M120.4,33.65 C120.5,33.55 120.5,33.45 120.6,33.35 C120.5,33.45 120.5,33.55 120.4,33.65 Z" id="Path" fill="#D3B22A"></path><path d="M119.55,34.45 C119.55,34.45 119.45,34.55 119.45,34.55 C119.45,34.55 119.55,34.45 119.55,34.45 Z" id="Path" fill="#EBAB20"></path><path d="M96.6547619,45 C98.3571429,45.5555556 100.059524,45.8888889 101.761905,46 C103.333333,46.1111111 104.77381,46 106.345238,45.7777778 C106.607143,45.7777778 106.738095,45.7777778 107,45.7777778 C106.738095,46.1111111 106.345238,46.5555556 106.083333,46.8888889 C105.166667,46.8888889 104.25,47 103.333333,47 C100.714286,47 98.3571429,46.5555556 96,45.6666667 C96.1309524,45.4444444 96.3928571,45.2222222 96.6547619,45 Z" id="Path" fill="#E8AE21"></path><path d="M138.6,42.5 C138.5,42.5 138.5,42.6 138.4,42.6 C138.4,42.5 138.4,42.5 138.5,42.4 C138.5,42.4 138.6,42.5 138.6,42.5 Z" id="Path" fill="#FFFFFF"></path><path d="M163.4,48.5 C163.5,48.5 163.5,48.4 163.6,48.4 C163.6,48.5 163.6,48.5 163.5,48.6 C163.4,48.6 163.4,48.5 163.4,48.5 Z" id="Path" fill="#FFFFFF"></path><path d="M197.5375,40.5375 C197.4375,40.5375 197.4375,40.5375 197.5375,40.5375 C197.4375,40.4375 197.4375,40.4375 197.5375,40.5375 C197.5375,40.4375 197.5375,40.4375 197.5375,40.5375 C197.5375,40.4375 197.5375,40.5375 197.5375,40.5375 Z" id="Path" fill="#FFFFFF"></path><path d="M107.4625,44.5222222 C107.5625,44.5222222 107.5625,44.4222222 107.4625,44.5222222 C107.5625,44.4222222 107.5625,44.5222222 107.4625,44.5222222 Z" id="Path" fill="#E8AE21"></path><path d="M128.45,47.5125 C128.45,47.5125 128.55,47.5125 128.55,47.4125 C128.55,47.5125 128.55,47.6125 128.45,47.5125 C128.55,47.6125 128.45,47.6125 128.45,47.5125 Z" id="Path" fill="#FFFFFF"></path><path d="M186.45,47.4625 C186.45,47.4625 186.55,47.4625 186.55,47.4625 C186.55,47.4625 186.55,47.5625 186.45,47.4625 C186.45,47.5625 186.45,47.5625 186.45,47.4625 Z" id="Path" fill="#FFFFFF"></path><path d="M42.55,59.45 C42.55,59.45 42.45,59.55 42.45,59.55 C42.45,59.45 42.55,59.45 42.55,59.45 C42.55,59.45 42.55,59.45 42.55,59.45 Z" id="Path" fill="#FFFFFF"></path><path d="M30.5375,23.5375 C30.5375,23.5375 30.4375,23.5375 30.5375,23.5375 C30.4375,23.5375 30.4375,23.5375 30.5375,23.5375 C30.4375,23.4375 30.4375,23.4375 30.5375,23.5375 C30.5375,23.4375 30.5375,23.4375 30.5375,23.5375 Z" id="Path" fill="#FFFFFF"></path></g></g></svg> 