<svg xmlns="http://www.w3.org/2000/svg" width="20" height="19"><path d="M18.86 10.19c-.15.19-.39.3-.64.3-.03 0-.06 0-.09-.01a.798.798 0 0 1-.65-.41c-.09-.18-.11-.33-.13-.72-.02-.59-.07-.98-.15-1.44-.33-1.78-1.21-3.19-2.6-4.2-1.14-.84-2.16-1.18-3.77-1.27-.55-.03-.74-.05-.95-.21a.792.792 0 0 1-.3-.62c-.01-.25.09-.49.26-.64.23-.21.43-.22.93-.2.26 0 .64.03.84.06.99.12 1.67.26 2.63.72.9.43 1.49.84 2.26 1.59.72.7 1.13 1.24 1.55 2.07.6 1.17.93 2.52.99 4.03.02.49.02.71-.18.95zM11.2 5.33c.15.01.4.03.54.06.63.13 1.12.37 1.54.75.54.5.84 1.1.97 1.95.08.53.07.87-.24 1.14-.15.13-.35.2-.55.2-.19 0-.37-.06-.52-.17-.24-.17-.3-.38-.34-.71-.03-.36-.09-.6-.2-.82-.21-.44-.58-.66-1.24-.74-.39-.05-.59-.1-.78-.32a.817.817 0 0 1-.18-.69c.06-.25.21-.46.44-.58.19-.09.3-.09.56-.07zM9.94 3.31c.28-.42.75-.39 1.39-.29 1.87.26 3.3 1.1 4.26 2.48.53.77.87 1.69.98 2.66.03.22.07.99-.02 1.21-.07.17-.24.35-.41.44-.1.05-.23.07-.36.07-.14 0-.3-.03-.41-.09-.42-.21-.46-.61-.46-1.04 0-.69-.18-1.4-.5-1.96-.36-.64-.88-1.18-1.52-1.54-.54-.32-1.38-.56-2.12-.62-.26-.02-.55-.07-.76-.3a.828.828 0 0 1-.07-1.02zm-1.39 8.44c.65.58 1.22.97 1.86 1.28.76.37 1.22.47 1.51.34.07-.03.13-.06.16-.08 0 0 .08-.09.46-.55.36-.43.54-.64.79-.77.07-.04.15-.07.26-.1.49-.17.99-.12 1.49.12.34.17 1.06.61 1.52.92.58.4 1.9 1.43 2.1 1.67.22.26.33.56.35.89.01.25-.04.51-.14.77-.11.28-.34.6-.5.82a7.797 7.797 0 0 1-1.25 1.31c-.06.04-.11.08-.16.11-.3.21-.56.34-.82.42-.19.05-.38.08-.6.09-.07.01-.13.01-.19.01-.34 0-.56-.06-1.04-.25-.4-.16-.81-.34-1.26-.55l-.12-.05c-.38-.18-.76-.37-1.16-.58l-.15-.08c-.39-.21-.76-.42-1.12-.64l-.1-.06c-2.42-1.49-4.45-3.33-6.22-5.62-.17-.22-.33-.43-.49-.65-.07-.11-.15-.22-.23-.33l-.2-.3c-.13-.19-.26-.39-.38-.58l-.03-.05c-.13-.2-.25-.4-.36-.6l-.03-.05C1.93 7.62 1.44 6.6 1.07 5.6.67 4.54.56 3.91 1 3.18c.18-.3.86-.93 1.3-1.25.81-.58 1.17-.79 1.5-.86a1.88 1.88 0 0 1 1.31.28c.66.42 2.23 2.42 2.72 3.36.33.63.43 1.1.32 1.49-.12.41-.34.64-1.05 1.19-.16.12-.31.25-.42.35-.03.02-.05.04-.07.06l-.03.03c-.07.12-.13.32-.13.47 0 .36.26 1.15.69 1.84.31.49.86 1.12 1.41 1.61z" fill="#FFF" opacity=".9"/></svg>