<?xml version="1.0" encoding="UTF-8"?> <svg xmlns="http://www.w3.org/2000/svg" xmlns:xlink="http://www.w3.org/1999/xlink" width="500px" height="300px" viewBox="0 0 500 300"><!-- Generator: Sketch 52.2 (67145) - http://www.bohemiancoding.com/sketch --><title>webpack</title><desc>Created with Sketch.</desc><g id="Page-1" stroke="none" stroke-width="1" fill="none" fill-rule="evenodd"><g id="webpack" transform="translate(179.000000, 71.000000)" fill-rule="nonzero"><path d="M137.627873,121.774176 L73.803182,158 L73.803182,129.791711 L113.570713,107.837938 L137.627873,121.774176 Z M142,117.807386 L142,42.0605738 L118.654095,55.598034 L118.654095,104.290914 L142,117.807386 Z M4.37212728,121.774176 L68.196818,158 L68.196818,129.791711 L28.4083678,107.837938 L4.37212728,121.774176 Z M0,117.807386 L0,42.0605738 L23.3459046,55.598034 L23.3459046,104.290914 L0,117.807386 Z M2.74042428,37.1493092 L68.196818,0 L68.196818,27.263815 L26.253683,50.4139214 L25.9189746,50.6028162 L2.74042428,37.1493092 Z M139.259576,37.1493092 L73.803182,0 L73.803182,27.263815 L115.746317,50.392933 L116.081025,50.5818278 L139.259576,37.1493092 Z" id="Shape" fill="#8ED6FB"></path><path d="M67.2,122 L28,100.628624 L28,58.3207548 L67.2,80.7482742 L67.2,122 Z M72.8,122 L112,100.649333 L112,58.3207548 L72.8,80.7482742 L72.8,122 Z M30.6537314,53.433502 L70,32 L109.346269,53.433502 L70,75.9438564 L30.6537314,53.433502 Z" id="Shape" fill="#1C78C0"></path></g></g></svg> 