<svg xmlns="http://www.w3.org/2000/svg" width="18" height="18"><path d="M9.22 0h-.01C4.37 0 .43 3.92.43 8.74c0 1.91.62 3.68 1.68 5.12l-1.1 3.25 3.38-1.07c1.39.91 3.04 1.44 4.83 1.44 4.84 0 8.78-3.92 8.78-8.74S14.06 0 9.22 0zm5.11 12.34c-.21.6-1.05 1.09-1.72 1.24-.46.09-1.06.17-3.08-.66-2.58-1.07-4.24-3.68-4.37-3.85-.13-.17-1.05-1.38-1.05-2.63 0-1.26.64-1.87.9-2.13.21-.21.56-.31.9-.31.11 0 .21 0 .29.01.26.01.39.02.56.43.21.51.73 1.76.79 1.89.06.13.13.3.04.47-.08.18-.16.26-.29.4-.13.15-.25.27-.38.43-.12.13-.25.28-.1.54.15.25.66 1.09 1.42 1.76.98.87 1.78 1.15 2.06 1.27.22.08.47.06.62-.1.2-.21.44-.56.69-.91.17-.24.4-.27.63-.19.24.09 1.49.7 1.75.83s.43.19.49.3c.06.11.06.62-.15 1.21z" fill="#FFF" opacity=".9"/></svg>