<?xml version="1.0" encoding="UTF-8"?> <svg xmlns="http://www.w3.org/2000/svg" xmlns:xlink="http://www.w3.org/1999/xlink" width="500px" height="300px" viewBox="0 0 500 300"><!-- Generator: Sketch 52.2 (67145) - http://www.bohemiancoding.com/sketch --><title>Group 7</title><desc>Created with Sketch.</desc><defs><polygon id="path-1" points="0.0144827586 0.241717728 140 0.241717728 140 141.985336 0.0144827586 141.985336"></polygon></defs><g id="Page-1" stroke="none" stroke-width="1" fill="none" fill-rule="evenodd"><g id="wordpress-icon-seeklogo.com" transform="translate(179.000000, 79.000000)"><path d="M9.95037931,71.1182926 C9.95037931,95.1879036 23.7640345,115.985649 43.7948966,125.843528 L15.1492069,46.3731429 C11.8172069,53.935315 9.95037931,62.3042719 9.95037931,71.1182926" id="Fill-1" fill="#186B8A"></path><path d="M110.540862,68.0507504 C110.540862,60.5359931 107.875069,55.331852 105.587517,51.2813081 C102.544931,46.2726919 99.6923103,42.0310224 99.6923103,37.0224062 C99.6923103,31.4328365 103.878069,26.2299174 109.774724,26.2299174 C110.041207,26.2299174 110.293207,26.2638898 110.554379,26.2785542 C99.8685172,16.3683718 85.6348621,10.3168744 70.0012069,10.3168744 C49.0214828,10.3168744 30.5648966,21.2156799 19.8268966,37.7240964 C21.2365517,37.7668675 22.5655862,37.7952186 23.6913793,37.7952186 C29.9723103,37.7952186 39.6965172,37.0236282 39.6965172,37.0236282 C42.9336552,36.8303029 43.3152759,41.6448606 40.0827241,42.0322444 C40.0827241,42.0322444 36.8279655,42.4198726 33.208,42.6119759 L55.0769655,108.473336 L68.2195862,68.5647367 L58.8613103,42.6107539 C55.6275517,42.4184062 52.5642069,42.0310224 52.5642069,42.0310224 C49.3282759,41.8389191 49.7074828,36.8290809 52.9436552,37.0224062 C52.9436552,37.0224062 62.8604828,37.7939966 68.7612414,37.7939966 C75.0414483,37.7939966 84.764931,37.0224062 84.764931,37.0224062 C88.0044828,36.8290809 88.3848966,41.6433941 85.1501724,42.0310224 C85.1501724,42.0310224 81.8905862,42.4184062 78.2773793,42.6107539 L99.9788276,107.973769 L105.966724,87.7071188 C108.56469,79.2963683 110.540862,73.2558692 110.540862,68.0507504" id="Fill-2" fill="#186B8A"></path><path d="M71.0545862,76.4377935 L53.0373103,129.448031 C58.416931,131.05158 64.1057586,131.927043 70.0009655,131.927043 C76.9942069,131.927043 83.7004483,130.701102 89.9427586,128.479694 C89.7795862,128.220134 89.6335517,127.943466 89.5152759,127.642602 L71.0545862,76.4377935" id="Fill-3" fill="#186B8A"></path><g id="Group-7"><mask id="mask-2" fill="white"><use xlink:href="#path-1"></use></mask><g id="Clip-5"></g><path d="M122.693828,41.9462134 C122.951621,43.8828881 123.097897,45.9640069 123.097897,48.1988571 C123.097897,54.369136 121.959793,61.3053838 118.531724,69.9781377 L100.18931,123.677112 C118.042207,113.135628 130.050103,93.5516041 130.050103,71.1182926 C130.050828,60.5484578 127.383828,50.6077246 122.693828,41.9462134" id="Fill-4" fill="#186B8A" mask="url(#mask-2)"></path><path d="M70.0012069,138.750131 C33.1739655,138.750131 3.20937931,108.410279 3.20937931,71.1182926 C3.20937931,33.8304613 33.1717931,3.49329776 70.0012069,3.49329776 C106.828207,3.49329776 136.789655,33.8302169 136.789655,71.1182926 C136.789655,108.410768 106.827241,138.750131 70.0012069,138.750131 Z M70.0012069,0.241717728 C31.4029655,0.241717728 0,32.0374974 0,71.118537 C0,110.205198 31.4017586,142.000978 70.0012069,142.000978 C108.598,142.000978 140.006034,110.206176 140.006034,71.118537 C140.004828,32.037253 108.598,0.241717728 70.0012069,0.241717728 Z" id="Fill-6" fill="#186B8A" mask="url(#mask-2)"></path></g></g></g></svg> 