<?xml version="1.0" encoding="UTF-8"?> <svg xmlns="http://www.w3.org/2000/svg" xmlns:xlink="http://www.w3.org/1999/xlink" width="500px" height="300px" viewBox="0 0 500 300"><!-- Generator: Sketch 52.2 (67145) - http://www.bohemiancoding.com/sketch --><title>zotye-auto-lhm</title><desc>Created with Sketch.</desc><defs><linearGradient x1="50.002095%" y1="11.7219335%" x2="50.002095%" y2="67.4720628%" id="linearGradient-1"><stop stop-color="#FFFFFF" offset="0%"></stop><stop stop-color="#000000" offset="100%"></stop></linearGradient><linearGradient x1="64.616661%" y1="107.43193%" x2="36.0050066%" y2="-7.59408148%" id="linearGradient-2"><stop stop-color="#ADADAD" offset="11%"></stop><stop stop-color="#ECECEC" offset="72%"></stop><stop stop-color="#FFFFFF" offset="93%"></stop></linearGradient><linearGradient x1="49.9821205%" y1="-0.310269935%" x2="49.9821205%" y2="100.93081%" id="linearGradient-3"><stop stop-color="#949494" offset="0%"></stop><stop stop-color="#ECECEC" offset="5%"></stop><stop stop-color="#000000" offset="12%"></stop><stop stop-color="#D9D9D9" offset="25%"></stop><stop stop-color="#222220" offset="31%"></stop><stop stop-color="#3E3E3D" offset="36%"></stop><stop stop-color="#CCCCCC" offset="46%"></stop><stop stop-color="#9C9C9C" offset="79%"></stop><stop stop-color="#A3A3A3" offset="85%"></stop><stop stop-color="#D9D9D9" offset="89%"></stop><stop stop-color="#222220" offset="93%"></stop></linearGradient><linearGradient x1="49.9810642%" y1="-0.560498979%" x2="49.9810642%" y2="104.076967%" id="linearGradient-4"><stop stop-color="#FFFFFF" offset="0%"></stop><stop stop-color="#ECECEC" offset="5%"></stop><stop stop-color="#000000" offset="23%"></stop><stop stop-color="#222220" offset="50%"></stop><stop stop-color="#FFFFFF" offset="93%"></stop></linearGradient><linearGradient x1="49.9848476%" y1="11.7328704%" x2="49.9848476%" y2="99.9897886%" id="linearGradient-5"><stop stop-color="#000000" offset="11%"></stop><stop stop-color="#222220" offset="50%"></stop><stop stop-color="#AFAFAF" offset="75%"></stop><stop stop-color="#FFFFFF" offset="100%"></stop></linearGradient><linearGradient x1="49.9621427%" y1="-0.564421449%" x2="49.9621427%" y2="104.081038%" id="linearGradient-6"><stop stop-color="#222220" offset="12%"></stop><stop stop-color="#ADADAD" offset="61%"></stop><stop stop-color="#ECECEC" offset="81%"></stop><stop stop-color="#FFFFFF" offset="97%"></stop></linearGradient><linearGradient x1="50.6962006%" y1="-0.084804564%" x2="49.5209682%" y2="100.277542%" id="linearGradient-7"><stop stop-color="#292929" offset="0%"></stop><stop stop-color="#333333" offset="31%"></stop><stop stop-color="#ADADAD" offset="59%"></stop><stop stop-color="#CCCCCC" offset="81%"></stop><stop stop-color="#919191" offset="100%"></stop></linearGradient><linearGradient x1="49.999187%" y1="-4.70914127%" x2="49.999187%" y2="102.357949%" id="linearGradient-8"><stop stop-color="#ADADAD" offset="11%"></stop><stop stop-color="#DCDCDC" offset="24%"></stop><stop stop-color="#ECECEC" offset="77%"></stop><stop stop-color="#585757" offset="85%"></stop></linearGradient></defs><g id="Page-1" stroke="none" stroke-width="1" fill="none" fill-rule="evenodd"><g id="zotye-auto-lhm" transform="translate(82.000000, 112.000000)"><path d="M86.4414038,12.6431052 C85.6386896,0.44723726 75.0105456,1.00389513 75.0105456,1.00389513 L12.9826329,1.00389513 C12.9826329,1.00389513 2.35970134,0.457358312 1.55177474,12.6431052 C0.769910296,24.2266495 0.86373403,46.0780011 1.55177474,54.1394192 C2.43788778,64.9436424 2.17205386,73 13.8061968,73 L74.2286811,73 C85.8576118,73 85.5969902,64.9436424 86.4831032,54.1394192 C87.1294445,46.0780011 87.2284807,24.2266495 86.4414038,12.6431052 Z M80.2386126,51.0575588 C79.9206543,60.9255847 79.4150486,69.8219896 69.5687691,69.8219896 L18.4556841,69.8219896 C8.60419204,69.8219896 8.1037988,60.9255847 7.78062816,51.0575588 C7.29065977,35.8759805 8.30187112,25.3602072 8.9846994,14.8090104 C9.63625311,6.71216857 12.8262601,4.33878184 18.3670727,4.18190552 L69.6730177,4.18190552 C75.2138304,4.33372131 78.4090498,6.71216857 79.055391,14.8090104 C79.7017323,25.3753888 80.7337933,35.8658595 80.2386126,51.0575588 Z" id="Shape" stroke="#C20D19" stroke-width="1.15" fill="url(#linearGradient-1)" fill-rule="nonzero"></path><path d="M14.108106,76 C2.05018665,76 1.42098813,67.5584083 0.698957032,57.7817715 C0.647383382,57.042362 0.590652368,56.2926829 0.528763988,55.5224647 C-0.121064,47.4197689 -0.229368664,25.0064185 0.528763988,13.1912709 C1.35394239,0.354300385 11.8749669,0 13.1024198,0 L74.8824949,0 C76.0841609,0 86.6258149,0.369704749 87.4509933,13.1912709 C88.2297555,25.0012837 88.1266083,47.4197689 87.4767803,55.5224647 C87.4148919,56.2926829 87.3581608,57.0629012 87.3014299,57.7817715 C86.5793987,67.5378691 85.9502001,76 73.8922808,76 L14.108106,76 Z M18.6362724,6.16688061 C14.1235781,6.29525032 11.4159615,7.88703465 10.7919203,15.5994865 C10.6836156,17.3709884 10.5598389,19.1938383 10.4412195,20.9910141 C9.83265041,30.0744544 9.19829452,39.4762516 9.60572636,52.2207959 C9.95642717,63.1630295 10.7403467,69.8382541 18.7239476,69.8382541 L69.3176981,69.8382541 C77.2806696,69.8382541 78.0852185,63.1630295 78.41529,52.2053915 C78.8175644,39.4505776 78.1883659,30.05905 77.5797968,20.9756097 C77.45602,19.1578948 77.3374007,17.381258 77.229096,15.5584083 C76.6205269,7.85622593 73.8871235,6.27471117 69.3641144,6.15147625 L18.6362724,6.16688061 Z" id="Shape" fill="url(#linearGradient-2)" fill-rule="nonzero"></path><path d="M86.4414038,12.6431052 C85.6386896,0.44723726 75.0105456,1.00389513 75.0105456,1.00389513 L12.9826329,1.00389513 C12.9826329,1.00389513 2.35970134,0.457358312 1.55177474,12.6431052 C0.769910296,24.2266495 0.86373403,46.0780011 1.55177474,54.1394192 C2.43788778,64.9436424 2.17205386,73 13.8061968,73 L74.2286811,73 C85.8576118,73 85.5969902,64.9436424 86.4831032,54.1394192 C87.1294445,46.0780011 87.2284807,24.2266495 86.4414038,12.6431052 Z M80.2386126,51.0575588 C79.9206543,60.9255847 79.4150486,69.8219896 69.5687691,69.8219896 L18.4556841,69.8219896 C8.60419204,69.8219896 8.1037988,60.9255847 7.78062816,51.0575588 C7.29065977,35.8759805 8.30187112,25.3602072 8.9846994,14.8090104 C9.63625311,6.71216857 12.8262601,4.33878184 18.3670727,4.18190552 L69.6730177,4.18190552 C75.2138304,4.33372131 78.4090498,6.71216857 79.055391,14.8090104 C79.7017323,25.3753888 80.7337933,35.8658595 80.2386126,51.0575588 Z" id="Shape" stroke="#ABABAB" stroke-width="1.15" fill="url(#linearGradient-1)" fill-rule="nonzero" style="mix-blend-mode: multiply;"></path><path d="M22.6427678,63 C20.0502414,63 15.7466476,62.0219257 15.7051672,58.3630158 L15.0466655,48.7900507 L39.9867692,30.9668011 C40.2996916,30.6578496 40.5651591,30.3062111 40.7748972,29.9228463 C38.0631146,29.0511945 16.4051493,22.828007 16.1666368,22.7570587 L15,22.41752 L15.6170213,16.3362292 L15.7207223,16.123384 C15.8814589,15.768642 16.8925443,14 20.6205972,14 L66.0883247,14 L66.1609154,14 C66.6172001,14.0405419 70.6719113,14.5067743 72.0718755,17.0811873 L72.2170571,17.3548454 L72.8807438,27.8602751 L48.4591453,45.0500569 C47.9855403,45.3836347 47.6244829,45.8476831 47.4221347,46.3828731 C47.7380456,46.6550267 48.1200775,46.8434657 48.5317361,46.9301892 C53.0012516,48.3086151 71.6467012,54.1871962 71.8333632,54.2480091 L73,54.6179543 L72.2377972,60.1620644 L72.2377972,60.2127417 C71.8598181,61.8400292 70.3725474,62.989846 68.6652959,62.9746613 L22.6427678,63 Z" id="Path" fill="url(#linearGradient-3)"></path><path d="M16,21.0383324 L16.4790759,16.3016764 C16.4790759,16.3016764 17.0414694,15 20.035694,15 L65.6260177,15 C65.6260177,15 69.3284416,15.3564115 70.401155,17.3657453 L71,26.957861 L47.129521,44.0036241 C47.129521,44.0036241 43.0729976,47.1028538 47.6085969,48.5026725 C52.1441961,49.9024912 71,55.9614851 71,55.9614851 L70.401155,60.3417297 C70.1649699,61.3241298 69.2737975,62.01287 68.255728,61.9998176 L22.0665594,61.9998176 C22.0665594,61.9998176 16.5780155,61.9998176 16.5780155,58.6836418 L16,49.6855451 L40.4745313,31.9269592 C40.4745313,31.9269592 43.3437796,29.2048026 40.8338382,28.3783413 C38.323897,27.55188 16,21.0383324 16,21.0383324 Z" id="Path" fill="url(#linearGradient-4)" style="mix-blend-mode: lighten;"></path><path d="M79.6035352,24 C80.2944662,33.0787432 80.5014962,42.1854549 80.2238149,51.284489 C79.9058564,61.0414582 79.4002502,69.8377413 69.5539611,69.8377413 L18.4408265,69.8377413 C8.58932492,69.8377413 8.0889312,61.0414582 7.76576025,51.284489 C7.49065461,42.1954484 7.69768237,33.0988567 8.38603998,24.0300215 C4.59659995,24.5604003 2.07378157,25.0307362 1.08863141,25.2008577 C0.874921586,36.108649 1.0573568,48.6726233 1.53168836,54.3516797 C2.41780226,65.0343102 2.15196809,73 13.7861223,73 L74.2138777,73 C85.8428195,73 85.5821977,65.0343102 86.4683116,54.3516797 C86.9426433,48.6626162 87.1250784,36.0786275 86.9113686,25.1658328 C84.4510995,24.7321897 82.015155,24.3435787 79.6035352,24 Z" id="Path" fill="url(#linearGradient-5)"></path><path d="M47.1177361,42.2816815 L70.9791785,25.4992882 L70.7813742,22.3920026 C55.0378486,20.7556 39.1721635,20.5615027 23.3916335,21.8122471 C30.1273897,23.7549364 39.247208,26.3892636 40.7932046,26.8978209 C43.3021957,27.7115127 40.4340337,30.3916101 40.4340337,30.3916101 L16,47.8758126 L16.5986183,56.734882 C16.5986183,59.9998204 22.0850842,59.9998204 22.0850842,59.9998204 L68.256767,59.9998204 C69.2744509,60.0126712 70.1652859,59.3345724 70.4013817,58.3673512 L71,54.0547847 C71,54.0547847 52.1305129,48.109749 47.5966307,46.7315585 C43.0627484,45.353368 47.1177361,42.2816815 47.1177361,42.2816815 Z" id="Path" fill="url(#linearGradient-6)"></path><path d="M69.3909668,4 L18.6054484,4 C13.1208395,4.15496107 9.96319064,6.58268446 9.31824603,14.8472747 C8.66298231,25.6170688 7.64139004,36.3403747 8.12638839,51.8468121 C8.44628092,61.9192815 8.94159838,71 18.6931609,71 L69.3084139,71 C79.0548168,71 79.5552939,61.9192815 79.8700268,51.8468121 C80.3601848,36.3507054 79.3540712,25.6170688 78.6781692,14.8472747 C78.0487033,6.57751908 74.8755757,4.15496107 69.3909668,4 Z M78.4098723,51.7951585 C78.0487033,62.8180557 77.2747697,69.5330353 69.3084139,69.5330353 L18.7137991,69.5330353 C10.7474433,69.5330353 9.94255242,62.8180557 9.61234078,51.7951585 C9.20473578,38.9643821 9.83936128,29.5169224 10.448189,20.3793848 C10.5668588,18.5508441 10.6906882,16.7636265 10.7990389,14.9557474 C11.402707,7.20769409 14.1321127,5.59609899 18.6467249,5.46696477 L69.3754881,5.46696477 C73.9004196,5.59093363 76.6349847,7.18186724 77.2438124,14.9299206 C77.3521631,16.7377997 77.4708329,18.5456788 77.5946623,20.3793848 C78.1828517,29.5169224 78.8123177,38.9643821 78.4098723,51.7951585 Z" id="Shape" fill="url(#linearGradient-7)" fill-rule="nonzero"></path><path d="M87.4492088,13.1912709 C86.6240469,0.354300385 76.1032345,0 74.8809636,0 L13.1176055,0 C11.9159636,0 1.36936483,0.369704749 0.544203067,13.1912709 C-0.234543348,25.0012837 -0.126240867,47.4197689 0.544203067,55.5224647 C0.606090199,56.2926829 0.66282007,57.0629012 0.714392681,57.7817715 C1.44156649,67.5378691 2.07075233,76 14.1232713,76 L73.9062413,76 C85.9639176,76 86.5931034,67.5584083 87.31512,57.7817715 C87.3718498,57.042362 87.4285797,56.2926829 87.4904668,55.5224647 C88.12481,47.4197689 88.2279552,25.0064185 87.4492088,13.1912709 Z M86.0154901,55.4094993 C85.1387558,66.3722721 85.3966188,74.5468549 73.8907694,74.5468549 L14.1077996,74.5468549 C2.59679296,74.5468549 2.85981327,66.3722721 1.98307889,55.4094993 C1.32294948,47.1938383 1.23011878,25.0372272 1.98307889,13.3042362 C2.78245436,0.929396663 13.2929523,1.49422336 13.2929523,1.49422336 L74.6643586,1.49422336 C74.6643586,1.49422336 85.1800138,0.939666239 85.9742321,13.3042362 C86.7684502,25.0372272 86.6704622,47.2092427 86.0154901,55.4094993 Z" id="Shape" fill="url(#linearGradient-8)" fill-rule="nonzero"></path><path d="M16,21.0383324 L16.4790759,16.3016764 C16.4790759,16.3016764 17.0414694,15 20.035694,15 L65.6260177,15 C65.6260177,15 69.3284416,15.3564115 70.401155,17.3657453 L71,26.957861 L47.129521,44.0036241 C47.129521,44.0036241 43.0729976,47.1028538 47.6085969,48.5026725 C52.1441961,49.9024912 71,55.9614851 71,55.9614851 L70.401155,60.3417297 C70.1649699,61.3241298 69.2737975,62.01287 68.255728,61.9998176 L22.0665594,61.9998176 C22.0665594,61.9998176 16.5780155,61.9998176 16.5780155,58.6836418 L16,49.6855451 L40.4745313,31.9269592 C40.4745313,31.9269592 43.3437796,29.2048026 40.8338382,28.3783413 C38.323897,27.55188 16,21.0383324 16,21.0383324 Z" id="Path" stroke="#D0CFCF" style="mix-blend-mode: multiply;"></path><path d="M103,18.6078157 L107.865783,5.23262757 C107.865783,5.23262757 108.673503,3 111.432402,3 L119.986448,3 C119.986448,3 120.069166,3.04629873 119.825877,3.94655179 C119.582588,4.84680484 114.390798,17.9647779 114.390798,17.9647779 C114.117824,18.6419597 113.464166,19.0570189 112.770492,18.9936385 L103,18.9936385 L103,18.6078157 Z" id="Path" fill="#C41937"></path><path d="M123,6.73803212 L124.614757,3.00903601 L141.873787,3.00903601 C141.873787,3.00903601 143.708738,2.58213025 145.543689,7.59698708 C147.37864,12.6118439 150,18.6142417 150,18.6142417 L150,19 L139.645631,19 C139.645631,19 138.114758,18.9537091 137.679611,17.8427253 C137.244466,16.7317417 134.22466,6.8923354 132.174757,6.8923354 C130.124854,6.8923354 123,6.73803212 123,6.73803212 Z" id="Path" fill="#C41937"></path><path d="M98,45.9846296 L105.759159,25.5676738 C105.759159,25.5676738 106.774755,23.0059479 110.329343,23.0059479 L120.627494,23.0059479 C120.627494,23.0059479 122.095031,23.1750217 122.816104,26.080019 C123.537178,28.9850163 125.903518,33.9189004 125.903518,33.9189004 L129.965905,24.3687861 C129.965905,24.3687861 130.30613,23.0059479 131.149075,23.0059479 L142.320639,23.0059479 C142.320639,23.0059479 144.778383,22.8317505 145.54008,24.3687861 C146.301777,25.9058216 154,45.9743827 154,45.9743827 L144.270584,45.9743827 C143.536435,45.8905822 142.912745,45.39431 142.660863,44.6935198 C142.239391,43.4997555 137.415307,30.7987182 137.415307,30.7987182 L131.575626,45.2314822 C131.202041,45.6541582 130.690097,45.926972 130.133478,46 L121.333333,46 C120.810294,45.9024178 120.368065,45.5519775 120.150163,45.0624082 C119.896264,44.2938906 114.731955,30.7987182 114.731955,30.7987182 L108.9786,45.0624082 C108.9786,45.0624082 108.470802,46 107.876678,46 L98,45.9846296 Z" id="Path" fill="#C41937"></path><rect id="Rectangle" fill="#C41937" x="184" y="28" width="9" height="19"></rect><path d="M215.693639,44.996109 C214.745928,44.2355854 207.495672,36.7976654 207.495672,36.7976654 C207.495672,36.7976654 206.889757,36.2906497 207.495672,35.362811 C208.101585,34.4349724 209.334129,32.9392761 209.334129,32.9392761 L215.988828,33.0305389 L208.443384,24.629289 L214.580207,24.629289 L214.580207,20.5731635 L193.86519,20.5731635 L193.86519,17.0240537 L214.580207,17.0240537 L214.580207,12.9679283 L193.86519,12.9679283 L193.86519,9.41881854 L214.580207,9.41881854 L214.580207,5.36269308 L193.86519,5.36269308 L193.86519,3 L182.989805,3 L182.989805,5.36269308 L162.43015,5.36269308 L162.43015,9.41881854 L182.96909,9.41881854 L182.96909,12.9679283 L162.43015,12.9679283 L162.43015,17.0240537 L182.96909,17.0240537 L182.96909,20.5731635 L162.43015,20.5731635 L162.43015,24.629289 L168.566974,24.629289 L161.011172,33.0203985 L167.665871,32.9291357 C167.665871,32.9291357 168.903593,34.4501828 169.504328,35.3526707 C170.105064,36.2551586 169.504328,36.7875251 169.504328,36.7875251 C169.504328,36.7875251 162.254072,44.2254451 161.306361,44.9859686 C160.358648,45.7464922 161.912274,46 161.912274,46 L172.611581,46 C172.611581,46 180.037915,38.2984318 181.156526,37.1170853 C182.275138,35.9357387 181.156526,34.6276383 181.156526,34.6276383 C181.156526,34.6276383 177.1896,29.5980426 176.842624,29.1721495 C176.495648,28.7462563 176.930663,28.2443109 176.930663,28.2443109 L180.358998,24.6090084 L196.635823,24.6090084 L200.069337,28.2443109 C200.069337,28.2443109 200.499174,28.7513266 200.152198,29.1721495 C199.80522,29.5929725 195.838295,34.6276383 195.838295,34.6276383 C195.838295,34.6276383 194.714505,35.9357387 195.838295,37.1170853 C196.962085,38.2984318 204.383239,46 204.383239,46 L215.087726,46 C215.087726,46 216.641352,45.7566325 215.693639,44.996109 Z" id="Path" fill="#C41937"></path><rect id="Rectangle" fill="#C41937" x="225" y="28" width="9" height="19"></rect><rect id="Rectangle" fill="#C41937" x="225" y="16" width="9" height="9"></rect><rect id="Rectangle" fill="#C41937" x="225" y="3" width="9" height="9"></rect><path d="M249.877278,6.12954187 C249.877278,6.12954187 248.932259,6.31753555 248.932259,5.02369668 L248.932259,3 L238,3 L238,8.71169036 C238,8.71169036 238.258201,10 239.895201,10 L272,10 L272,6.12954187 L249.877278,6.12954187 Z" id="Path" fill="#C41937"></path><rect id="Rectangle" fill="#C41937" x="238" y="12" width="34" height="4"></rect><polygon id="Path" fill="#C41937" points="238 23.6359128 256.776428 23.6359128 256.590523 24.0724207 238 41.0218254 238 41.359127 238 43.1795636 238 45 272 45 272 41.359127 253.197752 41.359127 272 24.3204364 272 23.6359128 272 22.6686508 272 20 238 20"></polygon><polygon id="Path" fill="#C41937" points="98 54 98 56.4720023 110.702648 56.4720023 110.573609 56.7710349 98 68.2937555 98 68.5230138 98 69.7639988 98 71 121 71 121 68.5230138 108.276706 68.5230138 121 56.9355027 121 56.4720023 121 55.8141308 121 54"></polygon><path d="M303.038562,10.0695345 L335,10.0695345 L335,6.34979375 L305.657318,6.34979375 L308.007888,3 L294.630149,3 L292.368975,6.34979375 L281,6.34979375 L281,10.0695345 L289.85539,10.0695345 L281,23.1849146 L281,27.4925162 L305.278702,27.4925162 L305.278702,36.487802 L281,36.487802 L281,40.0352386 L305.278702,40.0352386 L305.278702,46 L316.716039,46 L316.716039,40.0352386 L335,40.0352386 L335,36.487802 L316.716039,36.487802 L316.716039,27.4925162 L335,27.4925162 L335,23.7778432 L316.716039,23.7778432 L316.716039,15.6238067 C316.732852,14.8485109 316.272859,14.1368402 315.543383,13.8095463 L305.28922,13.8095463 L305.28922,23.7778432 L293.841367,23.7778432 L293.841367,23.1849146 L303.038562,10.0695345 Z" id="Path" fill="#C41937"></path><path d="M146.28803,53 L127.434123,53 C124.036367,53 124,55.6306735 124,55.6306735 L124,66.7146428 C124,70.1311018 127.714672,69.9993241 127.714672,69.9993241 L145.643807,69.9993241 C148.433708,69.9993241 149,66.8464205 149,66.8464205 L149,55.5330604 C149,53.3611685 146.28803,53 146.28803,53 Z M139.424979,67.5882801 L133.517872,67.5882801 C133.517872,67.5882801 131.793018,67.5541156 131.793018,66.0264704 C131.793018,64.498825 131.818994,58.2515856 131.818994,58.2515856 C131.818994,58.2515856 131.465711,55.6306735 133.40877,55.6306735 L139.321072,55.6306735 C139.321072,55.6306735 141.123857,55.142608 141.123857,58.2515856 L141.123857,66.158248 C141.123857,66.158248 141.191396,67.5785189 139.424979,67.5785189 L139.424979,67.5882801 Z" id="Shape" fill="#C41937" fill-rule="nonzero"></path><path d="M332.28744,53 L313.429637,53 C310.036375,53 310,55.6306735 310,55.6306735 L310,66.7146428 C310,70.1311018 313.71544,69.9993241 313.71544,69.9993241 L331.648281,69.9993241 C334.433561,69.9993241 334.99997,66.8464205 334.99997,66.8464205 L334.99997,55.5330604 C335.010364,53.3611685 332.28744,53 332.28744,53 Z M325.422971,67.5882801 L319.514642,67.5882801 C319.514642,67.5882801 317.794628,67.5541156 317.794628,66.0264704 C317.794628,64.498825 317.794628,58.2515856 317.794628,58.2515856 C317.794628,58.2515856 317.436075,55.6306735 319.384732,55.6306735 L325.293061,55.6306735 C325.293061,55.6306735 327.096218,55.142608 327.096218,58.2515856 L327.096218,66.158248 C327.096218,66.158248 327.215736,67.5785189 325.422971,67.5785189 L325.422971,67.5882801 Z" id="Shape" fill="#C41937" fill-rule="nonzero"></path><path d="M198,54 L192.030639,54 C192.030639,54 190.161703,54.0878049 189.222128,55.4195122 C188.282553,56.7512195 185.39234,59.7609756 185.39234,59.7609756 L180.796596,54.8 C180.796596,54.8 180.372765,54 178.161703,54 L150,54 L150,56.6292683 L158.001703,56.6292683 L158.001703,71 L164.042553,71 C165.829787,71 165.916596,69.1902439 165.916596,69.1902439 L165.916596,56.6195122 L174.459575,56.6195122 L180.796596,63.9756098 L180.796596,70.8390244 L187.434893,70.990244 C187.434893,70.990244 188.885107,70.990244 188.885107,69.097561 L188.885107,64.8731707 C188.888672,64.337371 189.136675,63.8297005 189.564255,63.4829268 C190.340425,62.7804878 198,54 198,54 Z" id="Path" fill="#C41937"></path><path d="M198.010135,57.7650252 C198.010135,57.7650252 198.177352,53 203.751266,53 L220.898657,53 L220.898657,55.6180923 L207.131087,55.6180923 C207.131087,55.6180923 205.438642,55.9823909 205.438642,57.3570108 L205.438642,60.1936823 L220.898657,60.1936823 L220.898657,62.8652051 L205.428509,62.8652051 L205.428509,65.6387315 C205.428509,65.6387315 205.768011,67.5427987 207.414848,67.5427987 L220.305794,67.5427987 C220.305794,67.5427987 221,67.3825074 221,68.213108 L221,69.9520265 L205.007931,69.9520265 C205.007931,69.9520265 198,70.9234893 198,64.1232495 L198.010135,57.7650252 Z" id="Path" fill="#C41937"></path><path d="M250.266604,56.984572 C248.902554,53.82685 247.201325,54.0017392 247.201325,54.0017392 L241.152507,54.0017392 C237.831789,54.0017392 237.239167,55.8526502 237.239167,55.8526502 L230,70.9125554 C230,70.9125554 234.429328,70.9562777 235.532829,70.9562777 C236.196315,70.9334948 236.774951,70.5208193 236.983728,69.9215165 L238.087228,67.1670112 L248.401892,67.128147 C248.401892,67.128147 248.825923,68.3426555 249.336802,69.722337 C249.527664,70.4714533 250.232566,70.9992657 251.043141,71 L257,71 C257,71 251.625543,60.1422941 250.266604,56.984572 Z M239.875308,64.3056292 L242.603406,57.7958637 C242.744015,57.432765 243.092149,57.1792792 243.497446,57.1448871 C243.884689,57.157821 244.230918,57.3779382 244.391486,57.7132772 L247.114475,64.3056292 L239.875308,64.3056292 Z" id="Shape" fill="#C41937" fill-rule="nonzero"></path><path d="M257,53.0048621 L257,67.0126621 C257.530652,68.8605754 259.355388,70.1039489 261.374069,69.9931484 L277.96678,69.9931484 C277.96678,69.9931484 281.817193,70.1730472 281.817193,66.5896566 L281.817193,57.1085009 C281.817193,57.1085009 281.729917,55.4894112 283.357358,55.4894112 L290.031408,55.4894112 C290.031408,55.4894112 291.314878,55.4067549 291.314878,56.8653942 L291.314878,69.9931484 L297.475538,69.9931484 C297.475538,69.9931484 299.133783,69.6673856 299.133783,68.4178179 L299.133783,56.9529126 C299.133783,56.9529126 298.877089,55.7568284 300.401852,55.7568284 L308,55.7568284 L308,53.0048621 L277.119691,53.0048621 C277.119691,53.0048621 274.465472,53.1555882 274.465472,55.5866538 L274.465472,65.7971293 C274.465472,65.7971293 274.208778,67.4162189 272.755889,67.4162189 L266.672237,67.4162189 C266.672237,67.4162189 264.618683,67.0126621 264.618683,65.4713665 L264.618683,54.7746779 C264.618683,54.7746779 265.214214,53 261.107106,53 L257,53" id="Path" fill="#C41937"></path></g></g></svg> 